<?xml version="1.0" encoding="UTF-8" standalone="no"?>
<!DOCTYPE svg PUBLIC "-//W3C//DTD SVG 1.1//EN" "http://www.w3.org/Graphics/SVG/1.1/DTD/svg11.dtd">
<svg width="100%" height="100%" viewBox="0 0 200 280" version="1.1" xmlns="http://www.w3.org/2000/svg" xmlns:xlink="http://www.w3.org/1999/xlink" xml:space="preserve" xmlns:serif="http://www.serif.com/" style="fill-rule:evenodd;clip-rule:evenodd;stroke-linejoin:round;stroke-miterlimit:2;">
    <g id="cafe-seating-occupied" transform="matrix(1.27,0,0,1.27,-7.315,9.49)">
        <g id="umbrella" transform="matrix(1,0,0,1,-7.07203,0)">
            <g transform="matrix(1,0,0,1.08664,2,-12.828)">
                <path d="M93.134,47.055L88.198,47.07L88.142,147.668L93.415,148.057L93.134,47.055Z" style="fill:rgb(86,64,56);fill-rule:nonzero;"/>
            </g>
            <g transform="matrix(0.996369,0,0,0.996369,0.211418,-9.81329)">
                <path d="M93.033,10L26.809,37.6L25.447,47.987L73.627,51.424L157.94,49.626L156.516,38.5L93.033,10Z" style="fill:rgb(174,31,37);fill-rule:nonzero;"/>
            </g>
            <g transform="matrix(0.996369,0,0,0.996369,0.211418,-9.81329)">
                <path d="M93,10L74.586,40.03L156.481,38.451L93,10Z" style="fill:rgb(107,21,28);fill-rule:nonzero;"/>
            </g>
            <g transform="matrix(0.996369,0,0,0.996369,0.211418,-9.81329)">
                <path d="M26.762,37.6L74.586,40.031L73.65,51.424L25.447,47.987L26.762,37.6Z" style="fill:rgb(107,21,28);fill-rule:nonzero;"/>
            </g>
        </g>
        <g id="table" transform="matrix(1,0,0,1,-3.9863,0)">
            <path d="M85.61,210L86.6,150L93.554,150L94.545,210L85.61,210Z" style="fill:rgb(42,43,42);fill-rule:nonzero;"/>
            <path d="M126.653,147.66L125.146,153.596L52.346,153.651L50.319,147.379L126.653,147.66Z" style="fill:rgb(42,43,42);fill-rule:nonzero;"/>
            <path d="M77.861,213L101.537,213L98.415,204.611L80.888,204.571L77.861,213Z" style="fill:rgb(42,43,42);fill-rule:nonzero;"/>
        </g>
        <g id="salad" transform="matrix(1,0,0,1,60.4009,128.168)">
            <path d="M24.984,10.031L26.671,8.297L25.125,5.859L29.593,6.39L31.125,8.078L33.75,6.75L38.281,9.203L39.5,8.125L41.125,10.125L24.984,10.031Z" style="fill:rgb(103,154,69);fill-rule:nonzero;"/>
            <path d="M26.796,19.391L23.669,9.989L42.36,9.953L39.317,19.432L26.796,19.391Z" style="fill:rgb(246,241,225);fill-rule:nonzero;"/>
        </g>
        <g id="coffee" transform="matrix(1,0,0,1,6.7397,128.068)">
            <path d="M69.751,15.134L68.379,15.59L68.962,13.775L69.758,14.03L69.751,15.134ZM71.445,12.678L69.513,12.058L70.188,9.953L56.502,9.988L59.629,19.391L67.146,19.432L67.703,17.694L71.424,16.456L71.445,12.678Z" style="fill:rgb(246,241,225);fill-rule:nonzero;"/>
        </g>
        <g id="drink" transform="matrix(0.5,0,0,0.5,23.7039,-20.3)">
            <g transform="matrix(1,0,0,1,2,0)">
                <path d="M192,296.25L176,291.877L173.334,318L169,318L172.875,287.5L192,291.502L192,296.25Z" style="fill:rgb(193,190,187);fill-rule:nonzero;"/>
            </g>
            <g transform="matrix(2,0,0,2,150.749,296.747)">
                <path d="M6.374,4L8.107,19L14.877,19L16.198,4L6.374,4Z" style="fill:rgb(246,241,225);fill-rule:nonzero;"/>
                <path d="M6.721,6.985L15.924,6.969L14.877,19.626L7.891,19.609L6.721,6.985Z" style="fill:rgb(151,137,116);fill-rule:nonzero;"/>
            </g>
        </g>
        <g id="person-right" transform="matrix(1,0,0,1,-6.4874,0)">
            <path d="M103.4,208.46L104.969,213L121.501,213L123.277,206.876L115.234,206.21L103.4,208.46Z" style="fill:rgb(86,64,56);fill-rule:nonzero;"/>
            <path d="M117.174,208.314L126.487,171.799L130.32,174.293L122.424,208.564L117.174,208.314Z" style="fill:rgb(192,189,187);fill-rule:nonzero;"/>
            <path d="M158.49,135L151.125,173.959L126.334,173.917L120.845,213L125.303,213L129.625,179.001L150.565,178.969L155.58,213L159.83,213L155.302,179.643L161.463,135L158.49,135Z" style="fill:rgb(86,64,56);fill-rule:nonzero;"/>
            <path d="M136.533,158.001L115.783,163.626L109.531,206.21L117.658,206.876L126.275,173.993L151.124,173.937L153.908,159.376L136.533,158.001Z" style="fill:rgb(227,225,219);fill-rule:nonzero;"/>
            <path d="M97.735,208.46L99.304,213L115.835,213L117.611,206.876L109.569,206.21L97.735,208.46Z" style="fill:rgb(116,91,77);fill-rule:nonzero;"/>
            <path d="M136.486,158.001L153.923,159.392L160.319,125.792L152.319,125.335L145.319,133.127L136.486,158.001Z" style="fill:rgb(31,77,107);fill-rule:nonzero;"/>
            <path d="M151.419,132.667L154.888,136.422L140.739,150.956L123.239,140.656L125.885,138.813L140.421,145.912L151.419,132.667Z" style="fill:rgb(205,170,151);fill-rule:nonzero;"/>
            <path d="M124.585,141.335L119.236,141.251L116.361,136.626L119.861,135.376L127.23,139.491L124.585,141.335Z" style="fill:rgb(205,170,151);fill-rule:nonzero;"/>
            <path d="M123.615,135.379L122.06,136.585L126.216,139.055L123.615,135.379Z" style="fill:rgb(205,170,151);fill-rule:nonzero;"/>
            <path d="M151.486,128.876L148.84,135.793L154.757,139.418L159.705,129.157L151.486,128.876Z" style="fill:rgb(54,99,136);fill-rule:nonzero;"/>
            <path d="M159.689,129.142L160.299,125.798L152.319,125.335L145.319,133.127L151.32,131.376L159.689,129.142Z" style="fill:rgb(54,99,136);fill-rule:nonzero;"/>
            <path d="M159.611,120.252L162.987,111.127L148.486,106.71L145.984,114.96L147.901,115.293L148.402,121.043L153.903,120.585" style="fill:rgb(205,170,151);fill-rule:nonzero;"/>
            <path d="M160.314,125.814L159.57,119.293L153.862,119.627L152.343,125.344L160.314,125.814Z" style="fill:rgb(170,139,126);fill-rule:nonzero;"/>
            <path d="M153.61,121.002L154.939,116.298L157.673,116.69L159.08,112.251L156.095,112.251L156.798,109.735L162.987,111.46L159.694,120.356L153.61,121.002Z" style="fill:rgb(170,139,126);fill-rule:nonzero;"/>
            <path d="M157.174,119.688L155.151,118.126L148.317,119.126L148.237,122.959L157.174,119.688Z" style="fill:rgb(42,43,42);fill-rule:nonzero;"/>
            <path d="M152.024,107.784L142.238,107.75L140.403,104.251L150.043,103.965L152.024,107.784Z" style="fill:rgb(102,153,68);fill-rule:nonzero;"/>
            <path d="M149.113,107.585L162.987,111.46L162.696,103.667L152.779,101.292L148.195,104.126L149.113,107.585Z" style="fill:rgb(102,153,68);fill-rule:nonzero;"/>
            <path d="M156.799,109.735L162.696,103.667L162.987,111.46L156.799,109.735Z" style="fill:rgb(54,128,63);fill-rule:nonzero;"/>
        </g>
        <g id="person-left" transform="matrix(1,0,0,1,6.5,0)">
            <path d="M48.444,206.876L50.221,213L66.752,213L68.321,208.46L56.487,206.21L48.444,206.876Z" style="fill:rgb(42,43,42);fill-rule:nonzero;"/>
            <path d="M54.548,208.314L45.235,171.799L41.402,174.293L49.298,208.564L54.548,208.314Z" style="fill:rgb(103,154,69);fill-rule:nonzero;"/>
            <path d="M10.259,135L16.42,179.643L11.892,213L16.141,213L21.157,178.969L42.097,179.001L46.419,213L50.877,213L45.388,173.917L20.596,173.959L13.232,135L10.259,135Z" style="fill:rgb(86,64,56);fill-rule:nonzero;"/>
            <path d="M32.001,160.502L52.936,164.627L62.191,206.21L54.064,206.876L45.447,173.993L20.598,173.937L17.814,159.376L32.001,160.502Z" style="fill:rgb(137,186,106);fill-rule:nonzero;"/>
            <path d="M54.111,206.876L55.888,213L72.418,213L73.987,208.46L62.153,206.21L54.111,206.876Z" style="fill:rgb(92,94,95);fill-rule:nonzero;"/>
            <path d="M31.834,160.502L17.798,161.394L11.403,125.792L19.403,125.335L27.626,134.875L28.001,141.25L31.834,160.502Z" style="fill:rgb(239,156,116);fill-rule:nonzero;"/>
            <path d="M20.303,132.667L16.834,136.422L36.875,149.063L59.396,142.219L56.75,140.375L37.194,144.019L20.303,132.667Z" style="fill:rgb(225,197,181);fill-rule:nonzero;"/>
            <path d="M59.387,142.21L64.736,142.126L67.611,137.501L64.111,136.251L56.742,140.366L59.387,142.21Z" style="fill:rgb(225,197,181);fill-rule:nonzero;"/>
            <path d="M60.356,136.254L61.911,137.46L57.755,139.93L60.356,136.254Z" style="fill:rgb(225,197,181);fill-rule:nonzero;"/>
            <path d="M12.125,131.188L19.375,139.813L25.25,135.813L21.438,131.5L12.812,128.938L12.125,131.188Z" style="fill:rgb(243,172,138);fill-rule:nonzero;"/>
            <path d="M12.032,129.142L11.423,125.798L19.402,125.335L27.656,134.938L20.401,131.376L12.032,129.142Z" style="fill:rgb(243,172,138);fill-rule:nonzero;"/>
            <path d="M12.11,120.252L8.734,111.127L23.235,106.71L25.737,114.96L23.82,115.293L23.319,121.043L17.818,120.585" style="fill:rgb(225,197,181);fill-rule:nonzero;"/>
            <path d="M11.407,125.814L12.151,119.293L17.703,119.641L19.378,125.344L23.219,129.719L11.407,125.814Z" style="fill:rgb(206,171,151);fill-rule:nonzero;"/>
            <path d="M18.111,121.002L16.782,116.298L14.048,116.69L12.641,111.834L15.626,111.834L14.923,109.735L8.734,111.46L12.027,120.356L18.111,121.002Z" style="fill:rgb(206,171,151);fill-rule:nonzero;"/>
            <path d="M23.625,107.75L17.715,113.187L15.626,112L13,112L14.125,116.25L16.782,116.298L12.437,131.25L6,131.375L8.625,105.625L15.5,101.625L22.25,103.125L23.625,107.75Z" style="fill:rgb(42,43,42);fill-rule:nonzero;"/>
        </g>
    </g>
</svg>
