<svg xmlns="http://www.w3.org/2000/svg" viewBox="0 0 317 131" preserveAspectRatio="xMinYMin"><g fill="none" fill-rule="evenodd"><path d="M122.955 50.97a1.928 1.928 0 01-1.923 1.921h-40.25a1.93 1.93 0 01-1.926-1.921V10.834a1.93 1.93 0 011.926-1.923h6.841a1.93 1.93 0 011.927 1.923V40.29c0 1.058.865 1.922 1.924 1.922h18.864a1.929 1.929 0 001.925-1.922V10.834a1.93 1.93 0 011.924-1.923h6.845c1.058 0 1.923.866 1.923 1.923V50.97zm-.062 68.834a2.251 2.251 0 01-2.246 2.243H81.102a2.251 2.251 0 01-2.246-2.243V80.31a2.25 2.25 0 012.246-2.24h39.545a2.25 2.25 0 012.246 2.24v39.495zM53.653 50.97a1.928 1.928 0 01-1.924 1.921h-6.746c-1.06 0-1.593-.661-2.275-1.469l-21.09-22.864c-.682-.81-1.24-.605-1.24.452v21.96a1.93 1.93 0 01-1.925 1.921h-6.961a1.93 1.93 0 01-1.924-1.921V10.845c0-1.059.866-1.923 1.924-1.923h7.358c1.06 0 1.594.66 2.275 1.47l20.477 22.112c.682.807 1.241.603 1.241-.453V10.845c0-1.059.866-1.923 1.924-1.923h6.962c1.059 0 1.924.864 1.924 1.923V50.97zm0 69.145a1.929 1.929 0 01-1.924 1.922h-6.774a1.929 1.929 0 01-1.924-1.922V97.623c0-1.057-.545-1.25-1.21-.426l-8.937 10.533c-.666.824-1.724.802-2.354-.048l-8.937-10.436c-.629-.85-1.143-.679-1.143.379v22.49a1.93 1.93 0 01-1.927 1.922h-6.902a1.93 1.93 0 01-1.924-1.922V79.99c0-1.06.867-1.922 1.924-1.922h5.951c1.06 0 2.433.699 3.055 1.555l9.919 12c.62.857 1.663.875 2.317.044l9.93-12.09c.655-.83 2.057-1.509 3.114-1.509h5.822c1.059 0 1.924.863 1.924 1.922v40.125zM129.259.31H3.201A2.251 2.251 0 00.956 2.553v125.893A2.252 2.252 0 003.2 130.69h126.06a2.253 2.253 0 002.246-2.244V2.553A2.252 2.252 0 00129.259.31z" fill="#007681"/><path d="M110.113 88.745H91.866a2.251 2.251 0 00-2.244 2.244v18.137a2.249 2.249 0 002.244 2.241h18.247a2.248 2.248 0 002.244-2.24V90.988a2.25 2.25 0 00-2.244-2.244" fill="#007681"/><path fill="#FFF" d="M54.644 59.474h5.024v-1.846h-5.024zm0 3.802h5.024V61.43h-5.024zm0 3.801h5.024V65.23h-5.024zm0 3.802h5.024v-1.847h-5.024zm20.654-11.405h5.023v-1.846h-5.023zm0 3.802h5.023V61.43h-5.023zm0 3.801h5.023V65.23h-5.023zm0 3.802h5.023v-1.847h-5.023zm-14.515 6.194h1.85v-5.017h-1.85zm3.805 0h1.85v-5.017h-1.85zm3.807 0h1.851v-5.017h-1.85zm3.806 0h1.85v-5.017h-1.85zM60.783 56.45h1.85v-5.017h-1.85zm3.805 0h1.85v-5.017h-1.85zm3.807 0h1.851v-5.017h-1.85zm3.806 0h1.85v-5.017h-1.85z"/><path d="M171.122 41.273l-9.443-15.449c-.107-.182-.326-.653-.652-1.307-.074-.18-.363-.725-.655-1.305v18.06h-3.523V17.084h4.83l8.463 14.253c.253.47.762 1.414 1.525 2.902V17.083h3.45v24.19h-3.995m19.779-11.062c-.073-1.341-.29-1.957-.907-2.793-.762-1.014-1.816-1.56-3.123-1.56-2.288 0-3.742 1.526-4.068 4.353h8.098zm3.885 5.839c-1.197 3.626-3.958 5.585-7.951 5.585-5.011 0-8.245-3.626-8.245-9.247 0-5.586 3.377-9.357 8.426-9.357 5.156 0 8.025 3.48 8.06 9.79h-12.273v.51c.036 3.263 1.597 5.113 4.286 5.113 2.07 0 3.195-.835 4.03-2.902l3.667.508zm20.244 5.223h-3.63l-3.23-12.548-3.197 12.548h-3.74l-5.52-17.88h4.284l3.56 12.04 3.05-12.04h3.667l3.16 12.04 3.45-12.04h3.412l-5.265 17.88m33.264-8.633c0 3.628-.434 5.079-2.033 6.674-1.524 1.522-3.704 2.32-6.427 2.32-2.761 0-5.011-.832-6.465-2.356-1.415-1.45-1.924-3.155-1.924-6.347V17.083h4.466v15.558c0 1.887.328 3.156 1.054 3.917.726.761 2.033 1.27 3.414 1.27 1.49 0 2.904-.58 3.594-1.488.545-.725.872-2.066.872-3.7V17.084h3.45v15.558m4.195 8.631v-17.88h3.668v4.28c.836-3.118 2.942-4.968 5.447-4.787v4.351h-.253l-.69.038c-2.395.109-4.068 2.392-4.14 5.73v8.268h-4.032m15.366-7.653c0 3.01 1.345 4.715 3.704 4.715 1.271 0 2.215-.545 2.869-1.596.69-1.16.945-2.284.98-4.895-.109-2.394-.362-3.41-1.054-4.426-.58-.87-1.597-1.377-2.685-1.377-2.326 0-3.814 1.923-3.814 4.931v2.648zm-4.032 7.653v-24.19h4.032v8.741c1.488-2.503 2.688-3.264 4.975-3.264 4.104 0 6.828 3.735 6.828 9.429 0 2.829-.69 5.15-2.071 7.035-1.379 1.812-2.978 2.61-5.375 2.61-2.469 0-3.885-.87-5.483-3.3l-1.09 2.939h-1.816zm29.794-9.103c-5.157 0-7.844 1.27-7.844 3.735 0 1.669 1.197 2.684 3.159 2.684 2.795 0 4.685-1.921 4.685-4.788V32.17zm.616 9.103c-.364-1.306-.507-2.104-.616-3.626-1.236 2.791-3.086 3.988-6.064 3.988-3.487 0-5.92-2.248-5.92-5.476 0-2.793 1.779-4.714 5.156-5.549 1.888-.47 3.631-.616 6.828-.616v-1.342c0-1.85-1.272-2.756-3.814-2.756-2.469 0-3.704.834-4.138 2.756l-3.451-.507c.29-1.74.945-2.758 2.36-3.7 1.49-1.016 3.196-1.414 5.738-1.414 3.087 0 4.975.616 6.137 1.957.907 1.017 1.126 1.996 1.126 4.607v8.052a12.4 12.4 0 00.544 3.626h-3.886zm18.169 0v-11.17c0-2.177-1.091-3.555-2.797-3.555-1.344 0-2.614.87-3.305 2.213-.434.87-.653 1.959-.653 3.336v9.176h-4.032v-17.88h3.668v4.134c1.49-3.227 3.051-4.496 5.484-4.496 2.071 0 4.104 1.087 4.902 2.647.545 1.052.764 2.213.764 4.062v11.533h-4.03M176.133 77.54V56.36l-6.72 21.18h-2.287l-6.716-21.18v21.18h-3.56V53.35h6.827l5.048 15.593 5.011-15.593h6.863v24.19h-4.466m12.187-8.958c0 3.844 1.452 6.02 4.032 6.02 2.614 0 4.065-2.176 4.065-6.094 0-3.844-1.415-5.91-3.993-5.91-2.614 0-4.104 2.14-4.104 5.984zm10.893-5.62c1.054 1.702 1.489 3.335 1.489 5.655 0 5.478-3.486 9.284-8.497 9.284-2.76 0-4.938-1.124-6.391-3.3-1.198-1.74-1.78-3.772-1.78-6.057 0-5.44 3.452-9.246 8.39-9.246 3.014 0 5.192 1.16 6.79 3.663zm8.572 6.923c0 3.012 1.343 4.716 3.702 4.716 1.272 0 2.216-.544 2.87-1.595.69-1.16.944-2.285.98-4.895-.11-2.394-.364-3.41-1.053-4.426-.58-.87-1.599-1.377-2.687-1.377-2.324 0-3.812 1.921-3.812 4.93v2.647zm-4.032 7.655V53.35h4.032v8.74c1.488-2.502 2.686-3.263 4.974-3.263 4.103 0 6.827 3.735 6.827 9.429 0 2.827-.69 5.15-2.07 7.035-1.381 1.812-2.977 2.61-5.374 2.61-2.47 0-3.887-.87-5.485-3.3l-1.088 2.939h-1.816zm19.025-.002h4.032V59.66h-4.032v17.878zm0-19.98h4.032V53.35h-4.032v4.207zm8.082 19.982h4.032V53.35h-4.032zm8.085-.002h4.032V59.66h-4.032v17.878zm0-19.98h4.032V53.35h-4.032v4.207zm16.609 19.982c-1.126.254-2.252.399-2.833.399-1.526 0-2.942-.545-3.812-1.416-.945-.942-1.237-2.03-1.237-4.459v-9.25h-2.212V59.66h2.468l.363-4.642 3.304-.29v4.932h3.63v3.155h-3.63v8.703c0 2.25.654 2.902 2.942 2.902.145 0 .58 0 1.017-.035v3.155m9.805 2.501c-.945 2.757-2.396 3.953-4.866 3.953-.51 0-1.452-.073-2.324-.143v-3.192c.726.035 1.452.035 1.996.035 1.2 0 1.961-.326 2.361-1.015.292-.47.762-1.812.762-2.104 0-.107-.144-.544-.362-1.124l-6.137-16.791h4.213l4.357 11.824 3.74-11.824h3.232l-6.971 20.38" fill="#000"/><path d="M164.801 102.896c-4.124 0-6.273 1.017-6.273 2.988 0 1.335.959 2.147 2.527 2.147 2.236 0 3.746-1.537 3.746-3.83v-1.305zm.495 7.281c-.292-1.045-.408-1.682-.495-2.9-.987 2.234-2.469 3.19-4.85 3.19-2.79 0-4.737-1.796-4.737-4.38 0-2.232 1.426-3.771 4.126-4.437 1.512-.378 2.905-.495 5.461-.495v-1.071c0-1.48-1.017-2.205-3.05-2.205-1.975 0-2.964.666-3.312 2.205l-2.76-.407c.235-1.393.757-2.205 1.889-2.958 1.191-.813 2.558-1.133 4.59-1.133 2.47 0 3.98.493 4.909 1.568.726.81.9 1.595.9 3.683v6.44c0 .987.145 1.943.437 2.9h-3.108zm5.968 0h3.223V90.83h-3.223zm6.504 0h3.223V90.83h-3.223zm6.504 0h3.223v-14.3h-3.223v14.3zm0-15.983h3.223V90.83h-3.223v3.364zm15.291 8.702c-4.125 0-6.274 1.017-6.274 2.988 0 1.335.96 2.147 2.526 2.147 2.238 0 3.748-1.537 3.748-3.83v-1.305zm.494 7.281c-.29-1.045-.406-1.682-.494-2.9-.987 2.234-2.469 3.19-4.852 3.19-2.787 0-4.733-1.796-4.733-4.38 0-2.232 1.423-3.771 4.124-4.437 1.512-.378 2.905-.495 5.461-.495v-1.071c0-1.48-1.016-2.205-3.05-2.205-1.975 0-2.963.666-3.31 2.205l-2.761-.407c.233-1.393.756-2.205 1.888-2.958 1.191-.813 2.558-1.133 4.591-1.133 2.469 0 3.977.493 4.908 1.568.726.81.9 1.595.9 3.683v6.44c0 .987.145 1.943.437 2.9h-3.11zm14.573 0v-8.933c0-1.74-.87-2.843-2.237-2.843-1.074 0-2.09.696-2.644 1.769-.346.697-.523 1.566-.523 2.668v7.34h-3.223V95.875h2.934v3.308c1.192-2.582 2.44-3.598 4.385-3.598 1.657 0 3.283.872 3.921 2.118.436.84.611 1.77.611 3.249v9.224h-3.225m17.657-4.958c-.35 1.567-.668 2.29-1.335 3.161-1.046 1.363-2.614 2.088-4.533 2.088-3.66 0-6.098-2.986-6.098-7.426 0-4.437 2.584-7.455 6.39-7.455 1.8 0 3.31.638 4.269 1.798.726.843 1.046 1.597 1.307 3.134l-2.789.377c-.233-1.77-1.132-2.668-2.614-2.668-1.975 0-3.137 1.827-3.137 4.93 0 2.814 1.104 4.497 2.934 4.497 1.423 0 2.383-.928 2.817-2.726l2.789.29m11.247-3.886c-.06-1.075-.233-1.568-.728-2.235-.61-.813-1.45-1.248-2.497-1.248-1.83 0-2.99 1.218-3.253 3.483h6.478zM246.64 106c-.959 2.9-3.167 4.466-6.362 4.466-4.007 0-6.593-2.899-6.593-7.395 0-4.468 2.702-7.486 6.74-7.486 4.124 0 6.418 2.786 6.448 7.832h-9.818v.407c.028 2.61 1.277 4.09 3.428 4.09 1.655 0 2.556-.668 3.223-2.32l2.934.406z" fill="#000" opacity=".5"/></g></svg>