<svg xmlns="http://www.w3.org/2000/svg" xmlns:xlink="http://www.w3.org/1999/xlink" version="1.1" x="0px" y="0px" width="100px" height="100px" viewBox="0 0 100 100" enable-background="new 0 0 100 100" xml:space="preserve">
<g id="Captions">
</g>
<g id="Your_Icon">
	<path fill-rule="evenodd" clip-rule="evenodd" d="M30.253,59.785l0.104,0.098c1.826-0.768,3.016-2.559,3.016-4.539   c0-2.715-2.205-4.924-4.924-4.924c-2.717,0-4.921,2.209-4.921,4.924c0,1.369,0.566,2.67,1.566,3.602l-0.007-0.123   c-5.64,5.764-8.763,11.287-8.763,18.008c0,5.406,2.042,6.129,3.363,7.086h-8.884v3.602h7.92v6.24H0v6.238h100v-6.238H76.827V57.982   l19.571,3.602l-8.043-12.486l7.203,1.805l-8.044-14.283l4.442,0.84L71.428,0.004L50.899,37.459l4.441-0.846l-8.044,14.289   l7.204-1.805l-8.044,12.486l19.568-3.602v35.775H50.059V78.635h9.724v-5.4H44.419l-0.059-0.039   c0.195-0.273,0.296-0.598,0.296-0.924c0-0.932-0.805-1.68-1.801-1.68c-0.544,0-1.062,0.227-1.403,0.625l-0.036-0.027   c-2.882-0.598-5.165-1.08-8.405-1.205c0-3.236-1.201-7.195-2.641-10.082L30.253,59.785z M31.214,83.916v3.602h-7.083v6.24h8.04   v-8.043C32.171,84.275,31.692,84.15,31.214,83.916 M33.011,73.234c-1.797,0-3.598-0.723-4.441-1.803   c-1.794,2.279-2.882,3.359-2.882,4.441s0,1.557,1.68,2.279c1.681,0.717,5.523,2.162,7.327,2.879c1.439,0.6,1.918,1.205,1.918,2.162   v7.803c0,0,1.802,0.723,3,1.205c0.847,0.234,0.723,1.439-0.358,1.557h3.602V78.635h-9.845V73.234z"/>
</g>
</svg>