<?xml version="1.0" standalone="no"?><!DOCTYPE svg PUBLIC "-//W3C//DTD SVG 1.1//EN" "http://www.w3.org/Graphics/SVG/1.1/DTD/svg11.dtd"><svg width="96px" height="120px" version="1.1" xmlns="http://www.w3.org/2000/svg" xmlns:xlink="http://www.w3.org/1999/xlink" xml:space="preserve" style="fill-rule:evenodd;clip-rule:evenodd;stroke-linejoin:round;stroke-miterlimit:1.41421;"><g><g id="bush"><g transform="matrix(1,0,0,1,-6.1702,52.6016)"><path d="M39.313,61.876l13.672,-11.105l-10.76,-13.339l-6.699,-0.962l7.199,-4.078l15.246,18.371l-13.921,14.282" style="fill:#679a45;fill-rule:nonzero;"/></g><g transform="matrix(1,0,0,1,-6.1702,52.6016)"><path d="M66.4624,50.8857l12.394,-4.216l8.864,6.323l-9.647,-2.509l-20.981,7.121l9.37,-6.719Z" style="fill:#679a45;fill-rule:nonzero;"/></g><g transform="matrix(1,0,0,1,-6.1702,52.6016)"><path d="M42.5776,59.1513l-1.715,-17l17.011,-4.167l11.572,3.834l6.065,-6.417l8.339,5.917l-7.69,-1.667l-7.04,18.334l3.359,7.083l-10.189,-0.417l-19.712,-5.5Z" style="fill:#35813f;fill-rule:nonzero;"/></g><g transform="matrix(1,0,0,1,-6.1702,52.6016)"><path d="M58.3208,65.7343l11.489,-24.043l-10.823,-4.707l-1.199,-3.832l-4.885,4.25l12.08,5.293l-16.024,20.676" style="fill:#679a45;fill-rule:nonzero;"/></g><g transform="matrix(1,0,0,1,-6.1702,52.6016)"><path d="M49.3169,58.8994l-13.308,-15.558l-9.001,5.42l8.22,-1.304l8.217,12.646l5.872,-1.204Z" style="fill:#679a45;fill-rule:nonzero;"/></g><g transform="matrix(1,0,0,1,-6.1702,52.6016)"><path d="M58.7095,49.0801l-5.156,-20.623l-5.956,-0.297l3.258,2.995l4.589,21.21l3.265,-3.285Z" style="fill:#679a45;fill-rule:nonzero;"/></g><g transform="matrix(1,0,0,1,-6.1702,52.6016)"><path d="M47.6538,62.0674l8.354,-1.666l9.429,-12l-27.477,-2.31" style="fill:#679a45;fill-rule:nonzero;"/></g><g transform="matrix(1,0,0,1,-6.1702,52.6016)"><path d="M50.0796,56.0547l-12.393,-6.218l-6.262,6.323l7.044,-2.509l11.527,5.119l0.084,-2.715Z" style="fill:#35813f;fill-rule:nonzero;"/></g></g></g></svg>