<?xml version="1.0" standalone="no"?><!DOCTYPE svg PUBLIC "-//W3C//DTD SVG 1.1//EN" "http://www.w3.org/Graphics/SVG/1.1/DTD/svg11.dtd"><svg width="96px" height="120px" version="1.1" xmlns="http://www.w3.org/2000/svg" xmlns:xlink="http://www.w3.org/1999/xlink" xml:space="preserve" style="fill-rule:evenodd;clip-rule:evenodd;stroke-linejoin:round;stroke-miterlimit:1.41421;"><g><g id="flowers"><g transform="matrix(1,0,0,1,-143.17,48.9927)"><path d="M192.54,56.6943l2.303,0l0.422,14.623l-4.453,0.69l1.728,-15.313Z" style="fill:#679a45;fill-rule:nonzero;"/></g><g transform="matrix(1,0,0,1,-143.17,48.9927)"><path d="M175.831,36.4116l2.35703,0.017462l0.130015,34.5782l-4.6979,0l2.21086,-34.5957Z" style="fill:#679a45;fill-rule:nonzero;"/></g><g transform="matrix(1,0,0,1,-143.17,48.9927)"><path d="M206.598,40.4355l2.383,-0.253l-0.0082601,30.8248l-4.65906,0l2.28432,-30.5718Z" style="fill:#679a45;fill-rule:nonzero;"/></g><g transform="matrix(1,0,0,1,-143.17,48.9927)"><path d="M201.594,41.0703l-3.127,-9.402l18.691,-0.036l-3.043,9.479l-12.521,-0.041Z" style="fill:#ae2025;fill-rule:nonzero;"/></g><g transform="matrix(1,0,0,1,-143.17,48.9927)"><path d="M170.594,36.5732l-3.127,-9.402l18.691,-0.036l-3.043,9.479l-12.521,-0.041Z" style="fill:#ae2025;fill-rule:nonzero;"/></g><g transform="matrix(1,0,0,1,-143.17,48.9927)"><path d="M187.344,56.8203l-3.127,-9.402l18.691,-0.036l-3.043,9.479l-12.521,-0.041Z" style="fill:#ae2025;fill-rule:nonzero;"/></g><g transform="matrix(1,0,0,1,-143.17,48.9927)"><path d="M207.324,48.1181l-11.852,-5.456l-3.207,1.495l1.637,-4.758l12.418,5.421" style="fill:#679a45;fill-rule:nonzero;"/></g><g transform="matrix(1,0,0,1,-143.17,48.9927)"><path d="M205.372,59.5019l10.627,-11.778l8.474,5.146l-7.683,-1.683l-8.424,8.757l-2.994,-0.442Z" style="fill:#679a45;fill-rule:nonzero;"/></g><g transform="matrix(1,0,0,1,-143.17,48.9927)"><path d="M176.187,46.9707l7.994,-3.68l3.207,1.495l-1.637,-4.757l-9.968,4.228" style="fill:#679a45;fill-rule:nonzero;"/></g><g transform="matrix(1,0,0,1,-143.17,48.9927)"><path d="M177.709,62.0801l-5.156,-20.623l-5.956,-0.297l3.258,2.995l4.589,21.21l3.265,-3.285Z" style="fill:#679a45;fill-rule:nonzero;"/></g></g></g></svg>