<svg clip-rule="evenodd" fill-rule="evenodd" stroke-linejoin="round" stroke-miterlimit="2" viewBox="0 0 96 120" xmlns="http://www.w3.org/2000/svg"><g fill-rule="nonzero"><path d="M49.37 105.687h2.303l.422 14.623-4.453.69zM32.661 85.405l2.357.017.13 34.578H30.45zM63.428 89.429l2.383-.253L65.803 120h-4.659z" fill="#679a45"/><path d="M58.424 90.063l-3.127-9.402 18.691-.036-3.043 9.479zM27.424 85.566l-3.127-9.402 18.691-.036-3.043 9.479zM44.174 105.813l-3.127-9.402 18.691-.036-3.043 9.479z" fill="#f6f4ef"/><g fill="#679a45"><path d="M64.154 97.11l-11.852-5.455-3.207 1.495 1.637-4.758 12.418 5.42M62.202 108.495l10.627-11.778 8.474 5.146-7.683-1.683-8.424 8.757zM33.017 95.964l7.994-3.68 3.207 1.495-1.637-4.757-9.968 4.228M34.539 111.073L29.383 90.45l-5.956-.297 3.258 2.995 4.589 21.21z"/></g></g></svg>