<?xml version="1.0" encoding="UTF-8" standalone="no"?>
<!DOCTYPE svg PUBLIC "-//W3C//DTD SVG 1.1//EN" "http://www.w3.org/Graphics/SVG/1.1/DTD/svg11.dtd">
<svg width="100%" height="100%" viewBox="0 0 120 192" version="1.1" xmlns="http://www.w3.org/2000/svg" xmlns:xlink="http://www.w3.org/1999/xlink" xml:space="preserve" xmlns:serif="http://www.serif.com/" style="fill-rule:evenodd;clip-rule:evenodd;stroke-linejoin:round;stroke-miterlimit:2;">
    <g id="bernie" transform="matrix(1.01514,0,0,1.01514,7.27805,-2.90672)">
        <g>
            <path d="M32.6,187.849L36.265,187.871L39.884,153.607L36.186,153.378L32.6,187.849Z" style="fill:rgb(42,42,41);"/>
            <path d="M37.119,155.416L54.815,157.841L69.862,156.922L69.862,151.913L38.21,151.277L37.119,155.416Z" style="fill:rgb(42,42,41);"/>
            <path d="M36.359,176.808L68.488,176.808L68.218,174.062L36.482,174.064L36.359,176.808Z" style="fill:rgb(42,42,41);"/>
            <path d="M65.632,187.849L68.739,187.762L74.092,130.193L70.591,131.763L65.632,187.849Z" style="fill:rgb(42,42,41);"/>
            <path d="M63.453,156.058L69.368,162.274L74.561,183.221L71.336,183.462L66.935,164.234L60,156.892L63.453,156.058Z" style="fill:rgb(42,42,41);"/>
        </g>
        <path d="M50.083,164.638L51.921,175.237L56.881,172.481L54.794,164.393L50.083,164.638Z" style="fill:rgb(42,42,41);"/>
        <path d="M42.638,175.237L42.128,183.318L47.859,184.22L47.065,175.237L42.638,175.237" style="fill:rgb(42,42,41);"/>
        <path d="M43.128,106.734L61.34,105.372L63.81,109.673L73.062,113.25L74.779,129.066L68.739,138.967L68.639,145.243L66.454,151.954L58.249,142.936L43.354,137.295L37.751,138.913L35.267,143.15L35.346,137.224L29.092,129.627L34.482,112.671L41.932,110.928L43.128,106.734Z" style="fill:rgb(124,113,91);"/>
        <path d="M39.816,116.807L36.523,126.636L48.336,121.545L48.316,120.564L39.816,116.807Z" style="fill:rgb(42,42,41);fill-opacity:0.5;"/>
        <path d="M39.377,176.206L47.462,179.728L49.292,165.489L55.553,165.21L55.861,157.096L66.139,153.753L66.454,151.954L58.249,142.936L55.526,141.278L46.973,135.954L37.751,138.913L32.6,147.438L35.76,153.486L40.092,154.76L40.782,160.237L39.377,176.206Z" style="fill:rgb(92,94,95);"/>
        <path d="M37.119,153.886L43.486,144.602L46.192,147.144L46.387,164.745L49.292,165.489L48.426,172.289L40.782,160.237L40.092,154.76L37.119,153.886Z" style="fill:rgb(23,24,23);fill-opacity:0.5;"/>
        <path d="M55.526,141.278L46.973,135.954L37.751,138.913L35.267,143.15L35.346,137.224L40.885,132.479L52.491,128.776L57.915,133.526L68.739,138.967L68.639,145.243L66.403,151.764L66.454,151.954L66.139,153.753L55.861,157.096L55.526,141.278Z" style="fill:rgb(34,36,34);fill-opacity:0.5;"/>
        <g transform="matrix(1,0,0,1,-1392.39,-8.40555)">
            <path d="M1443.11,121.839L1447.39,121.839L1452.01,115.904L1451.19,103.21L1442.95,101.835L1437.84,103.869L1438,115.904L1443.11,121.839Z" style="fill:rgb(225,197,181);fill-rule:nonzero;"/>
        </g>
        <path d="M48.072,105.348L47.486,109.677L50.719,113.433L55.005,113.433L58.129,109.416L58.479,105.695L52.534,104.231L48.072,105.348Z" style="fill:rgb(138,194,236);"/>
        <g transform="matrix(1,0,0,1,-1392.39,-8.40555)">
            <path d="M1448.59,104.406L1450.7,102.762L1453.17,103.643L1455.31,110.862L1451.58,111.753L1450.42,105.542L1448.59,104.406Z" style="fill:rgb(245,243,233);fill-rule:nonzero;"/>
        </g>
        <g transform="matrix(1,0,0,1,-1392.39,-8.40555)">
            <path d="M1451.5,108.456L1454.32,108.503L1454.54,113.419L1451.66,113.269L1451.5,108.456Z" style="fill:rgb(225,197,181);fill-rule:nonzero;"/>
        </g>
        <g transform="matrix(1,0,0,1,-1392.39,-8.40555)">
            <path d="M1440.46,104.406L1438.57,105.441L1437.93,111.623L1434.55,111.623L1435.36,104.92L1438.97,102.762L1440.46,104.406Z" style="fill:rgb(245,243,233);fill-rule:nonzero;"/>
        </g>
        <g transform="matrix(1,0,0,1,-1392.39,-8.40555)">
            <path d="M1438.21,109.125L1435.36,109.9L1435.58,114.022L1438.1,114.12L1438.21,109.125Z" style="fill:rgb(225,197,181);fill-rule:nonzero;"/>
        </g>
        <path d="M41.899,182.685L48.143,183.29L49.527,191.44L41.205,192L41.899,182.685Z" style="fill:rgb(86,65,57);"/>
        <path d="M51.809,174.591L51.976,181.327L61.786,178.931L61.169,176.524L58.155,175.889L57.326,172.289L51.809,174.591Z" style="fill:rgb(86,65,57);"/>
        <path d="M62.104,127.555L66.454,129.299L68.143,124.066L65.733,115.997L51.675,123.043L52.541,125.243L62.104,127.555Z" style="fill:rgb(34,36,34);fill-opacity:0.5;"/>
        <path d="M49.214,124.611L52.982,123.963L54.485,124.19L56.35,127.547L60,128.633L64.763,126.192L64.12,122.998L59.105,120.093L50.717,118.407L47.486,121.31L49.214,124.611L48.547,125.285L41.253,127.922L39.079,130.971L39.345,133.867L44.769,134.365L46.908,131.932L53.664,130.365L55.093,130.974L55.156,126.87L52.56,124.035L48.547,125.285" style="fill:rgb(86,65,57);"/>
        <path d="M50.662,124.362L50.358,121.435L52.313,118.728L53.778,119.022L52.108,121.626L52.143,124.061L50.662,124.362Z" style="fill:rgb(225,207,168);"/>
        <path d="M51.666,124.158L51.688,121.545L53.302,118.926L54.993,119.266L53.373,121.76L53.274,124.007L51.666,124.158Z" style="fill:rgb(169,139,126);"/>
        <path d="M40.2,129.399L43.227,130.35L45.366,133.686L46.908,131.932L45.366,128.776L42.488,127.475L41.253,127.922L40.2,129.399Z" style="fill:rgb(169,139,126);"/>
        <path d="M41.871,127.698L44.789,129.302L46.428,132.479L46.908,131.932L47.988,131.682L46.653,128.295L44.163,126.87L41.871,127.698Z" style="fill:rgb(225,207,168);"/>
        <path d="M49.253,125.052L51.484,127.998L51.921,130.769L53.361,130.435L53.364,127.344L51.032,124.511L49.253,125.052Z" style="fill:rgb(207,174,128);"/>
        <g transform="matrix(1,0,0,1,-0.813768,0.335818)">
            <path d="M48.802,125.151L50.876,128.092L51.284,130.77L52.79,130.421L52.667,127.475L50.542,124.553L48.802,125.151Z" style="fill:rgb(225,207,168);"/>
        </g>
        <path d="M56.959,127.728L56.35,127.547L55.567,126.137L56.588,123.1L59.624,120.394L61.34,121.388L58.327,124.555L56.959,127.728Z" style="fill:rgb(225,207,168);"/>
        <path d="M58.183,128.092L59.477,125.089L62.755,122.207L60.909,121.138L57.647,124.241L56.35,127.547L58.183,128.092Z" style="fill:rgb(169,139,126);"/>
    </g>
</svg>
