<?xml version="1.0" encoding="UTF-8" standalone="no"?>
<!DOCTYPE svg PUBLIC "-//W3C//DTD SVG 1.1//EN" "http://www.w3.org/Graphics/SVG/1.1/DTD/svg11.dtd">
<svg width="100%" height="100%" viewBox="0 0 140 220" version="1.1" xmlns="http://www.w3.org/2000/svg" xmlns:xlink="http://www.w3.org/1999/xlink" xml:space="preserve" xmlns:serif="http://www.serif.com/" style="fill-rule:evenodd;clip-rule:evenodd;stroke-linejoin:round;stroke-miterlimit:2;">
    <g id="johnny1" transform="matrix(1.27,0,0,1.27,-1765.15,-84.8)">
        <g>
            <g transform="matrix(1,0,0,1,0,-12)">
                <path d="M1457.15,163.531L1452.49,231.02L1447.08,231.02L1445.87,173.662L1448.67,200.122L1447.59,241.582L1441.67,240.294L1438.57,200.367L1434.54,164.045L1457.15,163.531Z" style="fill:rgb(124,113,91);fill-rule:nonzero;"/>
            </g>
            <g transform="matrix(1,0,0,1,1385,48)">
                <path d="M61.303,191.5L56.023,191.5L55.25,189.311L56.627,180.253L55.95,171.03L62.878,170.547L62.656,181.519L61.303,191.5Z" style="fill:rgb(86,65,57);fill-rule:nonzero;"/>
            </g>
            <g transform="matrix(1,0,0,1,1385,48)">
                <path d="M62.899,170.519L63.177,163.813L67.977,163.909L67.486,171.02L67.486,171.021L68.429,177.892L61.732,177.72L61.216,170.336L62.899,170.519Z" style="fill:rgb(86,65,57);fill-rule:nonzero;"/>
            </g>
            <g transform="matrix(1,0,0,1,1385,48)">
                <path d="M63.177,163.813L68.467,163.971L68.749,159.516L63.382,159.199L63.177,163.813Z" style="fill:rgb(169,139,126);"/>
            </g>
            <g transform="matrix(1,0,0,1,0,-12)">
                <path d="M1446.42,173.563L1449.14,202.17L1447.86,231.029L1453.75,219.516L1453.28,219.489L1455.8,182.973L1446.42,173.563Z" style="fill:rgb(23,24,23);fill-opacity:0.5;fill-rule:nonzero;"/>
            </g>
            <g transform="matrix(1,0,0,1,1385,48)">
                <path d="M55.598,171.03L63.391,170.547L63.422,165.021L55.142,165.877L55.598,171.03Z" style="fill:rgb(169,139,126);"/>
            </g>
        </g>
        <g transform="matrix(1,0,0,1,0,-11)">
            <path d="M1427.23,159.49L1424.88,165.258L1425.33,173.25L1427.99,172.232L1428.53,165.484L1428.31,167.518L1430.71,167.625L1429.84,162.076L1427.23,159.49Z" style="fill:rgb(225,197,181);fill-rule:nonzero;"/>
        </g>
        <g transform="matrix(1,0,0,1,0,-11)">
            <path d="M1463.34,159.768L1465.11,164.247L1464.96,171.625L1462.06,171.244L1461.47,164.498L1461.7,166.531L1459.21,166.875L1460.05,161.282L1463.34,159.768Z" style="fill:rgb(225,197,181);fill-rule:nonzero;"/>
        </g>
        <g transform="matrix(1,0,0,1,41.9957,-24.6242)">
            <path d="M1395.93,138.177L1399.39,136.553L1401.23,130.837L1405.52,132.06L1406.59,136.15L1409.43,137.315L1409.46,146.796L1396.5,146.603L1395.93,138.177Z" style="fill:rgb(206,171,151);fill-rule:nonzero;"/>
        </g>
        <g transform="matrix(1.05324,0,0,1.05324,-32.7021,9.30663)">
            <g transform="matrix(1,0,0,1,1342.64,32.5701)">
                <path d="M66.129,52.339L67.575,52.321L67.61,54.884L65.726,55.948L66.129,52.339Z" style="fill:rgb(225,197,181);"/>
            </g>
            <g transform="matrix(-1,0,0,1,1463.64,32.5701)">
                <path d="M66.129,52.339L67.575,52.321L67.61,54.884L65.726,55.948L66.129,52.339Z" style="fill:rgb(225,197,181);"/>
            </g>
            <g transform="matrix(1,0,0,1,1342.96,32.5701)">
                <path d="M54.941,45.145L54.394,53.216L55.168,59.714L58.254,63.63L61.502,63.667L64.908,60.055L66.002,52.381L65.682,44.626L60.968,43.764L54.941,45.145Z" style="fill:rgb(225,197,181);"/>
            </g>
            <g transform="matrix(1,0,0,1,1343,32.5701)">
                <path d="M54.599,47.495L65.911,47.173L65.673,44.251L62.63,43.463L57.544,43.833L54.723,45.005L54.599,47.495Z" style="fill:rgb(207,174,128);"/>
            </g>
            <g transform="matrix(1,0,0,1,1343,32.5701)">
                <path d="M54.599,47.495L60.232,49.189L65.911,47.173L65.673,44.251L62.63,43.463L57.544,43.833L54.723,45.005L54.599,47.495Z" style="fill:rgb(207,174,128);"/>
            </g>
        </g>
        <g transform="matrix(1.05324,0,0,1.05324,1381.8,43.6106)">
            <path d="M55.225,51.641L64.984,51.434L65.95,51.252L65.97,52.307L64.605,54.642L61.598,54.729L60.812,54.069L59.567,54.069L58.859,54.74L55.864,54.748L54.382,52.264L54.475,51.362L55.225,51.641Z" style="fill:rgb(42,42,41);"/>
        </g>
        <g>
            <g transform="matrix(1,0,0,1,1385,48)">
                <path d="M56.819,62.59L58.114,65.295L61.776,65.246L63.277,62.34L63.648,63.551L66.429,64.691L66.544,66.128L62.486,74.646L57.425,74.759L52.926,68.794L52.926,65.553L56.403,63.888L56.819,62.59Z" style="fill:rgb(228,226,220);"/>
            </g>
            <g transform="matrix(1,0,0,1,1385,48)">
                <path d="M58.114,65.295L61.776,65.246L60.799,67.919L61.994,74.657L61.388,80.093L58.176,80.309L57.425,74.759L58.984,67.895L58.114,65.295Z" style="fill:rgb(73,121,158);"/>
            </g>
            <g transform="matrix(1,0,0,1,1385,48)">
                <path d="M53.989,65.034L60,73.029L66.429,64.691L71.254,68.715L72.135,103.716L49.541,104.274L50.502,66.674L53.989,65.034Z" style="fill:rgb(239,157,117);"/>
            </g>
        </g>
        <g transform="matrix(1,0,0,1,1384.44,48)">
            <path d="M45.523,69.122L54.91,64.87L57.149,76.411L58.064,108.986L49.295,110.016L49.084,80.152L45.917,103.561L42.139,101.677L45.523,69.122Z" style="fill:rgb(86,65,57);"/>
        </g>
        <g transform="matrix(1,0,0,1,1384.44,48)">
            <path d="M66.621,64.502L76.701,68.947L79.274,101.716L75.156,103.343L72.705,78.755L72.705,110.016L64.26,108.485L64.47,76.341L66.621,64.502Z" style="fill:rgb(86,65,57);"/>
        </g>
    </g>
</svg>
