<?xml version="1.0" encoding="UTF-8" standalone="no"?>
<!DOCTYPE svg PUBLIC "-//W3C//DTD SVG 1.1//EN" "http://www.w3.org/Graphics/SVG/1.1/DTD/svg11.dtd">
<svg width="100%" height="100%" viewBox="0 0 140 220" version="1.1" xmlns="http://www.w3.org/2000/svg" xmlns:xlink="http://www.w3.org/1999/xlink" xml:space="preserve" xmlns:serif="http://www.serif.com/" style="fill-rule:evenodd;clip-rule:evenodd;stroke-linejoin:round;stroke-miterlimit:2;">
    <g id="junebug3" transform="matrix(1.27,0,0,1.27,-1711.36,-84.8)">
        <g transform="matrix(1,0,0,1,2.27374e-13,-24.6242)">
            <path d="M1394.76,138.786L1399.39,136.553L1401.23,130.837L1405.52,132.06L1406.59,136.15L1411.49,138.338L1409.46,146.796L1396.5,146.603L1394.76,138.786Z" style="fill:rgb(206,171,151);fill-rule:nonzero;"/>
        </g>
        <g transform="matrix(1.04784,0,0,1.04784,-67.1258,9.7687)">
            <g transform="matrix(1,0,0,1,1342.64,32.5701)">
                <path d="M66.129,52.339L67.575,52.321L67.61,54.884L65.726,55.948L66.129,52.339Z" style="fill:rgb(225,197,181);"/>
            </g>
            <g transform="matrix(1,0,0,1,1342.96,32.5701)">
                <path d="M55.467,46.119L54.486,55.547L55.168,59.714L58.254,63.63L61.502,63.667L64.908,60.055L66.002,52.381L65.682,44.626L61.224,42.665L55.467,46.119Z" style="fill:rgb(225,197,181);"/>
            </g>
            <g transform="matrix(1,0,0,1,1342.64,32.5701)">
                <path d="M60.538,40.753L54.972,43.247L53.261,56.585L53.863,64.86L56.855,54.106L63.606,45.913L67.089,43.579L60.538,40.753Z" style="fill:rgb(42,42,41);"/>
            </g>
        </g>
        <g>
            <g transform="matrix(1,0,0,1,2.27374e-13,-12)">
                <path d="M1409.59,233.034L1410.44,239.229L1404.4,239.074L1403.94,232.416L1409.61,232.715L1409.59,233.034Z" style="fill:rgb(42,43,42);fill-rule:nonzero;"/>
            </g>
            <g transform="matrix(1,0,0,1,2.27374e-13,-12)">
                <path d="M1404.09,195.563L1405.02,242.48L1399.83,241.397L1395.67,195.418" style="fill:rgb(34,77,108);fill-rule:nonzero;"/>
            </g>
            <g transform="matrix(1,0,0,1,2.27374e-13,-12)">
                <path d="M1398.56,249.525L1399.25,251.5L1404.01,251.5L1405.23,242.499L1399.8,241.358L1398.56,249.525Z" style="fill:rgb(42,43,42);fill-rule:nonzero;"/>
            </g>
            <g transform="matrix(1,0,0,1,2.27374e-13,-12)">
                <path d="M1403.94,178.994L1404.09,198.813L1404.57,232.644L1409.59,233.034L1411.91,198.601L1403.94,178.994Z" style="fill:rgb(34,77,108);fill-rule:nonzero;"/>
            </g>
        </g>
        <g>
            <g transform="matrix(1,0,0,1,-42.3539,-12)">
                <path d="M1456.75,168.451L1452.46,225.399L1447.04,226.01L1445.87,173.662L1448.14,201.374L1447.11,229.446L1441.09,230.33L1438.03,195.407L1434.79,168.352L1434.83,167.981L1456.72,168.173L1456.75,168.451Z" style="fill:rgb(34,77,108);fill-rule:nonzero;"/>
            </g>
            <g transform="matrix(1,0,0,1,-42.3539,-12)">
                <path d="M1446.42,173.563L1448.12,201.131L1447.38,225.972L1453.31,214.047L1455.67,182.712L1446.42,173.563Z" style="fill:rgb(23,24,23);fill-opacity:0.5;fill-rule:nonzero;"/>
            </g>
        </g>
        <g transform="matrix(1,0,0,1,-2.51107,-6.47844)">
            <g transform="matrix(1,0,0,1,2.27374e-13,-12)">
                <path d="M1388.14,169.33L1387.11,174.849L1388.54,181.895L1391.11,180.451L1390.37,174.391L1390.54,176.228L1392.93,175.634L1390.91,171.145L1388.14,169.33Z" style="fill:rgb(225,197,181);fill-rule:nonzero;"/>
            </g>
            <g transform="matrix(1,0,0,1,0,-12.0996)">
                <path d="M1395.92,139.886L1390.96,171.557L1387.91,170.412L1391.24,136.554L1395.92,139.886Z" style="fill:rgb(225,197,181);fill-rule:nonzero;"/>
            </g>
        </g>
        <g transform="matrix(1,0,0,1,3.67401,-6.47844)">
            <g transform="matrix(1,0,0,1,0,-12)">
                <path d="M1410.72,139.338L1413.86,170.611L1417.15,170.373L1414.82,136.454L1410.72,139.338Z" style="fill:rgb(225,197,181);fill-rule:nonzero;"/>
            </g>
            <g transform="matrix(1,0,0,1,2.27374e-13,-12)">
                <path d="M1417.16,170.277L1417.45,174.612L1414.53,180.756L1412.12,179.333L1414.25,173.827L1413.9,175.636L1411.88,174L1413.88,170.568L1417.16,170.277Z" style="fill:rgb(225,197,181);fill-rule:nonzero;"/>
            </g>
        </g>
        <g>
            <g transform="matrix(1,0,0,1,-0.596079,-23.7629)">
                <path d="M1419.75,141.279L1412.09,137.476L1405.07,143.88L1403.24,143.876L1395.35,137.925L1388.68,141.279L1395.11,145.856L1391.88,186.041L1406.56,182.569L1415.7,183.294L1413.98,145.332L1419.75,141.279Z" style="fill:rgb(231,229,221);fill-rule:nonzero;"/>
            </g>
            <g transform="matrix(1,0,0,1,1342.64,48)">
                <path d="M51.014,84.72L71.14,82.387L71.725,95.272L49.947,97.99L51.014,84.72Z" style="fill:rgb(174,32,38);fill-opacity:0.25;"/>
            </g>
            <g transform="matrix(1,0,0,1,1342.64,48)">
                <path d="M48.636,114.278L63.318,110.806L72.46,111.474L71.725,95.272L49.947,97.99L48.636,114.278Z" style="fill:rgb(137,187,106);fill-opacity:0.25;"/>
            </g>
        </g>
    </g>
</svg>
