<?xml version="1.0" encoding="UTF-8" standalone="no"?>
<!DOCTYPE svg PUBLIC "-//W3C//DTD SVG 1.1//EN" "http://www.w3.org/Graphics/SVG/1.1/DTD/svg11.dtd">
<svg width="100%" height="100%" viewBox="0 0 140 220" version="1.1" xmlns="http://www.w3.org/2000/svg" xmlns:xlink="http://www.w3.org/1999/xlink" xml:space="preserve" xmlns:serif="http://www.serif.com/" style="fill-rule:evenodd;clip-rule:evenodd;stroke-linejoin:round;stroke-miterlimit:2;">
    <g id="junebug2" transform="matrix(1.27,0,0,1.27,-1711.36,-84.8)">
        <g transform="matrix(1,0,0,1,2.27374e-13,-24.6242)">
            <path d="M1395.93,138.177L1399.39,136.553L1401.23,130.837L1405.52,132.06L1406.59,136.15L1409.43,137.315L1409.46,146.796L1396.5,146.603L1395.93,138.177Z" style="fill:rgb(206,171,151);fill-rule:nonzero;"/>
        </g>
        <g transform="matrix(1.04784,0,0,1.04784,-67.1258,9.7687)">
            <g transform="matrix(1,0,0,1,1342.64,32.5701)">
                <path d="M66.129,52.339L67.575,52.321L67.61,54.884L65.726,55.948L66.129,52.339Z" style="fill:rgb(225,197,181);"/>
            </g>
            <g transform="matrix(1,0,0,1,1342.96,32.5701)">
                <path d="M55.467,46.119L54.486,55.547L55.168,59.714L58.254,63.63L61.502,63.667L64.908,60.055L66.002,52.381L65.682,44.626L61.224,42.665L55.467,46.119Z" style="fill:rgb(225,197,181);"/>
            </g>
            <g transform="matrix(1,0,0,1,1342.64,32.5701)">
                <path d="M60.538,40.753L54.972,43.247L53.261,56.585L53.863,64.86L56.855,54.106L63.606,45.913L67.089,43.579L60.538,40.753Z" style="fill:rgb(236,219,177);"/>
            </g>
        </g>
        <g>
            <g transform="matrix(1,0,0,1,2.27374e-13,-12)">
                <path d="M1409.59,233.034L1410.44,239.229L1404.4,239.074L1403.94,232.416L1409.61,232.715L1409.59,233.034Z" style="fill:rgb(42,43,42);fill-rule:nonzero;"/>
            </g>
            <g transform="matrix(1,0,0,1,2.27374e-13,-12)">
                <path d="M1404.09,195.563L1405.02,242.48L1399.83,241.397L1395.67,195.418" style="fill:rgb(194,190,186);fill-rule:nonzero;"/>
            </g>
            <g transform="matrix(1,0,0,1,2.27374e-13,-12)">
                <path d="M1398.56,249.525L1399.25,251.5L1404.01,251.5L1405.23,242.499L1399.8,241.358L1398.56,249.525Z" style="fill:rgb(42,43,42);fill-rule:nonzero;"/>
            </g>
            <g transform="matrix(1,0,0,1,2.27374e-13,-12)">
                <path d="M1403.94,178.994L1404.09,198.813L1404.57,232.644L1409.59,233.034L1411.91,198.601L1403.94,178.994Z" style="fill:rgb(194,190,186);fill-rule:nonzero;"/>
            </g>
        </g>
        <g>
            <g transform="matrix(1,0,0,1,-42.3539,-12)">
                <path d="M1456.75,168.451L1452.46,225.399L1447.04,226.01L1445.87,173.662L1448.14,201.374L1447.11,229.446L1441.09,230.33L1438.03,195.407L1434.79,168.352L1434.83,167.981L1456.72,168.173L1456.75,168.451Z" style="fill:rgb(194,190,186);fill-rule:nonzero;"/>
            </g>
            <g transform="matrix(0.729631,0.0586455,-0.0518953,0.645649,1365.02,96.3634)">
                <path d="M56.54,140.842L58.637,135.418L61.929,140.403L60,146.014L56.54,140.842Z" style="fill:rgb(73,121,158);"/>
            </g>
            <g transform="matrix(1,0,0,1,1342.64,48)">
                <path d="M64.481,141.409L65.921,137.974L67.914,141.131L66.279,144.631L64.481,141.409Z" style="fill:rgb(73,121,158);"/>
            </g>
            <g transform="matrix(1,0,0,1,-42.3539,-12)">
                <path d="M1446.42,173.563L1448.12,201.131L1447.38,225.972L1453.31,214.047L1455.67,182.712L1446.42,173.563Z" style="fill:rgb(23,24,23);fill-opacity:0.5;fill-rule:nonzero;"/>
            </g>
        </g>
        <g transform="matrix(1,0,0,1.13306,0.15398,-42.9478)">
            <path d="M1411.49,161.869L1411.51,161.61L1395.23,161.672L1395.25,161.898L1380.25,191.732L1423.83,192.818L1411.49,161.869Z" style="fill:rgb(42,42,41);fill-rule:nonzero;"/>
        </g>
        <g transform="matrix(1,0,0,1,1342.64,48)">
            <path d="M45.628,126.517L58.111,101.02L54.285,126.762L45.628,126.517Z" style="fill-opacity:0.5;"/>
        </g>
        <g transform="matrix(1,0,0,1,3.67401,-18.4784)">
            <path d="M1417.16,170.277L1417.45,174.612L1414.53,180.756L1412.12,179.333L1414.25,173.827L1413.9,175.636L1411.88,174L1413.88,170.568L1417.16,170.277Z" style="fill:rgb(225,197,181);fill-rule:nonzero;"/>
        </g>
        <g transform="matrix(1,0,0,1,-2.51107,-18.4784)">
            <path d="M1388.14,169.33L1387.11,174.849L1388.54,181.895L1391.11,180.451L1390.37,174.391L1390.54,176.228L1392.93,175.634L1390.91,171.145L1388.14,169.33Z" style="fill:rgb(225,197,181);fill-rule:nonzero;"/>
        </g>
        <g>
            <g transform="matrix(1,0,0,1,1342.64,48)">
                <path d="M57.176,62.595L60.236,66.519L63.653,62.409L63.954,63.529L66.814,64.705L65.743,69.702L54.462,69.451L53.284,65.553L56.748,63.929L57.176,62.595Z" style="fill:rgb(228,226,220);"/>
            </g>
            <g transform="matrix(1,0,0,1,1342.64,48)">
                <path d="M60.236,66.519L63.795,71.002L56.883,70.87L60.236,66.519Z" style="fill:rgb(42,42,41);"/>
            </g>
            <g transform="matrix(1,0,0,1,1342.64,48)">
                <path d="M60.459,70.224L66.787,64.691L76.507,69.516L78.188,103.799L74.913,104.09L71.655,73.343L68.996,92.459L52.757,92.492L50.803,73.228L45.845,104.859L42.792,103.946L43.787,90.32L45.428,69.515L53.968,65.232L60.459,70.224Z" style="fill:rgb(137,187,106);"/>
            </g>
            <g transform="matrix(1,0,0,1,1342.64,48)">
                <path d="M76.507,69.516L78.766,94.355L76.111,97.256L72.683,95.097L71.655,73.343L76.507,69.516Z" style="fill:rgb(137,187,106);"/>
            </g>
            <g transform="matrix(1,0,0,1,1342.64,48)">
                <path d="M45.428,69.516L50.803,73.228L48.528,95.107L45.489,97.256L42.601,94.232L45.428,69.516Z" style="fill:rgb(137,187,106);"/>
            </g>
        </g>
        <g transform="matrix(1,0,0,1,1342.64,48)">
            <path d="M60.683,126.943L68.045,102.869L71.302,127.243L60.683,126.943Z" style="fill-opacity:0.5;"/>
        </g>
    </g>
</svg>
