<?xml version="1.0" encoding="UTF-8" standalone="no"?>
<!DOCTYPE svg PUBLIC "-//W3C//DTD SVG 1.1//EN" "http://www.w3.org/Graphics/SVG/1.1/DTD/svg11.dtd">
<svg width="100%" height="100%" viewBox="0 0 140 220" version="1.1" xmlns="http://www.w3.org/2000/svg" xmlns:xlink="http://www.w3.org/1999/xlink" xml:space="preserve" xmlns:serif="http://www.serif.com/" style="fill-rule:evenodd;clip-rule:evenodd;stroke-linejoin:round;stroke-miterlimit:2;">
    <g id="people-28" transform="matrix(1.27,0,0,1.27,-1324.38,-84.8)">
        <g transform="matrix(1,0,0,1,0,-12)">
            <path d="M1128.56,239.218L1129.22,243.284L1125.24,243.279L1124.83,238.9L1128.56,239.218Z" style="fill:rgb(255,238,204);fill-rule:nonzero;"/>
        </g>
        <g transform="matrix(1,0,0,1,0,-12)">
            <path d="M1129.12,156.005L1125.3,152.929L1120.06,153.162L1119.05,153.078L1114.55,156.688L1116.05,172.383L1119.05,171.929L1119.41,171.218L1121.45,170.329L1125.14,170.775L1127.15,171.812L1129.69,171.597L1129.12,156.005Z" style="fill:rgb(85,63,55);fill-rule:nonzero;"/>
        </g>
        <g transform="matrix(1,0,0,1,0,-12)">
            <path d="M1118.45,168.693L1120.11,167.531L1121.25,164.035L1124.1,164.773L1125.05,166.954L1127.01,167.876L1127.78,178.729L1123.35,191.665L1118.45,168.693Z" style="fill:rgb(115,90,76);fill-rule:nonzero;"/>
        </g>
        <g transform="matrix(1,0,0,1,0,-12)">
            <path d="M1121.25,166.508L1123.8,166.447L1126.45,162.857L1125.81,156.369L1120.9,155.67L1117.89,156.951L1118.13,163.057L1121.25,166.508Z" style="fill:rgb(170,139,126);fill-rule:nonzero;"/>
        </g>
        <g transform="matrix(1,0,0,1,0,-12)">
            <path d="M1125.68,158.449L1127.36,158.437L1127.56,161.353L1125.85,161.305L1125.68,158.449Z" style="fill:rgb(170,139,126);fill-rule:nonzero;"/>
        </g>
        <g transform="matrix(1,0,0,1,0,-12)">
            <path d="M1118.2,159.026L1116.52,159.527L1116.71,161.971L1118.2,161.994L1118.2,159.026Z" style="fill:rgb(170,139,126);fill-rule:nonzero;"/>
        </g>
        <g transform="matrix(1,0,0,1,0,-12)">
            <path d="M1130.3,196.07L1128.56,239.217L1125.35,239.295L1123.75,202.247L1125.86,220.923L1126.81,245.535L1121.27,244.903L1119.86,221.212L1116.88,196.697L1130.3,196.07Z" style="fill:rgb(174,32,37);fill-rule:nonzero;"/>
        </g>
        <g transform="matrix(1,0,0,1,0,-12)">
            <path d="M1124.07,202.18L1126.16,222.132L1126.56,237.931L1128.83,233.233L1129.74,207.515L1124.07,202.18Z" style="fill:rgb(114,14,26);fill-rule:nonzero;"/>
        </g>
        <g transform="matrix(1,0,0,1,0,-12)">
            <path d="M1109.15,175.563L1106.92,173.325L1102.46,171.662L1102.38,173.347L1105.92,175.255L1102.06,174.25L1101.75,177.438L1107.31,178.438L1109.15,175.563Z" style="fill:rgb(170,139,126);fill-rule:nonzero;"/>
        </g>
        <g transform="matrix(1,0,0,1,0,-12)">
            <path d="M1133.92,193.747L1135.04,196.381L1135.05,200.766L1133.33,200.58L1132.88,196.582L1133.05,197.787L1131.57,198.026L1131.99,194.693L1133.92,193.747Z" style="fill:rgb(170,139,126);fill-rule:nonzero;"/>
        </g>
        <g transform="matrix(1,0,0,1,0,-12)">
            <path d="M1127.08,167.798L1131.59,169.455L1134.84,194.385L1131.93,194.652L1128.94,172.115L1130.33,196.069L1116.88,196.697L1117.39,175.749L1115.03,170.817L1118.45,168.616L1120.22,170.556L1125.47,170.513L1127.08,167.798Z" style="fill:rgb(193,190,186);fill-rule:nonzero;"/>
        </g>
        <g transform="matrix(1,0,0,1,0,-12)">
            <path d="M1115.06,170.844L1113,181.188L1109.13,175.563L1107.25,178.375L1112.69,186.791L1115.1,186.749L1117.52,175.624" style="fill:rgb(193,190,186);fill-rule:nonzero;"/>
        </g>
        <g transform="matrix(1,0,0,1,0,-12)">
            <path d="M1073.6,140.25L1078.4,138.362L1088.83,137.956L1086.85,129.624L1074.16,129.391L1073.6,140.25Z" style="fill:rgb(228,226,220);fill-rule:nonzero;"/>
        </g>
        <g transform="matrix(1,0,0,1,0,-12)">
            <path d="M1074.54,138.305L1077.1,136.602L1078.95,131.337L1083.25,132.56L1084.61,135.906L1087.55,137.376L1085.69,143.492L1076.94,143.725L1074.54,138.305Z" style="fill:rgb(206,171,151);fill-rule:nonzero;"/>
        </g>
        <g transform="matrix(1,0,0,1,0,-12)">
            <path d="M1088.32,233.534L1089.17,239.729L1082.13,239.574L1081.66,232.916L1088.32,233.534Z" style="fill:rgb(42,43,42);fill-rule:nonzero;"/>
        </g>
        <g transform="matrix(1,0,0,1,0,-12)">
            <path d="M1081.82,196.063L1082.75,242.98L1075.56,241.897L1070.99,195.908" style="fill:rgb(225,197,181);fill-rule:nonzero;"/>
        </g>
        <g transform="matrix(1,0,0,1,0,-12)">
            <path d="M1081.66,179.494L1081.82,199.313L1082.56,233.148L1088.32,233.534L1090.64,199.101L1081.66,179.494Z" style="fill:rgb(206,171,151);fill-rule:nonzero;"/>
        </g>
        <g transform="matrix(1,0,0,1,0,-12)">
            <path d="M1096.28,139.698L1087.58,137.346L1085.3,142.949L1077.25,143.182L1074.54,138.188L1066.35,141.751L1070.56,148.75L1070.27,160.75L1066.06,208.908L1095.91,209.14L1092.03,161.25L1092.73,148.417L1096.28,139.698Z" style="fill:rgb(73,121,158);fill-rule:nonzero;"/>
        </g>
        <g transform="matrix(1,0,0,1,0,-12)">
            <path d="M1093.31,146.813L1102.07,170.658L1106.14,169.277L1096.26,139.72L1093.31,146.813Z" style="fill:rgb(225,197,181);fill-rule:nonzero;"/>
        </g>
        <g transform="matrix(1,0,0,1,0,-12)">
            <path d="M1106.12,169.181L1107.57,173.278L1106.4,179.982L1103.71,179.257L1104.28,173.382L1104.42,175.22L1102.03,174.187L1102.08,170.625L1106.12,169.181Z" style="fill:rgb(225,197,181);fill-rule:nonzero;"/>
        </g>
        <g transform="matrix(1,0,0,1,0,-12)">
            <path d="M1074.37,250.025L1076.98,252L1081.74,252L1082.96,242.999L1075.61,241.858L1074.37,250.025Z" style="fill:rgb(42,43,42);fill-rule:nonzero;"/>
        </g>
        <g transform="matrix(1,0,0,1,0,-12)">
            <path d="M1078.86,135.089L1082.73,135.089L1086.89,129.738L1086.15,118.292L1078.72,117.052L1074.11,118.887L1074.26,129.738L1078.86,135.089Z" style="fill:rgb(225,197,181);fill-rule:nonzero;"/>
        </g>
        <g transform="matrix(1,0,0,1,0,-12)">
            <path d="M1061.81,169.937L1060.83,175.349L1062.26,182.396L1064.83,180.952L1064.09,174.891L1064.26,176.729L1066.65,176.134L1065.69,172.021L1061.81,169.937Z" style="fill:rgb(225,197,181);fill-rule:nonzero;"/>
        </g>
        <g transform="matrix(1,0,0,1,0,-12)">
            <path d="M1070.5,148.375L1065.69,172.057L1061.63,170.912L1066.38,141.875L1070.5,148.375Z" style="fill:rgb(225,197,181);fill-rule:nonzero;"/>
        </g>
        <g transform="matrix(1,0,0,1,0,-12)">
            <path d="M1079.98,113.667L1088.56,116.375L1093.27,139.583L1088.42,144.75L1088.48,139.176L1088.17,137.53L1086.68,130.001L1084.81,120.5L1079.71,118.417L1079.98,113.667Z" style="fill:rgb(228,226,220);fill-rule:nonzero;"/>
        </g>
        <g transform="matrix(1,0,0,1,0,-12)">
            <path d="M1079.8,118.417L1074.77,120.304L1074.19,142.5L1069.94,141.751L1070.77,117.833L1080.1,113.583L1079.8,118.417Z" style="fill:rgb(228,226,220);fill-rule:nonzero;"/>
        </g>
        <g transform="matrix(1,0,0,1,0,-12)">
            <path d="M1120.56,250.214L1122.05,251.541L1125.18,251.468L1125.87,245.261L1121.24,244.816L1120.56,250.214Z" style="fill:rgb(255,238,204);fill-rule:nonzero;"/>
        </g>
    </g>
</svg>
