<svg width="52" height="177" viewBox="0 0 52 177" fill="none" xmlns="http://www.w3.org/2000/svg">
<path d="M16.2256 34.3249L22.3191 31.9271L35.5588 31.4115L33.0505 20.8298L16.9368 20.5339L16.2256 34.3249Z" fill="#E4E2DC"/>
<path d="M14 33.5L20.6606 29.6919L23.019 23.0054L28.4698 24.5586L30.1983 28.808L38.5 32.5L31.575 38.4422L20.465 38.7381L14 33.5Z" fill="#72594B"/>
<path d="M34.9097 152.796L35.993 160.663L27.0534 160.466L26.4629 152.011L34.9097 152.796Z" fill="#2A2B2A"/>
<path d="M26.661 105.207L27.8409 164.792L18.7096 163.417L12.9082 105.01" fill="#72594B"/>
<path d="M26.4629 84.1648L26.661 109.335L27.5957 152.305L34.9109 152.796L37.8624 109.066L26.4629 84.1648Z" fill="#553F37"/>
<path d="M12 70L6.64941 144.204H20L24 70H12Z" fill="#234C6B"/>
<path d="M38 38.5L45.4606 73.6009L50.853 72.7716L44 34L38 38.5Z" fill="#72594B"/>
<path d="M50.8549 72.6497L51.7617 78.0929L48.8191 86.2196L45.6098 84.7172L47.6215 77.4947L47.3929 79.8252L44.6357 78.0065L45.4777 73.5615L50.8549 72.6497Z" fill="#72594B"/>
<path d="M17.1934 173.739L20.5144 176.247H26.5609L28.1077 164.816L18.7682 163.367L17.1934 173.739Z" fill="#2A2B2A"/>
<path d="M22.906 27.7704H27.8133L33.0991 20.9746L32.1542 6.4382L22.727 4.8634L16.8672 7.19385L17.0564 20.9746L22.906 27.7704Z" fill="#72594B"/>
<path d="M1.25095 72.0273L0 78.9006L1.81227 87.8503L5.08 86.0164L4.14401 78.3189L4.36117 80.6532L7.39901 79.8975L6.1722 74.674L1.25095 72.0273Z" fill="#72594B"/>
<path d="M14 40.5L6.16946 74.7198L1.02344 73.2656L8 36L14 40.5Z" fill="#72594B"/>
<path d="M14.5 147L17 70H39.5L45 147H14.5Z" fill="#4F83A3"/>
<path d="M13 70V40.5L8 36L17.5 32L34 31L44 34L39 39L38.5 70H13Z" fill="#72594B"/>
<path d="M11.5 40H40.5L39 57.5H13L11.5 40Z" fill="#4F83A3"/>
<path d="M24.089 6.59694L17.7111 8.99343L16.9643 37.1824L11.5693 36.2311L12.626 5.85526L24.4801 0.457764L24.089 6.59694Z" fill="#E4E2DC"/>
<path d="M24.3234 0.564453L35.2238 4.00361L41.2017 33.4778L35 38.5L34.7221 30.8705L32.8286 21.3086L30.4613 9.24236L23.9805 6.59695L24.3234 0.564453Z" fill="#E4E2DC"/>
</svg>
