<svg width="57" height="192" viewBox="0 0 57 192" fill="none" xmlns="http://www.w3.org/2000/svg">
<path d="M16.04 165.975L14.8462 174.701L25.8953 174.483L26.543 165.105L16.04 165.975Z" fill="#CEAB97"/>
<path d="M36.665 189.203L35.6871 191.983H26.4415L24.727 179.308L34.9251 177.7L36.665 189.203Z" fill="#E1C5B5"/>
<path d="M36.5762 31.8428L32.982 29.4437L30.3659 22.0282L24.3206 23.7516L22.4029 28.462L18.2627 30.5347L27.2797 45.0914L36.5762 31.8428Z" fill="#E1C5B5"/>
<path d="M30.4926 27.3139H25.057L19.1896 19.7764L20.2311 3.65506L30.6959 1.90881L37.1855 4.492L36.9823 19.7764L30.4926 27.3139Z" fill="#E1C5B5"/>
<path d="M19.8369 10.3175L16.2556 10.3772L15.9761 16.6205L19.6337 16.43L19.8369 10.3175Z" fill="#E1C5B5"/>
<path d="M36.7155 11.1671L40.335 12.1514L40.0556 17.3863L36.8552 17.5108L36.7155 11.1671Z" fill="#E1C5B5"/>
<path d="M10.1223 80.2627L16.0406 165.974H25.4513L26.9879 93.1291L23.4319 126.733L24.8036 179.387L34.8746 177.752L38.799 127.044L43.917 80.9155L10.1223 80.2627Z" fill="#E1C5B5"/>
<path d="M23.4727 128.371L24.4727 165.871V174.371H14.9727L16.4727 165.871L11.9727 110.871H24.4727V117.871L23.4727 128.371Z" fill="#CEAC98"/>
<path d="M45.9727 118.871L44.9727 81.3711L9.47266 79.8711L7.97266 105.871L24.4727 98.3711L21.9727 118.371L45.9727 118.871Z" fill="#679A45"/>
<path d="M53.2001 75.1306L56.1846 82.456L55.6131 92.6058L52.2349 91.3129L51.549 82.743L51.8284 85.3262L48.7805 85.4621L49.8854 78.4148L53.2001 75.1306Z" fill="#E1C5B5"/>
<path d="M2.26075 75.4838L0.000115871 81.1721L0.20336 90.5421L3.88624 90.0583L4.63565 81.4909L4.34357 84.0728L7.50586 84.5096L6.43895 77.4065L2.26075 75.4838Z" fill="#E1C5B5"/>
<path d="M18.0971 30.3708L7.64499 33.8062L1.98068 76.5531L6.56551 77.3164L10.9727 54.8711L10.0453 80.2603L43.9161 80.9156V52.8711L49.8089 78.5153L54.0127 76.6623L46.5324 36.2052L36.5756 31.6777L25.9457 42.4752L22.0214 36.423L18.0971 30.3708Z" fill="#E1C5B5"/>
<path d="M21.9727 118.371L24.4727 98.3711L7.97266 105.871L6.97266 118.371H21.9727Z" fill="#35813F"/>
<path d="M15.7607 1.69824L14.3008 14.1768L20.5 28.5H37.5L43.4844 15.1572L42.748 4.81738L33.3418 0.113281L33.3125 0L15.7607 1.69824Z" fill="#72594B"/>
</svg>
