<?xml version="1.0" encoding="UTF-8" standalone="no"?>
<!DOCTYPE svg PUBLIC "-//W3C//DTD SVG 1.1//EN" "http://www.w3.org/Graphics/SVG/1.1/DTD/svg11.dtd">
<svg width="100%" height="100%" viewBox="0 0 140 220" version="1.1" xmlns="http://www.w3.org/2000/svg" xmlns:xlink="http://www.w3.org/1999/xlink" xml:space="preserve" xmlns:serif="http://www.serif.com/" style="fill-rule:evenodd;clip-rule:evenodd;stroke-linejoin:round;stroke-miterlimit:2;">
    <g id="people-18" transform="matrix(1.27,0,0,1.27,-212.969,-84.8)">
        <g transform="matrix(1,0,0,1,0,-12)">
            <path d="M215.208,140.25L220.006,138.362L230.431,137.956L228.456,129.624L215.768,129.391L215.208,140.25Z" style="fill:rgb(228,226,220);fill-rule:nonzero;"/>
        </g>
        <g transform="matrix(1,0,0,1,0,-12)">
            <path d="M216.146,138.305L218.7,136.602L220.557,131.337L224.849,132.56L226.21,135.906L229.152,137.376L227.294,143.492L218.546,143.725L216.146,138.305Z" style="fill:rgb(85,63,55);fill-rule:nonzero;"/>
        </g>
        <g transform="matrix(1,0,0,1,0,-12)">
            <path d="M229.92,233.534L230.773,239.729L223.734,239.574L223.269,232.916L229.92,233.534Z" style="fill:rgb(42,43,42);fill-rule:nonzero;"/>
        </g>
        <g transform="matrix(1,0,0,1,0,-12)">
            <path d="M223.425,196.063L224.354,242.98L217.164,241.897L212.596,195.908" style="fill:rgb(114,89,75);fill-rule:nonzero;"/>
        </g>
        <g transform="matrix(1,0,0,1,0,-12)">
            <path d="M223.269,179.494L223.425,199.313L224.161,233.148L229.921,233.534L232.245,199.101L223.269,179.494Z" style="fill:rgb(85,63,55);fill-rule:nonzero;"/>
        </g>
        <g transform="matrix(1,0,0,1,0,-12)">
            <path d="M237.886,139.698L229.182,137.346L226.908,142.949L218.856,143.182L216.147,138.188L207.955,141.751L212.167,148.75L211.873,160.75L207.668,228.65L237.515,228.883L233.629,161.25L234.333,148.417L237.886,139.698Z" style="fill:rgb(174,31,37);fill-rule:nonzero;"/>
        </g>
        <g transform="matrix(1,0,0,1,0,-12)">
            <path d="M237.578,174.666L237.634,252L241.833,252L241.85,172.656L237.578,174.666Z" style="fill:rgb(193,190,186);fill-rule:nonzero;"/>
        </g>
        <g transform="matrix(1,0,0,1,0,-12)">
            <path d="M204.051,252L208.25,252L208.267,176.094L203.995,173.375L204.051,252Z" style="fill:rgb(193,190,186);fill-rule:nonzero;"/>
        </g>
        <g transform="matrix(1,0,0,1,0,-12)">
            <path d="M206.166,189.698L206.166,185.498L240.667,185.442L241.386,189.715L206.166,189.698Z" style="fill:rgb(193,190,186);fill-rule:nonzero;"/>
        </g>
        <g transform="matrix(1,0,0,1,0,-12)">
            <path d="M234.229,148.75L238.228,171.176L242.474,170.523L237.894,139.699L234.229,148.75Z" style="fill:rgb(114,89,75);fill-rule:nonzero;"/>
        </g>
        <g transform="matrix(1,0,0,1,0,-12)">
            <path d="M242.475,170.427L243.189,174.713L240.872,181.112L238.345,179.929L239.929,174.242L239.749,176.077L237.578,174.645L238.241,171.145L242.475,170.427Z" style="fill:rgb(114,89,75);fill-rule:nonzero;"/>
        </g>
        <g transform="matrix(1,0,0,1,0,-12)">
            <path d="M215.97,250.025L218.585,252L223.346,252L224.564,242.999L217.21,241.858L215.97,250.025Z" style="fill:rgb(42,43,42);fill-rule:nonzero;"/>
        </g>
        <g transform="matrix(1,0,0,1,0,-12)">
            <path d="M220.468,135.089L224.332,135.089L228.494,129.738L227.75,118.292L220.327,117.052L215.713,118.887L215.862,129.738L220.468,135.089Z" style="fill:rgb(114,89,75);fill-rule:nonzero;"/>
        </g>
        <g transform="matrix(1,0,0,1,0,-12)">
            <path d="M203.417,169.937L202.432,175.349L203.859,182.396L206.432,180.952L205.695,174.891L205.866,176.729L208.258,176.134L207.292,172.021L203.417,169.937Z" style="fill:rgb(114,89,75);fill-rule:nonzero;"/>
        </g>
        <g transform="matrix(1,0,0,1,0,-12)">
            <path d="M212.104,148.375L207.29,172.057L203.238,170.912L207.979,141.875L212.104,148.375Z" style="fill:rgb(114,89,75);fill-rule:nonzero;"/>
        </g>
        <g transform="matrix(1,0,0,1,0,-12)">
            <path d="M221.584,113.667L230.167,116.375L234.874,139.583L230.023,144.75L230.082,139.176L229.772,137.53L228.281,130.001L226.417,120.5L221.314,118.417L221.584,113.667Z" style="fill:rgb(228,226,220);fill-rule:nonzero;"/>
        </g>
        <g transform="matrix(1,0,0,1,0,-12)">
            <path d="M221.4,118.417L216.378,120.304L215.79,142.5L211.542,141.751L212.374,117.833L221.708,113.583L221.4,118.417Z" style="fill:rgb(228,226,220);fill-rule:nonzero;"/>
        </g>
    </g>
</svg>
