<svg width="117" height="184" viewBox="0 0 117 184" fill="none" xmlns="http://www.w3.org/2000/svg">
<path d="M25.0632 106.665L28.6015 105.273L36.2894 104.974L34.8329 98.8293L25.4762 98.6575L25.0632 106.665Z" fill="#2A2B2A"/>
<path d="M23.7705 106.186L27.6381 103.975L29.0075 100.093L32.1726 100.995L33.1763 103.462L37.9968 105.606L33.9757 109.056L27.5245 109.228L23.7705 106.186Z" fill="#E1C5B5"/>
<path d="M37.3847 167.322L38.0137 171.89H32.4801L32.8232 167.132L37.3847 167.322Z" fill="#CEAC98"/>
<path d="M31.0289 141.317L30.2341 169.987L24.9319 169.189L22.0286 132.897" fill="#E1C5B5"/>
<path d="M31.8999 141.897L32.1903 149.446L32.8782 167.162L37.1259 167.447L39.4486 132.897L31.8999 141.897Z" fill="#CEAC98"/>
<path d="M38.9612 105.581L51.395 88.8601L54.0405 90.603L38.9996 111.5L38.9612 105.581Z" fill="#E1C5B5"/>
<path d="M54.0121 90.6677L55.8082 88.0142L56.2221 83.0126L54.1646 83.0288L53.4782 87.3278L53.9216 86.0424L52.0261 86.335L51.3946 88.8849L54.0121 90.6677Z" fill="#E1C5B5"/>
<path d="M23.7705 174.631L25.6989 176.087H29.2099L30.1081 169.449L24.6849 168.608L23.7705 174.631Z" fill="#E1C5B5"/>
<path d="M28.942 102.86H31.7915L34.8608 98.9135L34.3121 90.4727L28.838 89.5582L25.4355 90.9114L25.5454 98.9135L28.942 102.86Z" fill="#E1C5B5"/>
<path d="M4.79341 103.81L2.34456 100.576L0.939139 95.4636L3.11294 95.5578L4.64441 99.792L4.14544 98.5254L5.91764 98.1212L6.65031 101.149L4.79341 103.81Z" fill="#E1C5B5"/>
<path d="M20.4957 107.5L10.596 110.529L6.49982 101L3.88944 101.939L8.99591 115L24.9959 110.529L20.4957 107.5Z" fill="#E1C5B5"/>
<path d="M22.0286 132.897L22.6092 127.381H38.5775L39.4485 132.897L32.4805 141.897H30.4482L22.0286 132.897Z" fill="#F8BB1C"/>
<path d="M23.19 127.381V110.251L20.2866 107.638L25.803 105.315L35.3839 104.735L41.1906 106.477L38.2873 109.38L37.9969 127.381H23.19Z" fill="#E1C5B5"/>
<path d="M22.319 109.961H35.384H39.1583L39.1565 109.993L38.2873 118.38H23.19L22.319 109.961Z" fill="#F8BB1C"/>
<path d="M29.6296 90.5648L25.9262 91.9564L25.4925 108.325L22.3599 107.772L22.9734 90.1341L29.8567 87L29.6296 90.5648Z" fill="#2A2B2A"/>
<path d="M29.7652 87.062L36.0947 89.059L39.5658 106.174L35.9647 109.09L35.8034 104.66L34.7038 99.1074L33.3292 92.1009L29.5661 90.5648L29.7652 87.062Z" fill="#2A2B2A"/>
<path d="M35.3839 104.444V109.961H39.1582L39.4485 105.896L35.3839 104.444Z" fill="#F8BB1C"/>
<path d="M22.0286 106.767L22.3189 109.961H26.6739L26.3836 104.735L22.0286 106.767Z" fill="#F8BB1C"/>
<path d="M81.9378 35L87.3197 39.4271L99.9997 34.5L98.0512 28.3298L81.9375 28.0339L81.9378 35Z" fill="#2A2B2A"/>
<path d="M79 41L85.6606 37.1919L88.019 30.5054L93.4698 32.0586L95.1983 36.308L103.5 40L96.575 45.9422L85.465 46.2381L79 41Z" fill="#72594B"/>
<path d="M99.9097 160.296L100.993 168.163L92.0534 167.966L91.4629 159.511L99.9097 160.296Z" fill="#2A2B2A"/>
<path d="M91.661 105.5L92.8415 172.291L83.7101 170.915L77.9082 105.303" fill="#72594B"/>
<path d="M91.4629 91.6648L91.661 116.835L92.5957 159.805L99.9109 160.296L104 105.5L91.4629 91.6648Z" fill="#553F37"/>
<path d="M103 46L110.461 81.1009L115.853 80.2716L109 41.5L103 46Z" fill="#72594B"/>
<path d="M115.856 80.1497L116.763 85.5929L113.82 93.7196L110.611 92.2172L112.622 84.9947L112.394 87.3252L109.637 85.5065L110.479 81.0615L115.856 80.1497Z" fill="#72594B"/>
<path d="M82.1934 181.239L85.5144 183.747H91.5609L93.1077 172.316L83.7682 170.867L82.1934 181.239Z" fill="#2A2B2A"/>
<path d="M87.906 35.2704H92.8133L98.0991 28.4746L97.1542 13.9382L87.727 12.3634L81.8672 14.6939L82.0564 28.4746L87.906 35.2704Z" fill="#72594B"/>
<path d="M54.598 75.4287L51.0672 81.457L49.7023 90.4857L53.4007 89.8829L55.1595 82.3308L54.5635 84.5981L57.6764 84.9294L58.5 80L54.598 75.4287Z" fill="#72594B"/>
<path d="M79.3262 48.7358L58.5 80L53.9994 76.3533L73.3255 43.7358L79.3262 48.7358Z" fill="#72594B"/>
<path d="M73 107L76.5 77.5H104.5L109 107H73Z" fill="#AE2025"/>
<path d="M78.001 77.5L79 49.5L73 43.5L82.501 39.5L99.001 38.5L109.001 41.5L103 47.5L103.501 77.5H78.001Z" fill="#72594B"/>
<path d="M76.5 47.5H99H105.5L105.497 47.5548L104 61.5H78L76.5 47.5Z" fill="#AE2025"/>
<path d="M89.089 14.0969L82.7111 16.4934L82 35L76 28.5V12.5L89 8.5L89.089 14.0969Z" fill="#2A2B2A"/>
<path d="M88.9805 9L100.222 11.6791L104 28.8086L99 35L97.8286 28.8086L95.4613 16.7424L88.9805 14.097V9Z" fill="#2A2B2A"/>
<path d="M99 38L99.5 47.5H103L103.5 39.5L99 38Z" fill="#AE2025"/>
<path d="M78.5 41L79 47.5H82.5V39L78.5 41Z" fill="#AE2025"/>
<path d="M80 6L83 11H93.5L96 5.5L88 0L80 6Z" fill="#2A2B2A"/>
</svg>
