<?xml version="1.0" encoding="UTF-8" standalone="no"?>
<!DOCTYPE svg PUBLIC "-//W3C//DTD SVG 1.1//EN" "http://www.w3.org/Graphics/SVG/1.1/DTD/svg11.dtd">
<svg width="100%" height="100%" viewBox="0 0 140 220" version="1.1" xmlns="http://www.w3.org/2000/svg" xmlns:xlink="http://www.w3.org/1999/xlink" xml:space="preserve" xmlns:serif="http://www.serif.com/" style="fill-rule:evenodd;clip-rule:evenodd;stroke-linejoin:round;stroke-miterlimit:2;">
    <g id="people-27" transform="matrix(1.27,0,0,1.27,-1212.65,-84.8)">
        <g transform="matrix(1,0,0,1,0,-12)">
            <path d="M1030,238.5L1025.77,238.5L1018.08,181.082L1021.43,174.203L1030,238.5Z" style="fill:rgb(244,242,237);fill-rule:nonzero;"/>
        </g>
        <g transform="matrix(1,0,0,1,0,-12)">
            <path d="M1023.3,220.141L1027.5,219.641L1030,238.5L1025.77,238.5L1023.3,220.141Z" style="fill:rgb(174,32,37);fill-rule:nonzero;"/>
        </g>
        <g transform="matrix(1,0,0,1,0,-12)">
            <path d="M1011.98,139.326L1009.14,137.437L1007.08,131.598L1002.33,132.955L1000.82,136.664L997.553,138.296L1004.46,153.381L1011.98,139.326Z" style="fill:rgb(114,89,75);fill-rule:nonzero;"/>
        </g>
        <g transform="matrix(1,0,0,1,0,-12)">
            <path d="M1021.74,174.976L1023.06,180.433L1022.01,187.545L1019.36,186.238L1019.78,180.147L1019.71,181.991L1017.29,181.523L1019.07,176.934L1021.74,174.976Z" style="fill:rgb(114,89,75);fill-rule:nonzero;"/>
        </g>
        <g transform="matrix(1,0,0,1,0,-12)">
            <path d="M998.514,233.034L997.661,239.229L1003.7,239.074L1004.17,232.416L998.514,233.034Z" style="fill:rgb(244,242,237);fill-rule:nonzero;"/>
        </g>
        <g transform="matrix(1,0,0,1,0,-12)">
            <path d="M1002.87,242.499L1004.09,251.5L1008.85,251.5L1009.55,249.525L1008.31,241.359L1002.87,242.499Z" style="fill:rgb(244,242,237);fill-rule:nonzero;"/>
        </g>
        <g transform="matrix(1,0,0,1,0,-12)">
            <path d="M1012.95,146.787L1019.04,177.348L1022.02,176.044L1016.44,142.225L1012.95,146.787Z" style="fill:rgb(114,89,75);fill-rule:nonzero;"/>
        </g>
        <g transform="matrix(1,0,0,1,0,-12)">
            <path d="M1004.01,201.568L1003.08,242.479L1008.27,241.396L1012.84,201.413" style="fill:rgb(114,89,75);fill-rule:nonzero;"/>
        </g>
        <g transform="matrix(1,0,0,1,0,-12)">
            <path d="M1004.17,185L1004.01,198.813L1003.27,232.648L998.514,233.034L996.19,198.602L1004.17,185Z" style="fill:rgb(85,63,55);fill-rule:nonzero;"/>
        </g>
        <g transform="matrix(1,0,0,1,0,-12)">
            <path d="M995.459,144.292L994.167,177.583L990.879,177.346L992.584,140.25L995.459,144.292Z" style="fill:rgb(114,89,75);fill-rule:nonzero;"/>
        </g>
        <g transform="matrix(1,0,0,1,0,-12)">
            <path d="M990.942,176.283L990.647,180.618L993.575,186.762L995.975,185.339L993.846,179.833L994.204,181.642L996.225,180.006L994.188,176.68L990.942,176.283Z" style="fill:rgb(114,89,75);fill-rule:nonzero;"/>
        </g>
        <g transform="matrix(1,0,0,1,0,-12)">
            <path d="M992.55,140.204L998.252,137.852L1000.53,143.455L1008.58,143.688L1011.2,138.812L1016.48,142.257L1012.99,146.862L1013.06,169.312L1016.46,205.4L993.626,205.633L996.313,169.25L995.494,144.385L992.55,140.204Z" style="fill:rgb(255,238,204);fill-rule:nonzero;"/>
        </g>
        <g transform="matrix(1,0,0,1,0,-12)">
            <path d="M1013.35,132.589L1011.39,117.631L1004.43,114.21L1004.44,114.089L997.602,118.339L996.27,132.257L998.018,135.506L1011,136.006L1013.35,132.589Z" style="fill:rgb(42,43,42);fill-rule:nonzero;"/>
        </g>
        <g transform="matrix(1,0,0,1,0,-12)">
            <path d="M1013.06,168.756L1019.77,229.424L989.919,229.656L996.308,169.256L1013.06,168.756Z" style="fill:rgb(49,49,86);fill-rule:nonzero;"/>
        </g>
        <g transform="matrix(1,0,0,1,0,-12)">
            <path d="M1013.25,170.506L996.156,170.516L996.266,167.756L1013.08,167.756L1013.25,170.506Z" style="fill:rgb(42,43,42);fill-rule:nonzero;"/>
        </g>
    </g>
</svg>
