<svg width="64" height="154" viewBox="0 0 64 154" fill="none" xmlns="http://www.w3.org/2000/svg">
<path d="M24.2275 33.8671L30.321 31.4693L43.5608 30.9537L41.0525 20.3721L24.9388 20.0762L24.2275 33.8671Z" fill="#2A2B2A"/>
<path d="M22.001 33.0422L28.6615 29.2342L31.02 22.5476L36.4708 24.1008L38.1993 28.3502L46.501 32.0422L39.5759 37.9845L28.466 38.2804L22.001 33.0422Z" fill="#E1C5B5"/>
<path d="M45.4474 138.327L46.5307 146.195H37.001L37.5918 138L45.4474 138.327Z" fill="#CEAC98"/>
<path d="M34.501 93.5422L33.1323 142.918L24.001 141.542L19.001 79.0422" fill="#E1C5B5"/>
<path d="M36.001 94.5422L36.501 107.542L37.6858 138.052L45.001 138.542L49.001 79.0422L36.001 94.5422Z" fill="#CEAC98"/>
<path d="M46.3108 37.9144L56.1648 72.4199L61.4876 71.2222L52.002 33.5422L46.3108 37.9144Z" fill="#E1C5B5"/>
<path d="M61.4809 71.1004L62.7594 76.4685L60.382 84.7781L57.0771 83.4997L58.5879 76.1561L58.5199 78.4967L55.6443 76.8718L56.179 72.3795L61.4809 71.1004Z" fill="#E1C5B5"/>
<path d="M22.001 150.914L25.322 153.423H31.3685L32.9153 141.991L23.5758 140.542L22.001 150.914Z" fill="#E1C5B5"/>
<path d="M30.907 27.3126H35.8143L41.1 20.5169L40.1552 5.98044L30.7279 4.40564L24.8682 6.73609L25.0574 20.5169L30.907 27.3126Z" fill="#E1C5B5"/>
<path d="M3.67835 70.173L1.3816 76.7709L1.7909 85.893L5.30251 84.5854L5.56572 76.8358L5.42002 79.1756L8.53808 78.8978L8.13215 73.5475L3.67835 70.173Z" fill="#E1C5B5"/>
<path d="M21.501 39.5422L8.12122 73.5923L3.26129 71.3613L15.9057 35.619L21.501 39.5422Z" fill="#E1C5B5"/>
<path d="M19.001 79.0422L20.001 69.5422H47.501L49.001 79.0422L37.001 94.5422H33.501L19.001 79.0422Z" fill="#F8BB1C"/>
<path d="M21.001 69.5422V40.0422L16.001 35.5422L25.501 31.5422L42.001 30.5422L52.001 33.5422L47.001 38.5422L46.501 69.5422H21.001Z" fill="#E1C5B5"/>
<path d="M19.501 39.5422H42.001H48.501L48.4979 39.5971L47.001 54.0422H21.001L19.501 39.5422Z" fill="#F8BB1C"/>
<path d="M32.0909 6.13918L25.713 8.53567L24.9662 36.7246L19.5713 35.7734L20.6279 5.3975L32.4821 0L32.0909 6.13918Z" fill="#2A2B2A"/>
<path d="M32.3244 0.106689L43.2248 3.54585L49.2026 33.02L43.001 38.0422L42.7231 30.4127L40.8295 20.8509L38.4623 8.7846L31.9814 6.13919L32.3244 0.106689Z" fill="#2A2B2A"/>
<path d="M42.001 30.0422V39.5422H48.501L49.001 32.5422L42.001 30.0422Z" fill="#F8BB1C"/>
<path d="M19.001 34.0422L19.501 39.5422H27.001L26.501 30.5422L19.001 34.0422Z" fill="#F8BB1C"/>
</svg>
