<?xml version="1.0" encoding="UTF-8" standalone="no"?>
<!DOCTYPE svg PUBLIC "-//W3C//DTD SVG 1.1//EN" "http://www.w3.org/Graphics/SVG/1.1/DTD/svg11.dtd">
<svg width="100%" height="100%" viewBox="0 0 140 220" version="1.1" xmlns="http://www.w3.org/2000/svg" xmlns:xlink="http://www.w3.org/1999/xlink" xml:space="preserve" xmlns:serif="http://www.serif.com/" style="fill-rule:evenodd;clip-rule:evenodd;stroke-linejoin:round;stroke-miterlimit:2;">
    <g id="people-23" transform="matrix(1.27,0,0,1.27,-744.146,-84.8)">
        <g transform="matrix(1,0,0,1,0,-12)">
            <path d="M660.987,209.8L657.026,211.196L642.022,174.474L645.812,172.375L660.987,209.8Z" style="fill:rgb(193,190,186);fill-rule:nonzero;"/>
        </g>
        <g transform="matrix(1,0,0,1,0,-12)">
            <path d="M611.173,169.83L610.136,175.349L611.564,182.395L614.136,180.951L613.4,174.891L613.57,176.728L615.962,176.134L613.943,171.645L611.173,169.83Z" style="fill:rgb(225,197,181);fill-rule:nonzero;"/>
        </g>
        <g transform="matrix(1,0,0,1,0,-12)">
            <path d="M618.904,137.247L623.702,135.359L634.127,134.953L632.152,126.621L619.464,126.388L618.904,137.247Z" style="fill:rgb(84,62,54);fill-rule:nonzero;"/>
        </g>
        <g transform="matrix(1,0,0,1,0,-12)">
            <path d="M632.616,233.534L633.469,239.729L627.43,239.574L626.965,232.916L632.616,233.534Z" style="fill:rgb(152,138,116);fill-rule:nonzero;"/>
        </g>
        <g transform="matrix(1,0,0,1,0,-12)">
            <path d="M621.584,250.025L622.281,252L627.042,252L628.26,242.999L622.824,241.858L621.584,250.025Z" style="fill:rgb(152,138,116);fill-rule:nonzero;"/>
        </g>
        <g transform="matrix(1,0,0,1,0,-12)">
            <path d="M619.843,135.302L622.397,133.599L624.254,128.334L628.546,129.557L629.907,132.903L632.849,134.373L630.991,140.489L622.243,140.722L619.843,135.302Z" style="fill:rgb(206,171,151);fill-rule:nonzero;"/>
        </g>
        <g transform="matrix(1,0,0,1,0,-12)">
            <path d="M624.164,132.086L628.028,132.086L632.19,126.735L631.446,115.289L624.023,114.049L619.409,115.884L619.558,126.735L624.164,132.086Z" style="fill:rgb(225,197,181);fill-rule:nonzero;"/>
        </g>
        <g transform="matrix(1,0,0,1,0,-12)">
            <path d="M618.257,143.295L613.993,172.057L610.943,170.912L614.746,138.844L618.257,143.295Z" style="fill:rgb(225,197,181);fill-rule:nonzero;"/>
        </g>
        <g transform="matrix(1,0,0,1,0,-12)">
            <path d="M625.28,110.664L633.863,113.372L638.583,136.744L633.719,141.747L633.778,136.173L633.468,134.527L631.977,126.998L630.113,117.497L625.01,115.414L625.28,110.664Z" style="fill:rgb(84,62,54);fill-rule:nonzero;"/>
        </g>
        <g transform="matrix(1,0,0,1,0,-12)">
            <path d="M625.097,115.414L620.075,117.301L619.487,139.497L615.239,138.748L616.071,114.83L625.405,110.58L625.097,115.414Z" style="fill:rgb(84,62,54);fill-rule:nonzero;"/>
        </g>
        <g transform="matrix(1,0,0,1,0,-12)">
            <path d="M627.121,196.063L628.05,242.98L622.862,241.897L618.294,195.908" style="fill:rgb(225,197,181);fill-rule:nonzero;"/>
        </g>
        <g transform="matrix(1,0,0,1,0,-12)">
            <path d="M626.965,179.494L627.121,199.313L627.857,233.148L632.616,233.534L634.94,199.101L626.965,179.494Z" style="fill:rgb(206,171,151);fill-rule:nonzero;"/>
        </g>
        <g transform="matrix(1,0,0,1,0,-12)">
            <path d="M638.579,136.695L632.878,134.343L630.604,139.946L622.552,140.179L619.843,135.185L614.654,138.748L618.139,143.353L619.573,160.75L611.364,200.9L641.211,201.133L633.321,161.25L635.636,140.876L638.579,136.695Z" style="fill:rgb(255,238,204);fill-rule:nonzero;"/>
        </g>
        <g transform="matrix(1,0,0,1,0,-12)">
            <path d="M636.188,140.099L643.235,170.761L646.406,169.859L638.532,136.704L636.188,140.099Z" style="fill:rgb(225,197,181);fill-rule:nonzero;"/>
        </g>
        <g transform="matrix(1,0,0,1,0,-12)">
            <path d="M646.395,169.763L650.963,176.558L649.011,180.292L646.797,174.813L644.276,173.83L643.544,178.174L641.232,176.984L643.266,170.719L646.395,169.763Z" style="fill:rgb(225,197,181);fill-rule:nonzero;"/>
        </g>
        <g transform="matrix(1,0,0,1,0,-12)">
            <path d="M643.312,226.625L643.666,248.709L647.328,248.703L647.624,232.625L643.312,226.625Z" style="fill:rgb(42,43,42);fill-rule:nonzero;"/>
        </g>
        <g transform="matrix(1,0,0,1,0,-12)">
            <path d="M645.5,229.813L645.25,239.938L643.547,241.594L643.656,248.75L647.422,248.75L647.667,231.398L645.5,229.813Z" style="fill:rgb(244,242,237);fill-rule:nonzero;"/>
        </g>
        <g transform="matrix(1,0,0,1,0,-12)">
            <path d="M657.625,233.75L657.359,248.75L653.25,248.75L653.313,234.375L657.625,233.75Z" style="fill:rgb(244,242,237);fill-rule:nonzero;"/>
        </g>
        <g transform="matrix(1,0,0,1,0,-12)">
            <path d="M646.813,215.375L643.313,226.625L648.563,236.5L649.688,252L653.812,252L654.562,235.748L659.395,235.748L659.895,252L663.812,252L666.938,211.374L654.688,211.124L646.813,215.375Z" style="fill:rgb(42,43,42);fill-rule:nonzero;"/>
        </g>
        <g transform="matrix(1,0,0,1,0,-12)">
            <path d="M654.625,211.125L654.469,224.5L660.437,230.437L665.906,225.156L667,211.375L654.625,211.125Z" style="fill:rgb(244,242,237);fill-rule:nonzero;"/>
        </g>
        <g transform="matrix(1,0,0,1,0,-12)">
            <path d="M666.797,206.109L668.586,203.263L671.984,204.078L670.766,200.359L663.547,200.359L666.797,206.109Z" style="fill:rgb(42,43,42);fill-rule:nonzero;"/>
        </g>
        <g transform="matrix(1,0,0,1,0,-12)">
            <path d="M655.25,206.438L653.008,203.28L649.609,204.094L650.906,200.407L658.047,200.375L655.25,206.438Z" style="fill:rgb(42,43,42);fill-rule:nonzero;"/>
        </g>
        <g transform="matrix(1,0,0,1,0,-12)">
            <path d="M657.937,200.375L653.125,209.906L658.749,215.563L663.874,215.563L669.25,210.125L663.624,200.375L657.937,200.375Z" style="fill:rgb(42,43,42);fill-rule:nonzero;"/>
        </g>
    </g>
</svg>
