<?xml version="1.0" encoding="UTF-8" standalone="no"?>
<!DOCTYPE svg PUBLIC "-//W3C//DTD SVG 1.1//EN" "http://www.w3.org/Graphics/SVG/1.1/DTD/svg11.dtd">
<svg width="100%" height="100%" viewBox="0 0 140 220" version="1.1" xmlns="http://www.w3.org/2000/svg" xmlns:xlink="http://www.w3.org/1999/xlink" xml:space="preserve" xmlns:serif="http://www.serif.com/" style="fill-rule:evenodd;clip-rule:evenodd;stroke-linejoin:round;stroke-miterlimit:2;">
    <g id="people-01" transform="matrix(1.27,0,0,1.27,-1711.36,-84.8)">
        <g transform="matrix(1,0,0,1,0,-12)">
            <path d="M1388.14,169.33L1387.11,174.849L1388.54,181.895L1391.11,180.451L1390.37,174.391L1390.54,176.228L1392.93,175.634L1390.91,171.145L1388.14,169.33Z" style="fill:rgb(225,197,181);fill-rule:nonzero;"/>
        </g>
        <g transform="matrix(1,0,0,1,0,-12)">
            <path d="M1395.88,139.75L1400.67,137.862L1411.1,137.456L1409.12,129.124L1396.43,128.891L1395.88,139.75Z" style="fill:rgb(84,62,54);fill-rule:nonzero;"/>
        </g>
        <g transform="matrix(1,0,0,1,0,-12)">
            <path d="M1409.59,233.034L1410.44,239.229L1404.4,239.074L1403.94,232.416L1409.59,233.034Z" style="fill:rgb(42,43,42);fill-rule:nonzero;"/>
        </g>
        <g transform="matrix(1,0,0,1,0,-12)">
            <path d="M1398.56,249.525L1399.25,251.5L1404.01,251.5L1405.23,242.499L1399.8,241.358L1398.56,249.525Z" style="fill:rgb(42,43,42);fill-rule:nonzero;"/>
        </g>
        <g transform="matrix(1,0,0,1,0,-12)">
            <path d="M1396.81,137.805L1399.37,136.102L1401.23,130.837L1405.52,132.06L1406.88,135.406L1409.82,136.876L1407.96,142.992L1399.21,143.225L1396.81,137.805Z" style="fill:rgb(206,171,151);fill-rule:nonzero;"/>
        </g>
        <g transform="matrix(1,0,0,1,0,-12)">
            <path d="M1401.13,134.589L1405,134.589L1409.16,129.238L1408.42,117.792L1400.99,116.552L1396.38,118.387L1396.53,129.238L1401.13,134.589Z" style="fill:rgb(225,197,181);fill-rule:nonzero;"/>
        </g>
        <g transform="matrix(1,0,0,1,0,-12)">
            <path d="M1395.23,145.798L1390.96,171.557L1387.91,170.412L1391.72,141.347L1395.23,145.798Z" style="fill:rgb(225,197,181);fill-rule:nonzero;"/>
        </g>
        <g transform="matrix(1,0,0,1,0,-12)">
            <path d="M1402.25,113.167L1410.83,115.875L1415.54,139.083L1410.69,144.25L1410.75,138.676L1410.44,137.03L1408.95,129.501L1407.08,120L1401.98,117.917L1402.25,113.167Z" style="fill:rgb(84,62,54);fill-rule:nonzero;"/>
        </g>
        <g transform="matrix(1,0,0,1,0,-12)">
            <path d="M1402.07,117.917L1397.05,119.804L1396.46,142L1392.21,141.251L1393.04,117.333L1402.38,113.083L1402.07,117.917Z" style="fill:rgb(84,62,54);fill-rule:nonzero;"/>
        </g>
        <g transform="matrix(1,0,0,1,0,-12)">
            <path d="M1404.09,195.563L1405.02,242.48L1399.83,241.397L1395.27,195.408" style="fill:rgb(225,197,181);fill-rule:nonzero;"/>
        </g>
        <g transform="matrix(1,0,0,1,0,-12)">
            <path d="M1403.94,178.994L1404.09,198.813L1404.83,232.648L1409.59,233.034L1411.91,198.601L1403.94,178.994Z" style="fill:rgb(206,171,151);fill-rule:nonzero;"/>
        </g>
        <g transform="matrix(1,0,0,1,0,-12)">
            <path d="M1415.55,139.198L1409.85,136.846L1407.58,142.449L1399.52,142.682L1396.81,137.688L1391.62,141.251L1395.11,145.856L1395.54,160.25L1388.34,200.4L1418.18,200.633L1411.29,160.75L1412.61,143.379L1415.55,139.198Z" style="fill:rgb(55,99,136);fill-rule:nonzero;"/>
        </g>
        <g transform="matrix(1,0,0,1,0,-12)">
            <path d="M1412.65,143.344L1413.86,170.611L1417.15,170.373L1415.59,139.25L1412.65,143.344Z" style="fill:rgb(225,197,181);fill-rule:nonzero;"/>
        </g>
        <g transform="matrix(1,0,0,1,0,-12)">
            <path d="M1417.16,170.277L1417.45,174.612L1414.53,180.756L1412.12,179.333L1414.25,173.827L1413.9,175.636L1411.88,174L1413.91,170.674L1417.16,170.277Z" style="fill:rgb(225,197,181);fill-rule:nonzero;"/>
        </g>
    </g>
</svg>
