<svg width="52" height="200" viewBox="0 0 52 200" fill="none" xmlns="http://www.w3.org/2000/svg">
<path d="M11.5 78L12.5 65.5H37.5L38.5 78H11.5Z" fill="#AA8B7E"/>
<path d="M16.0406 173.604L14.8467 182.33L23.3558 182.112L24.0035 172.734L16.0406 173.604Z" fill="#FCD157"/>
<path d="M22.1738 186.936L23.8883 199.612H30.6066L31.5846 196.832L29.832 185.33L22.1738 186.936Z" fill="#FCD157"/>
<path d="M27.9524 25.4051H22.5041L16.6494 17.8676L17.6909 1.74625L28.143 0L34.6454 2.58319L34.4421 17.8676L27.9524 25.4051Z" fill="#AA8B7E"/>
<path d="M34.0361 29.9352L30.4419 27.5361L27.8258 20.1206L21.7806 21.844L19.8629 26.5544L15.7227 28.6271L24.7396 43.1838L34.0361 29.9352Z" fill="#AA8B7E"/>
<path d="M17.2974 8.40869L13.7161 8.46838L13.4238 14.7117L17.0814 14.5212L17.2974 8.40869Z" fill="#AA8B7E"/>
<path d="M34.1758 9.2583L37.7953 10.2426L37.5032 15.4775L34.3028 15.602L34.1758 9.2583Z" fill="#AA8B7E"/>
<path d="M10.1221 78.3552L16.0403 173.604H22.9111L24.435 91.2216L20.8916 128.007L22.2633 187.018L29.7816 185.381L33.7061 128.318L38.8368 79.008L10.1221 78.3552Z" fill="#AA8B7E"/>
<path d="M23.7494 91.0946L20.2951 130.607L21.9207 173.615L15.1642 160.824L11.9004 102.786L23.7494 91.0946Z" fill="#72594B"/>
<path d="M48.1202 73.2232L51.092 80.5485L50.5205 90.6984L47.155 89.4055L46.4692 80.8356L46.7485 83.4187L43.7007 83.5546L44.8055 76.5074L37.1855 44.4653L43.1418 43.4696L48.1202 73.2232Z" fill="#AA8B7E"/>
<path d="M2.26064 73.2574L0 79.2632L0.203243 88.6333L3.88612 88.1494L4.63553 79.582L4.33074 82.1639L7.50574 82.6008L6.43883 75.1802L11.1379 42.4891L6.36271 41.543L2.26064 73.2574Z" fill="#AA8B7E"/>
<path d="M18.7205 27.192L7.64611 31.8974L6.16016 43.1826L10.9989 43.4683L11.7863 40.9601L10.0464 65.8447L38.8372 66.5L36.4369 41.2763L37.1863 44.4653L43.1426 43.4683L41.4535 34.2964L30.8618 27.8638L18.7205 27.192Z" fill="#FCD157"/>
<path d="M9 110.5L10.5 73H38.5L40 95.5L26.2881 87.8711L27.5 110.5H9Z" fill="#AE2025"/>
<path d="M27 108L26 87.5L40 95.5L41 108.5L27 108Z" fill="#720E1A"/>
</svg>
