<?xml version="1.0" encoding="UTF-8" standalone="no"?>
<!DOCTYPE svg PUBLIC "-//W3C//DTD SVG 1.1//EN" "http://www.w3.org/Graphics/SVG/1.1/DTD/svg11.dtd">
<svg width="100%" height="100%" viewBox="0 0 140 220" version="1.1" xmlns="http://www.w3.org/2000/svg" xmlns:xlink="http://www.w3.org/1999/xlink" xml:space="preserve" xmlns:serif="http://www.serif.com/" style="fill-rule:evenodd;clip-rule:evenodd;stroke-linejoin:round;stroke-miterlimit:2;">
    <g id="people-22" transform="matrix(1.27,0,0,1.27,-638.447,-84.8)">
        <g transform="matrix(1,0,0,1,0,-12)">
            <path d="M562.279,239.835L562.839,243.916L558.861,243.814L558.554,239.428L562.279,239.835Z" style="fill:rgb(255,238,204);fill-rule:nonzero;"/>
        </g>
        <g transform="matrix(1,0,0,1,0,-12)">
            <path d="M564.833,164.667L561.083,161.5L555.839,161.608L554.833,161.5L550.25,165L551.373,180.728L554.376,180.345L554.757,179.643L556.816,178.804L560.496,179.337L562.485,180.422L565.026,180.269L564.833,164.667Z" style="fill:rgb(42,43,42);fill-rule:nonzero;"/>
        </g>
        <g transform="matrix(1,0,0,1,0,-12)">
            <path d="M554.009,250.637L555.47,252L558.606,252L559.437,245.813L554.828,245.258L554.009,250.637Z" style="fill:rgb(255,238,204);fill-rule:nonzero;"/>
        </g>
        <g transform="matrix(1,0,0,1,0,-12)">
            <path d="M553.862,177.097L555.546,175.975L556.77,172.507L559.596,173.313L560.493,175.516L562.43,176.485L562.947,187.354L558.212,195.174L553.862,177.097Z" style="fill:rgb(85,63,55);fill-rule:nonzero;"/>
        </g>
        <g transform="matrix(1,0,0,1,0,-12)">
            <path d="M556.71,174.979L559.256,174.979L561.998,171.454L561.509,164.952L556.617,164.135L553.578,165.344L553.676,171.454L556.71,174.979Z" style="fill:rgb(114,89,75);fill-rule:nonzero;"/>
        </g>
        <g transform="matrix(1,0,0,1,0,-12)">
            <path d="M561.337,167.028L563.013,167.056L563.146,169.976L561.436,169.887L561.337,167.028Z" style="fill:rgb(114,89,75);fill-rule:nonzero;"/>
        </g>
        <g transform="matrix(1,0,0,1,0,-12)">
            <path d="M553.837,167.426L552.146,167.887L552.278,170.335L553.775,170.394L553.837,167.426Z" style="fill:rgb(114,89,75);fill-rule:nonzero;"/>
        </g>
        <g transform="matrix(1,0,0,1,0,-12)">
            <path d="M564.047,199.744L564.631,205.79L562.279,239.835L559.066,239.835L558.352,205.763L560.012,221.48L560.372,246.108L554.852,245.344L554.015,221.626L552.285,206.044L552.62,200.05L564.047,199.744Z" style="fill:rgb(193,190,186);fill-rule:nonzero;"/>
        </g>
        <g transform="matrix(1,0,0,1,0,-12)">
            <path d="M558.675,205.703L560.29,222.696L560.313,238.5L562.688,233.857L564.218,211.172L558.675,205.703Z" style="fill:rgb(23,24,23);fill-opacity:0.25;fill-rule:nonzero;"/>
        </g>
        <g transform="matrix(1,0,0,1,0,-12)">
            <path d="M547.278,197.344L545.882,200.771L546.15,205.518L547.726,204.913L548.049,200.905L547.918,202.114L549.342,202.176L548.826,198.88L547.278,197.344Z" style="fill:rgb(85,63,55);fill-rule:nonzero;"/>
        </g>
        <g transform="matrix(1,0,0,1,0,-12)">
            <path d="M568.727,197.509L569.782,200.169L569.688,204.553L567.966,204.325L567.617,200.319L567.754,201.527L566.273,201.731L566.77,198.408L568.727,197.509Z" style="fill:rgb(85,63,55);fill-rule:nonzero;"/>
        </g>
        <g transform="matrix(1,0,0,1,0,-12)">
            <path d="M562.509,176.408L566.981,178.173L569.629,198.168L566.713,198.366L564.269,180.768L564.645,205.749L552.27,206.055L552.74,182.401L548.864,198.927L546.167,197.667L550.394,179.137L553.863,177.019L555.583,179L560.833,179.083L562.509,176.408Z" style="fill:rgb(102,153,68);fill-rule:nonzero;"/>
        </g>
    </g>
</svg>
