<svg width="52" height="177" viewBox="0 0 52 177" fill="none" xmlns="http://www.w3.org/2000/svg">
<path d="M16.8521 152.796L15.7688 160.663L24.7083 160.466L25.2988 152.011L16.8521 152.796Z" fill="#2A2B2A"/>
<path d="M25.1007 105.207L23.9208 164.792L33.0521 163.417L38.8535 105.01" fill="#72594B"/>
<path d="M25.2988 84.1648L25.1007 109.335L24.166 152.305L16.8508 152.796L13.8993 109.066L25.2988 84.1648Z" fill="#553F37"/>
<path d="M13.7617 38.5L6.30116 73.6009L0.908739 72.7716L7.76172 34L13.7617 38.5Z" fill="#72594B"/>
<path d="M0.906783 72.6497L1.62125e-05 78.0929L2.94261 86.2196L6.15189 84.7172L4.14021 77.4947L4.36882 79.8252L7.12598 78.0065L6.28397 73.5615L0.906783 72.6497Z" fill="#72594B"/>
<path d="M34.5684 173.739L31.2473 176.247H25.2008L23.654 164.816L32.9936 163.367L34.5684 173.739Z" fill="#2A2B2A"/>
<path d="M50.5108 72.0273L51.7617 78.9006L49.9494 87.8503L46.6817 86.0164L47.6177 78.3189L47.4006 80.6532L44.3627 79.8975L45.5895 74.674L50.5108 72.0273Z" fill="#72594B"/>
<path d="M37.7617 40.5L45.5923 74.7198L50.7383 73.2656L43.7617 36L37.7617 40.5Z" fill="#72594B"/>
<path d="M45 147L39.5 70H12.2617L6.76172 147H45Z" fill="#4F83A3"/>
<path d="M38.7617 70V40.5L43.7617 36L34.2617 32L17.7617 31L7.76172 34L12.7617 39L13.2617 70H38.7617Z" fill="#72594B"/>
<path d="M40.2617 40H11.2617L12.7617 57.5H38.7617L40.2617 40Z" fill="#4F83A3"/>
<path d="M27.3027 0.607178L16.5381 4.00366L10.5596 33.4773L17.5 41.5H34L40.1924 36.2312L39.1357 5.85522L27.2812 0.457764L27.3027 0.607178Z" fill="#E4E2DC"/>
</svg>
