<?xml version="1.0" encoding="UTF-8" standalone="no"?>
<!DOCTYPE svg PUBLIC "-//W3C//DTD SVG 1.1//EN" "http://www.w3.org/Graphics/SVG/1.1/DTD/svg11.dtd">
<svg width="100%" height="100%" viewBox="0 0 140 220" version="1.1" xmlns="http://www.w3.org/2000/svg" xmlns:xlink="http://www.w3.org/1999/xlink" xml:space="preserve" xmlns:serif="http://www.serif.com/" style="fill-rule:evenodd;clip-rule:evenodd;stroke-linejoin:round;stroke-miterlimit:2;">
    <g id="people-30" transform="matrix(1.27,0,0,1.27,-1604.73,-84.8)">
        <g transform="matrix(1,0,0,1,0,-12)">
            <path d="M1314.06,134.25L1312.31,148.25L1305.81,152.667L1307.06,134.667L1314.06,134.25Z" style="fill:rgb(92,94,95);fill-rule:nonzero;"/>
        </g>
        <g transform="matrix(1,0,0,1,0,-12)">
            <path d="M1336.56,137.661L1340.29,153.875L1347.46,150.752L1341.86,135.042L1336.56,137.661Z" style="fill:rgb(92,94,95);fill-rule:nonzero;"/>
        </g>
        <g transform="matrix(1,0,0,1,0,-12)">
            <path d="M1348.83,114.787L1347.8,109.989L1343.58,106.871L1342.85,106.171L1337.08,106.143L1328.36,119.281L1330.98,120.812L1331.7,120.489L1333.85,121.082L1336.43,123.752L1337.35,125.827L1339.45,127.258L1348.83,114.787Z" style="fill:rgb(42,43,42);fill-rule:nonzero;"/>
        </g>
        <g transform="matrix(1,0,0,1,0,-12)">
            <path d="M1332.55,117.926L1334.57,118.066L1337.66,116.069L1339.4,118.433L1338.77,120.725L1339.71,122.676L1333.48,131.597L1321.9,138.859L1332.55,117.926Z" style="fill:rgb(115,90,76);fill-rule:nonzero;"/>
        </g>
        <g transform="matrix(1,0,0,1,0,-12)">
            <path d="M1336.1,117.989L1338.12,119.545L1342.44,118.428L1346.03,112.982L1342.65,109.347L1339.51,108.448L1335.85,113.345L1336.1,117.989Z" style="fill:rgb(170,139,126);fill-rule:nonzero;"/>
        </g>
        <g transform="matrix(1,0,0,1,0,-12)">
            <path d="M1344.62,114.521L1345.93,115.567L1344.25,117.96L1342.95,116.845L1344.62,114.521Z" style="fill:rgb(170,139,126);fill-rule:nonzero;"/>
        </g>
        <g transform="matrix(1,0,0,1,0,-12)">
            <path d="M1338.44,110.254L1336.82,109.586L1335.43,111.605L1336.58,112.565L1338.44,110.254Z" style="fill:rgb(170,139,126);fill-rule:nonzero;"/>
        </g>
        <g transform="matrix(1,0,0,1,0,-12)">
            <path d="M1339.82,122.663L1344.05,123.875L1329.11,148.203L1326.68,146.578L1338.55,127.19L1324.55,146.674L1313.7,138.691L1326.08,122.166L1328.56,117.423L1332.6,117.865L1332.75,120.485L1336.86,123.758L1339.82,122.663Z" style="fill:rgb(246,241,225);fill-rule:nonzero;"/>
        </g>
        <g transform="matrix(1,0,0,1,0,-12)">
            <path d="M1334.38,230.521L1335.33,237.392L1325.63,237.22L1325.11,229.836L1334.38,230.521Z" style="fill:rgb(193,190,186);fill-rule:nonzero;"/>
        </g>
        <g transform="matrix(1,0,0,1,0,-12)">
            <path d="M1317.52,239.753L1316.14,248.811L1316.91,251L1325.2,251L1326.55,241.019L1317.52,239.753Z" style="fill:rgb(193,190,186);fill-rule:nonzero;"/>
        </g>
        <g transform="matrix(1,0,0,1,0,-12)">
            <path d="M1317.66,126.741L1319.94,118.632L1327.57,119.094L1329.57,122.566L1331.81,123.773L1326.32,136.089L1317.66,126.741Z" style="fill:rgb(85,63,55);fill-rule:nonzero;"/>
        </g>
        <g transform="matrix(1,0,0,1,0,-12)">
            <path d="M1321.93,122.56L1326.17,121.981L1329.95,115.478L1327.42,103.011L1319.07,102.76L1314.28,105.466L1316.07,117.369L1321.93,122.56Z" style="fill:rgb(114,89,75);fill-rule:nonzero;"/>
        </g>
        <g transform="matrix(1,0,0,1,0,-12)">
            <path d="M1328.43,108.167L1331.23,107.833L1332.12,112.674L1329.25,112.914L1328.43,108.167Z" style="fill:rgb(114,89,75);fill-rule:nonzero;"/>
        </g>
        <g transform="matrix(1,0,0,1,0,-12)">
            <path d="M1315.36,110.624L1312.64,111.776L1313.42,115.831L1315.92,115.588L1315.36,110.624Z" style="fill:rgb(114,89,75);fill-rule:nonzero;"/>
        </g>
        <g transform="matrix(1,0,0,1,0,-12)">
            <path d="M1344.05,169.037L1334.38,230.52L1325.97,230.52L1324.77,173.162L1327.56,199.622L1326.49,241.082L1317.56,239.794L1313.46,199.867L1308.43,169L1329.86,166.562L1344.05,169.037Z" style="fill:rgb(49,49,86);fill-rule:nonzero;"/>
        </g>
        <g transform="matrix(1,0,0,1,0,-12)">
            <path d="M1325.31,173.063L1329.48,200.959L1326.75,230.529L1335.6,221.579L1340.98,188.625L1325.31,173.063Z" style="fill:rgb(10,23,35);fill-opacity:0.3;fill-rule:nonzero;"/>
        </g>
        <g transform="matrix(1,0,0,1,0,-12)">
            <path d="M1300.55,159.156L1311.94,162.458L1312.18,158.1L1305.84,155.724L1307.73,156.494L1308.5,154.218L1303.49,153.844L1300.55,159.156Z" style="fill:rgb(114,89,75);fill-rule:nonzero;"/>
        </g>
        <g transform="matrix(1,0,0,1,0,-12)">
            <path d="M1331.77,123.746L1342,126.451L1351.81,147L1348.56,162.25L1342.47,160.016L1346.05,149.102L1337.73,134.09L1344.11,169.035L1308.43,169L1310.69,134.75L1296.06,144.625L1303.56,153.833L1300.56,159.167L1285.56,143.625L1308.37,128.34L1317.21,124.775L1325.58,133.277L1331.77,123.746Z" style="fill:rgb(193,190,186);fill-rule:nonzero;"/>
        </g>
        <g transform="matrix(1,0,0,1,0,-12)">
            <path d="M1320.57,130.021L1323.73,131.644L1329.14,132.058L1329.07,129.909L1324.17,128.993L1325.64,129.307L1326.08,127.507L1322.78,127.421L1320.57,130.021Z" style="fill:rgb(170,139,126);fill-rule:nonzero;"/>
        </g>
        <g transform="matrix(1,0,0,1,0,-12)">
            <path d="M1318.69,119.709L1310.38,124.937L1311.04,127.262L1320.67,130.03L1322.82,127.42L1318.11,125.188L1319.46,120.355L1318.69,119.709Z" style="fill:rgb(246,241,225);fill-rule:nonzero;"/>
        </g>
        <g transform="matrix(1,0,0,1,0,-12)">
            <path d="M1337.22,137.808L1334.24,139.491L1329.04,140.097L1329.03,138.025L1333.71,136.954L1332.31,137.314L1331.82,135.595L1335.11,135.188L1337.22,137.808Z" style="fill:rgb(170,139,126);fill-rule:nonzero;"/>
        </g>
        <g transform="matrix(1,0,0,1,0,-12)">
            <path d="M1344.05,123.875L1347.51,132.707L1346.85,135.032L1337.22,137.8L1335.07,135.19L1343.5,131.938L1342,126.451L1344.05,123.875Z" style="fill:rgb(246,241,225);fill-rule:nonzero;"/>
        </g>
        <g transform="matrix(1,0,0,1,0,-12)">
            <path d="M1338.69,148.108L1342.16,160.125L1348.84,157.81L1343.62,146.167L1338.69,148.108Z" style="fill:rgb(102,153,68);fill-rule:nonzero;"/>
        </g>
        <g transform="matrix(1,0,0,1,0,-12)">
            <path d="M1312.62,146.875L1310.19,158.625L1303.44,157.084L1307.44,145.5L1312.62,146.875Z" style="fill:rgb(102,153,68);fill-rule:nonzero;"/>
        </g>
        <g transform="matrix(1,0,0,1,0,-12)">
            <path d="M1308.81,154.125L1308.11,156.625L1303.44,157.084L1303.56,153.844L1308.81,154.125Z" style="fill:rgb(114,89,75);fill-rule:nonzero;"/>
        </g>
        <g transform="matrix(1,0,0,1,0,-12)">
            <path d="M1348.58,162.197L1347.98,166.976L1344.29,173.369L1339.89,170.521L1342.63,164.326L1341.85,166.219L1339.5,165.321L1342.48,160.015L1348.58,162.197Z" style="fill:rgb(114,89,75);fill-rule:nonzero;"/>
        </g>
    </g>
</svg>
