<?xml version="1.0" encoding="UTF-8" standalone="no"?>
<!DOCTYPE svg PUBLIC "-//W3C//DTD SVG 1.1//EN" "http://www.w3.org/Graphics/SVG/1.1/DTD/svg11.dtd">
<svg width="100%" height="100%" viewBox="0 0 140 220" version="1.1" xmlns="http://www.w3.org/2000/svg" xmlns:xlink="http://www.w3.org/1999/xlink" xml:space="preserve" xmlns:serif="http://www.serif.com/" style="fill-rule:evenodd;clip-rule:evenodd;stroke-linejoin:round;stroke-miterlimit:2;">
    <g id="people-06" transform="matrix(1.27,0,0,1.27,-2047.74,-84.8)">
        <g transform="matrix(1,0,0,1,0,-12)">
            <path d="M1660.03,231.021L1659.08,237.892L1665.78,237.72L1666.3,230.336L1660.03,231.021Z" style="fill:rgb(42,43,42);fill-rule:nonzero;"/>
        </g>
        <g transform="matrix(1,0,0,1,0,-12)">
            <path d="M1664.86,241.519L1666.21,251.5L1671.49,251.5L1672.26,249.311L1670.88,240.254L1664.86,241.519Z" style="fill:rgb(42,43,42);fill-rule:nonzero;"/>
        </g>
        <g transform="matrix(1,0,0,1,0,-12)">
            <path d="M1674.19,120.405L1671.36,118.516L1669.3,112.677L1664.54,114.034L1663.03,117.743L1659.77,119.375L1666.87,130.837L1674.19,120.405Z" style="fill:rgb(85,63,55);fill-rule:nonzero;"/>
        </g>
        <g transform="matrix(1,0,0,1,0,-12)">
            <path d="M1669.4,116.839L1665.11,116.839L1660.5,110.904L1661.32,98.21L1663.08,96.748L1671.81,96.835L1674.67,98.869L1674.51,110.904L1669.4,116.839Z" style="fill:rgb(114,89,75);fill-rule:nonzero;"/>
        </g>
        <g transform="matrix(1,0,0,1,0,-12)">
            <path d="M1661.01,103.456L1658.19,103.503L1657.97,108.419L1660.85,108.269L1661.01,103.456Z" style="fill:rgb(114,89,75);fill-rule:nonzero;"/>
        </g>
        <g transform="matrix(1,0,0,1,0,-12)">
            <path d="M1674.3,104.125L1677.15,104.9L1676.93,109.022L1674.41,109.12L1674.3,104.125Z" style="fill:rgb(114,89,75);fill-rule:nonzero;"/>
        </g>
        <g transform="matrix(1,0,0,1,0,-12)">
            <path d="M1655.36,161.031L1660.03,231.02L1665.43,231.02L1666.64,171.162L1663.84,200.122L1664.92,241.582L1670.84,240.294L1673.94,200.367L1677.97,161.545L1655.36,161.031Z" style="fill:rgb(92,94,95);fill-rule:nonzero;"/>
        </g>
        <g transform="matrix(1,0,0,1,0,-12)">
            <path d="M1666.09,171.063L1663.37,202.17L1664.65,231.029L1659.34,220.959L1656.76,180.268L1666.09,171.063Z" style="fill:rgb(23,24,23);fill-opacity:0.5;fill-rule:nonzero;"/>
        </g>
        <g transform="matrix(1,0,0,1,0,-12)">
            <path d="M1685.28,156.99L1687.63,162.758L1687.17,170.75L1684.52,169.732L1683.98,162.984L1684.2,165.018L1681.8,165.125L1682.67,159.576L1685.28,156.99Z" style="fill:rgb(114,89,75);fill-rule:nonzero;"/>
        </g>
        <g transform="matrix(1,0,0,1,0,-12)">
            <path d="M1649.17,157.268L1647.4,161.747L1647.55,169.125L1650.45,168.744L1651.04,161.998L1650.81,164.031L1653.3,164.375L1652.47,158.782L1649.17,157.268Z" style="fill:rgb(114,89,75);fill-rule:nonzero;"/>
        </g>
        <g transform="matrix(1,0,0,1,0,-12)">
            <path d="M1659.64,119.246L1653.41,121.951L1648.95,158.11L1652.56,158.711L1656.68,126.587L1655.3,161.029L1677.97,161.545L1676.08,129.336L1682.61,159.655L1685.91,158.196L1680.03,123.84L1674.19,120.275L1665.82,119.777L1659.64,119.246Z" style="fill:rgb(235,218,176);fill-rule:nonzero;"/>
        </g>
        <g transform="matrix(1,0,0,1,0,-12)">
            <path d="M1676.31,134.313L1677.97,161.545L1655.3,161.03L1655.5,155.063" style="fill:rgb(224,206,168);fill-rule:nonzero;"/>
        </g>
    </g>
</svg>
