<svg width="61" height="149" viewBox="0 0 61 149" fill="none" xmlns="http://www.w3.org/2000/svg">
<path d="M19.001 35.0422L25.6615 31.2342L28.02 24.5476L33.4708 26.1008L35.1993 30.3502L43.501 34.0422L36.5759 39.9845L25.466 40.2804L19.001 35.0422Z" fill="#E1C5B5"/>
<path d="M42.001 132L43.501 140.928H34.5918L36.001 132H42.001Z" fill="#CEAC98"/>
<path d="M32.501 86.9299L33.501 101.472L36.001 132L42.001 132.472L45.001 86.9299H32.501Z" fill="#CEAC98"/>
<path d="M43.3108 39.8443L53.1648 74.3499L58.4876 73.1521L49.002 35.4722L43.3108 39.8443Z" fill="#E1C5B5"/>
<path d="M58.4809 73.1004L59.7594 78.4685L57.382 86.7781L54.0771 85.4997L55.5879 78.1561L55.5199 80.4967L52.6443 78.8718L53.179 74.3795L58.4809 73.1004Z" fill="#E1C5B5"/>
<path d="M19.001 145.844L22.322 148.353H28.3685L30.501 136H21.001L19.001 145.844Z" fill="#E1C5B5"/>
<path d="M27.907 29.3126H32.8143L38.1 22.5169L37.1552 7.98044L27.7279 6.40564L21.8682 8.73609L22.0574 22.5169L27.907 29.3126Z" fill="#E1C5B5"/>
<path d="M4.00098 68L1.38158 74.7909L1.79088 83.9131L5.30249 82.6055L5.56571 74.8558L5.42 77.1956L8.53807 76.9178L8.00098 71L4.00098 68Z" fill="#E1C5B5"/>
<path d="M18.0073 40.9896L7.46948 71.9655L3.19425 70.1579L13.0436 37.6966L18.0073 40.9896Z" fill="#E1C5B5"/>
<path d="M26.001 5.8051L27.001 1.5L41.001 3.5L42.001 15.7289L37.5542 16L34.0737 8.8269L27.6114 7.88022L26.001 5.8051Z" fill="#7C705A"/>
<path d="M28.001 7.5L24.2059 9.53801L23.5081 16.296L18.001 17L18.6334 1.5994L27.001 0L28.001 7.5Z" fill="#7C705A"/>
<path d="M37.001 13L40.5823 13.0597L40.8618 19.303L37.2042 19.1125L37.001 13Z" fill="#E1C5B5"/>
<path d="M22.6204 13.8496L19.001 14.8339L19.2803 20.0688L22.4808 20.1933L22.6204 13.8496Z" fill="#E1C5B5"/>
<path d="M18.001 66.5V42.0422L13.001 37.5422L22.501 33.5422L39.001 32.5422L49.001 35.5422L44.001 40.5422L43.501 66.5H18.001Z" fill="#E1C5B5"/>
<path d="M32.001 86.5545L30.6323 135.93L21.001 136.472L16.001 76.5" fill="#E1C5B5"/>
<path d="M15.001 101L16.501 66.5H44.501L46.001 89L32.2891 81.3711L33.501 101H15.001Z" fill="#4F83A3"/>
<path d="M33.001 97L32.001 81L46.001 89L47.001 97.5L33.001 97Z" fill="#366387"/>
</svg>
