<svg width="52" height="200" viewBox="0 0 52 200" fill="none" xmlns="http://www.w3.org/2000/svg">
<path d="M39.5918 78L38.5918 65.5H13.5918L12.5918 78H39.5918Z" fill="#AA8B7E"/>
<path d="M35.0512 173.604L36.2451 182.33L27.736 182.112L27.0883 172.734L35.0512 173.604Z" fill="#FCD157"/>
<path d="M28.918 186.936L27.2035 199.612H20.4851L19.5072 196.832L21.2598 185.33L28.918 186.936Z" fill="#FCD157"/>
<path d="M23.1394 25.4051H28.5877L34.4424 17.8676L33.4009 1.74625L22.9488 0L16.4464 2.58319L16.6497 17.8676L23.1394 25.4051Z" fill="#AA8B7E"/>
<path d="M17.0557 29.9352L20.6499 27.5361L23.266 20.1206L29.3112 21.844L31.2289 26.5544L35.3691 28.6271L26.3522 43.1838L17.0557 29.9352Z" fill="#AA8B7E"/>
<path d="M33.7944 8.40869L37.3757 8.46838L37.668 14.7117L34.0104 14.5212L33.7944 8.40869Z" fill="#AA8B7E"/>
<path d="M16.916 9.2583L13.2965 10.2426L13.5886 15.4775L16.789 15.602L16.916 9.2583Z" fill="#AA8B7E"/>
<path d="M40.9697 78.3552L35.0515 173.604H28.1807L26.6568 91.2216L30.2002 128.007L28.8285 187.018L21.3102 185.381L17.3857 128.318L12.255 79.008L40.9697 78.3552Z" fill="#AA8B7E"/>
<path d="M27.3424 91.0946L30.7967 130.607L29.1711 173.615L35.9276 160.824L39.1914 102.786L27.3424 91.0946Z" fill="#72594B"/>
<path d="M2.97157 73.2232L-0.000187874 80.5485L0.57125 90.6984L3.93678 89.4055L4.62263 80.8356L4.34327 83.4187L7.39114 83.5546L6.28625 76.5074L13.9062 44.4653L7.95002 43.4696L2.97157 73.2232Z" fill="#AA8B7E"/>
<path d="M48.8312 73.2574L51.0918 79.2632L50.8886 88.6333L47.2057 88.1494L46.4563 79.582L46.7611 82.1639L43.5861 82.6008L44.653 75.1802L39.9539 42.4891L44.7291 41.543L48.8312 73.2574Z" fill="#AA8B7E"/>
<path d="M32.3713 27.192L43.4457 31.8974L44.9316 43.1826L40.0929 43.4683L39.3055 40.9601L41.0454 65.8447L12.2546 66.5L14.6549 41.2763L13.9055 44.4653L7.94925 43.4683L9.63829 34.2964L20.23 27.8638L32.3713 27.192Z" fill="#FCD157"/>
<path d="M42.0918 110.5L40.5918 73H12.5918L11.0918 95.5L24.8037 87.8711L23.5918 110.5H42.0918Z" fill="#AE2025"/>
<path d="M24.0918 108L25.0918 87.5L11.0918 95.5L10.0918 108.5L24.0918 108Z" fill="#720E1A"/>
</svg>
