<svg width="64" height="154" viewBox="0 0 64 154" fill="none" xmlns="http://www.w3.org/2000/svg">
<path d="M41.3164 33.0422L34.6558 29.2342L32.2974 22.5476L26.8466 24.1008L25.1181 28.3502L16.8164 32.0422L23.7414 37.9845L34.8514 38.2804L41.3164 33.0422Z" fill="#E1C5B5"/>
<path d="M17.87 138.327L16.7867 146.195H26.3164L25.7256 138L17.87 138.327Z" fill="#CEAC98"/>
<path d="M28.8164 93.5422L30.1851 142.918L39.3164 141.542L44.3164 79.0422" fill="#E1C5B5"/>
<path d="M27.3164 94.5422L26.8164 107.542L25.6316 138.052L18.3164 138.542L14.3164 79.0422L27.3164 94.5422Z" fill="#CEAC98"/>
<path d="M17.0065 37.9144L7.15255 72.4199L1.82983 71.2222L11.3154 33.5422L17.0065 37.9144Z" fill="#E1C5B5"/>
<path d="M1.83651 71.1004L0.557996 76.4685L2.93542 84.7781L6.24032 83.4997L4.7295 76.1561L4.79749 78.4967L7.67306 76.8718L7.13837 72.3795L1.83651 71.1004Z" fill="#E1C5B5"/>
<path d="M41.3164 150.914L37.9953 153.423H31.9489L30.402 141.991L39.7416 140.542L41.3164 150.914Z" fill="#E1C5B5"/>
<path d="M59.639 70.173L61.9358 76.7709L61.5265 85.893L58.0149 84.5854L57.7517 76.8358L57.8974 79.1756L54.7793 78.8978L55.1852 73.5475L59.639 70.173Z" fill="#E1C5B5"/>
<path d="M41.8164 39.5422L55.1962 73.5923L60.0561 71.3613L47.4117 35.619L41.8164 39.5422Z" fill="#E1C5B5"/>
<path d="M44.3164 79.0422L43.3164 69.5422H15.8164L14.3164 79.0422L26.3164 94.5422H29.8164L44.3164 79.0422Z" fill="#F8BB1C"/>
<path d="M42.3164 69.5422V40.0422L47.3164 35.5422L37.8164 31.5422L21.3164 30.5422L11.3164 33.5422L16.3164 38.5422L16.8164 69.5422H42.3164Z" fill="#E1C5B5"/>
<path d="M43.8164 39.5422H21.3164H14.8164L14.8195 39.5971L16.3164 54.0422H42.3164L43.8164 39.5422Z" fill="#F8BB1C"/>
<path d="M21.3164 30.0422V39.5422H14.8164L14.3164 32.5422L21.3164 30.0422Z" fill="#F8BB1C"/>
<path d="M44.3164 34.0422L43.8164 39.5422H36.3164L36.8164 30.5422L44.3164 34.0422Z" fill="#F8BB1C"/>
<path fill-rule="evenodd" clip-rule="evenodd" d="M30.8457 0.152344L20.0928 3.5459L14.1143 33.0195L21 41H38L43.7461 35.7734L42.6895 5.39746L30.835 0L30.8457 0.152344Z" fill="#2A2B2A"/>
</svg>
