<?xml version="1.0" encoding="UTF-8" standalone="no"?>
<!DOCTYPE svg PUBLIC "-//W3C//DTD SVG 1.1//EN" "http://www.w3.org/Graphics/SVG/1.1/DTD/svg11.dtd">
<svg width="100%" height="100%" viewBox="0 0 140 220" version="1.1" xmlns="http://www.w3.org/2000/svg" xmlns:xlink="http://www.w3.org/1999/xlink" xml:space="preserve" xmlns:serif="http://www.serif.com/" style="fill-rule:evenodd;clip-rule:evenodd;stroke-linejoin:round;stroke-miterlimit:2;">
    <g id="people-14" transform="matrix(1.27,0,0,1.27,-2619.54,-84.8)">
        <g transform="matrix(1,0,0,1,0,-12)">
            <path d="M2123.98,231.021L2124.93,237.892L2118.23,237.72L2117.71,230.336L2123.98,231.021Z" style="fill:rgb(42,43,42);fill-rule:nonzero;"/>
        </g>
        <g transform="matrix(1,0,0,1,0,-12)">
            <path d="M2111.75,249.311L2112.52,251.5L2117.8,251.5L2119.15,241.519L2113.12,240.253L2111.75,249.311Z" style="fill:rgb(42,43,42);fill-rule:nonzero;"/>
        </g>
        <g transform="matrix(1,0,0,1,0,-12)">
            <path d="M2109.82,130.405L2112.65,128.516L2114.71,122.677L2119.47,124.034L2120.98,127.743L2124.24,129.375L2117.14,140.837L2109.82,130.405Z" style="fill:rgb(206,171,151);fill-rule:nonzero;"/>
        </g>
        <g transform="matrix(1,0,0,1,0,-12)">
            <path d="M2112.11,126.839L2121.39,126.839L2126.01,120.904L2122.69,108.21L2114.45,106.835L2109.34,108.869L2107,120.904L2112.11,126.839Z" style="fill:rgb(225,197,181);fill-rule:nonzero;"/>
        </g>
        <g transform="matrix(1,0,0,1,0,-12)">
            <path d="M2123,113.456L2125.82,113.503L2126.04,118.419L2123.16,118.269L2123,113.456Z" style="fill:rgb(225,197,181);fill-rule:nonzero;"/>
        </g>
        <g transform="matrix(1,0,0,1,0,-12)">
            <path d="M2109.71,114.125L2106.86,114.9L2107.08,119.022L2109.6,119.12L2109.71,114.125Z" style="fill:rgb(225,197,181);fill-rule:nonzero;"/>
        </g>
        <g transform="matrix(1,0,0,1,0,-12)">
            <path d="M2133.65,168.531L2123.99,231.02L2118.57,231.02L2117.37,178.662L2120.17,202.622L2119.09,241.582L2113.17,240.294L2107.57,202.867L2101.04,169.045L2133.65,168.531Z" style="fill:rgb(49,49,86);fill-rule:nonzero;"/>
        </g>
        <g transform="matrix(1,0,0,1,0,-12)">
            <path d="M2117.92,178.563L2120.64,204.67L2119.36,231.029L2124.67,220.959L2127.25,185.268L2117.92,178.563Z" style="fill:rgb(23,24,23);fill-opacity:0.25;fill-rule:nonzero;"/>
        </g>
        <g transform="matrix(1,0,0,1,0,-12)">
            <path d="M2092.98,164.49L2090.63,170.258L2091.83,178.25L2094.49,177.232L2095.03,170.484L2094.81,172.518L2097.21,172.625L2096.34,167.076L2092.98,164.49Z" style="fill:rgb(225,197,181);fill-rule:nonzero;"/>
        </g>
        <g transform="matrix(1,0,0,1,0,-12)">
            <path d="M2143.09,164.768L2144.86,169.247L2143.96,176.625L2141.06,176.244L2140.47,169.498L2140.7,171.531L2138.21,171.875L2139.05,166.282L2143.09,164.768Z" style="fill:rgb(225,197,181);fill-rule:nonzero;"/>
        </g>
        <g transform="matrix(1,0,0,1,0,-12)">
            <path d="M2124.37,129.246L2130.6,131.951L2143.3,165.61L2138.95,166.211L2129.83,144.087L2133.71,168.529L2101.04,169.045L2105.43,144.336L2096.4,167.155L2092.35,165.696L2103.98,133.84L2109.82,130.275L2118.19,133.777L2124.37,129.246Z" style="fill:rgb(228,226,220);fill-rule:nonzero;"/>
        </g>
    </g>
</svg>
