<?xml version="1.0" encoding="UTF-8" standalone="no"?>
<!DOCTYPE svg PUBLIC "-//W3C//DTD SVG 1.1//EN" "http://www.w3.org/Graphics/SVG/1.1/DTD/svg11.dtd">
<svg width="100%" height="100%" viewBox="0 0 140 220" version="1.1" xmlns="http://www.w3.org/2000/svg" xmlns:xlink="http://www.w3.org/1999/xlink" xml:space="preserve" xmlns:serif="http://www.serif.com/" style="fill-rule:evenodd;clip-rule:evenodd;stroke-linejoin:round;stroke-miterlimit:2;">
    <g id="people-24" transform="matrix(1.27,0,0,1.27,-887.73,-84.8)">
        <g transform="matrix(1,0,0,1,0,-12)">
            <path d="M768,104.563L763.813,105.25L762.688,95.75L767.313,89.75L773.375,91.188L779.813,87.876L783.063,94.875L789.812,97.626L786.75,106.188L782.75,105.188" style="fill:rgb(42,43,42);fill-rule:nonzero;"/>
        </g>
        <g transform="matrix(1,0,0,1,0,-12)">
            <path d="M731.686,197.437L735.647,198.832L755.561,163.068L751.771,160.969L731.686,197.437Z" style="fill:rgb(193,190,186);fill-rule:nonzero;"/>
        </g>
        <g transform="matrix(1,0,0,1,0,-12)">
            <path d="M767.588,231.521L766.645,238.392L773.342,238.22L773.858,230.836L767.588,231.521Z" style="fill:rgb(42,43,42);fill-rule:nonzero;"/>
        </g>
        <g transform="matrix(1,0,0,1,0,-12)">
            <path d="M772.418,242.019L773.771,252L779.051,252L779.824,249.81L778.447,240.753L772.418,242.019Z" style="fill:rgb(42,43,42);fill-rule:nonzero;"/>
        </g>
        <g transform="matrix(1,0,0,1,0,-12)">
            <path d="M781.756,120.905L778.922,119.016L776.861,113.177L772.104,114.534L770.594,118.243L767.332,119.875L774.435,131.337L781.756,120.905Z" style="fill:rgb(170,139,126);fill-rule:nonzero;"/>
        </g>
        <g transform="matrix(1,0,0,1,0,-12)">
            <path d="M776.963,117.339L772.677,117.339L768.061,111.404L768.885,98.71L770.647,97.248L779.369,97.335L782.236,99.369L782.07,111.404L776.963,117.339Z" style="fill:rgb(206,171,151);fill-rule:nonzero;"/>
        </g>
        <g transform="matrix(1,0,0,1,0,-12)">
            <path d="M768.576,103.956L765.754,104.003L765.531,108.919L768.41,108.769L768.576,103.956Z" style="fill:rgb(206,171,151);fill-rule:nonzero;"/>
        </g>
        <g transform="matrix(1,0,0,1,0,-12)">
            <path d="M781.864,104.625L784.712,105.4L784.488,109.522L781.97,109.62L781.864,104.625Z" style="fill:rgb(206,171,151);fill-rule:nonzero;"/>
        </g>
        <g transform="matrix(1,0,0,1,0,-12)">
            <path d="M762.927,161.531L767.588,231.52L772.998,231.52L774.199,171.662L771.405,200.622L772.483,242.082L778.406,240.794L781.5,200.867L785.533,162.045L762.927,161.531Z" style="fill:rgb(92,94,95);fill-rule:nonzero;"/>
        </g>
        <g transform="matrix(1,0,0,1,0,-12)">
            <path d="M773.654,171.563L770.935,202.67L772.217,231.529L766.9,221.459L764.324,180.768L773.654,171.563Z" style="fill:rgb(23,24,23);fill-opacity:0.5;fill-rule:nonzero;"/>
        </g>
        <g transform="matrix(1,0,0,1,0,-12)">
            <path d="M792.841,157.49L795.19,163.258L794.738,171.25L792.085,170.232L791.544,163.484L791.764,165.518L789.364,165.625L790.237,160.076L792.841,157.49Z" style="fill:rgb(206,171,151);fill-rule:nonzero;"/>
        </g>
        <g transform="matrix(1,0,0,1,0,-12)">
            <path d="M751.443,155.976L749.667,160.455L749.824,167.833L752.723,167.452L753.311,160.706L753.078,162.739L755.573,163.083L754.736,157.49L751.443,155.976Z" style="fill:rgb(206,171,151);fill-rule:nonzero;"/>
        </g>
        <g transform="matrix(1,0,0,1,0,-12)">
            <path d="M767.201,119.746L760.976,122.451L751.14,156.766L754.73,157.501L764.238,127.087L762.865,161.529L785.533,162.045L783.644,129.836L790.17,160.155L793.476,158.696L787.595,124.34L781.756,120.775L773.385,120.277L767.201,119.746Z" style="fill:rgb(239,156,116);fill-rule:nonzero;"/>
        </g>
        <g transform="matrix(1,0,0,1,0,-12)">
            <path d="M767.578,231.516L772.25,231.5L770.922,201.422L771.687,195.75L765.187,195.25L767.578,231.516Z" style="fill:rgb(170,139,126);fill-rule:nonzero;"/>
        </g>
        <g transform="matrix(1,0,0,1,0,-12)">
            <path d="M771.531,195.734L770.906,201.468L772.437,242.093L778.427,240.791L782.002,195.827L771.531,195.734Z" style="fill:rgb(206,171,151);fill-rule:nonzero;"/>
        </g>
        <g transform="matrix(1,0,0,1,0,-12)">
            <path d="M753.48,214.648L752.959,247.156L747.569,247.147L747.132,223.48L753.48,214.648Z" style="fill:rgb(42,43,42);fill-rule:nonzero;"/>
        </g>
        <g transform="matrix(1,0,0,1,0,-12)">
            <path d="M747.25,230.022L753.157,236.897L752.974,247.216L747.469,247.219L747.25,230.022Z" style="fill:rgb(206,173,128);fill-rule:nonzero;"/>
        </g>
        <g transform="matrix(1,0,0,1,0,-12)">
            <path d="M732.411,225.136L732.803,247.216L738.851,247.216L738.76,226.056L732.411,225.136Z" style="fill:rgb(42,43,42);fill-rule:nonzero;"/>
        </g>
        <g transform="matrix(1,0,0,1,0,-12)">
            <path d="M718.703,192.2L723.304,252L729.069,252L729.806,228.079L736.921,228.079L738.023,252L744.096,252L745.752,229.183L753.479,214.648L748.327,198.089L736.735,191.832L718.703,192.2Z" style="fill:rgb(206,173,128);fill-rule:nonzero;"/>
        </g>
        <g transform="matrix(1,0,0,1,0,-12)">
            <path d="M736.827,191.831L737.012,212.164L729.369,219.812L720.119,210.656L718.611,192.199L736.827,191.831Z" style="fill:rgb(246,241,225);fill-rule:nonzero;"/>
        </g>
        <g transform="matrix(1,0,0,1,0,-12)">
            <path d="M718.91,184.448L713.046,175.417L715.214,171.251L723.694,175.984L718.91,184.448Z" style="fill:rgb(42,43,42);fill-rule:nonzero;"/>
        </g>
        <g transform="matrix(1,0,0,1,0,-12)">
            <path d="M736.345,184.609L742.713,174.916L740.13,171.417L731.79,176.007L736.345,184.609Z" style="fill:rgb(42,43,42);fill-rule:nonzero;"/>
        </g>
        <g transform="matrix(1,0,0,1,0,-12)">
            <path d="M731.951,176.008L738.943,189.623L730.088,198.375L724.713,198.313L716.088,189.688L723.579,176.008L731.951,176.008Z" style="fill:rgb(206,173,128);fill-rule:nonzero;"/>
        </g>
        <g transform="matrix(1,0,0,1,0,-12)">
            <path d="M732.213,188.25L730.088,198.375L724.713,198.313L722.463,188.375L732.213,188.25Z" style="fill:rgb(42,43,42);fill-rule:nonzero;"/>
        </g>
    </g>
</svg>
