<?xml version="1.0" encoding="UTF-8" standalone="no"?>
<!DOCTYPE svg PUBLIC "-//W3C//DTD SVG 1.1//EN" "http://www.w3.org/Graphics/SVG/1.1/DTD/svg11.dtd">
<svg width="100%" height="100%" viewBox="0 0 140 220" version="1.1" xmlns="http://www.w3.org/2000/svg" xmlns:xlink="http://www.w3.org/1999/xlink" xml:space="preserve" xmlns:serif="http://www.serif.com/" style="fill-rule:evenodd;clip-rule:evenodd;stroke-linejoin:round;stroke-miterlimit:2;">
    <g id="people-21" transform="matrix(1.27,0,0,1.27,-583.094,-84.8)">
        <g transform="matrix(1,0,0,1,0,-12)">
            <path d="M510.254,239.081L509.658,243.415L513.882,243.307L514.208,238.648L510.254,239.081Z" style="fill:rgb(255,238,204);fill-rule:nonzero;"/>
        </g>
        <g transform="matrix(1,0,0,1,0,-12)">
            <path d="M513.301,245.703L514.153,252L517.485,252L517.973,250.619L517.106,244.905L513.301,245.703Z" style="fill:rgb(255,238,204);fill-rule:nonzero;"/>
        </g>
        <g transform="matrix(1,0,0,1,0,-12)">
            <path d="M525.324,204.63L526.057,208.534L525.048,213.521L523.227,212.499L523.748,208.21L523.627,209.511L521.935,209.09L523.363,205.914L525.324,204.63Z" style="fill:rgb(225,197,181);fill-rule:nonzero;"/>
        </g>
        <g transform="matrix(1,0,0,1,0,-12)">
            <path d="M520.311,187.98L523.328,206.206L525.486,205.396L522.795,184.831L520.311,187.98Z" style="fill:rgb(225,197,181);fill-rule:nonzero;"/>
        </g>
        <g transform="matrix(1,0,0,1,0,-12)">
            <path d="M503.17,203.255L502.437,207.159L503.446,212.146L505.267,211.124L504.746,206.835L504.867,208.136L506.559,207.715L505.131,204.539L503.17,203.255Z" style="fill:rgb(225,197,181);fill-rule:nonzero;"/>
        </g>
        <g transform="matrix(1,0,0,1,0,-12)">
            <path d="M508.183,186.605L505.166,204.831L503.008,204.021L505.699,183.456L508.183,186.605Z" style="fill:rgb(225,197,181);fill-rule:nonzero;"/>
        </g>
        <g transform="matrix(1,0,0,1,0,-12)">
            <path d="M514.099,212.865L513.45,245.689L517.078,244.931L520.275,212.756" style="fill:rgb(225,197,181);fill-rule:nonzero;"/>
        </g>
        <g transform="matrix(1,0,0,1,0,-12)">
            <path d="M514.208,201.273L514.099,215.139L513.584,238.81L510.254,239.081L508.629,214.991L514.208,201.273Z" style="fill:rgb(206,171,151);fill-rule:nonzero;"/>
        </g>
        <g transform="matrix(1,0,0,1,0,-12)">
            <path d="M505.727,183.403L509.781,181.73L511.397,185.714L517.123,185.881L519.048,182.329L522.737,184.862L520.26,188.135L519.953,198.369L525.077,230.467L503.857,230.632L508.754,198.723L507.82,186.375L505.727,183.403Z" style="fill:rgb(255,238,204);fill-rule:nonzero;"/>
        </g>
        <g transform="matrix(1,0,0,1,0,-12)">
            <path d="M521.778,191.072L519.894,167.208L514.5,165.028L514.504,164.95L508.557,167.658L507.709,190.861L510.416,192.931L519.483,193.25L521.778,191.072Z" style="fill:rgb(84,62,54);fill-rule:nonzero;"/>
        </g>
    </g>
</svg>
