<svg width="52" height="180" viewBox="0 0 52 180" fill="none" xmlns="http://www.w3.org/2000/svg">
<path d="M16.2256 37.3249L22.3191 34.9271L35.5588 34.4115L33.0505 23.8298L16.9368 23.5339L16.2256 37.3249Z" fill="#2A2B2A"/>
<path d="M14 36.5L20.6606 32.6919L23.019 26.0054L28.4698 27.5586L30.1983 31.808L38.5 35.5L31.575 41.4422L20.465 41.7381L14 36.5Z" fill="#72594B"/>
<path d="M34.9097 155.796L35.993 163.663L27.0534 163.466L26.4629 155.011L34.9097 155.796Z" fill="#2A2B2A"/>
<path d="M26.661 108.207L27.8409 167.792L18.7096 166.417L12.9082 108.01" fill="#72594B"/>
<path d="M26.4629 87.1648L26.661 112.335L27.5957 155.305L34.9109 155.796L37.8624 112.066L26.4629 87.1648Z" fill="#553F37"/>
<path d="M38 41.5L45.4606 76.6009L50.853 75.7716L44 37L38 41.5Z" fill="#72594B"/>
<path d="M50.8549 75.6497L51.7617 81.0929L48.8191 89.2196L45.6098 87.7172L47.6215 80.4947L47.3929 82.8252L44.6357 81.0065L45.4777 76.5615L50.8549 75.6497Z" fill="#72594B"/>
<path d="M17.1934 176.739L20.5144 179.247H26.5609L28.1077 167.816L18.7682 166.367L17.1934 176.739Z" fill="#2A2B2A"/>
<path d="M22.906 30.7704H27.8133L33.0991 23.9746L32.1542 9.4382L22.727 7.8634L16.8672 10.1939L17.0564 23.9746L22.906 30.7704Z" fill="#72594B"/>
<path d="M1.25095 75.0273L0 81.9006L1.81227 90.8503L5.08 89.0164L4.14401 81.3189L4.36117 83.6532L7.39901 82.8975L6.1722 77.674L1.25095 75.0273Z" fill="#72594B"/>
<path d="M14 43.5L6.16946 77.7198L1.02344 76.2656L8 39L14 43.5Z" fill="#72594B"/>
<path d="M9 112.5L11.5 73H39.5L45 112.5H9Z" fill="#AE2025"/>
<path d="M13 73V43.5L8 39L17.5 35L34 34L44 37L39 42L38.5 73H13Z" fill="#72594B"/>
<path d="M11.5 43H34H40.5L40.497 43.0548L39 68H13L11.5 43Z" fill="#AE2025"/>
<path d="M24.089 9.59694L17.7111 11.9934L16.9643 40.1824L6 24.5V6.5L24.089 0.5V9.59694Z" fill="#2A2B2A"/>
<path d="M23.9805 0.5L40.5 2L45 26.5L35 41.5L34.7221 33.8705L32.8286 24.3086L30.4613 12.2424L23.9805 9.59695V0.5Z" fill="#2A2B2A"/>
<path d="M34 33.5V43H40.5L41 36L34 33.5Z" fill="#AE2025"/>
<path d="M11 37.5L11.5 43H19L18.5 34L11 37.5Z" fill="#AE2025"/>
</svg>
