<?xml version="1.0" encoding="UTF-8" standalone="no"?>
<!DOCTYPE svg PUBLIC "-//W3C//DTD SVG 1.1//EN" "http://www.w3.org/Graphics/SVG/1.1/DTD/svg11.dtd">
<svg width="100%" height="100%" viewBox="0 0 140 220" version="1.1" xmlns="http://www.w3.org/2000/svg" xmlns:xlink="http://www.w3.org/1999/xlink" xml:space="preserve" xmlns:serif="http://www.serif.com/" style="fill-rule:evenodd;clip-rule:evenodd;stroke-linejoin:round;stroke-miterlimit:2;">
    <g id="people-10" transform="matrix(1.27,0,0,1.27,-2335.25,-84.8)">
        <g transform="matrix(1,0,0,1,0,-12)">
            <path d="M1908.4,169.33L1909.43,174.849L1908.01,181.895L1905.43,180.451L1906.17,174.391L1906,176.228L1903.61,175.634L1905.62,171.145L1908.4,169.33Z" style="fill:rgb(225,197,181);fill-rule:nonzero;"/>
        </g>
        <g transform="matrix(1,0,0,1,0,-12)">
            <path d="M1886.95,233.034L1886.1,239.229L1892.14,239.074L1892.6,232.416L1886.95,233.034Z" style="fill:rgb(174,31,37);fill-rule:nonzero;"/>
        </g>
        <g transform="matrix(1,0,0,1,0,-12)">
            <path d="M1891.31,242.499L1892.53,251.5L1897.29,251.5L1897.98,249.525L1896.74,241.359L1891.31,242.499Z" style="fill:rgb(174,31,37);fill-rule:nonzero;"/>
        </g>
        <g transform="matrix(1,0,0,1,0,-12)">
            <path d="M1901.31,145.798L1905.58,171.557L1908.62,170.412L1904.82,141.347L1901.31,145.798Z" style="fill:rgb(225,197,181);fill-rule:nonzero;"/>
        </g>
        <g transform="matrix(1,0,0,1,0,-12)">
            <path d="M1892.45,195.563L1891.52,242.48L1896.7,241.397L1901.27,195.408" style="fill:rgb(225,197,181);fill-rule:nonzero;"/>
        </g>
        <g transform="matrix(1,0,0,1,0,-12)">
            <path d="M1892.6,178.994L1892.45,198.813L1891.71,232.648L1886.95,233.034L1884.63,198.601L1892.6,178.994Z" style="fill:rgb(206,171,151);fill-rule:nonzero;"/>
        </g>
        <g transform="matrix(1,0,0,1,0,-12)">
            <path d="M1883.89,143.344L1882.68,170.611L1879.39,170.373L1880.95,139.25L1883.89,143.344Z" style="fill:rgb(225,197,181);fill-rule:nonzero;"/>
        </g>
        <g transform="matrix(1,0,0,1,0,-12)">
            <path d="M1879.38,170.277L1879.09,174.612L1882.01,180.756L1884.41,179.333L1882.29,173.827L1882.64,175.636L1884.66,174L1882.63,170.674L1879.38,170.277Z" style="fill:rgb(225,197,181);fill-rule:nonzero;"/>
        </g>
        <g transform="matrix(1,0,0,1,0,-12)">
            <path d="M1880.99,139.198L1886.69,136.846L1888.97,142.449L1897.02,142.682L1899.72,137.688L1904.91,141.251L1906.72,155.844L1903.12,156.531L1901.43,145.856L1901,160.25L1908.2,205.4L1878.36,205.633L1885.25,160.75L1883.93,143.379L1883.31,156.125L1880.16,156L1880.99,139.198Z" style="fill:rgb(174,31,37);fill-rule:nonzero;"/>
        </g>
        <g transform="matrix(1,0,0,1,0,-12)">
            <path d="M1904.29,154.083L1901.33,116.625L1892.87,113.204L1892.88,113.083L1883.54,117.333L1882.21,153.751L1886.46,157L1900.69,157.5L1904.29,154.083Z" style="fill:rgb(245,243,233);fill-rule:nonzero;"/>
        </g>
    </g>
</svg>
