<?xml version="1.0" encoding="UTF-8" standalone="no"?>
<!DOCTYPE svg PUBLIC "-//W3C//DTD SVG 1.1//EN" "http://www.w3.org/Graphics/SVG/1.1/DTD/svg11.dtd">
<svg width="100%" height="100%" viewBox="0 0 140 220" version="1.1" xmlns="http://www.w3.org/2000/svg" xmlns:xlink="http://www.w3.org/1999/xlink" xml:space="preserve" xmlns:serif="http://www.serif.com/" style="fill-rule:evenodd;clip-rule:evenodd;stroke-linejoin:round;stroke-miterlimit:2;">
    <g id="people-26" transform="matrix(1.27,0,0,1.27,-1089.68,-84.8)">
        <g transform="matrix(1,0,0,1,0,-12)">
            <path d="M883.206,168.33L882.169,173.849L883.597,180.895L886.169,179.451L885.433,173.391L885.603,175.228L887.995,174.634L885.976,170.145L883.206,168.33Z" style="fill:rgb(225,197,181);fill-rule:nonzero;"/>
        </g>
        <g transform="matrix(1,0,0,1,0,-12)">
            <path d="M890.937,138.75L895.735,136.862L906.16,136.456L904.185,128.124L891.497,127.891L890.937,138.75Z" style="fill:rgb(84,62,54);fill-rule:nonzero;"/>
        </g>
        <g transform="matrix(1,0,0,1,0,-12)">
            <path d="M904.649,232.034L905.502,238.229L899.463,238.074L898.998,231.416L904.649,232.034Z" style="fill:rgb(42,43,42);fill-rule:nonzero;"/>
        </g>
        <g transform="matrix(1,0,0,1,0,-12)">
            <path d="M894.857,240.358L893.617,248.525L894.314,250.5L899.075,250.5L900.294,241.499L894.857,240.358Z" style="fill:rgb(42,43,42);fill-rule:nonzero;"/>
        </g>
        <g transform="matrix(1,0,0,1,0,-12)">
            <path d="M891.876,136.805L894.43,135.102L896.287,129.837L900.579,131.06L901.94,134.406L904.882,135.876L903.024,141.992L894.276,142.225L891.876,136.805Z" style="fill:rgb(206,171,151);fill-rule:nonzero;"/>
        </g>
        <g transform="matrix(1,0,0,1,0,-12)">
            <path d="M896.197,133.589L900.061,133.589L904.223,128.238L903.479,116.792L896.056,115.552L891.442,117.387L891.591,128.238L896.197,133.589Z" style="fill:rgb(225,197,181);fill-rule:nonzero;"/>
        </g>
        <g transform="matrix(1,0,0,1,0,-12)">
            <path d="M890.29,144.798L886.026,170.557L882.976,169.412L886.779,140.347L890.29,144.798Z" style="fill:rgb(225,197,181);fill-rule:nonzero;"/>
        </g>
        <g transform="matrix(1,0,0,1,0,-12)">
            <path d="M897.314,112.167L905.896,114.875L910.603,138.083L905.752,143.25L905.812,137.676L905.502,136.03L904.011,128.501L902.146,119L897.044,116.917L897.314,112.167Z" style="fill:rgb(84,62,54);fill-rule:nonzero;"/>
        </g>
        <g transform="matrix(1,0,0,1,0,-12)">
            <path d="M897.13,116.917L892.108,118.804L891.52,141L887.272,140.251L888.104,116.333L897.438,112.083L897.13,116.917Z" style="fill:rgb(84,62,54);fill-rule:nonzero;"/>
        </g>
        <g transform="matrix(1,0,0,1,0,-12)">
            <path d="M899.154,194.563L900.083,241.48L894.895,240.397L890.327,194.408" style="fill:rgb(225,197,181);fill-rule:nonzero;"/>
        </g>
        <g transform="matrix(1,0,0,1,0,-12)">
            <path d="M898.998,177.994L899.154,197.813L899.89,231.648L904.649,232.034L906.973,197.601L898.998,177.994Z" style="fill:rgb(206,171,151);fill-rule:nonzero;"/>
        </g>
        <g transform="matrix(1,0,0,1,0,-12)">
            <path d="M910.612,138.198L904.911,135.846L902.637,141.449L894.585,141.682L891.876,136.688L886.687,140.251L890.172,144.856L890.605,159.25L883.397,207.408L913.244,207.64L906.355,159.75L907.669,142.379L910.612,138.198Z" style="fill:rgb(92,94,95);fill-rule:nonzero;"/>
        </g>
        <g transform="matrix(1,0,0,1,0,-12)">
            <path d="M907.709,142.344L908.923,169.611L912.211,169.373L910.647,138.25L907.709,142.344Z" style="fill:rgb(225,197,181);fill-rule:nonzero;"/>
        </g>
        <g transform="matrix(1,0,0,1,0,-12)">
            <path d="M912.221,169.277L912.516,173.612L909.588,179.756L907.188,178.333L909.317,172.827L908.959,174.636L906.938,173L908.975,169.674L912.221,169.277Z" style="fill:rgb(225,197,181);fill-rule:nonzero;"/>
        </g>
        <g transform="matrix(1,0,0,1,0,-12)">
            <path d="M932.234,165.318L929.499,162.788L932.421,160.618L935.084,165.312L932.234,165.318Z" style="fill:rgb(174,32,37);fill-rule:nonzero;"/>
        </g>
        <g transform="matrix(1,0,0,1,0,-12)">
            <path d="M938.691,168.434L935.032,165.297L928.691,165.267L924.108,169.797L925.231,184.495L928.234,184.112L928.615,183.41L930.674,182.571L934.354,183.104L936.343,184.189L938.884,184.036L938.691,168.434Z" style="fill:rgb(42,43,42);fill-rule:nonzero;"/>
        </g>
        <g transform="matrix(1,0,0,1,0,-12)">
            <path d="M927.721,180.863L929.405,179.741L930.629,176.273L933.455,177.079L934.352,179.282L936.289,180.251L936.806,191.12L932.071,198.94L927.721,180.863Z" style="fill:rgb(206,171,151);fill-rule:nonzero;"/>
        </g>
        <g transform="matrix(1,0,0,1,0,-12)">
            <path d="M930.568,178.745L933.114,178.745L935.856,175.22L934.688,167.922L930.475,167.901L927.436,171.156L927.534,175.22L930.568,178.745Z" style="fill:rgb(225,197,181);fill-rule:nonzero;"/>
        </g>
        <g transform="matrix(1,0,0,1,0,-12)">
            <path d="M935.079,170.813L936.871,170.824L937.004,173.744L935.294,173.655L935.079,170.813Z" style="fill:rgb(225,197,181);fill-rule:nonzero;"/>
        </g>
        <g transform="matrix(1,0,0,1,0,-12)">
            <path d="M927.695,171.192L926.079,171.203L926.141,174.171L927.633,174.16L927.695,171.192Z" style="fill:rgb(225,197,181);fill-rule:nonzero;"/>
        </g>
        <g transform="matrix(1,0,0,1,0,-12)">
            <path d="M928.302,238.081L927.706,242.415L931.93,242.307L932.256,237.648L928.302,238.081Z" style="fill:rgb(42,43,42);fill-rule:nonzero;"/>
        </g>
        <g transform="matrix(1,0,0,1,0,-12)">
            <path d="M935.153,243.904L936.02,249.618L935.532,251L932.201,251L931.348,244.703L935.153,243.904Z" style="fill:rgb(42,43,42);fill-rule:nonzero;"/>
        </g>
        <g transform="matrix(1,0,0,1,0,-12)">
            <path d="M943.372,203.63L944.105,207.534L943.096,212.521L941.275,211.499L941.796,207.21L941.675,208.511L939.983,208.09L941.411,204.914L943.372,203.63Z" style="fill:rgb(225,197,181);fill-rule:nonzero;"/>
        </g>
        <g transform="matrix(1,0,0,1,0,-12)">
            <path d="M938.359,186.98L941.376,205.206L943.534,204.396L940.843,183.831L938.359,186.98Z" style="fill:rgb(225,197,181);fill-rule:nonzero;"/>
        </g>
        <g transform="matrix(1,0,0,1,0,-12)">
            <path d="M921.218,202.255L920.485,206.159L921.494,211.146L923.315,210.124L922.794,205.835L922.915,207.136L924.607,206.715L923.179,203.539L921.218,202.255Z" style="fill:rgb(225,197,181);fill-rule:nonzero;"/>
        </g>
        <g transform="matrix(1,0,0,1,0,-12)">
            <path d="M926.231,185.605L923.213,203.831L921.056,203.021L923.747,182.456L926.231,185.605Z" style="fill:rgb(225,197,181);fill-rule:nonzero;"/>
        </g>
        <g transform="matrix(1,0,0,1,0,-12)">
            <path d="M932.146,211.865L931.497,244.689L935.126,243.931L938.323,211.756" style="fill:rgb(225,197,181);fill-rule:nonzero;"/>
        </g>
        <g transform="matrix(1,0,0,1,0,-12)">
            <path d="M932.256,200.273L932.147,214.139L931.632,237.81L928.302,238.081L926.677,213.991L932.256,200.273Z" style="fill:rgb(206,171,151);fill-rule:nonzero;"/>
        </g>
        <g transform="matrix(1,0,0,1,0,-12)">
            <path d="M923.775,182.403L927.829,180.73L929.445,184.714L934.985,184.687L936.172,180.25L940.785,183.862L938.307,187.135L936.999,197.369L940.121,229.467L923.907,229.632L927.803,197.723L925.868,185.375L923.775,182.403Z" style="fill:rgb(174,32,37);fill-rule:nonzero;"/>
        </g>
        <g transform="matrix(1,0,0,1,0,-12)">
            <path d="M937.112,167.124L940.905,166.882L940.029,163.348L934.99,165.281" style="fill:rgb(174,32,37);fill-rule:nonzero;"/>
        </g>
    </g>
</svg>
