<?xml version="1.0" encoding="UTF-8" standalone="no"?>
<!DOCTYPE svg PUBLIC "-//W3C//DTD SVG 1.1//EN" "http://www.w3.org/Graphics/SVG/1.1/DTD/svg11.dtd">
<svg width="100%" height="100%" viewBox="0 0 140 220" version="1.1" xmlns="http://www.w3.org/2000/svg" xmlns:xlink="http://www.w3.org/1999/xlink" xml:space="preserve" xmlns:serif="http://www.serif.com/" style="fill-rule:evenodd;clip-rule:evenodd;stroke-linejoin:round;stroke-miterlimit:2;">
    <g id="people-02" transform="matrix(1.27,0,0,1.27,-1765.15,-84.8)">
        <g transform="matrix(1,0,0,1,0,-12)">
            <path d="M1452.48,231.021L1453.43,237.892L1446.73,237.72L1446.21,230.336L1452.48,231.021Z" style="fill:rgb(42,43,42);fill-rule:nonzero;"/>
        </g>
        <g transform="matrix(1,0,0,1,0,-12)">
            <path d="M1440.25,249.311L1441.02,251.5L1446.3,251.5L1447.65,241.519L1441.62,240.253L1440.25,249.311Z" style="fill:rgb(42,43,42);fill-rule:nonzero;"/>
        </g>
        <g transform="matrix(1,0,0,1,0,-12)">
            <path d="M1438.32,125.405L1441.15,123.516L1443.21,117.677L1447.97,119.034L1449.48,122.743L1452.74,124.375L1445.64,135.837L1438.32,125.405Z" style="fill:rgb(206,171,151);fill-rule:nonzero;"/>
        </g>
        <g transform="matrix(1,0,0,1,0,-12)">
            <path d="M1443.11,121.839L1447.39,121.839L1452.01,115.904L1451.19,103.21L1442.95,101.835L1437.84,103.869L1438,115.904L1443.11,121.839Z" style="fill:rgb(225,197,181);fill-rule:nonzero;"/>
        </g>
        <g transform="matrix(1,0,0,1,0,-12)">
            <path d="M1440.46,102.05L1440.89,100.332L1454.71,101.669L1455.86,111.495L1451.58,111.753L1448.23,104.926L1442.01,104.025L1440.46,102.05Z" style="fill:rgb(84,62,54);fill-rule:nonzero;"/>
        </g>
        <g transform="matrix(1,0,0,1,0,-12)">
            <path d="M1451.5,108.456L1454.32,108.503L1454.54,113.419L1451.66,113.269L1451.5,108.456Z" style="fill:rgb(225,197,181);fill-rule:nonzero;"/>
        </g>
        <g transform="matrix(1,0,0,1,0,-12)">
            <path d="M1442.05,104.024L1438.57,105.441L1437.93,111.623L1432.88,112.267L1433.46,104.125L1440.96,100.375L1442.05,104.024Z" style="fill:rgb(84,62,54);fill-rule:nonzero;"/>
        </g>
        <g transform="matrix(1,0,0,1,0,-12)">
            <path d="M1438.21,109.125L1435.36,109.9L1435.58,114.022L1438.1,114.12L1438.21,109.125Z" style="fill:rgb(225,197,181);fill-rule:nonzero;"/>
        </g>
        <g transform="matrix(1,0,0,1,0,-12)">
            <path d="M1457.15,163.531L1452.49,231.02L1447.08,231.02L1445.87,173.662L1448.67,200.122L1447.59,241.582L1441.67,240.294L1438.57,200.367L1434.54,164.045L1457.15,163.531Z" style="fill:rgb(92,94,95);fill-rule:nonzero;"/>
        </g>
        <g transform="matrix(1,0,0,1,0,-12)">
            <path d="M1446.42,173.563L1449.14,202.17L1447.86,231.029L1453.17,220.959L1455.75,182.768L1446.42,173.563Z" style="fill:rgb(23,24,23);fill-opacity:0.5;fill-rule:nonzero;"/>
        </g>
        <g transform="matrix(1,0,0,1,0,-12)">
            <path d="M1427.23,159.49L1424.88,165.258L1425.33,173.25L1427.99,172.232L1428.53,165.484L1428.31,167.518L1430.71,167.625L1429.84,162.076L1427.23,159.49Z" style="fill:rgb(225,197,181);fill-rule:nonzero;"/>
        </g>
        <g transform="matrix(1,0,0,1,0,-12)">
            <path d="M1463.34,159.768L1465.11,164.247L1464.96,171.625L1462.06,171.244L1461.47,164.498L1461.7,166.531L1459.21,166.875L1460.05,161.282L1463.34,159.768Z" style="fill:rgb(225,197,181);fill-rule:nonzero;"/>
        </g>
        <g transform="matrix(1,0,0,1,0,-12)">
            <path d="M1452.87,124.246L1459.1,126.951L1463.56,160.61L1459.95,161.211L1455.83,131.587L1457.21,163.529L1434.54,164.045L1436.43,134.336L1429.9,162.155L1426.6,160.696L1432.48,128.84L1438.32,125.275L1446.69,133.777L1452.87,124.246Z" style="fill:rgb(228,226,220);fill-rule:nonzero;"/>
        </g>
    </g>
</svg>
