<?xml version="1.0" encoding="UTF-8" standalone="no"?>
<!DOCTYPE svg PUBLIC "-//W3C//DTD SVG 1.1//EN" "http://www.w3.org/Graphics/SVG/1.1/DTD/svg11.dtd">
<svg width="100%" height="100%" viewBox="0 0 140 220" version="1.1" xmlns="http://www.w3.org/2000/svg" xmlns:xlink="http://www.w3.org/1999/xlink" xml:space="preserve" xmlns:serif="http://www.serif.com/" style="fill-rule:evenodd;clip-rule:evenodd;stroke-linejoin:round;stroke-miterlimit:2;">
    <g id="people-03" transform="matrix(1.27,0,0,1.27,-1841.22,-84.8)">
        <g transform="matrix(1,0,0,1,0,-12)">
            <path d="M1519.4,157.318L1520.43,162.837L1519.01,169.883L1516.43,168.439L1517.17,162.379L1517,164.216L1514.61,163.622L1516.62,159.133L1519.4,157.318Z" style="fill:rgb(225,197,181);fill-rule:nonzero;"/>
        </g>
        <g transform="matrix(1,0,0,1,0,-12)">
            <path d="M1497.95,233.034L1497.1,239.229L1503.14,239.074L1503.6,232.416L1497.95,233.034Z" style="fill:rgb(42,43,42);fill-rule:nonzero;"/>
        </g>
        <g transform="matrix(1,0,0,1,0,-12)">
            <path d="M1502.31,242.499L1503.53,251.5L1508.29,251.5L1508.98,249.525L1507.74,241.359L1502.31,242.499Z" style="fill:rgb(42,43,42);fill-rule:nonzero;"/>
        </g>
        <g transform="matrix(1,0,0,1,0,-12)">
            <path d="M1512.31,133.786L1516.58,159.545L1519.62,158.4L1515.82,129.335L1512.31,133.786Z" style="fill:rgb(225,197,181);fill-rule:nonzero;"/>
        </g>
        <g transform="matrix(1,0,0,1,0,-12)">
            <path d="M1503.45,183.551L1502.52,242.48L1507.7,241.397L1512.27,183.396" style="fill:rgb(225,197,181);fill-rule:nonzero;"/>
        </g>
        <g transform="matrix(1,0,0,1,0,-12)">
            <path d="M1503.6,166.982L1503.45,186.801L1502.71,232.648L1497.95,233.034L1495.63,186.589L1503.6,166.982Z" style="fill:rgb(206,171,151);fill-rule:nonzero;"/>
        </g>
        <g transform="matrix(1,0,0,1,0,-12)">
            <path d="M1494.89,131.332L1493.68,158.599L1490.39,158.361L1491.95,127.238L1494.89,131.332Z" style="fill:rgb(225,197,181);fill-rule:nonzero;"/>
        </g>
        <g transform="matrix(1,0,0,1,0,-12)">
            <path d="M1490.38,158.266L1490.09,162.601L1493.01,168.745L1495.41,167.322L1493.29,161.816L1493.64,163.625L1495.66,161.989L1493.63,158.663L1490.38,158.266Z" style="fill:rgb(225,197,181);fill-rule:nonzero;"/>
        </g>
        <g transform="matrix(1,0,0,1,0,-12)">
            <path d="M1491.99,127.186L1497.69,124.834L1499.96,130.438L1508.02,130.671L1510.72,125.676L1515.91,129.239L1512.43,133.844L1512,148.238L1519.2,205.401L1489.36,205.633L1496.25,148.738L1494.93,131.368L1491.99,127.186Z" style="fill:rgb(255,238,204);fill-rule:nonzero;"/>
        </g>
        <g transform="matrix(1,0,0,1,0,-12)">
            <path d="M1515.29,142.071L1512.33,104.613L1503.87,101.192L1503.88,101.071L1494.54,105.321L1493.21,141.739L1497.46,144.988L1511.69,145.488L1515.29,142.071Z" style="fill:rgb(84,62,54);fill-rule:nonzero;"/>
        </g>
    </g>
</svg>
