<svg width="61" height="149" viewBox="0 0 61 149" fill="none" xmlns="http://www.w3.org/2000/svg">
<path d="M41.3164 35.0422L34.6558 31.2342L32.2974 24.5476L26.8466 26.1008L25.1181 30.3502L16.8164 34.0422L23.7414 39.9845L34.8514 40.2804L41.3164 35.0422Z" fill="#E1C5B5"/>
<path d="M18.3164 132L16.8164 140.928H25.7256L24.3164 132H18.3164Z" fill="#CEAC98"/>
<path d="M27.8164 86.9299L26.8164 101.472L24.3164 132L18.3164 132.472L15.3164 86.9299H27.8164Z" fill="#CEAC98"/>
<path d="M17.0065 39.8443L7.15255 74.3499L1.82983 73.1521L11.3154 35.4722L17.0065 39.8443Z" fill="#E1C5B5"/>
<path d="M1.83651 73.1004L0.557996 78.4685L2.93542 86.7781L6.24032 85.4997L4.7295 78.1561L4.79749 80.4967L7.67306 78.8718L7.13837 74.3795L1.83651 73.1004Z" fill="#E1C5B5"/>
<path d="M41.3164 145.844L37.9953 148.353H31.9489L29.8164 136H39.3164L41.3164 145.844Z" fill="#E1C5B5"/>
<path d="M32.4104 29.3126H27.5031L22.2173 22.5169L23.1622 7.98044L32.5894 6.40564L38.4492 8.73609L38.26 22.5169L32.4104 29.3126Z" fill="#E1C5B5"/>
<path d="M56.3164 68L58.9358 74.7909L58.5265 83.9131L55.0149 82.6055L54.7517 74.8558L54.8974 77.1956L51.7793 76.9178L52.3164 71L56.3164 68Z" fill="#E1C5B5"/>
<path d="M42.3101 40.9896L52.8479 71.9655L57.1231 70.1579L47.2738 37.6966L42.3101 40.9896Z" fill="#E1C5B5"/>
<path d="M23.3164 13L19.7351 13.0597L19.4556 19.303L23.1132 19.1125L23.3164 13Z" fill="#E1C5B5"/>
<path d="M37.6969 13.8496L41.3164 14.8339L41.037 20.0688L37.8366 20.1933L37.6969 13.8496Z" fill="#E1C5B5"/>
<path d="M42.3164 66.5V42.0422L47.3164 37.5422L37.8164 33.5422L21.3164 32.5422L11.3164 35.5422L16.3164 40.5422L16.8164 66.5H42.3164Z" fill="#E1C5B5"/>
<path d="M28.3164 86.5545L29.6851 135.93L39.3164 136.472L44.3164 76.5" fill="#E1C5B5"/>
<path d="M45.3164 101L43.8164 66.5H15.8164L14.3164 89L28.0283 81.3711L26.8164 101H45.3164Z" fill="#4F83A3"/>
<path d="M27.3164 97L28.3164 81L14.3164 89L13.3164 97.5L27.3164 97Z" fill="#366387"/>
<path d="M33.1133 1.52832L19.3164 3.5L18.3164 15.7285L22.5 19.5L22 25.5L39 26L38.5 20L42.3164 17L41.6836 1.59961L33.3164 0L33.1133 1.52832Z" fill="#7C705A"/>
</svg>
