<svg width="52" height="180" viewBox="0 0 52 180" fill="none" xmlns="http://www.w3.org/2000/svg">
<path d="M37.7617 36.5L31.1011 32.6919L28.7427 26.0054L23.2919 27.5586L21.5634 31.808L13.2617 35.5L20.1868 41.4422L31.2967 41.7381L37.7617 36.5Z" fill="#72594B"/>
<path d="M16.8521 155.796L15.7688 163.663L24.7083 163.466L25.2988 155.011L16.8521 155.796Z" fill="#2A2B2A"/>
<path d="M25.1007 108.207L23.9208 167.792L33.0521 166.417L38.8535 108.01" fill="#72594B"/>
<path d="M25.2988 87.1648L25.1007 112.335L24.166 155.305L16.8508 155.796L13.8993 112.066L25.2988 87.1648Z" fill="#553F37"/>
<path d="M13.7617 41.5L6.30116 76.6009L0.908739 75.7716L7.76172 37L13.7617 41.5Z" fill="#72594B"/>
<path d="M0.906783 75.6497L1.62125e-05 81.0929L2.94261 89.2196L6.15189 87.7172L4.14021 80.4947L4.36882 82.8252L7.12598 81.0065L6.28397 76.5615L0.906783 75.6497Z" fill="#72594B"/>
<path d="M34.5684 176.739L31.2473 179.247H25.2008L23.654 167.816L32.9936 166.367L34.5684 176.739Z" fill="#2A2B2A"/>
<path d="M50.5108 75.0273L51.7617 81.9006L49.9494 90.8503L46.6817 89.0164L47.6177 81.3189L47.4006 83.6532L44.3627 82.8975L45.5895 77.674L50.5108 75.0273Z" fill="#72594B"/>
<path d="M37.7617 43.5L45.5923 77.7198L50.7383 76.2656L43.7617 39L37.7617 43.5Z" fill="#72594B"/>
<path d="M42.7617 112.5L40.2617 73H12.2617L6.76172 112.5H42.7617Z" fill="#AE2025"/>
<path d="M38.7617 73V43.5L43.7617 39L34.2617 35L17.7617 34L7.76172 37L12.7617 42L13.2617 73H38.7617Z" fill="#72594B"/>
<path d="M40.2617 43H17.7617H11.2617L11.2648 43.0548L12.7617 68H38.7617L40.2617 43Z" fill="#AE2025"/>
<path d="M17.7617 33.5V43H11.2617L10.7617 36L17.7617 33.5Z" fill="#AE2025"/>
<path d="M40.7617 37.5L40.2617 43H32.7617L33.2617 34L40.7617 37.5Z" fill="#AE2025"/>
<path fill-rule="evenodd" clip-rule="evenodd" d="M27.6729 0.509766L11.2617 2L6.76172 26.5L16.7617 40H35.5L45.7617 24.5V6.5L27.7812 0.535156V0.5L27.6963 0.506836L27.6729 0.5V0.509766Z" fill="#2A2B2A"/>
</svg>
