<svg width="57" height="192" viewBox="0 0 57 192" fill="none" xmlns="http://www.w3.org/2000/svg">
<path d="M40.1445 165.975L41.3384 174.701L30.2893 174.483L29.6416 165.105L40.1445 165.975Z" fill="#CEAB97"/>
<path d="M19.5195 189.203L20.4975 191.983H29.7431L31.4576 179.308L21.2594 177.7L19.5195 189.203Z" fill="#E1C5B5"/>
<path d="M19.6084 31.8428L23.2026 29.4437L25.8187 22.0282L31.8639 23.7516L33.7816 28.462L37.9219 30.5347L28.9049 45.0914L19.6084 31.8428Z" fill="#E1C5B5"/>
<path d="M25.6919 27.3139H31.1276L36.995 19.7764L35.9535 3.65506L25.4887 1.90881L18.999 4.492L19.2023 19.7764L25.6919 27.3139Z" fill="#E1C5B5"/>
<path d="M22.3262 2.18186L22.8723 0L40.4237 1.69799L41.8842 14.177L36.4486 14.5047L32.1941 5.83438L24.2947 4.69011L22.3262 2.18186Z" fill="#72594B"/>
<path d="M24.3462 4.68886L19.9264 6.48845L19.1138 14.3396L12.7002 15.1575L13.4367 4.81713L22.9617 0.0546265L24.3462 4.68886Z" fill="#72594B"/>
<path d="M36.3477 10.3175L39.929 10.3772L40.2085 16.6205L36.5509 16.43L36.3477 10.3175Z" fill="#E1C5B5"/>
<path d="M19.4691 11.1671L15.8496 12.1514L16.129 17.3863L19.3294 17.5108L19.4691 11.1671Z" fill="#E1C5B5"/>
<path d="M46.0623 80.2627L40.144 165.974H30.7333L29.1966 93.1291L32.7527 126.733L31.381 179.387L21.31 177.752L17.3856 127.044L12.2676 80.9155L46.0623 80.2627Z" fill="#E1C5B5"/>
<path d="M32.7119 128.371L31.7119 165.871V174.371H41.2119L39.7119 165.871L44.2119 110.871H31.7119V117.871L32.7119 128.371Z" fill="#CEAC98"/>
<path d="M10.2119 118.871L11.2119 81.3711L46.7119 79.8711L48.2119 105.871L31.7119 98.3711L34.2119 118.371L10.2119 118.871Z" fill="#679A45"/>
<path d="M2.98447 75.1306L0 82.456L0.571438 92.6058L3.94968 91.3129L4.63553 82.743L4.35617 85.3262L7.40404 85.4621L6.29915 78.4148L2.98447 75.1306Z" fill="#E1C5B5"/>
<path d="M53.9238 75.4838L56.1845 81.1721L55.9812 90.5421L52.2983 90.0583L51.5489 81.4909L51.841 84.0728L48.6787 84.5096L49.7456 77.4065L53.9238 75.4838Z" fill="#E1C5B5"/>
<path d="M38.0875 30.3708L48.5396 33.8062L54.2039 76.5531L49.6191 77.3164L45.2119 54.8711L46.1393 80.2603L12.2685 80.9156V52.8711L6.37565 78.5153L2.17188 76.6623L9.65219 36.2052L19.6089 31.6777L30.2388 42.4752L34.1632 36.423L38.0875 30.3708Z" fill="#E1C5B5"/>
<path d="M34.2119 118.371L31.7119 98.3711L48.2119 105.871L49.2119 118.371H34.2119Z" fill="#35813F"/>
</svg>
