<?xml version="1.0" encoding="UTF-8" standalone="no"?>
<!DOCTYPE svg PUBLIC "-//W3C//DTD SVG 1.1//EN" "http://www.w3.org/Graphics/SVG/1.1/DTD/svg11.dtd">
<svg width="100%" height="100%" viewBox="0 0 140 220" version="1.1" xmlns="http://www.w3.org/2000/svg" xmlns:xlink="http://www.w3.org/1999/xlink" xml:space="preserve" xmlns:serif="http://www.serif.com/" style="fill-rule:evenodd;clip-rule:evenodd;stroke-linejoin:round;stroke-miterlimit:2;">
    <g id="people-19" transform="matrix(1.27,0,0,1.27,-315.286,-84.8)">
        <g transform="matrix(1,0,0,1,0,-12)">
            <path d="M320.269,222.258L321.665,212.856L282.837,212.82L284.336,222.299L320.269,222.258Z" style="fill:rgb(193,190,186);fill-rule:nonzero;"/>
        </g>
        <g transform="matrix(1,0,0,1,0,-12)">
            <path d="M320.269,222.227L321.665,212.825L282.837,212.789L284.336,222.268L320.269,222.227Z" style="fill:rgb(23,24,23);fill-opacity:0.25;fill-rule:nonzero;"/>
        </g>
        <g transform="matrix(1,0,0,1,0,-12)">
            <path d="M284.186,244.198L284.186,239.998L301.333,239.942L302.052,244.215L284.186,244.198Z" style="fill:rgb(193,190,186);fill-rule:nonzero;"/>
        </g>
        <g transform="matrix(1,0,0,1,0,-12)">
            <path d="M321.718,244.198L321.718,239.998L304.571,239.942L303.852,244.215L321.718,244.198Z" style="fill:rgb(193,190,186);fill-rule:nonzero;"/>
        </g>
        <g transform="matrix(1,0,0,1,0,-12)">
            <path d="M320.061,213.028L324.46,170.626L279.626,170.59L284.128,213.069L320.061,213.028Z" style="fill:rgb(216,211,203);fill-rule:nonzero;"/>
        </g>
        <g transform="matrix(1,0,0,1,0,-12)">
            <path d="M320.496,202.866L319.252,204.155L319.298,250.163L320.679,252L322.931,252L324.265,249.93L324.082,203.922L322.702,202.866L320.496,202.866Z" style="fill:rgb(42,43,42);fill-rule:nonzero;"/>
        </g>
        <g transform="matrix(1,0,0,1,0,-12)">
            <path d="M281.002,202.866L279.759,204.155L279.805,250.163L281.185,252L283.438,252L284.772,249.93L284.589,203.922L283.209,202.866L281.002,202.866Z" style="fill:rgb(42,43,42);fill-rule:nonzero;"/>
        </g>
        <g transform="matrix(1,0,0,1,0,-12)">
            <path d="M295.041,175.75L299.84,173.862L310.264,173.456L308.289,165.124L295.601,164.891L295.041,175.75Z" style="fill:rgb(42,43,42);fill-rule:nonzero;"/>
        </g>
        <g transform="matrix(1,0,0,1,0,-12)">
            <path d="M295.979,173.805L298.533,172.102L300.39,166.837L304.682,168.06L306.044,171.406L308.986,172.876L307.128,178.992L298.379,179.225L295.979,173.805Z" style="fill:rgb(85,63,55);fill-rule:nonzero;"/>
        </g>
        <g transform="matrix(1,0,0,1,0,-12)">
            <path d="M300.301,170.589L304.165,170.589L308.327,165.238L307.583,153.792L300.16,152.552L295.546,154.387L295.695,165.238L300.301,170.589Z" style="fill:rgb(114,89,75);fill-rule:nonzero;"/>
        </g>
        <g transform="matrix(1,0,0,1,0,-12)">
            <path d="M301.417,149.167L310,151.875L314.707,175.083L309.856,180.25L309.915,174.676L309.605,173.03L308.114,165.501L306.25,156L301.147,153.917L301.417,149.167Z" style="fill:rgb(42,43,42);fill-rule:nonzero;"/>
        </g>
        <g transform="matrix(1,0,0,1,0,-12)">
            <path d="M301.233,153.917L296.211,155.804L295.623,178L291.375,177.251L292.207,153.333L301.541,149.083L301.233,153.917Z" style="fill:rgb(42,43,42);fill-rule:nonzero;"/>
        </g>
        <g transform="matrix(1,0,0,1,0,-12)">
            <path d="M314.716,175.198L309.015,172.846L302.744,178.565L295.98,173.688L290.791,177.251L294.276,181.856L293.583,200.25L290.938,218.5L314.563,218.5L311.501,200.583L311.833,180.582L314.716,175.198Z" style="fill:rgb(236,219,177);fill-rule:nonzero;"/>
        </g>
        <g transform="matrix(1,0,0,1,0,-12)">
            <path d="M293.581,205.249L293.001,234.311L298.188,235.395L301.056,204.82" style="fill:rgb(114,89,75);fill-rule:nonzero;"/>
        </g>
        <g transform="matrix(1,0,0,1,0,-12)">
            <path d="M292.963,234.273L291.248,239.999L299.791,239.999L298.291,234.291L292.963,234.273Z" style="fill:rgb(244,242,237);fill-rule:nonzero;"/>
        </g>
        <g transform="matrix(1,0,0,1,0,-12)">
            <path d="M303.598,204.881L307.327,234.69L312.088,235.075L311.416,204.669L303.598,204.881Z" style="fill:rgb(114,89,75);fill-rule:nonzero;"/>
        </g>
        <g transform="matrix(1,0,0,1,0,-12)">
            <path d="M307.172,234.607L305.457,240.333L314,240.333L312.5,234.625L307.172,234.607Z" style="fill:rgb(244,242,237);fill-rule:nonzero;"/>
        </g>
        <g transform="matrix(1,0,0,1,0,-12)">
            <path d="M290.875,218.5L314.5,218.5L311.469,200.375L293.594,200.375L290.875,218.5Z" style="fill:rgb(246,241,225);fill-rule:nonzero;"/>
        </g>
        <g transform="matrix(1,0,0,1,0,-12)">
            <path d="M294.394,181.798L291.938,197L295.855,205.542L293.208,208.333L288.156,197.453L290.883,177.347L294.394,181.798Z" style="fill:rgb(114,89,75);fill-rule:nonzero;"/>
        </g>
        <g transform="matrix(1,0,0,1,0,-12)">
            <path d="M293.186,208.265L298.54,209.958L305.708,209.39L304.583,206.663L298.478,206.663L300.324,206.715L300.02,204.27L295.323,205.734L293.186,208.265Z" style="fill:rgb(114,89,75);fill-rule:nonzero;"/>
        </g>
        <g transform="matrix(1,0,0,1,0,-12)">
            <path d="M311.75,180.582L319.375,192.625L319.5,203.334L322.916,202.959L322.917,191.833L314.721,175.159L311.75,180.582Z" style="fill:rgb(114,89,75);fill-rule:nonzero;"/>
        </g>
        <g transform="matrix(1,0,0,1,0,-12)">
            <path d="M326.937,201.813L327.124,209.313L324.083,209.792L324.062,205.688L317.011,207.393L316.562,203.938L326.937,201.813Z" style="fill:rgb(114,89,75);fill-rule:nonzero;"/>
        </g>
    </g>
</svg>
