<?xml version="1.0" encoding="UTF-8" standalone="no"?>
<!DOCTYPE svg PUBLIC "-//W3C//DTD SVG 1.1//EN" "http://www.w3.org/Graphics/SVG/1.1/DTD/svg11.dtd">
<svg width="100%" height="100%" viewBox="0 0 140 220" version="1.1" xmlns="http://www.w3.org/2000/svg" xmlns:xlink="http://www.w3.org/1999/xlink" xml:space="preserve" xmlns:serif="http://www.serif.com/" style="fill-rule:evenodd;clip-rule:evenodd;stroke-linejoin:round;stroke-miterlimit:2;">
    <g id="people-15" transform="matrix(1.27,0,0,1.27,-2694.78,-84.8)">
        <g transform="matrix(1,0,0,1,0,-12)">
            <path d="M2169.51,231.914L2168.56,238.667L2174.3,238.522L2174.1,231.422L2169.51,231.914Z" style="fill:rgb(85,63,55);fill-rule:nonzero;"/>
        </g>
        <g transform="matrix(1,0,0,1,0,-12)">
            <path d="M2174.34,242.231L2175.68,252L2180.98,252L2181.74,249.889L2180.36,240.987L2174.34,242.231Z" style="fill:rgb(85,63,55);fill-rule:nonzero;"/>
        </g>
        <g transform="matrix(1,0,0,1,0,-12)">
            <path d="M2183.67,128.123L2180.84,126.268L2178.78,120.53L2174.02,121.862L2172.51,125.507L2169.25,127.111L2176.35,138.375L2183.67,128.123Z" style="fill:rgb(205,170,151);fill-rule:nonzero;"/>
        </g>
        <g transform="matrix(1,0,0,1,0,-12)">
            <path d="M2178.88,124.618L2174.6,124.618L2169.98,118.787L2170.8,106.803L2178.54,104.96L2183.65,106.96L2183.99,118.787L2178.88,124.618Z" style="fill:rgb(205,170,151);fill-rule:nonzero;"/>
        </g>
        <g transform="matrix(1,0,0,1,0,-12)">
            <path d="M2170.49,111.467L2167.67,111.513L2167.45,116.344L2170.33,116.198L2170.49,111.467Z" style="fill:rgb(205,170,151);fill-rule:nonzero;"/>
        </g>
        <g transform="matrix(1,0,0,1,0,-12)">
            <path d="M2183.78,112.125L2186.63,112.887L2186.41,116.937L2183.89,117.033L2183.78,112.125Z" style="fill:rgb(205,170,151);fill-rule:nonzero;"/>
        </g>
        <g transform="matrix(1,0,0,1,0,-12)">
            <path d="M2164.85,165.592L2169.51,231.914L2174.91,231.914L2176.12,175.548L2173.32,201.55L2174.4,242.294L2180.32,241.028L2183.42,201.791L2187.45,166.097L2164.85,165.592Z" style="fill:rgb(193,190,186);fill-rule:nonzero;"/>
        </g>
        <g transform="matrix(1,0,0,1,0,-12)">
            <path d="M2175.57,175.449L2172.85,203.562L2174.13,231.924L2168.82,222.025L2166.24,184.496L2175.57,175.449Z" style="fill:rgb(23,24,24);fill-opacity:0.25;fill-rule:nonzero;"/>
        </g>
        <g transform="matrix(1,0,0,1,0,-12)">
            <path d="M2194.76,161.62L2197.11,167.288L2196.66,175.142L2194,174.142L2193.46,167.511L2193.68,169.509L2191.28,169.614L2192.15,164.162L2194.76,161.62Z" style="fill:rgb(205,170,151);fill-rule:nonzero;"/>
        </g>
        <g transform="matrix(1,0,0,1,0,-12)">
            <path d="M2158.65,161.893L2156.88,166.294L2157.03,173.546L2159.93,173.169L2160.52,166.542L2160.29,168.539L2162.78,168.878L2161.94,163.381L2158.65,161.893Z" style="fill:rgb(205,170,151);fill-rule:nonzero;"/>
        </g>
        <g transform="matrix(1,0,0,1,0,-12)">
            <path d="M2169.12,126.985L2161.89,130.134L2161.14,138.914L2165.37,139.745L2166.16,134.198L2164.78,165.589L2187.45,166.096L2185.56,136.9L2186.63,141.377L2191.28,139.745L2189.51,131.499L2183.67,127.996L2175.8,131.929L2169.12,126.985Z" style="fill:rgb(73,74,114);fill-rule:nonzero;"/>
        </g>
        <g transform="matrix(1,0,0,1,0,-12)">
            <path d="M2191.28,139.745L2186.63,141.377L2192.09,164.238L2195.39,162.805L2191.28,139.745Z" style="fill:rgb(205,170,151);fill-rule:nonzero;"/>
        </g>
        <g transform="matrix(1,0,0,1,0,-12)">
            <path d="M2182.43,120.783L2177.88,126L2174.99,126L2171.53,120.84L2172.33,120.46L2175.07,122L2177.99,122L2181.53,120.515L2182.43,120.783Z" style="fill:rgb(42,43,42);fill-rule:nonzero;"/>
        </g>
        <g transform="matrix(1,0,0,1,0,-12)">
            <path d="M2165.37,139.745L2161.14,138.914L2158.43,162.721L2162.04,163.311L2165.37,139.745Z" style="fill:rgb(205,170,151);fill-rule:nonzero;"/>
        </g>
    </g>
</svg>
