<?xml version="1.0" encoding="UTF-8" standalone="no"?>
<!DOCTYPE svg PUBLIC "-//W3C//DTD SVG 1.1//EN" "http://www.w3.org/Graphics/SVG/1.1/DTD/svg11.dtd">
<svg width="100%" height="100%" viewBox="0 0 140 220" version="1.1" xmlns="http://www.w3.org/2000/svg" xmlns:xlink="http://www.w3.org/1999/xlink" xml:space="preserve" xmlns:serif="http://www.serif.com/" style="fill-rule:evenodd;clip-rule:evenodd;stroke-linejoin:round;stroke-miterlimit:2;">
    <g id="people-09" transform="matrix(1.27,0,0,1.27,-2259.18,-84.8)">
        <g transform="matrix(1,0,0,1,0,-12)">
            <path d="M1843.49,231.021L1844.43,237.892L1835.73,237.72L1835.22,230.336L1843.49,231.021Z" style="fill:rgb(206,171,151);fill-rule:nonzero;"/>
        </g>
        <g transform="matrix(1,0,0,1,0,-12)">
            <path d="M1827.25,249.311L1828.02,251.5L1835.3,251.5L1836.65,241.519L1828.62,240.253L1827.25,249.311Z" style="fill:rgb(206,171,151);fill-rule:nonzero;"/>
        </g>
        <g transform="matrix(1,0,0,1,0,-12)">
            <path d="M1827.32,125.405L1830.15,123.516L1832.21,117.677L1836.97,119.034L1838.48,122.743L1841.74,124.375L1834.64,135.837L1827.32,125.405Z" style="fill:rgb(114,89,75);fill-rule:nonzero;"/>
        </g>
        <g transform="matrix(1,0,0,1,0,-12)">
            <path d="M1832.11,121.839L1836.39,121.839L1841.01,115.904L1840.19,103.21L1831.95,101.835L1826.84,103.869L1827,115.904L1832.11,121.839Z" style="fill:rgb(206,171,151);fill-rule:nonzero;"/>
        </g>
        <g transform="matrix(1,0,0,1,0,-12)">
            <path d="M1829.46,102.05L1829.89,100.332L1843.71,101.669L1844.86,111.495L1840.58,111.753L1837.23,104.926L1831.01,104.025L1829.46,102.05Z" style="fill:rgb(42,43,42);fill-rule:nonzero;"/>
        </g>
        <g transform="matrix(1,0,0,1,0,-12)">
            <path d="M1840.5,108.456L1843.32,108.503L1843.54,113.419L1840.66,113.269L1840.5,108.456Z" style="fill:rgb(206,171,151);fill-rule:nonzero;"/>
        </g>
        <g transform="matrix(1,0,0,1,0,-12)">
            <path d="M1831.05,104.024L1827.57,105.441L1826.93,111.623L1821.88,112.267L1822.46,104.125L1829.96,100.375L1831.05,104.024Z" style="fill:rgb(42,43,42);fill-rule:nonzero;"/>
        </g>
        <g transform="matrix(1,0,0,1,0,-12)">
            <path d="M1827.21,109.125L1824.36,109.9L1824.58,114.022L1827.1,114.12L1827.21,109.125Z" style="fill:rgb(206,171,151);fill-rule:nonzero;"/>
        </g>
        <g transform="matrix(1,0,0,1,0,-12)">
            <path d="M1848.15,163.531L1843.49,231.02L1836.08,231.02L1834.87,173.662L1837.67,200.122L1836.59,241.582L1828.66,240.294L1825.57,200.367L1821.54,164.045L1848.15,163.531Z" style="fill:rgb(193,190,186);fill-rule:nonzero;"/>
        </g>
        <g transform="matrix(1,0,0,1,0,-12)">
            <path d="M1835.62,172.625L1838.14,202.17L1836.86,231.029L1843.98,223.792L1846.69,183.688L1835.62,172.625Z" style="fill:rgb(23,24,23);fill-opacity:0.25;fill-rule:nonzero;"/>
        </g>
        <g transform="matrix(1,0,0,1,0,-12)">
            <path d="M1814.23,159.49L1811.88,165.258L1812.33,173.25L1814.99,172.232L1815.53,165.484L1815.31,167.518L1817.71,167.625L1816.84,162.076L1814.23,159.49Z" style="fill:rgb(206,171,151);fill-rule:nonzero;"/>
        </g>
        <g transform="matrix(1,0,0,1,0,-12)">
            <path d="M1854.34,159.768L1856.12,164.247L1855.96,171.625L1853.06,171.244L1852.47,164.498L1852.7,166.531L1850.21,166.875L1851.05,161.282L1854.34,159.768Z" style="fill:rgb(206,171,151);fill-rule:nonzero;"/>
        </g>
        <g transform="matrix(1,0,0,1,0,-12)">
            <path d="M1841.87,124.246L1850.1,126.951L1854.56,160.61L1850.95,161.211L1846.84,131.587L1848.21,163.529L1821.54,164.045L1823.43,134.336L1816.9,162.155L1813.59,160.696L1819.48,128.84L1827.32,125.275L1835.69,133.777L1841.87,124.246Z" style="fill:rgb(239,155,117);fill-rule:nonzero;"/>
        </g>
    </g>
</svg>
