<?xml version="1.0" encoding="UTF-8" standalone="no"?>
<!DOCTYPE svg PUBLIC "-//W3C//DTD SVG 1.1//EN" "http://www.w3.org/Graphics/SVG/1.1/DTD/svg11.dtd">
<svg width="100%" height="100%" viewBox="0 0 140 220" version="1.1" xmlns="http://www.w3.org/2000/svg" xmlns:xlink="http://www.w3.org/1999/xlink" xml:space="preserve" xmlns:serif="http://www.serif.com/" style="fill-rule:evenodd;clip-rule:evenodd;stroke-linejoin:round;stroke-miterlimit:2;">
    <g id="people-07" transform="matrix(1.27,0,0,1.27,-2125.51,-84.8)">
        <g transform="matrix(1,0,0,1,0,-12)">
            <path d="M1734.98,231.021L1735.93,237.892L1729.23,237.72L1728.71,230.336L1734.98,231.021Z" style="fill:rgb(42,43,42);fill-rule:nonzero;"/>
        </g>
        <g transform="matrix(1,0,0,1,0,-12)">
            <path d="M1722.75,249.311L1723.52,251.5L1728.8,251.5L1730.15,241.519L1724.12,240.253L1722.75,249.311Z" style="fill:rgb(42,43,42);fill-rule:nonzero;"/>
        </g>
        <g transform="matrix(1,0,0,1,0,-12)">
            <path d="M1720.82,130.405L1723.65,128.516L1725.71,122.677L1730.47,124.034L1731.98,127.743L1735.24,129.375L1728.14,140.837L1720.82,130.405Z" style="fill:rgb(206,171,151);fill-rule:nonzero;"/>
        </g>
        <g transform="matrix(1,0,0,1,0,-12)">
            <path d="M1723.11,126.839L1732.39,126.839L1737.01,120.904L1733.69,108.21L1725.45,106.835L1720.34,108.869L1718,120.904L1723.11,126.839Z" style="fill:rgb(225,197,181);fill-rule:nonzero;"/>
        </g>
        <g transform="matrix(1,0,0,1,0,-12)">
            <path d="M1734,113.456L1736.82,113.503L1737.04,118.419L1734.16,118.269L1734,113.456Z" style="fill:rgb(225,197,181);fill-rule:nonzero;"/>
        </g>
        <g transform="matrix(1,0,0,1,0,-12)">
            <path d="M1720.71,114.125L1717.86,114.9L1718.08,119.022L1720.6,119.12L1720.71,114.125Z" style="fill:rgb(225,197,181);fill-rule:nonzero;"/>
        </g>
        <g transform="matrix(1,0,0,1,0,-12)">
            <path d="M1722.96,107.05L1723.39,105.332L1736.26,108.25L1741.08,134.667L1735.52,133.501L1732.02,111.501L1724.51,109.025L1722.96,107.05Z" style="fill:rgb(245,243,233);fill-rule:nonzero;"/>
        </g>
        <g transform="matrix(1,0,0,1,0,-12)">
            <path d="M1744.65,168.531L1734.99,231.02L1729.58,231.02L1728.37,178.662L1731.17,202.622L1730.09,241.582L1724.17,240.294L1718.57,202.867L1712.04,169.045L1744.65,168.531Z" style="fill:rgb(193,190,186);fill-rule:nonzero;"/>
        </g>
        <g transform="matrix(1,0,0,1,0,-12)">
            <path d="M1724.55,109.024L1721.07,110.441L1719.96,116.625L1715.38,112.267L1715.96,109.125L1723.46,105.375L1724.55,109.024Z" style="fill:rgb(245,243,233);fill-rule:nonzero;"/>
        </g>
        <g transform="matrix(1,0,0,1,0,-12)">
            <path d="M1728.92,178.563L1731.64,204.67L1730.36,231.029L1735.83,225.75L1741.19,190.875L1728.92,178.563Z" style="fill:rgb(23,24,23);fill-opacity:0.25;fill-rule:nonzero;"/>
        </g>
        <g transform="matrix(1,0,0,1,0,-12)">
            <path d="M1703.98,164.49L1701.63,170.258L1702.83,178.25L1705.49,177.232L1706.03,170.484L1705.81,172.518L1708.21,172.625L1707.34,167.076L1703.98,164.49Z" style="fill:rgb(225,197,181);fill-rule:nonzero;"/>
        </g>
        <g transform="matrix(1,0,0,1,0,-12)">
            <path d="M1754.09,164.768L1755.86,169.247L1754.96,176.625L1752.06,176.244L1751.47,169.498L1751.7,171.531L1749.21,171.875L1750.05,166.282L1754.09,164.768Z" style="fill:rgb(225,197,181);fill-rule:nonzero;"/>
        </g>
        <g transform="matrix(1,0,0,1,0,-12)">
            <path d="M1735.37,129.246L1741.6,131.951L1754.31,165.61L1749.95,166.211L1740.83,144.087L1744.71,168.529L1712.04,169.045L1716.43,144.336L1707.4,167.155L1703.35,165.696L1714.98,133.84L1720.82,130.275L1729.19,133.777L1735.37,129.246Z" style="fill:rgb(174,31,37);fill-rule:nonzero;"/>
        </g>
    </g>
</svg>
