<svg viewBox="0 0 288 192" xmlns="http://www.w3.org/2000/svg" fill-rule="evenodd" clip-rule="evenodd" stroke-miterlimit="10"><g><path d="M19.295 102.08l-.393 84.676H276.15l.134-78.855v-5.822H19.294z" fill="#f5f3e9" fill-rule="nonzero"/><path fill="#e7e6de" fill-rule="nonzero" d="M18.908 102.166h257.376v84.59H18.908z"/><path d="M19 118.016l-.084 54.46h102.452l-.052-54.47-102.316.01z" fill="#c1bebb" fill-rule="nonzero"/><path d="M89.052 119.413l.03 50.735H50.878l.153-50.636 38.02-.1zM48.548 119.413v50.735h-27.25v-50.636l27.25-.1zM118.89 119.413v50.735H91.64v-50.636l27.25-.1z" fill="#313156" fill-rule="nonzero"/><path d="M14.613 102l-6.1 17.52h115.44l-.538-17.52H14.613z" fill="#679a45" fill-rule="nonzero"/><path d="M13.65 104.768l-.25.753H87.98l3.495-3.502L16.375 102l-2.726 2.768zM106.878 105.327l16.66.102-.14-3.384-13.186-.035-3.334 3.317z" fill="#35813f" fill-rule="nonzero"/><path d="M19.25 17.265l-1.573-3.36 258.605.073v3.267l-257.032.02z" fill="#e7e6de" fill-rule="nonzero"/><path d="M16.25 5.136l.006 4.04 1.42 4.728 258.607.074V8.525l-257.648.64v-4.03H16.25z" fill="#fff" fill-rule="nonzero"/><path d="M19.256 17.255l-.008 9.85.006 74.892h257.028V17.245l-202.916-.018-54.11.028z" fill="#f5f3e9" fill-rule="nonzero"/><path fill="#e7e6de" fill-rule="nonzero" d="M88.2 17.267h25.295v84.736H88.2z"/><path d="M55.88 35.632l.015 48.728 24.402-.052.033-48.7-24.45.024z" fill="#c1bebb" fill-rule="nonzero"/><path d="M57.74 61.182V82.51l20.66-.057v-21.29l-20.66.02zM57.73 59.28l20.67.02.013-21.575-20.672-.223-.01 21.78z" fill="#313156" fill-rule="nonzero"/><path d="M26.395 35.632l.016 48.728 24.404-.052.032-48.7-24.45.024z" fill="#c1bebb" fill-rule="nonzero"/><path d="M28.258 61.182V82.51l20.66-.057v-21.29l-20.66.02zM28.246 59.28l20.67.02.012-21.575-20.67-.223-.012 21.78z" fill="#313156" fill-rule="nonzero"/><path d="M130.176 40.395l.016 37.04 35.27-.05.03-37.013-35.316.023z" fill="#c1bebb" fill-rule="nonzero"/><path d="M132.037 60.316v15.267l31.527-.055v-15.23l-31.527.018zM132.026 58.416l31.538.02.01-15.946-31.537-.226-.01 16.152z" fill="#313156" fill-rule="nonzero"/><path fill="#c1bebb" fill-rule="nonzero" d="M57.655 59.356H78.6v1.817H57.656z"/><path fill="#e7e6de" fill-rule="nonzero" d="M181.89 17.267h25.296v84.737H181.89z"/><path d="M244.417 35.632l.015 48.728 24.404-.052.032-48.7-24.45.024z" fill="#c1bebb" fill-rule="nonzero"/><path d="M246.278 61.182V82.51l20.66-.057v-21.29l-20.66.02zM246.267 59.28l20.67.02.013-21.575-20.672-.223-.01 21.78z" fill="#313156" fill-rule="nonzero"/><path d="M214.934 35.632l.014 48.728 24.405-.052.03-48.7-24.45.024z" fill="#c1bebb" fill-rule="nonzero"/><path d="M216.795 61.182V82.51l20.66-.057v-21.29l-20.66.02zM216.783 59.28l20.67.02.012-21.575-20.67-.223-.012 21.78z" fill="#313156" fill-rule="nonzero"/><path d="M123.536 105.425l152.765.554v-3.964H123.4l.138 3.41z" fill="#dcdcd7" fill-rule="nonzero"/><path d="M185.205 102.003l-3.925 3.89 3.925-.097-3.314 81.067h25.297l-2.684-80.783-4.013-.092 4.013-3.985h-19.298z" fill="#e7e6de" fill-rule="nonzero"/><path d="M233.355 138.99l17.348.02.012-20.46-17.383-.01.023 20.45z" fill="#5c5e5f" fill-rule="nonzero"/><path d="M235.26 137.072l13.51.043v-16.453l-13.51-.015v16.425z" fill="#313156" fill-rule="nonzero"/><path d="M89.322 94.526H18.157v1.77h71.17l-.005-1.77z" fill="#c1bebb" fill-rule="nonzero"/><path d="M89.333 96.303H18.157l-1.772 5.71H91.46l-2.127-5.71z" fill="#fff" fill-rule="nonzero"/><path d="M89.322 24.73H18.157v-1.77h71.17l-.005 1.77z" fill="#c1bebb" fill-rule="nonzero"/><path d="M89.333 22.952H18.157l-1.772-5.71H91.46l-2.127 5.71z" fill="#fff" fill-rule="nonzero"/><path d="M183.16 94.526h-71.166v1.77h71.17l-.005-1.77z" fill="#c1bebb" fill-rule="nonzero"/><path d="M183.17 96.303h-71.177l-1.772 5.71h75.076l-2.127-5.71z" fill="#fff" fill-rule="nonzero"/><path d="M183.16 24.73h-71.166v-1.77h71.17l-.005 1.77z" fill="#c1bebb" fill-rule="nonzero"/><path d="M183.17 22.952h-71.177l-1.772-5.71h75.076l-2.127 5.71z" fill="#fff" fill-rule="nonzero"/><path d="M277.35 94.526h-71.166v1.77h71.17l-.005-1.77z" fill="#c1bebb" fill-rule="nonzero"/><path d="M206.184 96.303l-1.772 5.71h75.074l-2.126-5.71h-71.176z" fill="#fff" fill-rule="nonzero"/><path d="M277.35 24.73h-71.166v-1.77h71.17l-.005 1.77z" fill="#c1bebb" fill-rule="nonzero"/><path d="M204.412 17.243l1.772 5.71h71.176l2.126-5.71h-75.074z" fill="#fff" fill-rule="nonzero"/><g opacity=".3"><clipPath id="_clip1"><path d="M81.198 119.52h37.687v37.564H81.198z"/></clipPath><g clip-path="url(#_clip1)"><path d="M81.198 119.52l37.688 37.564-.025-37.563H81.2z" fill="#0a1723" fill-rule="nonzero"/></g></g><g opacity=".3"><clipPath id="_clip2"><path d="M62.85 37.553H78.4V53.05H62.85z"/></clipPath><g clip-path="url(#_clip2)"><path d="M62.85 37.553L78.4 53.05l-.01-15.335-15.54-.162z" fill="#0a1723" fill-rule="nonzero"/></g></g><path d="M235.275 120.637l13.494 13.45.005-13.45h-13.5z" fill="#0a1723" fill-rule="nonzero" opacity=".3"/><g opacity=".3"><clipPath id="_clip3"><path d="M136.782 42.29h26.79v26.698h-26.79z"/></clipPath><g clip-path="url(#_clip3)"><path d="M136.782 42.288l26.776 26.7.013-26.503-26.788-.197z" fill="#0a1723" fill-rule="nonzero"/></g></g><g opacity=".3"><clipPath id="_clip4"><path d="M21.292 134.025h35.85v36.132h-35.85z"/></clipPath><g clip-path="url(#_clip4)"><path d="M21.303 170.147l-.01-36.122L56.7 167.837l.442 2.32-35.84-.01z" fill="#0a1723" fill-rule="nonzero"/></g></g><path d="M57.142 170.15L21.294 134.17l-.006.007-.007-2.14 38.065 38.115-2.203-.006z" fill="#494a72" fill-rule="nonzero"/><g opacity=".3"><clipPath id="_clip5"><path d="M28.242 46.408h20.705v36.128H28.242z"/></clipPath><g clip-path="url(#_clip5)"><path d="M28.252 82.53l-.01-36.122 20.705 19.77-.003 16.358-20.692-.006z" fill="#0a1723" fill-rule="nonzero"/></g></g><path d="M48.937 67.324l-20.694-20.77-.005.008-.008-2.14 20.706 20.734v2.168z" fill="#494a72" fill-rule="nonzero"/><g opacity=".3"><clipPath id="_clip6"><path d="M57.723 74.495h6.436v7.993h-6.437z"/></clipPath><g clip-path="url(#_clip6)"><path d="M57.775 74.494l5.94 5.674.443 2.32-6.435-.002.052-7.992z" fill="#0a1723" fill-rule="nonzero"/></g></g><path d="M64.158 82.48l-6.42-6.442.008-2.178 8.614 8.626-2.202-.005z" fill="#494a72" fill-rule="nonzero"/><g opacity=".3"><clipPath id="_clip7"><path d="M251.436 37.553h15.55V53.05h-15.55z"/></clipPath><g clip-path="url(#_clip7)"><path d="M251.436 37.553l15.55 15.498-.01-15.335-15.54-.162z" fill="#0a1723" fill-rule="nonzero"/></g></g><g opacity=".3"><clipPath id="_clip8"><path d="M216.828 46.408h20.706v36.128h-20.706z"/></clipPath><g clip-path="url(#_clip8)"><path d="M216.84 82.53l-.013-36.122 20.706 19.77-.002 16.358-20.69-.006z" fill="#0a1723" fill-rule="nonzero"/></g></g><path d="M237.524 67.324l-20.694-20.77-.005.008-.008-2.14 20.706 20.734v2.168z" fill="#494a72" fill-rule="nonzero"/><g opacity=".3"><clipPath id="_clip9"><path d="M246.31 74.495h6.435v7.993h-6.436z"/></clipPath><g clip-path="url(#_clip9)"><path d="M246.362 74.494l5.94 5.674.443 2.32-6.436-.002.052-7.992z" fill="#0a1723" fill-rule="nonzero"/></g></g><path d="M252.745 82.48l-6.42-6.442.008-2.178 8.614 8.626-2.202-.005z" fill="#494a72" fill-rule="nonzero"/><path d="M91.628 169.95h-2.565v-50.42h2.565v50.42zM48.55 159h2.358v12.002H48.55zM28.176 59.325h20.946v1.818H28.176zM246.318 59.29h20.945v1.883h-20.945zM216.596 59.29h20.945v1.883h-20.944zM131.9 58.448h32.232v1.884H131.9z" fill="#c1bebb" fill-rule="nonzero"/><path d="M95.942 100.202l-9.033 9.034M109.242 100.13l-9.033 9.033M190.735 100.37l-9.033 9.033M26.014 39.17l48.318 48.318M55.175 33.46l28.75 28.75M134.35 43.676l28.75 28.75M226.87 116.146l28.75 28.75" fill="none" stroke="#db00e9" stroke-width="2"/></g></svg>