<svg viewBox="0 250 336 500" xmlns="http://www.w3.org/2000/svg" fill-rule="evenodd" clip-rule="evenodd" stroke-linejoin="round" stroke-miterlimit="1.414"><path d="M98.61 442.738l-.528 7.922L118.95 423l-13.5 6-6.84 13.738z" fill="#8eaf44" fill-rule="nonzero"/><path d="M165.29 375.666l22.182-81.2 24.557-29.707 46.733 1.187 1.188 4.753-20.985 8.32-3.17-3.17-.395 2.773-25.747 22.18-5.1 11.554-6.254 4.176 3.978.973-28.495 59.547-8.493-1.387z" fill="#689d46" fill-rule="nonzero"/><path d="M260.82 440.527l-8.02-27.133 9.95 17.64-1.93 9.493z" fill="#8abb6b" fill-rule="nonzero"/><path d="M160.9 382.03l7.088-11.515 25.724-29.6 53.228-24.793 35.002 5.43-20.167 15.14-6.87-1.374-2.386 1.928 1.68 4.186-19.967 6.127-12.034-3.582 5.447 6.092-24.87 9.477-23.543 17.59-4.047-.412.442 2.687-8.822 5.836-5.908-3.217z" fill="#689d46" fill-rule="nonzero"/><path d="M174 373.685L88.97 338.3l-40.666 1.057-31.423 15.58-10.826 11.09 38.553-2.113 4.753-2.375 1.32 3.166 50.966-3.696 45.948 11.883 26.406.792z" fill="#689d46" fill-rule="nonzero"/><path d="M163.31 383.588l-4.668 143.787 1.896 75.65-5.46 93.725L154.2 744h29.31l-2.015-67.3-6.542-88.116 3.814-81.27-6.74-128.876-8.717 5.15z" fill="#7d705a" fill-rule="nonzero"/><path d="M169.38 381.607l-4.884.265-6.866-19.674.792-.396-4.89-2.64-12.605-45.287 11.023-3.625-16.7-5.634-3.235-6.982-33.565-2.384 27.623-14.65 15.053 10.152 15.052 17.693 13.202 73.162z" fill="#35833f" fill-rule="nonzero"/><path d="M172.37 381.492l-6.383-74.447-12.087-24.48-27.726-2.177-21.985 12.286 32.083 2.172L140.45 302l15.876 6.25-13.234.943 12.11 38.182 5.7 4.846-4.356.397 9.11 29.305 6.714-.43z" fill="#8abb6b" fill-rule="nonzero"/><path d="M81.98 416.597l15.58-2.376 66.94-32.348-36.836 3.3-45.684 31.425z" fill="#35833f" fill-rule="nonzero"/><path d="M173.85 374.043l-13.317-2.338-39.214-.396-53.87 23.37-19.163 29.79 24.71-5.043 3.53-6.052 3.024-.504 2.02 4.035 17.83-10.87 29.842-15.582 28.783-5.94 2.376-3.3 1.717 2.11 10.22-2.725 1.513-6.555z" fill="#8abb6b" fill-rule="nonzero"/><path d="M160.53 603.417l-5.33 93.833 19.83-108.415" fill="#64594a" fill-rule="nonzero"/><path d="M178.76 507.312l-20.125 20.125 14.688-123.75 5.437 103.625z" fill="#998c75" fill-rule="nonzero"/><path d="M174.93 372.498l55.784-20.23 26.867 1.744 2.908 5.547-9.507-2.115-6.602 1.585-13.467.264-55.98 13.204z" fill="#007043" fill-rule="nonzero"/><path d="M165.16 372.498l-42.25 14.787-24.295 55.453-.528 7.922 15.844-19.54 20.598-31.16 30.94-17.362-.308-10.1z" fill="#689d46" fill-rule="nonzero"/><path d="M149.31 390.98l-35.385 40.14 20.597-31.16 14.788-8.98zM165.27 383.192v-7.923l80.167 14.39 25.087 20.862-2.906 26.67-6.865 3.435.528-10.3-8.448-16.9.528-6.6-6.97 2.9-18.382-10.56-12.76-3.738-4.667-5.43-.36 3.61-44.95-10.418z" fill="#35833f" fill-rule="nonzero"/><path d="M165.66 375.37l79.913 14.357 15.15 12.675-12.813-2.758-1.243-5.037-2.16 3.14-13.895-6.814-1.292-1.868-5.806-.352-57.854-13.344z" fill="#8abb6b" fill-rule="nonzero"/><path d="M163.31 383.588l5.72-9.11-32.655-38.818-27.132-9.11-30.698 2.18-12.674 14.655 11.487-1.388 6.535-9.11-.198 8.12 21.786-.79 9.902 4.752 5.743.593-2.97 1.188 23.172 15.647 21.983 21.19z" fill="#35833f" fill-rule="nonzero"/><path d="M155.95 375l-33.045 12.285 11.618 12.674 28.783-16.372L155.95 375z" fill="#35833f" fill-rule="nonzero" opacity=".5"/><path d="M168.53 374.478l24.68-33.562 33.935 9.155-24.692 9.43-12.5 9.75-21.423 5.228z" fill="#35833f" fill-rule="nonzero" opacity=".4"/><path d="M166.06 375.47l64.653-23.202 27.285.934 13.403 24.37-2.144 25.093-15.19-28.344-9.49-.18-10.385-10.614 3.996 10.49-52.35 6.14-4.747-3.287 1.433 4.132-19.313 2.893 2.85-8.426zM236.29 320.833l45.652.72-35.002-5.43-10.65 4.71z" fill="#8abb6b" fill-rule="nonzero"/><path d="M178.45 327.5l-12.25 44 2.327 3.478 11.423-15.728-1.5-31.75z" fill="#35833f" fill-rule="nonzero"/><path d="M210.45 359.75l20-2.5 27.127-3.238-26.867-1.744-20.26 7.482z" fill="#689d46" fill-rule="nonzero"/><path d="M259.1 265.947l1.188 4.753-58.998 8.133 11.077-14.074 46.733 1.187z" fill="#8abb6b" fill-rule="nonzero" opacity=".4"/><path d="M156.55 352.617l3.404 11.217 6.167 7.333 4.168-14.25-1.75-18.583-7.834 13.833-4.154.45z" fill="#689d46" fill-rule="nonzero"/><path d="M33.95 346.75l10.66 17.165-38.555 2.112 10.828-11.09 17.067-8.187z" fill="#8abb6b" fill-rule="nonzero"/><path d="M121.32 371.31l-53.87 23.37-.5 8.486 54.37-31.857z" fill="#689d46" fill-rule="nonzero"/></svg>