<svg viewBox="0 160 288 260" xmlns="http://www.w3.org/2000/svg" fill-rule="evenodd" clip-rule="evenodd" stroke-linejoin="round" stroke-miterlimit="1.414"><path d="M199.57 277.996l13.65-2.45 2.8-7.28-15.26-2.66-1.26 6.72-2.32 2.34 2.39 3.33z" fill="#E4E2DC" fill-rule="nonzero"/><path d="M199.584 278l-2.327-3.494 2.26-2.185 1.268-6.696 1.297.208 6.62 10.502-9.118 1.666z" fill="#C1BEBB" fill-rule="nonzero"/><path d="M71.98 268.173l2.8 7.28 13.65 2.45 2.39-3.332-2.32-2.338-1.26-6.72-15.26 2.66z" fill="#E4E2DC" fill-rule="nonzero"/><path d="M88.447 277.9l2.327-3.494-2.26-2.185-1.268-6.696-1.297.21-6.642 10.53 9.14 1.636z" fill="#C1BEBB" fill-rule="nonzero"/><path d="M75.87 340.468L77.55 360h19.32l3.992-19.742-24.992.21z" fill="#5C5E5F" fill-rule="nonzero"/><path d="M96.032 340.26l.84 19.74 5.992-19.74h-6.832z" fill="#2A2B2A" fill-rule="nonzero"/><path d="M189.338 360h19.35l1.68-19.32-24.993-.212L189.338 360z" fill="#5C5E5F" fill-rule="nonzero"/><path d="M183.374 340.468L189.338 360l.87-19.532h-6.834z" fill="#2A2B2A" fill-rule="nonzero"/><path d="M101.448 240.888l-15.668 31.11-11.31 17.334-1.14 7.387 2.52 43.693 1.89.007 132.636.468 3.796-43.9-.79-6.124-11.104-18.135-15.61-31.842-20.697-3h-41.565l-22.957 3z" fill="#E4E2DC" fill-rule="nonzero"/><path d="M104.938 244.98L89.308 275h107.926l-13.67-30.02h-78.626z" fill="#313156" fill-rule="nonzero"/><path d="M104.973 244.98L89.31 275h27.973l29.913-30.02h-42.223z" fill="#0F2342" fill-rule="nonzero" opacity=".3"/><path d="M183.605 244.98h-3.656L149.73 275h47.504l-13.63-30.02z" fill="#0A1723" fill-rule="nonzero" opacity=".3"/><path d="M150.27 275l29.677-30.02h-8.287L142.545 275h7.726z" fill="#494A72" fill-rule="nonzero"/><path d="M73.33 297.5l.867 14.5 28.12-.027 1.05-14.51-30.037.038z" fill="#FEC" fill-rule="nonzero"/><path d="M103.368 297.462l7.57 12.83-8.622 1.68 1.052-14.51z" fill="#EF9C74" fill-rule="nonzero"/><path d="M214.13 297.5l-1.263 14.46-27.344.013-1.052-14.51 29.66.038z" fill="#FEC" fill-rule="nonzero"/><path d="M184.47 297.462l-5.817 12.83 6.87 1.68-1.052-14.51z" fill="#EF9C74" fill-rule="nonzero"/><path d="M184.438 297.502l-81.06-.043 7.604 12.83h67.715l5.74-12.788zM90.605 326.73l-6.43 9.002 59.155.987 59-.88-3.857-9.002-54.714.02-53.155-.128z" fill="#2A2B2A" fill-rule="nonzero"/><path d="M115.73 330.268l3.858 3.43 48.872.428 3.43-4.286-56.16.428zM97.577 331.554c0 1.896-1.536 3.43-3.43 3.43-1.894 0-3.43-1.534-3.43-3.43 0-1.895 1.536-3.43 3.43-3.43 1.894 0 3.43 1.535 3.43 3.43M197.33 331.554c0 1.896-1.537 3.43-3.43 3.43-1.896 0-3.43-1.534-3.43-3.43 0-1.895 1.534-3.43 3.43-3.43 1.893 0 3.43 1.535 3.43 3.43M179.98 300.345l-1.913 1.552-68.056.05-2.574-1.89 72.545.288zM179.552 303.56l-1.913 1.552-65.772.05-2.575-1.89 70.26.288zM178.84 306.77l-1.915 1.55-63.913.056-2.575-1.888 68.402.28z" fill="#5C5E5F" fill-rule="nonzero"/><path d="M150.884 303.614c0 4.145-3.36 7.503-7.502 7.503-4.144 0-7.503-3.358-7.503-7.503 0-4.144 3.358-7.502 7.502-7.502 4.142 0 7.502 3.358 7.502 7.502" fill="#5C5E5F" fill-rule="nonzero"/><path d="M99.005 304.864c0 2.724-2.207 4.93-4.93 4.93-2.724 0-4.93-2.206-4.93-4.93 0-2.722 2.206-4.93 4.93-4.93 2.723 0 4.93 2.208 4.93 4.93M198.044 304.72c0 2.725-2.207 4.932-4.93 4.932-2.724 0-4.93-2.207-4.93-4.93s2.206-4.93 4.93-4.93c2.723 0 4.93 2.207 4.93 4.93" fill="#F6F1E1" fill-rule="nonzero"/></svg>