<svg viewBox="0 160 288 260" xmlns="http://www.w3.org/2000/svg" fill-rule="evenodd" clip-rule="evenodd" stroke-linejoin="round" stroke-miterlimit="1.414"><path d="M199.57 277.996l13.65-2.45 2.8-7.28-15.26-2.66-1.26 6.72-2.32 2.34 2.39 3.33z" fill="#e4e2dc" fill-rule="nonzero"/><path d="M199.584 278l-2.327-3.494 2.26-2.185 1.268-6.696 1.297.208 6.62 10.502-9.118 1.666z" fill="#c1bebb" fill-rule="nonzero"/><path d="M71.98 268.173l2.8 7.28 13.65 2.45 2.39-3.332-2.32-2.338-1.26-6.72-15.26 2.66z" fill="#e4e2dc" fill-rule="nonzero"/><path d="M88.447 277.9l2.327-3.494-2.26-2.185-1.268-6.696-1.297.208-6.642 10.53 9.14 1.638z" fill="#c1bebb" fill-rule="nonzero"/><path d="M75.87 340.468L77.55 360h19.32l3.992-19.742-24.992.21z" fill="#5c5e5f" fill-rule="nonzero"/><path d="M96.03 340.258L96.87 360l5.993-19.742H96.03z" fill="#2a2b2a" fill-rule="nonzero"/><path d="M189.338 360h19.35l1.68-19.32-24.993-.212L189.338 360z" fill="#5c5e5f" fill-rule="nonzero"/><path d="M183.374 340.468L189.338 360l.87-19.532h-6.834z" fill="#2a2b2a" fill-rule="nonzero"/><path d="M101.448 240.888l-28.118 55.83 2.52 43.695 1.89.006 132.636.468 3.796-43.9-27.505-56.1h-85.22z" fill="#e4e2dc" fill-rule="nonzero"/><path d="M104.938 244.98L89.308 275h107.925l-13.67-30.02H104.94z" fill="#313156" fill-rule="nonzero"/><path d="M104.974 244.98L89.308 275h27.976l29.91-30.02h-42.22z" fill="#0f2342" fill-rule="nonzero" opacity=".3"/><path d="M183.605 244.98h-3.656L149.73 275h47.504l-13.63-30.02z" fill="#0a1723" fill-rule="nonzero" opacity=".3"/><path d="M150.27 275l29.678-30.02h-8.287L142.547 275h7.725z" fill="#494a72" fill-rule="nonzero"/><path d="M73.33 297.5l.867 14.5 28.12-.027 1.05-14.51-30.037.038z" fill="#f6f1e1" fill-rule="nonzero"/><path d="M103.368 297.462l7.57 12.83-8.622 1.68 1.052-14.51z" fill="#ef9c74" fill-rule="nonzero"/><path d="M214.13 297.5l-1.264 14.46-27.344.013-1.052-14.51 29.66.038z" fill="#f6f1e1" fill-rule="nonzero"/><path d="M184.47 297.462l-5.817 12.83 6.87 1.68-1.052-14.51z" fill="#ef9c74" fill-rule="nonzero"/><path d="M184.438 297.502l-81.06-.043 7.604 12.83h67.715l5.74-12.788z" fill="#2a2b2a" fill-rule="nonzero"/><path d="M178.768 301.575l-1.926 3.936-64.038.056-2.592-4.272 68.556.28z" fill="#5c5e5f" fill-rule="nonzero"/></svg>