<?xml version="1.0" standalone="no"?><!DOCTYPE svg PUBLIC "-//W3C//DTD SVG 1.1//EN" "http://www.w3.org/Graphics/SVG/1.1/DTD/svg11.dtd"><svg width="336px" height="744px" version="1.1" xmlns="http://www.w3.org/2000/svg" xmlns:xlink="http://www.w3.org/1999/xlink" xml:space="preserve" style="fill-rule:evenodd;clip-rule:evenodd;stroke-linejoin:round;stroke-miterlimit:1.41421;"><g><g id="palm-tree" transform="matrix(1,0,0,1,0,144)"><g transform="matrix(1,0,0,1,-1985.9,-263.5)"><path d="M2084.51,562.238l-0.528,7.922l20.868,-27.66l-13.5,6l-6.84,13.738Z" style="fill:#8eaf44;fill-rule:nonzero;"/></g><g transform="matrix(1,0,0,1,-1985.9,-263.5)"><path d="M2151.19,495.166l22.182,-81.199l24.557,-29.708l46.734,1.188l1.188,4.753l-20.986,8.319l-3.169,-3.169l-0.396,2.773l-25.747,22.18l-5.1,11.554l-6.254,4.176l3.979,0.973l-28.495,59.547l-8.493,-1.387Z" style="fill:#689d46;fill-rule:nonzero;"/></g><g transform="matrix(1,0,0,1,-1985.9,-263.5)"><path d="M2246.72,560.027l-8.021,-27.133l9.952,17.639l-1.931,9.494Z" style="fill:#8abb6b;fill-rule:nonzero;"/></g><g transform="matrix(1,0,0,1,-1985.9,-263.5)"><path d="M2146.8,501.531l7.088,-11.516l25.724,-29.599l53.228,-24.794l35.002,5.43l-20.167,15.139l-6.87,-1.373l-2.386,1.928l1.68,4.186l-19.966,6.127l-12.034,-3.581l5.448,6.092l-24.869,9.477l-23.544,17.591l-4.047,-0.413l0.442,2.687l-8.821,5.836l-5.908,-3.217Z" style="fill:#689d46;fill-rule:nonzero;"/></g><g transform="matrix(1,0,0,1,-1985.9,-263.5)"><path d="M2159.9,493.185l-85.029,-35.385l-40.667,1.057l-31.423,15.58l-10.827,11.09l38.553,-2.113l4.753,-2.375l1.321,3.167l50.965,-3.696l45.948,11.883l26.406,0.792Z" style="fill:#689d46;fill-rule:nonzero;"/></g><g transform="matrix(1,0,0,1,-1985.9,-263.5)"><path d="M2149.21,503.088l-4.668,143.787l1.896,75.651l-5.46,93.724l-0.878,47.25l29.311,0l-2.016,-67.299l-6.542,-88.117l3.814,-81.271l-6.741,-128.875l-8.716,5.15Z" style="fill:#7d705a;fill-rule:nonzero;"/></g><g transform="matrix(1,0,0,1,-1985.9,-263.5)"><path d="M2155.28,501.107l-4.884,0.265l-6.866,-19.674l0.792,-0.396l-4.889,-2.64l-12.606,-45.287l11.023,-3.625l-16.7,-5.634l-3.235,-6.982l-33.565,-2.384l27.623,-14.649l15.053,10.151l15.052,17.693l13.202,73.162Z" style="fill:#35833f;fill-rule:nonzero;"/></g><g transform="matrix(1,0,0,1,-1985.9,-263.5)"><path d="M2158.27,500.992l-6.383,-74.447l-12.087,-24.479l-27.726,-2.178l-21.985,12.286l32.084,2.172l4.178,7.154l15.875,6.25l-13.234,0.943l12.109,38.182l5.701,4.846l-4.356,0.396l9.109,29.305l6.715,-0.43Z" style="fill:#8abb6b;fill-rule:nonzero;"/></g><g transform="matrix(1,0,0,1,-1985.9,-263.5)"><path d="M2067.88,536.097l15.58,-2.376l66.941,-32.349l-36.837,3.301l-45.684,31.424Z" style="fill:#35833f;fill-rule:nonzero;"/></g><g transform="matrix(1,0,0,1,-1985.9,-263.5)"><path d="M2159.75,493.543l-13.317,-2.338l-39.214,-0.396l-53.87,23.37l-19.162,29.791l24.709,-5.043l3.531,-6.052l3.024,-0.504l2.019,4.034l17.831,-10.871l29.841,-15.581l28.783,-5.941l2.376,-3.3l1.716,2.112l10.22,-2.726l1.513,-6.555Z" style="fill:#8abb6b;fill-rule:nonzero;"/></g><g transform="matrix(1,0,0,1,-1985.9,-263.5)"><path d="M2146.43,722.917l-5.331,93.833l19.832,-108.415" style="fill:#64594a;fill-rule:nonzero;"/></g><g transform="matrix(1,0,0,1,-1985.9,-263.5)"><path d="M2164.66,626.812l-20.125,20.125l14.688,-123.75l5.437,103.625Z" style="fill:#998c75;fill-rule:nonzero;"/></g><g transform="matrix(1,0,0,1,-1985.9,-263.5)"><path d="M2160.83,491.998l55.784,-20.23l26.867,1.744l2.907,5.547l-9.507,-2.114l-6.603,1.585l-13.467,0.264l-55.981,13.204Z" style="fill:#007043;fill-rule:nonzero;"/></g><g transform="matrix(1,0,0,1,-1985.9,-263.5)"><path d="M2151.06,491.998l-42.25,14.787l-24.295,55.453l-0.528,7.922l15.844,-19.541l20.597,-31.16l30.939,-17.361l-0.307,-10.1Z" style="fill:#689d46;fill-rule:nonzero;"/></g><g transform="matrix(1,0,0,1,-1985.9,-263.5)"><path d="M2135.21,510.481l-35.385,40.139l20.597,-31.16l14.788,-8.979Z" style="fill:#35833f;fill-rule:nonzero;"/></g><g transform="matrix(1,0,0,1,-1985.9,-263.5)"><path d="M2151.17,502.692l0,-7.923l80.167,14.392l25.087,20.861l-2.906,26.671l-6.865,3.434l0.528,-10.299l-8.449,-16.901l0.528,-6.601l-6.97,2.9l-18.382,-10.558l-12.759,-3.739l-4.668,-5.429l-0.362,3.61l-44.949,-10.418Z" style="fill:#35833f;fill-rule:nonzero;"/></g><g transform="matrix(1,0,0,1,-1985.9,-263.5)"><path d="M2151.56,494.869l79.913,14.358l15.15,12.675l-12.813,-2.758l-1.243,-5.037l-2.161,3.139l-13.894,-6.813l-1.292,-1.868l-5.806,-0.352l-57.854,-13.344Z" style="fill:#8abb6b;fill-rule:nonzero;"/></g><g transform="matrix(1,0,0,1,-1985.9,-263.5)"><path d="M2149.21,503.088l5.721,-9.11l-32.656,-38.818l-27.132,-9.11l-30.698,2.179l-12.674,14.656l11.486,-1.388l6.535,-9.11l-0.198,8.121l21.786,-0.792l9.902,4.753l5.743,0.594l-2.97,1.188l23.172,15.646l21.983,21.191Z" style="fill:#35833f;fill-rule:nonzero;"/></g><g transform="matrix(1,0,0,1,-1985.9,-263.5)"><g opacity="0.5"><path d="M2141.85,494.5l-33.045,12.285l11.618,12.674l28.783,-16.371l-7.356,-8.588Z" style="fill:#35833f;fill-rule:nonzero;"/></g></g><g transform="matrix(1,0,0,1,-1985.9,-263.5)"><g opacity="0.399994"><path d="M2154.43,493.978l24.68,-33.562l33.935,9.155l-24.692,9.429l-12.5,9.75l-21.423,5.228Z" style="fill:#35833f;fill-rule:nonzero;"/></g></g><g transform="matrix(1,0,0,1,-1985.9,-263.5)"><path d="M2151.96,494.969l64.653,-23.201l27.285,0.934l13.403,24.371l-2.145,25.092l-15.191,-28.344l-9.49,-0.182l-10.384,-10.613l3.995,10.491l-52.35,6.14l-4.747,-3.288l1.434,4.133l-19.313,2.893l2.85,-8.426Z" style="fill:#8abb6b;fill-rule:nonzero;"/></g><g transform="matrix(1,0,0,1,-1985.9,-263.5)"><path d="M2222.19,440.333l45.652,0.72l-35.002,-5.431l-10.65,4.711Z" style="fill:#8abb6b;fill-rule:nonzero;"/></g><g transform="matrix(1,0,0,1,-1985.9,-263.5)"><path d="M2164.35,447l-12.25,44l2.327,3.478l11.423,-15.728l-1.5,-31.75Z" style="fill:#35833f;fill-rule:nonzero;"/></g><g transform="matrix(1,0,0,1,-1985.9,-263.5)"><path d="M2196.35,479.25l20,-2.5l27.127,-3.238l-26.867,-1.744l-20.26,7.482Z" style="fill:#689d46;fill-rule:nonzero;"/></g><g transform="matrix(1,0,0,1,-1985.9,-263.5)"><g opacity="0.399994"><path d="M2245,385.447l1.188,4.753l-58.998,8.133l11.077,-14.074l46.733,1.188Z" style="fill:#8abb6b;fill-rule:nonzero;"/></g></g><g transform="matrix(1,0,0,1,-1985.9,-263.5)"><path d="M2142.45,472.117l3.404,11.217l6.167,7.333l4.167,-14.25l-1.75,-18.583l-7.834,13.833l-4.154,0.45Z" style="fill:#689d46;fill-rule:nonzero;"/></g><g transform="matrix(1,0,0,1,-1985.9,-263.5)"><path d="M2019.85,466.25l10.659,17.165l-38.554,2.112l10.828,-11.089l17.067,-8.188Z" style="fill:#8abb6b;fill-rule:nonzero;"/></g><g transform="matrix(1,0,0,1,-1985.9,-263.5)"><path d="M2107.22,490.809l-53.87,23.37l-0.499,8.487l54.369,-31.857Z" style="fill:#689d46;fill-rule:nonzero;"/></g></g></g></svg>