<?xml version="1.0" encoding="UTF-8" standalone="no"?>
<!DOCTYPE svg PUBLIC "-//W3C//DTD SVG 1.1//EN" "http://www.w3.org/Graphics/SVG/1.1/DTD/svg11.dtd">
<svg width="100%" height="100%" viewBox="0 0 241 205" version="1.1" xmlns="http://www.w3.org/2000/svg" xmlns:xlink="http://www.w3.org/1999/xlink" xml:space="preserve" xmlns:serif="http://www.serif.com/" style="fill-rule:evenodd;clip-rule:evenodd;stroke-linejoin:round;stroke-miterlimit:2;">
    <g transform="matrix(1,0,0,1,-16.456,-35.595)">
        <g transform="matrix(1,0,0,1,-1,0)">
            <path d="M147.748,105.799L141.767,107.678L182.5,240L189.436,238.805L147.748,105.799Z" style="fill:rgb(86,64,56);fill-rule:nonzero;"/>
        </g>
        <g transform="matrix(1,0,0,1,-1,0)">
            <path d="M119.321,35.595L17.54,120.639L20.832,139.723L107.777,119.37L255.644,69.959L247.028,51.097L119.321,35.595Z" style="fill:rgb(79,131,163);fill-rule:nonzero;"/>
        </g>
        <g transform="matrix(1,0,0,1,-1,0)">
            <path d="M119.262,35.613L103.221,98.728L246.939,51.03L119.262,35.613Z" style="fill:rgb(35,76,107);fill-rule:nonzero;"/>
        </g>
        <g transform="matrix(1,0,0,1,-1,0)">
            <path d="M17.456,120.664L103.221,98.73L107.817,119.357L20.831,139.723L17.456,120.664Z" style="fill:rgb(35,76,107);fill-rule:nonzero;"/>
        </g>
        <g transform="matrix(1,0,0,1,-1,0)">
            <path d="M156.5,198.5L186,203.5L232.5,206.5L232.5,212.492L174.094,212.564L148.536,212.492L139,198.5L156.5,198.5Z" style="fill:rgb(206,172,152);fill-rule:nonzero;"/>
        </g>
        <g transform="matrix(1,0,0,1,-1,0)">
            <path d="M234.5,196.5L232,207L232,212L237,212L238.5,194.5L234.5,196.5Z" style="fill:rgb(206,172,152);fill-rule:nonzero;"/>
        </g>
        <g transform="matrix(1,0,0,1,-1,0)">
            <path d="M148.627,211.983L132.257,219.129L109.198,179.398L118.55,175.386L132.501,183.212L135.71,190.66L148.627,211.983Z" style="fill:rgb(206,172,152);fill-rule:nonzero;"/>
        </g>
        <g transform="matrix(1,0,0,1,-1,0)">
            <path d="M110.866,176.72L111.811,168.438L118.862,168.88L120.989,176.123L125.867,181.679L110.866,176.72Z" style="fill:rgb(206,171,151);fill-rule:nonzero;"/>
        </g>
        <g transform="matrix(1,0,0,1,-1,0)">
            <path d="M177.5,230.5L179,240L194,240L188,227L177.5,230.5Z" style="fill:rgb(42,43,42);fill-rule:nonzero;"/>
        </g>
        <g transform="matrix(1,0,0,1,-1,0)">
            <path d="M100,166L123.465,219.5L118.069,240.06L123.465,240.06L129.481,218.644L245.995,218.685L251.838,240.06L257.5,240.06L250.175,212.228L128.769,212.281L103.276,164.5L100,166Z" style="fill:rgb(35,76,107);fill-rule:nonzero;"/>
        </g>
        <g transform="matrix(1,0,0,1,-1,0)">
            <path d="M109.874,173.366L101.645,164.149L116.733,152.192L123.523,160.781L121.411,162.065L123.49,169.094L116.775,171.108" style="fill:rgb(225,197,181);fill-rule:nonzero;"/>
        </g>
        <g transform="matrix(1,0,0,1,-1,0)">
            <path d="M115,186.5L126.5,180L133.5,183L135.5,191L121.5,199L115,186.5Z" style="fill:rgb(103,154,69);fill-rule:nonzero;"/>
        </g>
        <g transform="matrix(1,0,0,1,-1,0)">
            <path d="M127.5,210L140.5,198L148.5,198.5L143,212.5L128.5,212.5L127.5,210Z" style="fill:rgb(103,154,69);fill-rule:nonzero;"/>
        </g>
        <g transform="matrix(1,0,0,1,-1,0)">
            <path d="M122,182.5L114.5,180L114.5,187.317L139.952,203.371L168,203.371L165.5,199L140.357,196.965L122,182.5Z" style="fill:rgb(225,197,181);fill-rule:nonzero;"/>
        </g>
        <g transform="matrix(1,0,0,1,-1,0)">
            <path d="M118.678,153.24L114.218,162.412L111.197,161.979L108.093,163.199L111.397,167.7L114.56,166.522L116.37,186.214L108.819,189.352L99.961,157.696L106.229,149.774L114.904,148.412L118.678,153.24Z" style="fill:rgb(42,43,42);fill-rule:nonzero;"/>
        </g>
        <g transform="matrix(1,0,0,1,-1,0)">
            <path d="M158.37,214.556L148.21,211.779L146.517,228.367L143.765,228.367L146.225,209L158.37,211.541L158.37,214.556Z" style="fill:rgb(245,243,233);fill-rule:nonzero;"/>
        </g>
        <g transform="matrix(1,0,0,1,-1,0)">
            <path d="M139,219.952L141.201,239.002L149.799,239.002L151.476,219.952L139,219.952Z" style="fill:rgb(245,243,233);fill-rule:nonzero;"/>
        </g>
        <g transform="matrix(1,0,0,1,-1,0)">
            <path d="M139.441,223.743L151.128,223.723L149.799,239.797L140.927,239.775L139.441,223.743Z" style="fill:rgb(239,156,116);fill-rule:nonzero;"/>
        </g>
    </g>
</svg>
