<?xml version="1.0" encoding="UTF-8" standalone="no"?>
<!DOCTYPE svg PUBLIC "-//W3C//DTD SVG 1.1//EN" "http://www.w3.org/Graphics/SVG/1.1/DTD/svg11.dtd">
<svg width="100%" height="100%" viewBox="0 0 24 24" version="1.1" xmlns="http://www.w3.org/2000/svg" xmlns:xlink="http://www.w3.org/1999/xlink" xml:space="preserve" xmlns:serif="http://www.serif.com/" style="fill-rule:evenodd;clip-rule:evenodd;stroke-linecap:round;stroke-linejoin:round;">
    <g id="right-slope" serif:id="right slope">
        <g transform="matrix(1,0,0,1,7.99939,-13.4158)">
            <path d="M12,14.416L12,20.416" style="fill:none;fill-rule:nonzero;stroke:rgb(110,107,108);stroke-width:1.5px;"/>
            <path d="M10.001,18.416L12,20.416L14.001,18.416" style="fill:none;fill-rule:nonzero;stroke:rgb(110,107,108);stroke-width:1.5px;"/>
        </g>
        <g transform="matrix(1,0,0,1,7.99939,7)">
            <path d="M10,5C10,6.097 10.903,7 12,7C13.097,7 14,6.097 14,5C14,3.903 13.097,3 12,3C10.903,3 10,3.903 10,5" style="fill:none;fill-rule:nonzero;stroke:rgb(110,107,108);stroke-width:1.5px;"/>
        </g>
        <g transform="matrix(1,0,0,0.838422,2.51616e-07,6.46821)">
            <path d="M4,12.561C4,12.561 3.999,12.324 3.999,11.651C3.999,11.651 17.999,7.316 17.999,7.317" style="fill:none;fill-rule:nonzero;stroke:rgb(110,107,108);stroke-width:1.63px;"/>
        </g>
        <path d="M20,14L20,18C20,19.097 19.097,20 18,20L6,20C4.903,20 4,19.097 4,18L3.999,17" style="fill:none;fill-rule:nonzero;stroke:rgb(110,107,108);stroke-width:1.5px;"/>
    </g>
</svg>
