<?xml version="1.0" encoding="UTF-8" standalone="no"?>
<!DOCTYPE svg PUBLIC "-//W3C//DTD SVG 1.1//EN" "http://www.w3.org/Graphics/SVG/1.1/DTD/svg11.dtd">
<svg width="100%" height="100%" viewBox="0 0 130 190" version="1.1" xmlns="http://www.w3.org/2000/svg" xmlns:xlink="http://www.w3.org/1999/xlink" xml:space="preserve" xmlns:serif="http://www.serif.com/" style="fill-rule:evenodd;clip-rule:evenodd;stroke-linejoin:round;stroke-miterlimit:2;">
    <g id="pride-banner-left" transform="matrix(1.27,0,0,1.27,5.04,6.12)">
        <g transform="matrix(1,0,0,1,2.3622,0.787402)">
            <path d="M15.268,2.467L4.628,2.467L3.446,140.554L14.086,140.554L15.268,2.467Z" style="fill:rgb(174,32,37);"/>
        </g>
        <g transform="matrix(1,0,0,1,2.3622,0.787402)">
            <path d="M24.909,2.467L14.268,2.467L13.086,140.554L23.727,140.554L24.909,2.467Z" style="fill:rgb(241,158,117);"/>
        </g>
        <g transform="matrix(1,0,0,1,2.3622,0.787402)">
            <path d="M35.893,2.467L23.909,2.467L22.727,140.554L33.368,140.554L35.893,2.467Z" style="fill:rgb(255,232,118);"/>
        </g>
        <g transform="matrix(1,0,0,1,2.3622,0.787402)">
            <path d="M45.876,2.467L33.893,2.467L32.368,140.554L43.008,140.554L45.876,2.467Z" style="fill:rgb(103,154,69);"/>
        </g>
        <g transform="matrix(1,0,0,1,2.3622,0.787402)">
            <path d="M55.517,2.467L44.876,2.467L42.008,140.554L52.649,140.554L55.517,2.467Z" style="fill:rgb(54,99,135);"/>
        </g>
        <g transform="matrix(1,0,0,1,2.3622,0.787402)">
            <path d="M63.633,2.467L53.517,2.467L51.649,140.554L61.29,140.554L63.633,2.467Z" style="fill:rgb(50,49,86);"/>
        </g>
        <g transform="matrix(1,0,0,1,2.3622,0.787402)">
            <path d="M2.3,0L92.929,0L92,4.496L2.958,3.839L2.3,0Z" style="fill:rgb(92,94,95);"/>
        </g>
        <g transform="matrix(1,0,0,1,2.3622,0.787402)">
            <path d="M1.837,139.609L95.343,138.952L96,144L1.18,144L1.837,139.609Z" style="fill:rgb(92,94,95);"/>
        </g>
    </g>
</svg>
