<?xml version="1.0" standalone="no"?><!DOCTYPE svg PUBLIC "-//W3C//DTD SVG 1.1//EN" "http://www.w3.org/Graphics/SVG/1.1/DTD/svg11.dtd"><svg width="96px" height="168px" version="1.1" xmlns="http://www.w3.org/2000/svg" xmlns:xlink="http://www.w3.org/1999/xlink" xml:space="preserve" style="fill-rule:evenodd;clip-rule:evenodd;stroke-linejoin:round;stroke-miterlimit:1.41421;"><g><g id="planter-box" transform="matrix(1.07053,5.26742e-32,5.25779e-32,1.07053,-3.38552,10.1201)"><g id="flowers" transform="matrix(0.934115,-4.5962e-32,-4.5878e-32,0.934115,0.953426,-10.3874)"><g transform="matrix(1,0,0,1,-143.17,48.9927)"><path d="M192.54,56.6943l2.303,0l0.422,14.623l-4.453,0.69l1.728,-15.313Z" style="fill:#679a45;fill-rule:nonzero;"/></g><g transform="matrix(1,0,0,1,-143.17,48.9927)"><path d="M175.807,36.6621l2.381,-0.233l0.095,30.344l-4.456,1.05l1.98,-31.161Z" style="fill:#679a45;fill-rule:nonzero;"/></g><g transform="matrix(1,0,0,1,-143.17,48.9927)"><path d="M206.598,40.4355l2.383,-0.253l-0.003,26.825l-4.46,1.164l2.08,-27.736Z" style="fill:#679a45;fill-rule:nonzero;"/></g><g transform="matrix(1,0,0,1,-143.17,48.9927)"><path d="M201.594,41.0703l-3.127,-9.402l18.691,-0.036l-3.043,9.479l-12.521,-0.041Z" style="fill:#ae2025;fill-rule:nonzero;"/></g><g transform="matrix(1,0,0,1,-143.17,48.9927)"><path d="M170.594,36.5732l-3.127,-9.402l18.691,-0.036l-3.043,9.479l-12.521,-0.041Z" style="fill:#ae2025;fill-rule:nonzero;"/></g><g transform="matrix(1,0,0,1,-143.17,48.9927)"><path d="M187.344,56.8203l-3.127,-9.402l18.691,-0.036l-3.043,9.479l-12.521,-0.041Z" style="fill:#ae2025;fill-rule:nonzero;"/></g><g transform="matrix(1,0,0,1,-143.17,48.9927)"><path d="M207.324,48.1181l-11.852,-5.456l-3.207,1.495l1.637,-4.758l12.418,5.421" style="fill:#679a45;fill-rule:nonzero;"/></g><g transform="matrix(1,0,0,1,-143.17,48.9927)"><path d="M205.372,59.5019l10.627,-11.778l8.474,5.146l-7.683,-1.683l-8.424,8.757l-2.994,-0.442Z" style="fill:#679a45;fill-rule:nonzero;"/></g><g transform="matrix(1,0,0,1,-143.17,48.9927)"><path d="M176.187,46.9707l7.994,-3.68l3.207,1.495l-1.637,-4.757l-9.968,4.228" style="fill:#679a45;fill-rule:nonzero;"/></g><g transform="matrix(1,0,0,1,-143.17,48.9927)"><path d="M177.709,62.0801l-5.156,-20.623l-5.956,-0.297l3.258,2.995l4.589,21.21l3.265,-3.285Z" style="fill:#679a45;fill-rule:nonzero;"/></g></g><g id="grass" transform="matrix(0.934115,-4.5962e-32,-4.5878e-32,0.934115,3.16247,-8.98627)"><g transform="matrix(1,0,0,1,-6.1702,52.6016)"><path d="M10.3462,70.3984l-0.349,-8.456l5.704,-1.363l3.142,2.182l1.165,-3.274l3.609,0.819l1.164,-3.274l6.723,2.663l1.397,0.273l13.298,-2.936c0,0 8.029,6.417 8.612,6.69c0.582,0.273 19.788,-3.273 19.788,-3.273l3.841,-3.417l8.728,4.235l9.314,1.909l1.861,6.405l-87.997,0.817Z" style="fill:#679a45;fill-rule:nonzero;"/></g><g transform="matrix(1,0,0,1,-6.1702,52.6016)"><path d="M13.1987,68.3535l3.726,-5.864l6.139,5.932l-9.865,-0.068Z" style="fill:#35813f;fill-rule:nonzero;"/></g><g transform="matrix(1,0,0,1,-6.1702,52.6016)"><path d="M30.5425,68.3535l2.647,-3.273l1.747,0l4.627,-2.661l1.133,3.069l12.049,-1.022l4.801,3.682l-27.004,0.205Z" style="fill:#35813f;fill-rule:nonzero;"/></g><g transform="matrix(1,0,0,1,-6.1702,52.6016)"><path d="M69.4204,67.9433l0.697,-1.908l5.005,-0.82l1.457,-2.045l11.87,4.978l-19.029,-0.205Z" style="fill:#35813f;fill-rule:nonzero;"/></g></g><g transform="matrix(4.79777,0,-4.37906e-47,4.79777,-949.037,-48.8303)"><path d="M201.594,41.0703l-3.127,-9.402l18.691,-0.036l-3.043,9.479l-12.521,-0.041Z" style="fill:#c1bebb;fill-rule:nonzero;"/></g></g></g></svg>