<?xml version="1.0" encoding="UTF-8" standalone="no"?>
<!DOCTYPE svg PUBLIC "-//W3C//DTD SVG 1.1//EN" "http://www.w3.org/Graphics/SVG/1.1/DTD/svg11.dtd">
<svg width="100%" height="100%" viewBox="0 0 70 120" version="1.1" xmlns="http://www.w3.org/2000/svg" xmlns:xlink="http://www.w3.org/1999/xlink" xml:space="preserve" xmlns:serif="http://www.serif.com/" style="fill-rule:evenodd;clip-rule:evenodd;stroke-linejoin:round;stroke-miterlimit:2;">
    <g id="jersey-barrier-plastic" transform="matrix(0.635,0,0,0.635,19.76,-32.4)">
        <g transform="matrix(2,0,0,2,-24,-96)">
            <path d="M0,168L1,158.378L13.086,133.74L16.772,92L31.069,91.9L33.862,133.36L47,157.785L48,168L0,168Z" style="fill:rgb(239,156,116);"/>
        </g>
        <g transform="matrix(2,0,0,2,-24.2359,-96)">
            <path d="M21.944,92L19.936,168L28.3,168L26.313,92L21.944,92Z" style="fill:rgb(168,109,81);"/>
        </g>
        <g transform="matrix(1.77928,0,0,-1.77928,-785.046,306.106)">
            <path d="M450.398,129.114L448.233,122.604L461.173,122.581L459.067,129.143L450.398,129.114Z" style="fill:rgb(252,209,87);fill-rule:nonzero;"/>
        </g>
    </g>
</svg>
