<?xml version="1.0" encoding="UTF-8" standalone="no"?><!DOCTYPE svg PUBLIC "-//W3C//DTD SVG 1.1//EN" "http://www.w3.org/Graphics/SVG/1.1/DTD/svg11.dtd"><svg width="100%" height="100%" viewBox="0 0 288 360" version="1.1" xmlns="http://www.w3.org/2000/svg" xmlns:xlink="http://www.w3.org/1999/xlink" xml:space="preserve" xmlns:serif="http://www.serif.com/" style="fill-rule:evenodd;clip-rule:evenodd;stroke-linejoin:round;stroke-miterlimit:2;"><g id="av-outbound"><path d="M151.02,215.189l-14.158,0l-1.873,-2.329l17.906,0l-1.875,2.329Z" style="fill:#2c2b29;fill-rule:nonzero;"/><path d="M158.502,208.594l-28.916,0l-1.875,-2.33l32.666,0l-1.875,2.33Z" style="fill:#2c2b29;fill-rule:nonzero;"/><path d="M165.984,201.999l-43.676,0l-1.874,-2.33l47.425,0l-1.875,2.33Z" style="fill:#2c2b29;fill-rule:nonzero;"/><path d="M96.005,360l14.345,-30.874l-11.742,-11.397l-2.603,42.271Z" style="fill:#2b2b2a;fill-rule:nonzero;"/><path d="M79.987,317.73l3.472,42.27l12.546,0l2.603,-42.27l-18.621,0Z" style="fill:#5c5f60;fill-rule:nonzero;"/><path d="M177.608,329.126l14.345,30.874l-2.604,-42.271l-11.741,11.397Z" style="fill:#2b2b2a;fill-rule:nonzero;"/><path d="M189.349,317.73l2.603,42.27l12.557,0l3.462,-42.27l-18.622,0Z" style="fill:#5c5f60;fill-rule:nonzero;"/><path d="M211.368,330.182l-3.293,9.556l5.885,0l-0.772,3.596l-9.849,2.728l0,-0.093l-0.032,0.093l-18.39,1.988l-25.156,2.717l-15.766,2.082l-19.259,-2.082l-25.071,-2.947l-14.993,-1.758l-9.859,-2.728l-0.764,-3.596l-2.038,-9.556l0,-0.022l5.196,-21.851l9.441,-5.781l-0.282,3.335l115.237,0.115l-0.282,-3.45l9.483,5.781l5.196,21.851l0,0.022l-4.632,0Z" style="fill:#e4e2dc;fill-rule:nonzero;"/><path d="M216,330.182l-2.039,9.556l-5.886,0l3.293,-9.556l4.632,0Z" style="fill:#e4e2dc;fill-rule:nonzero;"/><path d="M216,330.182l-2.039,9.556l-5.886,0l3.293,-9.556l4.632,0Z" style="fill:#f9bb24;fill-rule:nonzero;"/><path d="M79.925,339.749l-5.886,0l-2.039,-9.567l4.632,0l3.293,9.567Z" style="fill:#f9bb24;fill-rule:nonzero;"/><path d="M133.623,230.271l3.283,-9.556l14.157,0l3.282,9.556l-20.722,0Z" style="fill:#2b2b2a;fill-rule:nonzero;"/><path d="M201.603,305.977l-7.214,3.546l-100.684,0l-7.329,-3.66l0.126,-1.506l0.648,-8.039l0,-0.012l3.597,-43.933l1.359,-16.613l51.879,-7.549l51.878,7.549l0.491,6.001l0.105,1.339l0.44,5.416l3.909,47.79l0,0.012l0.795,9.659Z" style="fill:#282d51;fill-rule:nonzero;"/><path d="M184.917,348.049l-25.166,2.719l-15.766,2.08l-19.249,-2.08l-25.082,-2.938l4.036,-11.74l77.107,0l4.12,11.959Z" style="fill:#a19f9b;fill-rule:nonzero;"/><path d="M196.46,243.089l-51.159,53.217l-12.703,13.217l-38.892,0l-7.331,-3.66l0.127,-1.506l0.658,-8.051l3.587,-43.932l1.358,-16.624l51.88,-7.549l51.879,7.549l0.49,6.011l0.106,1.328Z" style="fill:#303055;fill-rule:nonzero;"/><path d="M196.899,248.516l-45.931,47.79l-12.692,13.216l-7.057,0l12.703,-13.216l52.432,-54.544l0.105,1.328l0.44,5.426Z" style="fill:#494a73;fill-rule:nonzero;"/><path d="M126.681,322.915l3.283,9.556l28.072,0l3.294,-9.556l-34.649,0Z" style="fill:#fff;fill-rule:nonzero;"/><path d="M88.128,284.221l-0.99,12.086l0,0.01l-0.647,8.04l-0.125,1.506l7.329,3.659l11.678,0l-8.698,-25.301l-8.547,0Z" style="fill:#ae2025;fill-rule:nonzero;"/><path d="M191.304,284.221l-8.699,25.301l11.773,0l7.214,-3.544l-0.794,-9.661l0,-0.01l-0.989,-12.086l-8.505,0Z" style="fill:#ae2025;fill-rule:nonzero;"/></g></svg>