<?xml version="1.0" standalone="no"?><!DOCTYPE svg PUBLIC "-//W3C//DTD SVG 1.1//EN" "http://www.w3.org/Graphics/SVG/1.1/DTD/svg11.dtd"><svg width="336px" height="144px" version="1.1" xmlns="http://www.w3.org/2000/svg" xmlns:xlink="http://www.w3.org/1999/xlink" xml:space="preserve" style="fill-rule:evenodd;clip-rule:evenodd;stroke-linejoin:round;stroke-miterlimit:1.41421;"><g><g id="car-sideways-right" transform="matrix(1,0,0,1,-46.7306,-468)"><path d="M353.871,587.352l-10.835,-27.003l-34.915,0l-11.413,26.336" style="fill:#5c5f60;fill-rule:nonzero;"/><path d="M162.371,587.352l-10.835,-27.003l-34.915,0l-11.413,26.336" style="fill:#5c5f60;fill-rule:nonzero;"/><path d="M353.871,588.852l-10.835,-27.003l-34.915,0l-11.413,26.336" style="fill:#5c5f60;fill-rule:nonzero;"/><path d="M162.371,588.852l-10.835,-27.003l-34.915,0l-11.413,26.336" style="fill:#5c5f60;fill-rule:nonzero;"/><path d="M367.746,592.98l9.375,-51.38l-75.511,-12.25l-65.332,-37.585l-157.27,0l-26.637,42.585l9.375,58.577l42.938,0.008l10.937,-25.772l34.625,0l10.541,25.855l134.5,-0.001l11.25,-25.667l34.834,-0.25l10.668,25.834l15.707,0.046Z" style="fill:#e4e2dc;fill-rule:nonzero;"/><path d="M350.375,588.84l17.48,3.557l-0.125,0.593l-15.774,0.009" style="fill:#f3f2ec;fill-rule:nonzero;"/><path d="M295.289,593.027l-136.354,0.072l-8.501,-25.937l-34.813,0l-11.188,25.776l-42.687,-0.008l-9.406,-58.674l29.656,-0.032l219.626,44.694l-6.333,14.109Z" style="fill:#f3f2ec;fill-rule:nonzero;"/><path d="M52.3867,534.24l2.234,14.391l21.934,0.013l5.426,-14.529l-29.594,0.125Z" style="fill:#ad2125;fill-rule:nonzero;"/><path d="M343.777,545.985l1.083,14.458l28.823,0.014l2.625,-14.511l-32.531,0.039Z" style="fill:#f6f1e1;fill-rule:nonzero;"/><path d="M52.3555,534.178l0.62,4.026l27.505,-0.042l1.516,-4.062l-29.641,0.078Z" style="fill:#fec;fill-rule:nonzero;"/><path d="M291.36,529.102l-56.751,-33.503l-114.142,0l-19.346,32.837l190.239,0.666Z" style="fill:#313156;fill-rule:nonzero;"/><path d="M76.623,495.602l17.094,-0.002l-36.764,31.375l19.67,-31.373Z" style="fill:#313156;fill-rule:nonzero;"/><path d="M192.913,493.224l-3.778,1.172l7.58,44.669l4.006,-0.834l-7.808,-45.007Z" style="fill:#e4e2dc;fill-rule:nonzero;"/><path d="M265.871,524.725l-0.396,4.292l-5.021,-0.021l0.501,-4.977l4.916,0.706Z" style="fill:#c0bdba;fill-rule:nonzero;"/><path d="M265.871,524.725l0.75,-7.875l-14.75,-2.75l-1.875,10.75l15.875,-0.125Z" style="fill:#e4e2dc;fill-rule:nonzero;"/><path d="M310.453,591.643c0,7.801 6.324,14.125 14.125,14.125c7.801,0 14.125,-6.324 14.125,-14.125c0,-7.801 -6.324,-14.125 -14.125,-14.125c-7.801,0 -14.125,6.324 -14.125,14.125" style="fill:#e3e1db;fill-rule:nonzero;"/><path d="M311.324,591.501c0,-7.021 5.691,-12.712 12.712,-12.712c7.02,0 12.712,5.691 12.712,12.712c0,7.02 -5.692,12.711 -12.712,12.711c-7.021,0 -12.712,-5.691 -12.712,-12.711M303.536,591.5c0,11.321 9.178,20.5 20.5,20.5c11.322,0 20.5,-9.179 20.5,-20.5c0,-11.321 -9.178,-20.5 -20.5,-20.5c-11.322,0 -20.5,9.179 -20.5,20.5" style="fill:#2a2b2a;fill-rule:nonzero;"/><path d="M118.788,591.643c0,7.801 6.324,14.125 14.125,14.125c7.801,0 14.125,-6.324 14.125,-14.125c0,-7.801 -6.324,-14.125 -14.125,-14.125c-7.801,0 -14.125,6.324 -14.125,14.125" style="fill:#e3e1db;fill-rule:nonzero;"/><path d="M119.659,591.501c0,-7.021 5.691,-12.712 12.712,-12.712c7.02,0 12.712,5.691 12.712,12.712c0,7.02 -5.692,12.711 -12.712,12.711c-7.021,0 -12.712,-5.691 -12.712,-12.711M111.871,591.5c0,11.321 9.178,20.5 20.5,20.5c11.322,0 20.5,-9.179 20.5,-20.5c0,-11.321 -9.178,-20.5 -20.5,-20.5c-11.322,0 -20.5,9.179 -20.5,20.5" style="fill:#2a2b2a;fill-rule:nonzero;"/></g></g></svg>