<?xml version="1.0" standalone="no"?><!DOCTYPE svg PUBLIC "-//W3C//DTD SVG 1.1//EN" "http://www.w3.org/Graphics/SVG/1.1/DTD/svg11.dtd"><svg width="336px" height="144px" version="1.1" xmlns="http://www.w3.org/2000/svg" xmlns:xlink="http://www.w3.org/1999/xlink" xml:space="preserve" style="fill-rule:evenodd;clip-rule:evenodd;stroke-linejoin:round;stroke-miterlimit:1.41421;"><g><g id="car-sideways-left" transform="matrix(1,0,0,1,-414.647,-468)"><path d="M443.59,587.352l10.835,-27.003l34.915,0l11.413,26.336" style="fill:#5c5f60;fill-rule:nonzero;"/><path d="M635.09,587.352l10.835,-27.003l34.915,0l11.413,26.336" style="fill:#5c5f60;fill-rule:nonzero;"/><path d="M443.59,588.852l10.835,-27.003l34.915,0l11.413,26.336" style="fill:#5c5f60;fill-rule:nonzero;"/><path d="M635.09,588.852l10.835,-27.003l34.915,0l11.413,26.336" style="fill:#5c5f60;fill-rule:nonzero;"/><path d="M429.562,592.98l-9.375,-51.38l75.511,-12.25l65.332,-37.585l157.27,0l26.637,42.585l-9.375,58.577l-42.652,0.008l-11.223,-25.772l-34.625,0l-10.541,25.855l-134.5,-0.001l-11.25,-25.667l-34.834,-0.25l-10.668,25.834l-15.707,0.046Z" style="fill:#e4e2dc;fill-rule:nonzero;"/><path d="M447.086,588.84l-17.48,3.557l0.125,0.593l15.774,0.009" style="fill:#f3f2ec;fill-rule:nonzero;"/><path d="M735.703,592.922l-42.656,0.01l-11.172,-25.744l-34.832,-0.062l-8.418,25.817l-136.877,0.03l-11.08,-25.64l-34.667,-0.248l-10.751,26.251l-15.583,-0.083l-9.167,-51.753l75.625,-12.375l35.836,-0.125l206.117,49.313l-2.375,14.609Z" style="fill:#f3f2ec;fill-rule:nonzero;"/><path d="M745.074,534.24l-2.234,14.391l-21.934,0.013l-5.426,-14.529l29.594,0.125Z" style="fill:#ad2125;fill-rule:nonzero;"/><path d="M453.684,545.985l-1.083,14.458l-28.823,0.014l-2.625,-14.511l32.531,0.039Z" style="fill:#f6f1e1;fill-rule:nonzero;"/><path d="M745.106,534.178l-0.62,4.026l-27.505,-0.042l-1.516,-4.062l29.641,0.078Z" style="fill:#fec;fill-rule:nonzero;"/><path d="M506.101,529.102l56.751,-33.503l114.142,0l19.346,32.837l-190.239,0.666Z" style="fill:#313156;fill-rule:nonzero;"/><path d="M720.838,495.602l-17.094,-0.002l36.764,31.375l-19.67,-31.373Z" style="fill:#313156;fill-rule:nonzero;"/><path d="M604.548,493.224l3.778,1.172l-7.58,44.669l-4.006,-0.834l7.808,-45.007Z" style="fill:#e4e2dc;fill-rule:nonzero;"/><path d="M531.59,524.725l0.396,4.292l5.021,-0.021l-0.501,-4.977l-4.916,0.706Z" style="fill:#c0bdba;fill-rule:nonzero;"/><path d="M531.59,524.725l-0.75,-7.875l14.75,-2.75l1.875,10.75l-15.875,-0.125Z" style="fill:#e4e2dc;fill-rule:nonzero;"/><path d="M487.008,591.643c0,7.801 -6.324,14.125 -14.125,14.125c-7.801,0 -14.125,-6.324 -14.125,-14.125c0,-7.801 6.324,-14.125 14.125,-14.125c7.801,0 14.125,6.324 14.125,14.125" style="fill:#e3e1db;fill-rule:nonzero;"/><path d="M473.425,604.212c-7.021,0 -12.712,-5.691 -12.712,-12.711c0,-7.02 5.691,-12.712 12.712,-12.712c7.021,0 12.712,5.692 12.712,12.712c0,7.02 -5.691,12.711 -12.712,12.711M473.425,571c-11.322,0 -20.5,9.179 -20.5,20.5c0,11.321 9.178,20.5 20.5,20.5c11.322,0 20.5,-9.179 20.5,-20.5c0,-11.321 -9.178,-20.5 -20.5,-20.5" style="fill:#2a2b2a;fill-rule:nonzero;"/><path d="M678.673,591.643c0,7.801 -6.324,14.125 -14.125,14.125c-7.801,0 -14.125,-6.324 -14.125,-14.125c0,-7.801 6.324,-14.125 14.125,-14.125c7.801,0 14.125,6.324 14.125,14.125" style="fill:#e3e1db;fill-rule:nonzero;"/><path d="M665.09,604.212c-7.021,0 -12.712,-5.691 -12.712,-12.711c0,-7.02 5.691,-12.712 12.712,-12.712c7.021,0 12.712,5.692 12.712,12.712c0,7.02 -5.691,12.711 -12.712,12.711M665.09,571c-11.322,0 -20.5,9.179 -20.5,20.5c0,11.321 9.178,20.5 20.5,20.5c11.322,0 20.5,-9.179 20.5,-20.5c0,-11.321 -9.178,-20.5 -20.5,-20.5" style="fill:#2a2b2a;fill-rule:nonzero;"/></g></g></svg>