<?xml version="1.0" standalone="no"?><!DOCTYPE svg PUBLIC "-//W3C//DTD SVG 1.1//EN" "http://www.w3.org/Graphics/SVG/1.1/DTD/svg11.dtd"><svg width="192px" height="360px" version="1.1" xmlns="http://www.w3.org/2000/svg" xmlns:xlink="http://www.w3.org/1999/xlink" xml:space="preserve" style="fill-rule:evenodd;clip-rule:evenodd;stroke-linejoin:round;stroke-miterlimit:1.41421;"><g><g id="car-outbound" transform="matrix(0.5,0,0,0.5,8.15347,120)"><g transform="matrix(1.99975,9.86076e-32,1.97215e-31,1.99975,-1.00974e-28,-1246.79)"><path d="M5.7406,843.968l1.68,19.532l19.321,0l3.991,-19.741l-24.992,0.209Z" style="fill:#5c5e5f;fill-rule:nonzero;"/></g><g transform="matrix(1.99975,9.86076e-32,1.97215e-31,1.99975,-1.00974e-28,-1246.79)"><path d="M25.9031,843.759l0.839,19.741l5.992,-19.741l-6.831,0Z" style="fill:#2a2b2a;fill-rule:nonzero;"/></g><g transform="matrix(1.99975,9.86076e-32,1.97215e-31,1.99975,-1.00974e-28,-1246.79)"><path d="M146.424,863.5l19.35,0l1.68,-19.321l-24.993,-0.211l3.963,19.532Z" style="fill:#5c5e5f;fill-rule:nonzero;"/></g><g transform="matrix(1.99975,9.86076e-32,1.97215e-31,1.99975,-1.00974e-28,-1246.79)"><path d="M140.458,843.968l5.966,19.532l0.868,-19.532l-6.834,0Z" style="fill:#2a2b2a;fill-rule:nonzero;"/></g><g transform="matrix(1.99975,9.86076e-32,1.97215e-31,1.99975,-1.00974e-28,-1246.79)"><path d="M39.1348,744l-36.122,53.345l2.519,46.623l1.89,0.006l160.664,0.414l3.796,-46.804l-35.509,-53.584l-97.238,0Z" style="fill:#e5e3dd;fill-rule:nonzero;"/></g><g transform="matrix(1.99975,9.86076e-32,1.97215e-31,1.99975,-1.00974e-28,-1246.79)"><path d="M3.0078,797.46l0.834,14.584l23.517,0.002l0.941,-14.502l-25.292,-0.084Z" style="fill:#b01f25;fill-rule:nonzero;"/></g><g transform="matrix(1.99975,9.86076e-32,1.97215e-31,1.99975,-1.00974e-28,-1246.79)"><path d="M32.5498,797.502l7.041,10.46l-4.455,4.169l-7.771,-0.105l1.055,-14.463l4.13,-0.061Z" style="fill:#f9f5e3;fill-rule:nonzero;"/></g><g transform="matrix(1.99975,9.86076e-32,1.97215e-31,1.99975,-1.00974e-28,-1246.79)"><path d="M171.882,797.501l-1.249,14.501l-23.187,0.044l-1.05,-14.491l25.486,-0.054Z" style="fill:#b01f25;fill-rule:nonzero;"/></g><g transform="matrix(1.99975,9.86076e-32,1.97215e-31,1.99975,-1.00974e-28,-1246.79)"><path d="M142.392,797.555l-6.009,10.447l4.417,4.044l6.666,-0.044l-1.083,-14.459l-3.991,0.012Z" style="fill:#f9f5e3;fill-rule:nonzero;"/></g><g transform="matrix(1.99975,9.86076e-32,1.97215e-31,1.99975,-1.00974e-28,-1246.79)"><path d="M41.4434,747.78l-9.233,29.617l111.997,0.07l-9.937,-29.897l-92.827,0.21Z" style="fill:#313156;fill-rule:nonzero;"/></g><g transform="matrix(1.99975,9.86076e-32,1.97215e-31,1.99975,-1.00974e-28,-1246.79)"><path d="M0,768.082l2.8,7.28l13.651,2.451l2.39,-3.332l-2.32,-2.339l-1.26,-6.72l-15.261,2.66Z" style="fill:#e5e3dd;fill-rule:nonzero;"/></g><g transform="matrix(1.99975,9.86076e-32,1.97215e-31,1.99975,-1.00974e-28,-1246.79)"><path d="M158.966,778.128l13.948,-2.485l2.801,-7.281l-15.261,-2.66l-1.26,6.721l-2.478,2.33l2.25,3.375Z" style="fill:#e5e3dd;fill-rule:nonzero;"/></g><g transform="matrix(1.99975,9.86076e-32,1.97215e-31,1.99975,-1.00974e-28,-1246.79)"><path d="M45.6309,841.448c0,2.783 -2.257,5.041 -5.04,5.041c-2.783,0 -5.041,-2.258 -5.041,-5.041c0,-2.783 2.258,-5.04 5.041,-5.04c2.783,0 5.04,2.257 5.04,5.04" style="fill:#2a2b2a;fill-rule:nonzero;"/></g><g transform="matrix(1.99975,9.86076e-32,1.97215e-31,1.99975,-1.00974e-28,-1246.79)"><path d="M39.5898,807.88l-4.454,4.271l105.622,-0.105l-4.417,-4.166l-96.751,0Z" style="fill:#c2bfbc;fill-rule:nonzero;"/></g><g transform="matrix(1.99975,9.86076e-32,1.97215e-31,1.99975,-1.00974e-28,-1246.79)"><path d="M13.1445,767.802l0.98,7.141l-9.616,-1.149l-1.5,-4.083l10.136,-1.909Z" style="fill:#2a2b2a;fill-rule:nonzero;"/></g><g transform="matrix(1.99975,9.86076e-32,1.97215e-31,1.99975,-1.00974e-28,-1246.79)"><path d="M162.397,767.942l-0.979,7.141l9.841,-1.331l1.499,-3.85l-10.361,-1.96Z" style="fill:#2a2b2a;fill-rule:nonzero;"/></g><g transform="matrix(1.99975,9.86076e-32,1.97215e-31,1.99975,-1.00974e-28,-1246.79)"><path d="M63.4785,822.126l-0.209,12.182l44.102,0l0.001,-12.181l-43.894,-0.001Z" style="fill:#f7f5f0;fill-rule:nonzero;"/></g><g transform="matrix(1.99975,9.86076e-32,1.97215e-31,1.99975,-1.00974e-28,-1246.79)"><clipPath id="tag1"><rect x="32.2104" y="747.667" width="29.693" height="29.73"/></clipPath><g clip-path="url(#tag1)"><g opacity="0.300003"><path d="M41.4434,747.78l-9.233,29.617l29.693,-29.73l-20.46,0.113Z" style="fill:#0e2342;fill-rule:nonzero;"/></g></g></g><g transform="matrix(1.99975,9.86076e-32,1.97215e-31,1.99975,-1.00974e-28,-1246.79)"><clipPath id="tag2"><rect x="94.5976" y="747.544" width="49.618" height="29.906"/></clipPath><g clip-path="url(#tag2)"><g opacity="0.300003"><path d="M134.31,747.606l-7.687,-0.062l-32.025,29.785l49.618,0.121l-9.906,-29.844Z" style="fill:#0a1724;fill-rule:nonzero;"/></g></g></g><g transform="matrix(1.99975,9.86076e-32,1.97215e-31,1.99975,-1.00974e-28,-1246.79)"><path d="M97.2158,777.42l29.406,-29.813l-6.114,-0.002l-29.125,29.771l5.833,0.044Z" style="fill:#494a73;fill-rule:nonzero;"/></g></g></g></svg>