<?xml version="1.0" encoding="UTF-8" standalone="no"?><!DOCTYPE svg PUBLIC "-//W3C//DTD SVG 1.1//EN" "http://www.w3.org/Graphics/SVG/1.1/DTD/svg11.dtd"><svg width="100%" height="100%" viewBox="0 0 144 192" version="1.1" xmlns="http://www.w3.org/2000/svg" xmlns:xlink="http://www.w3.org/1999/xlink" xml:space="preserve" xmlns:serif="http://www.serif.com/" style="fill-rule:evenodd;clip-rule:evenodd;stroke-linejoin:round;stroke-miterlimit:2;"><g id="krz-motorbike-inbound"><g><g><path d="M26.796,172.166l70.842,-0.42l0.009,-16.575l-2.947,4.537l0.045,9.835l-64.569,0.094l-0.16,-12.034l-3.34,-5.153l0.12,19.716Z" style="fill:#5d6061;"/><path d="M29.556,164.517l5.316,5.986l3.545,-0.32l-8.837,-10.051l-0.024,4.385Z" style="fill:#5d6061;"/><path d="M94.996,164.517l-5.316,5.986l-3.545,-0.32l8.837,-10.051l0.024,4.385Z" style="fill:#5d6061;"/></g><g><path d="M55.515,119.228l3.274,-1.535l1.732,-5.403l4.058,1.156l1.015,3.867l2.685,1.101l0.026,8.962l-12.245,-0.182l-0.545,-7.966Z" style="fill:#ceab97;fill-rule:nonzero;"/><g><path d="M68.272,105.293l1.439,0.022l-0.036,2.552l-1.905,1.007l0.502,-3.581Z" style="fill:#e1c5b5;"/><path d="M57.062,104.982l-1.439,-0.058l-0.106,2.55l1.846,1.111l-0.301,-3.603Z" style="fill:#e1c5b5;"/><path d="M57.65,97.833l-0.768,8.017l0.591,6.488l2.963,3.983l3.232,0.127l3.489,-3.5l1.301,-7.608l-0.104,-7.726l-4.668,-0.989l-6.036,1.208Z" style="fill:#e1c5b5;"/><path d="M57.287,100.163l11.267,-0.007l-0.157,-2.915l-3.006,-0.868l-5.072,0.227l-2.84,1.089l-0.192,2.474Z" style="fill:#cfae80;"/><path d="M57.287,100.163l5.559,1.842l5.708,-1.849l-0.157,-2.915l-3.006,-0.868l-5.072,0.227l-2.84,1.089l-0.192,2.474Z" style="fill:#cfae80;"/></g><path d="M58.074,104.287l9.711,0.385l0.97,-0.121l-0.044,1.049l-1.498,2.237l-2.993,-0.095l-0.741,-0.704l-1.238,-0.076l-0.744,0.624l-2.977,-0.173l-1.321,-2.559l0.146,-0.89l0.729,0.323Z" style="fill:#2a2a29;"/><g><path d="M59.195,116.428l1.225,2.557l3.461,-0.047l1.419,-2.746l0.35,1.144l2.629,1.078l0.109,1.358l-3.836,8.052l-4.784,0.107l-4.253,-5.639l0,-3.064l3.287,-1.573l0.393,-1.227Z" style="fill:#e4e2dc;"/><path d="M60.42,118.985l3.461,-0.047l-0.923,2.528l1.129,6.369l-0.573,5.138l-3.036,0.204l-0.71,-5.246l1.474,-6.489l-0.822,-2.457Z" style="fill:#49799e;"/><path d="M56.52,118.738l5.682,7.558l6.077,-7.882l4.561,3.803l0.833,33.087l-21.357,0.527l0.908,-35.542l3.296,-1.551Z" style="fill:#ef9d75;"/></g><path d="M47.384,122.497l9.479,-3.914l0.501,11.895l2.48,29.808l-8.288,0.973l-0.033,-4.665l-0.421,-20.753l-7.289,7.284l-6.262,-3.428l9.833,-17.2Z" style="fill:#564139;"/><path d="M67.933,118.235l9.529,4.202l5.652,15.953l-0.663,4.151l-9.97,-1.5l1.204,20.218l-7.983,-1.447l2.26,-29.016l-0.029,-12.561Z" style="fill:#564139;"/><path d="M47.396,136.75l1.23,-6.071l5.427,0.548l1.155,6.325l-7.812,-0.802Z" style="fill:#cfae80;"/></g><g><path d="M48.442,170.606l0.047,-6.089l3.288,0l-0.184,6.089l-3.151,0Z" style="fill:#5d6061;"/><path d="M70.594,170.606l0,-6.089l2.567,0l0.318,6.089l-2.885,0Z" style="fill:#5d6061;"/><path d="M38.898,146.603l6.602,-12.201l29.755,-0.206l6.65,11.288l-7.297,20.905l-27.641,-0.104l-8.069,-19.682Z" style="fill:#2a2a29;"/><path d="M38.898,146.603l43.007,-1.119l-7.297,20.905l-3.855,-0.014l-31.855,-19.772Z" style="fill-opacity:0.5;"/></g><g><path d="M19.832,131.769l-2.331,1.579l0.09,56.401l2.586,2.251l4.224,0l2.499,-2.538l-0.341,-56.401l-2.587,-1.292l-4.14,0Z" style="fill:#292b29;fill-rule:nonzero;"/><path d="M19.264,128.956l-2.189,2.813l0.127,41.877l1.218,1.1l7.463,0.077l1.37,-1.219l-0.044,-42.013l-1.534,-2.566l-6.411,-0.069Z" style="fill:#c2beba;"/></g></g><g><g><path d="M94.852,149.022l0.394,-21.899l8.17,-14.001l8.656,-2.079l2.963,9.121l4.254,29.757l4.373,-0.386l0.616,-30.376l-6.052,-19.832l-21.301,-0.015l-9.456,24.574l2.689,25.842l4.694,-0.706Z" style="fill:#2a2a29;"/><path d="M116.793,132.457l5.344,-20.312l-2.925,-9.588l-12.02,-1.409l-12.186,3.151l-3.02,7.846l3.26,14.978l8.17,-14.001l8.656,-2.079l2.963,9.121l1.758,12.293Z" style="fill-opacity:0.5;"/><path d="M98.959,78.033l7.537,-2.696l4.018,-0.125l5.3,1.819l1.199,5.57l-4.429,2.569l-11.741,-0.032l-1.884,-7.105Z" style="fill:#cead99;"/><path d="M100.582,83.431l7.154,0.63l7.689,-1.055l2.774,19.551l-21.234,0l3.617,-19.126Z" style="fill:#4a4b73;"/><path d="M96.965,102.557l21.463,0.791l-1.369,-7.164l-19.346,2.418l-0.748,3.955Z" style="fill:#720f1b;fill-opacity:0.35;"/><path d="M98.515,96.184l16.797,-3.403l1.557,-5.959l-17.294,5.117l-1.06,4.245Z" style="fill:#720f1b;fill-opacity:0.35;"/><path d="M83.224,98.334l4.245,0.978l4.026,-7.75l6.154,-5.549l-2.706,17.207l6.001,-1.289l3.189,-14.796l-4.223,-9.593l-6.256,2.735l-5.796,8.902l-4.634,9.155Z" style="fill:#2a2a29;"/><path d="M131.143,99.312l-3.388,-12.327l-7.217,-8.129l-5.235,-2.039l-3.596,10.107l3.405,15.477l5.214,0.156l-1.937,-16.427l5.847,5.88l2.655,7.978l4.252,-0.676Z" style="fill:#2a2a29;"/><g><path d="M113.534,70.733l1.559,-0.017l0.038,2.379l-2.032,0.988l0.435,-3.35Z" style="fill:#e1c5b5;"/><path d="M102.381,64.96l-1.058,8.751l0.736,3.867l3.326,3.634l3.502,0.035l3.671,-3.352l1.179,-7.123l-0.344,-7.197l-4.806,-1.821l-6.206,3.206Z" style="fill:#e1c5b5;"/><path d="M107.507,59.98l-6,2.314l-1.845,12.38l0.649,7.68l3.225,-9.981l7.278,-7.604l3.754,-2.166l-7.061,-2.623Z" style="fill:#109ba8;"/></g></g><g><path d="M97.961,158.138l-12.275,1.648l1.085,-5.067l12.133,-0.967l-0.943,4.386Z" style="fill:#373837;fill-rule:nonzero;"/><path d="M113.184,157.413l14.296,0.16l-0.643,-4.181l-13.896,-0.643l0.243,4.664Z" style="fill:#373837;fill-rule:nonzero;"/><path d="M101.466,174.419l-3.868,-4.315l-0.569,-39.348l4.714,-6.806l10.792,-0.062l4.821,7.672l-0.041,38.213l-4.106,4.837l-11.743,-0.191Z" style="fill:#c2beba;"/><path d="M104.775,131.769l-2.331,1.579l0.09,56.401l2.586,2.251l4.224,0l2.499,-2.538l-0.341,-56.401l-2.587,-1.292l-4.14,0Z" style="fill:#292b29;fill-rule:nonzero;"/><path d="M103.967,129.026l-1.874,2.865l-0.054,5.977l9.923,-0.038l-0.049,-6.169l-1.535,-2.566l-6.411,-0.069Z" style="fill:#e4e2dc;"/></g><g><path d="M105.337,124.067l-0.356,-6.867l4.06,0.003l0.271,6.815l-3.975,0.049Z" style="fill:#5d6061;fill-rule:nonzero;"/><path d="M106.014,108.948l-0.421,-6.457l3.448,0.004l-0.324,6.391l-2.703,0.062Z" style="fill:#5d6061;fill-rule:nonzero;"/><path d="M105.641,100.315l3.645,-0.04l8.508,1.931l-0.524,2.093l-8.079,-1.329l-3.596,-0.04l-8.456,1.166l-0.519,-2.312l9.021,-1.469Z" style="fill:#5d6061;fill-rule:nonzero;"/><path d="M98.019,103.975l0.867,17.075l6.385,0.837l3.959,-0.006l7.286,0.153l0.798,-17.762l-2.258,-0.69l-0.953,15.74l-12.83,-0.441l-0.702,-15.561l-2.552,0.655Z" style="fill:#5d6061;"/><path d="M98.064,103.969l2.521,-0.348l0.688,15.26l-3.209,-14.912Z" style="fill-opacity:0.5;"/><path d="M105.621,102.93l3.396,0.038l-0.284,5.605l-3.112,-5.643Z" style="fill-opacity:0.5;"/><path d="M115.035,103.931l2.279,0.368l-0.714,15.865l-1.565,-16.233Z" style="fill-opacity:0.5;"/><path d="M116.858,105.651l0.293,-4.503l18.423,1.501l-0.765,5.404l-17.951,-2.402Z" style="fill:#2a2a29;fill-rule:nonzero;"/><path d="M98.515,105.2l-0.295,-4.503l-18.422,1.501l0.764,5.403l17.953,-2.401Z" style="fill:#2a2a29;fill-rule:nonzero;"/><path d="M102.621,98.885l-0.172,2.374l3.738,-0.595l-1.017,-2l-2.549,0.221Z" style="fill:#2a2a29;"/><path d="M109.462,100.711l3.682,0.842l-0.549,-2.806l-1.774,-0.398l-1.359,2.362Z" style="fill:#2a2a29;"/><path d="M99.777,112.116l2.324,-5.554l5.209,-1.924l5.503,2.151l2.036,5.165l-1.902,4.916l-5.412,2.782l-5.453,-2.729l-2.305,-4.807Z" style="fill:#ffefce;"/></g><path d="M82.766,100.023l1.208,3.783l6.111,1.527l-0.723,-3.86l2.086,-0.164l-0.077,-1.125l-8.283,-1.851l-0.322,1.69Z" style="fill:#dfc3b5;fill-rule:nonzero;"/><path d="M130.823,102.799l-0.723,1.288l-6.114,1.527l0.727,-3.862l-2.075,-0.132l0.062,-1.153l8.443,-0.966l-0.32,3.298Z" style="fill:#dfc3b5;fill-rule:nonzero;"/><g><path d="M90.158,149.728l-0.449,9.775l2.343,5.014l2.573,-0.161l1.366,-4.665l-1.139,-10.669l-4.694,0.706Z" style="fill:#2a2a29;fill-rule:nonzero;"/><path d="M123.662,149.535l2.957,9.132l-2.227,3.703l-3.017,0.242l-2.216,-3.237l0.13,-9.454" style="fill:#2a2a29;fill-rule:nonzero;"/><path d="M94.852,149.022l-4.694,0.706l-1.071,-10.29l5.962,-1.36l-0.197,10.944Z" style="fill:#5d6061;"/><path d="M123.662,149.535l-4.373,0.386l-1.485,-10.391l6.062,-0.092l-0.204,10.097Z" style="fill:#5d6061;"/></g></g></g></svg>