<?xml version="1.0" encoding="UTF-8" standalone="no"?><!DOCTYPE svg PUBLIC "-//W3C//DTD SVG 1.1//EN" "http://www.w3.org/Graphics/SVG/1.1/DTD/svg11.dtd"><svg width="100%" height="100%" viewBox="0 0 144 192" version="1.1" xmlns="http://www.w3.org/2000/svg" xmlns:xlink="http://www.w3.org/1999/xlink" xml:space="preserve" xmlns:serif="http://www.serif.com/" style="fill-rule:evenodd;clip-rule:evenodd;stroke-linejoin:round;stroke-miterlimit:2;"><g id="krz-motorbike-outbound"><g><g><path d="M125.98,172.166l-70.842,-0.42l-0.009,-16.575l2.947,4.537l-0.045,9.835l64.569,0.094l0.16,-12.034l3.34,-5.153l-0.12,19.716Z" style="fill:#5d6061;"/><path d="M123.22,164.517l-5.316,5.986l-3.545,-0.32l8.837,-10.051l0.024,4.385Z" style="fill:#5d6061;"/><path d="M57.78,164.517l5.316,5.986l3.545,-0.32l-8.837,-10.051l-0.024,4.385Z" style="fill:#5d6061;"/></g><g><path d="M87.182,117.313l6.805,0.38l-1.732,-5.403l-4.058,1.156l-1.015,3.867Z" style="fill:#e1c5b5;fill-rule:nonzero;"/><g><path d="M84.504,105.293l-1.439,0.022l0.036,2.552l1.905,1.007l-0.502,-3.581Z" style="fill:#e1c5b5;"/><path d="M95.714,104.982l1.439,-0.058l0.106,2.55l-1.846,1.111l0.301,-3.603Z" style="fill:#e1c5b5;"/><path d="M95.126,97.833l0.768,8.017l-0.591,6.488l-2.963,3.983l-3.232,0.127l-3.489,-3.5l-1.301,-7.608l0.104,-7.726l4.668,-0.989l6.036,1.208Z" style="fill:#e1c5b5;"/><path d="M95.489,100.163l-11.166,0l0.056,-2.922l3.006,-0.868l5.072,0.227l2.84,1.089l0.192,2.474Z" style="fill:#cfae80;"/><path d="M95.894,105.85l-5.313,6.506l-6.359,-6.886l0.157,-8.229l3.006,-0.868l5.072,0.227l2.84,1.089l0.597,8.161Z" style="fill:#cfae80;"/></g><path d="M108.963,143.125l-28.668,-2.084l-9.97,1.5l-0.663,-4.151l5.652,-15.953l7.877,-3.402l2.133,-2.97l9.588,-0.116l1.598,2.781l8.882,3.767l9.833,17.2l-6.262,3.428Z" style="fill:#564139;"/></g><g><path d="M104.334,170.606l-0.047,-6.089l-3.288,0l0.184,6.089l3.151,0Z" style="fill:#5d6061;"/><path d="M82.182,170.606l0,-6.089l-2.567,0l-0.318,6.089l2.885,0Z" style="fill:#5d6061;"/><path d="M113.878,146.603l-6.602,-12.201l-29.755,-0.206l-6.65,11.288l7.297,20.905l27.641,-0.104l8.069,-19.682Z" style="fill:#2a2a29;"/><path d="M113.878,146.603l-43.007,-1.119l30.402,20.905l4.536,-0.104l8.069,-19.682Z" style="fill-opacity:0.5;"/></g><g><path d="M132.944,131.769l2.331,1.579l-0.09,56.401l-2.586,2.251l-4.224,0l-2.499,-2.538l0.341,-56.401l2.587,-1.292l4.14,0Z" style="fill:#292b29;fill-rule:nonzero;"/><path d="M133.512,128.956l2.125,2.813l-0.063,41.877l-1.218,1.1l-7.463,0.077l-1.37,-1.219l0.044,-42.013l1.534,-2.566l6.411,-0.069Z" style="fill:#c2beba;"/></g></g><path d="M83.238,155.803l-1.164,7.334l19.484,-0.042l-1.086,-7.164l-17.234,-0.128Z" style="fill:#f4f2ed;fill-rule:nonzero;"/><g><g><path d="M35.918,105.651l-0.293,-4.503l-18.423,1.501l0.765,5.404l17.951,-2.402Z" style="fill:#2a2a29;fill-rule:nonzero;"/><path d="M54.261,105.2l0.295,-4.503l18.422,1.501l-0.764,5.403l-17.953,-2.401Z" style="fill:#2a2a29;fill-rule:nonzero;"/><path d="M39.242,70.733l-1.559,-0.017l-0.038,2.379l2.032,0.988l-0.435,-3.35Z" style="fill:#e1c5b5;"/><path d="M39.242,70.733l-1.559,-0.017l-0.038,2.379l2.032,0.988l-0.435,-3.35Z" style="fill:#e1c5b5;"/><path d="M50.872,70.733l1.559,-0.017l0.037,2.379l-2.031,0.988l0.435,-3.35Z" style="fill:#e1c5b5;"/><path d="M50.395,64.96l1.058,8.751l-0.736,3.867l-3.326,3.634l-3.502,0.035l-3.671,-3.352l-1.179,-7.123l0.344,-7.197l4.806,-1.821l6.206,3.206Z" style="fill:#e1c5b5;"/><path d="M57.924,149.022l-0.394,-21.899l-8.17,-14.001l-8.656,-2.079l-2.963,9.121l-4.254,29.757l-4.373,-0.386l-0.616,-30.376l6.052,-19.832l21.301,-0.015l9.456,24.574l-2.689,25.842l-4.694,-0.706Z" style="fill:#2a2a29;"/><path d="M35.983,132.457l-5.344,-20.312l2.925,-9.588l12.02,-1.409l12.186,3.151l3.02,7.846l-3.26,14.978l-8.17,-14.001l-8.656,-2.079l-2.963,9.121l-1.758,12.293Z" style="fill-opacity:0.5;"/><path d="M32.238,78.856l10.024,-3.644l4.018,0.125l6.528,2.336l6.314,2.604l5.796,8.902l4.634,9.155l-4.245,0.978l-4.026,-7.75l-6.154,-5.549l2.706,17.207l-5.742,2.57l-13.683,1.811l-5.958,-5.044l1.937,-16.427l-5.847,5.88l-2.655,7.978l-4.252,-0.676l3.388,-12.327l7.217,-8.129Z" style="fill:#2a2a29;"/><path d="M45.269,59.98l6,2.314l0.723,7.77l-0.698,2.335l-3.938,6.777l-9.537,-9.368l0.389,-7.205l7.061,-2.623Z" style="fill:#109ba8;"/></g><g><path d="M54.815,158.138l12.275,1.648l-1.085,-5.067l-12.133,-0.967l0.943,4.386Z" style="fill:#373837;fill-rule:nonzero;"/><path d="M39.592,157.413l-14.296,0.16l0.643,-4.181l13.896,-0.643l-0.243,4.664Z" style="fill:#373837;fill-rule:nonzero;"/><path d="M51.31,174.419l3.868,-4.315l0.569,-39.348l-4.714,-6.806l-10.792,-0.062l-4.821,7.672l0.041,38.213l4.106,4.837l11.743,-0.191Z" style="fill:#c2beba;"/><path d="M48.001,131.769l2.331,1.579l-0.09,56.401l-2.586,2.251l-4.224,0l-2.499,-2.538l0.341,-56.401l2.587,-1.292l4.14,0Z" style="fill:#292b29;fill-rule:nonzero;"/><path d="M48.809,129.026l1.874,2.865l0.006,4.84l-9.923,-0.037l0.097,-5.033l1.535,-2.566l6.411,-0.069Z" style="fill:#e4e2dc;"/></g><g><path d="M47.344,124.067l0.497,-13.3l-4.51,0l0.13,13.26l3.883,0.04Z" style="fill:#5d6061;fill-rule:nonzero;"/><path d="M51.591,116.945l2.384,4.087l-6.47,0.855l-3.959,-0.006l-6.067,0.114l0.262,-1.831l0.868,-2.674l0.064,1.832l12.83,-0.441l0.088,-1.936Z" style="fill:#5d6061;"/></g><path d="M70.01,100.023l-0.626,1.882l-0.443,1.126l-7.499,-0.394l-0.114,-1.328l0.077,-1.125l8.283,-1.851l0.322,1.69Z" style="fill:#dfc3b5;fill-rule:nonzero;"/><path d="M21.839,102.271l0.241,1.343l7.825,-0.583l0.233,-1.411l-0.062,-1.153l-8.439,-1.171l0.202,2.975Z" style="fill:#dfc3b5;fill-rule:nonzero;"/><g><path d="M62.618,149.728l0.449,9.775l-2.343,5.014l-2.573,-0.161l-1.366,-4.665l1.139,-10.669l4.694,0.706Z" style="fill:#2a2a29;fill-rule:nonzero;"/><path d="M29.114,149.535l-2.957,9.132l2.227,3.703l3.017,0.242l2.216,-3.237l-0.13,-9.454" style="fill:#2a2a29;fill-rule:nonzero;"/><path d="M57.924,149.022l4.694,0.706l1.071,-10.29l-5.962,-1.36l0.197,10.944Z" style="fill:#5d6061;"/><path d="M29.114,149.535l4.373,0.386l1.485,-10.391l-6.062,-0.092l0.204,10.097Z" style="fill:#5d6061;"/></g></g><path d="M38.721,112.812l14.012,0.009l-1.393,-4.069l-11.027,-0.039l-1.592,4.099Z" style="fill:#564139;fill-rule:nonzero;"/><path d="M43.331,112.836l4.435,-0.057l-0.399,10.684l-4.036,-10.627Z" style="fill-opacity:0.5;"/><path d="M50.706,116.819l-0.187,3.93l-9.972,0.229l-0.399,-4.175l10.558,0.016Z" style="fill:#ae2025;fill-rule:nonzero;"/></g></svg>