<?xml version="1.0" standalone="no"?><!DOCTYPE svg PUBLIC "-//W3C//DTD SVG 1.1//EN" "http://www.w3.org/Graphics/SVG/1.1/DTD/svg11.dtd"><svg width="240px" height="288px" version="1.1" xmlns="http://www.w3.org/2000/svg" xmlns:xlink="http://www.w3.org/1999/xlink" xml:space="preserve" style="fill-rule:evenodd;clip-rule:evenodd;stroke-linejoin:round;stroke-miterlimit:1.41421;"><g><g id="truck-outbound" transform="matrix(1,0,0,1,12,8.36585)"><g transform="matrix(1,0,0,1,-1263.96,-583.366)"><path d="M1281.72,843.337l1.69,19.663l19.452,0l4.015,-19.874l-25.157,0.211Z" style="fill:#5c5e5f;fill-rule:nonzero;"/></g><g transform="matrix(1,0,0,1,-1263.96,-583.366)"><path d="M1302.01,843.127l0.847,19.45l6.018,-19.45l-6.865,0Z" style="fill:#2a2b2a;fill-rule:nonzero;"/></g><g transform="matrix(1,0,0,1,-1263.96,-583.366)"><path d="M1438.57,862.789l19.449,0.211l1.693,-19.452l-25.16,-0.211l4.018,19.452Z" style="fill:#5c5e5f;fill-rule:nonzero;"/></g><g transform="matrix(1,0,0,1,-1263.96,-583.366)"><path d="M1432.47,843.337l6.018,19.663l0.847,-19.663l-6.865,0Z" style="fill:#2a2b2a;fill-rule:nonzero;"/></g><g transform="matrix(1,0,0,1,-1263.96,-583.366)"><path d="M1281.59,843.534l178.21,0l7.188,-251.802l-190.039,0.058l4.641,251.744Z" style="fill:#c2bfbb;fill-rule:nonzero;"/></g><g transform="matrix(1,0,0,1,-1263.96,-583.366)"><path d="M1411.07,862.789l19.451,0.211l1.691,-19.452l-25.158,-0.211l4.016,19.452Z" style="fill:#5c5e5f;fill-rule:nonzero;"/></g><g transform="matrix(1,0,0,1,-1263.96,-583.366)"><path d="M1404.97,843.337l6.02,19.663l0.846,-19.663l-6.866,0Z" style="fill:#2a2b2a;fill-rule:nonzero;"/></g><g transform="matrix(1,0,0,1,-1263.96,-583.366)"><path d="M1309.21,843.337l1.692,19.663l19.45,0l4.017,-19.874l-25.159,0.211Z" style="fill:#5c5e5f;fill-rule:nonzero;"/></g><g transform="matrix(1,0,0,1,-1263.96,-583.366)"><path d="M1329.51,843.127l0.845,19.45l6.018,-19.45l-6.863,0Z" style="fill:#2a2b2a;fill-rule:nonzero;"/></g><g transform="matrix(1,0,0,1,-1263.96,-583.366)"><path d="M1301.09,829.019c0,3.62 -2.936,6.555 -6.554,6.555c-3.621,0 -6.554,-2.935 -6.554,-6.555c0,-3.62 2.933,-6.554 6.554,-6.554c3.618,0 6.554,2.934 6.554,6.554" style="fill:#f19e75;fill-rule:nonzero;"/></g><g transform="matrix(1,0,0,1,-1263.96,-583.366)"><path d="M1453.59,829.019c0,3.62 -2.936,6.555 -6.554,6.555c-3.621,0 -6.554,-2.935 -6.554,-6.555c0,-3.62 2.933,-6.554 6.554,-6.554c3.618,0 6.554,2.934 6.554,6.554" style="fill:#f19e75;fill-rule:nonzero;"/></g><g transform="matrix(1,0,0,1,-1263.96,-583.366)"><path d="M1317.48,829.019c0,3.62 -2.936,6.555 -6.554,6.555c-3.621,0 -6.554,-2.935 -6.554,-6.555c0,-3.621 2.933,-6.555 6.554,-6.555c3.618,0 6.554,2.934 6.554,6.555" style="fill:#b01f25;fill-rule:nonzero;"/></g><g transform="matrix(1,0,0,1,-1263.96,-583.366)"><path d="M1437.73,829.019c0,3.62 -2.936,6.555 -6.554,6.555c-3.621,0 -6.554,-2.935 -6.554,-6.555c0,-3.621 2.933,-6.555 6.554,-6.555c3.618,0 6.554,2.934 6.554,6.555" style="fill:#b01f25;fill-rule:nonzero;"/></g><g transform="matrix(1,0,0,1,-1263.96,-583.366)"><path d="M1288.48,798.232l166.698,0.34l5.16,-163.09l-175.656,1.298l3.798,161.452Z" style="fill:#988a75;fill-rule:nonzero;"/></g><g transform="matrix(1,0,0,1,-1263.96,-583.366)"><path d="M1349.98,809.28l-0.211,19.162l44.398,0l0.001,-19.16l-44.188,-0.002Z" style="fill:#f7f5f0;fill-rule:nonzero;"/></g><g transform="matrix(1,0,0,1,-1263.96,-583.366)"><clipPath id="tag1"><path d="M1284.68,636.781l3.799,161.451l166.698,0.341l5.16,-163.09l-175.657,1.298Z"/></clipPath><g clip-path="url(#tag1)"><path d="M1464.72,658.908l-183.463,1.066l-0.06,-4.629l183.462,-1.067l0.061,4.63Z" style="fill:#7c715b;fill-rule:nonzero;"/><path d="M1464.98,688.906l-183.463,1.067l-0.06,-4.63l183.462,-1.068l0.061,4.631Z" style="fill:#7c715b;fill-rule:nonzero;"/><path d="M1465.25,718.906l-183.463,1.066l-0.06,-4.63l183.462,-1.067l0.061,4.631Z" style="fill:#7c715b;fill-rule:nonzero;"/><path d="M1465.51,748.904l-183.463,1.067l-0.06,-4.63l183.462,-1.067l0.061,4.63Z" style="fill:#7c715b;fill-rule:nonzero;"/><path d="M1465.77,778.904l-183.463,1.066l-0.06,-4.63l183.462,-1.067l0.061,4.631Z" style="fill:#7c715b;fill-rule:nonzero;"/></g></g></g></g></svg>