<svg data-name="Layer 1" xmlns="http://www.w3.org/2000/svg" viewBox="0 0 656.61 109.32"><path d="M201 33.25v16.88a32.42 32.42 0 00-14-1.87c-5.22.4-9 2.28-11.52 5-3.22 3.48-4.69 8.3-4.69 13.66v38.6h-18.34V33.11h16.08V43a22.31 22.31 0 017.77-8 27 27 0 0112.6-3.75 27.51 27.51 0 0112.1 2zM393.5 73.72c0 5.63-.27 10.32 1.47 13s4.83 3.89 7.64 4.15a59.63 59.63 0 0011.8-.53v15.14c-5.63 1.61-15.82 1.47-21.18.54-6.7-1.21-10.85-3.35-14.74-9.12s-3.22-13.4-3.22-22.11v-27.6H363V33.11h12.32V13h18.18v20.1h20.91v14.09H393.5zM536.18 61.7v44.46h-18.65V63.05c0-5.27-.95-8.51-3.51-11.35a12.89 12.89 0 00-18.65.14C492.53 55.08 492 58.32 492 62v44.19h-18.66V63.05c0-5.27-.94-8.51-3.51-11.35a12.89 12.89 0 00-18.65.14c-2.83 3.24-3.38 6.48-3.38 10.13v44.19h-18.51v-73h16.22V41a27.69 27.69 0 0121.08-9.6c6.08 0 13.78 1.9 18.37 6.76a23.85 23.85 0 013.38 4.46 27.77 27.77 0 0122.43-11.22c6.08 0 13.78 1.9 18.38 6.76 6.35 6.65 7.03 14.22 7.03 23.54zM569.45 33.19v73h-18.37v-73z"/><circle cx="560.27" cy="11.67" r="11.67"/><path d="M228.18 84.81c3 4 8 6.21 13.37 6.21 4.33 0 7.71-1.08 10.41-3.24a15.61 15.61 0 004.73-5.94l18.37 5.26a33.86 33.86 0 01-12.7 15.27 37.73 37.73 0 01-19.73 5.81c-11.08 0-22.43-4.19-29-12.16a39.65 39.65 0 01-8.91-25.4c0-10.54 3.1-20.27 8.91-27.3 6.76-8 17.16-12.16 28-12.16s19.33 3.52 26.08 11.49c7.3 8.51 9.06 19.46 8.11 32.16h-51.43a21.49 21.49 0 003.79 10zm.13-31.76a19.24 19.24 0 00-3.51 7.57h32.56a14.89 14.89 0 00-3-8.11c-2.84-3.65-7.84-5.4-12.84-5.4-4.7 0-9.52 1.35-13.21 5.94zM310.33 84.81c3 4 8 6.21 13.38 6.21 4.32 0 7.7-1.08 10.4-3.24a15.61 15.61 0 004.73-5.94l18.38 5.26a33.93 33.93 0 01-12.7 15.27 37.79 37.79 0 01-19.73 5.81c-11.08 0-22.43-4.19-29.05-12.16a39.61 39.61 0 01-8.92-25.4c0-10.54 3.11-20.27 8.92-27.3 6.75-8 17.16-12.16 28-12.16s19.26 3.52 26.05 11.49c7.29 8.51 9 19.46 8.1 32.16h-51.34a21.48 21.48 0 003.78 10zm.14-31.76a19.26 19.26 0 00-3.47 7.57h32.57a14.82 14.82 0 00-3-8.11c-2.83-3.65-7.83-5.4-12.83-5.4-4.74 0-9.63 1.35-13.27 5.94zM60.61 38.2c-2.44-4.88-4.47-8.27-9.08-11A22.25 22.25 0 0040 23.69a22 22 0 00-11.79 2.72 9.58 9.58 0 00-5 8.13 6.45 6.45 0 001.9 4.61c1.76 1.9 6.23 3.66 11.12 5.16l16.95 4.88c8.67 2.57 13.69 5.15 18 9.22a28.26 28.26 0 019.09 20.75c0 8.54-4.88 17.49-12.61 22.64-7.45 5.02-16.4 6.2-26.66 6.2-13 0-24.14-3.39-32.13-13.15A46.39 46.39 0 010 75.9l18.71-5c.82 4.73 2.44 9.1 4.89 12.1 3.93 5.43 11.52 7.87 18 7.87 5.15 0 11.66-1.49 15.19-4.21a9.37 9.37 0 003.93-8 8.79 8.79 0 00-3-6.78 21.72 21.72 0 00-8.68-4.34l-18.12-5.33c-7.32-2-14-4.89-18.71-9.09-5.84-4.88-8.41-12.2-8.41-19 0-10.72 6.91-19.94 15.86-24 7.05-3.25 14.11-3.79 20.61-3.79s14 1.22 20.48 4.74C69 15.56 75.53 23.29 79.33 33.19zM116.41 73.87c0 5.69-.27 10.44 1.49 13.15s4.88 3.93 7.73 4.2a59.48 59.48 0 0011.93-.54V106c-5.69 1.62-16 1.49-21.42.54-6.78-1.22-11-3.39-14.92-9.22S98 83.77 98 75V47H85.49V32.78H98V12.44h18.44v20.34h21.15V47h-21.18zM644.246 30.028l12.36 11.526-63.201 67.774-12.36-11.525z"/><path d="M656.608 97.798l-12.36 11.526-63.2-67.774 12.36-11.526z"/></svg>