<?xml version="1.0" encoding="UTF-8" standalone="no"?>
<!DOCTYPE svg PUBLIC "-//W3C//DTD SVG 1.1//EN" "http://www.w3.org/Graphics/SVG/1.1/DTD/svg11.dtd">
<svg width="100%" height="100%" viewBox="0 0 60 80" version="1.1" xmlns="http://www.w3.org/2000/svg" xmlns:xlink="http://www.w3.org/1999/xlink" xml:space="preserve" xmlns:serif="http://www.serif.com/" style="fill-rule:evenodd;clip-rule:evenodd;stroke-linejoin:round;stroke-miterlimit:2;">
    <g id="berm" transform="matrix(1,0,0,1,0,12.6171)">
        <g transform="matrix(0.946576,-0.322482,0.322482,0.946576,-16.1913,28.4249)">
            <g transform="matrix(1,0,0,1,-116.376,-321.512)">
                <g transform="matrix(0.505292,9.86735e-18,9.86735e-18,0.465005,110.973,323.239)">
                    <path d="M10.693,69.932L10.717,61.942L15.701,60.579L18.843,62.761L20.008,59.487L23.617,60.306L24.781,57.032L31.504,59.695L32.901,59.968L46.199,57.032C46.199,57.032 54.228,63.449 54.811,63.722C55.393,63.995 74.599,60.449 74.599,60.449L78.44,57.032L87.168,61.267L97.668,63.729L97.648,69.932L10.693,69.932Z" style="fill:rgb(103,154,69);fill-rule:nonzero;"/>
                </g>
                <g transform="matrix(0.505292,9.86735e-18,9.86735e-18,0.465005,112.906,323.239)">
                    <path d="M13.199,68.354L16.925,62.49L23.064,68.422L13.199,68.354Z" style="fill:rgb(53,129,63);fill-rule:nonzero;"/>
                </g>
                <g transform="matrix(0.505292,9.86735e-18,9.86735e-18,0.465005,112.906,323.239)">
                    <path d="M30.542,68.354L33.189,65.081L34.936,65.081L39.564,62.42L40.697,65.489L52.745,64.466L57.546,68.149L30.542,68.354Z" style="fill:rgb(53,129,63);fill-rule:nonzero;"/>
                </g>
                <g transform="matrix(0.505292,9.86735e-18,9.86735e-18,0.465005,112.906,323.239)">
                    <path d="M69.42,67.943L70.117,66.035L75.122,65.215L76.579,63.17L88.449,68.148L69.42,67.943Z" style="fill:rgb(53,129,63);fill-rule:nonzero;"/>
                </g>
            </g>
            <g transform="matrix(1,0,0,1,-72.4279,-321.512)">
                <g transform="matrix(0.505292,9.86735e-18,9.86735e-18,0.465005,110.973,323.239)">
                    <path d="M10.693,69.932L10.717,61.942L15.701,60.579L18.843,62.761L20.008,59.487L23.617,60.306L24.781,57.032L31.504,59.695L32.901,59.968L46.199,57.032C46.199,57.032 54.228,63.449 54.811,63.722C55.393,63.995 74.599,60.449 74.599,60.449L78.44,57.032L87.168,61.267L97.668,63.729L97.648,69.932L10.693,69.932Z" style="fill:rgb(103,154,69);fill-rule:nonzero;"/>
                </g>
                <g transform="matrix(0.505292,9.86735e-18,9.86735e-18,0.465005,112.906,323.239)">
                    <path d="M13.199,68.354L16.925,62.49L23.064,68.422L13.199,68.354Z" style="fill:rgb(53,129,63);fill-rule:nonzero;"/>
                </g>
                <g transform="matrix(0.505292,9.86735e-18,9.86735e-18,0.465005,112.906,323.239)">
                    <path d="M30.542,68.354L33.189,65.081L34.936,65.081L39.564,62.42L40.697,65.489L52.745,64.466L57.546,68.149L30.542,68.354Z" style="fill:rgb(53,129,63);fill-rule:nonzero;"/>
                </g>
            </g>
        </g>
        <g transform="matrix(-2.15192,-3.12159e-33,-6.41727e-33,0.465005,68.0006,58.9473)">
            <path d="M3.718,-44.589L31.6,-1.199L31.6,-7.94L31.6,-1.199L3.718,-1.199L3.718,-44.589Z" style="fill:rgb(53,45,39);fill-rule:nonzero;"/>
        </g>
        <g id="left-slanted" serif:id="left slanted">
        </g>
        <g transform="matrix(0.248575,-2.56826e-19,-3.49091e-19,0.183924,0.116218,58.2825)">
            <rect x="-0.468" y="0.582" width="241.376" height="117.496" style="fill:rgb(53,45,39);"/>
        </g>
    </g>
</svg>
