<?xml version="1.0" encoding="UTF-8" standalone="no"?>
<!DOCTYPE svg PUBLIC "-//W3C//DTD SVG 1.1//EN" "http://www.w3.org/Graphics/SVG/1.1/DTD/svg11.dtd">
<svg width="100%" height="100%" viewBox="0 0 60 80" version="1.1" xmlns="http://www.w3.org/2000/svg" xmlns:xlink="http://www.w3.org/1999/xlink" xml:space="preserve" xmlns:serif="http://www.serif.com/" style="fill-rule:evenodd;clip-rule:evenodd;stroke-linejoin:round;stroke-miterlimit:2;">
    <g id="bikeshare">
        <g transform="matrix(0.328512,0,0,0.328512,4.0336,17.0137)">
            <rect x="2" y="0" width="83.373" height="167.112" style="fill:rgb(248,245,239);"/>
            <path d="M77.942,15.926L75.016,79.95L11.978,79.971L9.386,15.926L77.942,15.926Z" style="fill:rgb(50,50,87);fill-rule:nonzero;"/>
            <path d="M9.387,15.926L10.004,31.197L26.228,15.926L9.387,15.926Z" style="fill:rgb(15,25,37);fill-rule:nonzero;"/>
            <path d="M77.751,20.793L18.063,79.97L20.91,79.97L75.017,79.953L77.751,20.812L77.751,20.793Z" style="fill:rgb(15,25,37);fill-rule:nonzero;"/>
            <path d="M77.942,90.922L75.144,83.987L11.978,83.985L9.386,90.922L77.942,90.922Z" style="fill:rgb(93,95,96);fill-rule:nonzero;"/>
            <path d="M41.371,129.57L43.349,127.591C43.805,127.136 44.543,127.136 44.999,127.591L46.977,129.57C47.433,130.025 47.433,130.764 46.977,131.219L44.999,133.199C44.543,133.654 43.805,133.654 43.349,133.199L41.371,131.219C40.915,130.764 40.915,130.025 41.371,129.57" style="fill:white;fill-rule:nonzero;"/>
            <path d="M83.804,142.049L83.456,139.006L66.689,138.963L66.222,142.269L83.804,142.049Z" style="fill:rgb(228,226,220);fill-rule:nonzero;"/>
            <path d="M120.279,126.176L118.374,128.572L130.2,140.459L132.866,138.453L120.279,126.176Z" style="fill:rgb(228,226,220);fill-rule:nonzero;"/>
            <path d="M137.779,143.676L135.874,146.072L147.7,157.959L150.366,155.953L137.779,143.676Z" style="fill:rgb(228,226,220);fill-rule:nonzero;"/>
            <path d="M146.461,126.176L148.366,128.572L136.54,140.459L133.874,138.453L146.461,126.176Z" style="fill:rgb(228,226,220);fill-rule:nonzero;"/>
            <path d="M130.211,142.426L132.091,144.849L119.073,157.926L116.374,155.953L130.211,142.426Z" style="fill:rgb(228,226,220);fill-rule:nonzero;"/>
            <path d="M153.489,144.049L153.141,141.007L136.374,140.964L135.907,144.269L153.489,144.049Z" style="fill:rgb(228,226,220);fill-rule:nonzero;"/>
            <path d="M128.741,144.049L128.393,141.006L111.626,140.963L111.159,144.269L128.741,144.049Z" style="fill:rgb(228,226,220);fill-rule:nonzero;"/>
            <path d="M134.976,163.312L131.935,162.952L131.892,145.467L135.195,144.981L134.976,163.312Z" style="fill:rgb(228,226,220);fill-rule:nonzero;"/>
            <path d="M134.976,137.813L131.935,137.465L131.892,120.699L135.195,120.231L134.976,137.813Z" style="fill:rgb(228,226,220);fill-rule:nonzero;"/>
            <path d="M112.806,142.818C112.806,131.772 121.76,122.818 132.806,122.818C143.852,122.818 152.806,131.772 152.806,142.818C152.806,153.865 143.852,162.818 132.806,162.818C121.76,162.818 112.806,153.865 112.806,142.818M108.178,142.819C108.178,156.422 119.204,167.448 132.806,167.448C146.409,167.448 157.435,156.422 157.435,142.819C157.435,129.216 146.409,118.19 132.806,118.19C119.204,118.19 108.178,129.216 108.178,142.819" style="fill:rgb(55,56,55);fill-rule:nonzero;"/>
            <path d="M98.721,139.986L66.427,101.36L63.832,103.579L95.913,141.844L98.721,139.986Z" style="fill:rgb(138,187,107);fill-rule:nonzero;"/>
            <path d="M109.92,110.658L67.298,93.151L66.037,96.323L108.334,113.625L109.92,110.658Z" style="fill:rgb(138,187,107);fill-rule:nonzero;"/>
            <path d="M70.398,92.176L61.63,88.319L60.357,91.486L69.078,95.248L70.398,92.176Z" style="fill:rgb(236,219,177);fill-rule:nonzero;"/>
            <path d="M100.832,141.464L116.621,94.88L113.375,93.822L97.781,140.043L100.832,141.464Z" style="fill:rgb(138,187,107);fill-rule:nonzero;"/>
            <path d="M123.988,93.189L123.409,97.191L107.783,97.19L103.155,93.189L123.988,93.189Z" style="fill:rgb(55,130,63);fill-rule:nonzero;"/>
            <path d="M97.016,134.961L96.495,136.525L91.241,136.602L92.594,138.364L88.447,141.034L90.01,142.439L89.415,147.855L91.539,147.666L94.408,151.242L96.01,149.491L100.779,150.722L101.151,148.783L104.765,146.361L102.903,145.244L104.281,141.779L102.381,140.849L102.195,137.531L100.369,137.756L97.016,134.961Z" style="fill:rgb(55,56,55);fill-rule:nonzero;"/>
            <path d="M61.631,88.318L60.889,91.774L66.139,94.024L70.615,92.014L61.631,88.318Z" style="fill:rgb(103,154,68);fill-rule:nonzero;"/>
            <path d="M58.244,92.858L61.575,92.941L62.993,87.524L56.66,87.441L58.244,92.858Z" style="fill:rgb(55,130,63);fill-rule:nonzero;"/>
            <path d="M33.279,126.176L31.374,128.572L43.2,140.459L45.866,138.453L33.279,126.176Z" style="fill:rgb(228,226,220);fill-rule:nonzero;"/>
            <path d="M50.779,143.676L48.874,146.072L60.7,157.959L63.366,155.953L50.779,143.676Z" style="fill:rgb(228,226,220);fill-rule:nonzero;"/>
            <path d="M59.461,126.176L61.366,128.572L49.54,140.459L46.874,138.453L59.461,126.176Z" style="fill:rgb(228,226,220);fill-rule:nonzero;"/>
            <path d="M43.211,142.426L45.091,144.849L32.073,157.926L29.374,155.953L43.211,142.426Z" style="fill:rgb(228,226,220);fill-rule:nonzero;"/>
            <path d="M66.489,144.049L66.141,141.007L49.374,140.964L48.907,144.269L66.489,144.049Z" style="fill:rgb(228,226,220);fill-rule:nonzero;"/>
            <path d="M42.934,144.049L42.586,141.007L25.819,140.964L25.352,144.269L42.934,144.049Z" style="fill:rgb(228,226,220);fill-rule:nonzero;"/>
            <path d="M47.976,163.312L44.935,162.952L44.892,145.467L48.195,144.981L47.976,163.312Z" style="fill:rgb(228,226,220);fill-rule:nonzero;"/>
            <path d="M47.976,137.813L44.935,137.465L44.892,120.699L48.195,120.231L47.976,137.813Z" style="fill:rgb(228,226,220);fill-rule:nonzero;"/>
            <path d="M134.328,134.775L139.328,141.525L133.953,149.525L125.828,142.525L134.328,134.775Z" style="fill:rgb(55,56,55);fill-rule:nonzero;"/>
            <path d="M45.076,135.149L53.993,141.357L48.618,149.357L40.493,142.357L45.076,135.149Z" style="fill:rgb(55,56,55);fill-rule:nonzero;"/>
            <path d="M133.524,141.063L109.068,113.434L106.54,115.727L130.845,143.084L133.524,141.063Z" style="fill:rgb(138,187,107);fill-rule:nonzero;"/>
            <path d="M25.806,142.818C25.806,131.772 34.76,122.818 45.806,122.818C56.852,122.818 65.806,131.772 65.806,142.818C65.806,153.865 56.852,162.818 45.806,162.818C34.76,162.818 25.806,153.865 25.806,142.818M21.178,142.819C21.178,156.422 32.204,167.448 45.806,167.448C59.409,167.448 70.435,156.422 70.435,142.819C70.435,129.216 59.409,118.19 45.806,118.19C32.204,118.19 21.178,129.216 21.178,142.819" style="fill:rgb(55,56,55);fill-rule:nonzero;"/>
            <path d="M49.527,142.379L70.615,92.015L67.449,90.734L46.601,140.707L49.527,142.379Z" style="fill:rgb(138,187,107);fill-rule:nonzero;"/>
            <path d="M94.568,143.912L94.083,146.923L84.029,146.044L84.049,142.728L94.568,143.912Z" style="fill:rgb(228,226,220);fill-rule:nonzero;"/>
            <path d="M83.948,140.524L84.615,146.19L73.444,145.69L72.111,139.357L83.948,140.524Z" style="fill:rgb(55,56,55);fill-rule:nonzero;"/>
            <path d="M112.2,97.191L110.076,114.024L115.825,97.108L112.2,97.191Z" style="fill:rgb(103,154,68);fill-rule:nonzero;"/>
            <path d="M49.571,167.448L49.572,103.024L55.426,103.047L119.573,167.448L112.117,167.448L64.226,119.555L54.991,110.19L54.739,167.447L49.571,167.448Z" style="fill:rgb(110,87,70);fill-rule:nonzero;"/>
            <rect x="2" y="158.963" width="83.374" height="8.419" style="fill:rgb(110,87,70);"/>
            <path d="M85.374,8.428L2,8.428L0,-0.001L87.374,-0.001L85.374,8.428Z" style="fill:rgb(103,154,67);fill-rule:nonzero;"/>
            <path d="M18.721,79.97L77.752,20.093L77.943,15.925L75.955,15.923L12.837,79.926L18.721,79.97Z" style="fill:rgb(74,75,115);fill-rule:nonzero;"/>
        </g>
        <g transform="matrix(0.248575,-9.50748e-20,-3.49091e-19,0.0680873,0.116218,71.9604)">
            <rect x="-0.468" y="0.582" width="241.376" height="117.496" style="fill:rgb(41,43,41);"/>
        </g>
    </g>
</svg>
