<?xml version="1.0" encoding="UTF-8" standalone="no"?>
<!DOCTYPE svg PUBLIC "-//W3C//DTD SVG 1.1//EN" "http://www.w3.org/Graphics/SVG/1.1/DTD/svg11.dtd">
<svg width="100%" height="100%" viewBox="0 0 60 80" version="1.1" xmlns="http://www.w3.org/2000/svg" xmlns:xlink="http://www.w3.org/1999/xlink" xml:space="preserve" xmlns:serif="http://www.serif.com/" style="fill-rule:evenodd;clip-rule:evenodd;stroke-linejoin:round;stroke-miterlimit:2;">
    <g id="bike-lane">
        <g transform="matrix(0.248575,-9.50748e-20,-3.49091e-19,0.0680873,0.116218,71.9604)">
            <rect x="-0.468" y="0.582" width="241.376" height="117.496" style="fill:rgb(41,43,41);"/>
        </g>
        <g transform="matrix(0.209105,0,0,0.209105,-897.566,-108.653)">
            <g transform="matrix(2.00022,0,0,2.00022,-4382.66,-863.694)">
                <path d="M4401.35,751.789L4414.18,751.049L4408.18,760.837L4401.35,751.789Z" style="fill:rgb(84,62,54);fill-rule:nonzero;"/>
            </g>
            <g transform="matrix(2.00022,0,0,2.00022,-4382.66,-863.694)">
                <path d="M4401.89,830.589L4389.96,832.191L4391.01,827.266L4402.81,826.326L4401.89,830.589Z" style="fill:rgb(55,56,55);fill-rule:nonzero;"/>
            </g>
            <g transform="matrix(2.00022,0,0,2.00022,-4382.66,-863.694)">
                <path d="M4405.39,788.567L4412.63,788.625L4410.92,783.333L4405.85,782.704L4405.39,788.567Z" style="fill:rgb(193,159,62);fill-rule:nonzero;"/>
            </g>
            <g transform="matrix(2.00022,0,0,2.00022,-4382.66,-863.694)">
                <path d="M4408.72,783.848L4397.41,799.327L4396.9,823.5L4392.4,824.991L4390.83,797.681L4399.47,776.586L4409.17,777.118L4416.28,776.511L4420.82,788.166L4424.85,823.577L4420.9,824.563L4410.82,783.97L4408.72,783.848Z" style="fill:rgb(91,93,94);fill-rule:nonzero;"/>
            </g>
            <g transform="matrix(2.00022,0,0,2.00022,-4382.66,-863.694)">
                <path d="M4392.34,823.688L4391.9,833.188L4394.18,838.061L4396.68,837.905L4398.01,833.371L4396.9,823.001L4392.34,823.688Z" style="fill:rgb(219,218,215);fill-rule:nonzero;"/>
            </g>
            <g transform="matrix(2.00022,0,0,2.00022,-4382.66,-863.694)">
                <path d="M4407.02,822.692L4404.81,838.289L4406.9,853.395L4407.02,822.692Z" style="fill:rgb(194,191,188);fill-rule:nonzero;"/>
            </g>
            <g transform="matrix(2.00022,0,0,2.00022,-4382.66,-863.694)">
                <path d="M4411.75,822.692L4413.96,838.289L4411.87,853.395L4411.75,822.692Z" style="fill:rgb(194,191,188);fill-rule:nonzero;"/>
            </g>
            <g transform="matrix(2.00022,0,0,2.00022,-4382.66,-863.694)">
                <path d="M4407.29,815.626L4406.95,791.03L4410.89,791.039L4411.16,815.45L4407.29,815.626Z" style="fill:rgb(236,219,178);fill-rule:nonzero;"/>
            </g>
            <g transform="matrix(2.00022,0,0,2.00022,-4382.66,-863.694)">
                <path d="M4408.12,814.367L4406.88,815.655L4406.93,861.664L4408.31,863.5L4410.56,863.5L4411.89,861.43L4411.71,815.421L4410.33,814.367L4408.12,814.367Z" style="fill:rgb(41,43,41);fill-rule:nonzero;"/>
            </g>
            <g transform="matrix(2.00022,0,0,2.00022,-4382.66,-863.694)">
                <path d="M4399.46,776.624L4398.55,758.337L4389.75,767.162L4389.54,782.769L4385.65,781.861L4385.59,764.895L4397.98,752.113L4401.35,751.789L4408.18,760.837L4414.18,751.049L4417.23,751.208L4430.83,765.289L4431.43,783.253L4428.02,783.304L4427.34,767.013L4416.8,756.542L4416.28,776.458L4411.57,778.269L4399.46,776.624Z" style="fill:rgb(229,226,220);fill-rule:nonzero;"/>
            </g>
            <g transform="matrix(2.00022,0,0,2.00022,-4382.66,-863.694)">
                <g opacity="0.5">
                    <path d="M4415.81,803.834L4420.21,785.501L4411.48,778.269L4399.46,776.539L4395.65,785.75L4397.46,799.375L4404.05,790.25L4407.01,791.125L4411.01,802.584L4411.01,790.958L4412.51,790.583L4415.81,803.834Z" style="fill:rgb(23,24,23);fill-rule:nonzero;"/>
                </g>
            </g>
            <g transform="matrix(2.00022,0,0,2.00022,-4382.66,-863.694)">
                <path d="M4407.11,791.108L4410.65,791.147L4419.16,788.255L4418.65,786.221L4410.56,788.528L4407.06,788.567L4399.09,786.418L4398.58,788.665L4407.11,791.108Z" style="fill:rgb(236,219,178);fill-rule:nonzero;"/>
            </g>
            <g transform="matrix(2.00022,0,0,2.00022,-4382.66,-863.694)">
                <path d="M4417.7,785.53L4417.98,789.907L4435.89,788.448L4435.15,783.196L4417.7,785.53Z" style="fill:rgb(206,173,128);fill-rule:nonzero;"/>
            </g>
            <g transform="matrix(2.00022,0,0,2.00022,-4382.66,-863.694)">
                <path d="M4399.87,785.969L4399.58,790.346L4381.68,788.887L4382.42,783.636L4399.87,785.969Z" style="fill:rgb(206,173,128);fill-rule:nonzero;"/>
            </g>
            <g transform="matrix(2.00022,0,0,2.00022,-4382.66,-863.694)">
                <path d="M4405.69,753.093L4409.65,753.093L4414.06,748.594L4413.15,735.899L4400.82,736.506L4400.93,748.188L4405.69,753.093Z" style="fill:rgb(114,89,75);fill-rule:nonzero;"/>
            </g>
            <g transform="matrix(2.00022,0,0,2.00022,-4382.66,-863.694)">
                <path d="M4385.29,783.603L4386.47,787.28L4392.41,788.763L4391.7,785.012L4393.74,785.168L4393.66,783.76L4385.61,781.96L4385.29,783.603Z" style="fill:rgb(114,89,75);fill-rule:nonzero;"/>
            </g>
            <g transform="matrix(2.00022,0,0,2.00022,-4382.66,-863.694)">
                <path d="M4431.65,785.792L4430.95,787.044L4425.01,788.528L4425.71,784.775L4423.68,784.934L4423.76,783.526L4431.96,782.587L4431.65,785.792Z" style="fill:rgb(114,89,75);fill-rule:nonzero;"/>
            </g>
            <g transform="matrix(2.00022,0,0,2.00022,-4382.66,-863.694)">
                <path d="M4415.49,829.884L4429.38,830.04L4428.76,825.976L4415.25,825.351L4415.49,829.884Z" style="fill:rgb(55,56,55);fill-rule:nonzero;"/>
            </g>
            <g transform="matrix(2.00022,0,0,2.00022,-4382.66,-863.694)">
                <path d="M4424.9,823.5L4427.78,832.375L4425.61,835.974L4422.68,836.209L4420.53,833.063L4420.65,823.875" style="fill:rgb(219,218,215);fill-rule:nonzero;"/>
            </g>
            <g transform="matrix(2.00022,0,0,2.00022,-4382.66,-863.694)">
                <path d="M4397.52,740.751L4395.46,747.454L4400.98,746.563L4400.93,742.125L4407.28,740.5L4406.96,738.813L4397.52,740.751Z" style="fill:rgb(41,43,41);fill-rule:nonzero;"/>
            </g>
            <g transform="matrix(2.00022,0,0,2.00022,-4382.66,-863.694)">
                <path d="M4406.55,739.091L4407.85,742.443L4413.63,743.856L4413.82,746.317L4419.69,745.671L4416.95,739.121L4408.12,738.79L4406.55,739.091Z" style="fill:rgb(41,43,41);fill-rule:nonzero;"/>
            </g>
            <g transform="matrix(2.00022,0,0,2.00022,-4382.66,-863.694)">
                <path d="M4413.43,741.335L4415.14,741.15L4415.34,744.632L4413.58,744.722L4413.43,741.335Z" style="fill:rgb(114,89,75);fill-rule:nonzero;"/>
            </g>
            <g transform="matrix(2.00022,0,0,2.00022,-4382.66,-863.694)">
                <path d="M4401.04,742.228L4399.13,742.073L4399.34,745.877L4401.07,745.968L4401.04,742.228Z" style="fill:rgb(114,89,75);fill-rule:nonzero;"/>
            </g>
            <g transform="matrix(2.00022,0,0,2.00022,-4382.66,-863.694)">
                <path d="M4398.88,740.585L4408.36,738.771L4415.02,738.971L4417.38,734.799L4410.26,727.75L4404.96,727.792L4395.32,737.491L4398.88,740.585Z" style="fill:rgb(54,130,63);fill-rule:nonzero;"/>
            </g>
            <g transform="matrix(2.00022,0,0,2.00022,-4382.66,-863.694)">
                <path d="M4398.88,740.585L4408.36,738.771L4415.42,739.047L4417.38,734.815L4406.8,734.572L4395.39,737.566L4398.88,740.585Z" style="fill:rgb(102,156,70);fill-rule:nonzero;"/>
            </g>
            <g transform="matrix(2.00022,0,0,2.00022,-4382.66,-863.694)">
                <path d="M4415.08,837.086L4418.13,837.501L4416.3,804.988L4411.01,803.284L4407.11,803.314L4401.34,805.125L4400.15,837.875L4403.52,837.203L4405.04,807.477L4407.21,806.451L4411.15,806.481L4412.87,807.389L4415.08,837.086Z" style="fill:rgb(236,219,178);fill-rule:nonzero;"/>
            </g>
            <g transform="matrix(2.00022,0,0,2.00022,-4382.66,-863.694)">
                <path d="M4413.79,836.919L4418.38,837.552L4418.38,838.767L4413.83,839.757L4413.79,836.919Z" style="fill:rgb(91,93,94);fill-rule:nonzero;"/>
            </g>
            <g transform="matrix(2.00022,0,0,2.00022,-4382.66,-863.694)">
                <path d="M4405.08,836.919L4400.13,837.821L4400.13,839.003L4405.04,839.757L4405.08,836.919Z" style="fill:rgb(91,93,94);fill-rule:nonzero;"/>
            </g>
            <g transform="matrix(2.00022,0,0,2.00022,-4382.66,-863.694)">
                <rect x="4426.46" y="778.499" width="0.25" height="0.125" style="fill:rgb(193,159,62);"/>
            </g>
        </g>
    </g>
</svg>
