<svg clip-rule="evenodd" fill-rule="evenodd" stroke-linejoin="round" stroke-miterlimit="2" viewBox="0 0 60 80" xmlns="http://www.w3.org/2000/svg"><path d="m0-7.9h79v7.9h-79z" fill="#d8d3cb" fill-rule="nonzero" transform="matrix(.75949374543 0 0 1.26582057378 .00002 79.912435152)"/><path d="m663.6 359.45h15.8v3.95h-15.8z" fill="#c1bebb" transform="matrix(3.79746464874 0 0 1.04890737879 -2520.00057808 -307.118006358)"/><path d="m80.269 0h-32.869v-7.9l23.7-31.6h9.169z" fill="#d8d3cb" fill-rule="nonzero" transform="matrix(.75679173 0 0 .756792 -.747209336 75.891096)"/><path d="m-.066 49.967 29.46-40.132h8.311l-34.524 47.105-3.149-.07z" fill="#c1bebb" transform="matrix(.595899 0 0 .59589953438 35.164048 40.137214752)"/><path d="m-1.217-39.5h9.117l23.7 31.6v7.9h-32.817z" fill="#d8d3cb" fill-rule="nonzero" transform="matrix(.75679173 0 0 .75679173 .921310666 75.89164)"/><path d="m-.066 49.967 29.044-40.132h8.727l-34.524 47.105-3.149-.07z" fill="#c1bebb" transform="matrix(-.595899 0 0 .595899 24.7966 40.1377)"/></svg>