<?xml version="1.0" encoding="UTF-8" standalone="no"?>
<!DOCTYPE svg PUBLIC "-//W3C//DTD SVG 1.1//EN" "http://www.w3.org/Graphics/SVG/1.1/DTD/svg11.dtd">
<svg width="100%" height="100%" viewBox="0 0 60 80" version="1.1" xmlns="http://www.w3.org/2000/svg" xmlns:xlink="http://www.w3.org/1999/xlink" xml:space="preserve" xmlns:serif="http://www.serif.com/" style="fill-rule:evenodd;clip-rule:evenodd;stroke-linejoin:round;stroke-miterlimit:2;">
    <g transform="matrix(0.515742,0,0,0.515742,6.94351,9.77565)">
        <g transform="matrix(1,0,0,1,-6.1702,52.6016)">
            <path d="M39.313,61.876L52.985,50.771L42.225,37.432L35.526,36.47L42.725,32.392L57.971,50.763L44.05,65.045" style="fill:rgb(103,154,69);fill-rule:nonzero;"/>
        </g>
        <g transform="matrix(1,0,0,1,-6.1702,52.6016)">
            <path d="M66.462,50.886L78.856,46.67L87.72,52.993L78.073,50.484L57.092,57.605L66.462,50.886Z" style="fill:rgb(103,154,69);fill-rule:nonzero;"/>
        </g>
        <g transform="matrix(1,0,0,1,-6.1702,52.6016)">
            <path d="M42.578,59.151L40.863,42.151L57.874,37.984L69.446,41.818L75.511,35.401L83.85,41.318L76.16,39.651L69.12,57.985L72.479,65.068L62.29,64.651L42.578,59.151Z" style="fill:rgb(53,129,63);fill-rule:nonzero;"/>
        </g>
        <g transform="matrix(1,0,0,1,-6.1702,52.6016)">
            <path d="M58.321,65.734L69.81,41.691L58.987,36.984L57.788,33.152L52.903,37.402L64.983,42.695L48.959,63.371" style="fill:rgb(103,154,69);fill-rule:nonzero;"/>
        </g>
        <g transform="matrix(1,0,0,1,-6.1702,52.6016)">
            <path d="M49.317,58.899L36.009,43.341L27.008,48.761L35.228,47.457L43.445,60.103L49.317,58.899Z" style="fill:rgb(103,154,69);fill-rule:nonzero;"/>
        </g>
        <g transform="matrix(1,0,0,1,-6.1702,52.6016)">
            <path d="M58.71,49.08L53.554,28.457L47.598,28.16L50.856,31.155L55.445,52.365L58.71,49.08Z" style="fill:rgb(103,154,69);fill-rule:nonzero;"/>
        </g>
        <g transform="matrix(1,0,0,1,-6.1702,52.6016)">
            <path d="M47.654,62.067L56.008,60.401L65.437,48.401L37.96,46.091" style="fill:rgb(103,154,69);fill-rule:nonzero;"/>
        </g>
        <g transform="matrix(1,0,0,1,-6.1702,52.6016)">
            <path d="M50.08,56.055L37.687,49.837L31.425,56.16L38.469,53.651L49.996,58.77L50.08,56.055Z" style="fill:rgb(53,129,63);fill-rule:nonzero;"/>
        </g>
    </g>
    <g id="bioswale" transform="matrix(1,0,0,1,0,12.6171)">
        <g transform="matrix(1,0,0,1,-106.812,-297.369)">
            <g transform="matrix(0.505292,9.86735e-18,9.86735e-18,0.465005,110.973,323.239)">
                <path d="M10.693,69.932L10.717,61.942L15.701,60.579L18.843,62.761L20.008,59.487L23.617,60.306L24.781,57.032L31.504,59.695L32.901,59.968L46.199,57.032C46.199,57.032 54.228,63.449 54.811,63.722C55.393,63.995 74.599,60.449 74.599,60.449L78.44,57.032L87.168,61.267L97.668,63.729L97.648,69.932L10.693,69.932Z" style="fill:rgb(103,154,69);fill-rule:nonzero;"/>
            </g>
            <g transform="matrix(0.505292,9.86735e-18,9.86735e-18,0.465005,112.906,323.239)">
                <path d="M13.199,68.354L16.925,62.49L23.064,68.422L13.199,68.354Z" style="fill:rgb(53,129,63);fill-rule:nonzero;"/>
            </g>
            <g transform="matrix(0.505292,9.86735e-18,9.86735e-18,0.465005,112.906,323.239)">
                <path d="M30.542,68.354L33.189,65.081L34.936,65.081L39.564,62.42L40.697,65.489L52.745,64.466L57.546,68.149L30.542,68.354Z" style="fill:rgb(53,129,63);fill-rule:nonzero;"/>
            </g>
            <g transform="matrix(0.505292,9.86735e-18,9.86735e-18,0.465005,112.906,323.239)">
                <path d="M69.42,67.943L70.117,66.035L75.122,65.215L76.579,63.17L88.449,68.148L69.42,67.943Z" style="fill:rgb(53,129,63);fill-rule:nonzero;"/>
            </g>
        </g>
        <g transform="matrix(-0.366146,-9.82479e-34,-2.73167e-33,0.366146,62.6973,-76.5574)">
            <g transform="matrix(0.836726,0.547622,-0.547622,0.836726,125.43,-25.4994)">
                <g transform="matrix(1.38003,2.69492e-17,2.69492e-17,1.27,68.3663,271.186)">
                    <path d="M10.693,69.932L10.709,64.422L15.701,60.579L18.843,62.761L20.008,59.487L23.617,60.306L24.781,57.032L31.504,59.695L32.901,59.968L46.199,57.032C46.199,57.032 54.228,63.449 54.811,63.722C55.393,63.995 72.197,60.847 72.197,60.847L76.255,67.836L10.693,69.932Z" style="fill:rgb(103,154,69);fill-rule:nonzero;"/>
                </g>
                <g transform="matrix(1.38003,2.69492e-17,2.69492e-17,1.27,73.6476,271.186)">
                    <path d="M13.199,68.354L16.925,62.49L23.064,68.422L13.199,68.354Z" style="fill:rgb(53,129,63);fill-rule:nonzero;"/>
                </g>
                <g transform="matrix(1.38003,2.69492e-17,2.69492e-17,1.27,73.6476,271.186)">
                    <path d="M30.542,68.354L33.189,65.081L34.936,65.081L39.564,62.42L40.697,65.489L52.745,64.466L57.546,68.149L30.542,68.354Z" style="fill:rgb(53,129,63);fill-rule:nonzero;"/>
                </g>
            </g>
            <g transform="matrix(3.17726,0,0,1.27,-25.4015,370.084)">
                <path d="M0.126,-39.5L6.738,-39.5L31.6,-1.199L31.6,-7.94L31.6,-1.199L0.126,-1.199L0.126,-39.5Z" style="fill:rgb(53,45,39);fill-rule:nonzero;"/>
            </g>
        </g>
        <g transform="matrix(0.366146,9.82479e-34,-2.73167e-33,0.366146,-2.69727,-76.5574)">
            <g id="left-slanted" serif:id="left slanted">
                <g>
                    <g transform="matrix(0.836726,0.547622,-0.547622,0.836726,125.43,-25.4994)">
                        <g transform="matrix(1.38003,2.69492e-17,2.69492e-17,1.27,68.3663,271.186)">
                            <path d="M10.693,69.932L10.709,64.422L15.701,60.579L18.843,62.761L20.008,59.487L23.617,60.306L24.781,57.032L31.504,59.695L32.901,59.968L46.199,57.032C46.199,57.032 54.228,63.449 54.811,63.722C55.393,63.995 72.197,60.847 72.197,60.847L76.255,67.836L10.693,69.932Z" style="fill:rgb(103,154,69);fill-rule:nonzero;"/>
                        </g>
                        <g transform="matrix(1.38003,2.69492e-17,2.69492e-17,1.27,73.6476,271.186)">
                            <path d="M13.199,68.354L16.925,62.49L23.064,68.422L13.199,68.354Z" style="fill:rgb(53,129,63);fill-rule:nonzero;"/>
                        </g>
                        <g transform="matrix(1.38003,2.69492e-17,2.69492e-17,1.27,73.6476,271.186)">
                            <path d="M30.542,68.354L33.189,65.081L34.936,65.081L39.564,62.42L40.697,65.489L52.745,64.466L57.546,68.149L30.542,68.354Z" style="fill:rgb(53,129,63);fill-rule:nonzero;"/>
                        </g>
                    </g>
                    <g transform="matrix(3.17726,0,0,1.27,-25.4015,370.084)">
                        <path d="M0.126,-39.5L6.738,-39.5L31.6,-1.199L31.6,-7.94L31.6,-1.199L0.126,-1.199L0.126,-39.5Z" style="fill:rgb(53,45,39);fill-rule:nonzero;"/>
                    </g>
                </g>
            </g>
        </g>
        <g transform="matrix(0.248575,-2.56826e-19,-3.49091e-19,0.183924,0.116218,58.2825)">
            <rect x="-0.468" y="0.582" width="241.376" height="117.496" style="fill:rgb(53,45,39);"/>
        </g>
    </g>
</svg>
