<?xml version="1.0" encoding="UTF-8" standalone="no"?>
<!DOCTYPE svg PUBLIC "-//W3C//DTD SVG 1.1//EN" "http://www.w3.org/Graphics/SVG/1.1/DTD/svg11.dtd">
<svg width="100%" height="100%" viewBox="0 0 60 80" version="1.1" xmlns="http://www.w3.org/2000/svg" xmlns:xlink="http://www.w3.org/1999/xlink" xml:space="preserve" xmlns:serif="http://www.serif.com/" style="fill-rule:evenodd;clip-rule:evenodd;stroke-linejoin:round;stroke-miterlimit:2;">
    <g id="food-truck">
        <g transform="matrix(0.184268,0,0,0.184268,2.0193,5.68595)">
            <g transform="matrix(0.943534,0,0,0.943534,2.34361,20.3279)">
                <g transform="matrix(-1,0,0,1,302.306,118.426)">
                    <path d="M242.164,133.24L233.164,127.574L234.664,125.324L243.664,131.657L242.164,133.24Z" style="fill:rgb(91,96,97);fill-rule:nonzero;"/>
                </g>
                <g transform="matrix(-1,0,0,1,302.306,118.426)">
                    <path d="M271.477,234.296L270.58,191.74L270.08,164.407L279.439,167.001L279.914,192.907L279.08,233.74L271.477,234.296Z" style="fill:rgb(170,139,126);fill-rule:nonzero;"/>
                </g>
                <g transform="matrix(-1,0,0,1,302.306,118.426)">
                    <path d="M281.604,110.125L279.402,103.942L273.918,105.562L274.124,111.416L281.604,110.125Z" style="fill:rgb(170,139,126);fill-rule:nonzero;"/>
                </g>
                <g transform="matrix(-1,0,0,1,302.306,118.426)">
                    <path d="M269.439,158.146L257.689,186.896L253.264,236.349L261.33,235.158L266.939,188.146L281.414,167.075L277.689,155.896L269.439,158.146Z" style="fill:rgb(206,172,153);fill-rule:nonzero;"/>
                </g>
                <g transform="matrix(-1,0,0,1,302.306,118.426)">
                    <path d="M253.439,197.146L286.689,196.896L279.689,151.396L281.562,110.073L273.666,111.439L262.439,124.116L263.397,154.116L253.439,197.146Z" style="fill:rgb(150,0,19);fill-rule:nonzero;"/>
                </g>
                <g transform="matrix(-1,0,0,1,302.306,118.426)">
                    <path d="M274.702,119.315L279.721,122.723L267.274,143.326L244.28,136.125L246.842,133.283L265.551,137.581L274.702,119.315Z" style="fill:rgb(206,172,153);fill-rule:nonzero;"/>
                </g>
                <g transform="matrix(-1,0,0,1,302.306,118.426)">
                    <path d="M273.699,115.107L272.689,122.445L279.273,124.634L281.768,113.52" style="fill:rgb(229,0,29);fill-rule:nonzero;"/>
                </g>
                <g transform="matrix(-1,0,0,1,302.306,118.426)">
                    <path d="M281.749,113.509L281.585,110.113L270.041,111.472L262.439,124.148L274.103,117.58L281.749,113.509Z" style="fill:rgb(229,0,29);fill-rule:nonzero;"/>
                </g>
                <g transform="matrix(-1,0,0,1,302.306,118.426)">
                    <path d="M279.659,104.867L280.88,95.216L265.756,94.197L265.187,102.801L267.13,102.69L268.92,108.178L274.175,106.485" style="fill:rgb(206,172,153);fill-rule:nonzero;"/>
                </g>
                <g transform="matrix(-1,0,0,1,302.306,118.426)">
                    <path d="M246.018,136.547L239.813,137.889L235.247,133.316L238.956,130.93L248.579,133.705L246.018,136.547Z" style="fill:rgb(206,172,153);fill-rule:nonzero;"/>
                </g>
                <g transform="matrix(-1,0,0,1,302.306,118.426)">
                    <path d="M243.296,129.923L241.823,131.735L247.29,133.474L243.296,129.923Z" style="fill:rgb(206,172,153);fill-rule:nonzero;"/>
                </g>
                <g transform="matrix(-1,0,0,1,302.306,118.426)">
                    <path d="M275.325,101.96L277.236,101.9L277.42,97.175L274.967,97.938L275.325,101.96Z" style="fill:rgb(206,172,153);fill-rule:nonzero;"/>
                </g>
                <g transform="matrix(-1,0,0,1,302.306,118.426)">
                    <path d="M273.984,106.957L274.213,102.074L276.965,101.838L277.33,97.195L274.422,97.871L274.538,95.263L280.956,95.539L279.764,104.95L273.984,106.957Z" style="fill:rgb(170,139,126);fill-rule:nonzero;"/>
                </g>
                <g transform="matrix(-1,0,0,1,302.306,118.426)">
                    <path d="M279.068,233.709L277.455,239.932L260.961,240.403L259.244,235.861L271.403,233.273L279.068,233.709Z" style="fill:rgb(110,87,70);fill-rule:nonzero;"/>
                </g>
                <g transform="matrix(-1,0,0,1,302.306,118.426)">
                    <path d="M265.756,94.197L265.439,89.396L281.856,87.896L288.439,106.646L287.939,125.146L282.189,126.396L276.439,111.646L276.773,97.563L274.523,98.063L271.439,94.896L265.756,94.197Z" style="fill:rgb(252,228,174);fill-rule:nonzero;"/>
                </g>
                <g transform="matrix(-1,0,0,1,302.306,118.426)">
                    <path d="M261.376,234.88L259.763,241.103L243.27,241.574L241.553,237.032L253.317,234.444L261.376,234.88Z" style="fill:rgb(133,112,88);fill-rule:nonzero;"/>
                </g>
            </g>
            <g transform="matrix(-1,0,0,1,302.306,118.426)">
                <rect x="214.783" y="136.584" width="18.239" height="30" style="fill:rgb(55,130,63);fill-rule:nonzero;"/>
            </g>
            <g transform="matrix(-1,0,0,1,302.306,118.426)">
                <rect x="207.449" y="37.918" width="91.163" height="10.239" style="fill:rgb(55,130,63);fill-rule:nonzero;"/>
            </g>
            <g transform="matrix(-1,0,0,1,302.306,118.426)">
                <path d="M210.883,65.608L232.259,64.5L232.47,72.321L236.699,71.687L236.676,58.426L210.674,61.171L210.883,65.608Z" style="fill:rgb(42,43,42);fill-rule:nonzero;"/>
            </g>
            <g transform="matrix(-1,0,0,1,302.306,118.426)">
                <path d="M239.87,71.051L239.024,103.4L224.014,105.515L221.265,74.012L239.87,71.051Z" style="fill:rgb(42,43,42);fill-rule:nonzero;"/>
            </g>
            <g transform="matrix(-1,0,0,1,302.306,118.426)">
                <path d="M239.864,71.159L221.265,74.013L221.687,78.768L239.659,78.664L239.87,71.159L239.864,71.159Z" style="fill:rgb(91,94,95);fill-rule:nonzero;"/>
            </g>
            <g transform="matrix(-1,0,0,1,302.306,118.426)">
                <path d="M28.987,65.608L7.611,64.5L7.4,72.321L3.172,71.687L3.194,58.426L29.197,61.171L28.987,65.608Z" style="fill:rgb(42,43,42);fill-rule:nonzero;"/>
            </g>
            <g transform="matrix(-1,0,0,1,302.306,118.426)">
                <path d="M0.846,103.401L15.856,105.516L18.605,74.013L0,71.052L0.846,103.401Z" style="fill:rgb(42,43,42);fill-rule:nonzero;"/>
            </g>
            <g transform="matrix(-1,0,0,1,302.306,118.426)">
                <path d="M0,71.159L0.212,78.664L18.184,78.768L18.605,74.013L0.006,71.159L0,71.159Z" style="fill:rgb(91,94,95);fill-rule:nonzero;"/>
            </g>
            <g transform="matrix(-1,0,0,1,302.306,118.426)">
                <path d="M25.052,221.301L26.743,240.749L46.193,240.749L50.211,221.088L25.052,221.301Z" style="fill:rgb(91,94,95);fill-rule:nonzero;"/>
            </g>
            <g transform="matrix(-1,0,0,1,302.306,118.426)">
                <path d="M45.349,220.876L46.194,240.75L52.212,220.876L45.349,220.876Z" style="fill:rgb(42,43,42);fill-rule:nonzero;"/>
            </g>
            <g transform="matrix(-1,0,0,1,302.306,118.426)">
                <path d="M194.328,240.75L213.78,240.75L215.47,221.301L190.311,221.09L194.328,240.75Z" style="fill:rgb(91,94,95);fill-rule:nonzero;"/>
            </g>
            <g transform="matrix(-1,0,0,1,302.306,118.426)">
                <path d="M195.174,221.089L194.328,240.538L188.31,221.089L195.174,221.089Z" style="fill:rgb(42,43,42);fill-rule:nonzero;"/>
            </g>
            <g transform="matrix(-1,0,0,1,302.306,118.426)">
                <path d="M32.616,0.001L24.115,155.271L24.922,221.288L215.63,221.288L216.616,155.737L206.616,0.001L32.616,0.001Z" style="fill:rgb(103,154,68);fill-rule:nonzero;"/>
            </g>
            <g transform="matrix(-1,0,0,1,302.306,118.426)">
                <path d="M37.048,45.717L32.616,134.749L208.283,134.381L203.116,46.649L37.048,45.717Z" style="fill:rgb(49,49,86);fill-rule:nonzero;"/>
                <clipPath id="_clip1">
                    <path d="M37.048,45.717L32.616,134.749L208.283,134.381L203.116,46.649L37.048,45.717Z" clip-rule="nonzero"/>
                </clipPath>
                <g clip-path="url(#_clip1)">
                    <path d="M37.048,45.717L32.616,134.749L208.283,134.381L203.116,46.649L37.048,45.717Z" style="fill:rgb(49,49,86);fill-rule:nonzero;"/>
                    <g transform="matrix(-1,0,0,1,241.919,0)">
                        <path d="M100.361,134.594L100.802,134.594L209.303,134.749L204.871,45.717L194.367,45.717L100.361,134.594Z" style="fill:rgb(10,24,36);fill-opacity:0.3;fill-rule:nonzero;"/>
                    </g>
                    <g transform="matrix(-1,0,0,1,241.919,0)">
                        <path d="M105.547,134.619L194.305,45.717L189.039,45.717L100.157,134.6L105.547,134.619Z" style="fill:rgb(73,74,115);fill-rule:nonzero;"/>
                    </g>
                    <g transform="matrix(-1,0,0,1,241.919,0)">
                        <path d="M37.048,45.717L33.616,113.749L100.746,46.115L37.048,45.717Z" style="fill:rgb(10,24,36);fill-opacity:0.3;fill-rule:nonzero;"/>
                    </g>
                </g>
            </g>
            <g transform="matrix(-1,0,0,1,302.306,118.426)">
                <path d="M66.116,209.126L67.963,145.293L173.937,145.71L175.783,208.919L66.116,209.126Z" style="fill:rgb(42,43,42);fill-rule:nonzero;"/>
            </g>
            <g transform="matrix(-1,0,0,1,302.306,118.426)">
                <path d="M202.417,178.647L205.544,188.049L186.853,188.085L189.896,178.606L202.417,178.647Z" style="fill:rgb(240,157,116);fill-rule:nonzero;"/>
            </g>
            <g transform="matrix(-1,0,0,1,302.306,118.426)">
                <path d="M53.329,178.647L56.455,188.049L37.764,188.085L40.808,178.606L53.329,178.647Z" style="fill:rgb(240,157,116);fill-rule:nonzero;"/>
            </g>
            <g transform="matrix(-1,0,0,1,302.306,118.426)">
                <path d="M205.559,163.527C205.559,169.201 200.956,173.804 195.283,173.804C189.605,173.804 185.006,169.201 185.006,163.527C185.006,157.849 189.605,153.251 195.283,153.251C200.956,153.251 205.559,157.849 205.559,163.527" style="fill:rgb(193,191,188);fill-rule:nonzero;"/>
            </g>
            <g transform="matrix(-1,0,0,1,302.306,118.426)">
                <path d="M56.896,163.527C56.896,169.201 52.296,173.804 46.621,173.804C40.947,173.804 36.345,169.201 36.345,163.527C36.345,157.849 40.947,153.251 46.621,153.251C52.296,153.251 56.896,157.849 56.896,163.527" style="fill:rgb(193,191,188);fill-rule:nonzero;"/>
            </g>
            <g transform="matrix(-1,0,0,1,302.306,118.426)">
                <path d="M78.621,193.38L74.167,197.651L167.783,197.546L163.366,193.38L78.621,193.38Z" style="fill:rgb(91,94,95);fill-rule:nonzero;"/>
            </g>
            <g transform="matrix(-1,0,0,1,302.306,118.426)">
                <path d="M78.621,175.882L74.167,180.153L167.783,180.048L163.366,175.882L78.621,175.882Z" style="fill:rgb(91,94,95);fill-rule:nonzero;"/>
            </g>
            <g transform="matrix(-1,0,0,1,302.306,118.426)">
                <path d="M78.621,157.047L74.167,161.318L167.783,161.213L163.366,157.047L78.621,157.047Z" style="fill:rgb(91,94,95);fill-rule:nonzero;"/>
            </g>
            <g transform="matrix(-1,0,0,1,302.306,118.426)">
                <path d="M120.033,134.834L124.45,134.834L124.45,45.584L120.116,45.834L120.033,134.834Z" style="fill:rgb(103,154,68);fill-rule:nonzero;"/>
            </g>
            <g transform="matrix(-1,0,0,1,302.306,118.426)">
                <path d="M149.608,20.271L149.815,19.253L141.234,17.01L141.449,16.172L150.133,18.12L150.391,17.114L141.864,14.552L142.065,13.769L150.658,15.966L150.966,14.974L140.975,11.875C140.975,11.875 138.485,12.906 138.289,12.848L122.373,8.262L121.323,12.396L137.472,16.036C137.671,16.081 139.358,18.182 139.358,18.182L149.608,20.271Z" style="fill:white;fill-rule:nonzero;"/>
            </g>
            <g transform="matrix(-1,0,0,1,302.306,118.426)">
                <path d="M159.856,20.063C159.856,24.068 156.61,27.313 152.606,27.313C148.602,27.313 145.356,24.068 145.356,20.063C145.356,16.059 148.602,12.813 152.606,12.813C156.61,12.813 159.856,16.059 159.856,20.063" style="fill:rgb(252,228,174);fill-rule:nonzero;"/>
            </g>
            <g transform="matrix(-1,0,0,1,302.306,118.426)">
                <path d="M159.322,12.979C157.788,14.999 154.909,15.391 152.891,13.858C150.872,12.325 150.479,9.446 152.013,7.426C153.546,5.409 156.426,5.014 158.444,6.548C160.463,8.083 160.856,10.96 159.322,12.979" style="fill:rgb(252,228,174);fill-rule:nonzero;"/>
            </g>
            <g transform="matrix(-1,0,0,1,302.306,118.426)">
                <path d="M176.894,15.813C176.894,21.346 172.409,25.834 166.875,25.834C161.342,25.834 156.856,21.346 156.856,15.813C156.856,10.281 161.342,5.793 166.875,5.793C172.409,5.793 176.894,10.281 176.894,15.813" style="fill:rgb(252,228,174);fill-rule:nonzero;"/>
            </g>
            <g transform="matrix(-1,0,0,1,302.306,118.426)">
                <path d="M180.189,14.558C182.953,24.777 176.911,35.3 166.693,38.066C156.475,40.829 145.951,34.787 143.186,24.57C150.405,22.617 174.467,16.107 180.189,14.558" style="fill:rgb(248,187,28);fill-rule:nonzero;"/>
            </g>
            <g transform="matrix(-1,0,0,1,302.306,118.426)">
                <rect x="53.451" y="24.647" width="68.238" height="12.334" style="fill:rgb(55,130,63);fill-rule:nonzero;"/>
            </g>
            <g transform="matrix(-1,0,0,1,302.306,118.426)">
                <rect x="53.451" y="9.314" width="49.435" height="12.333" style="fill:rgb(55,130,63);fill-rule:nonzero;"/>
            </g>
        </g>
        <g transform="matrix(0.248575,-9.50748e-20,-3.49091e-19,0.0680873,0.116218,71.9604)">
            <rect x="-0.468" y="0.582" width="241.376" height="117.496" style="fill:rgb(41,43,41);"/>
        </g>
    </g>
</svg>
