<?xml version="1.0" encoding="UTF-8" standalone="no"?>
<!DOCTYPE svg PUBLIC "-//W3C//DTD SVG 1.1//EN" "http://www.w3.org/Graphics/SVG/1.1/DTD/svg11.dtd">
<svg width="100%" height="100%" viewBox="0 0 60 80" version="1.1" xmlns="http://www.w3.org/2000/svg" xmlns:xlink="http://www.w3.org/1999/xlink" xml:space="preserve" xmlns:serif="http://www.serif.com/" style="fill-rule:evenodd;clip-rule:evenodd;stroke-linejoin:round;stroke-miterlimit:2;">
    <g id="light-rail">
        <g transform="matrix(0.17565,0,0,0.17565,9.19264,0.334412)">
            <g transform="matrix(1.00015,0,0,1.00015,-1010.02,-357.389)">
                <path d="M1197.32,765.277L1185.87,765.277L1185.86,740.616L1199.02,740.827L1197.32,765.277Z" style="fill:rgb(40,41,40);fill-rule:nonzero;"/>
            </g>
            <g transform="matrix(1.00015,0,0,1.00015,-1009.17,-357.389)">
                <path d="M1061.55,765.027L1073,765.027L1073.02,742.866L1059.86,743.077L1061.55,765.027Z" style="fill:rgb(40,41,40);fill-rule:nonzero;"/>
            </g>
            <g transform="matrix(1.00015,0,0,1.00015,-1009.45,-357.389)">
                <path d="M1086.09,386.669L1119.17,452.002L1124.42,452.002L1091.42,386.669" style="fill:rgb(41,43,41);fill-rule:nonzero;"/>
            </g>
            <g transform="matrix(1.00015,0,0,1.00015,-1009.45,-357.389)">
                <path d="M1169.42,386.669L1136.34,452.002L1131.09,452.002L1164.09,386.669" style="fill:rgb(41,43,41);fill-rule:nonzero;"/>
            </g>
            <g transform="matrix(1.00015,0,0,1.00015,-1009.45,-357.389)">
                <path d="M1047.02,719.938L1047.06,744.617L1211.18,744.25L1210.86,720.167L1047.02,719.938Z" style="fill:rgb(92,95,96);fill-rule:nonzero;"/>
            </g>
            <g transform="matrix(1.00015,0,0,1.00015,-1009.45,-357.389)">
                <path d="M1102.23,449.866L1097.78,471.137L1156.98,471.032L1152.56,450.866L1102.23,449.866Z" style="fill:rgb(91,93,94);fill-rule:nonzero;"/>
            </g>
            <g transform="matrix(1.00015,0,0,1.00015,-1009.45,-357.389)">
                <path d="M1032.47,734.277L1223.18,734.277L1220.37,481.63L1206.4,466.797L1050.41,466.821L1037.83,484.057L1032.47,734.277Z" style="fill:rgb(229,226,220);fill-rule:nonzero;"/>
            </g>
            <g transform="matrix(1.00015,0,0,1.00015,-1009.45,-357.389)">
                <path d="M1059.06,492.468L1056.96,669.298L1070.43,683.259L1186.43,682.921L1199.99,668.881L1199.59,493.522L1059.06,492.468Z" style="fill:rgb(49,49,86);fill-rule:nonzero;"/>
            </g>
            <g transform="matrix(1.00015,0,0,1.00015,-1009.45,-357.389)">
                <path d="M1059.33,492.713L1058.88,519.142L1199.75,518.775L1199.68,493.692L1059.33,492.713Z" style="fill:rgb(41,43,41);fill-rule:nonzero;"/>
            </g>
            <g transform="matrix(1.00015,0,0,1.00015,-1009.45,-357.389)">
                <path d="M1067.51,503.74L1067.51,500.875L1075.86,500.948L1076.01,498.203L1064.58,498.428L1064.61,506.699L1072.74,506.804L1072.76,511.002L1064.86,511.248L1064.77,513.676L1075.81,513.648L1075.81,503.953" style="fill:rgb(240,157,116);fill-rule:nonzero;"/>
            </g>
            <g transform="matrix(1.00015,0,0,1.00015,-1009.45,-357.389)">
                <path d="M1183.1,695.981L1186.23,686.579L1167.53,686.543L1170.58,696.022L1183.1,695.981Z" style="fill:rgb(248,244,227);fill-rule:nonzero;"/>
            </g>
            <g transform="matrix(1.00015,0,0,1.00015,-1009.45,-357.389)">
                <path d="M1086.76,695.981L1089.88,686.579L1071.19,686.543L1074.24,696.022L1086.76,695.981Z" style="fill:rgb(248,244,227);fill-rule:nonzero;"/>
            </g>
            <g transform="matrix(1.00015,0,0,1.00015,-1009.45,-357.389)">
                <path d="M1033.02,706.616L1032.31,736.295L1223.18,735.928L1222.86,706.845L1033.02,706.616Z" style="fill:rgb(137,187,106);fill-rule:nonzero;"/>
            </g>
            <g transform="matrix(1.00015,0,0,1.00015,-1009.45,-357.389)">
                <path d="M1055.82,686.314L1052.69,695.716L1071.38,695.752L1068.34,686.272L1055.82,686.314Z" style="fill:rgb(193,190,187);fill-rule:nonzero;"/>
            </g>
            <g transform="matrix(1.00015,0,0,1.00015,-1009.45,-357.389)">
                <path d="M1201.15,686.324L1204.28,695.726L1185.59,695.762L1188.63,686.283L1201.15,686.324Z" style="fill:rgb(193,190,187);fill-rule:nonzero;"/>
            </g>
            <g transform="matrix(1.00015,0,0,1.00015,-1009.45,-357.389)">
                <path d="M1164,388.75L1194.31,389L1199.77,400.821L1205,400.188L1196.98,383.928L1058.78,383.928L1050.76,400.188L1055.98,400.821L1061.44,389L1085.76,388.75" style="fill:rgb(41,43,41);fill-rule:nonzero;"/>
            </g>
            <g transform="matrix(1.00015,0,0,1.00015,-1009.45,-357.389)">
                <g>
                    <clipPath id="_clip1">
                        <path d="M1056.96,669.297L1070.42,683.258L1186.43,682.921L1199.99,668.88L1199.59,493.521L1059.06,492.469L1056.96,669.297Z"/>
                    </clipPath>
                    <g clip-path="url(#_clip1)">
                        <g opacity="0.3">
                            <path d="M1161.14,518.991L1054.71,625.073L1054.78,518.995L1161.14,518.991Z" style="fill:rgb(12,24,37);fill-rule:nonzero;"/>
                        </g>
                        <g opacity="0.3">
                            <path d="M1202.29,686.245L1202.32,584.234L1102.32,679.722L1101.07,686.272L1202.29,686.245Z" style="fill:rgb(12,24,37);fill-rule:nonzero;"/>
                        </g>
                    </g>
                </g>
            </g>
            <g transform="matrix(1.00015,0,0,1.00015,-1009.45,-357.389)">
                <path d="M1097.94,683.179L1104.15,683.161L1199.8,587.171L1199.79,581.189L1097.94,683.179Z" style="fill:rgb(73,75,114);fill-rule:nonzero;"/>
            </g>
        </g>
        <g transform="matrix(0.248575,-9.50748e-20,-3.49091e-19,0.0680873,0.116218,71.9604)">
            <rect x="-0.468" y="0.582" width="241.376" height="117.496" style="fill:rgb(41,43,41);"/>
        </g>
    </g>
</svg>
