<?xml version="1.0" encoding="UTF-8" standalone="no"?>
<!DOCTYPE svg PUBLIC "-//W3C//DTD SVG 1.1//EN" "http://www.w3.org/Graphics/SVG/1.1/DTD/svg11.dtd">
<svg width="100%" height="100%" viewBox="0 0 60 80" version="1.1" xmlns="http://www.w3.org/2000/svg" xmlns:xlink="http://www.w3.org/1999/xlink" xml:space="preserve" xmlns:serif="http://www.serif.com/" style="fill-rule:evenodd;clip-rule:evenodd;stroke-miterlimit:10;">
    <g id="magic-carpet">
        <g transform="matrix(0.3183,0,0,0.3183,7.3429,0.848862)">
            <g transform="matrix(-0.0501372,-0.998742,-0.998742,0.0501372,76.211,109.105)">
                <path d="M-14.565,36.068L35.418,36.068L34.177,11.35L-15.555,16.354L-14.565,36.068Z" style="fill:rgb(245,243,233);fill-rule:nonzero;"/>
            </g>
            <g transform="matrix(1,0,0,1,40.905,75.54)">
                <path d="M0,49.92L22.258,0L19.737,49.92L0,49.92Z" style="fill:rgb(202,199,191);fill-rule:nonzero;"/>
            </g>
            <g transform="matrix(-0.323567,-0.946205,-0.946205,0.323567,40.411,72.746)">
                <path d="M-3.156,-0.595L-1.401,-0.595L-0.609,1.719L-1.997,2.794L-3.156,-0.595Z" style="fill:rgb(73,75,114);fill-rule:nonzero;"/>
            </g>
            <g transform="matrix(0.0501252,0.998743,0.998743,-0.0501252,63.303,95.804)">
                <path d="M-21.487,-23.842L24.518,-23.842L25.069,-22.592L-21.307,-20.264L-21.487,-23.842Z" style="fill:rgb(73,75,114);fill-rule:nonzero;"/>
            </g>
            <g transform="matrix(0.323567,-0.946205,-0.946205,-0.323567,61.578,76.672)">
                <path d="M0.426,2.256L2.181,2.256L2.973,-0.058L1.585,-1.133L0.426,2.256Z" style="fill:rgb(73,75,114);fill-rule:nonzero;"/>
            </g>
            <g transform="matrix(-0.0501252,0.998743,0.998743,0.0501252,84.47,101.709)">
                <path d="M-25.069,-22.592L20.936,-22.592L21.487,-23.842L-24.889,-26.17L-25.069,-22.592Z" style="fill:rgb(73,75,114);fill-rule:nonzero;"/>
            </g>
            <g transform="matrix(1,0,0,1,50.788,72.233)">
                <path d="M0,-18.255L-10.139,-20.04L-14.706,-2.944L0,1.785L14.706,-2.944L10.139,-20.04L0,-18.255Z" style="fill:rgb(227,225,216);fill-rule:nonzero;"/>
            </g>
            <g transform="matrix(1,0,0,1,50.773,74.116)">
                <path d="M0,-20.084L0,0.002L0.014,-0.003L0.029,0.002L0.029,-20.084L0.014,-20.086L0,-20.084Z" style="fill:rgb(227,225,216);fill-rule:nonzero;"/>
            </g>
            <g transform="matrix(1,0,0,1,50.788,67.601)">
                <path d="M0,31.126L-3.695,8.022L-4.197,0L4.197,0L3.696,8.022L0,31.126Z" style="fill:rgb(174,145,128);fill-rule:nonzero;"/>
            </g>
            <g transform="matrix(1,0,0,1,47.478,69.289)">
                <path d="M0,-20.5L-5.213,-18.583L-4.211,-3.675L1.106,0L5.513,0L10.83,-3.675L11.833,-18.583L6.62,-20.5L0,-20.5Z" style="fill:rgb(206,171,152);fill-rule:nonzero;"/>
            </g>
            <g transform="matrix(1,0,0,1,43.284,60.007)">
                <path d="M0,-3.384L-1.18,-4.292L-2.724,-3.384L-1.362,0.908L0,0.908L0,-3.384Z" style="fill:rgb(206,171,152);fill-rule:nonzero;"/>
            </g>
            <g transform="matrix(1,0,0,1,58.292,60.007)">
                <path d="M0,-3.384L1.18,-4.292L2.724,-3.384L1.362,0.908L0,0.908L0,-3.384Z" style="fill:rgb(206,171,152);fill-rule:nonzero;"/>
            </g>
            <g transform="matrix(1,0,0,1,50.788,52.846)">
                <path d="M0,-17.443L-5.892,-15.996L-13.377,-9.513L-12.375,-2.889L-9.486,0L-0.015,-3.425L0,-3.42L0.015,-3.425L9.486,0L12.375,-2.889L13.377,-9.513L5.892,-15.996L0,-17.443Z" style="fill:rgb(245,243,233);fill-rule:nonzero;"/>
            </g>
            <g transform="matrix(1,0,0,1,50.788,54.027)">
                <path d="M0,-4.601L-0.015,-4.606L-9.486,-1.182L-8.299,0.005L-5.629,-0.461L0,-1.444L5.629,-0.461L8.299,0.005L9.486,-1.182L0.015,-4.606L0,-4.601Z" style="fill:rgb(73,75,114);fill-rule:nonzero;"/>
            </g>
            <g transform="matrix(1,0,0,1,49.154,45.552)">
                <path d="M0,-14.047L-1.846,-12.202L-1.846,-9.49L0.615,0L2.653,0L5.113,-9.49L5.113,-12.202L3.268,-14.047L0,-14.047Z" style="fill:rgb(73,75,114);fill-rule:nonzero;"/>
            </g>
            <g transform="matrix(1,0,0,1,48.452,50.195)">
                <path d="M0,-6.303L-1.078,-3.152L0,0L4.672,0L5.75,-3.152L4.672,-6.303L0,-6.303Z" style="fill:rgb(248,187,34);fill-rule:nonzero;"/>
            </g>
            <g transform="matrix(1,0,0,1,50.788,125.46)">
                <path d="M0,11.875L-15.538,10.059L-9.869,0L9.869,0L15.539,10.059L0,11.875Z" style="fill:rgb(74,74,71);fill-rule:nonzero;"/>
            </g>
            <g transform="matrix(-0.633902,0.773413,0.773413,0.633902,34.624,100.81)">
                <path d="M-21.928,-13.111L3.804,-13.111L3.247,-6.769L-13.218,-5.21L-21.928,-13.111Z" style="fill:rgb(245,243,233);fill-rule:nonzero;"/>
            </g>
            <g transform="matrix(0.169451,0.985539,0.985539,-0.169451,24.992,117.66)">
                <path d="M-4.922,5.476L0.885,5.476L-6.426,-6.852L-12.012,-4.139L-4.922,5.476Z" style="fill:rgb(206,171,152);fill-rule:nonzero;"/>
            </g>
            <g transform="matrix(0.825985,0.563693,0.563693,-0.825985,27.089,95.67)">
                <path d="M-4.262,-2.632L2.105,-2.632L11.174,-11.999L-0.666,-13.593L-4.262,-2.632Z" style="fill:rgb(245,243,233);fill-rule:nonzero;"/>
            </g>
            <g transform="matrix(0.879126,0.476589,0.476589,-0.879126,30.735,111.255)">
                <path d="M-0.739,-1.113L2.731,-1.113L4.041,-2.274L1.79,-4.324L-0.739,-1.113Z" style="fill:rgb(174,145,128);fill-rule:nonzero;"/>
            </g>
            <g transform="matrix(0.633902,0.773413,0.773413,-0.633902,75.125,73.759)">
                <path d="M-6.206,-10.38L19.527,-10.38L18.969,-16.723L2.504,-18.281L-6.206,-10.38Z" style="fill:rgb(245,243,233);fill-rule:nonzero;"/>
            </g>
            <g transform="matrix(-0.169451,0.985539,0.985539,0.169451,78.851,106.467)">
                <path d="M6.498,-5.841L12.305,-5.841L4.994,6.487L-0.592,3.774L6.498,-5.841Z" style="fill:rgb(206,171,152);fill-rule:nonzero;"/>
            </g>
            <g transform="matrix(-0.826035,0.563619,0.563619,0.826035,80.203,111.652)">
                <path d="M-8.525,-13.808L-2.157,-13.808L6.911,-4.439L-4.928,-2.847L-8.525,-13.808Z" style="fill:rgb(245,243,233);fill-rule:nonzero;"/>
            </g>
            <g transform="matrix(-0.879126,0.476589,0.476589,0.879126,69.525,116.535)">
                <path d="M-4.388,-2.915L-0.918,-2.915L0.392,-1.754L-1.859,0.296L-4.388,-2.915Z" style="fill:rgb(174,145,128);fill-rule:nonzero;"/>
            </g>
            <g transform="matrix(-0.87765,-0.479303,-0.479303,0.87765,16.158,116.226)">
                <path d="M-26.157,-3.764L0.907,-3.764L0.751,3.542L-26.003,7.781L-26.157,-3.764Z" style="fill:rgb(74,74,71);fill-rule:nonzero;"/>
            </g>
            <g transform="matrix(1,0,0,1,17.166,135.518)">
                <path d="M0,-23.03L30.142,-11.515L26.654,0L-3.365,-16.544" style="fill:rgb(245,243,233);fill-rule:nonzero;"/>
            </g>
            <g transform="matrix(-0.999612,0.0278476,0.0278476,0.999612,43.983,140.805)">
                <path d="M-12.417,-16.624L-3.798,-16.624L0.09,-5.258L-6.723,0.021L-12.417,-16.624Z" style="fill:rgb(174,145,128);fill-rule:nonzero;"/>
            </g>
            <g transform="matrix(0.87765,-0.479303,-0.479303,-0.87765,63.014,131.78)">
                <path d="M0.961,6.677L28.025,6.677L27.868,-0.629L1.115,-4.869L0.961,6.677Z" style="fill:rgb(74,74,71);fill-rule:nonzero;"/>
            </g>
            <g transform="matrix(1,0,0,1,84.41,135.518)">
                <path d="M0,-23.03L-30.142,-11.515L-26.654,0L3.364,-16.544" style="fill:rgb(245,243,233);fill-rule:nonzero;"/>
            </g>
            <g transform="matrix(0.999612,0.0278476,0.0278476,-0.999612,45.881,123.675)">
                <path d="M-0.232,-0.173L8.387,-0.173L12.275,-11.539L5.462,-16.818L-0.232,-0.173Z" style="fill:rgb(206,171,152);fill-rule:nonzero;"/>
            </g>
            <g transform="matrix(1,0,0,1,91.9,54.507)">
                <path d="M0,-3.524L-10.453,0.988L-9.869,-2.306L-8.478,-2.652L-0.985,-4.512L0,-3.524Z" style="fill:rgb(73,75,114);fill-rule:nonzero;"/>
            </g>
            <g transform="matrix(1,0,0,1,89.685,79.826)">
                <path d="M0,-22.375L-6.051,-18.367L-5.846,-15.543L-7.518,-14.865L-7.786,-12.314L-6.539,-10.351L-5.448,-10.112L-5.217,-6.928L0.707,-0.944L1.626,6.468L0.097,4.929L-0.327,5.159L-11.773,-11.011L-12.701,-18.804L-10.743,-22.821L-8.238,-24.331L2.215,-28.843L3.103,-27.958L3.103,-27.955L0,-22.375Z" style="fill:rgb(29,29,27);fill-rule:nonzero;"/>
            </g>
            <g transform="matrix(1,0,0,1,95.846,88.109)">
                <path d="M0,-9.227L-0.921,-1.815L-2.728,0L-4.534,-1.815L-5.453,-9.227L-4.581,-8.346L-0.874,-8.346L0,-9.227Z" style="fill:rgb(174,145,128);fill-rule:nonzero;"/>
            </g>
            <g transform="matrix(1,0,0,1,100.369,120.302)">
                <path d="M0,-8.438L-1.767,-2.012L-7.251,3.02L-12.735,-2.012L-14.502,-8.438L-7.251,-11.458L0,-8.438Z" style="fill:rgb(174,145,128);fill-rule:nonzero;"/>
            </g>
            <g transform="matrix(1,0,0,1,107.62,91.753)">
                <path d="M0,0.953L-5.96,6.557L-8.328,3.892L-12.348,3.892L-14.502,5.822L-16.654,3.892L-20.675,3.892L-23.044,6.557L-29.003,0.953L-27.583,-1.09L-18.786,-5.604L-17.1,-2.261L-14.502,-0.557L-11.903,-2.261L-10.217,-5.604L-1.421,-1.09L0,0.953Z" style="fill:rgb(174,145,128);fill-rule:nonzero;"/>
            </g>
            <g transform="matrix(1,0,0,1,110.758,107.352)">
                <path d="M0,-10.134L-5.067,-6.462L-7.944,-4.379L-10.389,4.512L-17.64,1.493L-24.891,4.512L-27.335,-4.379L-30.21,-6.462L-35.279,-10.134L-32.141,-14.646L-26.182,-9.041L-23.812,-11.706L-19.792,-11.706L-17.64,-9.777L-15.485,-11.706L-11.466,-11.706L-9.098,-9.041L-3.138,-14.646L0,-10.134Z" style="fill:rgb(73,75,114);fill-rule:nonzero;"/>
            </g>
            <g transform="matrix(1,0,0,1,80.037,105.432)">
                <path d="M0,15.622L2.048,23.836L-2.319,20.357L-3.053,15.992L-10.935,7.464L-13.518,4.669L-4.559,-8.214L0.511,-4.542L-7.05,4.064L-1.8,12.069L1.751,15.104L1.862,15.907L2.048,17.25L0,15.622Z" style="fill:rgb(174,145,128);fill-rule:nonzero;"/>
            </g>
            <g transform="matrix(1,0,0,1,99.686,125.681)">
                <path d="M0,-4.866L-6.568,2.525L-13.134,-4.866L-12.053,-7.391L-6.568,-2.359L-1.084,-7.391L0,-4.866Z" style="fill:rgb(248,187,34);fill-rule:nonzero;"/>
            </g>
            <g transform="matrix(1,0,0,1,88.278,113.828)">
                <path d="M0,18.77L-0.483,19.852L-1.998,23.231L-2.518,24.393L-7.649,25.972L-33.303,11.468L-43.17,-2.739L-41.196,-5.897L-30.229,-7.202L-19.176,-0.932L-11.294,7.596L-10.561,11.961L-6.193,15.44L-8.241,7.226L-6.193,8.854L-6.379,7.511L-3.85,9.18L-1.726,10.581L0,18.77Z" style="fill:rgb(73,75,114);fill-rule:nonzero;"/>
            </g>
            <g transform="matrix(1,0,0,1,90.644,134.617)">
                <path d="M0,4.888L-0.836,5.825L-2.366,3.704L-2.397,3.684L-4.364,2.442L-2.85,-0.937L-2.208,-0.605L-0.836,0.102L0,4.888Z" style="fill:rgb(174,145,128);fill-rule:nonzero;"/>
            </g>
            <g transform="matrix(1,0,0,1,93.121,134.476)">
                <path d="M0,5.965L-0.057,7.302L-1.292,7.302L-3.563,5.944L-4.874,3.824L-4.843,3.845L-3.313,5.965L-2.477,5.028L-3.313,0.242L-4.685,-0.465L-3.021,-1.337L0,5.965Z" style="fill:rgb(248,187,34);fill-rule:nonzero;"/>
            </g>
            <g transform="matrix(1,0,0,1,95.324,44.243)">
                <path d="M0,5.752L0.25,5.502L-2.208,3.051L-4.659,5.502L-4.409,5.752L-11.901,7.612L-10.272,2.362L-2.206,-1.86L5.861,2.362L7.489,7.612L0,5.752Z" style="fill:rgb(29,29,27);fill-rule:nonzero;"/>
            </g>
            <g transform="matrix(-1,0,0,1,95.322,49.995)">
                <path d="M-0.002,0L0,0" style="fill:none;fill-rule:nonzero;stroke:rgb(29,29,27);stroke-width:0.22px;"/>
            </g>
            <g transform="matrix(1,0,0,1,104.79,49.995)">
                <path d="M0,5.5L-10.454,0.988L-9.466,0L-1.977,1.86L-0.585,2.206L0,5.5Z" style="fill:rgb(73,75,114);fill-rule:nonzero;"/>
            </g>
            <g transform="matrix(1,0,0,1,97.751,90.494)">
                <path d="M0,-5.036L-0.348,-4.345L-2.034,-1.001L-4.633,0.703L-7.23,-1.001L-8.917,-4.345L-9.265,-5.036L-8.393,-5.509L-7.969,-5.739L-6.439,-4.2L-4.633,-2.384L-2.826,-4.2L-1.294,-5.739L0,-5.036Z" style="fill:rgb(248,187,34);fill-rule:nonzero;"/>
            </g>
            <g transform="matrix(1,0,0,1,119.718,116.385)">
                <path d="M0,-6.284L-2.583,-3.489L-10.465,5.039L-11.199,9.404L-15.566,12.883L-13.519,4.669L-15.566,6.297L-15.381,4.954L-15.27,4.152L-11.717,1.116L-6.469,-6.888L-14.027,-15.495L-8.96,-19.167L-7.55,-17.141L0,-6.284Z" style="fill:rgb(174,145,128);fill-rule:nonzero;"/>
            </g>
            <g transform="matrix(1,0,0,1,99.686,136.848)">
                <path d="M0,-12.44L-1.729,-4.251L-1.244,-3.169L-1.887,-2.836L-3.551,-3.709L-6.565,3.593L-9.586,-3.709L-11.25,-2.836L-11.892,-3.169L-11.408,-4.251L-13.134,-12.44L-15.258,-13.84L-13.134,-16.033L-6.568,-8.642L0,-16.033L2.121,-13.84L0,-12.44Z" style="fill:rgb(11,23,35);fill-rule:nonzero;"/>
            </g>
            <g transform="matrix(1,0,0,1,141.129,135.337)">
                <path d="M0,-24.248L-9.867,-10.041L-35.521,4.463L-40.652,2.884L-41.172,1.722L-42.687,-1.657L-43.171,-2.739L-41.442,-10.929L-39.321,-12.329L-36.792,-13.998L-36.978,-12.655L-34.93,-14.283L-36.978,-6.069L-32.61,-9.548L-31.876,-13.913L-23.994,-22.441L-11.045,-28.711L-1.975,-27.406L0,-24.248Z" style="fill:rgb(73,75,114);fill-rule:nonzero;"/>
            </g>
            <g transform="matrix(1,0,0,1,99.957,137.063)">
                <path d="M0,-0.004L-1.966,1.238L-1.999,1.259L-3.529,3.379L-4.365,2.442L-3.529,-2.344L-2.157,-3.051L-1.515,-3.383L0,-0.004Z" style="fill:rgb(174,145,128);fill-rule:nonzero;"/>
            </g>
            <g transform="matrix(-1,0,0,1,98.442,133.68)">
                <path d="M-0.002,0L0,0" style="fill:none;fill-rule:nonzero;stroke:rgb(29,29,27);stroke-width:0.22px;"/>
            </g>
            <g transform="matrix(1,0,0,1,97.991,136.618)">
                <path d="M0,1.683L-1.313,3.802L-3.581,5.161L-4.819,5.161L-4.87,3.824L-1.855,-3.478L-0.191,-2.606L-1.563,-1.899L-2.399,2.887L-1.563,3.824L-0.033,1.704L0,1.683Z" style="fill:rgb(248,187,34);fill-rule:nonzero;"/>
            </g>
            <g transform="matrix(1,0,0,1,104.337,64.119)">
                <path d="M0,3.393L-1.247,5.356L-2.335,5.595L-2.567,8.779L-8.491,14.763L-9.365,15.644L-13.072,15.644L-13.944,14.763L-19.868,8.779L-20.1,5.595L-21.19,5.356L-22.437,3.393L-22.169,0.842L-20.497,0.164L-20.702,-2.66L-14.651,-6.668L-11.549,-12.248L-11.219,-11.918L-10.886,-12.251L-7.786,-6.668L-1.735,-2.66L-1.94,0.164L-0.268,0.842L0,3.393Z" style="fill:rgb(206,171,152);fill-rule:nonzero;"/>
            </g>
            <g transform="matrix(1,0,0,1,138.693,75.608)">
                <path d="M0,-0.99L-3.848,9.147L-6.363,4.929L-13.467,5.226L-19.15,19.286L-26.525,23.635L-27.936,21.61L-31.073,17.098L-32.494,15.055L-41.29,10.541L-40.942,9.849L-42.236,9.147L-43.769,10.686L-42.848,3.274L-36.924,-2.71L-36.691,-5.894L-35.604,-6.133L-34.356,-8.096L-34.624,-10.647L-36.297,-11.325L-36.092,-14.149L-42.143,-18.157L-45.242,-23.74L-44.357,-24.625L-33.903,-20.113L-31.396,-18.603L-29.44,-14.586L-30.368,-6.793L-37.148,2.784L-37.148,6.981L-33.224,10.905L-29.006,6.687L-21.313,-3.949L-21.313,1.526L-7.4,-5.404L0,-0.99Z" style="fill:rgb(29,29,27);fill-rule:nonzero;"/>
            </g>
            <g transform="matrix(1,0,0,1,97.846,50.776)">
                <path d="M0,-0.008L-0.481,0.473L-2.384,2.375L-4.729,4.72L-5.364,4.084L-5.364,4.08L-7.073,2.375L-8.971,0.473L-9.452,-0.008L-4.732,-4.728L0,-0.008Z" style="fill:rgb(248,187,34);fill-rule:nonzero;"/>
            </g>
            <g transform="matrix(-1,0,0,1,17.067,132.878)">
                <path d="M-109.583,6.199L0,6.199L-2.122,0L-107.474,0L-109.583,6.199Z" style="fill:rgb(175,31,37);fill-rule:nonzero;"/>
            </g>
            <g transform="matrix(-0.323655,-0.946175,-0.946175,0.323655,23.656,136.265)">
                <path d="M-7.835,-1.479L-3.479,-1.479L-1.513,4.267L-4.957,6.935L-7.835,-1.479Z" style="fill:rgb(248,187,34);fill-rule:nonzero;"/>
            </g>
            <g transform="matrix(-0.323627,-0.946185,-0.946185,0.323627,34.415,140.261)">
                <path d="M-4.225,-0.798L-1.876,-0.798L-0.816,2.301L-2.673,3.739L-4.225,-0.798Z" style="fill:rgb(59,17,19);fill-rule:nonzero;"/>
            </g>
            <g transform="matrix(-0.320853,0.947129,0.947129,0.320853,59.299,181.711)">
                <path d="M-58.247,39.066L-55.396,39.066L-28.306,-40.9L-30.571,-42.633L-58.247,39.066Z" style="fill:rgb(59,17,19);fill-rule:nonzero;"/>
            </g>
            <g transform="matrix(0.323655,-0.946175,-0.946175,-0.323655,121.084,146.012)">
                <path d="M1.057,5.601L5.413,5.601L7.378,-0.144L3.935,-2.813L1.057,5.601Z" style="fill:rgb(248,187,34);fill-rule:nonzero;"/>
            </g>
            <g transform="matrix(0.324009,-0.946054,-0.946054,-0.324009,109.852,145.517)">
                <path d="M0.57,3.019L2.918,3.019L3.979,-0.077L2.123,-1.517L0.57,3.019Z" style="fill:rgb(59,17,19);fill-rule:nonzero;"/>
            </g>
        </g>
        <g transform="matrix(0.248575,-9.50748e-20,-3.49091e-19,0.0680873,0.116218,71.9604)">
            <rect x="-0.468" y="0.582" width="241.376" height="117.496" style="fill:rgb(41,43,41);"/>
        </g>
    </g>
</svg>
