<?xml version="1.0" encoding="UTF-8" standalone="no"?>
<!DOCTYPE svg PUBLIC "-//W3C//DTD SVG 1.1//EN" "http://www.w3.org/Graphics/SVG/1.1/DTD/svg11.dtd">
<svg width="100%" height="100%" viewBox="0 0 60 80" version="1.1" xmlns="http://www.w3.org/2000/svg" xmlns:xlink="http://www.w3.org/1999/xlink" xml:space="preserve" xmlns:serif="http://www.serif.com/" style="fill-rule:evenodd;clip-rule:evenodd;stroke-linejoin:round;stroke-miterlimit:2;">
    <g id="sidewalk-bike-rack">
        <g id="bike-rack-perpendicular-left" transform="matrix(0.183602,0,0,0.183602,-47.8757,-38.1392)">
            <g transform="matrix(1.99969,9.86076e-32,1.97215e-31,1.99969,9.99687e-05,-623.809)">
                <path d="M243.088,570.728L241.183,573.124L253.009,585.011L255.675,583.005L243.088,570.728Z" style="fill:rgb(228,226,220);fill-rule:nonzero;"/>
            </g>
            <g transform="matrix(1.99969,9.86076e-32,1.97215e-31,1.99969,9.99687e-05,-623.809)">
                <path d="M260.588,588.229L258.683,590.625L270.509,602.512L273.175,600.506L260.588,588.229Z" style="fill:rgb(228,226,220);fill-rule:nonzero;"/>
            </g>
            <g transform="matrix(1.99969,9.86076e-32,1.97215e-31,1.99969,9.99687e-05,-623.809)">
                <path d="M269.27,570.728L271.175,573.124L259.349,585.011L256.683,583.005L269.27,570.728Z" style="fill:rgb(228,226,220);fill-rule:nonzero;"/>
            </g>
            <g transform="matrix(1.99969,9.86076e-32,1.97215e-31,1.99969,9.99687e-05,-623.809)">
                <path d="M253.02,586.979L254.9,589.401L241.882,602.479L239.183,600.506L253.02,586.979Z" style="fill:rgb(228,226,220);fill-rule:nonzero;"/>
            </g>
            <g transform="matrix(1.99969,9.86076e-32,1.97215e-31,1.99969,9.99687e-05,-623.809)">
                <path d="M276.298,588.602L275.95,585.56L259.183,585.517L258.716,588.821L276.298,588.602Z" style="fill:rgb(228,226,220);fill-rule:nonzero;"/>
            </g>
            <g transform="matrix(1.99969,9.86076e-32,1.97215e-31,1.99969,9.99687e-05,-623.809)">
                <path d="M251.55,588.602L251.202,585.559L234.435,585.516L233.968,588.821L251.55,588.602Z" style="fill:rgb(228,226,220);fill-rule:nonzero;"/>
            </g>
            <g transform="matrix(1.99969,9.86076e-32,1.97215e-31,1.99969,9.99687e-05,-623.809)">
                <path d="M257.785,607.864L254.744,607.503L254.701,590.019L258.004,589.533L257.785,607.864Z" style="fill:rgb(228,226,220);fill-rule:nonzero;"/>
            </g>
            <g transform="matrix(1.99969,9.86076e-32,1.97215e-31,1.99969,9.99687e-05,-623.809)">
                <path d="M257.785,582.365L254.744,582.017L254.701,565.25L258.004,564.783L257.785,582.365Z" style="fill:rgb(228,226,220);fill-rule:nonzero;"/>
            </g>
            <g transform="matrix(1.99969,9.86076e-32,1.97215e-31,1.99969,9.99687e-05,-623.809)">
                <path d="M235.615,587.37C235.615,576.324 244.569,567.37 255.615,567.37C266.661,567.37 275.615,576.324 275.615,587.37C275.615,598.416 266.661,607.37 255.615,607.37C244.569,607.37 235.615,598.416 235.615,587.37M230.987,587.371C230.987,600.973 242.013,611.999 255.615,611.999C269.218,611.999 280.244,600.973 280.244,587.371C280.244,573.768 269.218,562.742 255.615,562.742C242.013,562.742 230.987,573.768 230.987,587.371" style="fill:rgb(55,56,55);fill-rule:nonzero;"/>
            </g>
            <g transform="matrix(1.99969,9.86076e-32,1.97215e-31,1.99969,9.99687e-05,-623.809)">
                <path d="M221.53,584.538L189.236,545.912L186.641,548.13L218.722,586.396L221.53,584.538Z" style="fill:rgb(236,219,177);fill-rule:nonzero;"/>
            </g>
            <g transform="matrix(1.99969,9.86076e-32,1.97215e-31,1.99969,9.99687e-05,-623.809)">
                <path d="M232.729,555.21L190.107,537.703L188.846,540.875L231.143,558.176L232.729,555.21Z" style="fill:rgb(236,219,177);fill-rule:nonzero;"/>
            </g>
            <g transform="matrix(1.99969,9.86076e-32,1.97215e-31,1.99969,9.99687e-05,-623.809)">
                <path d="M193.207,536.727L184.439,532.87L183.166,536.037L191.887,539.8L193.207,536.727Z" style="fill:rgb(236,219,177);fill-rule:nonzero;"/>
            </g>
            <g transform="matrix(1.99969,9.86076e-32,1.97215e-31,1.99969,9.99687e-05,-623.809)">
                <path d="M223.641,586.017L239.43,539.433L236.184,538.375L220.59,584.596L223.641,586.017Z" style="fill:rgb(236,219,177);fill-rule:nonzero;"/>
            </g>
            <g transform="matrix(1.99969,9.86076e-32,1.97215e-31,1.99969,9.99687e-05,-623.809)">
                <path d="M246.797,537.741L246.218,541.743L230.592,541.742L225.964,537.741L246.797,537.741Z" style="fill:rgb(192,158,62);fill-rule:nonzero;"/>
            </g>
            <g transform="matrix(1.99969,9.86076e-32,1.97215e-31,1.99969,9.99687e-05,-623.809)">
                <path d="M219.825,579.514L219.304,581.078L214.05,581.154L215.403,582.917L211.256,585.587L212.819,586.991L212.224,592.407L214.348,592.219L217.217,595.795L218.819,594.044L223.588,595.274L223.96,593.336L227.574,590.914L225.712,589.797L227.09,586.332L225.19,585.401L225.004,582.084L223.178,582.308L219.825,579.514Z" style="fill:rgb(55,56,55);fill-rule:nonzero;"/>
            </g>
            <g transform="matrix(1.99969,9.86076e-32,1.97215e-31,1.99969,9.99687e-05,-623.809)">
                <g opacity="0.5">
                    <path d="M184.44,532.87L183.698,536.326L188.948,538.576L193.424,536.566L184.44,532.87Z" style="fill:rgb(23,24,23);fill-rule:nonzero;"/>
                </g>
            </g>
            <g transform="matrix(1.99969,9.86076e-32,1.97215e-31,1.99969,9.99687e-05,-623.809)">
                <path d="M181.053,537.41L184.384,537.493L185.802,532.076L179.469,531.993L181.053,537.41Z" style="fill:rgb(206,173,128);fill-rule:nonzero;"/>
            </g>
            <g transform="matrix(1.99969,9.86076e-32,1.97215e-31,1.99969,9.99687e-05,-623.809)">
                <path d="M156.088,570.728L154.183,573.124L166.009,585.011L168.675,583.005L156.088,570.728Z" style="fill:rgb(228,226,220);fill-rule:nonzero;"/>
            </g>
            <g transform="matrix(1.99969,9.86076e-32,1.97215e-31,1.99969,9.99687e-05,-623.809)">
                <path d="M173.588,588.229L171.683,590.625L183.509,602.512L186.175,600.506L173.588,588.229Z" style="fill:rgb(228,226,220);fill-rule:nonzero;"/>
            </g>
            <g transform="matrix(1.99969,9.86076e-32,1.97215e-31,1.99969,9.99687e-05,-623.809)">
                <path d="M182.27,570.728L184.175,573.124L172.349,585.011L169.683,583.005L182.27,570.728Z" style="fill:rgb(228,226,220);fill-rule:nonzero;"/>
            </g>
            <g transform="matrix(1.99969,9.86076e-32,1.97215e-31,1.99969,9.99687e-05,-623.809)">
                <path d="M166.02,586.979L167.9,589.401L154.882,602.479L152.183,600.506L166.02,586.979Z" style="fill:rgb(228,226,220);fill-rule:nonzero;"/>
            </g>
            <g transform="matrix(1.99969,9.86076e-32,1.97215e-31,1.99969,9.99687e-05,-623.809)">
                <path d="M189.298,588.602L188.95,585.56L172.183,585.517L171.716,588.821L189.298,588.602Z" style="fill:rgb(228,226,220);fill-rule:nonzero;"/>
            </g>
            <g transform="matrix(1.99969,9.86076e-32,1.97215e-31,1.99969,9.99687e-05,-623.809)">
                <path d="M164.55,588.602L164.202,585.559L147.435,585.516L146.968,588.821L164.55,588.602Z" style="fill:rgb(228,226,220);fill-rule:nonzero;"/>
            </g>
            <g transform="matrix(1.99969,9.86076e-32,1.97215e-31,1.99969,9.99687e-05,-623.809)">
                <path d="M170.785,607.864L167.744,607.503L167.701,590.019L171.004,589.533L170.785,607.864Z" style="fill:rgb(228,226,220);fill-rule:nonzero;"/>
            </g>
            <g transform="matrix(1.99969,9.86076e-32,1.97215e-31,1.99969,9.99687e-05,-623.809)">
                <path d="M170.785,582.365L167.744,582.017L167.701,565.25L171.004,564.783L170.785,582.365Z" style="fill:rgb(228,226,220);fill-rule:nonzero;"/>
            </g>
            <g transform="matrix(1.99969,9.86076e-32,1.97215e-31,1.99969,9.99687e-05,-623.809)">
                <path d="M257.137,579.327L262.137,586.077L256.762,594.077L248.637,587.077L257.137,579.327Z" style="fill:rgb(55,56,55);fill-rule:nonzero;"/>
            </g>
            <g transform="matrix(1.99969,9.86076e-32,1.97215e-31,1.99969,9.99687e-05,-623.809)">
                <path d="M167.885,579.701L176.802,585.909L171.427,593.909L163.302,586.909L167.885,579.701Z" style="fill:rgb(55,56,55);fill-rule:nonzero;"/>
            </g>
            <g transform="matrix(1.99969,9.86076e-32,1.97215e-31,1.99969,9.99687e-05,-623.809)">
                <path d="M256.333,585.615L231.877,557.986L229.349,560.279L253.654,587.636L256.333,585.615Z" style="fill:rgb(236,219,177);fill-rule:nonzero;"/>
            </g>
            <g transform="matrix(1.99969,9.86076e-32,1.97215e-31,1.99969,9.99687e-05,-623.809)">
                <path d="M148.615,587.37C148.615,576.324 157.569,567.37 168.615,567.37C179.661,567.37 188.615,576.324 188.615,587.37C188.615,598.416 179.661,607.37 168.615,607.37C157.569,607.37 148.615,598.416 148.615,587.37M143.987,587.371C143.987,600.973 155.013,611.999 168.615,611.999C182.218,611.999 193.244,600.973 193.244,587.371C193.244,573.768 182.218,562.742 168.615,562.742C155.013,562.742 143.987,573.768 143.987,587.371" style="fill:rgb(55,56,55);fill-rule:nonzero;"/>
            </g>
            <g transform="matrix(1.99969,9.86076e-32,1.97215e-31,1.99969,9.99687e-05,-623.809)">
                <path d="M172.336,586.932L193.424,536.567L190.258,535.286L169.41,585.26L172.336,586.932Z" style="fill:rgb(236,219,177);fill-rule:nonzero;"/>
            </g>
            <g transform="matrix(1.99969,9.86076e-32,1.97215e-31,1.99969,9.99687e-05,-623.809)">
                <path d="M217.377,588.464L216.892,591.474L206.838,590.595L206.858,587.28L217.377,588.464Z" style="fill:rgb(228,226,220);fill-rule:nonzero;"/>
            </g>
            <g transform="matrix(1.99969,9.86076e-32,1.97215e-31,1.99969,9.99687e-05,-623.809)">
                <path d="M206.757,585.076L207.424,590.742L196.253,590.242L194.92,583.909L206.757,585.076Z" style="fill:rgb(55,56,55);fill-rule:nonzero;"/>
            </g>
            <g transform="matrix(1.99969,9.86076e-32,1.97215e-31,1.99969,9.99687e-05,-623.809)">
                <g opacity="0.5">
                    <path d="M235.009,541.743L232.885,558.576L238.634,541.66L235.009,541.743Z" style="fill:rgb(23,24,23);fill-rule:nonzero;"/>
                </g>
            </g>
            <g transform="matrix(1.99969,9.86076e-32,1.97215e-31,1.99969,9.99687e-05,-623.809)">
                <path d="M172.38,612L172.381,547.576L178.235,547.598L242.382,612L234.926,612L187.035,564.107L177.8,554.742L177.548,611.999L172.38,612Z" style="fill:rgb(124,112,91);fill-rule:nonzero;"/>
            </g>
        </g>
        <g transform="matrix(0.248575,-9.48079e-20,-3.49091e-19,0.0678962,0.116218,71.9829)">
            <rect x="-0.468" y="0.582" width="241.376" height="117.496" style="fill:rgb(216,211,203);"/>
        </g>
    </g>
</svg>
