<?xml version="1.0" encoding="UTF-8" standalone="no"?>
<!DOCTYPE svg PUBLIC "-//W3C//DTD SVG 1.1//EN" "http://www.w3.org/Graphics/SVG/1.1/DTD/svg11.dtd">
<svg width="100%" height="100%" viewBox="0 0 60 80" version="1.1" xmlns="http://www.w3.org/2000/svg" xmlns:xlink="http://www.w3.org/1999/xlink" xml:space="preserve" xmlns:serif="http://www.serif.com/" style="fill-rule:evenodd;clip-rule:evenodd;stroke-linejoin:round;stroke-miterlimit:2;">
    <g id="sidewalk">
        <g transform="matrix(0.248575,-9.48079e-20,-3.49091e-19,0.0678962,0.116218,71.9829)">
            <rect x="-0.468" y="0.582" width="241.376" height="117.496" style="fill:rgb(216,211,203);"/>
        </g>
        <g transform="matrix(0.346894,0,0,0.346894,36.5763,49.0383)">
            <g id="people-21" transform="matrix(1,0,0,1,-503.76,-167.977)">
                <g transform="matrix(1,0,0,1,0,-12)">
                    <path d="M510.254,239.081L509.658,243.415L513.882,243.307L514.208,238.648L510.254,239.081Z" style="fill:rgb(255,238,204);fill-rule:nonzero;"/>
                </g>
                <g transform="matrix(1,0,0,1,0,-12)">
                    <path d="M513.301,245.703L514.153,252L517.485,252L517.973,250.619L517.106,244.905L513.301,245.703Z" style="fill:rgb(255,238,204);fill-rule:nonzero;"/>
                </g>
                <g transform="matrix(1,0,0,1,0,-12)">
                    <path d="M525.324,204.63L526.057,208.534L525.048,213.521L523.227,212.499L523.748,208.21L523.627,209.511L521.935,209.09L523.363,205.914L525.324,204.63Z" style="fill:rgb(225,197,181);fill-rule:nonzero;"/>
                </g>
                <g transform="matrix(1,0,0,1,0,-12)">
                    <path d="M520.311,187.98L523.328,206.206L525.486,205.396L522.795,184.831L520.311,187.98Z" style="fill:rgb(225,197,181);fill-rule:nonzero;"/>
                </g>
                <g transform="matrix(1,0,0,1,0,-12)">
                    <path d="M503.17,203.255L502.437,207.159L503.446,212.146L505.267,211.124L504.746,206.835L504.867,208.136L506.559,207.715L505.131,204.539L503.17,203.255Z" style="fill:rgb(225,197,181);fill-rule:nonzero;"/>
                </g>
                <g transform="matrix(1,0,0,1,0,-12)">
                    <path d="M508.183,186.605L505.166,204.831L503.008,204.021L505.699,183.456L508.183,186.605Z" style="fill:rgb(225,197,181);fill-rule:nonzero;"/>
                </g>
                <g transform="matrix(1,0,0,1,0,-12)">
                    <path d="M514.099,212.865L513.45,245.689L517.078,244.931L520.275,212.756" style="fill:rgb(225,197,181);fill-rule:nonzero;"/>
                </g>
                <g transform="matrix(1,0,0,1,0,-12)">
                    <path d="M514.208,201.273L514.099,215.139L513.584,238.81L510.254,239.081L508.629,214.991L514.208,201.273Z" style="fill:rgb(206,171,151);fill-rule:nonzero;"/>
                </g>
                <g transform="matrix(1,0,0,1,0,-12)">
                    <path d="M505.727,183.403L509.781,181.73L511.397,185.714L517.123,185.881L519.048,182.329L522.737,184.862L520.26,188.135L519.953,198.369L525.077,230.467L503.857,230.632L508.754,198.723L507.82,186.375L505.727,183.403Z" style="fill:rgb(255,238,204);fill-rule:nonzero;"/>
                </g>
                <g transform="matrix(1,0,0,1,0,-12)">
                    <path d="M521.778,191.072L519.894,167.208L514.5,165.028L514.504,164.95L508.557,167.658L507.709,190.861L510.416,192.931L519.483,193.25L521.778,191.072Z" style="fill:rgb(84,62,54);fill-rule:nonzero;"/>
                </g>
            </g>
            <g id="people-06" transform="matrix(1,0,0,1,-1614.93,-167.477)">
                <g transform="matrix(1,0,0,1,0,-12)">
                    <path d="M1660.03,231.021L1659.08,237.892L1665.78,237.72L1666.3,230.336L1660.03,231.021Z" style="fill:rgb(42,43,42);fill-rule:nonzero;"/>
                </g>
                <g transform="matrix(1,0,0,1,0,-12)">
                    <path d="M1664.86,241.519L1666.21,251.5L1671.49,251.5L1672.26,249.311L1670.88,240.254L1664.86,241.519Z" style="fill:rgb(42,43,42);fill-rule:nonzero;"/>
                </g>
                <g transform="matrix(1,0,0,1,0,-12)">
                    <path d="M1674.19,120.405L1671.36,118.516L1669.3,112.677L1664.54,114.034L1663.03,117.743L1659.77,119.375L1666.87,130.837L1674.19,120.405Z" style="fill:rgb(85,63,55);fill-rule:nonzero;"/>
                </g>
                <g transform="matrix(1,0,0,1,0,-12)">
                    <path d="M1669.4,116.839L1665.11,116.839L1660.5,110.904L1661.32,98.21L1663.08,96.748L1671.81,96.835L1674.67,98.869L1674.51,110.904L1669.4,116.839Z" style="fill:rgb(114,89,75);fill-rule:nonzero;"/>
                </g>
                <g transform="matrix(1,0,0,1,0,-12)">
                    <path d="M1661.01,103.456L1658.19,103.503L1657.97,108.419L1660.85,108.269L1661.01,103.456Z" style="fill:rgb(114,89,75);fill-rule:nonzero;"/>
                </g>
                <g transform="matrix(1,0,0,1,0,-12)">
                    <path d="M1674.3,104.125L1677.15,104.9L1676.93,109.022L1674.41,109.12L1674.3,104.125Z" style="fill:rgb(114,89,75);fill-rule:nonzero;"/>
                </g>
                <g transform="matrix(1,0,0,1,0,-12)">
                    <path d="M1655.36,161.031L1660.03,231.02L1665.43,231.02L1666.64,171.162L1663.84,200.122L1664.92,241.582L1670.84,240.294L1673.94,200.367L1677.97,161.545L1655.36,161.031Z" style="fill:rgb(92,94,95);fill-rule:nonzero;"/>
                </g>
                <g transform="matrix(1,0,0,1,0,-12)">
                    <path d="M1666.09,171.063L1663.37,202.17L1664.65,231.029L1659.34,220.959L1656.76,180.268L1666.09,171.063Z" style="fill:rgb(23,24,23);fill-opacity:0.5;fill-rule:nonzero;"/>
                </g>
                <g transform="matrix(1,0,0,1,0,-12)">
                    <path d="M1685.28,156.99L1687.63,162.758L1687.17,170.75L1684.52,169.732L1683.98,162.984L1684.2,165.018L1681.8,165.125L1682.67,159.576L1685.28,156.99Z" style="fill:rgb(114,89,75);fill-rule:nonzero;"/>
                </g>
                <g transform="matrix(1,0,0,1,0,-12)">
                    <path d="M1649.17,157.268L1647.4,161.747L1647.55,169.125L1650.45,168.744L1651.04,161.998L1650.81,164.031L1653.3,164.375L1652.47,158.782L1649.17,157.268Z" style="fill:rgb(114,89,75);fill-rule:nonzero;"/>
                </g>
                <g transform="matrix(1,0,0,1,0,-12)">
                    <path d="M1659.64,119.246L1653.41,121.951L1648.95,158.11L1652.56,158.711L1656.68,126.587L1655.3,161.029L1677.97,161.545L1676.08,129.336L1682.61,159.655L1685.91,158.196L1680.03,123.84L1674.19,120.275L1665.82,119.777L1659.64,119.246Z" style="fill:rgb(235,218,176);fill-rule:nonzero;"/>
                </g>
                <g transform="matrix(1,0,0,1,0,-12)">
                    <path d="M1676.31,134.313L1677.97,161.545L1655.3,161.03L1655.5,155.063" style="fill:rgb(224,206,168);fill-rule:nonzero;"/>
                </g>
            </g>
            <g id="people-29" transform="matrix(1,0,0,1,-1274.82,-167.312)">
                <g transform="matrix(1,0,0,1,0,-12)">
                    <path d="M1199.15,145.5L1205.18,171.979L1209.08,170.188L1201.9,139L1199.15,145.5Z" style="fill:rgb(114,89,75);fill-rule:nonzero;"/>
                </g>
                <g transform="matrix(1,0,0,1,0,-12)">
                    <path d="M1208.46,170.017L1213.26,171.11L1214.07,176.454L1205.99,177.1L1205.95,171.198L1206.28,173.012L1202.55,173.657L1202.23,170.11L1208.46,170.017Z" style="fill:rgb(114,89,75);fill-rule:nonzero;"/>
                </g>
                <g transform="matrix(1,0,0,1,0,-12)">
                    <path d="M1245.22,230.521L1246.16,237.392L1236.46,237.22L1235.94,229.836L1245.22,230.521Z" style="fill:rgb(42,43,42);fill-rule:nonzero;"/>
                </g>
                <g transform="matrix(1,0,0,1,0,-12)">
                    <path d="M1228.35,239.753L1226.98,248.811L1227.75,251L1236.03,251L1237.38,241.019L1228.35,239.753Z" style="fill:rgb(42,43,42);fill-rule:nonzero;"/>
                </g>
                <g transform="matrix(1,0,0,1,0,-12)">
                    <path d="M1228.05,124.905L1229.34,123.016L1231.4,117.177L1238.9,118.666L1240.41,122.375L1242.47,123.875L1235.37,135.337L1228.05,124.905Z" style="fill:rgb(206,171,151);fill-rule:nonzero;"/>
                </g>
                <g transform="matrix(1,0,0,1,0,-12)">
                    <path d="M1232.84,121.339L1237.12,121.339L1241.74,115.404L1240.92,102.71L1232.68,101.335L1227.57,103.369L1227.73,115.404L1232.84,121.339Z" style="fill:rgb(225,197,181);fill-rule:nonzero;"/>
                </g>
                <g transform="matrix(1,0,0,1,0,-12)">
                    <path d="M1230.19,101.55L1230.62,99.832L1244.44,101.169L1245.59,110.995L1241.31,111.253L1237.96,104.426L1231.74,103.525L1230.19,101.55Z" style="fill:rgb(228,226,220);fill-rule:nonzero;"/>
                </g>
                <g transform="matrix(1,0,0,1,0,-12)">
                    <path d="M1241.23,107.956L1244.05,108.003L1244.27,112.919L1241.39,112.769L1241.23,107.956Z" style="fill:rgb(225,197,181);fill-rule:nonzero;"/>
                </g>
                <g transform="matrix(1,0,0,1,0,-12)">
                    <path d="M1231.78,103.524L1228.3,104.941L1227.66,111.123L1222.6,111.767L1223.18,103.625L1230.68,99.875L1231.78,103.524Z" style="fill:rgb(228,226,220);fill-rule:nonzero;"/>
                </g>
                <g transform="matrix(1,0,0,1,0,-12)">
                    <path d="M1227.94,108.625L1225.09,109.4L1225.31,113.522L1227.83,113.62L1227.94,108.625Z" style="fill:rgb(225,197,181);fill-rule:nonzero;"/>
                </g>
                <g transform="matrix(1,0,0,1,0,-12)">
                    <path d="M1255.88,169.037L1245.22,230.52L1236.8,230.52L1235.6,173.162L1238.4,199.622L1237.32,241.082L1228.39,239.794L1224.3,199.867L1217.26,169L1240.69,166.562L1255.88,169.037Z" style="fill:rgb(92,94,95);fill-rule:nonzero;"/>
                </g>
                <g transform="matrix(1,0,0,1,0,-12)">
                    <path d="M1236.15,173.063L1240.31,200.959L1237.58,230.529L1246.81,221.416L1252.4,189.167L1236.15,173.063Z" style="fill:rgb(23,24,23);fill-opacity:0.5;fill-rule:nonzero;"/>
                </g>
                <g transform="matrix(1,0,0,1,0,-12)">
                    <path d="M1207.13,164.573L1204.78,170.341L1205.23,178.333L1210.71,176.737L1211.25,169.989L1211.03,172.023L1213.43,172.13L1212.56,166.581L1207.13,164.573Z" style="fill:rgb(225,197,181);fill-rule:nonzero;"/>
                </g>
                <g transform="matrix(1,0,0,1,0,-12)">
                    <path d="M1264.4,165.273L1266.17,169.752L1266.02,177.13L1260.8,176.749L1260.21,170.003L1260.44,172.036L1257.95,172.38L1258.78,166.787L1264.4,165.273Z" style="fill:rgb(225,197,181);fill-rule:nonzero;"/>
                </g>
                <g transform="matrix(1,0,0,1,0,-12)">
                    <path d="M1242.6,123.746L1252.83,126.451L1264.73,166.116L1258.69,166.717L1248.57,134.09L1255.95,169.035L1217.26,169L1223.15,136.839L1212.62,166.66L1206.9,165.201L1219.2,128.34L1228.05,124.775L1236.42,133.277L1242.6,123.746Z" style="fill:rgb(49,49,86);fill-rule:nonzero;"/>
                </g>
                <g transform="matrix(1,0,0,1,0,-12)">
                    <path d="M1179.28,139.584L1184.08,137.696L1194.5,137.29L1192.53,128.958L1179.84,128.725L1179.28,139.584Z" style="fill:rgb(228,226,220);fill-rule:nonzero;"/>
                </g>
                <g transform="matrix(1,0,0,1,0,-12)">
                    <path d="M1180.22,137.639L1182.77,135.936L1184.63,130.671L1188.92,131.894L1190.28,135.24L1193.22,136.71L1191.36,142.826L1182.62,143.059L1180.22,137.639Z" style="fill:rgb(85,63,55);fill-rule:nonzero;"/>
                </g>
                <g transform="matrix(1,0,0,1,0,-12)">
                    <path d="M1193.99,232.868L1194.84,239.063L1187.8,238.908L1187.34,232.25L1193.99,232.868Z" style="fill:rgb(42,43,42);fill-rule:nonzero;"/>
                </g>
                <g transform="matrix(1,0,0,1,0,-12)">
                    <path d="M1187.49,195.397L1188.42,242.314L1181.23,241.231L1176.66,195.242" style="fill:rgb(114,89,75);fill-rule:nonzero;"/>
                </g>
                <g transform="matrix(1,0,0,1,0,-12)">
                    <path d="M1187.34,178.828L1187.49,198.647L1188.23,232.482L1193.99,232.868L1196.31,198.435L1187.34,178.828Z" style="fill:rgb(85,63,55);fill-rule:nonzero;"/>
                </g>
                <g transform="matrix(1,0,0,1,0,-12)">
                    <path d="M1201.95,139.032L1193.25,136.68L1190.98,142.283L1182.92,142.516L1180.22,137.522L1172.02,141.085L1176.24,148.084L1175.94,160.084L1171.74,227.984L1201.58,228.217L1197.7,160.584L1198.4,147.751L1201.95,139.032Z" style="fill:rgb(102,153,68);fill-rule:nonzero;"/>
                </g>
                <g transform="matrix(1,0,0,1,0,-12)">
                    <path d="M1180.04,249.359L1182.65,251.334L1187.41,251.334L1188.63,242.333L1181.28,241.192L1180.04,249.359Z" style="fill:rgb(42,43,42);fill-rule:nonzero;"/>
                </g>
                <g transform="matrix(1,0,0,1,0,-12)">
                    <path d="M1184.54,134.423L1188.4,134.423L1192.56,129.072L1191.82,117.626L1184.4,116.386L1179.78,118.221L1179.93,129.072L1184.54,134.423Z" style="fill:rgb(114,89,75);fill-rule:nonzero;"/>
                </g>
                <g transform="matrix(1,0,0,1,0,-12)">
                    <path d="M1167.49,169.271L1166.5,174.683L1167.93,181.73L1170.5,180.286L1169.76,174.225L1169.93,176.063L1172.33,175.468L1171.36,171.355L1167.49,169.271Z" style="fill:rgb(114,89,75);fill-rule:nonzero;"/>
                </g>
                <g transform="matrix(1,0,0,1,0,-12)">
                    <path d="M1176.24,147.958L1171.36,171.391L1167.31,170.246L1172.05,141.209L1176.24,147.958Z" style="fill:rgb(114,89,75);fill-rule:nonzero;"/>
                </g>
                <g transform="matrix(1,0,0,1,0,-12)">
                    <path d="M1185.65,113.001L1194.24,115.709L1198.94,138.917L1194.09,144.084L1194.15,138.51L1193.84,136.864L1192.35,129.335L1190.49,119.834L1185.38,117.751L1185.65,113.001Z" style="fill:rgb(228,226,220);fill-rule:nonzero;"/>
                </g>
                <g transform="matrix(1,0,0,1,0,-12)">
                    <path d="M1185.47,117.751L1180.45,119.638L1179.86,141.834L1175.61,141.085L1176.44,117.167L1185.78,112.917L1185.47,117.751Z" style="fill:rgb(228,226,220);fill-rule:nonzero;"/>
                </g>
            </g>
        </g>
    </g>
</svg>
