<?xml version="1.0" encoding="UTF-8" standalone="no"?>
<!DOCTYPE svg PUBLIC "-//W3C//DTD SVG 1.1//EN" "http://www.w3.org/Graphics/SVG/1.1/DTD/svg11.dtd">
<svg width="100%" height="100%" viewBox="0 0 60 80" version="1.1" xmlns="http://www.w3.org/2000/svg" xmlns:xlink="http://www.w3.org/1999/xlink" xml:space="preserve" xmlns:serif="http://www.serif.com/" style="fill-rule:evenodd;clip-rule:evenodd;stroke-linejoin:round;stroke-miterlimit:2;">
    <g id="wall">
        <g transform="matrix(0.124287,-9.48079e-20,-1.74546e-19,0.0678962,30.0581,71.9829)">
            <rect x="-0.468" y="0.582" width="241.376" height="117.496" style="fill:rgb(216,211,203);"/>
        </g>
        <g transform="matrix(0.124287,-2.37687e-19,-1.74546e-19,0.170218,0.0581088,59.9009)">
            <rect x="-0.468" y="0.582" width="241.376" height="117.496" style="fill:rgb(216,211,203);"/>
        </g>
        <g transform="matrix(0.341676,0,0,0.341676,19.814,31.5451)">
            <g transform="matrix(0.47079,0,0,0.47079,-628.04,-84.1642)">
                <path d="M1424.33,132L1371,132L1373,113L1422,113L1424.33,132Z" style="fill:rgb(236,219,177);"/>
            </g>
            <g transform="matrix(0.47079,0,0,0.47079,-628.04,-84.1642)">
                <path d="M1450.88,480L1343.79,480L1363.83,125L1430.84,125L1450.88,480Z" style="fill:rgb(206,173,128);"/>
            </g>
            <g transform="matrix(0.47079,0,0,0.47079,-628.04,-84.1642)">
                <path d="M1430,115L1365,115L1365.66,107L1429,107L1430,115Z" style="fill:rgb(206,173,128);"/>
            </g>
        </g>
    </g>
</svg>
