<?xml version="1.0" encoding="UTF-8" standalone="no"?>
<!DOCTYPE svg PUBLIC "-//W3C//DTD SVG 1.1//EN" "http://www.w3.org/Graphics/SVG/1.1/DTD/svg11.dtd">
<svg width="100%" height="100%" viewBox="0 0 120 120" version="1.1" xmlns="http://www.w3.org/2000/svg" xmlns:xlink="http://www.w3.org/1999/xlink" xml:space="preserve" xmlns:serif="http://www.serif.com/" style="fill-rule:evenodd;clip-rule:evenodd;stroke-linejoin:round;stroke-miterlimit:2;">
    <g id="planter-box" transform="matrix(1.35958,6.68962e-32,6.67739e-32,1.35958,-5.25961,-80.5075)">
        <g id="flowers" transform="matrix(0.934115,-4.5962e-32,-4.5878e-32,0.934115,0.953426,-10.3874)">
            <g transform="matrix(1,0,0,1,-143.17,48.9927)">
                <path d="M192.54,56.694L194.843,56.694L195.265,71.317L190.812,72.007L192.54,56.694Z" style="fill:rgb(103,154,69);fill-rule:nonzero;"/>
            </g>
            <g transform="matrix(1,0,0,1,-143.17,48.9927)">
                <path d="M175.807,36.662L178.188,36.429L178.283,66.773L173.827,67.823L175.807,36.662Z" style="fill:rgb(103,154,69);fill-rule:nonzero;"/>
            </g>
            <g transform="matrix(1,0,0,1,-143.17,48.9927)">
                <path d="M206.598,40.436L208.981,40.183L208.978,67.007L204.518,68.172L206.598,40.436Z" style="fill:rgb(103,154,69);fill-rule:nonzero;"/>
            </g>
            <g transform="matrix(1,0,0,1,-143.17,48.9927)">
                <path d="M201.594,41.07L198.467,31.668L217.158,31.632L214.115,41.111L201.594,41.07Z" style="fill:rgb(174,32,37);fill-rule:nonzero;"/>
            </g>
            <g transform="matrix(1,0,0,1,-143.17,48.9927)">
                <path d="M170.594,36.573L167.467,27.171L186.158,27.135L183.115,36.614L170.594,36.573Z" style="fill:rgb(174,32,37);fill-rule:nonzero;"/>
            </g>
            <g transform="matrix(1,0,0,1,-143.17,48.9927)">
                <path d="M187.344,56.82L184.217,47.418L202.908,47.382L199.865,56.861L187.344,56.82Z" style="fill:rgb(174,32,37);fill-rule:nonzero;"/>
            </g>
            <g transform="matrix(1,0,0,1,-143.17,48.9927)">
                <path d="M207.324,48.118L195.472,42.662L192.265,44.157L193.902,39.399L206.32,44.82" style="fill:rgb(103,154,69);fill-rule:nonzero;"/>
            </g>
            <g transform="matrix(1,0,0,1,-143.17,48.9927)">
                <path d="M205.372,59.502L215.999,47.724L224.473,52.87L216.79,51.187L208.366,59.944L205.372,59.502Z" style="fill:rgb(103,154,69);fill-rule:nonzero;"/>
            </g>
            <g transform="matrix(1,0,0,1,-143.17,48.9927)">
                <path d="M176.187,46.971L184.181,43.291L187.388,44.786L185.751,40.029L175.783,44.257" style="fill:rgb(103,154,69);fill-rule:nonzero;"/>
            </g>
            <g transform="matrix(1,0,0,1,-143.17,48.9927)">
                <path d="M177.709,62.08L172.553,41.457L166.597,41.16L169.855,44.155L174.444,65.365L177.709,62.08Z" style="fill:rgb(103,154,69);fill-rule:nonzero;"/>
            </g>
        </g>
        <g id="grass" transform="matrix(0.934115,-4.5962e-32,-4.5878e-32,0.934115,3.16247,-8.98627)">
            <g transform="matrix(1,0,0,1,-6.1702,52.6016)">
                <path d="M10.346,70.398L9.997,61.942L15.701,60.579L18.843,62.761L20.008,59.487L23.617,60.306L24.781,57.032L31.504,59.695L32.901,59.968L46.199,57.032C46.199,57.032 54.228,63.449 54.811,63.722C55.393,63.995 74.599,60.449 74.599,60.449L78.44,57.032L87.168,61.267L96.482,63.176L98.343,69.581L10.346,70.398Z" style="fill:rgb(103,154,69);fill-rule:nonzero;"/>
            </g>
            <g transform="matrix(1,0,0,1,-6.1702,52.6016)">
                <path d="M13.199,68.354L16.925,62.49L23.064,68.422L13.199,68.354Z" style="fill:rgb(53,129,63);fill-rule:nonzero;"/>
            </g>
            <g transform="matrix(1,0,0,1,-6.1702,52.6016)">
                <path d="M30.542,68.354L33.189,65.081L34.936,65.081L39.564,62.42L40.697,65.489L52.745,64.466L57.546,68.149L30.542,68.354Z" style="fill:rgb(53,129,63);fill-rule:nonzero;"/>
            </g>
            <g transform="matrix(1,0,0,1,-6.1702,52.6016)">
                <path d="M69.42,67.943L70.117,66.035L75.122,65.215L76.579,63.17L88.449,68.148L69.42,67.943Z" style="fill:rgb(53,129,63);fill-rule:nonzero;"/>
            </g>
        </g>
        <g transform="matrix(4.79777,-2.62621e-47,-7.00527e-47,4.79777,-949.037,-49.5658)">
            <path d="M201.594,41.07L198.621,31.668L217.005,31.632L214.115,41.111L201.594,41.07Z" style="fill:rgb(193,190,187);fill-rule:nonzero;"/>
        </g>
    </g>
</svg>
