<?xml version="1.0" encoding="UTF-8" standalone="no"?>
<!DOCTYPE svg PUBLIC "-//W3C//DTD SVG 1.1//EN" "http://www.w3.org/Graphics/SVG/1.1/DTD/svg11.dtd">
<svg width="100%" height="100%" viewBox="0 0 2000 1333" version="1.1" xmlns="http://www.w3.org/2000/svg" xmlns:xlink="http://www.w3.org/1999/xlink" xml:space="preserve" xmlns:serif="http://www.serif.com/" style="fill-rule:evenodd;clip-rule:evenodd;stroke-linejoin:round;stroke-miterlimit:1.41421;">
    <path d="M972.7,24.421L974.441,26.025L976.302,24.24L974.441,22.793L972.7,24.421ZM437.123,733.496L438.864,735.1L440.725,733.315L438.864,731.868L437.123,733.496ZM1944.49,376.022L1942.88,377.763L1944.67,379.624L1946.12,377.763L1944.49,376.022ZM727.011,218.141L728.752,219.745L730.613,217.96L728.752,216.513L727.011,218.141ZM1880.48,259.091L1878.88,260.832L1880.66,262.693L1882.11,260.832L1880.48,259.091Z" style="fill:rgb(246,241,226);fill-opacity:0.2;"/>
    <path d="M982.109,54.153L984.272,55.595L985.919,53.768L983.743,52.298L982.109,54.153ZM808.072,65.44L810.235,66.882L811.882,65.055L809.706,63.585L808.072,65.44Z" style="fill:rgb(255,239,206);fill-opacity:0.301961;"/>
    <path d="M749.859,19.558L752.022,21L753.669,19.173L751.493,17.703L749.859,19.558Z" style="fill:rgb(255,239,206);fill-opacity:0.501961;"/>
    <path d="M989.919,191.029L991.5,192.548L993.058,190.966L991.718,189.496L989.919,191.029M1907.59,611.999L1906.07,613.58L1907.65,615.138L1909.12,613.798L1907.59,611.999" style="fill:rgb(231,229,221);fill-opacity:0.4;"/>
    <path d="M824.855,93.75L827.184,96.276L829.443,93.809L827.269,91.558L824.855,93.75ZM583.769,196.716L586.098,199.242L588.357,196.775L586.183,194.524L583.769,196.716ZM976.047,353.393L978.376,355.919L980.635,353.452L978.461,351.201L976.047,353.393Z" style="fill:rgb(246,243,234);"/>
    <path d="M989.923,796.895L992.252,799.421L994.511,796.954L992.337,794.703L989.923,796.895Z" style="fill:rgb(246,243,234);fill-opacity:0.701961;"/>
    <path d="M1765.23,568.128L1762.7,570.457L1765.17,572.716L1767.42,570.542L1765.23,568.128ZM125.277,93.976L127.606,96.502L129.865,94.035L127.691,91.784L125.277,93.976ZM1712.47,76.036L1714.8,78.562L1717.06,76.095L1714.89,73.845L1712.47,76.036Z" style="fill:rgb(246,243,234);"/>
    <path d="M984.441,102.842L986.389,104.33L988.164,102.525L986.326,100.823L984.441,102.842ZM1995.78,606.521L1994.29,608.469L1996.1,610.244L1997.8,608.406L1995.78,606.521L1995.78,606.521Z" style="fill:rgb(231,229,221);fill-opacity:0.752941;"/>
    <path d="M912.084,433.691L914.38,435.844L916.434,432.831L914.42,431.163L912.084,433.691Z" style="fill:rgb(246,241,226);"/>
    <path d="M1012.33,907.718L1014.62,909.871L1016.68,906.858L1014.66,905.19L1012.33,907.718Z" style="fill:rgb(246,241,226);fill-opacity:0.6;"/>
    <path d="M1914.93,454.164L1912.78,456.46L1915.79,458.514L1917.46,456.5L1914.93,454.164ZM964.136,646.027L966.541,647.903L968.421,645.511L966.226,643.981L964.136,646.027ZM1812.58,494.088L1810.71,496.493L1813.1,498.373L1814.63,496.178L1812.58,494.088ZM81.238,46.618L83.643,48.494L85.523,46.102L83.328,44.572L81.238,46.618ZM1668.43,28.678L1670.84,30.554L1672.72,28.162L1670.52,26.632L1668.43,28.678ZM840.84,275.306L842.488,276.886L843.783,275.374L842.505,273.849L840.84,275.306ZM1823.31,392.92L1821.73,394.568L1823.25,395.863L1824.77,394.585L1823.31,392.92ZM46.07,49.889L47.718,51.469L49.013,49.957L47.735,48.432L46.07,49.889ZM1389.04,512.919L1390.69,514.499L1391.98,512.987L1390.71,511.462L1389.04,512.919Z" style="fill:rgb(246,241,226);"/>
    <path d="M937.186,718.495L938.672,719.514L939.688,718.298L938.388,717.284L937.186,718.495ZM1809.05,489.95L1808.03,491.436L1809.25,492.452L1810.26,491.151L1809.05,489.95ZM77.1,50.154L78.586,51.173L79.602,49.957L78.301,48.943L77.1,50.154ZM1664.3,32.214L1665.78,33.233L1666.8,32.017L1665.5,31.003L1664.3,32.214Z" style="fill:rgb(217,212,203);fill-opacity:0.2;"/>
    <path d="M453.343,729.74L455.283,731.538L456.893,729.74L455.347,727.943L453.343,729.74ZM1948.24,392.242L1946.45,394.182L1948.24,395.792L1950.04,394.246L1948.24,392.242ZM630.161,110.379L632.101,112.177L633.711,110.379L632.165,108.581L630.161,110.379Z" style="fill:rgb(246,241,226);"/>
    <path d="M963.862,143.453L966.834,140.765L969.562,143.342L966.978,146.426L963.862,143.453Z" style="fill:rgb(246,243,234);fill-opacity:0.901961;"/>
    <path d="M965.027,143.445L966.849,141.799L968.52,143.377L966.937,145.264L965.027,143.444L965.027,143.445Z" style="fill:rgb(255,239,206);fill-opacity:0.901961;"/>
    <path d="M1955.16,525.942L1957.85,528.914L1955.27,531.642L1952.19,529.058L1955.16,525.942Z" style="fill:rgb(246,243,234);"/>
    <path d="M1955.17,527.107L1956.82,528.929L1955.24,530.6L1953.35,529.017L1955.17,527.107Z" style="fill:rgb(255,239,206);"/>
    <path d="M887.862,15.454L890.834,12.765L893.562,15.343L890.978,18.427L887.862,15.454Z" style="fill:rgb(246,243,234);"/>
    <path d="M889.027,15.445L890.849,13.8L892.52,15.377L890.937,17.265L889.027,15.445Z" style="fill:rgb(255,239,206);"/>
    <path d="M1138.38,87.682L1141.6,84.765L1144.56,87.561L1141.76,90.908L1138.38,87.682Z" style="fill:rgb(246,243,234);"/>
    <path d="M1139.64,87.673L1141.62,85.888L1143.43,87.599L1141.71,89.647L1139.64,87.673L1139.64,87.673Z" style="fill:rgb(255,239,206);"/>
    <path d="M1045.58,10.19L1047.71,8.206L1049.8,10.206L1047.83,12.426L1045.58,10.19ZM1163.38,184.634L1165.51,182.65L1167.6,184.65L1165.63,186.87L1163.38,184.634ZM1913.99,885.46L1915.97,887.592L1913.97,889.675L1911.75,887.706L1913.99,885.46ZM1191.21,65.28L1193.03,63.58L1194.82,65.293L1193.13,67.195L1191.21,65.28Z" style="fill:rgb(246,243,234);"/>
    <path d="M1050.38,519.98L1052.35,518.141L1053.79,519.772L1052.45,521.349L1050.38,519.98Z" style="fill:rgb(246,241,226);"/>
    <path d="M1118.75,772.171L1120.72,770.332L1122.16,771.963L1120.82,773.54L1118.75,772.171Z" style="fill:rgb(246,241,226);fill-opacity:0.6;"/>
    <path d="M1929.1,663.14L1930.94,665.11L1929.31,666.55L1927.73,665.21L1929.1,663.14ZM993.532,202.854L995.476,204.616L997.453,202.795C996.909,202.221 996.014,201.386 995.444,200.872L993.532,202.854ZM1895.77,615.612L1894,617.556L1895.83,619.533C1896.4,618.989 1897.23,618.094 1897.75,617.524L1895.77,615.612Z" style="fill:rgb(246,241,226);"/>
    <path d="M1568.57,56.686L1570.31,58.29L1572.17,56.505L1570.31,55.058L1568.57,56.686ZM1219.37,274.669L1217.77,276.41L1219.55,278.271L1221,276.41L1219.37,274.669ZM1955.8,17.312L1954.19,19.053L1955.98,20.914L1957.43,19.053L1955.8,17.312ZM487.342,548.735L485.738,550.476L487.523,552.337L488.97,550.476L487.342,548.735ZM819.62,725.411L818.016,727.152L819.801,729.013L821.248,727.152L819.62,725.411ZM166.096,339.023L164.492,340.764L166.277,342.625L167.724,340.764L166.096,339.023ZM1429.81,196.399L1431.55,198.003L1433.41,196.218L1431.55,194.771L1429.81,196.399ZM346.814,69.464L348.555,71.068L350.416,69.283L348.555,67.836L346.814,69.464ZM327.628,299.976L326.024,301.717L327.809,303.578L329.256,301.717L327.628,299.976ZM1314.21,409.899L1315.95,411.503L1317.81,409.718L1315.95,408.271L1314.21,409.899ZM561.743,43.135L560.139,44.876L561.924,46.737L563.371,44.876L561.743,43.135ZM669.907,516.653L668.303,518.394L670.088,520.255L671.535,518.394L669.907,516.653ZM26.383,180.264L24.779,182.005L26.564,183.866L28.011,182.005L26.383,180.264ZM1332.88,260.406L1334.62,262.01L1336.48,260.225L1334.62,258.778L1332.88,260.406ZM283.622,233.045L282.018,234.786L283.803,236.647L285.25,234.786L283.622,233.045ZM625.901,379.722L624.297,381.463L626.082,383.324L627.529,381.463L625.901,379.722Z" style="fill:rgb(246,241,226);fill-opacity:0.2;"/>
    <path d="M902.639,809.613L904.802,811.055L906.449,809.228L904.273,807.758L902.639,809.613ZM1189.64,284.078L1188.19,286.241L1190.02,287.888L1191.49,285.712L1189.64,284.078ZM1814.54,911.717L1812.38,910.275L1810.73,912.102L1812.91,913.572L1814.54,911.717ZM1926.07,26.721L1924.62,28.884L1926.45,30.531L1927.92,28.355L1926.07,26.721ZM457.61,558.144L456.168,560.307L457.995,561.954L459.465,559.778L457.61,558.144ZM1472.38,279.918L1474.54,281.36L1476.19,279.533L1474.01,278.063L1472.38,279.918ZM789.888,734.82L788.446,736.983L790.273,738.63L791.743,736.454L789.888,734.82ZM126.364,378.432L124.922,380.595L126.749,382.242L128.219,380.066L126.364,378.432ZM1403.94,97.705L1406.1,99.147L1407.75,97.32L1405.57,95.85L1403.94,97.705ZM436.322,334.107L434.88,336.27L436.707,337.917L438.177,335.741L436.322,334.107ZM1490.3,795.719L1492.46,797.161L1494.11,795.334L1491.93,793.864L1490.3,795.719ZM1074.11,1291.04L1072.66,1293.2L1074.49,1294.85L1075.96,1292.67L1074.11,1291.04ZM772.601,500.783L771.159,502.946L772.986,504.593L774.456,502.417L772.601,500.783ZM1657.84,344.681L1655.68,343.239L1654.03,345.066L1656.21,346.536L1657.84,344.681ZM129.077,164.395L127.635,166.558L129.462,168.205L130.932,166.029L129.077,164.395Z" style="fill:rgb(255,239,206);fill-opacity:0.301961;"/>
    <path d="M1335.73,41.823L1337.89,43.265L1339.54,41.438L1337.36,39.968L1335.73,41.823ZM482.204,255.894L480.762,258.057L482.589,259.704L484.059,257.528L482.204,255.894ZM838.483,402.57L837.041,404.733L838.868,406.38L840.338,404.204L838.483,402.57ZM834.47,847.381L833.028,849.544L834.855,851.191L836.325,849.015L834.47,847.381ZM1716.05,390.563L1713.89,389.121L1712.24,390.948L1714.42,392.418L1716.05,390.563Z" style="fill:rgb(255,239,206);fill-opacity:0.501961;"/>
    <path d="M1585.79,223.294L1587.37,224.813L1588.92,223.231L1587.58,221.761L1585.79,223.294M1052.76,291.888L1051.24,293.469L1052.82,295.027L1054.29,293.687L1052.76,291.888M1806.73,704.841L1805.15,703.322L1803.59,704.904L1804.93,706.374L1806.73,704.841M1317.61,143.831L1316.09,145.412L1317.67,146.97L1319.14,145.63L1317.61,143.831M221.991,52.47L220.472,54.051L222.054,55.609L223.524,54.269L221.991,52.47M1789.19,34.531L1787.67,36.112L1789.25,37.67L1790.72,36.33L1789.19,34.531M280.734,505.954L279.215,507.535L280.797,509.093L282.267,507.753L280.734,505.954M1460.19,446.794L1461.77,448.313L1463.33,446.731L1461.99,445.261L1460.19,446.794M603.012,822.63L601.493,824.211L603.075,825.769L604.545,824.429L603.012,822.63M27.149,514.296L25.63,515.877L27.212,517.435L28.682,516.095L27.149,514.296" style="fill:rgb(231,229,221);fill-opacity:0.4;"/>
    <path d="M1420.72,126.015L1423.05,128.541L1425.31,126.074L1423.13,123.823L1420.72,126.015ZM408.013,350.89L405.487,353.219L407.954,355.478L410.205,353.304L408.013,350.89Z" style="fill:rgb(246,243,234);"/>
    <path d="M1285.12,589.515L1287.45,592.041L1289.71,589.574L1287.54,587.323L1285.12,589.515Z" style="fill:rgb(246,243,234);fill-opacity:0.301961;"/>
    <path d="M1045.8,1307.82L1043.27,1310.15L1045.74,1312.41L1047.99,1310.24L1045.8,1307.82ZM744.291,517.566L741.765,519.895L744.232,522.154L746.483,519.98L744.291,517.566ZM1641.06,296.372L1638.73,293.846L1636.47,296.313L1638.64,298.564L1641.06,296.372ZM100.767,181.178L98.241,183.507L100.708,185.766L102.959,183.592L100.767,181.178ZM1229.63,238.981L1231.96,241.507L1234.22,239.04L1232.05,236.789L1229.63,238.981Z" style="fill:rgb(246,243,234);"/>
    <path d="M315.046,169.803L312.52,172.132L314.987,174.391L317.238,172.217L315.046,169.803Z" style="fill:rgb(246,243,234);fill-opacity:0.8;"/>
    <path d="M607.325,286.48L604.799,288.809L607.266,291.068L609.517,288.894L607.325,286.48Z" style="fill:rgb(246,243,234);"/>
    <path d="M1580.31,135.107L1582.26,136.595L1584.03,134.79L1582.19,133.087L1580.31,135.107ZM507.314,18.171L509.262,19.661L511.037,17.855L509.199,16.152L507.314,18.172L507.314,18.171ZM1150.26,636.866L1148.77,638.814L1150.58,640.589L1152.28,638.751L1150.26,636.866L1150.26,636.866ZM1812.21,823.029L1810.26,821.539L1808.49,823.345L1810.32,825.048L1812.21,823.028L1812.21,823.029ZM1877.37,29.053L1875.88,31.001L1877.69,32.776L1879.39,30.938L1877.37,29.053L1877.37,29.053ZM408.922,430.476L407.432,432.424L409.238,434.199L410.941,432.361L408.921,430.476L408.922,430.476ZM1414.71,338.606L1416.66,340.096L1418.43,338.29L1416.59,336.587L1414.71,338.607L1414.71,338.606ZM761.2,657.152L759.71,659.1L761.516,660.875L763.219,659.037L761.199,657.152L761.2,657.152ZM97.676,290.764L96.186,292.712L97.992,294.487L99.695,292.649L97.675,290.764L97.676,290.764Z" style="fill:rgb(231,229,221);fill-opacity:0.752941;"/>
    <path d="M1517.95,215.956L1520.25,218.109L1522.3,215.096L1520.29,213.428L1517.95,215.956ZM424.957,139.02L427.253,141.173L429.307,138.16L427.293,136.493L424.957,139.021L424.957,139.02ZM258.072,392.119L255.919,394.415L258.932,396.469L260.6,394.455L258.072,392.119ZM1376.35,499.456L1378.65,501.609L1380.7,498.596L1378.69,496.928L1376.35,499.456ZM1444.73,751.647L1447.03,753.8L1449.08,750.787L1447.07,749.119L1444.73,751.647ZM610.35,724.795L608.197,727.091L611.21,729.145L612.878,727.131L610.35,724.795ZM34.487,406.461L32.334,408.757L35.347,410.811L37.015,408.797L34.487,406.461ZM1964.67,195.92L1967.07,197.795L1968.95,195.403L1966.76,193.873L1964.67,195.919L1964.67,195.92ZM185.728,518.042L183.852,520.447L186.244,522.327L187.774,520.132L185.728,518.042ZM1422.28,631.8L1424.68,633.676L1426.56,631.284L1424.37,629.754L1422.28,631.8ZM558.006,654.718L556.13,657.123L558.522,659.003L560.052,656.808L558.006,654.718ZM1869.5,169.19L1871.15,170.77L1872.44,169.258L1871.17,167.733L1869.5,169.19ZM152.457,406.875L150.877,408.523L152.389,409.818L153.914,408.54L152.457,406.875ZM1371.11,665.071L1372.76,666.651L1374.05,665.139L1372.77,663.614L1371.11,665.071ZM554.735,619.551L553.155,621.199L554.667,622.494L556.192,621.216L554.735,619.551Z" style="fill:rgb(246,241,226);"/>
    <path d="M1960.53,199.455L1962.02,200.474L1963.03,199.258L1961.73,198.244L1960.53,199.455ZM182.192,513.905L181.173,515.391L182.389,516.407L183.403,515.106L182.192,513.905ZM1418.14,635.336L1419.62,636.355L1420.64,635.139L1419.34,634.125L1418.14,635.336ZM554.47,650.581L553.451,652.067L554.667,653.083L555.681,651.782L554.47,650.581Z" style="fill:rgb(217,212,203);fill-opacity:0.2;"/>
    <path d="M868.703,887.272L870.643,889.07L872.253,887.272L870.707,885.475L868.703,887.272Z" style="fill:rgb(246,241,226);"/>
    <path d="M729.055,315.833L730.995,317.631L732.605,315.833L731.059,314.036L729.055,315.833Z" style="fill:rgb(246,241,226);fill-opacity:0.501961;"/>
    <path d="M321.384,336.196L319.586,338.136L321.384,339.746L323.181,338.2L321.384,336.196ZM1330.43,396.143L1332.37,397.941L1333.98,396.143L1332.43,394.346L1330.43,396.143Z" style="fill:rgb(246,241,226);"/>
    <path d="M1604.21,529.899L1605.95,531.503L1607.81,529.718L1605.95,528.271L1604.21,529.899Z" style="fill:rgb(246,241,226);fill-opacity:0.2;"/>
    <path d="M1620.43,436.143L1622.37,437.941L1623.98,436.143L1622.43,434.346L1620.43,436.143ZM989.164,1323.13L987.366,1325.07L989.164,1326.68L990.961,1325.13L989.164,1323.13ZM673.663,532.873L671.865,534.813L673.663,536.423L675.46,534.877L673.663,532.873Z" style="fill:rgb(246,241,226);"/>
    <path d="M1079.62,992.125L1078.02,993.865L1079.8,995.727L1081.25,993.866L1079.62,992.125Z" style="fill:rgb(246,241,226);fill-opacity:0.2;"/>
    <path d="M842.601,530.783L841.159,532.946L842.986,534.593L844.456,532.417L842.601,530.783Z" style="fill:rgb(255,239,206);fill-opacity:0.301961;"/>
    <path d="M1526.89,610.227L1524.36,612.556L1526.83,614.815L1529.08,612.641L1526.89,610.227Z" style="fill:rgb(246,243,234);"/>
    <path d="M1173.03,930.833L1171.24,932.773L1173.03,934.383L1174.83,932.837L1173.03,930.833ZM30.139,196.484L28.341,198.424L30.139,200.034L31.936,198.488L30.139,196.484ZM1266.03,442.643L1267.97,444.441L1269.58,442.643L1268.03,440.846L1266.03,442.643ZM1334.4,694.835L1336.35,696.633L1337.95,694.835L1336.41,693.038L1334.4,694.835ZM723.663,302.873L721.865,304.813L723.663,306.423L725.46,304.877L723.663,302.873ZM1835.75,265.743L1833.81,263.945L1832.2,265.743L1833.75,267.54L1835.75,265.743Z" style="fill:rgb(246,241,226);"/>
    <path d="M1559.73,175.718L1562.7,173.029L1565.43,175.607L1562.84,178.691L1559.73,175.718Z" style="fill:rgb(246,243,234);fill-opacity:0.6;"/>
    <path d="M1560.89,175.71L1562.72,174.064L1564.39,175.642L1562.8,177.529L1560.89,175.709L1560.89,175.71Z" style="fill:rgb(255,239,206);fill-opacity:0.6;"/>
    <path d="M486.735,58.783L489.707,56.094L492.435,58.672L489.851,61.756L486.735,58.783Z" style="fill:rgb(246,243,234);"/>
    <path d="M487.9,58.774L489.722,57.129L491.393,58.706L489.81,60.594L487.9,58.774Z" style="fill:rgb(255,239,206);"/>
    <path d="M1100.33,265.83L1103.02,268.803L1100.44,271.531L1097.36,268.947L1100.33,265.831L1100.33,265.83Z" style="fill:rgb(246,243,234);fill-opacity:0.701961;"/>
    <path d="M1100.34,266.996L1101.99,268.818L1100.41,270.489L1098.52,268.906L1100.34,266.996Z" style="fill:rgb(255,239,206);fill-opacity:0.701961;"/>
    <path d="M1929.76,771.527L1926.79,774.216L1924.06,771.638L1926.64,768.554L1929.76,771.527Z" style="fill:rgb(246,243,234);fill-opacity:0.301961;"/>
    <path d="M1928.6,771.536L1926.77,773.181L1925.1,771.604L1926.69,769.716L1928.6,771.536Z" style="fill:rgb(255,239,206);fill-opacity:0.301961;"/>
    <path d="M269.566,26.413L272.255,29.385L269.677,32.113L266.593,29.529L269.566,26.413Z" style="fill:rgb(246,243,234);"/>
    <path d="M269.575,27.578L271.22,29.4L269.643,31.071L267.755,29.488L269.575,27.578Z" style="fill:rgb(255,239,206);"/>
    <path d="M1836.76,8.474L1839.45,11.446L1836.87,14.174L1833.79,11.59L1836.76,8.474Z" style="fill:rgb(246,243,234);"/>
    <path d="M1836.77,9.64L1838.42,11.46L1836.84,13.132L1834.95,11.549L1836.77,9.639L1836.77,9.64Z" style="fill:rgb(255,239,206);"/>
    <path d="M358.31,539.897L360.998,542.869L358.42,545.597L355.336,543.013L358.309,539.897L358.31,539.897Z" style="fill:rgb(246,243,234);"/>
    <path d="M358.318,541.062L359.963,542.884L358.386,544.555L356.498,542.972L358.318,541.062Z" style="fill:rgb(255,239,206);"/>
    <path d="M1534.13,379.218L1537.1,376.529L1539.83,379.107L1537.25,382.191L1534.13,379.218Z" style="fill:rgb(246,243,234);"/>
    <path d="M1535.3,379.21L1537.12,377.564L1538.79,379.141L1537.2,381.029L1535.3,379.209L1535.3,379.21Z" style="fill:rgb(255,239,206);"/>
    <path d="M710.588,616.573L713.277,619.545L710.699,622.273L707.615,619.689L710.588,616.573Z" style="fill:rgb(246,243,234);fill-opacity:0.6;"/>
    <path d="M710.597,617.738L712.242,619.56L710.665,621.231L708.777,619.648L710.597,617.738Z" style="fill:rgb(255,239,206);fill-opacity:0.6;"/>
    <path d="M47.064,700.185L49.753,703.157L47.175,705.885L44.091,703.301L47.064,700.185Z" style="fill:rgb(246,243,234);"/>
    <path d="M47.073,701.35L48.718,703.172L47.141,704.843L45.253,703.26L47.073,701.35Z" style="fill:rgb(255,239,206);"/>
    <path d="M1483.73,47.718L1486.7,45.029L1489.43,47.607L1486.84,50.691L1483.73,47.718Z" style="fill:rgb(246,243,234);"/>
    <path d="M1484.89,47.71L1486.71,46.064L1488.39,47.642L1486.8,49.529L1484.89,47.709L1484.89,47.71Z" style="fill:rgb(255,239,206);"/>
    <path d="M486.31,393.897L488.998,396.869L486.42,399.597L483.336,397.013L486.309,393.897L486.31,393.897Z" style="fill:rgb(246,243,234);"/>
    <path d="M486.318,395.062L487.963,396.884L486.386,398.555L484.498,396.972L486.318,395.062Z" style="fill:rgb(255,239,206);"/>
    <path d="M842.588,610.573L845.277,613.545L842.699,616.273L839.615,613.689L842.588,610.573Z" style="fill:rgb(246,243,234);"/>
    <path d="M842.597,611.738L844.242,613.56L842.665,615.231L840.777,613.648L842.597,611.738Z" style="fill:rgb(255,239,206);"/>
    <path d="M179.064,244.185L181.753,247.157L179.175,249.885L176.091,247.301L179.064,244.185Z" style="fill:rgb(246,243,234);"/>
    <path d="M179.073,245.35L180.718,247.172L179.141,248.843L177.253,247.26L179.073,245.35Z" style="fill:rgb(255,239,206);"/>
    <path d="M1734.24,119.947L1737.47,117.029L1740.43,119.826L1737.62,123.173L1734.24,119.947Z" style="fill:rgb(246,243,234);"/>
    <path d="M1735.51,119.938L1737.48,118.152L1739.3,119.864L1737.58,121.912L1735.51,119.938Z" style="fill:rgb(255,239,206);"/>
    <path d="M1156.11,440.345L1159.02,443.57L1156.23,446.53L1152.88,443.726L1156.11,440.345Z" style="fill:rgb(246,243,234);"/>
    <path d="M1156.12,441.61L1157.9,443.586L1156.19,445.4L1154.14,443.681L1156.12,441.61Z" style="fill:rgb(255,239,206);"/>
    <path d="M1224.49,692.537L1227.4,695.762L1224.61,698.722L1221.26,695.918L1224.49,692.537Z" style="fill:rgb(246,243,234);"/>
    <path d="M1224.5,693.802L1226.28,695.778L1224.57,697.592L1222.52,695.873L1224.5,693.802Z" style="fill:rgb(255,239,206);"/>
    <path d="M1658.28,878.186L1655.05,881.103L1652.09,878.307L1654.9,874.96L1658.28,878.186L1658.28,878.186Z" style="fill:rgb(246,243,234);"/>
    <path d="M1657.01,878.195L1655.04,879.98L1653.22,878.269L1654.94,876.221L1657.01,878.195Z" style="fill:rgb(255,239,206);"/>
    <path d="M414.08,794.41L416.998,797.636L414.202,800.596L410.855,797.792L414.081,794.411L414.08,794.41Z" style="fill:rgb(246,243,234);"/>
    <path d="M414.09,795.676L415.875,797.652L414.164,799.466L412.116,797.747L414.09,795.676Z" style="fill:rgb(255,239,206);"/>
    <path d="M1643.24,91.154L1645.37,89.169L1647.46,91.169L1645.49,93.389L1643.24,91.154Z" style="fill:rgb(246,243,234);fill-opacity:0.501961;"/>
    <path d="M1233.6,367.55L1235.58,369.682L1233.58,371.765L1231.36,369.796L1233.6,367.55Z" style="fill:rgb(246,243,234);"/>
    <path d="M1981.46,71.926L1983.44,74.058L1981.44,76.141L1979.22,74.172L1981.46,71.926Z" style="fill:rgb(246,243,234);fill-opacity:0.501961;"/>
    <path d="M491.572,641.617L493.557,643.749L491.557,645.832L489.337,643.862L491.572,641.617ZM1759.24,216.9L1761.37,214.915L1763.46,216.915L1761.49,219.135L1759.24,216.9ZM1059.15,495.35L1061.14,497.481L1059.14,499.564L1056.92,497.595L1059.15,495.349L1059.15,495.35ZM1127.54,747.54L1129.52,749.673L1127.52,751.756L1125.3,749.786L1127.54,747.541L1127.54,747.54ZM1633.27,711.235L1631.14,713.22L1629.05,711.22L1631.02,709L1633.27,711.235ZM297.128,819.415L299.113,821.547L297.113,823.63L294.893,821.661L297.128,819.415Z" style="fill:rgb(246,243,234);"/>
    <path d="M1787.07,97.545L1788.9,95.845L1790.68,97.558L1789,99.46L1787.07,97.545Z" style="fill:rgb(246,243,234);fill-opacity:0.301961;"/>
    <path d="M1178.51,553.175L1180.21,555.002L1178.49,556.786L1176.59,555.099L1178.51,553.175ZM1246.89,805.367L1248.59,807.193L1246.87,808.978L1244.97,807.291L1246.89,805.367ZM436.483,887.242L438.183,889.068L436.47,890.853L434.568,889.166L436.483,887.242Z" style="fill:rgb(246,243,234);"/>
    <path d="M1636.93,201.788L1638.9,199.948L1640.34,201.58L1639,203.157L1636.93,201.787L1636.93,201.788ZM1074.27,695.608L1076.11,697.578L1074.47,699.018L1072.9,697.678L1074.27,695.608ZM1755.59,726.347L1753.62,728.186L1752.18,726.555L1753.52,724.978L1755.59,726.347ZM1349.12,204.972L1350.96,206.942L1349.33,208.382L1347.75,207.042L1349.12,204.972ZM243.497,103.611L245.336,105.581L243.705,107.021L242.128,105.681L243.497,103.611ZM1810.7,85.672L1812.54,87.642L1810.9,89.082L1809.33,87.742L1810.7,85.672ZM322.24,637.095L324.079,639.065L322.448,640.505L320.871,639.165L322.24,637.095ZM1589.4,235.119L1591.34,236.881L1593.32,235.06C1592.78,234.486 1591.88,233.65 1591.31,233.137L1589.4,235.119ZM1040.94,648.08L1039.17,650.024L1041,652.001C1041.57,651.457 1042.4,650.562 1042.92,649.992L1040.94,648.08ZM1803.12,663.016L1801.17,661.254L1799.2,663.075C1799.74,663.649 1800.64,664.484 1801.21,664.998L1803.12,663.016ZM1301.79,91.444L1300.02,93.388L1301.85,95.365C1302.42,94.821 1303.25,93.926 1303.77,93.356L1301.79,91.444ZM210.166,56.083L208.404,58.027L210.225,60.004C210.799,59.46 211.634,58.565 212.148,57.995L210.166,56.083Z" style="fill:rgb(246,241,226);"/>
    <path d="M972.7,24.421L974.441,26.025L976.302,24.24L974.441,22.793L972.7,24.421ZM437.123,733.496L438.864,735.1L440.725,733.315L438.864,731.868L437.123,733.496ZM727.011,218.141L728.752,219.745L730.613,217.96L728.752,216.513L727.011,218.141Z" style="fill:rgb(246,241,226);fill-opacity:0.2;"/>
    <path d="M982.109,54.153L984.272,55.595L985.919,53.768L983.743,52.298L982.109,54.153ZM765.47,139.5L767.633,140.942L769.28,139.115L767.104,137.645L765.47,139.5Z" style="fill:rgb(255,239,206);fill-opacity:0.301961;"/>
    <path d="M749.859,19.558L752.022,21L753.669,19.173L751.493,17.703L749.859,19.558Z" style="fill:rgb(255,239,206);fill-opacity:0.501961;"/>
    <path d="M989.919,191.029L991.5,192.548L993.058,190.966L991.718,189.496L989.919,191.029" style="fill:rgb(231,229,221);fill-opacity:0.4;"/>
    <path d="M851.892,166.405L854.221,168.931L856.48,166.464L854.306,164.213L851.892,166.405ZM583.769,196.716L586.098,199.242L588.357,196.775L586.183,194.524L583.769,196.716Z" style="fill:rgb(246,243,234);"/>
    <path d="M984.441,102.842L986.389,104.33L988.164,102.525L986.326,100.823L984.441,102.842Z" style="fill:rgb(231,229,221);fill-opacity:0.752941;"/>
    <path d="M453.343,729.74L455.283,731.538L456.893,729.74L455.347,727.943L453.343,729.74ZM630.161,110.379L632.101,112.177L633.711,110.379L632.165,108.581L630.161,110.379Z" style="fill:rgb(246,241,226);"/>
    <path d="M1660.75,640.732L1663.73,638.043L1666.45,640.621L1663.87,643.705L1660.75,640.732Z" style="fill:rgb(246,243,234);fill-opacity:0.301961;"/>
    <path d="M1661.92,640.723L1663.74,639.078L1665.41,640.655L1663.83,642.543L1661.92,640.723Z" style="fill:rgb(255,239,206);fill-opacity:0.301961;"/>
    <path d="M1354.76,860.462L1357.73,857.773L1360.45,860.351L1357.87,863.435L1354.76,860.462Z" style="fill:rgb(246,243,234);"/>
    <path d="M1355.92,860.453L1357.74,858.808L1359.41,860.385L1357.83,862.273L1355.92,860.453Z" style="fill:rgb(255,239,206);"/>
    <path d="M993.532,202.854L995.476,204.616L997.453,202.795C996.909,202.221 996.014,201.386 995.444,200.872L993.532,202.854Z" style="fill:rgb(246,241,226);"/>
    <path d="M895.081,1000.27L896.822,1001.87L898.683,1000.09L896.823,998.64L895.081,1000.27ZM666.76,94.579L665.156,96.32L666.941,98.181L668.388,96.32L666.76,94.579ZM283.622,233.045L282.018,234.786L283.803,236.647L285.25,234.786L283.622,233.045Z" style="fill:rgb(246,241,226);fill-opacity:0.2;"/>
    <path d="M1074.11,1291.04L1072.66,1293.2L1074.49,1294.85L1075.96,1292.67L1074.11,1291.04Z" style="fill:rgb(255,239,206);fill-opacity:0.301961;"/>
    <path d="M945.811,528.116L944.292,529.697L945.874,531.255L947.344,529.915L945.811,528.116" style="fill:rgb(231,229,221);fill-opacity:0.4;"/>
    <path d="M1477.12,846.26L1474.59,848.588L1477.06,850.848L1479.31,848.674L1477.12,846.26Z" style="fill:rgb(246,243,234);"/>
    <path d="M315.046,169.803L312.52,172.132L314.987,174.391L317.238,172.217L315.046,169.803Z" style="fill:rgb(246,243,234);fill-opacity:0.8;"/>
    <path d="M507.314,18.171L509.262,19.661L511.037,17.855L509.199,16.152L507.314,18.172L507.314,18.171Z" style="fill:rgb(231,229,221);fill-opacity:0.752941;"/>
    <path d="M1267.75,932.108L1270.04,934.261L1272.1,931.248L1270.08,929.58L1267.75,932.108ZM696.97,904.808L698.91,906.606L700.52,904.808L698.973,903.011L696.969,904.808L696.97,904.808ZM989.164,1323.13L987.366,1325.07L989.164,1326.68L990.961,1325.13L989.164,1323.13Z" style="fill:rgb(246,241,226);"/>
    <path d="M486.735,58.783L489.707,56.094L492.435,58.672L489.851,61.756L486.735,58.783Z" style="fill:rgb(246,243,234);"/>
    <path d="M487.9,58.774L489.722,57.129L491.393,58.706L489.81,60.594L487.9,58.774Z" style="fill:rgb(255,239,206);"/>
    <path d="M269.566,26.413L272.255,29.385L269.677,32.113L266.593,29.529L269.566,26.413Z" style="fill:rgb(246,243,234);"/>
    <path d="M269.575,27.578L271.22,29.4L269.643,31.071L267.755,29.488L269.575,27.578Z" style="fill:rgb(255,239,206);"/>
    <path d="M243.497,103.611L245.336,105.581L243.705,107.021L242.128,105.681L243.497,103.611ZM565.953,466.807L564.191,468.751L566.012,470.728C566.586,470.184 567.421,469.289 567.935,468.719L565.953,466.807ZM1777.37,38.144L1775.6,40.088L1777.42,42.065C1778,41.521 1778.83,40.626 1779.35,40.056L1777.37,38.144Z" style="fill:rgb(246,241,226);"/>
    <path d="M206.415,1050.79L204.086,1048.26L201.827,1050.73L204.001,1052.98L206.415,1050.79Z" style="fill:rgb(246,243,234);"/>
    <path d="M270.451,1238.15L268.046,1236.28L266.166,1238.67L268.361,1240.2L270.451,1238.15ZM375.62,1184.88L373.972,1183.3L372.677,1184.82L373.955,1186.34L375.62,1184.88Z" style="fill:rgb(246,241,226);"/>
    <path d="M274.59,1234.62L273.104,1233.6L272.088,1234.82L273.389,1235.83L274.59,1234.62Z" style="fill:rgb(217,212,203);fill-opacity:0.2;"/>
    <path d="M350.32,1070.14L348.579,1068.54L346.718,1070.32L348.579,1071.77L350.32,1070.14Z" style="fill:rgb(246,241,226);fill-opacity:0.2;"/>
    <path d="M340.911,1040.41L338.748,1038.96L337.101,1040.79L339.277,1042.26L340.911,1040.41ZM514.951,1029.13L512.788,1027.68L511.141,1029.51L513.317,1030.98L514.951,1029.13Z" style="fill:rgb(255,239,206);fill-opacity:0.301961;"/>
    <path d="M583.161,1085.01L580.998,1083.57L579.351,1085.39L581.527,1086.86L583.161,1085.01Z" style="fill:rgb(255,239,206);fill-opacity:0.501961;"/>
    <path d="M601.272,983.001L602.791,981.42L601.209,979.862L599.739,981.202L601.272,983.001M179.7,1132.3L181.219,1130.72L179.637,1129.16L178.167,1130.5L179.7,1132.3" style="fill:rgb(231,229,221);fill-opacity:0.4;"/>
    <path d="M498.165,1000.81L495.836,998.284L493.577,1000.75L495.751,1003L498.165,1000.81Z" style="fill:rgb(246,243,234);"/>
    <path d="M338.579,991.723L336.631,990.233L334.856,992.039L336.694,993.742L338.579,991.722L338.579,991.723ZM71.512,1167.78L73.001,1165.83L71.196,1164.06L69.493,1165.89L71.513,1167.78L71.512,1167.78Z" style="fill:rgb(231,229,221);fill-opacity:0.752941;"/>
    <path d="M49.383,957.644L47.735,956.064L46.44,957.576L47.718,959.101L49.383,957.644ZM482.862,944.184L480.922,942.386L479.312,944.184L480.858,945.981L482.862,944.184Z" style="fill:rgb(246,241,226);"/>
    <path d="M359.161,951.113L356.189,953.802L353.461,951.224L356.045,948.14L359.161,951.113Z" style="fill:rgb(246,243,234);fill-opacity:0.6;"/>
    <path d="M357.996,951.122L356.174,952.767L354.503,951.19L356.086,949.302L357.996,951.122Z" style="fill:rgb(255,239,206);fill-opacity:0.6;"/>
    <path d="M122.124,1218.35L119.435,1215.38L122.013,1212.65L125.097,1215.24L122.124,1218.35Z" style="fill:rgb(246,243,234);"/>
    <path d="M122.116,1217.19L120.47,1215.36L122.047,1213.69L123.935,1215.28L122.115,1217.19L122.116,1217.19Z" style="fill:rgb(255,239,206);"/>
    <path d="M435.161,1079.11L432.189,1081.8L429.461,1079.22L432.045,1076.14L435.161,1079.11Z" style="fill:rgb(246,243,234);"/>
    <path d="M433.996,1079.12L432.174,1080.77L430.503,1079.19L432.086,1077.3L433.996,1079.12Z" style="fill:rgb(255,239,206);"/>
    <path d="M194.64,966.886L191.414,969.803L188.454,967.007L191.258,963.66L194.639,966.886L194.64,966.886Z" style="fill:rgb(246,243,234);"/>
    <path d="M193.374,966.895L191.398,968.68L189.584,966.969L191.303,964.921L193.374,966.895Z" style="fill:rgb(255,239,206);"/>
    <path d="M367.439,1174.38L365.307,1176.36L363.224,1174.36L365.193,1172.14L367.439,1174.38Z" style="fill:rgb(246,243,234);"/>
    <path d="M84.544,895.444L82.718,897.144L80.933,895.431L82.62,893.529L84.544,895.444Z" style="fill:rgb(246,243,234);fill-opacity:0.501961;"/>
    <path d="M108.194,1041.16L106.354,1039.19L107.986,1037.75L109.563,1039.09L108.193,1041.16L108.194,1041.16ZM617.097,1035.39L618.859,1033.44L617.038,1031.47C616.464,1032.01 615.629,1032.91 615.115,1033.48L617.097,1035.39ZM191.525,1128.69L193.287,1126.74L191.466,1124.77C190.892,1125.31 190.056,1126.21 189.543,1126.78L191.525,1128.69ZM268.909,509.567L267.147,511.511L268.968,513.488C269.542,512.944 270.377,512.049 270.891,511.479L268.909,509.567ZM1463.8,458.619L1465.74,460.381L1467.72,458.56C1467.18,457.986 1466.28,457.151 1465.71,456.637L1463.8,458.619ZM1115.08,1147.76L1113.11,1149.6L1111.67,1147.96L1113.01,1146.39L1115.08,1147.76Z" style="fill:rgb(246,241,226);"/>
    <path d="M851.25,1257.84L849.509,1256.24L847.648,1258.02L849.509,1259.47L851.25,1257.84Z" style="fill:rgb(246,241,226);fill-opacity:0.2;"/>
    <path d="M449.411,1277.17L451.574,1278.62L453.221,1276.79L451.045,1275.32L449.411,1277.17Z" style="fill:rgb(255,239,206);fill-opacity:0.501961;"/>
    <path d="M705.271,1220.95L703.69,1219.43L702.132,1221.01L703.472,1222.48L705.271,1220.95" style="fill:rgb(231,229,221);fill-opacity:0.4;"/>
    <path d="M1015.2,1030.88L1016.69,1028.93L1014.88,1027.16L1013.18,1028.99L1015.2,1030.88L1015.2,1030.88Z" style="fill:rgb(231,229,221);fill-opacity:0.752941;"/>
    <path d="M789.106,1168.29L786.81,1166.14L784.756,1169.15L786.77,1170.82L789.106,1168.29ZM743.181,1035.94L740.776,1034.07L738.896,1036.46L741.091,1037.99L743.181,1035.94ZM794.35,1002.67L792.702,1001.09L791.407,1002.61L792.685,1004.13L794.35,1002.67Z" style="fill:rgb(246,241,226);"/>
    <path d="M747.32,1032.41L745.834,1031.39L744.818,1032.61L746.119,1033.62L747.32,1032.41Z" style="fill:rgb(217,212,203);fill-opacity:0.2;"/>
    <path d="M835.032,1271.59L833.092,1269.8L831.482,1271.59L833.028,1273.39L835.032,1271.59Z" style="fill:rgb(246,241,226);"/>
    <path d="M561.25,1137.84L559.509,1136.24L557.648,1138.02L559.509,1139.47L561.25,1137.84Z" style="fill:rgb(246,241,226);fill-opacity:0.2;"/>
    <path d="M545.032,1231.59L543.092,1229.8L541.482,1231.59L543.028,1233.39L545.032,1231.59ZM899.432,1225.09L897.492,1223.3L895.882,1225.09L897.428,1226.89L899.432,1225.09Z" style="fill:rgb(246,241,226);"/>
    <path d="M1009.35,1227.4L1006.44,1224.17L1009.23,1221.21L1012.58,1224.02L1009.35,1227.4L1009.35,1227.4Z" style="fill:rgb(246,243,234);"/>
    <path d="M1009.34,1226.13L1007.56,1224.16L1009.27,1222.34L1011.32,1224.06L1009.34,1226.13Z" style="fill:rgb(255,239,206);"/>
    <path d="M1106.31,1172.39L1104.32,1170.26L1106.32,1168.17L1108.54,1170.14L1106.31,1172.39ZM986.95,1114.57L985.25,1112.74L986.964,1110.95L988.866,1112.64L986.951,1114.57L986.95,1114.57Z" style="fill:rgb(246,243,234);"/>
    <path d="M701.658,1209.13L699.714,1207.36L697.737,1209.18C698.281,1209.76 699.176,1210.59 699.746,1211.11L701.658,1209.13ZM641.187,746.243L639.425,748.187L641.246,750.164C641.82,749.62 642.655,748.725 643.169,748.155L641.187,746.243Z" style="fill:rgb(246,241,226);"/>
    <path d="M1375.21,1052.48L1372.89,1049.95L1370.63,1052.42L1372.8,1054.67L1375.21,1052.48Z" style="fill:rgb(246,243,234);fill-opacity:0.301961;"/>
    <path d="M1439.18,972.179L1436.88,970.026L1434.83,973.039L1436.84,974.707L1439.18,972.179Z" style="fill:rgb(246,241,226);"/>
    <path d="M1445.92,1204.19L1443.52,1202.32L1441.64,1204.71L1443.83,1206.24L1445.92,1204.19Z" style="fill:rgb(246,241,226);"/>
    <path d="M1457.27,1211.79L1455.78,1210.77L1454.77,1211.99L1456.07,1213L1457.27,1211.79Z" style="fill:rgb(217,212,203);fill-opacity:0.2;"/>
    <path d="M1268.49,1068.52L1266.52,1070.36L1265.08,1068.72L1266.42,1067.15L1268.49,1068.52Z" style="fill:rgb(246,241,226);"/>
    <path d="M1899.9,1291.95L1901.51,1290.21L1899.72,1288.35L1898.27,1290.21L1899.9,1291.95Z" style="fill:rgb(246,241,226);fill-opacity:0.2;"/>
    <path d="M1567.62,1115.27L1569.23,1113.53L1567.44,1111.67L1565.99,1113.53L1567.62,1115.27Z" style="fill:rgb(246,241,226);fill-opacity:0.2;"/>
    <path d="M1929.63,1282.54L1931.08,1280.38L1929.25,1278.73L1927.78,1280.91L1929.63,1282.54Z" style="fill:rgb(255,239,206);fill-opacity:0.301961;"/>
    <path d="M1597.35,1105.86L1598.8,1103.7L1596.97,1102.05L1595.5,1104.23L1597.35,1105.86Z" style="fill:rgb(255,239,206);fill-opacity:0.301961;"/>
    <path d="M1552.77,993.301L1554.22,991.138L1552.39,989.491L1550.92,991.667L1552.77,993.301Z" style="fill:rgb(255,239,206);fill-opacity:0.501961;"/>
    <path d="M1784.23,1018.05L1785.75,1016.47L1784.17,1014.91L1782.7,1016.25L1784.23,1018.05" style="fill:rgb(231,229,221);fill-opacity:0.4;"/>
    <path d="M1236.98,1203.82L1238.47,1201.87L1236.66,1200.1L1234.96,1201.93L1236.98,1203.82L1236.98,1203.82Z" style="fill:rgb(231,229,221);fill-opacity:0.752941;"/>
    <path d="M1626.05,1183.53L1627.54,1181.58L1625.73,1179.81L1624.03,1181.64L1626.05,1183.53L1626.05,1183.53Z" style="fill:rgb(231,229,221);fill-opacity:0.752941;"/>
    <path d="M1776.89,1115.89L1779.04,1113.59L1776.03,1111.54L1774.36,1113.55L1776.89,1115.89Z" style="fill:rgb(246,241,226);"/>
    <path d="M1829.24,1185.97L1831.11,1183.57L1828.72,1181.69L1827.19,1183.88L1829.24,1185.97Z" style="fill:rgb(246,241,226);"/>
    <path d="M1832.51,1221.13L1834.09,1219.48L1832.57,1218.19L1831.05,1219.46L1832.51,1221.13Z" style="fill:rgb(246,241,226);"/>
    <path d="M1832.77,1190.1L1833.79,1188.61L1832.57,1187.6L1831.56,1188.9L1832.77,1190.1Z" style="fill:rgb(217,212,203);fill-opacity:0.2;"/>
    <g>
        <path d="M1736.82,1284.78L1734.13,1281.81L1736.71,1279.08L1739.79,1281.66L1736.82,1284.78Z" style="fill:rgb(246,243,234);"/>
        <path d="M1736.81,1283.62L1735.16,1281.79L1736.74,1280.12L1738.63,1281.71L1736.81,1283.62Z" style="fill:rgb(255,239,206);"/>
    </g>
    <g>
        <path d="M1547.8,1270.64L1545.11,1267.67L1547.69,1264.94L1550.77,1267.53L1547.8,1270.64Z" style="fill:rgb(246,243,234);"/>
        <path d="M1547.79,1269.48L1546.14,1267.65L1547.72,1265.98L1549.61,1267.57L1547.79,1269.48Z" style="fill:rgb(255,239,206);"/>
    </g>
    <g>
        <path d="M1973.16,1046.27L1970.25,1043.04L1973.04,1040.08L1976.39,1042.89L1973.16,1046.27L1973.16,1046.27Z" style="fill:rgb(246,243,234);"/>
        <path d="M1973.15,1045L1971.37,1043.03L1973.08,1041.21L1975.13,1042.93L1973.15,1045Z" style="fill:rgb(255,239,206);"/>
    </g>
    <path d="M1895.67,1199.07L1893.69,1196.94L1895.69,1194.85L1897.91,1196.82L1895.67,1199.07Z" style="fill:rgb(246,243,234);"/>
    <path d="M1208.64,1108.3L1206.66,1106.17L1208.66,1104.08L1210.88,1106.05L1208.64,1108.3Z" style="fill:rgb(246,243,234);"/>
    <path d="M1208.73,1287.51L1207.03,1285.68L1208.75,1283.89L1210.65,1285.58L1208.73,1287.51Z" style="fill:rgb(246,243,234);"/>
    <path d="M1950.76,953.446L1949.06,951.62L1950.78,949.835L1952.68,951.522L1950.76,953.446Z" style="fill:rgb(246,243,234);"/>
    <path d="M1312.98,1145.08L1311.14,1143.11L1312.78,1141.67L1314.35,1143.01L1312.98,1145.08Z" style="fill:rgb(246,241,226);"/>
    <path d="M1346.31,1192.61L1348.08,1190.66L1346.26,1188.69C1345.68,1189.23 1344.85,1190.13 1344.33,1190.7L1346.31,1192.61Z" style="fill:rgb(246,241,226);"/>
    <path d="M1743.22,998.738L1744.99,996.794L1743.16,994.817C1742.59,995.361 1741.76,996.256 1741.24,996.826L1743.22,998.738Z" style="fill:rgb(246,241,226);"/>
    <path d="M65.324,407.909L63.562,409.853L65.383,411.83C65.957,411.286 66.792,410.391 67.306,409.821L65.324,407.909Z" style="fill:rgb(246,241,226);"/>
    <path d="M175.44,674.979L173.699,673.375L171.838,675.16L173.699,676.607L175.44,674.979Z" style="fill:rgb(246,241,226);fill-opacity:0.2;"/>
    <path d="M201.311,807.673L199.148,806.231L197.501,808.058L199.677,809.528L201.311,807.673Z" style="fill:rgb(255,239,206);fill-opacity:0.301961;"/>
    <path d="M184.525,779.364L182.196,776.838L179.937,779.305L182.111,781.556L184.525,779.364Z" style="fill:rgb(246,243,234);"/>
    <path d="M159.222,678.735L157.282,676.937L155.672,678.735L157.218,680.532L159.222,678.735Z" style="fill:rgb(246,241,226);"/>
</svg>
