<svg id="Layer_1" data-name="Layer 1" xmlns="http://www.w3.org/2000/svg" viewBox="0 0 656.61 264.27"><defs><style>.cls-2{fill:#1a914e}</style></defs><path d="M279.34 108.83c-2.53 0-5.14-.14-7.85-.41l-.72-.09c-31.92-4.35-55.83-30.57-58.14-63.77l42.89-3c.74 10.61 7.43 22.12 20.71 24.11 13.23 1.23 19.34-5.23 33.21-23.68 11.41-15.2 25.61-34.1 50.68-40.19A66.52 66.52 0 01419.67 17a68.49 68.49 0 0122.92 59l-42.72-4.88a25.44 25.44 0 00-8.66-21.88c-6-5.32-13.66-7.36-20.95-5.59-9.6 2.33-16.3 10.72-26.44 24.22-13.14 17.45-30.82 40.95-64.48 40.96z" fill="#fff"/><path class="cls-2" d="M201 188.19v16.89a32.26 32.26 0 00-14-1.88c-5.22.4-9 2.28-11.52 5-3.22 3.48-4.69 8.31-4.69 13.67v38.59h-18.34v-72.4h16.08V198a22.42 22.42 0 017.77-8 27 27 0 0112.6-3.75 27.51 27.51 0 0112.1 1.94zM393.5 228.66c0 5.63-.27 10.32 1.47 13s4.83 3.89 7.64 4.16a58.91 58.91 0 0011.8-.54v15.14c-5.63 1.61-15.82 1.48-21.18.54-6.7-1.21-10.85-3.35-14.74-9.11s-3.22-13.4-3.22-22.11v-27.61H363v-14.07h12.32V168h18.18v20.1h20.91v14.07H393.5zM536.18 216.65v44.45h-18.65V218c0-5.27-.95-8.52-3.51-11.35a12.54 12.54 0 00-9.33-3.92 12.69 12.69 0 00-9.32 4.05c-2.84 3.24-3.38 6.49-3.38 10.14v44.18h-18.65V218c0-5.27-.94-8.52-3.51-11.35a12.54 12.54 0 00-9.32-3.92 12.7 12.7 0 00-9.33 4.05c-2.83 3.24-3.38 6.49-3.38 10.14v44.18h-18.51v-73h16.22v7.9a27.68 27.68 0 0121.08-9.59c6.08 0 13.78 1.89 18.37 6.75a24.18 24.18 0 013.38 4.46 27.79 27.79 0 0122.43-11.21c6.08 0 13.78 1.89 18.38 6.75 6.35 6.59 7.03 14.16 7.03 23.49zM569.45 188.13v73h-18.37v-73z"/><circle class="cls-2" cx="560.27" cy="166.61" r="11.67"/><path class="cls-2" d="M228.18 239.75c3 4.06 8 6.22 13.37 6.22 4.33 0 7.71-1.08 10.41-3.25a15.54 15.54 0 004.73-5.94l18.37 5.27a33.86 33.86 0 01-12.7 15.27 37.73 37.73 0 01-19.73 5.81c-11.08 0-22.43-4.19-29-12.16a39.68 39.68 0 01-8.91-25.41c0-10.54 3.1-20.27 8.91-27.29 6.76-8 17.16-12.16 28-12.16s19.33 3.51 26.08 11.48c7.3 8.52 9.06 19.46 8.11 32.16h-51.43a21.49 21.49 0 003.79 10zm.13-31.75a19.2 19.2 0 00-3.51 7.56h32.56a14.86 14.86 0 00-3-8.1c-2.84-3.65-7.84-5.41-12.84-5.41-4.7 0-9.52 1.35-13.21 5.95zM310.33 239.75c3 4.06 8 6.22 13.38 6.22 4.32 0 7.7-1.08 10.4-3.25a15.54 15.54 0 004.73-5.94l18.38 5.27a33.93 33.93 0 01-12.7 15.27 37.79 37.79 0 01-19.73 5.81c-11.08 0-22.43-4.19-29.05-12.16a39.63 39.63 0 01-8.92-25.41c0-10.54 3.11-20.27 8.92-27.29 6.75-8 17.16-12.16 28-12.16s19.32 3.51 26.08 11.48c7.29 8.52 9 19.46 8.1 32.16h-51.37a21.48 21.48 0 003.78 10zm.14-31.75a19.22 19.22 0 00-3.52 7.56h32.57a14.79 14.79 0 00-3-8.1c-2.83-3.65-7.83-5.41-12.83-5.41-4.69 0-9.58 1.35-13.22 5.95zM60.61 193.15c-2.44-4.88-4.47-8.27-9.08-11A22.34 22.34 0 0040 178.64a22 22 0 00-11.79 2.71 9.59 9.59 0 00-5 8.14 6.46 6.46 0 001.9 4.61c1.76 1.9 6.23 3.66 11.12 5.15l16.95 4.88c8.67 2.58 13.69 5.16 18 9.22a28.26 28.26 0 019.09 20.75c0 8.54-4.88 17.49-12.61 22.65C60.21 261.76 51.26 263 41 263c-13 0-24.14-3.39-32.13-13.15a46.41 46.41 0 01-8.82-19l18.71-5c.82 4.74 2.44 9.08 4.89 12.07 3.93 5.42 11.52 7.86 18 7.86 5.15 0 11.66-1.49 15.19-4.2a9.4 9.4 0 003.93-8 8.76 8.76 0 00-3-6.78 21.59 21.59 0 00-8.68-4.34l-18.17-5.29c-7.32-2-14-4.88-18.71-9.09-5.84-4.88-8.41-12.2-8.41-19 0-10.71 6.91-19.93 15.86-24 7.05-3.26 14.11-3.8 20.61-3.8s14 1.22 20.48 4.75c8.27 4.47 14.78 12.2 18.58 22.1zM116.41 228.81c0 5.7-.27 10.44 1.49 13.15s4.88 3.94 7.73 4.21a60.23 60.23 0 0011.93-.54V261c-5.69 1.63-16 1.49-21.42.54-6.78-1.22-11-3.39-14.92-9.22S98 238.71 98 229.9V202H85.49v-14.28H98v-20.34h18.44v20.34h21.15V202h-21.18z"/><path class="cls-2" transform="rotate(43 618.83 224.61)" d="M610.38 178.28h16.9v92.67h-16.9z"/><path class="cls-2" transform="rotate(137 618.83 224.616)" d="M610.38 178.28h16.9v92.67h-16.9z"/></svg>