<?xml version="1.0" encoding="UTF-8" standalone="no"?>
<!DOCTYPE svg PUBLIC "-//W3C//DTD SVG 1.1//EN" "http://www.w3.org/Graphics/SVG/1.1/DTD/svg11.dtd">
<svg width="100%" height="100%" viewBox="0 0 880 230" version="1.1" xmlns="http://www.w3.org/2000/svg" xmlns:xlink="http://www.w3.org/1999/xlink" xml:space="preserve" xmlns:serif="http://www.serif.com/" style="fill-rule:evenodd;clip-rule:evenodd;stroke-linejoin:round;stroke-miterlimit:2;">
    <g transform="matrix(1,0,0,1,-87.386,32.5167)">
        <g>
            <g transform="matrix(0.731354,0.681998,-0.681998,0.731354,255.352,-611.9)">
                <rect x="916.34" y="23.66" width="16.9" height="92.67" style="fill:rgb(53,67,119);"/>
            </g>
            <g transform="matrix(-0.731354,0.681998,-0.681998,-0.731354,1608.04,-509.52)">
                <rect x="916.34" y="23.66" width="16.9" height="92.67" style="fill:rgb(53,67,119);"/>
            </g>
            <g transform="matrix(0.648603,0,0,0.648603,199.933,13.2498)">
                <path d="M230.913,145.86C265.043,145.86 289.038,127.657 298.553,98.697L270.215,90.837C264.63,108.833 251.598,119.382 230.913,119.382C202.574,119.382 188.301,99.318 188.301,68.29C188.301,37.262 202.574,17.197 230.913,17.197C251.598,17.197 264.63,27.747 270.215,45.743L298.553,37.883C289.038,8.923 265.043,-9.28 230.913,-9.28C186.232,-9.28 158.721,21.955 158.721,68.29C158.721,114.625 186.232,145.86 230.913,145.86Z" style="fill:rgb(53,67,119);fill-rule:nonzero;"/>
            </g>
            <g transform="matrix(0.648603,0,0,0.648603,195.933,13.2498)">
                <path d="M371.572,145.86C337.855,145.86 315.102,121.451 315.102,86.907C315.102,51.949 338.476,27.954 371.572,27.954C405.289,27.954 428.25,52.362 428.25,86.907C428.25,121.658 405.083,145.86 371.572,145.86ZM371.572,119.589C389.569,119.589 398.463,106.144 398.463,86.907C398.463,67.049 389.362,54.224 371.572,54.224C353.163,54.224 344.888,67.462 344.888,86.907C344.888,106.971 353.99,119.589 371.572,119.589Z" style="fill:rgb(53,67,119);"/>
            </g>
            <g transform="matrix(0.648603,0,0,0.648603,193.933,13.2498)">
                <path d="M540.157,48.225C544.501,56.499 544.708,64.36 544.708,74.495L544.708,142.757L520.093,142.757L520.093,129.105C510.164,140.895 499.201,145.86 482.032,145.86C458.037,145.86 444.798,130.553 444.798,111.936C444.798,96.422 451.211,84.838 469.207,78.219C479.963,74.289 495.994,71.91 516.99,68.807C515.852,58.361 509.75,53.603 496.511,53.603C488.237,53.603 477.688,57.12 474.171,67.256L448.728,59.188C454.313,40.778 469.621,27.954 496.511,27.954C516.162,27.954 532.297,33.332 540.157,48.225ZM513.887,108.833C516.266,103.972 516.68,96.939 516.783,91.561C497.959,94.767 490.306,96.318 483.893,98.697C475.619,102.007 472.31,105.937 472.31,111.522C472.31,119.176 478.308,123.726 488.03,123.726C503.544,123.726 511.612,113.591 513.887,108.833Z" style="fill:rgb(53,67,119);"/>
            </g>
            <g transform="matrix(0.648603,0,0,0.648603,191.933,13.2498)">
                <path d="M615.245,145.86C644.411,145.86 661.994,132.001 661.994,109.04C661.994,91.664 652.272,82.563 626.829,75.943C600.765,69.324 597.042,67.462 597.042,61.671C597.042,55.258 603.868,51.535 614.211,52.155C624.76,52.983 631.173,57.947 632.207,66.221L660.959,61.05C658.063,40.778 639.86,27.954 613.59,27.954C586.492,27.954 569.117,41.606 569.117,63.119C569.117,80.287 579.046,88.975 606.35,96.008C630.552,102.421 633.241,103.869 633.241,110.488C633.241,117.521 627.449,121.658 617.313,121.658C604.902,121.658 596.421,115.452 594.146,104.903L565.393,109.247C569.117,132.621 587.113,145.86 615.245,145.86Z" style="fill:rgb(53,67,119);fill-rule:nonzero;"/>
            </g>
            <g transform="matrix(0.648603,0,0,0.648603,191.933,13.2498)">
                <path d="M719.499,52.776L751.768,52.776L751.768,31.056L719.499,31.056L719.499,0.028L691.367,0.028L691.367,31.056L672.336,31.056L672.336,52.776L691.367,52.776L691.367,95.388C691.367,108.833 690.332,118.762 695.917,128.898C705.019,145.239 728.6,147.101 751.768,142.757L751.768,119.382C738.529,121.244 726.738,121.658 721.774,113.797C719.085,109.66 719.499,102.421 719.499,93.733L719.499,52.776Z" style="fill:rgb(53,67,119);fill-rule:nonzero;"/>
            </g>
            <g transform="matrix(1,0,0,1,-40.828,0)">
                <path d="M842.13,62L842.13,106.46L823.49,106.46L823.49,63.37C823.49,58.1 822.49,54.86 819.97,52.02C817.542,49.52 814.202,48.108 810.717,48.108C807.165,48.108 803.766,49.575 801.33,52.16C798.49,55.4 798,58.64 798,62.29L798,106.48L779.3,106.48L779.3,63.37C779.3,58.1 778.36,54.86 775.79,52.02C773.36,49.52 770.018,48.108 766.532,48.108C762.979,48.108 759.578,49.575 757.14,52.16C754.3,55.4 753.76,58.64 753.76,62.29L753.76,106.48L735.25,106.48L735.25,33.48L751.47,33.48L751.47,41.32C756.754,35.2 764.464,31.692 772.55,31.73C778.63,31.73 786.33,33.62 790.92,38.48C792.218,39.85 793.353,41.367 794.3,43C799.562,35.911 807.902,31.743 816.73,31.79C822.81,31.79 830.51,33.68 835.11,38.54C841.46,45.13 842.13,52.7 842.13,62Z" style="fill:rgb(53,67,119);fill-rule:nonzero;"/>
            </g>
            <g transform="matrix(1,0,0,1,-40.828,0)">
                <rect x="857" y="33.51" width="18.41" height="73" style="fill:rgb(53,67,119);fill-rule:nonzero;"/>
            </g>
            <g transform="matrix(1,0,0,1,-40.828,0)">
                <circle cx="866.22" cy="11.99" r="11.67" style="fill:rgb(53,67,119);"/>
            </g>
        </g>
    </g>
    <g transform="matrix(0.531569,0,0,0.531569,322.685,153.935)">
        <path d="M506.92,33.57L506.92,50.46C502.475,48.819 497.722,48.177 493,48.58C487.78,48.98 484,50.86 481.48,53.58C478.26,57.06 476.79,61.89 476.79,67.25L476.79,105.8L458.41,105.8L458.41,33.44L474.49,33.44L474.49,43.35C476.361,40.069 479.035,37.316 482.26,35.35C486.087,33.081 490.415,31.793 494.86,31.6C498.977,31.345 503.098,32.018 506.92,33.57Z" style="fill:rgb(26,145,78);fill-rule:nonzero;"/>
        <path d="M699.46,74C699.46,79.63 699.19,84.32 700.93,87C702.67,89.68 705.76,90.89 708.57,91.15C712.508,91.364 716.457,91.187 720.36,90.62L720.36,105.8C714.73,107.41 704.55,107.28 699.19,106.34C692.49,105.13 688.34,102.99 684.45,97.22C680.56,91.45 681.23,83.82 681.23,75.11L681.23,47.51L668.9,47.51L668.9,33.44L681.23,33.44L681.23,13.33L699.46,13.33L699.46,33.44L720.36,33.44L720.36,47.51L699.46,47.51L699.46,74Z" style="fill:rgb(26,145,78);fill-rule:nonzero;"/>
        <path d="M842.13,62L842.13,106.46L823.49,106.46L823.49,63.37C823.49,58.1 822.49,54.86 819.97,52.02C817.542,49.52 814.202,48.108 810.717,48.108C807.165,48.108 803.766,49.575 801.33,52.16C798.49,55.4 798,58.64 798,62.29L798,106.48L779.3,106.48L779.3,63.37C779.3,58.1 778.36,54.86 775.79,52.02C773.36,49.52 770.018,48.108 766.532,48.108C762.979,48.108 759.578,49.575 757.14,52.16C754.3,55.4 753.76,58.64 753.76,62.29L753.76,106.48L735.25,106.48L735.25,33.48L751.47,33.48L751.47,41.32C756.754,35.2 764.464,31.692 772.55,31.73C778.63,31.73 786.33,33.62 790.92,38.48C792.218,39.85 793.353,41.367 794.3,43C799.562,35.911 807.902,31.743 816.73,31.79C822.81,31.79 830.51,33.68 835.11,38.54C841.46,45.13 842.13,52.7 842.13,62Z" style="fill:rgb(26,145,78);fill-rule:nonzero;"/>
        <rect x="857" y="33.51" width="18.41" height="73" style="fill:rgb(26,145,78);fill-rule:nonzero;"/>
        <circle cx="866.22" cy="11.99" r="11.67" style="fill:rgb(26,145,78);"/>
        <path d="M534.13,85.13C537.13,89.18 542.13,91.35 547.51,91.35C551.253,91.519 554.938,90.368 557.92,88.1C559.959,86.537 561.583,84.497 562.65,82.16L581,87.43C578.388,93.671 573.963,98.988 568.3,102.69C562.39,106.419 555.558,108.434 548.57,108.51C537.49,108.51 526.14,104.32 519.52,96.34C513.678,89.174 510.521,80.186 510.6,70.94C510.6,60.4 513.71,50.67 519.52,43.65C526.28,35.65 536.68,31.48 547.52,31.48C558.36,31.48 566.84,35 573.59,43C580.89,51.51 582.59,62.46 581.7,75.16L530.35,75.16C530.752,78.748 532.052,82.177 534.13,85.13ZM534.27,53.37C532.562,55.607 531.364,58.191 530.76,60.94L563.32,60.94C563.142,58 562.098,55.178 560.32,52.83C557.48,49.18 552.48,47.43 547.48,47.43C542.78,47.43 537.92,48.78 534.27,53.37Z" style="fill:rgb(26,145,78);fill-rule:nonzero;"/>
        <path d="M616.29,85.13C619.29,89.18 624.29,91.35 629.67,91.35C633.409,91.517 637.091,90.366 640.07,88.1C642.111,86.54 643.736,84.499 644.8,82.16L663.18,87.43C660.56,93.67 656.133,98.985 650.47,102.69C644.563,106.418 637.735,108.433 630.75,108.51C619.67,108.51 608.32,104.32 601.75,96.34C595.904,89.176 592.747,80.186 592.83,70.94C592.83,60.4 595.94,50.67 601.75,43.65C608.5,35.65 618.91,31.48 629.75,31.48C640.59,31.48 649,35 655.74,43C663.04,51.51 664.8,62.46 663.85,75.16L612.51,75.16C612.912,78.748 614.212,82.177 616.29,85.13ZM616.42,53.37C614.716,55.609 613.518,58.192 612.91,60.94L645.48,60.94C645.302,58 644.258,55.178 642.48,52.83C639.64,49.18 634.65,47.43 629.65,47.43C624.94,47.43 620.07,48.78 616.42,53.37Z" style="fill:rgb(26,145,78);fill-rule:nonzero;"/>
        <path d="M422.37,74.19C422.37,79.88 422.09,84.63 423.86,87.34C425.63,90.05 428.74,91.28 431.59,91.55C435.575,91.767 439.572,91.583 443.52,91L443.52,106.33C437.82,107.95 427.52,107.82 422.09,106.87C415.31,105.65 411.09,103.48 407.18,97.65C403.27,91.82 403.92,84.09 403.92,75.27L403.92,47.34L391.45,47.34L391.45,33.1L403.92,33.1L403.92,12.76L422.37,12.76L422.37,33.1L443.52,33.1L443.52,47.34L422.37,47.34L422.37,74.19Z" style="fill:rgb(25,145,80);fill-rule:nonzero;"/>
        <path d="M366.57,38.53C364.13,33.64 362.1,30.25 357.49,27.53C354.057,25.322 350.081,24.1 346,24C341.891,23.782 337.802,24.721 334.2,26.71C331.208,28.334 329.3,31.437 329.2,34.84C329.161,36.561 329.809,38.228 331,39.47C332.77,41.37 337.24,43.14 342.12,44.63L359.07,49.51C367.75,52.09 372.77,54.66 377.07,58.73C382.858,64.074 386.156,71.602 386.16,79.48C386.16,88.02 381.27,96.97 373.55,102.12C366.09,107.12 357.14,108.36 346.83,108.36C333.83,108.36 322.69,104.97 314.69,95.21C310.347,89.629 307.333,83.131 305.88,76.21L324.59,71.21C325.41,75.95 327.03,80.29 329.47,83.27C333.41,88.7 341,91.14 347.47,91.14C352.62,91.14 359.13,89.65 362.66,86.94C365.229,85.105 366.708,82.095 366.59,78.94C366.639,76.35 365.54,73.866 363.59,72.16C361.059,70.083 358.092,68.602 354.91,67.83L336.74,62.54C329.41,60.54 322.74,57.66 318.02,53.45C312.19,48.57 309.62,41.25 309.62,34.45C309.62,23.73 316.53,14.51 325.48,10.45C332.53,7.19 339.58,6.65 346.09,6.65C352.6,6.65 360.09,7.87 366.57,11.39C374.84,15.87 381.35,23.6 385.15,33.5L366.57,38.53Z" style="fill:rgb(26,145,78);fill-rule:nonzero;"/>
        <g transform="matrix(0.731354,0.681998,-0.681998,0.731354,296.18,-611.9)">
            <rect x="916.34" y="23.66" width="16.9" height="92.67" style="fill:rgb(26,145,78);"/>
        </g>
        <g transform="matrix(-0.731354,0.681998,-0.681998,-0.731354,1648.87,-509.52)">
            <rect x="916.34" y="23.66" width="16.9" height="92.67" style="fill:rgb(26,145,78);"/>
        </g>
    </g>
    <g transform="matrix(5.54489,0,0,3.07844,-2298.84,-282.853)">
        <path d="M487.868,147.379C487.235,147.379 486.689,147.667 486.243,148.171L486.243,143.419L484.417,143.419L484.417,160.699L486.016,160.699L486.016,159.955C486.523,160.651 487.169,161.059 487.962,161.059C489.947,161.059 491.279,158.107 491.279,154.219C491.279,150.259 489.934,147.379 487.868,147.379ZM487.668,158.155C486.456,158.155 486.016,156.571 486.016,154.219C486.016,151.867 486.469,150.283 487.602,150.283C488.814,150.283 489.361,152.059 489.361,154.219C489.361,156.403 488.841,158.155 487.668,158.155Z" style="fill:rgb(26,145,78);fill-rule:nonzero;"/>
        <path d="M497.062,147.739L495.183,156.559L493.291,147.739L491.413,147.739L494.317,160.591L493.132,166.459L494.81,166.459L498.874,147.739L497.062,147.739Z" style="fill:rgb(26,145,78);fill-rule:nonzero;"/>
    </g>
    <g transform="matrix(0.142974,0,0,0.142974,0,0)">
        <g>
            <clipPath id="_clip1">
                <path d="M1224,122.4L1224,1101.6C1224,1169.15 1169.15,1224 1101.6,1224L122.4,1224C54.846,1224 -0,1169.15 -0,1101.6L-0,122.4C-0,54.846 54.846,0 122.4,0L1101.6,0C1169.15,0 1224,54.846 1224,122.4Z"/>
            </clipPath>
            <g clip-path="url(#_clip1)">
                <g>
                    <g transform="matrix(0.999999,0,0,0.999999,-0.000251311,-1.38191e-12)">
                        <rect x="0" y="0" width="1224" height="1224" style="fill:rgb(53,67,119);"/>
                    </g>
                    <g transform="matrix(0.999999,0,0,0.999999,1705.33,37.6468)">
                        <path d="M0,776.185L-90.729,765.823C-69.425,579.29 -142.029,392.614 -284.949,266.455C-424.093,143.639 -612.031,95.742 -787.747,138.395C-1000.76,190.092 -1124.99,355.48 -1224.82,488.373C-1347.68,651.952 -1418.78,736.653 -1568.78,722.661L-1571.3,722.357C-1717.65,700.438 -1791.2,574.92 -1799.18,460.255L-1708.09,453.924C-1702.66,531.856 -1654.46,616.896 -1559,631.851C-1464.18,640.43 -1421.94,598.766 -1297.83,433.529C-1189.24,288.972 -1054.11,109.074 -809.283,49.646C-604.629,0 -386.023,55.424 -224.514,198.002C-59.245,343.888 24.685,560.027 0,776.185" style="fill:rgb(193,235,247);fill-rule:nonzero;"/>
                    </g>
                    <g transform="matrix(0.999999,0,0,0.999999,169.175,449.175)">
                        <path d="M0,705.369C-24.89,705.369 -50.582,704.032 -76.367,701.392L-83.707,700.527C-397.621,657.739 -632.136,400.961 -654.751,75.98L-563.657,69.648C-544.073,350.986 -341.947,573.163 -72.118,609.949L-66.299,610.636C-44.366,612.874 -21.799,614.051 -0.004,614.051C284.713,614.034 433.074,416.532 552.282,257.831C650.975,126.454 716.686,44.661 819.48,19.709C900.77,0 985.422,22.268 1051.78,80.849C1120.93,141.891 1156.16,231.336 1146.02,320.104L1055.29,309.741C1062.05,250.598 1038.14,190.618 991.344,149.302C947.678,110.75 892.9,95.848 841.017,108.458C768.498,126.053 711.798,197.529 625.292,312.675C500.813,478.394 330.332,705.351 0,705.369" style="fill:rgb(193,235,247);fill-rule:nonzero;"/>
                    </g>
                    <g transform="matrix(0.999999,0,0,0.999999,168.091,264.862)">
                        <path d="M0,692.394C-15.985,692.394 -32.702,691.591 -49.69,690.013L-62.968,688.399C-254.353,659.96 -410.677,503.48 -451.961,299.013C-453.223,292.771 -454.615,286.555 -456.001,280.33C-458.088,270.967 -460.17,261.594 -461.918,252.133L-372.125,235.528C-370.578,243.893 -368.719,252.177 -366.873,260.462C-365.352,267.275 -363.836,274.088 -362.454,280.937C-328.228,450.437 -205.403,574.92 -49.543,598.08L-41.125,599.096C-27.043,600.407 -13.171,601.076 0,601.076C187.295,601.076 283.848,472.526 395.646,323.671C490.196,197.814 597.321,55.219 774.049,12.325C807.736,4.147 842.551,0 877.526,0C1011.31,0 1139.61,60.864 1229.52,166.977C1316.5,269.621 1354.28,401.184 1333.19,527.933L1243.11,512.951C1259.79,412.724 1229.44,308.136 1159.85,226.013C1087.32,140.411 984.419,91.318 877.526,91.318C849.801,91.318 822.236,94.6 795.59,101.065C650.671,136.237 562.279,253.898 468.696,378.471C352.765,532.828 232.918,692.394 0,692.394" style="fill:rgb(193,235,247);fill-rule:nonzero;"/>
                    </g>
                </g>
            </g>
        </g>
    </g>
</svg>
