<svg clip-rule="evenodd" fill-rule="evenodd" stroke-linejoin="round" stroke-miterlimit="2" viewBox="0 0 880 175" xmlns="http://www.w3.org/2000/svg" xmlns:xlink="http://www.w3.org/1999/xlink"><clipPath id="a"><path clip-rule="evenodd" d="m1224 122.4v979.2c0 67.55-54.85 122.4-122.4 122.4h-979.2c-67.554 0-122.4-54.85-122.4-122.4v-979.2c0-67.554 54.846-122.4 122.4-122.4h979.2c67.55 0 122.4 54.846 122.4 122.4z"/></clipPath><g transform="translate(-87.386 32.5167)"><g fill="#1a914e"><path d="m506.92 33.57v16.89c-4.445-1.641-9.198-2.283-13.92-1.88-5.22.4-9 2.28-11.52 5-3.22 3.48-4.69 8.31-4.69 13.67v38.55h-18.38v-72.36h16.08v9.91c1.871-3.281 4.545-6.034 7.77-8 3.827-2.269 8.155-3.557 12.6-3.75 4.117-.255 8.238.418 12.06 1.97z" fill-rule="nonzero"/><path d="m699.46 74c0 5.63-.27 10.32 1.47 13s4.83 3.89 7.64 4.15c3.938.214 7.887.037 11.79-.53v15.18c-5.63 1.61-15.81 1.48-21.17.54-6.7-1.21-10.85-3.35-14.74-9.12s-3.22-13.4-3.22-22.11v-27.6h-12.33v-14.07h12.33v-20.11h18.23v20.11h20.9v14.07h-20.9z" fill-rule="nonzero"/><path d="m842.13 62v44.46h-18.64v-43.09c0-5.27-1-8.51-3.52-11.35-2.428-2.5-5.768-3.912-9.253-3.912-3.552 0-6.951 1.467-9.387 4.052-2.84 3.24-3.33 6.48-3.33 10.13v44.19h-18.7v-43.11c0-5.27-.94-8.51-3.51-11.35-2.43-2.5-5.772-3.912-9.258-3.912-3.553 0-6.954 1.467-9.392 4.052-2.84 3.24-3.38 6.48-3.38 10.13v44.19h-18.51v-73h16.22v7.84c5.284-6.12 12.994-9.628 21.08-9.59 6.08 0 13.78 1.89 18.37 6.75 1.298 1.37 2.433 2.887 3.38 4.52 5.262-7.089 13.602-11.257 22.43-11.21 6.08 0 13.78 1.89 18.38 6.75 6.35 6.59 7.02 14.16 7.02 23.46z" fill-rule="nonzero"/><path d="m857 33.51h18.41v73h-18.41z" fill-rule="nonzero"/><circle cx="866.22" cy="11.99" r="11.67"/><path d="m534.13 85.13c3 4.05 8 6.22 13.38 6.22 3.743.169 7.428-.982 10.41-3.25 2.039-1.563 3.663-3.603 4.73-5.94l18.35 5.27c-2.612 6.241-7.037 11.558-12.7 15.26-5.91 3.729-12.742 5.744-19.73 5.82-11.08 0-22.43-4.19-29.05-12.17-5.842-7.166-8.999-16.154-8.92-25.4 0-10.54 3.11-20.27 8.92-27.29 6.76-8 17.16-12.17 28-12.17s19.32 3.52 26.07 11.52c7.3 8.51 9 19.46 8.11 32.16h-51.35c.402 3.588 1.702 7.017 3.78 9.97zm.14-31.76c-1.708 2.237-2.906 4.821-3.51 7.57h32.56c-.178-2.94-1.222-5.762-3-8.11-2.84-3.65-7.84-5.4-12.84-5.4-4.7 0-9.56 1.35-13.21 5.94z" fill-rule="nonzero"/><path d="m616.29 85.13c3 4.05 8 6.22 13.38 6.22 3.739.167 7.421-.984 10.4-3.25 2.041-1.56 3.666-3.601 4.73-5.94l18.38 5.27c-2.62 6.24-7.047 11.555-12.71 15.26-5.907 3.728-12.735 5.743-19.72 5.82-11.08 0-22.43-4.19-29-12.17-5.846-7.164-9.003-16.154-8.92-25.4 0-10.54 3.11-20.27 8.92-27.29 6.75-8 17.16-12.17 28-12.17s19.25 3.52 25.99 11.52c7.3 8.51 9.06 19.46 8.11 32.16h-51.34c.402 3.588 1.702 7.017 3.78 9.97zm.13-31.76c-1.704 2.239-2.902 4.822-3.51 7.57h32.57c-.178-2.94-1.222-5.762-3-8.11-2.84-3.65-7.83-5.4-12.83-5.4-4.71 0-9.58 1.35-13.23 5.94z" fill-rule="nonzero"/><path d="m366.57 38.53c-2.44-4.89-4.47-8.28-9.08-11-3.433-2.208-7.409-3.43-11.49-3.53-4.109-.218-8.198.721-11.8 2.71-2.992 1.624-4.9 4.727-5 8.13-.039 1.721.609 3.388 1.8 4.63 1.77 1.9 6.24 3.67 11.12 5.16l16.95 4.88c8.68 2.58 13.7 5.15 18 9.22 5.788 5.344 9.086 12.872 9.09 20.75 0 8.54-4.89 17.49-12.61 22.64-7.46 5-16.41 6.24-26.72 6.24-13 0-24.14-3.39-32.14-13.15-4.343-5.581-7.357-12.079-8.81-19l18.71-5c.82 4.74 2.44 9.08 4.88 12.06 3.94 5.43 11.53 7.87 18 7.87 5.15 0 11.66-1.49 15.19-4.2 2.569-1.835 4.048-4.845 3.93-8 .049-2.59-1.05-5.074-3-6.78-2.531-2.077-5.498-3.558-8.68-4.33l-18.17-5.29c-7.33-2-14-4.88-18.72-9.09-5.83-4.88-8.4-12.2-8.4-19 0-10.72 6.91-19.94 15.86-24 7.05-3.26 14.1-3.8 20.61-3.8s14 1.22 20.48 4.74c8.27 4.48 14.78 12.21 18.58 22.11z" fill-rule="nonzero"/></g><path d="m422.37 74.19c0 5.69-.28 10.44 1.49 13.15s4.88 3.94 7.73 4.21c3.985.217 7.982.033 11.93-.55v15.33c-5.7 1.62-16 1.49-21.43.54-6.78-1.22-11-3.39-14.91-9.22s-3.26-13.56-3.26-22.38v-27.93h-12.47v-14.24h12.47v-20.34h18.45v20.34h21.15v14.24h-21.15z" fill="#199150" fill-rule="nonzero"/><path d="m916.34 23.66h16.9v92.67h-16.9z" fill="#1a914e" transform="matrix(.731354 .681998 -.681998 .731354 296.18 -611.9)"/><path d="m916.34 23.66h16.9v92.67h-16.9z" fill="#1a914e" transform="matrix(-.731354 .681998 -.681998 -.731354 1648.87 -509.52)"/></g><g transform="scale(.142974)"><path d="m1224 122.4v979.2c0 67.55-54.85 122.4-122.4 122.4h-979.2c-67.554 0-122.4-54.85-122.4-122.4v-979.2c0-67.554 54.846-122.4 122.4-122.4h979.2c67.55 0 122.4 54.846 122.4 122.4z" fill="#5bc17d"/><g clip-path="url(#a)"><path d="m0 0h1224v1224h-1224z" fill="#5bc17d"/><path d="m0 998.365c-22.519 0-45.8-1.175-69.968-3.646l-6.398-.765c-284.373-38.766-497.356-272.389-517.939-568.136l382.144-26.587c6.573 94.47 66.153 197.006 184.474 214.727 117.834 10.996 172.316-46.561 295.804-210.96 101.657-135.333 228.177-303.761 451.491-357.96 185.552-45.038 383.842 5.386 530.492 134.829 150.32 132.697 226.68 329.189 204.24 525.603l-380.59-43.463c8.24-72.156-20.61-145.034-77.16-194.961-53.673-47.379-121.714-65.501-186.635-49.745-85.519 20.757-145.225 95.514-235.559 215.762-117.072 155.856-274.425 365.284-574.396 365.302" fill="#c1ebf7" fill-rule="nonzero" transform="translate(180.052 98.3781)"/></g></g></svg>