<?xml version="1.0" encoding="UTF-8" standalone="no"?>
<!DOCTYPE svg PUBLIC "-//W3C//DTD SVG 1.1//EN" "http://www.w3.org/Graphics/SVG/1.1/DTD/svg11.dtd">
<svg width="100%" height="100%" viewBox="0 0 80 180" version="1.1" xmlns="http://www.w3.org/2000/svg" xmlns:xlink="http://www.w3.org/1999/xlink" xml:space="preserve" xmlns:serif="http://www.serif.com/" style="fill-rule:evenodd;clip-rule:evenodd;stroke-linejoin:round;stroke-miterlimit:2;">
    <g id="biker-02-outbound" transform="matrix(0.635,0,0,0.635,-3104.91,-368.322)">
        <g transform="matrix(2.00022,0,0,2.00022,-4916.78,-863.694)">
            <path d="M4932.26,816.084L4931.96,793.304L4935.37,793.313L4935.6,815.904L4932.26,816.084Z" style="fill:rgb(240,157,116);fill-rule:nonzero;"/>
        </g>
        <g transform="matrix(2.00022,0,0,2.00022,-4916.78,-863.694)">
            <path d="M4919.2,822.688L4918.77,832.188L4921.05,837.061L4923.55,836.905L4924.87,832.371L4923.77,822.001L4919.2,822.688Z" style="fill:rgb(174,32,37);fill-rule:nonzero;"/>
        </g>
        <g transform="matrix(2.00022,0,0,2.00022,-4916.78,-863.694)">
            <path d="M4949.89,823.5L4952.77,832.375L4950.6,835.974L4947.67,836.209L4945.52,833.063L4945.64,823.875" style="fill:rgb(174,32,37);fill-rule:nonzero;"/>
        </g>
        <g transform="matrix(2.00022,0,0,2.00022,-4916.78,-863.694)">
            <path d="M4932.1,789.814L4935.16,789.853L4942.53,786.91L4942.09,784.839L4935.09,787.189L4932.06,787.228L4925.16,785.04L4924.72,787.329L4932.1,789.814Z" style="fill:rgb(232,205,119);fill-rule:nonzero;"/>
        </g>
        <g transform="matrix(2.00022,0,0,2.00022,-4916.78,-863.694)">
            <path d="M4943.37,785.214L4943.61,789.666L4959.11,788.185L4958.46,782.838L4943.37,785.214Z" style="fill:rgb(206,173,128);fill-rule:nonzero;"/>
        </g>
        <g transform="matrix(2.00022,0,0,2.00022,-4916.78,-863.694)">
            <path d="M4923.18,784.491L4922.94,788.946L4907.44,787.462L4908.09,782.115L4923.18,784.491Z" style="fill:rgb(206,173,128);fill-rule:nonzero;"/>
        </g>
        <g transform="matrix(2.00022,0,0,2.00022,-4916.78,-863.694)">
            <path d="M4932.5,791.209L4924.7,798.966L4923.55,822.36L4919.33,822.875L4918.83,795.812L4924.46,776.922L4938.55,774.406L4941.09,776.844L4947.55,789.653L4949.95,823.625L4945.7,823.813L4941.19,796.297L4936.11,790.859L4932.5,791.209Z" style="fill:rgb(49,49,86);fill-rule:nonzero;"/>
        </g>
        <g transform="matrix(2.00022,0,0,2.00022,-4916.78,-863.694)">
            <path d="M4924.54,776.962L4923.54,759.087L4916.21,767.003L4916.71,783.255L4913.49,783.171L4912.87,765.253L4922.62,754.337L4929.55,752.998L4935.64,752.71L4942.46,753.42L4952.04,763.336L4951.62,783.588L4948.73,783.11L4948.62,764.837L4941.54,757.503L4941.14,777L4938.52,774.406L4924.54,776.962Z" style="fill:rgb(174,32,37);fill-rule:nonzero;"/>
        </g>
        <g transform="matrix(2.00022,0,0,2.00022,-4916.78,-863.694)">
            <path d="M4929.51,753.119L4936.29,752.834L4939.42,749.873L4938.64,737.947L4932.16,738.267L4926.1,738.566L4926.25,749.873L4929.51,753.119Z" style="fill:rgb(226,198,183);fill-rule:nonzero;"/>
        </g>
        <g transform="matrix(2.00022,0,0,2.00022,-4916.78,-863.694)">
            <g opacity="0.5">
                <path d="M4932.39,791.23L4938.25,793.157L4941.21,796.282L4943.14,808.003L4949.29,814.168L4947.52,789.667L4933.95,780.708L4918.87,795.834L4924.73,798.959L4932.39,791.23Z" style="fill:rgb(23,24,23);fill-rule:nonzero;"/>
            </g>
        </g>
        <g transform="matrix(2.00022,0,0,2.00022,-4916.78,-863.694)">
            <path d="M4926.2,740.47L4924.2,742L4922.7,745.125L4930.75,750.588L4934.67,750.381L4944.4,746.327L4941.83,741.875L4938.8,739.128L4926.2,740.47Z" style="fill:rgb(84,62,54);fill-rule:nonzero;"/>
        </g>
        <g transform="matrix(2.00022,0,0,2.00022,-4916.78,-863.694)">
            <path d="M4924.91,741.054L4934.71,741.731L4941.35,739.412L4944.05,736.093L4935.11,727.469L4931.2,727.699L4921.29,737.905L4924.91,741.054Z" style="fill:rgb(235,219,177);fill-rule:nonzero;"/>
        </g>
        <g transform="matrix(2.00022,0,0,2.00022,-4916.78,-863.694)">
            <path d="M4910.59,781.759L4909.99,785.219L4918.18,785.975L4917.58,782.632L4910.59,781.759Z" style="fill:rgb(226,198,183);fill-rule:nonzero;"/>
        </g>
        <g transform="matrix(2.00022,0,0,2.00022,-4916.78,-863.694)">
            <path d="M4947.37,783.106L4946.97,785.997L4954.31,786.23L4954.53,782.953L4947.37,783.106Z" style="fill:rgb(226,198,183);fill-rule:nonzero;"/>
        </g>
        <g transform="matrix(2.00022,0,0,2.00022,-4916.78,-863.694)">
            <path d="M4944.17,736.093L4941.72,741.659L4934.75,743.557L4924.72,742.394L4921.29,737.905L4934.5,738.235L4944.17,736.093Z" style="fill:rgb(235,219,177);fill-rule:nonzero;"/>
        </g>
        <g transform="matrix(2.00022,0,0,2.00022,-4916.78,-863.694)">
            <path d="M4931.76,822.692L4929.55,838.289L4931.64,853.395L4931.76,822.692Z" style="fill:rgb(194,191,188);fill-rule:nonzero;"/>
        </g>
        <g transform="matrix(2.00022,0,0,2.00022,-4916.78,-863.694)">
            <path d="M4936.49,822.692L4938.7,838.289L4936.61,853.395L4936.49,822.692Z" style="fill:rgb(194,191,188);fill-rule:nonzero;"/>
        </g>
        <g transform="matrix(2.00022,0,0,2.00022,-4916.78,-863.694)">
            <path d="M4932.86,814.367L4931.62,815.655L4931.67,861.664L4933.05,863.5L4935.3,863.5L4936.63,861.43L4936.45,815.421L4935.07,814.367L4932.86,814.367Z" style="fill:rgb(41,43,41);fill-rule:nonzero;"/>
        </g>
        <g transform="matrix(2.00022,0,0,2.00022,-4916.78,-863.694)">
            <path d="M4939.82,837.086L4942.87,837.501L4941.05,804.988L4935.75,803.284L4931.85,803.314L4926.08,805.125L4924.89,837.875L4928.26,837.203L4929.78,807.477L4931.95,806.451L4935.89,806.481L4937.61,807.389L4939.82,837.086Z" style="fill:rgb(240,157,116);fill-rule:nonzero;"/>
        </g>
        <g transform="matrix(2.00022,0,0,2.00022,-4916.78,-863.694)">
            <path d="M4938.53,836.919L4943.12,837.552L4943.12,838.767L4938.57,839.757L4938.53,836.919Z" style="fill:rgb(91,93,94);fill-rule:nonzero;"/>
        </g>
        <g transform="matrix(2.00022,0,0,2.00022,-4916.78,-863.694)">
            <path d="M4929.82,836.919L4924.88,837.821L4924.88,839.003L4929.78,839.757L4929.82,836.919Z" style="fill:rgb(91,93,94);fill-rule:nonzero;"/>
        </g>
        <g transform="matrix(2.00022,0,0,2.00022,-4916.78,-863.694)">
            <path d="M4925.13,830.589L4913.2,832.191L4914.26,827.266L4925.37,826.334L4925.13,830.589Z" style="fill:rgb(55,56,55);fill-rule:nonzero;"/>
        </g>
        <g transform="matrix(2.00022,0,0,2.00022,-4916.78,-863.694)">
            <path d="M4942.48,829.884L4956.37,830.04L4955.75,825.976L4942.24,825.351L4942.48,829.884Z" style="fill:rgb(55,56,55);fill-rule:nonzero;"/>
        </g>
        <g transform="matrix(2.00022,0,0,2.00022,-4916.78,-863.694)">
            <g opacity="0.5">
                <path d="M4935.47,800.322L4931.97,796.791L4931.97,793.322L4935.37,793.385L4935.47,800.322Z" style="fill:rgb(23,24,23);fill-rule:nonzero;"/>
            </g>
        </g>
        <g transform="matrix(2.00022,0,0,2.00022,-4916.78,-863.694)">
            <path d="M4926.97,793.362L4940.98,793.371L4939.59,789.302L4928.56,789.263L4926.97,793.362Z" style="fill:rgb(193,159,62);fill-rule:nonzero;"/>
        </g>
        <g transform="matrix(2.00022,0,0,2.00022,-4916.78,-863.694)">
            <path d="M4931.2,806.001L4930.42,810.417L4937.2,810.417L4936.65,806.001L4931.2,806.001Z" style="fill:rgb(175,31,37);fill-rule:nonzero;"/>
        </g>
    </g>
</svg>
