<?xml version="1.0" encoding="UTF-8" standalone="no"?>
<!DOCTYPE svg PUBLIC "-//W3C//DTD SVG 1.1//EN" "http://www.w3.org/Graphics/SVG/1.1/DTD/svg11.dtd">
<svg width="100%" height="100%" viewBox="0 0 80 180" version="1.1" xmlns="http://www.w3.org/2000/svg" xmlns:xlink="http://www.w3.org/1999/xlink" xml:space="preserve" xmlns:serif="http://www.serif.com/" style="fill-rule:evenodd;clip-rule:evenodd;stroke-linejoin:round;stroke-miterlimit:2;">
    <g id="biker-02-inbound" transform="matrix(0.635,0,0,0.635,-3006.86,-368.322)">
        <g transform="matrix(2.00022,0,0,2.00022,-4916.63,-863.694)">
            <path d="M4848.85,751.789L4861.68,751.049L4855.68,760.837L4848.85,751.789Z" style="fill:rgb(206,171,151);fill-rule:nonzero;"/>
        </g>
        <g transform="matrix(2.00022,0,0,2.00022,-4916.63,-863.694)">
            <path d="M4849.39,830.589L4837.46,832.191L4838.51,827.266L4850.31,826.326L4849.39,830.589Z" style="fill:rgb(55,56,55);fill-rule:nonzero;"/>
        </g>
        <g transform="matrix(2.00022,0,0,2.00022,-4916.63,-863.694)">
            <path d="M4852.89,788.567L4860.13,788.625L4858.42,783.333L4853.35,782.704L4852.89,788.567Z" style="fill:rgb(193,159,62);fill-rule:nonzero;"/>
        </g>
        <g transform="matrix(2.00022,0,0,2.00022,-4916.63,-863.694)">
            <path d="M4856.22,783.848L4844.91,799.327L4844.4,823.5L4839.9,824.991L4838.33,797.681L4846.97,776.586L4856.67,777.118L4863.78,776.511L4868.32,788.166L4872.35,823.577L4868.4,824.563L4858.32,783.97L4856.22,783.848Z" style="fill:rgb(49,49,86);fill-rule:nonzero;"/>
        </g>
        <g transform="matrix(2.00022,0,0,2.00022,-4916.63,-863.694)">
            <path d="M4839.84,823.688L4839.4,833.188L4841.68,838.061L4844.18,837.905L4845.51,833.371L4844.4,823.001L4839.84,823.688Z" style="fill:rgb(174,32,37);fill-rule:nonzero;"/>
        </g>
        <g transform="matrix(2.00022,0,0,2.00022,-4916.63,-863.694)">
            <path d="M4854.52,822.692L4852.31,838.289L4854.4,853.395L4854.52,822.692Z" style="fill:rgb(194,191,188);fill-rule:nonzero;"/>
        </g>
        <g transform="matrix(2.00022,0,0,2.00022,-4916.63,-863.694)">
            <path d="M4859.25,822.692L4861.46,838.289L4859.37,853.395L4859.25,822.692Z" style="fill:rgb(194,191,188);fill-rule:nonzero;"/>
        </g>
        <g transform="matrix(2.00022,0,0,2.00022,-4916.63,-863.694)">
            <path d="M4854.79,815.626L4854.45,791.03L4858.39,791.039L4858.66,815.45L4854.79,815.626Z" style="fill:rgb(240,157,116);fill-rule:nonzero;"/>
        </g>
        <g transform="matrix(2.00022,0,0,2.00022,-4916.63,-863.694)">
            <path d="M4855.62,814.367L4854.38,815.655L4854.43,861.664L4855.8,863.5L4858.06,863.5L4859.39,861.43L4859.21,815.421L4857.83,814.367L4855.62,814.367Z" style="fill:rgb(41,43,41);fill-rule:nonzero;"/>
        </g>
        <g transform="matrix(2.00022,0,0,2.00022,-4916.63,-863.694)">
            <path d="M4846.96,776.624L4846.05,758.337L4837.25,767.162L4837.04,782.769L4833.15,781.861L4833.09,764.895L4845.48,752.113L4848.85,751.789L4855.68,760.837L4861.68,751.049L4864.73,751.208L4878.33,765.289L4878.93,783.253L4875.52,783.304L4874.84,767.013L4864.3,756.542L4863.78,776.458L4859.07,778.269L4846.96,776.624Z" style="fill:rgb(174,32,37);fill-rule:nonzero;"/>
        </g>
        <g transform="matrix(2.00022,0,0,2.00022,-4916.63,-863.694)">
            <g opacity="0.5">
                <path d="M4863.31,803.834L4867.71,785.501L4858.98,778.269L4846.96,776.539L4843.15,785.75L4844.96,799.375L4851.55,790.25L4854.51,791.125L4858.51,802.584L4858.51,790.958L4860.01,790.583L4863.31,803.834Z" style="fill:rgb(23,24,23);fill-rule:nonzero;"/>
            </g>
        </g>
        <g transform="matrix(2.00022,0,0,2.00022,-4916.63,-863.694)">
            <path d="M4854.61,791.108L4858.15,791.147L4866.66,788.255L4866.15,786.221L4858.06,788.528L4854.56,788.567L4846.59,786.418L4846.08,788.665L4854.61,791.108Z" style="fill:rgb(240,157,116);fill-rule:nonzero;"/>
        </g>
        <g transform="matrix(2.00022,0,0,2.00022,-4916.63,-863.694)">
            <path d="M4865.2,785.53L4865.48,789.907L4883.39,788.448L4882.65,783.196L4865.2,785.53Z" style="fill:rgb(206,173,128);fill-rule:nonzero;"/>
        </g>
        <g transform="matrix(2.00022,0,0,2.00022,-4916.63,-863.694)">
            <path d="M4847.37,785.969L4847.08,790.346L4829.18,788.887L4829.92,783.636L4847.37,785.969Z" style="fill:rgb(206,173,128);fill-rule:nonzero;"/>
        </g>
        <g transform="matrix(2.00022,0,0,2.00022,-4916.63,-863.694)">
            <path d="M4853.19,753.093L4857.15,753.093L4861.56,748.594L4860.65,735.899L4848.32,736.506L4848.43,748.188L4853.19,753.093Z" style="fill:rgb(226,198,183);fill-rule:nonzero;"/>
        </g>
        <g transform="matrix(2.00022,0,0,2.00022,-4916.63,-863.694)">
            <path d="M4832.79,783.603L4833.97,787.28L4839.91,788.763L4839.2,785.011L4841.24,785.168L4841.16,783.76L4833.11,781.96L4832.79,783.603Z" style="fill:rgb(226,198,183);fill-rule:nonzero;"/>
        </g>
        <g transform="matrix(2.00022,0,0,2.00022,-4916.63,-863.694)">
            <path d="M4879.15,785.792L4878.45,787.044L4872.51,788.528L4873.21,784.775L4871.18,784.934L4871.26,783.526L4879.46,782.587L4879.15,785.792Z" style="fill:rgb(226,198,183);fill-rule:nonzero;"/>
        </g>
        <g transform="matrix(2.00022,0,0,2.00022,-4916.63,-863.694)">
            <path d="M4862.99,829.884L4876.88,830.04L4876.26,825.976L4862.75,825.351L4862.99,829.884Z" style="fill:rgb(55,56,55);fill-rule:nonzero;"/>
        </g>
        <g transform="matrix(2.00022,0,0,2.00022,-4916.63,-863.694)">
            <path d="M4872.4,823.5L4875.28,832.375L4873.11,835.974L4870.18,836.209L4868.03,833.063L4868.15,823.875" style="fill:rgb(174,32,37);fill-rule:nonzero;"/>
        </g>
        <g transform="matrix(2.00022,0,0,2.00022,-4916.63,-863.694)">
            <path d="M4845.02,740.751L4842.96,747.454L4848.48,746.563L4848.43,742.125L4854.78,740.5L4854.46,738.813L4845.02,740.751Z" style="fill:rgb(84,62,54);fill-rule:nonzero;"/>
        </g>
        <g transform="matrix(2.00022,0,0,2.00022,-4916.63,-863.694)">
            <path d="M4854.05,739.091L4855.35,742.443L4861.13,743.856L4861.32,746.317L4867.19,745.671L4864.45,739.121L4855.62,738.79L4854.05,739.091Z" style="fill:rgb(84,62,54);fill-rule:nonzero;"/>
        </g>
        <g transform="matrix(2.00022,0,0,2.00022,-4916.63,-863.694)">
            <path d="M4860.93,741.335L4862.64,741.15L4862.84,744.632L4861.08,744.722L4860.93,741.335Z" style="fill:rgb(226,198,183);fill-rule:nonzero;"/>
        </g>
        <g transform="matrix(2.00022,0,0,2.00022,-4916.63,-863.694)">
            <path d="M4848.54,742.228L4846.63,742.073L4846.84,745.877L4848.57,745.968L4848.54,742.228Z" style="fill:rgb(226,198,183);fill-rule:nonzero;"/>
        </g>
        <g transform="matrix(2.00022,0,0,2.00022,-4916.63,-863.694)">
            <path d="M4846.38,740.585L4855.86,738.771L4862.52,738.971L4864.88,734.799L4857.76,727.75L4852.46,727.792L4842.82,737.491L4846.38,740.585Z" style="fill:rgb(224,206,168);fill-rule:nonzero;"/>
        </g>
        <g transform="matrix(2.00022,0,0,2.00022,-4916.63,-863.694)">
            <path d="M4846.38,740.585L4855.86,738.771L4862.92,739.047L4864.88,734.815L4854.3,734.572L4842.89,737.566L4846.38,740.585Z" style="fill:rgb(235,219,177);fill-rule:nonzero;"/>
        </g>
        <g transform="matrix(2.00022,0,0,2.00022,-4916.63,-863.694)">
            <path d="M4862.58,837.086L4865.63,837.501L4863.8,804.988L4858.51,803.284L4854.61,803.314L4848.84,805.125L4847.65,837.875L4851.02,837.203L4852.54,807.477L4854.71,806.451L4858.65,806.481L4860.37,807.389L4862.58,837.086Z" style="fill:rgb(240,157,116);fill-rule:nonzero;"/>
        </g>
        <g transform="matrix(2.00022,0,0,2.00022,-4916.63,-863.694)">
            <path d="M4861.29,836.919L4865.88,837.552L4865.88,838.767L4861.33,839.757L4861.29,836.919Z" style="fill:rgb(91,93,94);fill-rule:nonzero;"/>
        </g>
        <g transform="matrix(2.00022,0,0,2.00022,-4916.63,-863.694)">
            <path d="M4852.58,836.919L4847.63,837.821L4847.63,839.003L4852.54,839.757L4852.58,836.919Z" style="fill:rgb(91,93,94);fill-rule:nonzero;"/>
        </g>
        <g transform="matrix(2.00022,0,0,2.00022,-4916.63,-863.694)">
            <rect x="4873.96" y="778.499" width="0.25" height="0.125" style="fill:rgb(193,159,62);fill-rule:nonzero;"/>
        </g>
    </g>
</svg>
