<?xml version="1.0" encoding="UTF-8" standalone="no"?>
<!DOCTYPE svg PUBLIC "-//W3C//DTD SVG 1.1//EN" "http://www.w3.org/Graphics/SVG/1.1/DTD/svg11.dtd">
<svg width="100%" height="100%" viewBox="0 0 180 120" version="1.1" xmlns="http://www.w3.org/2000/svg" xmlns:xlink="http://www.w3.org/1999/xlink" xml:space="preserve" xmlns:serif="http://www.serif.com/" style="fill-rule:evenodd;clip-rule:evenodd;stroke-linejoin:round;stroke-miterlimit:2;">
    <g id="bike-rack-perpendicular-right" transform="matrix(0.635,0,0,0.635,-1.44,-261)">
        <g transform="matrix(1.99969,9.86076e-32,1.97215e-31,1.99969,7.7645,-623.809)">
            <path d="M37.155,570.728L39.06,573.124L27.234,585.012L24.568,583.006L37.155,570.728Z" style="fill:rgb(228,226,220);fill-rule:nonzero;"/>
        </g>
        <g transform="matrix(1.99969,9.86076e-32,1.97215e-31,1.99969,7.7645,-623.809)">
            <path d="M19.655,588.229L21.56,590.625L9.734,602.512L7.068,600.506L19.655,588.229Z" style="fill:rgb(228,226,220);fill-rule:nonzero;"/>
        </g>
        <g transform="matrix(1.99969,9.86076e-32,1.97215e-31,1.99969,7.7645,-623.809)">
            <path d="M10.974,570.728L9.069,573.124L20.895,585.012L23.561,583.006L10.974,570.728Z" style="fill:rgb(228,226,220);fill-rule:nonzero;"/>
        </g>
        <g transform="matrix(1.99969,9.86076e-32,1.97215e-31,1.99969,7.7645,-623.809)">
            <path d="M27.224,586.979L25.344,589.401L38.362,602.479L41.061,600.506L27.224,586.979Z" style="fill:rgb(228,226,220);fill-rule:nonzero;"/>
        </g>
        <g transform="matrix(1.99969,9.86076e-32,1.97215e-31,1.99969,7.7645,-623.809)">
            <path d="M3.945,588.602L4.293,585.56L21.06,585.517L21.527,588.821L3.945,588.602Z" style="fill:rgb(228,226,220);fill-rule:nonzero;"/>
        </g>
        <g transform="matrix(1.99969,9.86076e-32,1.97215e-31,1.99969,7.7645,-623.809)">
            <path d="M28.693,588.602L29.041,585.559L45.808,585.516L46.275,588.821L28.693,588.602Z" style="fill:rgb(228,226,220);fill-rule:nonzero;"/>
        </g>
        <g transform="matrix(1.99969,9.86076e-32,1.97215e-31,1.99969,7.7645,-623.809)">
            <path d="M22.459,607.864L25.5,607.503L25.543,590.019L22.24,589.533L22.459,607.864Z" style="fill:rgb(228,226,220);fill-rule:nonzero;"/>
        </g>
        <g transform="matrix(1.99969,9.86076e-32,1.97215e-31,1.99969,7.7645,-623.809)">
            <path d="M22.459,582.365L25.5,582.017L25.543,565.25L22.24,564.783L22.459,582.365Z" style="fill:rgb(228,226,220);fill-rule:nonzero;"/>
        </g>
        <g transform="matrix(1.99969,9.86076e-32,1.97215e-31,1.99969,7.7645,-623.809)">
            <path d="M24.629,607.37C13.583,607.37 4.629,598.416 4.629,587.37C4.629,576.324 13.583,567.37 24.629,567.37C35.675,567.37 44.629,576.324 44.629,587.37C44.629,598.416 35.675,607.37 24.629,607.37M24.629,562.742C11.026,562.742 -0,573.768 -0,587.371C-0,600.973 11.026,611.999 24.629,611.999C38.231,611.999 49.257,600.973 49.257,587.371C49.257,573.768 38.231,562.742 24.629,562.742" style="fill:rgb(55,56,55);fill-rule:nonzero;"/>
        </g>
        <g transform="matrix(1.99969,9.86076e-32,1.97215e-31,1.99969,7.7645,-623.809)">
            <path d="M58.714,584.538L91.008,545.912L93.603,548.13L61.522,586.396L58.714,584.538Z" style="fill:rgb(236,219,177);fill-rule:nonzero;"/>
        </g>
        <g transform="matrix(1.99969,9.86076e-32,1.97215e-31,1.99969,7.7645,-623.809)">
            <path d="M47.515,555.21L90.137,537.703L91.398,540.875L49.101,558.176L47.515,555.21Z" style="fill:rgb(236,219,177);fill-rule:nonzero;"/>
        </g>
        <g transform="matrix(1.99969,9.86076e-32,1.97215e-31,1.99969,7.7645,-623.809)">
            <path d="M87.036,536.728L95.804,532.871L97.077,536.037L88.356,539.8L87.036,536.728Z" style="fill:rgb(236,219,177);fill-rule:nonzero;"/>
        </g>
        <g transform="matrix(1.99969,9.86076e-32,1.97215e-31,1.99969,7.7645,-623.809)">
            <path d="M56.603,586.017L40.814,539.433L44.06,538.375L59.654,584.596L56.603,586.017Z" style="fill:rgb(236,219,177);fill-rule:nonzero;"/>
        </g>
        <g transform="matrix(1.99969,9.86076e-32,1.97215e-31,1.99969,7.7645,-623.809)">
            <path d="M33.446,537.741L34.025,541.743L49.651,541.742L54.279,537.741L33.446,537.741Z" style="fill:rgb(192,158,62);fill-rule:nonzero;"/>
        </g>
        <g transform="matrix(1.99969,9.86076e-32,1.97215e-31,1.99969,7.7645,-623.809)">
            <path d="M60.419,579.514L60.94,581.078L66.194,581.154L64.841,582.917L68.988,585.587L67.425,586.991L68.02,592.407L65.896,592.219L63.027,595.795L61.425,594.044L56.656,595.274L56.284,593.336L52.67,590.914L54.532,589.797L53.154,586.332L55.054,585.401L55.24,582.084L57.066,582.308L60.419,579.514Z" style="fill:rgb(55,56,55);fill-rule:nonzero;"/>
        </g>
        <g transform="matrix(1.99969,9.86076e-32,1.97215e-31,1.99969,7.7645,-623.809)">
            <g opacity="0.5">
                <path d="M95.804,532.87L96.546,536.326L91.296,538.576L86.82,536.566L95.804,532.87Z" style="fill:rgb(23,24,23);fill-rule:nonzero;"/>
            </g>
        </g>
        <g transform="matrix(1.99969,9.86076e-32,1.97215e-31,1.99969,7.7645,-623.809)">
            <path d="M99.19,537.41L95.859,537.493L94.441,532.076L100.774,531.993L99.19,537.41Z" style="fill:rgb(206,173,128);fill-rule:nonzero;"/>
        </g>
        <g transform="matrix(1.99969,9.86076e-32,1.97215e-31,1.99969,7.7645,-623.809)">
            <path d="M124.155,570.728L126.06,573.124L114.234,585.012L111.568,583.006L124.155,570.728Z" style="fill:rgb(228,226,220);fill-rule:nonzero;"/>
        </g>
        <g transform="matrix(1.99969,9.86076e-32,1.97215e-31,1.99969,7.7645,-623.809)">
            <path d="M106.655,588.229L108.56,590.625L96.734,602.512L94.068,600.506L106.655,588.229Z" style="fill:rgb(228,226,220);fill-rule:nonzero;"/>
        </g>
        <g transform="matrix(1.99969,9.86076e-32,1.97215e-31,1.99969,7.7645,-623.809)">
            <path d="M97.974,570.728L96.069,573.124L107.895,585.012L110.561,583.006L97.974,570.728Z" style="fill:rgb(228,226,220);fill-rule:nonzero;"/>
        </g>
        <g transform="matrix(1.99969,9.86076e-32,1.97215e-31,1.99969,7.7645,-623.809)">
            <path d="M114.224,586.979L112.344,589.401L125.362,602.479L128.061,600.506L114.224,586.979Z" style="fill:rgb(228,226,220);fill-rule:nonzero;"/>
        </g>
        <g transform="matrix(1.99969,9.86076e-32,1.97215e-31,1.99969,7.7645,-623.809)">
            <path d="M90.945,588.602L91.293,585.56L108.06,585.517L108.527,588.821L90.945,588.602Z" style="fill:rgb(228,226,220);fill-rule:nonzero;"/>
        </g>
        <g transform="matrix(1.99969,9.86076e-32,1.97215e-31,1.99969,7.7645,-623.809)">
            <path d="M115.693,588.602L116.041,585.559L132.808,585.516L133.275,588.821L115.693,588.602Z" style="fill:rgb(228,226,220);fill-rule:nonzero;"/>
        </g>
        <g transform="matrix(1.99969,9.86076e-32,1.97215e-31,1.99969,7.7645,-623.809)">
            <path d="M109.459,607.864L112.5,607.503L112.543,590.019L109.24,589.533L109.459,607.864Z" style="fill:rgb(228,226,220);fill-rule:nonzero;"/>
        </g>
        <g transform="matrix(1.99969,9.86076e-32,1.97215e-31,1.99969,7.7645,-623.809)">
            <path d="M109.459,582.365L112.5,582.017L112.543,565.25L109.24,564.783L109.459,582.365Z" style="fill:rgb(228,226,220);fill-rule:nonzero;"/>
        </g>
        <g transform="matrix(1.99969,9.86076e-32,1.97215e-31,1.99969,7.7645,-623.809)">
            <path d="M23.106,579.327L18.106,586.077L23.481,594.077L31.606,587.077L23.106,579.327Z" style="fill:rgb(55,56,55);fill-rule:nonzero;"/>
        </g>
        <g transform="matrix(1.99969,9.86076e-32,1.97215e-31,1.99969,7.7645,-623.809)">
            <path d="M112.358,579.701L103.441,585.909L108.816,593.909L116.941,586.909L112.358,579.701Z" style="fill:rgb(55,56,55);fill-rule:nonzero;"/>
        </g>
        <g transform="matrix(1.99969,9.86076e-32,1.97215e-31,1.99969,7.7645,-623.809)">
            <path d="M23.91,585.615L48.366,557.986L50.894,560.279L26.589,587.636L23.91,585.615Z" style="fill:rgb(236,219,177);fill-rule:nonzero;"/>
        </g>
        <g transform="matrix(1.99969,9.86076e-32,1.97215e-31,1.99969,7.7645,-623.809)">
            <path d="M111.629,607.37C100.583,607.37 91.629,598.416 91.629,587.37C91.629,576.324 100.583,567.37 111.629,567.37C122.675,567.37 131.629,576.324 131.629,587.37C131.629,598.416 122.675,607.37 111.629,607.37M111.629,562.742C98.026,562.742 87,573.768 87,587.371C87,600.973 98.026,611.999 111.629,611.999C125.231,611.999 136.257,600.973 136.257,587.371C136.257,573.768 125.231,562.742 111.629,562.742" style="fill:rgb(55,56,55);fill-rule:nonzero;"/>
        </g>
        <g transform="matrix(1.99969,9.86076e-32,1.97215e-31,1.99969,7.7645,-623.809)">
            <path d="M107.907,586.932L86.819,536.567L89.985,535.286L110.833,585.26L107.907,586.932Z" style="fill:rgb(236,219,177);fill-rule:nonzero;"/>
        </g>
        <g transform="matrix(1.99969,9.86076e-32,1.97215e-31,1.99969,7.7645,-623.809)">
            <path d="M62.866,588.464L63.351,591.474L73.405,590.595L73.385,587.28L62.866,588.464Z" style="fill:rgb(228,226,220);fill-rule:nonzero;"/>
        </g>
        <g transform="matrix(1.99969,9.86076e-32,1.97215e-31,1.99969,7.7645,-623.809)">
            <path d="M73.486,585.076L72.819,590.742L83.99,590.242L85.323,583.909L73.486,585.076Z" style="fill:rgb(55,56,55);fill-rule:nonzero;"/>
        </g>
        <g transform="matrix(1.99969,9.86076e-32,1.97215e-31,1.99969,7.7645,-623.809)">
            <g opacity="0.5">
                <path d="M45.234,541.743L47.358,558.576L41.609,541.66L45.234,541.743Z" style="fill:rgb(23,24,23);fill-rule:nonzero;"/>
            </g>
        </g>
        <g transform="matrix(1.99969,9.86076e-32,1.97215e-31,1.99969,7.7645,-623.809)">
            <path d="M107.863,612L107.862,547.576L102.008,547.598L37.861,612L45.317,612L93.208,564.107L102.443,554.742L102.695,611.999L107.863,612Z" style="fill:rgb(124,112,91);fill-rule:nonzero;"/>
        </g>
    </g>
</svg>
