<?xml version="1.0" encoding="UTF-8" standalone="no"?>
<!DOCTYPE svg PUBLIC "-//W3C//DTD SVG 1.1//EN" "http://www.w3.org/Graphics/SVG/1.1/DTD/svg11.dtd">
<svg width="100%" height="100%" viewBox="0 0 80 180" version="1.1" xmlns="http://www.w3.org/2000/svg" xmlns:xlink="http://www.w3.org/1999/xlink" xml:space="preserve" xmlns:serif="http://www.serif.com/" style="fill-rule:evenodd;clip-rule:evenodd;stroke-linejoin:round;stroke-miterlimit:2;">
    <g id="biker-01-outbound" transform="matrix(0.635,0,0,0.635,-2874.58,-368.322)">
        <g transform="matrix(2.00022,0,0,2.00022,-4384.39,-863.694)">
            <path d="M4484.76,816.084L4484.46,793.304L4487.87,793.313L4488.1,815.904L4484.76,816.084Z" style="fill:rgb(236,219,178);fill-rule:nonzero;"/>
        </g>
        <g transform="matrix(2.00022,0,0,2.00022,-4384.39,-863.694)">
            <path d="M4471.7,822.688L4471.27,832.188L4473.55,837.061L4476.05,836.905L4477.37,832.371L4476.27,822.001L4471.7,822.688Z" style="fill:rgb(219,218,215);fill-rule:nonzero;"/>
        </g>
        <g transform="matrix(2.00022,0,0,2.00022,-4384.39,-863.694)">
            <path d="M4502.39,823.5L4505.27,832.375L4503.1,835.974L4500.17,836.209L4498.02,833.063L4498.14,823.875" style="fill:rgb(219,218,215);fill-rule:nonzero;"/>
        </g>
        <g transform="matrix(2.00022,0,0,2.00022,-4384.39,-863.694)">
            <path d="M4484.6,789.814L4487.66,789.853L4495.03,786.91L4494.59,784.839L4487.59,787.189L4484.56,787.228L4477.66,785.04L4477.22,787.329L4484.6,789.814Z" style="fill:rgb(232,205,119);fill-rule:nonzero;"/>
        </g>
        <g transform="matrix(2.00022,0,0,2.00022,-4384.39,-863.694)">
            <path d="M4495.87,785.214L4496.11,789.666L4511.61,788.185L4510.96,782.838L4495.87,785.214Z" style="fill:rgb(206,173,128);fill-rule:nonzero;"/>
        </g>
        <g transform="matrix(2.00022,0,0,2.00022,-4384.39,-863.694)">
            <path d="M4475.68,784.491L4475.44,788.946L4459.94,787.462L4460.59,782.115L4475.68,784.491Z" style="fill:rgb(206,173,128);fill-rule:nonzero;"/>
        </g>
        <g transform="matrix(2.00022,0,0,2.00022,-4384.39,-863.694)">
            <path d="M4485,791.209L4477.2,798.966L4476.05,822.36L4471.83,822.875L4471.33,795.812L4476.96,776.922L4491.05,774.406L4493.59,776.844L4500.05,789.653L4502.45,823.625L4498.2,823.813L4493.69,796.297L4488.61,790.859L4485,791.209Z" style="fill:rgb(91,93,94);fill-rule:nonzero;"/>
        </g>
        <g transform="matrix(2.00022,0,0,2.00022,-4384.39,-863.694)">
            <path d="M4477.04,776.962L4476.04,759.087L4468.71,767.003L4469.21,783.255L4465.99,783.171L4465.37,765.253L4475.12,754.337L4482.05,752.998L4488.14,752.71L4494.96,753.42L4504.54,763.336L4504.12,783.588L4501.23,783.11L4501.12,764.837L4494.04,757.503L4493.64,777L4491.02,774.406L4477.04,776.962Z" style="fill:rgb(229,226,220);fill-rule:nonzero;"/>
        </g>
        <g transform="matrix(2.00022,0,0,2.00022,-4384.39,-863.694)">
            <path d="M4482.01,753.119L4488.79,752.834L4491.92,749.873L4491.14,737.947L4484.66,738.267L4478.6,738.566L4478.75,749.873L4482.01,753.119Z" style="fill:rgb(114,89,75);fill-rule:nonzero;"/>
        </g>
        <g transform="matrix(2.00022,0,0,2.00022,-4384.39,-863.694)">
            <g opacity="0.5">
                <path d="M4484.89,791.23L4490.75,793.157L4493.71,796.282L4495.64,808.003L4501.79,814.168L4500.02,789.667L4486.45,780.708L4471.37,795.834L4477.23,798.959L4484.89,791.23Z" style="fill:rgb(23,24,23);fill-rule:nonzero;"/>
            </g>
        </g>
        <g transform="matrix(2.00022,0,0,2.00022,-4384.39,-863.694)">
            <path d="M4478.7,740.47L4476.7,742L4475.2,745.125L4483.25,750.588L4487.17,750.381L4496.9,746.327L4494.33,741.875L4491.3,739.128L4478.7,740.47Z" style="fill:rgb(41,43,41);fill-rule:nonzero;"/>
        </g>
        <g transform="matrix(2.00022,0,0,2.00022,-4384.39,-863.694)">
            <path d="M4477.41,741.054L4487.21,741.731L4493.85,739.412L4496.55,736.093L4487.61,727.469L4483.7,727.699L4473.79,737.905L4477.41,741.054Z" style="fill:rgb(102,156,70);fill-rule:nonzero;"/>
        </g>
        <g transform="matrix(2.00022,0,0,2.00022,-4384.39,-863.694)">
            <path d="M4463.09,781.759L4462.49,785.219L4470.68,785.975L4470.08,782.632L4463.09,781.759Z" style="fill:rgb(114,89,75);fill-rule:nonzero;"/>
        </g>
        <g transform="matrix(2.00022,0,0,2.00022,-4384.39,-863.694)">
            <path d="M4499.87,783.106L4499.47,785.997L4506.81,786.23L4507.03,782.953L4499.87,783.106Z" style="fill:rgb(114,89,75);fill-rule:nonzero;"/>
        </g>
        <g transform="matrix(2.00022,0,0,2.00022,-4384.39,-863.694)">
            <path d="M4496.67,736.093L4494.22,741.659L4487.25,743.557L4477.22,742.394L4473.79,737.905L4487,738.235L4496.67,736.093Z" style="fill:rgb(54,130,63);fill-rule:nonzero;"/>
        </g>
        <g transform="matrix(2.00022,0,0,2.00022,-4384.39,-863.694)">
            <path d="M4484.26,822.692L4482.05,838.289L4484.14,853.395L4484.26,822.692Z" style="fill:rgb(194,191,188);fill-rule:nonzero;"/>
        </g>
        <g transform="matrix(2.00022,0,0,2.00022,-4384.39,-863.694)">
            <path d="M4488.99,822.692L4491.2,838.289L4489.11,853.395L4488.99,822.692Z" style="fill:rgb(194,191,188);fill-rule:nonzero;"/>
        </g>
        <g transform="matrix(2.00022,0,0,2.00022,-4384.39,-863.694)">
            <path d="M4485.36,814.367L4484.12,815.655L4484.17,861.664L4485.55,863.5L4487.8,863.5L4489.13,861.43L4488.95,815.421L4487.57,814.367L4485.36,814.367Z" style="fill:rgb(41,43,41);fill-rule:nonzero;"/>
        </g>
        <g transform="matrix(2.00022,0,0,2.00022,-4384.39,-863.694)">
            <path d="M4492.32,837.086L4495.37,837.501L4493.55,804.988L4488.25,803.284L4484.35,803.314L4478.58,805.125L4477.39,837.875L4480.76,837.203L4482.28,807.477L4484.45,806.451L4488.39,806.481L4490.11,807.389L4492.32,837.086Z" style="fill:rgb(236,219,178);fill-rule:nonzero;"/>
        </g>
        <g transform="matrix(2.00022,0,0,2.00022,-4384.39,-863.694)">
            <path d="M4491.03,836.919L4495.62,837.552L4495.62,838.767L4491.07,839.757L4491.03,836.919Z" style="fill:rgb(91,93,94);fill-rule:nonzero;"/>
        </g>
        <g transform="matrix(2.00022,0,0,2.00022,-4384.39,-863.694)">
            <path d="M4482.32,836.919L4477.38,837.821L4477.38,839.003L4482.28,839.757L4482.32,836.919Z" style="fill:rgb(91,93,94);fill-rule:nonzero;"/>
        </g>
        <g transform="matrix(2.00022,0,0,2.00022,-4384.39,-863.694)">
            <path d="M4477.63,830.589L4465.7,832.191L4466.76,827.266L4477.87,826.334L4477.63,830.589Z" style="fill:rgb(55,56,55);fill-rule:nonzero;"/>
        </g>
        <g transform="matrix(2.00022,0,0,2.00022,-4384.39,-863.694)">
            <path d="M4494.98,829.884L4508.87,830.04L4508.25,825.976L4494.74,825.351L4494.98,829.884Z" style="fill:rgb(55,56,55);fill-rule:nonzero;"/>
        </g>
        <g transform="matrix(2.00022,0,0,2.00022,-4384.39,-863.694)">
            <g opacity="0.5">
                <path d="M4487.97,800.322L4484.47,796.791L4484.47,793.322L4487.87,793.385L4487.97,800.322Z" style="fill:rgb(23,24,23);fill-rule:nonzero;"/>
            </g>
        </g>
        <g transform="matrix(2.00022,0,0,2.00022,-4384.39,-863.694)">
            <path d="M4479.47,793.362L4493.48,793.371L4492.09,789.302L4481.06,789.263L4479.47,793.362Z" style="fill:rgb(193,159,62);fill-rule:nonzero;"/>
        </g>
        <g transform="matrix(2.00022,0,0,2.00022,-4384.39,-863.694)">
            <path d="M4483.7,806.001L4482.92,810.417L4489.7,810.417L4489.15,806.001L4483.7,806.001Z" style="fill:rgb(175,31,37);fill-rule:nonzero;"/>
        </g>
    </g>
</svg>
