<?xml version="1.0" encoding="UTF-8" standalone="no"?>
<!DOCTYPE svg PUBLIC "-//W3C//DTD SVG 1.1//EN" "http://www.w3.org/Graphics/SVG/1.1/DTD/svg11.dtd">
<svg width="100%" height="100%" viewBox="0 0 80 120" version="1.1" xmlns="http://www.w3.org/2000/svg" xmlns:xlink="http://www.w3.org/1999/xlink" xml:space="preserve" xmlns:serif="http://www.serif.com/" style="fill-rule:evenodd;clip-rule:evenodd;stroke-linejoin:round;stroke-miterlimit:2;">
    <g id="bike-rack-parallel-left" transform="matrix(-0.635,0,0,0.635,85.72,-261)">
        <g transform="matrix(1.99839,9.86076e-32,1.97215e-31,1.99839,-1023.55,-623.012)">
            <path d="M547.625,531.874L551.45,532.471L561.105,530.679L560.873,528.398L551.762,529.624L547.975,529.119L539.686,525.543L538.787,527.894L547.625,531.874Z" style="fill:rgb(55,100,134);fill-rule:nonzero;"/>
        </g>
        <g transform="matrix(1.99839,9.86076e-32,1.97215e-31,1.99839,-1023.55,-623.012)">
            <path d="M543.982,560.025L547.23,535.343L550.92,535.888L547.627,560.354L543.982,560.025Z" style="fill:rgb(55,100,134);fill-rule:nonzero;"/>
        </g>
        <g transform="matrix(1.99839,9.86076e-32,1.97215e-31,1.99839,-1023.55,-623.012)">
            <path d="M560.994,527.303L560.562,532.157L577.549,532.985L577.691,527.102L560.994,527.303Z" style="fill:rgb(85,63,55);fill-rule:nonzero;"/>
        </g>
        <g transform="matrix(1.99839,9.86076e-32,1.97215e-31,1.99839,-1023.55,-623.012)">
            <path d="M540.204,524.595L539.237,529.373L522.72,525.34L524.25,519.658L540.204,524.595Z" style="fill:rgb(85,63,55);fill-rule:nonzero;"/>
        </g>
        <g transform="matrix(1.99839,9.86076e-32,1.97215e-31,1.99839,-1023.55,-623.012)">
            <path d="M542.405,567.092L537.573,583.613L537.466,600.277L542.405,567.092Z" style="fill:rgb(192,189,186);fill-rule:nonzero;"/>
        </g>
        <g transform="matrix(1.99839,9.86076e-32,1.97215e-31,1.99839,-1023.55,-623.012)">
            <path d="M547.527,567.835L547.467,585.047L542.838,601.055L547.527,567.835Z" style="fill:rgb(192,189,186);fill-rule:nonzero;"/>
        </g>
        <g transform="matrix(1.99839,9.86076e-32,1.97215e-31,1.99839,-1023.55,-623.012)">
            <path d="M536.195,609.22L537.4,611.423L539.836,611.777L541.602,609.746L548.62,559.967L547.291,558.608L544.906,558.262L543.359,559.462L536.195,609.22Z" style="fill:rgb(42,43,42);fill-rule:nonzero;"/>
        </g>
        <g transform="matrix(1.99839,9.86076e-32,1.97215e-31,1.99839,-1023.55,-623.012)">
            <path d="M548.864,583.921L552.103,584.85L555.224,549.404L549.764,546.731L545.545,546.151L539.021,547.206L532.601,582.434L536.35,582.236L542.654,550.328L545.165,549.561L549.413,550.209L551.133,551.461L548.864,583.921Z" style="fill:rgb(55,100,134);fill-rule:nonzero;"/>
        </g>
        <g transform="matrix(1.99839,9.86076e-32,1.97215e-31,1.99839,-1023.55,-623.012)">
            <path d="M547.504,583.539L552.359,584.942L552.168,586.256L547.098,586.614L547.504,583.539Z" style="fill:rgb(92,95,96);fill-rule:nonzero;"/>
        </g>
        <g transform="matrix(1.99839,9.86076e-32,1.97215e-31,1.99839,-1023.55,-623.012)">
            <path d="M538.08,582.173L532.592,582.373L532.404,583.651L537.596,585.236L538.08,582.173Z" style="fill:rgb(92,95,96);fill-rule:nonzero;"/>
        </g>
        <g transform="matrix(1.99839,9.86076e-32,1.97215e-31,1.99839,-1023.55,-623.012)">
            <path d="M531.895,589.107L518.744,588.967L520.658,583.808L532.824,584.544L531.895,589.107Z" style="fill:rgb(55,56,55);fill-rule:nonzero;"/>
        </g>
        <g transform="matrix(1.99839,9.86076e-32,1.97215e-31,1.99839,-1023.55,-623.012)">
            <path d="M552.872,576.551L567.871,578.899L567.835,574.405L553.326,571.612L552.872,576.551Z" style="fill:rgb(55,56,55);fill-rule:nonzero;"/>
        </g>
        <g transform="matrix(1.99839,9.86076e-32,1.97215e-31,1.99839,-1023.55,-623.012)">
            <g opacity="0.5">
                <path d="M549.924,543.483L546.694,539.117L547.237,535.365L550.909,535.966L549.924,543.483Z" style="fill:rgb(23,24,23);fill-rule:nonzero;"/>
            </g>
        </g>
        <g transform="matrix(1.99839,9.86076e-32,1.97215e-31,1.99839,-1023.55,-623.012)">
            <path d="M541.825,534.624L556.972,536.831L556.105,532.213L544.187,530.441L541.825,534.624Z" style="fill:rgb(190,156,60);fill-rule:nonzero;"/>
        </g>
        <g transform="matrix(1.99839,9.86076e-32,1.97215e-31,1.99839,-1023.55,-623.012)">
            <path d="M541.825,534.624L556.972,536.831L556.105,532.213L544.187,530.441L541.825,534.624Z" style="fill:rgb(85,63,55);fill-rule:nonzero;"/>
        </g>
        <g transform="matrix(1.99839,9.86076e-32,1.97215e-31,1.99839,-1023.55,-623.012)">
            <path d="M544.424,548.956L542.883,553.608L550.22,554.673L550.319,549.81L544.424,548.956Z" style="fill:rgb(173,33,37);fill-rule:nonzero;"/>
        </g>
        <g transform="matrix(1.99839,9.86076e-32,1.97215e-31,1.99839,-1023.55,-623.012)">
            <path d="M555.658,612L555.662,541.605L562.058,541.628L561.306,611.999L555.658,612Z" style="fill:rgb(124,112,92);fill-rule:nonzero;"/>
        </g>
        <g transform="matrix(1.99839,9.86076e-32,1.97215e-31,1.99839,-1023.55,-623.012)">
            <path d="M555.662,554.053L554.81,554.231L554.625,556.326L555.662,556.129L555.662,554.053Z" style="fill:rgb(55,56,55);fill-rule:nonzero;"/>
        </g>
        <g transform="matrix(1.99839,9.86076e-32,1.97215e-31,1.99839,-1023.55,-623.012)">
            <path d="M550.876,555.172L549.548,555.728L548.779,558.779L549.406,561.784L551.23,564.334L566.925,561.697L566.4,559.753L552.041,562.331L550.941,560.686L550.631,558.644L550.754,557.185L550.876,555.172Z" style="fill:rgb(55,56,55);fill-rule:nonzero;"/>
        </g>
        <g transform="matrix(1.99839,9.86076e-32,1.97215e-31,1.99839,-1023.55,-623.012)">
            <path d="M561.918,554.771L561.941,552.575L565.669,551.858L566.033,554.053L561.918,554.771Z" style="fill:rgb(55,56,55);fill-rule:nonzero;"/>
        </g>
        <g transform="matrix(1.99839,9.86076e-32,1.97215e-31,1.99839,-1023.55,-623.012)">
            <path d="M566.4,554.109L565.955,551.449L562.939,552.111L563.435,554.796L566.4,554.109Z" style="fill:rgb(55,56,55);fill-rule:nonzero;"/>
        </g>
        <g transform="matrix(1.99839,9.86076e-32,1.97215e-31,1.99839,-1023.55,-623.012)">
            <path d="M567.731,562.03L567.266,559.266L564.335,559.657L564.863,562.512L567.731,562.03Z" style="fill:rgb(55,56,55);fill-rule:nonzero;"/>
        </g>
        <g transform="matrix(1.99839,9.86076e-32,1.97215e-31,1.99839,-1023.55,-623.012)">
            <path d="M531.895,589.107L535.242,589.107L535.814,584.691L532.92,583.808L531.895,589.107Z" style="fill:rgb(55,56,55);fill-rule:nonzero;"/>
        </g>
        <g transform="matrix(1.99839,9.86076e-32,1.97215e-31,1.99839,-1023.55,-623.012)">
            <path d="M563.435,554.796L566.401,554.109L567.266,559.267L564.334,559.657L563.435,554.796Z" style="fill:rgb(253,230,119);fill-rule:nonzero;"/>
        </g>
    </g>
</svg>
