<svg xmlns='http://www.w3.org/2000/svg' xmlns:xlink='http://www.w3.org/1999/xlink' width='0' height='0' style='position:absolute'><symbol id='icon-asphalt' viewBox='0 0 48 48'><g><path d="M3.04 3.04h42v42h-42z"/><path d="M45.04 45.04h-42l42-42v42z" fill="#fff" fill-opacity=".25"/></g></symbol><symbol id='icon-bollard' viewBox='0 0 48 48'><path d="M21.048 10.638L20.516 48h7.065l-.532-37.38-1.324-2.313-3.35-.035zm2.473 8.302l2.545-5 .994-.165.066 4.747-3.078.503zm-2.55-.418l.067-4.747 2.884.48-2.194 4.39z"/></symbol><symbol id='icon-buffer' viewBox='0 0 48 48'><g><path d="M4 4.003h6V44H4zM38 4.003h6V44h-6zM10 6v8l28 28v-8L10 6zM20.002 4.003L38 22v-8l-9.998-9.997h-8zM28 44L10 26v8l10 10h8z"/></g></symbol><symbol id='icon-building-thin' viewBox='0 0 48 48'><g><path d="M24 34v-8l-6 8h6zM24 0h9v48h-9z"/></g></symbol><symbol id='icon-building-wide' viewBox='0 0 48 48'><g><path d="M16 26l-6 8h6v-8zM16 0h30v48H16z"/></g></symbol><symbol id='icon-bush' viewBox='0 0 48 48'><path d="M48 48H0l-.013-8.747 1.885 1.31.698-1.965 2.166.492.698-1.965 4.033 1.598.838.164 5.677-1.254-1.37-2.108-.966-.43-4.226 1.506 3.558-3.59-1.276-1.964-4.933.782 5.4-3.25 1.74 2.03 1.463.123-.29-2.867 2.59-.635L15.9 25.03l-4.02-.577 4.32-2.446 3.85 4.64 2.014-.494-.985-4.554-1.956-1.798 3.573.178.964 3.855 1.58-1.372.717 2.3 6.39 2.778 3.524-3.73 5.004 3.553-4.613-1-2.102 5.476 3.72-1.266 5.32 3.794-5.788-1.505-4.19 1.422-1.183 3.078 1.053 2.22c1.32-.24 2.234-.408 2.234-.408l2.305-2.05 5.236 2.54L48 40.813V48z"/></symbol><symbol id='icon-car' viewBox='0 0 48 48'><path d="M13.915 25.546l2.098-4.214 16.05-.043 2.44 4.27zm-4.907 5.3l5.18-.01L14 33.77l-4.858.006.306 6.454h.014L9.747 44l3.432-.008.043-.245.953-3.503 19.28.058.97 3.566.022.124h3.433l.503-3.677h-.055l.458-6.548-4.873.003-.186-2.933 5.257.008.016-.135L32.694 20H15.418"/></symbol><symbol id='icon-direction-both' viewBox='0 0 48 48'><path d="M47.197 24.007L33.18 13.404l.002 7.556H14.817v-7.556L.805 24.007l14.014 10.59v-7.583h18.364v7.582z"/></symbol><symbol id='icon-direction-inbound' viewBox='0 0 48 48'><path d="M29.052 28.677l-3.128-11.574h-3.867L18.93 28.677H7.412L24 39.264l16.587-10.587z"/></symbol><symbol id='icon-direction-left' viewBox='0 0 48 48'><path d="M20.57 34.596L6.553 24.006 20.57 13.405v7.554h20.876v6.053H20.57z"/></symbol><symbol id='icon-direction-outbound' viewBox='0 0 48 48'><path d="M40.587 27.26L24 16.676 7.412 27.26h11.545l-3.062 11.334h15.867L28.7 27.26z"/></symbol><symbol id='icon-direction-right' viewBox='0 0 48 48'><path d="M27.44 34.596l14.016-10.59L27.44 13.405v7.554H6.565v6.053H27.44z"/></symbol><symbol id='icon-dome' viewBox='0 0 48 48'><path d="M31.645 44.536h-1.628L27.507 40l-6.917.015-2.517 4.536-1.622.002L15.048 48h18z"/></symbol><symbol id='icon-elevation-higher' viewBox='0 0 48 48'><g><path d="M0 28h48v20H0zM36 20L24 6 12 20z"/></g></symbol><symbol id='icon-elevation-lower' viewBox='0 0 48 48'><g><path d="M0 42h48v6H0zM36 22L24 36 12 22h24z"/></g></symbol><symbol id='icon-facebook' viewBox='0 0 48 48'><g><path d="M32.897 48h-8.69V30.787h-5.75V23.29h5.75v-3.755c0-5.794 4.275-10.326 9.733-10.326h5.297v8.46H34.5c-1.24 0-1.603.715-1.603 1.697v3.924h6.34v7.497h-6.34V48z" fill="#fff"/><path d="M42 0H6C2.7 0 0 2.696 0 6v36c0 3.3 2.7 6 6 6h18.207V30.787h-5.75V23.29h5.75v-3.755c0-5.794 4.275-10.326 9.733-10.326h5.297v8.46H34.5c-1.24 0-1.603.715-1.603 1.697v3.924h6.34v7.497h-6.34V48H42c3.3 0 6-2.7 6-6V6c0-3.304-2.7-6-6-6z" fill="#3b579d"/></g></symbol><symbol id='icon-fence' viewBox='0 0 48 48'><g><path d="M25.5 42.992l5.036 5.01h1.418L25.5 41.597v1.394zm16.74-1.317L35.886 48H34.38l7.117-7.067-8.222-8.195-7.775 7.738V38.94l7.016-6.96L25.5 24.99v-1.39l7.722 7.683 8.216-8.15-8.208-8.17-7.73 7.658V21.08l6.99-6.856-.226-.224H34.2l-.267.264 8.222 8.154L48 16.62v1.462l-5.1 5.075 5.1 5.057v1.447l-5.817-5.788-8.203 8.163 8.232 8.188L48 34.473v1.467l-5.045 5.023L48 45.98v1.436l-5.76-5.74zM22.5 42.992l-5.035 5.01h-1.418l6.453-6.404v1.394zM5.76 41.675L12.115 48h1.506l-7.116-7.067 8.22-8.195 7.776 7.738V38.94l-7.015-6.96L22.5 24.99v-1.39l-7.72 7.683-8.217-8.15 8.208-8.17 7.73 7.658V21.08l-6.99-6.856.227-.224H13.8l.267.264-8.222 8.154L0 16.62v1.462l5.1 5.075L0 28.214v1.447l5.818-5.788 8.202 8.163-8.23 8.188L0 34.473v1.467l5.045 5.023L0 45.98v1.436l5.76-5.74zM42.097 6.07L38.117 10h-1.536l4.77-4.676-2.12-2.112h1.43l1.412 1.405 1.433-1.405h1.483l-2.17 2.146L47.48 10h-1.437l-3.946-3.93zM6.297 6.07L2.317 10H.782l4.77-4.676-2.12-2.112h1.43l1.412 1.405 1.433-1.405h1.483L7.016 5.358 11.68 10h-1.438L6.297 6.07zM23.97 7.77L22.036 10H20.42l2.724-3.047-3.065-3.027v-.714h.688l3.045 2.993 2.676-2.993h1.43l-3.29 3.796L27.675 10h-1.447L23.97 7.77zM0 10h48v4H0zM22.5 48V14h3v34h-3z"/></g></symbol><symbol id='icon-flowers' viewBox='0 0 48 48'><path d="M33.453 39.462c.954-.173 1.572-.287 1.572-.287l2.304-2.05 5.237 2.54L48 40.813V48H0v-8.747l1.572 1.31.698-1.965 2.166.492.698-1.965 4.034 1.598.838.164 2.415-.534-2.44-11.288-1.956-1.798 3.572.178 1.41 5.646.543-8.52.433-.043-3.562-.012-1.875-5.64 11.215-.022-1.826 5.687-2.956-.01.013 3.98 4.526-1.92.982 2.853-1.924-.897-3.578 1.647.03 9.585 2.96-.653s3.783 3.023 4.886 3.825l.708-6.277-3.11-.01-1.875-5.64L29.81 29l-1.826 5.688-3.01-.01.18 6.223c1.567-.244 3.795-.632 5.738-.977l.813-10.828-6.355-2.926-1.926.895.983-2.854 7.42 3.24.168-2.227-2.974-.01-1.875-5.64 11.216-.022-1.827 5.688-3.08-.01v8.645l4.21-4.666 5.086 3.087-4.61-1.01-4.687 4.87v3.308z"/></symbol><symbol id='icon-grass' viewBox='0 0 48 48'><path d="M48 48l-.034-.01-.012-3.577-2.67.015-.692-2.385-4.632-.95-4.34-2.105-1.91 1.7s-9.548 1.762-9.838 1.627c-.29-.136-4.282-3.327-4.282-3.327l-6.613 1.46-.693-.136-3.343-1.324-.58 1.628-1.793-.407-.58 1.627-1.56-1.085-2.837.677.133 3.245-1.72.01L0 48z"/></symbol><symbol id='icon-lamp-modern' viewBox='0 0 48 48'><path d="M22.99 7.41l-11.73.393-5.402 6.718-.8 33.48h3.6l-.146-27.77-.023-4.372.894-.897 2.954-5.44 19.966-.495 2.32 2.308 6.654-.11 2.374-2.37-.386.005 2.16-.033-4.3-4.237z"/></symbol><symbol id='icon-lamp-traditional-both' viewBox='0 0 48 48'><path d="M20.79 5.184l1.298 3.918.346.234-.346-.01-.007 1.12-11.355-.557-.624 3.808-.555.015-6.92 4.408 5.25 15.862 7.82-.075 4.705-15.75-6.862-4.555-.59.016-.028-1.704 9.15.167L21.824 48H26.3l-.203-35.918 8.985-.168-.197 1.7-.422-.012-6.863 4.555 4.707 15.75 7.818.075 5.25-15.86-6.918-4.41-.558-.014-.625-3.81-11.187.54-.006-.99-.232-.006.232-.22 1.368-4.098-3.336-3.365zM6.193 19.194l11.23-.326-3.313 12.275H9.305zm24.817.25h11.004l-3.314 11.7h-4.802z"/></symbol><symbol id='icon-lamp-traditional-left' viewBox='0 0 48 48'><path d="M31.64 5.38l1.296 3.918.345.234-.344-.01-.007 1.122-11.357-.56-.623 3.81-.557.015-6.92 4.407 5.25 15.86 7.82-.074 4.705-15.75-6.862-4.555-.59.016-.028-1.704 9.15.168L32.674 48h4.473L36.93 9.635l-.232-.007.232-.22 1.368-4.098-3.336-3.365zm-14.6 14.01l11.23-.326-3.313 12.276h-4.803z"/></symbol><symbol id='icon-lamp-traditional-right' viewBox='0 0 48 48'><path d="M9.74 5.38l1.296 3.918.345.234-.344-.01L10.776 48h4.47l-.202-35.722 8.985-.168-.197 1.7-.422-.012-6.862 4.555 4.707 15.75 7.817.074 5.25-15.86-6.918-4.408-.557-.016-.624-3.81-11.188.54-.006-.99-.232-.006.23-.22L16.4 5.31l-3.335-3.365zm10.217 14.26H30.96l-3.312 11.7h-4.802z"/></symbol><symbol id='icon-median' viewBox='0 0 48 48'><path d="M0 42h48v6H0z"/></symbol><symbol id='icon-orientation-left' viewBox='0 0 48 48'><g><path d="M2 5h6v38H2zM24.015 36L10 24.007 24.015 12z"/></g></symbol><symbol id='icon-orientation-right' viewBox='0 0 48 48'><g><path d="M40 5h6v38h-6zM23.985 36L38 24.007 23.985 12z"/></g></symbol><symbol id='icon-palm-tree' viewBox='0 0 48 48'><path d="M34.937 4.3h-.052l-3.93 4.753-1.487 5.447-1.264 4.535-.037-.39-.65-7.58-1.933-3.916-4.436-.35-.898.503-3.538 1.875 5.37.383.518 1.116 2.01.68-.755.053.183.574-.53.174 1.812 6.504-2.54-3.018-4.341-1.458-4.913.35-1.393 1.61-3.446.088L3.66 18.73 1.93 20.5l6.17-.338.76-.38.21.507 8.156-.59 6.503 1.68-3.355-.032-8.62 3.738-3.066 4.768 3.954-.808.564-.968.484-.08.323.644.088-.052 2.47-.377 2.75-1.328-2.58 5.89-.085 1.268 2.536-3.126 5.47-6.207 2.415-1.354-.002.005h.014l-.744 22.958v.01l.04 1.65h2.95l.23-4.87-1.025-19.596 6.056 1.404.06-.578.745.87 2.04.597 2.942 1.69 1.114-.464-.084 1.056.008.015-.012-.02 1.273 4.31v.048l1.1-.55.463-4.267-2.36-1.96-1.632-1.366-.01-.002-.01-.007-8.89-1.598 7.73-.906-.64-1.68 1.662 1.7 1.517.03 2.43 4.535.343-4.015-2.144-3.9-4.367-.15-5.6 2.01 1.13-.845 3.98-1.516-.872-.975 1.927.572 3.195-.98-.27-.67.383-.308 1.1.218 3.226-2.42-5.6-.87-1.704.753.083.002-6.897 3.212-.015.018-.064-.018-.44.598-.42.482 2.31-4.825-.636-.156 1-.668.816-1.85 4.12-3.548.063-.444.507.507 3.33-1.32.08-.01-.19-.76-7.476-.19zm-9.04 6.93l.076.03-.05.003zM14.383 15.2l-.022.89-.625.015zm1.703 1.238l1.75-.064 1.585.76.92.096-.476.19 2.28 1.54zm10.206 3.38l.015.008-.006.005zm3.715 2.632l-.073-.212.386.27z"/></symbol><symbol id='icon-planter-box' viewBox='0 0 48 48'><g><path d="M24.657 15.92l.208 7.235-2.226.345.855-7.585-2.59-.008-1.564-4.7 9.347-.02-1.522 4.74-2.508-.008zm7.065 1.23V21l-2.23.582.773-10.316-5.296-2.44-1.605.75.82-2.38 6.183 2.7.14-1.856-2.478-.01-1.564-4.7 9.346-.018-1.522 4.74-2.567-.008v7.204l3.51-3.89 4.236 2.573-3.842-.84-3.906 4.06zm-15.38-6.636l.032 10.37-2.228.524.13-2.052-2.116-9.782-1.63-1.498 2.98.15 1.175 4.702.45-7.1.356-.035-2.96-.01-1.564-4.7 9.346-.02-1.522 4.74-2.463-.008.01 3.315 3.77-1.6.82 2.38-1.604-.748-2.98 1.372z"/><path d="M2.088 25.25l-.174-4.228 2.852-.682 1.57 1.09.583-1.636 1.804.41.582-1.637 3.36 1.33.7.138 6.65-1.468s4.013 3.208 4.305 3.345c.292.136 9.895-1.637 9.895-1.637l1.92-1.708 4.364 2.117 4.656.955.93 3.2z"/><path d="M8.03 47.895L0 23.75l48-.093L40.185 48 8.03 47.895z"/></g></symbol><symbol id='icon-residential' viewBox='0 0 48 48'><path d="M36 22V12h-6v4H18L0 34h10v14h28V34h10z"/></symbol><symbol id='icon-sharrow' viewBox='0 0 48 48'><g><path d="M37.392 39.425l-.39 2.814-.022-6.117.407 2.876v-.044l.91.125v.244l-.904.198v-.097zm-2.853-2.56l.212-.017.155-4.223 1.148-.36h.047l-.017-1.292-.008-.008v-.683h-.323l-.966.96-.152.154-.005.003-.225 4.59.04-.005.094.88zm.8 2.148l.295-.054.375-2.645-.002-1.593.124-.13-.012-.913h-.35l.125-.706-.253.12-.3 5.92zm2.566-12l.802 1.59.397-.063.042-.3.27-.007-.022-3.632-1.41-1.46-.08 3.872zm-4.657 1.333l.893.14.44-1.477.017-.004-.2-3.55-1.46 1.577.094 3.09.18.02.035.203zm3.842-1.786l.29-.052-.29.052zm-.293 7.983l.17.133.037 9.162-.266.413h-.447l-.275-.366-.002-2.1-.002.454-.376-2.717-.972-.15v-.235h.002l.06-1.647-.01.208-.09.012.037.343-.264.902-.498.033-.453-.97.006-.15-1.116.15.21-.98.948-.08.038-.833.024-.004-.097-5.347.42-1.405-2.69-.258.13-1.064.473.075.026-.148.57.07-.116-3.356 1.94-2.173 1.354-.26-.628-.63-.007-.468-.702-.477.3-.622.026-.02-.61-.796 1.976-2.032.778-.046 1.78 1.717-.007.007.03-.007-.485 1.108-.023.006.04.04.514.885-1.01.42.02.286-.612.58 1.214.128 1.91 1.974-.08 3.92.577-.013-.007.1.79-.124.128 1.064-2.337.224.035.07.48 6.766h-.005l.136.42 1.02.047.126.81-.872-.01.153.474-.43.717-.584.048-.43-.628.01-.624-.615-.007-.046-.904.673.03.004-.324.233-.02-.22.01-.898-5.48-.545-.584h-.615v.045l.02 1.338-.006-.006.005.596h.055l1.056.34.364 6.474-.608-.082-.44-5.915-.167-.088.086.692h-.33l.01.863zM0 20.498v1.313l15.644-.036L18.394 26 0 25.99v14.555l17.214.045 1.095 3.528.024.124h3.87l.565-3.64h-.062l.516-6.48-5.494.004-.21-2.903 5.927.008.018-.133-7.108-10.6z"/></g></symbol><symbol id='icon-sidewalk-density-dense' viewBox='0 0 48 48'><path d="M31.426 41.626l.44 3.32.452-7.125-.892 3.806zM17.273 43.81l.496-2.687-.886-6.37.39 9.056zm2.526-1.092l.132 1 .136-2.146-.27 1.146zm9.603-2.01l.024-.135-.044-.32.02.456zM6.81 48.002l.76-11.928-2.8 11.93H2.983l2.69-14.568 2.802-1.71.037.037 1.324-.88.474-1.347-1.986-2.308-.012-.86-1.15-.044-.053-1-1.247.16.28-3.91L9.7 19.79l.012-.04 6.63.642.554 4.716-.674.04.042.884-1.297-.067.082 1.26-1.676 2.154.46 1.127 1.564.783-.482.78.545-.84 2.99 1.298.764 5.77 1.76-1.075.038.038 1.323-.88.475-1.347-1.986-2.308-.012-.86-1.15-.044-.053-1-1.247.16.28-3.91 3.558-1.78.012-.04 6.63.642.555 4.717-.675.04.04.882-1.296-.067.083 1.26-1.676 2.154.46 1.127 1.564.784-.482.78.544-.84 2.016.875.447-2.422 2.802-1.71.036.037 1.326-.882.474-1.345-1.986-2.308-.012-.86-1.148-.044-.055-1-1.247.16.28-3.91 3.558-1.78.012-.04 6.63.642.554 4.716-.674.04.042.884-1.297-.067.082 1.26-1.676 2.153.46 1.13 1.564.782-.482.78.545-.842 2.99 1.3L45.016 48H43.23l-1.596-11.498L42.128 48H30.46l-.197-1.416L29.93 48H18.725l-.06-.438-.104.44H6.81z"/></symbol><symbol id='icon-sidewalk-density-normal' viewBox='0 0 48 48'><path d="M22.644 48L20.428 32.05 21.114 48H7.874l.91-14.302L5.43 48H3.163l3.25-17.6 3.503-2.138.046.047 1.654-1.104.593-1.682-2.482-2.885-.015-1.074-1.436-.057-.068-1.252-1.558.2.35-4.887 4.448-2.223.013-.052 8.29.803.69 5.896-.84.05.05 1.103-1.62-.083.1 1.575-2.092 2.69.575 1.412 1.957.98-.603.973.68-1.05 3.735 1.622L24.69 46.67l2.242-12.137 3.502-2.138.047.047 1.655-1.102.593-1.682-2.483-2.886-.014-1.073-1.435-.058-.068-1.25-1.557.198.35-4.885 4.447-2.225.013-.05 8.29.8.69 5.896-.84.052.05 1.103-1.62-.083.102 1.575-2.094 2.692.574 1.412 1.957.98-.604.973.682-1.053 3.734 1.623L44.836 48h-2.248l-1.643-11.818.508 11.82H28.655l.646-10.17L26.917 48h-4.272z"/></symbol><symbol id='icon-sidewalk-density-sparse' viewBox='0 0 48 48'><path d="M20.556 13.777l-5.56 2.78-.437 6.108 1.945-.25.086 1.566 1.795.07.02 1.342L21.506 29l-.74 2.102-2.07 1.378-.057-.06-4.38 2.673L11.88 48h3.285l2.06-8.784L16.665 48h15.58l-.467-10.845L33.285 48h2.837l-1.898-14.322-4.668-2.03-.852 1.314.754-1.216-2.446-1.224-.72-1.765 2.62-3.365-.128-1.97 2.025.106-.064-1.38 1.05-.062-.86-7.37-10.364-1.003z"/></symbol><symbol id='icon-trashcan' viewBox='0 0 48 48'><g><path d="M29.858 35.48l-2.55.697v-16.5l2.55.72V35.48zm-5 0l-2.55.697v-16.5l2.55.72V35.48zm-5 0l-2.55.697v-16.5l2.55.72V35.48zm-5.025-20.533v23.167l3.334 3.083h11.167l3.25-3.25v-23h-17.75zM32.13 9.447h3.37v3.5h-23v-3.5h3.023l.723-2.644h15.14l.745 2.644z"/></g></symbol><symbol id='icon-tree' viewBox='0 0 48 48'><path d="M8.422 0l1.244 1.674-2.24 1.387 4.54.79-.327 1.87-2.787.247-.307 1.886 1.83.917-.39.736-2.24 5.214 2.778.34-.07 1.027 1.208-.094-1.605 2.067-1.564.68 1.493 4.054-2.293.453.054.934 2.31.403.116 1.304 1.693-.147.885 1.67-3.563 2.104.16 1.76 3.36 1.6-.907.693 3.52 1.707 2.838-1.958 5.51 7.06.04 2.57-.058 2.25-.004.006-.043 1.81-.026.99h1.774l-.172-4.3.002-.014-.002.002v-.002l4.882-4.886 2.314-9.245 6.4.203-2.162-2.785.894.058-.288-.864 3.355-.41-2.24-5.213-.388-.74 1.828-.914-.16-1.326-2.934-.807-.336-1.934.593-1.052 3.636-.633-2.24-1.386-.56-2.827L39.828 7.7l-2.013-.873.28-1.64 2.158-.547-1.946-1.792L38.484 0zm12.366.914h.03l-.007.012zm-2.082 2.2l.037.012-.07.022zm6.953 27.095l-.008-.72.006-.13 5.315-2.09.627 1.57-2.587 9.408-3.926 3.193-.032-.805.056-1.045.002.002zm-2.63 6.155L20.07 32l2.445-1.69.988.032.1 6.865z"/></symbol><symbol id='icon-truck' viewBox='0 0 48 48'><path d="M5.16.743l.515 23.098.556 14.055.134 4.172h.032l.002.038h.02L6.75 46h3.89l.05-.245 1.128-3.65h24.758L37.768 46l.005-.1.012.057 3.89.043.34-3.89-.333-.005h.357l.108-4.214.36-13.846.332-23.3zm5.848 8.405l25.703.048 3.258 12.36H7.958zM36.71 31.166l3.74.007-.626 1.88-2.505.01zm-28.9 0l3.738.007-.624 1.88-2.505.01zm28.972 2.852l3.738.006-.625 1.88-2.505.01zm-28.9 0l3.738.006-.625 1.88-2.505.01z"/></symbol><symbol id='icon-turn-lane-both' viewBox='0 0 48 48'><path d="M48 17.89L33.378 7.945v5.545c-3.527.132-6.448 1.87-9.45 8.386-.863-1.912-1.45-3.663-2.826-5.057-2.045-2.074-3.692-3.206-6.48-3.317V7.945L0 17.89l14.623 9.932v-7.717c1.01.097 1.87.533 2.676 1.35 3.19 3.226 2.917 10.76 3.218 15.61v1.46c-.028.734-.03 1.184-.03 1.25h.03v1.9h6.787V36.03c.57-5.937 1.054-15.38 6.073-15.913v7.705z"/></symbol><symbol id='icon-turn-lane-left' viewBox='0 0 48 48'><path d="M8.062 19l14.62-11.346v6.95c11.334.25 12.964 7.947 13.502 11.164.332 1.985.565 7.004.692 10.58.084 2.324.135 3.72.104 4.628h-6.61c-.002-2.255-.128-10.71-.7-14.12-1.034-6.195-3.268-5.558-6.987-5.653v7.728z"/></symbol><symbol id='icon-turn-lane-left-straight' viewBox='0 0 48 48'><path d="M34.152 46.83V15.99h7.582L31.144 1.973l-10.6 14.015h7.554v11.47c-1.917-1.197-4.534-2.027-8.13-2.108v-6.948L5.348 29.75l14.62 9.93v-7.727c3.72.095 5.954-.542 6.99 5.653.57 3.41.695 6.865.696 9.12h6.61c.033-.91-.018-2.304-.102-4.628-.003-.088-.007 4.82-.01 4.732"/></symbol><symbol id='icon-turn-lane-right' viewBox='0 0 48 48'><path d="M40.94 19L26.32 7.653v6.95c-11.333.25-12.963 7.947-13.5 11.164-.333 1.985-.566 7.004-.693 10.58-.084 2.324-.135 3.72-.104 4.628h6.61c.002-2.255.128-10.71.7-14.12 1.034-6.195 3.268-5.558 6.987-5.653v7.728z"/></symbol><symbol id='icon-turn-lane-right-straight' viewBox='0 0 48 48'><path d="M12.43 46.83V15.99H4.848l10.59-14.016 10.6 14.015h-7.554v11.47c1.917-1.197 4.534-2.027 8.13-2.108v-6.948l14.62 11.345-14.62 9.93v-7.727c-3.72.095-5.954-.542-6.99 5.653-.57 3.41-.695 6.865-.696 9.12h-6.61c-.033-.91.018-2.304.102-4.628.003-.088.007 4.82.01 4.732"/></symbol><symbol id='icon-turn-lane-shared' viewBox='0 0 48 48'><g><path d="M25.686 48H19.1l.02-.55c.127-3.575.36-8.594.692-10.58.538-3.216 2.168-10.913 13.5-11.164v-6.95l14.622 11.346-14.62 9.932v-7.728c-3.72.095-5.954-.542-6.99 5.653-.373 2.235-.556 6.637-.638 10.04zM28.946 0l-.032.885c-.127 3.576-.36 8.595-.692 10.58-.538 3.217-2.168 10.914-13.5 11.165v6.95L.1 18.233l14.62-9.932v7.728c3.72-.095 5.954.542 6.99-5.653.386-2.31.568-6.933.646-10.377h6.59z"/></g></symbol><symbol id='icon-turn-lane-straight' viewBox='0 0 48 48'><path d="M34.448 20.49L23.858 6.473 13.26 20.49h7.554v20.875h6.054V20.49z"/></symbol><symbol id='icon-twitter' viewBox='0 0 48 48'><path d="M48 9.112c-1.77.783-3.668 1.315-5.656 1.55 2.03-1.216 3.595-3.146 4.33-5.447-1.904 1.127-4.01 1.95-6.255 2.39-1.796-1.915-4.357-3.11-7.19-3.11-5.437 0-9.846 4.408-9.846 9.85 0 .772.084 1.524.256 2.244-8.186-.413-15.443-4.332-20.3-10.29-.846 1.45-1.33 3.146-1.33 4.95 0 3.414 1.736 6.43 4.376 8.198-1.612-.052-3.13-.496-4.46-1.232v.12c0 4.774 3.394 8.755 7.897 9.658-.823.224-1.696.344-2.592.344-.635 0-1.25-.057-1.85-.177 1.25 3.914 4.888 6.763 9.197 6.84-3.37 2.646-7.617 4.217-12.23 4.217-.792 0-1.58-.047-2.347-.136 4.357 2.792 9.532 4.425 15.094 4.425 18.115 0 28.023-15.005 28.023-28.022 0-.423-.01-.85-.033-1.273C45.01 12.822 46.68 11.09 48 9.112z" fill="#2aa9e0"/></symbol><symbol id='icon-waterfront' viewBox='0 0 48 48'><g><path d="M30.366 6.426l-1.708 3.48-3.994 1.044 3.32 1.162-.357 3.096 2.03-4 4.64-1.153.137-4.207zM18.934 32.55l7.668-.913.833 2.127 13.102-2.125.83 2.017L48 32.705V48H0V32.84l7.988-1.212.832 2.13 6.044-.72-.93-3.943 2.613 1.33L18 26.837v4.072l3.635-3.11-2.7 4.753z"/><path d="M4.6 40.6l14.28-2.516 7.445 2.515-8.047-1.208L4.598 40.6zM26.19 45.394l10.535-2.515 5.49 2.514-5.935-1.207-10.09 1.207z" fill="#fff"/></g></symbol><symbol id='icon-wayfinding-large' viewBox='0 0 48 48'><path d="M10 10h28v38H10z"/></symbol><symbol id='icon-wayfinding-medium' viewBox='0 0 48 48'><path d="M15 6h18v42H15z"/></symbol><symbol id='icon-wayfinding-small' viewBox='0 0 48 48'><path d="M19 2h10v46H19z"/></symbol></svg>