<svg width="0" height="0" style="position:absolute"><symbol viewBox="0 0 36 36" fill-rule="evenodd" clip-rule="evenodd" stroke-linejoin="round" stroke-miterlimit="2" id="icon-aladdin" xmlns="http://www.w3.org/2000/svg"><path d="M29.192 36H6.808l3.737-4.541.343-1h1.475l.342 1 .001.001h3.071l-.105-1.669L9.14 27.69l2.754-10.309-1.348-1.349-.605-3.994 4.514-3.91 1.483-.364-.028-.11V6.018l1.113-1.112h1.97l1.113 1.112v1.636l-.029.11 1.484.364 4.514 3.91-.604 3.994-1.349 1.349 2.755 10.309-6.533 2.101-.104 1.669h3.07l.342-1.002 1.476.001.342 1.001h.001L29.192 36zm-9.188-20.672h-3.992l-3.143 1.156.605 8.99 3.205 2.216h2.659l3.205-2.216.605-8.99-3.144-1.156z"/></symbol><symbol viewBox="0 0 36 36" fill-rule="evenodd" clip-rule="evenodd" stroke-linejoin="round" stroke-miterlimit="2" id="icon-aladdin-jasmine" xmlns="http://www.w3.org/2000/svg"><path d="M20.657 36H0v-2.099l2.01-2.442.343-1h1.475l.342 1v.001h3.071l-.104-1.669L.605 27.69l2.754-10.309-1.349-1.349-.604-3.994 4.514-3.91 1.483-.364-.028-.11V6.018l1.112-1.112h1.971l1.113 1.112v1.636l-.029.11 1.484.364 4.514 3.91-.604 3.994-1.349 1.349 2.754 10.309-6.532 2.101-.105 1.669h3.071l.342-1.002 1.476.001.342 1.001h.001L20.657 36zm-9.188-20.672H7.477l-3.144 1.156.605 8.99 3.206 2.216h2.658l3.206-2.216.604-8.99-3.143-1.156z"/><path d="M18.851 36l.032-.046h.001l.767-1.104 4.755-2.44v-.001l-.188-.374.472-.256-6.188-8.741L18 18.824l1.059-2.171 1.354-.817h.001l.315-1.78.753-.187h-.001l.88-2.839 4.361-2.282 4.362 2.282.88 2.839.752.187.316 1.781h.001l1.356.816 1.057 2.172-.501 4.213-3.666 5.178v2.269l2.121 2.121 2.6-2.423V36H18.851zm8.686-20.979l-.816.816-.344-.344v-.002l-.47-.469-1.04 1.872-3.271 2.167h-.001l.111 1.527-.904.366v.001l-.145 1.379.674 1.061.589.129.126 1.722 3.203 3.235.001.001.47.475h2.004l.473-.476 3.203-3.235.126-1.722.588-.129.674-1.061-.144-1.379-.905-.367.111-1.527-3.271-2.167-1.041-1.873h-.001z" fill-rule="nonzero"/></symbol><symbol fill-rule="evenodd" clip-rule="evenodd" stroke-linejoin="round" stroke-miterlimit="1.414" viewBox="0 0 48 48" id="icon-asphalt" xmlns="http://www.w3.org/2000/svg"><path d="M3.039 3.039h42v42h-42z"/><path d="M45.039 45.039h-42l42-42v42z" fill="#fff" fill-opacity=".25" fill-rule="nonzero"/></symbol><symbol viewBox="0 0 48 48" fill-rule="evenodd" clip-rule="evenodd" stroke-linejoin="round" stroke-miterlimit="2" id="icon-barricade" xmlns="http://www.w3.org/2000/svg"><path d="M3.045 48h6.441l6.727-31.796-5.928-.192L3.045 48zM32.756 16.204L39.482 48h6.442l-7.24-31.988-5.928.192z" fill-rule="nonzero"/><path d="M2.737 24.984l41.866-.027.624-6.704-43.151-.01.66 6.74zM2.572 35.91l43.152-.009-.624-6.704-41.867-.026-.66 6.74z" fill-rule="nonzero"/></symbol><symbol fill-rule="evenodd" clip-rule="evenodd" stroke-linejoin="round" stroke-miterlimit="1.414" viewBox="0 0 48 48" id="icon-bollard" xmlns="http://www.w3.org/2000/svg"><path d="M21.048 10.638l-.532 37.363h7.065l-.533-37.381-1.324-2.313-3.351-.035zm2.473 8.302l2.544-4.999.994-.166.067 4.747-3.078.503zm-2.551-.418l.067-4.747 2.884.479-2.195 4.391z" fill-rule="nonzero"/></symbol><symbol fill-rule="evenodd" clip-rule="evenodd" stroke-linejoin="round" stroke-miterlimit="1.414" viewBox="0 0 48 48" id="icon-buffer" xmlns="http://www.w3.org/2000/svg"><path d="M4 4.003h6v39.998H4zM38 4.003h6v39.998h-6z"/><path d="M10 6v8l28 28v-8L10 6zM20.002 4.003L38 22v-8l-9.998-9.997h-8zM28.001 44L10 26v8l10.001 10h8z" fill-rule="nonzero"/></symbol><symbol fill-rule="evenodd" clip-rule="evenodd" stroke-linejoin="round" stroke-miterlimit="1.414" viewBox="0 0 48 48" id="icon-building-thin" xmlns="http://www.w3.org/2000/svg"><path d="M24 34v-8l-6 8h6z" fill-rule="nonzero"/><path d="M24 0h9v48h-9z"/></symbol><symbol fill-rule="evenodd" clip-rule="evenodd" stroke-linejoin="round" stroke-miterlimit="1.414" viewBox="0 0 48 48" id="icon-building-wide" xmlns="http://www.w3.org/2000/svg"><path d="M16 26l-6 8h6v-8z" fill-rule="nonzero"/><path d="M16 0h30v48H16z"/></symbol><symbol fill-rule="evenodd" clip-rule="evenodd" stroke-linejoin="round" stroke-miterlimit="1.414" viewBox="0 0 48 48" id="icon-bush" xmlns="http://www.w3.org/2000/svg"><path d="M48 48H0l-.013-8.747 1.885 1.31.698-1.965 2.166.492.698-1.965 4.033 1.598.838.164 5.677-1.254-1.37-2.108-.966-.429-4.226 1.505 3.558-3.591-1.276-1.964-4.933.782 5.402-3.25 1.738 2.03 1.464.123-.289-2.869 2.589-.634L15.9 25.03l-4.019-.577 4.32-2.446 3.85 4.639 2.013-.493-.985-4.554-1.955-1.797 3.573.178.964 3.855 1.578-1.372.718 2.299 6.391 2.779 3.523-3.73 5.003 3.552-4.613-1-2.103 5.476 3.721-1.265 5.318 3.794-5.787-1.505-4.19 1.422-1.183 3.078 1.053 2.219c1.32-.239 2.234-.407 2.234-.407l2.305-2.05 5.238 2.54L48 40.813V48z"/></symbol><symbol fill-rule="evenodd" clip-rule="evenodd" stroke-linejoin="round" stroke-miterlimit="1.414" viewBox="0 0 48 48" id="icon-car" xmlns="http://www.w3.org/2000/svg"><path d="M13.915 25.546l2.098-4.214 16.049-.043 2.44 4.271zm-4.907 5.3l5.179-.009L14 33.77l-4.86.006.307 6.454h.014L9.747 44l3.432-.008.044-.245.953-3.503 19.28.058.97 3.566.022.124h3.433l.502-3.677h-.055l.458-6.548-4.873.003-.186-2.933 5.257.008.016-.135L32.694 20H15.418" fill-rule="nonzero"/></symbol><symbol fill-rule="evenodd" clip-rule="evenodd" stroke-linejoin="round" stroke-miterlimit="1.414" viewBox="0 0 48 48" id="icon-direction-both" xmlns="http://www.w3.org/2000/svg"><path d="M47.197 24.007L33.18 13.404v7.556H14.82v-7.556L.803 24.007l14.015 10.589v-7.582h18.364v7.582z" fill-rule="nonzero"/></symbol><symbol viewBox="0 0 48 48" fill-rule="evenodd" clip-rule="evenodd" stroke-linejoin="round" stroke-miterlimit="1.414" id="icon-direction-down-left" xmlns="http://www.w3.org/2000/svg"><path d="M29.066 33.918L11.67 36.341l2.413-17.407 5.342 5.342L34.187 9.514l4.28 4.28-14.762 14.763 5.361 5.361z" fill-rule="nonzero"/></symbol><symbol viewBox="0 0 48 48" fill-rule="evenodd" clip-rule="evenodd" stroke-linejoin="round" stroke-miterlimit="1.414" id="icon-direction-down-right" xmlns="http://www.w3.org/2000/svg"><path d="M18.944 33.919l17.398 2.422-2.414-17.407-5.342 5.343L13.824 9.514l-4.281 4.281 14.762 14.762-5.361 5.362z" fill-rule="nonzero"/></symbol><symbol fill-rule="evenodd" clip-rule="evenodd" stroke-linejoin="round" stroke-miterlimit="1.414" viewBox="0 0 48 48" id="icon-direction-inbound" xmlns="http://www.w3.org/2000/svg"><path d="M29.052 28.677l-3.128-11.574h-3.867l-3.128 11.574H7.413l16.586 10.587 16.588-10.587z" fill-rule="nonzero"/></symbol><symbol fill-rule="evenodd" clip-rule="evenodd" stroke-linejoin="round" stroke-miterlimit="1.414" viewBox="0 0 48 48" id="icon-direction-left" xmlns="http://www.w3.org/2000/svg"><path d="M20.569 34.596L6.554 24.006l14.015-10.601v7.554h20.877v6.055H20.569z" fill-rule="nonzero"/></symbol><symbol fill-rule="evenodd" clip-rule="evenodd" stroke-linejoin="round" stroke-miterlimit="1.414" viewBox="0 0 48 48" id="icon-direction-outbound" xmlns="http://www.w3.org/2000/svg"><path d="M40.587 27.26L23.999 16.676 7.413 27.26h11.545l-3.062 11.333h15.867L28.7 27.26z" fill-rule="nonzero"/></symbol><symbol fill-rule="evenodd" clip-rule="evenodd" stroke-linejoin="round" stroke-miterlimit="1.414" viewBox="0 0 48 48" id="icon-direction-right" xmlns="http://www.w3.org/2000/svg"><path d="M27.441 34.596l14.015-10.59-14.015-10.601v7.554H6.564v6.055h20.877z" fill-rule="nonzero"/></symbol><symbol viewBox="0 0 48 48" fill-rule="evenodd" clip-rule="evenodd" stroke-linejoin="round" stroke-miterlimit="1.414" id="icon-direction-up-left" xmlns="http://www.w3.org/2000/svg"><path d="M14.082 29.066L11.659 11.67l17.407 2.413-5.342 5.342 14.762 14.763-4.28 4.28-14.763-14.762-5.361 5.361z" fill-rule="nonzero"/></symbol><symbol viewBox="0 0 48 48" fill-rule="evenodd" clip-rule="evenodd" stroke-linejoin="round" stroke-miterlimit="1.414" id="icon-direction-up-right" xmlns="http://www.w3.org/2000/svg"><path d="M33.929 29.066l2.422-17.398-17.407 2.414 5.343 5.342L9.524 34.186l4.281 4.281 14.762-14.762 5.362 5.361z" fill-rule="nonzero"/></symbol><symbol fill-rule="evenodd" clip-rule="evenodd" stroke-linejoin="round" stroke-miterlimit="1.414" viewBox="0 0 48 48" id="icon-dome" xmlns="http://www.w3.org/2000/svg"><path d="M31.645 44.536l-1.628.001L27.507 40l-6.917.015-2.517 4.536H16.45L15.047 48h18z" fill-rule="nonzero"/></symbol><symbol fill-rule="evenodd" clip-rule="evenodd" stroke-linejoin="round" stroke-miterlimit="1.414" viewBox="0 0 48 48" id="icon-elevation-higher" xmlns="http://www.w3.org/2000/svg"><path d="M0 28h48v20H0z"/><path d="M36 20L24 6 12 20z" fill-rule="nonzero"/></symbol><symbol fill-rule="evenodd" clip-rule="evenodd" stroke-linejoin="round" stroke-miterlimit="1.414" viewBox="0 0 48 48" id="icon-elevation-lower" xmlns="http://www.w3.org/2000/svg"><path d="M0 42h48v6H0z"/><path d="M36 22L24 36 12 22h24z" fill-rule="nonzero"/></symbol><symbol fill-rule="evenodd" clip-rule="evenodd" stroke-linejoin="round" stroke-miterlimit="1.414" viewBox="0 0 48 48" id="icon-fence" xmlns="http://www.w3.org/2000/svg"><path d="M25.5 42.992l5.036 5.01h1.418L25.5 41.597v1.394zm16.74-1.317L35.886 48H34.38l7.118-7.068-8.222-8.195-7.775 7.738v-1.535l7.016-6.96-7.016-6.994V23.6l7.722 7.68 8.216-8.15-8.208-8.169-7.73 7.657v-1.537l6.989-6.857-.225-.224H34.2l-.267.264 8.222 8.154L48 16.62v1.462l-5.1 5.075 5.1 5.057v1.447l-5.817-5.79-8.203 8.165 8.232 8.187L48 34.474v1.466l-5.045 5.023L48 45.981v1.434l-5.76-5.74zM22.5 42.992l-5.035 5.01h-1.418l6.453-6.404v1.394zM5.76 41.675L12.115 48h1.506l-7.117-7.068 8.221-8.195 7.775 7.738v-1.535l-7.015-6.96 7.015-6.994V23.6l-7.721 7.68-8.216-8.15 8.208-8.169 7.73 7.657v-1.537l-6.99-6.857.226-.224H13.8l.267.264-8.222 8.154L0 16.62v1.462l5.1 5.075L0 28.214v1.447l5.818-5.79 8.202 8.165-8.231 8.187L0 34.474v1.466l5.045 5.023L0 45.981v1.434l5.76-5.74zM42.097 6.069L38.118 10h-1.537l4.77-4.676-2.12-2.112h1.43l1.411 1.405 1.433-1.405h1.483l-2.171 2.146L47.48 10h-1.438l-3.946-3.931zM6.297 6.069L2.318 10H.781l4.77-4.676-2.12-2.112h1.43l1.411 1.405 1.433-1.405h1.483L7.016 5.358 11.681 10h-1.438L6.296 6.069zM23.97 7.77L22.036 10h-1.617l2.725-3.047-3.065-3.027v-.714h.689l3.045 2.993 2.676-2.993h1.432l-3.29 3.796L27.674 10h-1.447L23.97 7.77z"/><g><path d="M0 10h48v4H0z"/></g><g><path d="M22.5 48V14h3v34h-3z"/></g></symbol><symbol fill-rule="evenodd" clip-rule="evenodd" stroke-linejoin="round" stroke-miterlimit="1.414" viewBox="0 0 48 48" id="icon-flowers" xmlns="http://www.w3.org/2000/svg"><path d="M33.453 39.462c.954-.173 1.572-.287 1.572-.287l2.304-2.05 5.238 2.54L48 40.813V48H0v-8.747l1.572 1.31.698-1.965 2.166.492.698-1.965 4.034 1.598.838.164 2.415-.534L9.98 27.065l-1.954-1.798 3.57.178 1.412 5.646.542-8.522.434-.042-3.562-.012-1.876-5.641 11.215-.021-1.826 5.687-2.956-.01.013 3.979 4.525-1.92.982 2.854-1.924-.897-3.578 1.647.03 9.585 2.96-.653s3.783 3.023 4.886 3.825l.708-6.277-3.11-.01-1.875-5.64L29.81 29l-1.827 5.687-3.01-.01.18 6.223c1.567-.245 3.795-.633 5.738-.979l.813-10.827-6.355-2.926-1.926.896.983-2.854 7.42 3.24.168-2.228-2.974-.01-1.877-5.641 11.217-.021-1.828 5.687-3.079-.01v8.645l4.21-4.666 5.085 3.087-4.61-1.01-4.686 4.871v3.307z"/></symbol><symbol fill-rule="evenodd" clip-rule="evenodd" stroke-linejoin="round" stroke-miterlimit="1.414" viewBox="0 0 48 48" id="icon-grass" xmlns="http://www.w3.org/2000/svg"><path d="M48 48l-.034-.01-.012-3.577-2.67.015-.692-2.385-4.632-.949-4.34-2.106-1.909 1.699s-9.55 1.763-9.839 1.628c-.29-.136-4.282-3.327-4.282-3.327l-6.613 1.46-.693-.136-3.343-1.324-.58 1.628-1.794-.407-.579 1.628-1.562-1.085-2.836.677.133 3.246-1.72.01L0 48z" fill-rule="nonzero"/></symbol><symbol viewBox="0 0 36 36" fill-rule="evenodd" clip-rule="evenodd" stroke-linejoin="round" stroke-miterlimit="2" id="icon-jasmine" xmlns="http://www.w3.org/2000/svg"><path d="M2.919 36l.033-.046.768-1.104 4.755-2.44v-.001l-.188-.374.471-.256-6.188-8.741-.501-4.214 1.058-2.171 1.355-.817.316-1.78.753-.187H5.55l.88-2.839 4.361-2.282 4.361 2.282.881 2.839h-.001l.753.187.316 1.781h.001l1.356.816 1.057 2.172-.502 4.213-3.665 5.178v2.269l2.121 2.121 2.281-2.28 4.159-5.75v2.96l7.522-3.747 4 2.387-2.08 5.48-1.36-2.28-3.84.16L25.538 36H2.919zm8.687-20.979l-.817.816-.343-.344v-.002l-.47-.469-1.041 1.872-3.27 2.167h-.001l.111 1.527-.904.366v.001l-.145 1.379.674 1.061.589.129.126 1.722 3.202 3.235.001.001.471.475h2.004l.472-.476h.001l3.203-3.235.126-1.722.588-.129.674-1.061-.145-1.379-.904-.367.111-1.527-3.272-2.167-1.04-1.873h-.001z" fill-rule="nonzero"/></symbol><symbol viewBox="0 0 36 36" fill-rule="evenodd" clip-rule="evenodd" stroke-linejoin="round" stroke-miterlimit="2" id="icon-jasmine-aladdin" xmlns="http://www.w3.org/2000/svg"><path d="M.851 36l.032-.046h.001l.767-1.104 4.755-2.44v-.001l-.188-.374.472-.256-6.188-8.741L0 18.824l1.059-2.171 1.354-.817h.001l.315-1.78.753-.187h-.001l.88-2.839 4.361-2.282 4.362 2.282.88 2.839.752.187.316 1.781h.001l1.356.816 1.057 2.172-.501 4.213-3.666 5.178v2.269l2.121 2.121 2.281-2.28 3.168-3.568 5.233 2.778L23.469 36H.851zm8.686-20.979l-.816.816-.344-.344v-.002l-.47-.469-1.04 1.872-3.271 2.167h-.001l.111 1.527-.904.366v.001l-.145 1.379.674 1.061.589.129.126 1.722 3.203 3.235.001.001.47.475h2.004l.473-.476 3.203-3.235.126-1.722.588-.129.674-1.061-.144-1.379-.905-.367.111-1.527-3.271-2.167-1.041-1.873h-.001z" fill-rule="nonzero"/><path d="M36 36H14.788l3.738-4.541.343-1h1.475l.342 1v.001h3.071l-.104-1.669-6.532-2.101 2.754-10.309-1.349-1.349-.604-3.994 4.514-3.91 1.483-.364-.028-.11V6.018l1.112-1.112h1.971l1.113 1.112v1.636l-.029.11 1.484.364 4.514 3.91-.604 3.994-1.349 1.349 2.754 10.309-6.532 2.101-.105 1.669h3.071l.342-1.002 1.476.001.342 1.001h.001L36 34.569V36zm-8.015-20.672h-3.992l-3.144 1.156.605 8.99 3.206 2.216h2.658l3.206-2.216.604-8.99-3.143-1.156z"/></symbol><symbol viewBox="0 0 48 48" fill-rule="evenodd" clip-rule="evenodd" stroke-linejoin="round" stroke-miterlimit="2" id="icon-jersey-barrier" xmlns="http://www.w3.org/2000/svg"><path d="M10.14 48l.577-5.557 6.98-14.229L19.826 4.11l8.257-.058 1.613 23.944L37.283 42.1 37.86 48H10.14z"/></symbol><symbol fill-rule="evenodd" clip-rule="evenodd" stroke-linejoin="round" stroke-miterlimit="1.414" viewBox="0 0 48 48" id="icon-lamp-modern" xmlns="http://www.w3.org/2000/svg"><path d="M22.991 7.41l-11.732.393-5.401 6.718-.8 33.48h3.601L8.512 20.23l-.023-4.372.895-.897 2.954-5.44 19.966-.496 2.319 2.308 6.655-.11 2.374-2.369-.386.004 2.159-.033-4.299-4.237z" fill-rule="nonzero"/></symbol><symbol fill-rule="evenodd" clip-rule="evenodd" stroke-linejoin="round" stroke-miterlimit="1.414" viewBox="0 0 48 48" id="icon-lamp-traditional-both" xmlns="http://www.w3.org/2000/svg"><path d="M20.791 5.184l1.297 3.918.346.234-.346-.009-.007 1.12-11.356-.558-.624 3.809-.556.015-6.92 4.408 5.25 15.861 7.819-.075 4.706-15.75-6.862-4.555-.59.016-.028-1.704 9.149.167-.244 35.92h4.476l-.204-35.919 8.985-.168-.197 1.699-.422-.011-6.863 4.555 4.707 15.75 7.818.075 5.25-15.861-6.918-4.408-.558-.015-.624-3.809-11.187.54-.006-.991-.232-.006.232-.219 1.368-4.099-3.336-3.365zM6.192 19.194l11.23-.326-3.313 12.275H9.306zm24.817.249h11.005l-3.314 11.7h-4.802z" fill-rule="nonzero"/></symbol><symbol fill-rule="evenodd" clip-rule="evenodd" stroke-linejoin="round" stroke-miterlimit="1.414" viewBox="0 0 48 48" id="icon-lamp-traditional-left" xmlns="http://www.w3.org/2000/svg"><path d="M31.639 5.38l1.297 3.918.345.234-.345-.009-.007 1.121-11.356-.559-.623 3.809-.557.015-6.92 4.408 5.25 15.86 7.819-.074 4.706-15.75-6.862-4.555-.589.016-.029-1.704 9.149.168L32.675 48h4.473L36.93 9.635l-.232-.007.232-.219 1.368-4.099-3.336-3.365zM17.04 19.39l11.23-.326-3.313 12.276h-4.803z" fill-rule="nonzero"/></symbol><symbol fill-rule="evenodd" clip-rule="evenodd" stroke-linejoin="round" stroke-miterlimit="1.414" viewBox="0 0 48 48" id="icon-lamp-traditional-right" xmlns="http://www.w3.org/2000/svg"><path d="M9.739 5.38l1.297 3.918.345.234-.345-.009L10.775 48h4.472l-.203-35.722 8.985-.168-.196 1.699-.422-.011-6.863 4.555 4.707 15.75 7.817.074 5.251-15.86-6.919-4.408-.557-.015-.624-3.809-11.188.54-.006-.99-.231-.007.231-.219 1.369-4.099-3.335-3.365zm10.218 14.26h11.004l-3.313 11.7h-4.802z" fill-rule="nonzero"/></symbol><symbol fill-rule="evenodd" clip-rule="evenodd" stroke-linejoin="round" stroke-miterlimit="1.414" viewBox="0 0 48 48" id="icon-median" xmlns="http://www.w3.org/2000/svg"><path d="M0 42h48v6H0z"/></symbol><symbol fill-rule="evenodd" clip-rule="evenodd" stroke-linejoin="round" stroke-miterlimit="1.414" viewBox="0 0 48 48" id="icon-orientation-left" xmlns="http://www.w3.org/2000/svg"><path d="M2 5h6v38H2z"/><path d="M24.015 36L10 24.007 24.015 12z" fill-rule="nonzero"/></symbol><symbol fill-rule="evenodd" clip-rule="evenodd" stroke-linejoin="round" stroke-miterlimit="1.414" viewBox="0 0 48 48" id="icon-orientation-right" xmlns="http://www.w3.org/2000/svg"><path d="M40 5h6v38h-6z"/><path d="M23.985 36L38 24.007 23.985 12z" fill-rule="nonzero"/></symbol><symbol fill-rule="evenodd" clip-rule="evenodd" stroke-linejoin="round" stroke-miterlimit="1.414" viewBox="0 0 48 48" id="icon-palm-tree" xmlns="http://www.w3.org/2000/svg"><path d="M34.937 4.301l-.052-.001-3.93 4.753-1.487 5.447-1.264 4.535-.037-.389-.65-7.581-1.933-3.916-4.436-.348-.898.502-3.538 1.875 5.37.383.518 1.115 2.011.679-.756.054.183.575-.53.174 1.812 6.504-2.54-3.018-4.341-1.458-4.912.349-1.393 1.612-3.446.087-5.027 2.495-1.732 1.773 6.169-.338.76-.379.211.506 8.155-.592 6.503 1.682-3.355-.033-8.62 3.738-3.066 4.768 3.954-.808.564-.968.484-.08.323.644.087-.052 2.47-.377 2.75-1.328-2.58 5.891-.085 1.267 2.536-3.126 5.471-6.207 2.415-1.354-.002.005.014-.002-.744 22.959v.01l.04 1.651h2.951l.229-4.871-1.025-19.596 6.056 1.404.059-.578.747.869 2.04.598 2.942 1.689 1.114-.463-.084 1.055.008.015-.012-.02 1.273 4.31v.047l1.098-.549.464-4.268-2.36-1.962-1.632-1.365-.011-.002-.01-.007-8.891-1.598 7.73-.906-.639-1.68 1.662 1.7 1.517.029 2.431 4.535.343-4.015-2.144-3.899-4.365-.151-5.602 2.01 1.132-.845 3.98-1.516-.873-.974 1.925.572 3.196-.981-.27-.669.383-.308 1.099.219 3.227-2.421-5.602-.869-1.703.753.083.001-6.895 3.212-.017.018-.064-.018-.44.598-.418.482 2.31-4.825-.638-.155 1.002-.668.816-1.85 4.118-3.548.064-.444.507.507 3.33-1.32.081-.011-.19-.76-7.477-.19zm-9.04 6.928l.076.03-.049.004zM14.383 15.2l-.022.889-.627.016zm1.703 1.238l1.75-.064 1.585.76.919.096-.476.189 2.28 1.541zm10.206 3.38l.015.008-.006.005zm3.715 2.632l-.073-.212.386.269z" fill-rule="nonzero"/></symbol><symbol fill-rule="evenodd" clip-rule="evenodd" stroke-linejoin="round" stroke-miterlimit="1.414" viewBox="0 0 48 48" id="icon-planter-box" xmlns="http://www.w3.org/2000/svg"><path d="M24.657 15.919l.208 7.236-2.226.345.856-7.585-2.59-.008-1.564-4.701 9.346-.018-1.522 4.739-2.508-.008zm7.065 1.23V21l-2.23.582.773-10.316-5.296-2.439-1.604.748.819-2.38 6.184 2.7.14-1.855-2.478-.009-1.564-4.7 9.346-.019-1.522 4.74-2.567-.008v7.204l3.51-3.89 4.236 2.573-3.841-.841-3.906 4.06zm-15.38-6.635l.032 10.369-2.228.525.13-2.052-2.116-9.782-1.629-1.498 2.978.149 1.176 4.703.451-7.1.355-.035-2.961-.01-1.564-4.701 9.346-.018-1.522 4.74-2.463-.009.01 3.315 3.771-1.6.819 2.38-1.604-.748-2.981 1.372z"/><path d="M2.088 25.25l-.174-4.228 2.852-.682 1.57 1.091.583-1.637 1.805.41.582-1.637 3.361 1.331.699.137 6.649-1.468s4.014 3.208 4.306 3.345c.29.136 9.894-1.637 9.894-1.637l1.92-1.708 4.364 2.117 4.657.955.93 3.202z"/><path d="M8.03 47.895L0 23.75l48-.093L40.185 48 8.03 47.895z" fill-rule="nonzero"/></symbol><symbol viewBox="0 0 48 48" fill-rule="evenodd" clip-rule="evenodd" stroke-linejoin="round" stroke-miterlimit="1.414" id="icon-rainbow" xmlns="http://www.w3.org/2000/svg"><path d="M31 45.039l14.039-14.081v14.081H31z" fill="#323156"/><path d="M16 45.039l29.039-28.082v14L31 45.04H16z" fill="#366387"/><path d="M45.039 16.957L16 45.04H8l-4.961-.002v-.08L45 3.038h.039v13.918z" fill="#679a45"/><path d="M3.039 44.956v-14L31 3.039h14L3.039 44.956z" fill="#ffe876"/><path d="M3.039 30.956V16.955L17 3.039h14L3.039 30.956z" fill="#f19e75"/><path d="M17 3.039L3.039 16.955V3.039H17z" fill="#ae2025"/></symbol><symbol fill-rule="evenodd" clip-rule="evenodd" stroke-linejoin="round" stroke-miterlimit="1.414" viewBox="0 0 48 48" id="icon-residential" xmlns="http://www.w3.org/2000/svg"><path d="M36 22V12h-6v4H18L0 34h10v14h28V34h10z" fill-rule="nonzero"/></symbol><symbol viewBox="0 0 48 48" fill-rule="evenodd" clip-rule="evenodd" stroke-linejoin="round" stroke-miterlimit="1.414" id="icon-rideshare" xmlns="http://www.w3.org/2000/svg"><path d="M13.915 25.546l2.098-4.215 16.049-.042 2.44 4.271-20.587-.014zm-4.907 5.299l5.179-.008L14 33.77l-4.86.006.307 6.454h.014L9.747 44l3.432-.008.044-.245.953-3.503 19.28.057.97 3.566.022.125h3.433l.502-3.677h-.055l.458-6.548-4.873.003-.186-2.933 5.257.008.016-.136L32.694 20H15.418L9 30.795M26.203 16.549a2.05 2.05 0 11-4.103 0 2.051 2.051 0 114.103 0" fill-rule="nonzero"/><path d="M29.198 14.665a1.608 1.608 0 01-1.354-.736c-.048-.068-1.351-1.954-3.762-1.954-2.502 0-3.896 1.957-3.909 1.979a1.615 1.615 0 01-2.677-1.807c.094-.139 2.346-3.403 6.586-3.403 4.193 0 6.378 3.285 6.468 3.426a1.613 1.613 0 01-1.352 2.495" fill-rule="nonzero"/><path d="M33.167 10.594c-.464 0-.926-.199-1.245-.585-.029-.034-3.254-3.822-7.675-3.822h-.097c-4.76.06-8.156 3.708-8.19 3.745a1.617 1.617 0 01-2.28.105 1.611 1.611 0 01-.113-2.274c.175-.193 4.344-4.726 10.543-4.806 6.068-.046 10.13 4.786 10.3 4.992a1.617 1.617 0 01-1.243 2.645" fill-rule="nonzero"/></symbol><symbol viewBox="0 0 48 48" fill-rule="evenodd" clip-rule="evenodd" stroke-linejoin="round" stroke-miterlimit="1.414" id="icon-sharrow" xmlns="http://www.w3.org/2000/svg"><path d="M2 17l22-8 22 8v4l-22-8-22 8v-4z" fill="#010101" fill-rule="nonzero"/><path d="M2 9l22-8 22 8v4L24 5 2 13V9zM10 31a8 8 0 100 16 8 8 0 000-16zm0 14.001a6 6 0 110-12 6 6 0 010 12zM38 31a8 8 0 100 16 8 8 0 100-16zm0 14.001a6 6 0 11.001-12 6 6 0 010 12z" fill="#010101" fill-rule="nonzero"/><path d="M38.864 39.496c.016-.028.031-.054.046-.084l.033-.09.029-.092c.006-.03.01-.06.014-.091a.991.991 0 00.011-.108l.003-.03c0-.02-.005-.037-.006-.057a1.225 1.225 0 00-.01-.11c-.006-.031-.014-.062-.022-.093-.009-.03-.017-.061-.03-.092a.923.923 0 00-.044-.1c-.01-.017-.015-.034-.024-.05L32.158 27l2.04-3.496a1 1 0 00-.36-1.368.993.993 0 00-.664-.118A.986.986 0 0033 22h-4a1 1 0 000 2h2.593L30.425 26H18.741l2.334-4H22a1 1 0 000-2h-5a1 1 0 000 2h1.759L9.136 38.498a1 1 0 001.727 1.008L17 28.985l6.136 10.52.024.034.026.04.02.028a.863.863 0 00.09.103l.028.025.027.024c.025.02.05.042.078.06.01.009.021.015.033.022l.025.016.01.007.004.003a.971.971 0 00.094.047l.02.01.007.002c.02.009.043.016.065.023l.06.02c.004 0 .008 0 .012.002l.022.004.039.008c.06.011.119.02.179.02h.002l.003-.002h13.994l.003.001c.06 0 .12-.008.18-.019l.039-.008a.973.973 0 00.166-.051l.02-.01c.032-.015.066-.03.099-.05.009-.005.015-.012.024-.017.03-.02.06-.041.088-.063.024-.02.049-.038.07-.059.025-.022.045-.047.067-.072.02-.024.043-.048.06-.074a1.74 1.74 0 00.05-.083zM36.26 38H25.741L31 28.986 36.26 38zM24 37.016L18.74 28h10.518L24 37.016z" fill="#010101" fill-rule="nonzero"/></symbol><symbol fill-rule="evenodd" clip-rule="evenodd" stroke-linejoin="round" stroke-miterlimit="1.414" viewBox="0 0 48 48" id="icon-sidewalk-density-dense" xmlns="http://www.w3.org/2000/svg"><path d="M31.426 41.626l.44 3.319.452-7.124-.892 3.805zM17.273 43.81l.496-2.686-.885-6.37.389 9.056zm2.526-1.09l.133 1 .136-2.147-.269 1.146zm9.604-2.01l.024-.136-.044-.32.02.456zM6.81 48l.758-11.929L4.77 48.001H2.983l2.69-14.567 2.802-1.711.037.038 1.324-.882.474-1.346-1.986-2.308-.012-.859-1.149-.045-.054-1-1.246.159.279-3.91 3.559-1.779.011-.04 6.631.641.553 4.716-.674.041.042.883-1.297-.067.082 1.26-1.675 2.154.46 1.128 1.564.783-.482.78.545-.841 2.988 1.299.764 5.77 1.762-1.075.037.038 1.323-.882.475-1.346-1.986-2.308-.012-.859-1.149-.045-.054-1-1.246.159.279-3.91 3.559-1.779.011-.04 6.631.641.554 4.717-.675.041.041.882-1.297-.067.083 1.26-1.675 2.154.46 1.128 1.564.784-.482.779.544-.841 2.016.876.447-2.422 2.802-1.71.036.037 1.325-.882.474-1.345-1.986-2.308-.012-.86-1.148-.044-.055-1.001-1.246.159.279-3.909 3.559-1.779.011-.041 6.631.642.553 4.716-.674.041.042.883-1.297-.067.082 1.26-1.675 2.153.46 1.129 1.564.783-.482.78.545-.842 2.988 1.299L45.017 48h-1.786l-1.597-11.498L42.128 48H32.27v.001h-1.81l-.197-1.417L29.931 48h-.215v.001H18.724l-.061-.44-.103.44H6.811z"/></symbol><symbol fill-rule="evenodd" clip-rule="evenodd" stroke-linejoin="round" stroke-miterlimit="1.414" viewBox="0 0 48 48" id="icon-sidewalk-density-normal" xmlns="http://www.w3.org/2000/svg"><path d="M22.644 48.001l-2.216-15.953.686 15.953H7.875l.909-14.303-3.355 14.303H3.164L6.414 30.4l3.503-2.138.046.047 1.654-1.103.593-1.682-2.482-2.885-.015-1.073-1.436-.057-.068-1.251-1.557.199.35-4.886 4.448-2.224.013-.052 8.29.803.691 5.896-.842.05.051 1.103-1.62-.083.101 1.575-2.093 2.692.574 1.411 1.957.979-.603.974.681-1.051 3.735 1.623 2.306 17.403 2.241-12.137 3.502-2.138.047.047 1.654-1.102.593-1.682-2.483-2.886-.014-1.073-1.436-.057-.068-1.251-1.557.199.349-4.885 4.448-2.225.013-.051 8.29.802.691 5.895-.841.052.05 1.103-1.62-.084.102 1.575-2.094 2.692.574 1.412 1.957.979-.603.974.682-1.052 3.734 1.623 1.934 14.601h-2.248l-1.643-11.819.508 11.819H28.655l.646-10.17-2.385 10.17h-4.272z"/></symbol><symbol fill-rule="evenodd" clip-rule="evenodd" stroke-linejoin="round" stroke-miterlimit="1.414" viewBox="0 0 48 48" id="icon-sidewalk-density-sparse" xmlns="http://www.w3.org/2000/svg"><path d="M20.556 13.777l-5.56 2.781-.437 6.107 1.946-.249.086 1.565 1.794.069.019 1.342 3.103 3.607-.741 2.103-2.069 1.378-.057-.06-4.379 2.673L11.878 48h3.285l2.06-8.784L16.665 48h15.579l-.466-10.845L33.285 48h2.837l-1.898-14.322-4.668-2.03-.852 1.314.754-1.216-2.446-1.224-.719-1.765 2.619-3.365-.128-1.969 2.025.105-.063-1.379 1.051-.063-.862-7.37-10.363-1.003z" fill-rule="nonzero"/></symbol><symbol viewBox="0 0 48 48" fill-rule="evenodd" clip-rule="evenodd" stroke-linejoin="round" stroke-miterlimit="1.414" id="icon-taxi" xmlns="http://www.w3.org/2000/svg"><path d="M13.915 25.546l2.098-4.215 16.049-.042 2.44 4.271-20.587-.014zm-4.907 5.299l5.179-.008L14 33.77l-4.86.006.307 6.454h.014L9.747 44l3.432-.008.044-.245.953-3.503 19.28.057.97 3.566.022.125h3.433l.502-3.677h-.055l.458-6.548-4.873.003-.186-2.933 5.257.008.016-.136L32.694 20H15.418L9 30.795" fill-rule="nonzero"/><path d="M19.088 20.04h9.824l-.76-2.78h-7.954s-1.125 2.8-1.11 2.78" fill-rule="nonzero"/></symbol><symbol viewBox="0 0 48 48" fill-rule="evenodd" clip-rule="evenodd" stroke-linejoin="round" stroke-miterlimit="2" id="icon-traffic-cone" xmlns="http://www.w3.org/2000/svg"><path d="M29.15 44.975h1.566L31.579 48H16.421l1.222-3.025h1.32l3.759-20.396L25.588 24l3.562 20.975z" fill-rule="nonzero"/></symbol><symbol fill-rule="evenodd" clip-rule="evenodd" stroke-linejoin="round" stroke-miterlimit="1.414" viewBox="0 0 48 48" id="icon-tree" xmlns="http://www.w3.org/2000/svg"><path d="M8.422.001l1.244 1.673-2.239 1.387 4.538.788-.326 1.871-2.786.247-.307 1.886 1.831.917-.391.736-2.24 5.214 2.778.339-.071 1.028 1.209-.094-1.605 2.067-1.564.681 1.493 4.053-2.293.453.054.934 2.31.402.116 1.304 1.693-.147.885 1.671-3.564 2.103.159 1.759 3.361 1.6-.907.694 3.52 1.707 2.838-1.958 5.511 7.061.04 2.568-.059 2.252-.004.005-.043 1.81-.026.99h1.774l-.173-4.301.002-.013-.002.002v-.002l4.882-4.886 2.314-9.245 6.399.203-2.161-2.785.894.058-.288-.864 3.355-.409-2.24-5.213-.388-.74 1.828-.914-.16-1.326-2.934-.807-.335-1.934.593-1.052 3.636-.633-2.24-1.387-.559-2.827L39.827 7.7l-2.013-.873.279-1.639 2.159-.548-1.946-1.792.178-2.847zm12.366.913l.031-.001-.008.013zm-2.082 2.199l.037.013-.07.022zm6.953 27.096l-.007-.719.006-.129 5.315-2.09.627 1.569-2.587 9.408-3.926 3.193-.032-.806.056-1.045.001.002zm-2.63 6.156l-2.96-4.366 2.446-1.688.988.031.101 6.865z" fill-rule="nonzero"/></symbol><symbol fill-rule="evenodd" clip-rule="evenodd" stroke-linejoin="round" stroke-miterlimit="1.414" viewBox="0 0 48 48" id="icon-truck" xmlns="http://www.w3.org/2000/svg"><path d="M5.16.743l.515 23.098.556 14.054.133 4.172h.032l.002.038h.019L6.752 46h3.89l.05-.245 1.128-3.65h24.758L37.769 46l.004-.1.012.057 3.891.043.338-3.891-.332-.004h.357l.109-4.214.36-13.847L42.84.743zm5.848 8.405l25.703.048 3.257 12.36H7.959zm25.703 22.018l3.738.007-.625 1.881-2.505.008zm-28.9 0l3.737.007-.624 1.881-2.505.008zm28.971 2.852l3.738.006-.625 1.881-2.505.008zm-28.9 0l3.738.006-.625 1.881-2.505.008z" fill-rule="nonzero"/></symbol><symbol fill-rule="evenodd" clip-rule="evenodd" stroke-linejoin="round" stroke-miterlimit="1.414" viewBox="0 0 48 48" id="icon-turn-lane-both" xmlns="http://www.w3.org/2000/svg"><path d="M48 17.89L33.378 7.945v5.545c-3.527.132-6.448 1.871-9.449 8.386-.864-1.912-1.452-3.663-2.827-5.057-2.045-2.073-3.692-3.205-6.479-3.316V7.945L0 17.89l14.623 9.932v-7.717c1.01.097 1.869.533 2.676 1.349 3.191 3.227 2.918 10.76 3.219 15.611v1.46c-.028.734-.03 1.184-.03 1.249h.03v1.9h6.787v-5.643c.569-5.938 1.054-15.38 6.073-15.914v7.705z" fill-rule="nonzero"/></symbol><symbol fill-rule="evenodd" clip-rule="evenodd" stroke-linejoin="round" stroke-miterlimit="1.414" viewBox="0 0 48 48" id="icon-turn-lane-left" xmlns="http://www.w3.org/2000/svg"><path d="M8.062 18.999L22.683 7.654v6.949c11.333.251 12.963 7.948 13.501 11.165.332 1.985.565 7.004.692 10.58.084 2.324.135 3.719.104 4.628h-6.611c-.001-2.255-.127-10.709-.698-14.12-1.035-6.195-3.269-5.558-6.988-5.653v7.728z" fill-rule="nonzero"/></symbol><symbol fill-rule="evenodd" clip-rule="evenodd" stroke-linejoin="round" stroke-miterlimit="1.414" viewBox="0 0 48 48" id="icon-turn-lane-left-straight" xmlns="http://www.w3.org/2000/svg"><path d="M34.152 46.83V15.989h7.582L31.145 1.974 20.543 15.989h7.555v11.472c-1.917-1.198-4.534-2.028-8.13-2.109v-6.948L5.347 29.749l14.621 9.932v-7.728c3.719.095 5.954-.542 6.989 5.653.57 3.411.696 6.865.697 9.12h6.611c.032-.909-.019-2.304-.103-4.628-.003-.088-.007 4.821-.01 4.732" fill-rule="nonzero"/></symbol><symbol fill-rule="evenodd" clip-rule="evenodd" stroke-linejoin="round" stroke-miterlimit="1.414" viewBox="0 0 48 48" id="icon-turn-lane-right" xmlns="http://www.w3.org/2000/svg"><path d="M40.941 18.999L26.32 7.654v6.949c-11.333.251-12.963 7.948-13.501 11.165-.332 1.985-.565 7.004-.692 10.58-.084 2.324-.135 3.719-.104 4.628h6.611c.001-2.255.127-10.709.698-14.12 1.035-6.195 3.269-5.558 6.988-5.653v7.728z" fill-rule="nonzero"/></symbol><symbol fill-rule="evenodd" clip-rule="evenodd" stroke-linejoin="round" stroke-miterlimit="1.414" viewBox="0 0 48 48" id="icon-turn-lane-right-straight" xmlns="http://www.w3.org/2000/svg"><path d="M12.43 46.83V15.989H4.848L15.437 1.974l10.602 14.015h-7.555v11.472c1.917-1.198 4.534-2.028 8.13-2.109v-6.948l14.621 11.345-14.621 9.932v-7.728c-3.719.095-5.954-.542-6.989 5.653-.57 3.411-.696 6.865-.697 9.12h-6.611c-.032-.909.019-2.304.103-4.628.003-.088.007 4.821.01 4.732" fill-rule="nonzero"/></symbol><symbol fill-rule="evenodd" clip-rule="evenodd" stroke-linejoin="round" stroke-miterlimit="1.414" viewBox="0 0 48 48" id="icon-turn-lane-shared" xmlns="http://www.w3.org/2000/svg"><path d="M25.686 48H19.1l.02-.549c.127-3.576.36-8.595.692-10.58.538-3.217 2.168-10.914 13.501-11.165v-6.949l14.621 11.345-14.621 9.932v-7.728c-3.719.095-5.953-.542-6.988 5.653-.374 2.236-.557 6.638-.64 10.041zM28.946 0l-.032.885c-.127 3.576-.36 8.595-.692 10.58-.538 3.217-2.168 10.914-13.501 11.165v6.949L.1 18.234l14.621-9.932v7.728c3.719-.095 5.953.542 6.988-5.653.387-2.31.57-6.933.647-10.377h6.59z"/></symbol><symbol fill-rule="evenodd" clip-rule="evenodd" stroke-linejoin="round" stroke-miterlimit="1.414" viewBox="0 0 48 48" id="icon-turn-lane-straight" xmlns="http://www.w3.org/2000/svg"><path d="M34.448 20.489L23.859 6.474 13.257 20.489h7.555v20.876h6.054V20.489z" fill-rule="nonzero"/></symbol><symbol fill-rule="evenodd" clip-rule="evenodd" stroke-linejoin="round" stroke-miterlimit="1.414" viewBox="0 0 48 48" id="icon-waterfront" xmlns="http://www.w3.org/2000/svg"><path d="M30.366 6.426l-1.708 3.481-3.994 1.043 3.32 1.162-.357 3.096 2.029-4 4.641-1.153.137-4.207z" fill-rule="nonzero"/><path d="M18.934 32.551l7.668-.914.833 2.127 13.102-2.125.831 2.018L48 32.705v15.296H0V32.838l7.988-1.212.832 2.131 6.044-.72-.931-3.944 2.614 1.331L18 26.836v4.072l3.635-3.11-2.701 4.753z"/><path d="M4.599 40.599l14.282-2.515 7.444 2.515-8.047-1.207-13.679 1.207zM26.19 45.394l10.535-2.515 5.49 2.515-5.935-1.207-10.09 1.207z" fill="#fff" fill-rule="nonzero"/></symbol><symbol fill-rule="evenodd" clip-rule="evenodd" stroke-linejoin="round" stroke-miterlimit="1.414" viewBox="0 0 48 48" id="icon-wayfinding-large" xmlns="http://www.w3.org/2000/svg"><path d="M10 10h28v38H10z"/></symbol><symbol fill-rule="evenodd" clip-rule="evenodd" stroke-linejoin="round" stroke-miterlimit="1.414" viewBox="0 0 48 48" id="icon-wayfinding-medium" xmlns="http://www.w3.org/2000/svg"><path d="M15 6h18v42H15z"/></symbol><symbol fill-rule="evenodd" clip-rule="evenodd" stroke-linejoin="round" stroke-miterlimit="1.414" viewBox="0 0 48 48" id="icon-wayfinding-small" xmlns="http://www.w3.org/2000/svg"><path d="M19 2h10v46H19z"/></symbol></svg>