<svg width="0" height="0" style="position:absolute"><symbol viewBox="0 0 168 360" fill-rule="evenodd" clip-rule="evenodd" stroke-linejoin="round" stroke-miterlimit="1.414" id="image-bikes--bikeshare-left" xmlns="http://www.w3.org/2000/svg"><g transform="translate(2.283 192.552)"><path fill="#fff" fill-rule="nonzero" d="M2 0h83.373v167.112H2z"/><path d="M77.942 15.926L75.016 79.95l-63.038.021-2.592-64.045h68.556z" fill="#323257" fill-rule="nonzero"/><path d="M9.387 15.926l.617 15.271 16.224-15.271H9.387zM77.751 20.793L18.063 79.97h2.847l54.107-.017 2.734-59.141v-.019z" fill="#0f1925" fill-rule="nonzero"/><path d="M77.942 90.922l-2.798-6.935-63.166-.002-2.592 6.937h68.556z" fill="#5d5f60" fill-rule="nonzero"/><path d="M41.371 129.57l1.978-1.979a1.168 1.168 0 0 1 1.65 0l1.978 1.979a1.165 1.165 0 0 1 0 1.649l-1.978 1.98a1.168 1.168 0 0 1-1.65 0l-1.978-1.98a1.165 1.165 0 0 1 0-1.649" fill="#fff" fill-rule="nonzero"/><path d="M83.804 142.049l-.348-3.043-16.767-.043-.467 3.306 17.582-.22zM120.279 126.176l-1.905 2.396 11.826 11.887 2.666-2.006-12.587-12.277zM137.779 143.676l-1.905 2.396 11.826 11.887 2.666-2.006-12.587-12.277zM146.461 126.176l1.905 2.396-11.826 11.887-2.666-2.006 12.587-12.277zM130.211 142.426l1.88 2.423-13.018 13.077-2.699-1.973 13.837-13.527z" fill="#e4e2dc" fill-rule="nonzero"/><path d="M153.489 144.049l-.348-3.042-16.767-.043-.467 3.305 17.582-.22zM128.741 144.049l-.348-3.043-16.767-.043-.467 3.306 17.582-.22zM134.976 163.312l-3.041-.36-.043-17.485 3.303-.486-.219 18.331zM134.976 137.813l-3.041-.348-.043-16.766 3.303-.468-.219 17.582z" fill="#e4e2dc" fill-rule="nonzero"/><path d="M112.806 142.818c0-11.046 8.954-20 20-20s20 8.954 20 20c0 11.047-8.954 20-20 20s-20-8.953-20-20m-4.628.001c0 13.603 11.026 24.629 24.628 24.629 13.603 0 24.629-11.026 24.629-24.629 0-13.603-11.026-24.629-24.629-24.629-13.602 0-24.628 11.026-24.628 24.629" fill="#373837" fill-rule="nonzero"/><path d="M98.721 139.986L66.427 101.36l-2.595 2.219 32.081 38.265 2.808-1.858zM109.92 110.658L67.298 93.151l-1.261 3.172 42.297 17.302 1.586-2.967z" fill="#8abb6b" fill-rule="nonzero"/><path d="M70.398 92.176l-8.768-3.857-1.273 3.167 8.721 3.762 1.32-3.072z" fill="#ecdbb1" fill-rule="nonzero"/><path d="M100.832 141.464l15.789-46.584-3.246-1.058-15.594 46.221 3.051 1.421z" fill="#8abb6b" fill-rule="nonzero"/><path d="M123.988 93.189l-.579 4.002-15.626-.001-4.628-4.001h20.833z" fill="#37823f" fill-rule="nonzero"/><path d="M97.016 134.961l-.521 1.564-5.254.077 1.353 1.762-4.147 2.67 1.563 1.405-.595 5.416 2.124-.189 2.869 3.576 1.602-1.751 4.769 1.231.372-1.939 3.614-2.422-1.862-1.117 1.378-3.465-1.9-.93-.186-3.318-1.826.225-3.353-2.795z" fill="#373837" fill-rule="nonzero"/><path d="M61.631 88.318l-.742 3.456 5.25 2.25 4.476-2.01-8.984-3.696z" fill="#679a44" fill-rule="nonzero"/><path d="M58.244 92.858l3.331.083 1.418-5.417-6.333-.083 1.584 5.417z" fill="#37823f" fill-rule="nonzero"/><path d="M33.279 126.176l-1.905 2.396L43.2 140.459l2.666-2.006-12.587-12.277zM50.779 143.676l-1.905 2.396L60.7 157.959l2.666-2.006-12.587-12.277zM59.461 126.176l1.905 2.396-11.826 11.887-2.666-2.006 12.587-12.277zM43.211 142.426l1.88 2.423-13.018 13.077-2.699-1.973 13.837-13.527z" fill="#e4e2dc" fill-rule="nonzero"/><path d="M66.489 144.049l-.348-3.042-16.767-.043-.467 3.305 17.582-.22zM42.934 144.049l-.348-3.042-16.767-.043-.467 3.305 17.582-.22zM47.976 163.312l-3.041-.36-.043-17.485 3.303-.486-.219 18.331zM47.976 137.813l-3.041-.348-.043-16.766 3.303-.468-.219 17.582z" fill="#e4e2dc" fill-rule="nonzero"/><path d="M134.328 134.775l5 6.75-5.375 8-8.125-7 8.5-7.75zM45.076 135.149l8.917 6.208-5.375 8-8.125-7 4.583-7.208z" fill="#373837" fill-rule="nonzero"/><path d="M133.524 141.063l-24.456-27.629-2.528 2.293 24.305 27.357 2.679-2.021z" fill="#8abb6b" fill-rule="nonzero"/><path d="M25.806 142.818c0-11.046 8.954-20 20-20s20 8.954 20 20c0 11.047-8.954 20-20 20s-20-8.953-20-20m-4.628.001c0 13.603 11.026 24.629 24.628 24.629 13.603 0 24.629-11.026 24.629-24.629 0-13.603-11.026-24.629-24.629-24.629-13.602 0-24.628 11.026-24.628 24.629" fill="#373837" fill-rule="nonzero"/><path d="M49.527 142.379l21.088-50.364-3.166-1.281-20.848 49.973 2.926 1.672z" fill="#8abb6b" fill-rule="nonzero"/><path d="M94.568 143.912l-.485 3.011-10.054-.879.02-3.316 10.519 1.184z" fill="#e4e2dc" fill-rule="nonzero"/><path d="M83.948 140.524l.667 5.666-11.171-.5-1.333-6.333 11.837 1.167z" fill="#373837" fill-rule="nonzero"/><path d="M112.2 97.191l-2.124 16.833 5.749-16.916-3.625.083z" fill="#679a44" fill-rule="nonzero"/><path d="M49.571 167.448l.001-64.424 5.854.023 64.147 64.401h-7.456l-47.891-47.893-9.235-9.365-.252 57.257-5.168.001z" fill="#c1bebb" fill-rule="nonzero"/><path fill="#c1bebb" fill-rule="nonzero" d="M2 158.963h83.374v8.419H2z"/><path d="M85.374 8.428H2L0-.001h87.374l-2 8.429z" fill="#679a43" fill-rule="nonzero"/><path d="M18.721 79.97l59.031-59.877.191-4.168-1.988-.002-63.118 64.003 5.884.044z" fill="#4a4b73" fill-rule="nonzero"/></g></symbol><symbol viewBox="0 0 168 360" fill-rule="evenodd" clip-rule="evenodd" stroke-linejoin="round" stroke-miterlimit="1.414" id="image-bikes--bikeshare-right" xmlns="http://www.w3.org/2000/svg"><g transform="matrix(-1 0 0 1 165.718 192.552)"><path fill="#fff" fill-rule="nonzero" d="M2 0h83.373v167.112H2z"/><path d="M77.942 15.926L75.016 79.95l-63.038.021-2.592-64.045h68.556z" fill="#323257" fill-rule="nonzero"/><path d="M9.387 15.926l.617 15.271 16.224-15.271H9.387zM77.751 20.793L18.063 79.97h2.847l54.107-.017 2.734-59.141v-.019z" fill="#0f1925" fill-rule="nonzero"/><path d="M77.942 90.922l-2.798-6.935-63.166-.002-2.592 6.937h68.556z" fill="#5d5f60" fill-rule="nonzero"/><path d="M41.371 129.57l1.978-1.979a1.168 1.168 0 0 1 1.65 0l1.978 1.979a1.165 1.165 0 0 1 0 1.649l-1.978 1.98a1.168 1.168 0 0 1-1.65 0l-1.978-1.98a1.165 1.165 0 0 1 0-1.649" fill="#fff" fill-rule="nonzero"/><path d="M83.804 142.049l-.348-3.043-16.767-.043-.467 3.306 17.582-.22zM120.279 126.176l-1.905 2.396 11.826 11.887 2.666-2.006-12.587-12.277zM137.779 143.676l-1.905 2.396 11.826 11.887 2.666-2.006-12.587-12.277zM146.461 126.176l1.905 2.396-11.826 11.887-2.666-2.006 12.587-12.277zM130.211 142.426l1.88 2.423-13.018 13.077-2.699-1.973 13.837-13.527z" fill="#e4e2dc" fill-rule="nonzero"/><path d="M153.489 144.049l-.348-3.042-16.767-.043-.467 3.305 17.582-.22zM128.741 144.049l-.348-3.043-16.767-.043-.467 3.306 17.582-.22zM134.976 163.312l-3.041-.36-.043-17.485 3.303-.486-.219 18.331zM134.976 137.813l-3.041-.348-.043-16.766 3.303-.468-.219 17.582z" fill="#e4e2dc" fill-rule="nonzero"/><path d="M112.806 142.818c0-11.046 8.954-20 20-20s20 8.954 20 20c0 11.047-8.954 20-20 20s-20-8.953-20-20m-4.628.001c0 13.603 11.026 24.629 24.628 24.629 13.603 0 24.629-11.026 24.629-24.629 0-13.603-11.026-24.629-24.629-24.629-13.602 0-24.628 11.026-24.628 24.629" fill="#373837" fill-rule="nonzero"/><path d="M98.721 139.986L66.427 101.36l-2.595 2.219 32.081 38.265 2.808-1.858zM109.92 110.658L67.298 93.151l-1.261 3.172 42.297 17.302 1.586-2.967z" fill="#8abb6b" fill-rule="nonzero"/><path d="M70.398 92.176l-8.768-3.857-1.273 3.167 8.721 3.762 1.32-3.072z" fill="#ecdbb1" fill-rule="nonzero"/><path d="M100.832 141.464l15.789-46.584-3.246-1.058-15.594 46.221 3.051 1.421z" fill="#8abb6b" fill-rule="nonzero"/><path d="M123.988 93.189l-.579 4.002-15.626-.001-4.628-4.001h20.833z" fill="#37823f" fill-rule="nonzero"/><path d="M97.016 134.961l-.521 1.564-5.254.077 1.353 1.762-4.147 2.67 1.563 1.405-.595 5.416 2.124-.189 2.869 3.576 1.602-1.751 4.769 1.231.372-1.939 3.614-2.422-1.862-1.117 1.378-3.465-1.9-.93-.186-3.318-1.826.225-3.353-2.795z" fill="#373837" fill-rule="nonzero"/><path d="M61.631 88.318l-.742 3.456 5.25 2.25 4.476-2.01-8.984-3.696z" fill="#679a44" fill-rule="nonzero"/><path d="M58.244 92.858l3.331.083 1.418-5.417-6.333-.083 1.584 5.417z" fill="#37823f" fill-rule="nonzero"/><path d="M33.279 126.176l-1.905 2.396L43.2 140.459l2.666-2.006-12.587-12.277zM50.779 143.676l-1.905 2.396L60.7 157.959l2.666-2.006-12.587-12.277zM59.461 126.176l1.905 2.396-11.826 11.887-2.666-2.006 12.587-12.277zM43.211 142.426l1.88 2.423-13.018 13.077-2.699-1.973 13.837-13.527z" fill="#e4e2dc" fill-rule="nonzero"/><path d="M66.489 144.049l-.348-3.042-16.767-.043-.467 3.305 17.582-.22zM42.934 144.049l-.348-3.042-16.767-.043-.467 3.305 17.582-.22zM47.976 163.312l-3.041-.36-.043-17.485 3.303-.486-.219 18.331zM47.976 137.813l-3.041-.348-.043-16.766 3.303-.468-.219 17.582z" fill="#e4e2dc" fill-rule="nonzero"/><path d="M134.328 134.775l5 6.75-5.375 8-8.125-7 8.5-7.75zM45.076 135.149l8.917 6.208-5.375 8-8.125-7 4.583-7.208z" fill="#373837" fill-rule="nonzero"/><path d="M133.524 141.063l-24.456-27.629-2.528 2.293 24.305 27.357 2.679-2.021z" fill="#8abb6b" fill-rule="nonzero"/><path d="M25.806 142.818c0-11.046 8.954-20 20-20s20 8.954 20 20c0 11.047-8.954 20-20 20s-20-8.953-20-20m-4.628.001c0 13.603 11.026 24.629 24.628 24.629 13.603 0 24.629-11.026 24.629-24.629 0-13.603-11.026-24.629-24.629-24.629-13.602 0-24.628 11.026-24.628 24.629" fill="#373837" fill-rule="nonzero"/><path d="M49.527 142.379l21.088-50.364-3.166-1.281-20.848 49.973 2.926 1.672z" fill="#8abb6b" fill-rule="nonzero"/><path d="M94.568 143.912l-.485 3.011-10.054-.879.02-3.316 10.519 1.184z" fill="#e4e2dc" fill-rule="nonzero"/><path d="M83.948 140.524l.667 5.666-11.171-.5-1.333-6.333 11.837 1.167z" fill="#373837" fill-rule="nonzero"/><path d="M112.2 97.191l-2.124 16.833 5.749-16.916-3.625.083z" fill="#679a44" fill-rule="nonzero"/><path d="M49.571 167.448l.001-64.424 5.854.023 64.147 64.401h-7.456l-47.891-47.893-9.235-9.365-.252 57.257-5.168.001z" fill="#c1bebb" fill-rule="nonzero"/><path fill="#c1bebb" fill-rule="nonzero" d="M2 158.963h83.374v8.419H2z"/><path d="M85.374 8.428H2L0-.001h87.374l-2 8.429z" fill="#679a43" fill-rule="nonzero"/><path d="M18.721 79.97l59.031-59.877.191-4.168-1.988-.002-63.118 64.003 5.884.044z" fill="#4a4b73" fill-rule="nonzero"/></g></symbol><symbol viewBox="0 0 288 360" fill-rule="evenodd" clip-rule="evenodd" stroke-linejoin="round" stroke-miterlimit="1.414" id="image-vehicles--car-inbound-door-left" xmlns="http://www.w3.org/2000/svg"><g transform="matrix(-1 0 0 1 255.546 166.584)"><path d="M178.22 172.303l69.92-.065-6-95.935h-50.52l-21.38 29.499 7.98 66.501z" fill="#c1bebb" fill-rule="nonzero"/><path d="M178.22 172.303l69.92-.065-6-95.935h-50.52l-21.38 29.499 7.98 66.501z" fill="#c1bebb" fill-rule="nonzero"/><path d="M178.22 172.303l69.92-.065-6-95.935h-50.52l-21.38 29.499 7.98 66.501z" fill="#c1bebb" fill-rule="nonzero"/><path d="M248.14 172.303l-2.75-43.634-43.95 43.634h46.7z" fill="#e4e2dc" fill-rule="nonzero"/><path d="M174.59 115.436l-2.03-4.02 21.3-30.125h44.35l2.24 34.124-65.86.021z" fill="#313156" fill-rule="nonzero"/><path d="M193.86 81.275l-21.3 30.141 2.05 4.031 65.85-.022-2.23-34.106-44.37-.044z" fill="#0a1723" fill-opacity=".3" fill-rule="nonzero"/></g><g transform="translate(71.98 166.584)"><path d="M127.589 111.412l13.651-2.45 2.8-7.279-15.261-2.662-1.259 6.721-2.321 2.34 2.39 3.33z" fill="#e4e2dc" fill-rule="nonzero"/><path d="M127.604 111.416l-2.327-3.494 2.259-2.185 1.269-6.697 1.297.208 6.621 10.502-9.119 1.666z" fill="#c1bebb" fill-rule="nonzero"/><path d="M0 101.59l2.8 7.278 13.651 2.45 2.39-3.33-2.321-2.34-1.26-6.72L0 101.59z" fill="#e4e2dc" fill-rule="nonzero"/><path d="M16.467 111.316l2.327-3.494-2.259-2.185-1.269-6.697-1.297.208-6.641 10.531 9.139 1.637z" fill="#c1bebb" fill-rule="nonzero"/><path d="M3.89 173.884l1.68 19.532h19.321l3.991-19.742-24.992.21z" fill="#5c5e5f" fill-rule="nonzero"/><path d="M24.052 173.674l.84 19.742 5.992-19.742h-6.832z" fill="#2a2b2a" fill-rule="nonzero"/><path d="M117.358 193.416h19.35l1.68-19.321-24.993-.211 3.963 19.532z" fill="#5c5e5f" fill-rule="nonzero"/><path d="M111.394 173.884l5.964 19.532.869-19.532h-6.833z" fill="#2a2b2a" fill-rule="nonzero"/><path d="M29.468 74.304L1.35 130.134l2.519 43.695 1.89.007 132.637.468 3.796-43.899-27.505-56.1H29.468z" fill="#e4e2dc" fill-rule="nonzero"/><path d="M32.958 78.397l-15.629 30.02h107.925l-13.67-30.02H32.958z" fill="#313156" fill-rule="nonzero"/><path d="M32.994 78.397l-15.665 30.02h27.975l29.91-30.02h-42.22z" fill="#0f2342" fill-opacity=".3" fill-rule="nonzero"/><path d="M111.625 78.397h-3.656l-30.219 30.02h47.504l-13.629-30.02z" fill="#0a1723" fill-opacity=".3" fill-rule="nonzero"/><path d="M78.291 108.417l29.677-30.02H99.68l-29.115 30.02h7.726z" fill="#494a72" fill-rule="nonzero"/><path d="M1.35 130.917l.867 14.5 28.119-.028 1.051-14.511-30.037.039z" fill="#f6f1e1" fill-rule="nonzero"/><path d="M31.388 130.878l7.571 12.829-8.623 1.682 1.052-14.511z" fill="#ef9c74" fill-rule="nonzero"/><path d="M142.15 130.917l-1.263 14.458-27.344.014-1.052-14.511 29.659.039z" fill="#f6f1e1" fill-rule="nonzero"/><path d="M112.491 130.878l-5.818 12.829 6.87 1.682-1.052-14.511z" fill="#ef9c74" fill-rule="nonzero"/><path d="M112.458 130.918l-81.06-.043 7.604 12.83h67.715l5.741-12.787z" fill="#2a2b2a" fill-rule="nonzero"/><path d="M106.788 134.99l-1.926 3.937-64.038.055-2.592-4.272 68.556.28z" fill="#5c5e5f" fill-rule="nonzero"/></g></symbol><symbol viewBox="0 0 288 360" fill-rule="evenodd" clip-rule="evenodd" stroke-linejoin="round" stroke-miterlimit="1.414" id="image-vehicles--car-inbound-door-right" xmlns="http://www.w3.org/2000/svg"><g transform="translate(32.153 166.584)"><path d="M178.22 172.303l69.92-.065-6-95.935h-50.52l-21.38 29.499 7.98 66.501z" fill="#c1bebb" fill-rule="nonzero"/><path d="M178.22 172.303l69.92-.065-6-95.935h-50.52l-21.38 29.499 7.98 66.501z" fill="#c1bebb" fill-rule="nonzero"/><path d="M178.22 172.303l69.92-.065-6-95.935h-50.52l-21.38 29.499 7.98 66.501z" fill="#c1bebb" fill-rule="nonzero"/><path d="M248.14 172.303l-2.75-43.634-43.95 43.634h46.7z" fill="#e4e2dc" fill-rule="nonzero"/><path d="M174.59 115.436l-2.03-4.02 21.3-30.125h44.35l2.24 34.124-65.86.021z" fill="#313156" fill-rule="nonzero"/><path d="M193.86 81.275l-21.3 30.141 2.05 4.031 65.85-.022-2.23-34.106-44.37-.044z" fill="#0a1723" fill-opacity=".3" fill-rule="nonzero"/></g><g transform="translate(71.98 166.584)"><path d="M127.589 111.412l13.651-2.45 2.8-7.279-15.261-2.662-1.259 6.721-2.321 2.34 2.39 3.33z" fill="#e4e2dc" fill-rule="nonzero"/><path d="M127.604 111.416l-2.327-3.494 2.259-2.185 1.269-6.697 1.297.208 6.621 10.502-9.119 1.666z" fill="#c1bebb" fill-rule="nonzero"/><path d="M0 101.59l2.8 7.278 13.651 2.45 2.39-3.33-2.321-2.34-1.26-6.72L0 101.59z" fill="#e4e2dc" fill-rule="nonzero"/><path d="M16.467 111.316l2.327-3.494-2.259-2.185-1.269-6.697-1.297.208-6.641 10.531 9.139 1.637z" fill="#c1bebb" fill-rule="nonzero"/><path d="M3.89 173.884l1.68 19.532h19.321l3.991-19.742-24.992.21z" fill="#5c5e5f" fill-rule="nonzero"/><path d="M24.052 173.674l.84 19.742 5.992-19.742h-6.832z" fill="#2a2b2a" fill-rule="nonzero"/><path d="M117.358 193.416h19.35l1.68-19.321-24.993-.211 3.963 19.532z" fill="#5c5e5f" fill-rule="nonzero"/><path d="M111.394 173.884l5.964 19.532.869-19.532h-6.833z" fill="#2a2b2a" fill-rule="nonzero"/><path d="M29.468 74.304L1.35 130.134l2.519 43.695 1.89.007 132.637.468 3.796-43.899-27.505-56.1H29.468z" fill="#e4e2dc" fill-rule="nonzero"/><path d="M32.958 78.397l-15.629 30.02h107.925l-13.67-30.02H32.958z" fill="#313156" fill-rule="nonzero"/><path d="M32.994 78.397l-15.665 30.02h27.975l29.91-30.02h-42.22z" fill="#0f2342" fill-opacity=".3" fill-rule="nonzero"/><path d="M111.625 78.397h-3.656l-30.219 30.02h47.504l-13.629-30.02z" fill="#0a1723" fill-opacity=".3" fill-rule="nonzero"/><path d="M78.291 108.417l29.677-30.02H99.68l-29.115 30.02h7.726z" fill="#494a72" fill-rule="nonzero"/><path d="M1.35 130.917l.867 14.5 28.119-.028 1.051-14.511-30.037.039z" fill="#f6f1e1" fill-rule="nonzero"/><path d="M31.388 130.878l7.571 12.829-8.623 1.682 1.052-14.511z" fill="#ef9c74" fill-rule="nonzero"/><path d="M142.15 130.917l-1.263 14.458-27.344.014-1.052-14.511 29.659.039z" fill="#f6f1e1" fill-rule="nonzero"/><path d="M112.491 130.878l-5.818 12.829 6.87 1.682-1.052-14.511z" fill="#ef9c74" fill-rule="nonzero"/><path d="M112.458 130.918l-81.06-.043 7.604 12.83h67.715l5.741-12.787z" fill="#2a2b2a" fill-rule="nonzero"/><path d="M106.788 134.99l-1.926 3.937-64.038.055-2.592-4.272 68.556.28z" fill="#5c5e5f" fill-rule="nonzero"/></g></symbol><symbol viewBox="0 0 288 360" fill-rule="evenodd" clip-rule="evenodd" stroke-linejoin="round" stroke-miterlimit="1.414" id="image-vehicles--car-outbound-door-left" xmlns="http://www.w3.org/2000/svg"><g transform="translate(71.98 166.584)"><g transform="matrix(-1 0 0 1 183.567 0)"><path d="M178.22 172.303l69.92-.065-6-95.935h-50.52l-21.38 29.499 7.98 66.501z" fill="#c1bebb" fill-rule="nonzero"/><path d="M178.22 172.303l69.92-.065-6-95.935h-50.52l-21.38 29.499 7.98 66.501z" fill="#c1bebb" fill-rule="nonzero"/><path d="M178.22 172.303l69.92-.065-6-95.935h-50.52l-21.38 29.499 7.98 66.501z" fill="#c1bebb" fill-rule="nonzero"/><path d="M174.59 115.436l-2.03-4.02 21.3-30.125h44.35l2.24 34.124-65.86.021z" fill="#313156" fill-rule="nonzero"/><path d="M193.86 81.275l-21.3 30.141 2.05 4.031 65.85-.022-2.23-34.106-44.37-.044z" fill="#0a1723" fill-opacity=".3" fill-rule="nonzero"/><path d="M240.85 120.601l2.9 45.501-67.33-.083v-45.5l64.43.082z" fill="#ecdbb1" fill-rule="nonzero"/></g><path d="M3.89 173.884l1.68 19.532h19.321l3.991-19.742-24.992.21z" fill="#5c5e5f" fill-rule="nonzero"/><path d="M24.052 173.674l.84 19.742 5.992-19.742h-6.832z" fill="#2a2b2a" fill-rule="nonzero"/><path d="M117.358 193.416h19.35l1.68-19.321-24.993-.211 3.963 19.532z" fill="#5c5e5f" fill-rule="nonzero"/><path d="M111.394 173.884l5.964 19.532.869-19.532h-6.833z" fill="#2a2b2a" fill-rule="nonzero"/><path d="M29.468 74.304L1.35 130.134l2.519 43.695 1.89.007 132.637.468 3.796-43.899-27.505-56.1H29.468z" fill="#e4e2dc" fill-rule="nonzero"/><path d="M1.345 130.726l.834 14.584 18.512.002.941-14.502-20.287-.084z" fill="#ae2025" fill-rule="nonzero"/><path d="M25.882 130.768l7.041 10.46-4.455 4.169-7.771-.105 1.055-14.463 4.13-.061z" fill="#f6f1e1" fill-rule="nonzero"/><path d="M142.191 130.767l-1.249 14.5-18.182.045-1.05-14.491 20.481-.054z" fill="#ae2025" fill-rule="nonzero"/><path d="M117.706 130.82l-6.009 10.447 4.417 4.044 6.666-.044-1.083-14.46-3.991.013z" fill="#f6f1e1" fill-rule="nonzero"/><path d="M34.958 80.397l-14.629 33.02h101.925l-12.67-33.02H34.958z" fill="#313156" fill-rule="nonzero"/><path d="M43.968 171.364a5.042 5.042 0 0 1-10.081 0 5.042 5.042 0 0 1 10.081 0" fill="#2a2b2a" fill-rule="nonzero"/><path d="M32.922 141.146l-4.454 4.27 87.604-.104-4.417-4.166H32.922z" fill="#c1bebb" fill-rule="nonzero"/><path d="M55.3 152.772l-3.036 10.645h35.407L84.67 152.9l-29.37-.13z" fill="#f4f2ed" fill-rule="nonzero"/><path d="M34.953 80.397L20.33 113.416h19.975l32.912-33.02H34.953z" fill="#0f2342" fill-opacity=".3" fill-rule="nonzero"/><path d="M109.62 80.397h-3.651l-33.219 33.02h49.504l-12.634-33.02z" fill="#0a1723" fill-opacity=".3" fill-rule="nonzero"/><path d="M73.29 113.416l32.679-33.02H97.68l-32.115 33.02h7.724z" fill="#494a72" fill-rule="nonzero"/></g></symbol><symbol viewBox="0 0 288 360" fill-rule="evenodd" clip-rule="evenodd" stroke-linejoin="round" stroke-miterlimit="1.414" id="image-vehicles--car-outbound-door-right" xmlns="http://www.w3.org/2000/svg"><g transform="translate(32.153 166.584)"><path d="M178.22 172.303l69.92-.065-6-95.935h-50.52l-21.38 29.499 7.98 66.501z" fill="#c1bebb" fill-rule="nonzero"/><path d="M178.22 172.303l69.92-.065-6-95.935h-50.52l-21.38 29.499 7.98 66.501z" fill="#c1bebb" fill-rule="nonzero"/><path d="M178.22 172.303l69.92-.065-6-95.935h-50.52l-21.38 29.499 7.98 66.501z" fill="#c1bebb" fill-rule="nonzero"/><path d="M174.59 115.436l-2.03-4.02 21.3-30.125h44.35l2.24 34.124-65.86.021z" fill="#313156" fill-rule="nonzero"/><path d="M193.86 81.275l-21.3 30.141 2.05 4.031 65.85-.022-2.23-34.106-44.37-.044z" fill="#0a1723" fill-opacity=".3" fill-rule="nonzero"/><path d="M240.65 120.601l2.9 45.501-67.33-.083v-45.5l64.43.082z" fill="#ecdbb1" fill-rule="nonzero"/><g transform="translate(39.827)"><path d="M3.89 173.884l1.68 19.532h19.321l3.991-19.742-24.992.21z" fill="#5c5e5f" fill-rule="nonzero"/><path d="M24.052 173.674l.84 19.742 5.992-19.742h-6.832z" fill="#2a2b2a" fill-rule="nonzero"/><path d="M117.358 193.416h19.35l1.68-19.321-24.993-.211 3.963 19.532z" fill="#5c5e5f" fill-rule="nonzero"/><path d="M111.394 173.884l5.964 19.532.869-19.532h-6.833z" fill="#2a2b2a" fill-rule="nonzero"/><path d="M29.468 74.304L1.35 130.134l2.519 43.695 1.89.007 132.637.468 3.796-43.899-27.505-56.1H29.468z" fill="#e4e2dc" fill-rule="nonzero"/><path d="M1.345 130.726l.834 14.584 18.512.002.941-14.502-20.287-.084z" fill="#ae2025" fill-rule="nonzero"/><path d="M25.882 130.768l7.041 10.46-4.455 4.169-7.771-.105 1.055-14.463 4.13-.061z" fill="#f6f1e1" fill-rule="nonzero"/><path d="M142.191 130.767l-1.249 14.5-18.182.045-1.05-14.491 20.481-.054z" fill="#ae2025" fill-rule="nonzero"/><path d="M117.706 130.82l-6.009 10.447 4.417 4.044 6.666-.044-1.083-14.46-3.991.013z" fill="#f6f1e1" fill-rule="nonzero"/><path d="M34.958 80.397l-14.629 33.02h101.925l-12.67-33.02H34.958z" fill="#313156" fill-rule="nonzero"/><path d="M43.968 171.364a5.042 5.042 0 0 1-10.081 0 5.042 5.042 0 0 1 10.081 0" fill="#2a2b2a" fill-rule="nonzero"/><path d="M32.922 141.146l-4.454 4.27 87.604-.104-4.417-4.166H32.922z" fill="#c1bebb" fill-rule="nonzero"/><path d="M55.3 152.772l-3.036 10.645h35.407L84.67 152.9l-29.37-.13z" fill="#f4f2ed" fill-rule="nonzero"/><path d="M34.953 80.397L20.33 113.416h19.975l32.912-33.02H34.953z" fill="#0f2342" fill-opacity=".3" fill-rule="nonzero"/><path d="M109.62 80.397h-3.651l-33.219 33.02h49.504l-12.634-33.02z" fill="#0a1723" fill-opacity=".3" fill-rule="nonzero"/><path d="M73.29 113.416l32.679-33.02H97.68l-32.115 33.02h7.724z" fill="#494a72" fill-rule="nonzero"/></g></g></symbol><symbol viewBox="0 0 360 360" fill-rule="evenodd" clip-rule="evenodd" stroke-linejoin="round" stroke-miterlimit="1.414" id="image-vehicles--foodtruck-left" xmlns="http://www.w3.org/2000/svg"><g transform="matrix(-1 0 0 1 302.306 118.426)"><path d="M242.164 133.24l-9-5.666 1.5-2.25 9 6.333-1.5 1.583z" fill="#679a43" fill-rule="nonzero"/><path d="M271.477 234.296l-.897-42.556-.5-27.333 9.359 2.594.475 25.906-.834 40.833-7.603.556zM281.604 110.125l-2.202-6.183-5.484 1.62.206 5.854 7.48-1.291z" fill="#aa8b7e" fill-rule="nonzero"/><path d="M269.439 158.146l-11.75 28.75-4.425 49.453 8.066-1.191 5.609-47.012 14.475-21.071-3.725-11.179-8.25 2.25z" fill="#ceac99" fill-rule="nonzero"/><path d="M253.439 197.146l33.25-.25-7-45.5 1.873-41.323-7.896 1.366-11.227 12.677.958 30-9.958 43.03z" fill="#333358" fill-rule="nonzero"/><path d="M274.702 119.315l5.019 3.408-12.447 20.603-22.994-7.201 2.562-2.842 18.709 4.298 9.151-18.266z" fill="#ceac99" fill-rule="nonzero"/><path d="M273.699 115.107l-1.01 7.338 6.584 2.189 2.495-11.114" fill="#4b4c74" fill-rule="nonzero"/><path d="M281.749 113.509l-.164-3.396-11.544 1.359-7.602 12.676 11.664-6.568 7.646-4.071z" fill="#4b4c74" fill-rule="nonzero"/><path d="M279.659 104.867l1.221-9.651-15.124-1.019-.569 8.604 1.943-.111 1.79 5.488 5.255-1.693M246.018 136.547l-6.205 1.342-4.566-4.573 3.709-2.386 9.623 2.775-2.561 2.842z" fill="#ceac99" fill-rule="nonzero"/><path d="M243.296 129.923l-1.473 1.812 5.467 1.739-3.994-3.551zM275.325 101.96l1.911-.06.184-4.725-2.453.763.358 4.022z" fill="#ceac99" fill-rule="nonzero"/><path d="M273.984 106.957l.229-4.883 2.752-.236.365-4.643-2.908.676.116-2.608 6.418.276-1.192 9.411-5.78 2.007z" fill="#aa8b7e" fill-rule="nonzero"/><path d="M279.069 233.709l-1.614 6.223-16.494.471-1.717-4.542 12.159-2.588 7.666.436z" fill="#cfae81" fill-rule="nonzero"/><path fill="#37823f" fill-rule="nonzero" d="M214.783 136.584h18.239v30h-18.239zM207.449 37.918h91.163v10.239h-91.163z"/><path d="M210.883 65.608l21.376-1.108.211 7.821 4.229-.634-.023-13.261-26.002 2.745.209 4.437z" fill="#2a2b2a" fill-rule="nonzero"/><path d="M239.87 71.051l-.846 32.349-15.01 2.115-2.749-31.503 18.605-2.961z" fill="#2a2b2a" fill-rule="nonzero"/><path d="M239.864 71.159l-18.599 2.854.422 4.755 17.972-.104.211-7.505h-.006z" fill="#5b5e5f" fill-rule="nonzero"/><path d="M28.987 65.608L7.611 64.5 7.4 72.321l-4.228-.634.022-13.261 26.003 2.745-.21 4.437z" fill="#2a2b2a" fill-rule="nonzero"/><path d="M.846 103.401l15.01 2.115 2.749-31.503L0 71.052l.846 32.349z" fill="#2a2b2a" fill-rule="nonzero"/><path d="M0 71.159l.212 7.505 17.972.104.421-4.755L.006 71.159H0zM25.052 221.301l1.691 19.448h19.45l4.018-19.661-25.159.213z" fill="#5b5e5f" fill-rule="nonzero"/><path d="M45.349 220.876l.845 19.874 6.018-19.874h-6.863z" fill="#2a2b2a" fill-rule="nonzero"/><path d="M194.328 240.75h19.452l1.69-19.449-25.159-.211 4.017 19.66z" fill="#5b5e5f" fill-rule="nonzero"/><path d="M195.174 221.089l-.846 19.449-6.018-19.449h6.864z" fill="#2a2b2a" fill-rule="nonzero"/><path d="M32.616.001l-8.501 155.27.807 66.017H215.63l.986-65.551-10-155.736h-174z" fill="#679a44" fill-rule="nonzero"/><path d="M37.048 45.717l-4.432 89.032 175.667-.368-5.167-87.732-166.068-.932z" fill="#313156" fill-rule="nonzero"/><path d="M100.361 134.594h.441l107.501-.219-5.186-87.75-9.627-.03-93.129 87.999z" fill="#0a1824" fill-rule="nonzero"/><path d="M66.116 209.126l1.847-63.833 105.974.417 1.846 63.209-109.667.207z" fill="#2a2b2a" fill-rule="nonzero"/><path d="M202.417 178.647l3.127 9.402-18.691.036 3.043-9.479 12.521.041zM53.329 178.647l3.126 9.402-18.691.036 3.044-9.479 12.521.041z" fill="#f09d74" fill-rule="nonzero"/><path d="M205.559 163.527c0 5.674-4.603 10.277-10.276 10.277-5.678 0-10.277-4.603-10.277-10.277a10.273 10.273 0 0 1 10.277-10.276c5.673 0 10.276 4.598 10.276 10.276M56.896 163.527c0 5.674-4.6 10.277-10.275 10.277-5.674 0-10.276-4.603-10.276-10.277 0-5.678 4.602-10.276 10.276-10.276 5.675 0 10.275 4.598 10.275 10.276" fill="#c1bfbc" fill-rule="nonzero"/><path d="M78.621 193.38l-4.454 4.271 93.616-.105-4.417-4.166H78.621zM78.621 175.882l-4.454 4.271 93.616-.105-4.417-4.166H78.621zM78.621 157.047l-4.454 4.271 93.616-.105-4.417-4.166H78.621z" fill="#5b5e5f" fill-rule="nonzero"/><clipPath id="ga"><path d="M33.616 45.718h67.13v68.033h-67.13z"/></clipPath><g clip-path="url(#ga)"><path d="M37.048 45.717l-3.432 68.032 67.13-67.634-63.698-.398z" fill="#0a1824" fill-rule="nonzero"/></g><path d="M105.547 134.619l87.881-88.024-5.247-.019-88.024 88.024 5.39.019z" fill="#494a73" fill-rule="nonzero"/><path d="M120.033 134.834h4.417v-89.25l-4.334.25-.083 89z" fill="#679a44" fill-rule="nonzero"/><path d="M265.756 94.197l-.317-4.801 16.417-1.5 6.583 18.75-.5 18.5-5.75 1.25-5.75-14.75.334-14.083-2.25.5-3.084-3.167-5.683-.699z" fill="#2a2b2a" fill-rule="nonzero"/><path d="M261.376 234.88l-1.613 6.223-16.493.471-1.717-4.542 11.764-2.588 8.059.436z" fill="#ffefcd" fill-rule="nonzero"/><path d="M149.608 20.271l.207-1.018-8.581-2.243.215-.838 8.684 1.948.258-1.006-8.527-2.562.201-.783 8.593 2.197.308-.992-9.991-3.099s-2.49 1.031-2.686.973l-15.916-4.586-1.05 4.134 16.149 3.64c.199.045 1.886 2.146 1.886 2.146l10.25 2.089z" fill="#fff" fill-rule="nonzero"/><path d="M159.856 20.063a7.25 7.25 0 0 1-7.25 7.25 7.25 7.25 0 1 1 7.25-7.25" fill="#fce4ae" fill-rule="nonzero"/><path d="M159.322 12.979a4.589 4.589 0 1 1-7.309-5.553 4.59 4.59 0 0 1 7.309 5.553" fill="#fce4ae" fill-rule="nonzero"/><path d="M176.894 15.813c0 5.533-4.485 10.021-10.019 10.021-5.533 0-10.019-4.488-10.019-10.021 0-5.532 4.486-10.02 10.019-10.02 5.534 0 10.019 4.488 10.019 10.02" fill="#fce4ae" fill-rule="nonzero"/><path d="M180.189 14.558c2.764 10.219-3.278 20.742-13.496 23.508-10.218 2.763-20.742-3.279-23.507-13.496l37.003-10.012" fill="#f8bb1c" fill-rule="nonzero"/><path fill="#37823f" fill-rule="nonzero" d="M53.451 24.647h68.238v12.334H53.451z"/><g><path fill="#37823f" fill-rule="nonzero" d="M53.451 9.314h49.435v12.333H53.451z"/></g></g></symbol><symbol viewBox="0 0 360 360" fill-rule="evenodd" clip-rule="evenodd" stroke-linejoin="round" stroke-miterlimit="1.414" id="image-vehicles--foodtruck-right" xmlns="http://www.w3.org/2000/svg"><g transform="translate(57.694 118.426)"><path d="M242.164 133.24l-9-5.666 1.5-2.25 9 6.333-1.5 1.583z" fill="#679a43" fill-rule="nonzero"/><path d="M271.477 234.296l-.897-42.556-.5-27.333 9.359 2.594.475 25.906-.834 40.833-7.603.556zM281.604 110.125l-2.202-6.183-5.484 1.62.206 5.854 7.48-1.291z" fill="#aa8b7e" fill-rule="nonzero"/><path d="M269.439 158.146l-11.75 28.75-4.425 49.453 8.066-1.191 5.609-47.012 14.475-21.071-3.725-11.179-8.25 2.25z" fill="#ceac99" fill-rule="nonzero"/><path d="M253.439 197.146l33.25-.25-7-45.5 1.873-41.323-7.896 1.366-11.227 12.677.958 30-9.958 43.03z" fill="#333358" fill-rule="nonzero"/><path d="M274.702 119.315l5.019 3.408-12.447 20.603-22.994-7.201 2.562-2.842 18.709 4.298 9.151-18.266z" fill="#ceac99" fill-rule="nonzero"/><path d="M273.699 115.107l-1.01 7.338 6.584 2.189 2.495-11.114" fill="#4b4c74" fill-rule="nonzero"/><path d="M281.749 113.509l-.164-3.396-11.544 1.359-7.602 12.676 11.664-6.568 7.646-4.071z" fill="#4b4c74" fill-rule="nonzero"/><path d="M279.659 104.867l1.221-9.651-15.124-1.019-.569 8.604 1.943-.111 1.79 5.488 5.255-1.693M246.018 136.547l-6.205 1.342-4.566-4.573 3.709-2.386 9.623 2.775-2.561 2.842z" fill="#ceac99" fill-rule="nonzero"/><path d="M243.296 129.923l-1.473 1.812 5.467 1.739-3.994-3.551zM275.325 101.96l1.911-.06.184-4.725-2.453.763.358 4.022z" fill="#ceac99" fill-rule="nonzero"/><path d="M273.984 106.957l.229-4.883 2.752-.236.365-4.643-2.908.676.116-2.608 6.418.276-1.192 9.411-5.78 2.007z" fill="#aa8b7e" fill-rule="nonzero"/><path d="M279.069 233.709l-1.614 6.223-16.494.471-1.717-4.542 12.159-2.588 7.666.436z" fill="#cfae81" fill-rule="nonzero"/><path fill="#37823f" fill-rule="nonzero" d="M214.783 136.584h18.239v30h-18.239zM207.449 37.918h91.163v10.239h-91.163z"/><path d="M210.883 65.608l21.376-1.108.211 7.821 4.229-.634-.023-13.261-26.002 2.745.209 4.437z" fill="#2a2b2a" fill-rule="nonzero"/><path d="M239.87 71.051l-.846 32.349-15.01 2.115-2.749-31.503 18.605-2.961z" fill="#2a2b2a" fill-rule="nonzero"/><path d="M239.864 71.159l-18.599 2.854.422 4.755 17.972-.104.211-7.505h-.006z" fill="#5b5e5f" fill-rule="nonzero"/><path d="M28.987 65.608L7.611 64.5 7.4 72.321l-4.228-.634.022-13.261 26.003 2.745-.21 4.437z" fill="#2a2b2a" fill-rule="nonzero"/><path d="M.846 103.401l15.01 2.115 2.749-31.503L0 71.052l.846 32.349z" fill="#2a2b2a" fill-rule="nonzero"/><path d="M0 71.159l.212 7.505 17.972.104.421-4.755L.006 71.159H0zM25.052 221.301l1.691 19.448h19.45l4.018-19.661-25.159.213z" fill="#5b5e5f" fill-rule="nonzero"/><path d="M45.349 220.876l.845 19.874 6.018-19.874h-6.863z" fill="#2a2b2a" fill-rule="nonzero"/><path d="M194.328 240.75h19.452l1.69-19.449-25.159-.211 4.017 19.66z" fill="#5b5e5f" fill-rule="nonzero"/><path d="M195.174 221.089l-.846 19.449-6.018-19.449h6.864z" fill="#2a2b2a" fill-rule="nonzero"/><path d="M32.616.001l-8.501 155.27.807 66.017H215.63l.986-65.551-10-155.736h-174z" fill="#679a44" fill-rule="nonzero"/><path d="M37.048 45.717l-4.432 89.032 175.667-.368-5.167-87.732-166.068-.932z" fill="#313156" fill-rule="nonzero"/><path d="M100.361 134.594h.441l107.501-.219-5.186-87.75-9.627-.03-93.129 87.999z" fill="#0a1824" fill-rule="nonzero"/><path d="M66.116 209.126l1.847-63.833 105.974.417 1.846 63.209-109.667.207z" fill="#2a2b2a" fill-rule="nonzero"/><path d="M202.417 178.647l3.127 9.402-18.691.036 3.043-9.479 12.521.041zM53.329 178.647l3.126 9.402-18.691.036 3.044-9.479 12.521.041z" fill="#f09d74" fill-rule="nonzero"/><path d="M205.559 163.527c0 5.674-4.603 10.277-10.276 10.277-5.678 0-10.277-4.603-10.277-10.277a10.273 10.273 0 0 1 10.277-10.276c5.673 0 10.276 4.598 10.276 10.276M56.896 163.527c0 5.674-4.6 10.277-10.275 10.277-5.674 0-10.276-4.603-10.276-10.277 0-5.678 4.602-10.276 10.276-10.276 5.675 0 10.275 4.598 10.275 10.276" fill="#c1bfbc" fill-rule="nonzero"/><path d="M78.621 193.38l-4.454 4.271 93.616-.105-4.417-4.166H78.621zM78.621 175.882l-4.454 4.271 93.616-.105-4.417-4.166H78.621zM78.621 157.047l-4.454 4.271 93.616-.105-4.417-4.166H78.621z" fill="#5b5e5f" fill-rule="nonzero"/><clipPath id="ha"><path d="M33.616 45.718h67.13v68.033h-67.13z"/></clipPath><g clip-path="url(#ha)"><path d="M37.048 45.717l-3.432 68.032 67.13-67.634-63.698-.398z" fill="#0a1824" fill-rule="nonzero"/></g><path d="M105.547 134.619l87.881-88.024-5.247-.019-88.024 88.024 5.39.019z" fill="#494a73" fill-rule="nonzero"/><path d="M120.033 134.834h4.417v-89.25l-4.334.25-.083 89z" fill="#679a44" fill-rule="nonzero"/><path d="M265.756 94.197l-.317-4.801 16.417-1.5 6.583 18.75-.5 18.5-5.75 1.25-5.75-14.75.334-14.083-2.25.5-3.084-3.167-5.683-.699z" fill="#2a2b2a" fill-rule="nonzero"/><path d="M261.376 234.88l-1.613 6.223-16.493.471-1.717-4.542 11.764-2.588 8.059.436z" fill="#ffefcd" fill-rule="nonzero"/><path d="M149.608 20.271l.207-1.018-8.581-2.243.215-.838 8.684 1.948.258-1.006-8.527-2.562.201-.783 8.593 2.197.308-.992-9.991-3.099s-2.49 1.031-2.686.973l-15.916-4.586-1.05 4.134 16.149 3.64c.199.045 1.886 2.146 1.886 2.146l10.25 2.089z" fill="#fff" fill-rule="nonzero"/><path d="M159.856 20.063a7.25 7.25 0 0 1-7.25 7.25 7.25 7.25 0 1 1 7.25-7.25" fill="#fce4ae" fill-rule="nonzero"/><path d="M159.322 12.979a4.589 4.589 0 1 1-7.309-5.553 4.59 4.59 0 0 1 7.309 5.553" fill="#fce4ae" fill-rule="nonzero"/><path d="M176.894 15.813c0 5.533-4.485 10.021-10.019 10.021-5.533 0-10.019-4.488-10.019-10.021 0-5.532 4.486-10.02 10.019-10.02 5.534 0 10.019 4.488 10.019 10.02" fill="#fce4ae" fill-rule="nonzero"/><path d="M180.189 14.558c2.764 10.219-3.278 20.742-13.496 23.508-10.218 2.763-20.742-3.279-23.507-13.496l37.003-10.012" fill="#f8bb1c" fill-rule="nonzero"/><path fill="#37823f" fill-rule="nonzero" d="M53.451 24.647h68.238v12.334H53.451z"/><g><path fill="#37823f" fill-rule="nonzero" d="M53.451 9.314h49.435v12.333H53.451z"/></g></g></symbol><symbol viewBox="0 0 288 360" fill-rule="evenodd" clip-rule="evenodd" stroke-linejoin="round" stroke-miterlimit="1.414" id="image-vehicles--rideshare-inbound-door-left" xmlns="http://www.w3.org/2000/svg"><g transform="translate(7.28 240.888)"><path d="M6.006 1.999L0 97.935l69.922.064h.001l7.978-66.502-21.38-29.498H6.006z" fill="#c1bebb" fill-rule="nonzero"/><path d="M6.006 1.999L0 97.935l69.922.064h.001l7.978-66.502-21.38-29.498H6.006z" fill="#c1bebb" fill-rule="nonzero"/><path d="M6.006 1.999L0 97.935l69.922.064h.001l7.978-66.502-21.38-29.498H6.006z" fill="#c1bebb" fill-rule="nonzero"/><path d="M.002 97.999h46.705L2.754 54.365.002 97.999z" fill="#e4e2dc" fill-rule="nonzero"/><path d="M73.552 41.132l-65.856-.021L9.929 6.987h44.349l21.3 30.124-2.026 4.021z" fill="#313156" fill-rule="nonzero"/><path d="M9.909 7.015L7.68 41.121l65.848.022 2.05-4.031L54.282 6.971l-44.373.044z" fill="#0a1723" fill-rule="nonzero" opacity=".3"/><path d="M83.116 33.777l-2.321-2.339-1.259-6.721-15.261 2.662 2.8 7.279 13.651 2.45 2.39-3.331z" fill="#e4e2dc" fill-rule="nonzero"/><path d="M71.592 35.447l6.621-10.503 1.297-.207 1.269 6.697 2.259 2.185-2.327 3.494-9.119-1.666z" fill="#c1bebb" fill-rule="nonzero"/><path d="M191.795 31.344l-2.322 2.339 2.39 3.331 13.652-2.45 2.8-7.279-15.261-2.66-1.259 6.719z" fill="#e4e2dc" fill-rule="nonzero"/><path d="M200.987 35.375l-6.641-10.531-1.297-.208-1.269 6.697-2.259 2.185 2.327 3.494 9.139-1.637z" fill="#c1bebb" fill-rule="nonzero"/><path d="M183.424 119.112h19.322l1.679-19.532-24.992-.21 3.991 19.742z" fill="#5c5e5f" fill-rule="nonzero"/><path d="M177.431 99.37l5.992 19.742.84-19.742h-6.832z" fill="#2a2b2a" fill-rule="nonzero"/><path d="M69.927 99.791l1.679 19.321h19.351L94.92 99.58l-24.993.211z" fill="#5c5e5f" fill-rule="nonzero"/><path d="M90.088 99.58l.869 19.532 5.964-19.532h-6.833z" fill="#2a2b2a" fill-rule="nonzero"/><path d="M93.628 0L66.123 56.102 69.919 100l132.638-.468 1.889-.007 2.519-43.694L178.847 0H93.628z" fill="#e4e2dc" fill-rule="nonzero"/><path d="M175.357 4.092H96.731l-13.67 30.02h107.925l-15.629-30.02z" fill="#313156" fill-rule="nonzero"/><g opacity=".3"><clipPath id="ia"><path d="M133.1 4.093h57.886v30.019H133.1z"/></clipPath><g clip-path="url(#ia)"><path d="M175.321 4.093H133.1l29.911 30.02h27.976l-15.666-30.02z" fill="#0f2342" fill-rule="nonzero"/></g></g><g opacity=".3"><clipPath id="ib"><path d="M83.061 4.093h47.504v30.019H83.061z"/></clipPath><g clip-path="url(#ib)"><path d="M96.69 4.093l-13.629 30.02h47.504l-30.219-30.02H96.69z" fill="#0a1723" fill-rule="nonzero"/></g></g><path d="M130.024 34.112h7.725l-29.115-30.02h-8.287l29.677 30.02z" fill="#494a72" fill-rule="nonzero"/><path d="M206.965 56.613l-30.037-.039 1.051 14.511 28.119.028.867-14.5z" fill="#f6f1e1" fill-rule="nonzero"/><path d="M177.979 71.085l-8.623-1.682 7.571-12.829 1.052 14.511z" fill="#ef9c74" fill-rule="nonzero"/><path d="M66.165 56.613l29.659-.039-1.052 14.511-27.344-.014-1.263-14.458z" fill="#f6f1e1" fill-rule="nonzero"/><path d="M94.772 71.085l6.87-1.682-5.818-12.829-1.052 14.511z" fill="#ef9c74" fill-rule="nonzero"/><path d="M101.598 69.402h67.715l7.604-12.831-81.06.043 5.741 12.788z" fill="#2a2b2a" fill-rule="nonzero"/><path d="M170.083 60.406l-2.592 4.272-64.038-.055-1.926-3.936 68.556-.281z" fill="#5c5e5f" fill-rule="nonzero"/><path d="M148.482 34.112h-28.157l-2.811-4.005 2.811-4.303h28.18l2.8 4.361-2.823 3.947z" fill="#ef67cf" fill-rule="nonzero"/></g></symbol><symbol viewBox="0 0 288 360" fill-rule="evenodd" clip-rule="evenodd" stroke-linejoin="round" stroke-miterlimit="1.414" id="image-vehicles--rideshare-inbound-door-right" xmlns="http://www.w3.org/2000/svg"><g transform="translate(7.28 240.888)"><g transform="matrix(-1 0 0 1 272.871 0)"><path d="M6.006 1.999L0 97.935l69.922.064h.001l7.978-66.502-21.38-29.498H6.006z" fill="#c1bebb" fill-rule="nonzero"/><path d="M6.006 1.999L0 97.935l69.922.064h.001l7.978-66.502-21.38-29.498H6.006z" fill="#c1bebb" fill-rule="nonzero"/><path d="M6.006 1.999L0 97.935l69.922.064h.001l7.978-66.502-21.38-29.498H6.006z" fill="#c1bebb" fill-rule="nonzero"/><path d="M.002 97.999h46.705L2.754 54.365.002 97.999z" fill="#e4e2dc" fill-rule="nonzero"/><path d="M73.552 41.132l-65.856-.021L9.929 6.987h44.349l21.3 30.124-2.026 4.021z" fill="#313156" fill-rule="nonzero"/><path d="M9.909 7.015L7.68 41.121l65.848.022 2.05-4.031L54.282 6.971l-44.373.044z" fill="#0a1723" fill-rule="nonzero" opacity=".3"/></g><path d="M83.116 33.777l-2.321-2.339-1.259-6.721-15.261 2.662 2.8 7.279 13.651 2.45 2.39-3.331z" fill="#e4e2dc" fill-rule="nonzero"/><path d="M71.592 35.447l6.621-10.503 1.297-.207 1.269 6.697 2.259 2.185-2.327 3.494-9.119-1.666z" fill="#c1bebb" fill-rule="nonzero"/><path d="M191.795 31.344l-2.322 2.339 2.39 3.331 13.652-2.45 2.8-7.279-15.261-2.66-1.259 6.719z" fill="#e4e2dc" fill-rule="nonzero"/><path d="M200.987 35.375l-6.641-10.531-1.297-.208-1.269 6.697-2.259 2.185 2.327 3.494 9.139-1.637z" fill="#c1bebb" fill-rule="nonzero"/><path d="M183.424 119.112h19.322l1.679-19.532-24.992-.21 3.991 19.742z" fill="#5c5e5f" fill-rule="nonzero"/><path d="M177.431 99.37l5.992 19.742.84-19.742h-6.832z" fill="#2a2b2a" fill-rule="nonzero"/><path d="M69.927 99.791l1.679 19.321h19.351L94.92 99.58l-24.993.211z" fill="#5c5e5f" fill-rule="nonzero"/><path d="M90.088 99.58l.869 19.532 5.964-19.532h-6.833z" fill="#2a2b2a" fill-rule="nonzero"/><path d="M93.628 0L66.123 56.102 69.919 100l132.638-.468 1.889-.007 2.519-43.694L178.847 0H93.628z" fill="#e4e2dc" fill-rule="nonzero"/><path d="M175.357 4.092H96.731l-13.67 30.02h107.925l-15.629-30.02z" fill="#313156" fill-rule="nonzero"/><g opacity=".3"><clipPath id="ja"><path d="M133.1 4.093h57.886v30.019H133.1z"/></clipPath><g clip-path="url(#ja)"><path d="M175.321 4.093H133.1l29.911 30.02h27.976l-15.666-30.02z" fill="#0f2342" fill-rule="nonzero"/></g></g><g opacity=".3"><clipPath id="jb"><path d="M83.061 4.093h47.504v30.019H83.061z"/></clipPath><g clip-path="url(#jb)"><path d="M96.69 4.093l-13.629 30.02h47.504l-30.219-30.02H96.69z" fill="#0a1723" fill-rule="nonzero"/></g></g><path d="M130.024 34.112h7.725l-29.115-30.02h-8.287l29.677 30.02z" fill="#494a72" fill-rule="nonzero"/><path d="M206.965 56.613l-30.037-.039 1.051 14.511 28.119.028.867-14.5z" fill="#f6f1e1" fill-rule="nonzero"/><path d="M177.979 71.085l-8.623-1.682 7.571-12.829 1.052 14.511z" fill="#ef9c74" fill-rule="nonzero"/><path d="M66.165 56.613l29.659-.039-1.052 14.511-27.344-.014-1.263-14.458z" fill="#f6f1e1" fill-rule="nonzero"/><path d="M94.772 71.085l6.87-1.682-5.818-12.829-1.052 14.511z" fill="#ef9c74" fill-rule="nonzero"/><path d="M101.598 69.402h67.715l7.604-12.831-81.06.043 5.741 12.788z" fill="#2a2b2a" fill-rule="nonzero"/><path d="M170.083 60.406l-2.592 4.272-64.038-.055-1.926-3.936 68.556-.281z" fill="#5c5e5f" fill-rule="nonzero"/><path d="M148.482 34.112h-28.157l-2.811-4.005 2.811-4.303h28.18l2.8 4.361-2.823 3.947z" fill="#ef67cf" fill-rule="nonzero"/></g></symbol><symbol viewBox="0 0 288 360" fill-rule="evenodd" clip-rule="evenodd" stroke-linejoin="round" stroke-miterlimit="1.414" id="image-vehicles--rideshare-outbound-door-left" xmlns="http://www.w3.org/2000/svg"><g transform="translate(7.903 240.888)"><path d="M6.006 1.999L0 97.936 69.923 98l7.978-66.502-21.38-29.499H6.006z" fill="#c1bebb" fill-rule="nonzero"/><path d="M6.006 1.999L0 97.936 69.923 98l7.978-66.502-21.38-29.499H6.006z" fill="#c1bebb" fill-rule="nonzero"/><path d="M6.006 1.999L0 97.936 69.923 98l7.978-66.502-21.38-29.499H6.006z" fill="#c1bebb" fill-rule="nonzero"/><path d="M73.552 41.132l2.025-4.021L54.278 6.987H9.929L7.696 41.111l65.856.021z" fill="#313156" fill-rule="nonzero"/><clipPath id="ka"><path d="M7.68 6.972h67.899v34.172H7.68z"/></clipPath><g opacity=".3" clip-path="url(#ka)"><clipPath id="kb"><path d="M7.68 6.972h67.899v34.172H7.68z"/></clipPath><g clip-path="url(#kb)"><path d="M54.282 6.972l21.297 30.141-2.051 4.031-65.848-.022L9.909 7.016l44.373-.044z" fill="#0a1723" fill-rule="nonzero"/></g></g><path d="M7.292 46.298L4.393 91.799l67.332-.083v-45.5l-64.433.082z" fill="#ecdbb1" fill-rule="nonzero"/><path d="M68.465 99.58l1.68 19.532h19.321l3.991-19.743-24.992.211z" fill="#5c5e5f" fill-rule="nonzero"/><path d="M88.627 99.37l.84 19.742 5.992-19.742h-6.832z" fill="#2a2b2a" fill-rule="nonzero"/><path d="M181.933 119.112h19.35l1.68-19.321-24.993-.211 3.963 19.532z" fill="#5c5e5f" fill-rule="nonzero"/><path d="M175.97 99.58l5.963 19.532.87-19.532h-6.833z" fill="#2a2b2a" fill-rule="nonzero"/><path d="M94.043 0L65.926 55.831l2.518 43.694 1.89.007 132.638.468 3.795-43.898L179.262 0H94.043z" fill="#e4e2dc" fill-rule="nonzero"/><path d="M65.92 56.422l.834 14.584 18.513.002.94-14.502-20.287-.084z" fill="#ae2025" fill-rule="nonzero"/><path d="M90.457 56.464l7.041 10.46-4.455 4.169-7.771-.105 1.055-14.463 4.13-.061z" fill="#f6f1e1" fill-rule="nonzero"/><path d="M186.285 56.517l1.051 14.491 18.182-.044 1.248-14.501-20.481.054z" fill="#ae2025" fill-rule="nonzero"/><path d="M182.281 56.516l-6.009 10.447 4.417 4.044 6.666-.044-1.083-14.459-3.991.012z" fill="#f6f1e1" fill-rule="nonzero"/><path d="M99.533 6.092l-14.629 33.02h101.925L174.16 6.092H99.533z" fill="#313156" fill-rule="nonzero"/><path d="M108.543 97.06a5.042 5.042 0 0 1-10.081 0 5.04 5.04 0 0 1 10.081 0" fill="#2a2b2a" fill-rule="nonzero"/><path d="M97.497 66.842l-4.454 4.271 87.604-.105-4.417-4.166H97.497z" fill="#c1bebb" fill-rule="nonzero"/><path d="M119.876 78.468l-3.036 10.645h35.407l-3.001-10.515-29.37-.13z" fill="#f4f2ed" fill-rule="nonzero"/><g opacity=".3"><clipPath id="kc"><path d="M84.904 6.093h52.886v33.019H84.904z"/></clipPath><g clip-path="url(#kc)"><path d="M99.528 6.093L84.904 39.112h19.976l32.911-33.019H99.528z" fill="#0f2342" fill-rule="nonzero"/></g></g><g opacity=".3"><clipPath id="kd"><path d="M137.325 6.093h49.504v33.019h-49.504z"/></clipPath><g clip-path="url(#kd)"><path d="M174.195 6.093h-3.651l-33.219 33.02h49.504l-12.634-33.02z" fill="#0a1723" fill-rule="nonzero"/></g></g><path d="M137.866 39.112l32.678-33.02h-8.287l-32.116 33.02h7.725z" fill="#494a72" fill-rule="nonzero"/><path d="M94.713 35.059l.633-7.344 9.207-.022.533 7.339-10.373.027z" fill="#ef67cf" fill-rule="nonzero"/></g></symbol><symbol viewBox="0 0 288 360" fill-rule="evenodd" clip-rule="evenodd" stroke-linejoin="round" stroke-miterlimit="1.414" id="image-vehicles--rideshare-outbound-door-right" xmlns="http://www.w3.org/2000/svg"><g transform="translate(7.903 240.888)"><g transform="matrix(-1 0 0 1 271.922 0)"><path d="M6.006 1.999L0 97.936 69.923 98l7.978-66.502-21.38-29.499H6.006z" fill="#c1bebb" fill-rule="nonzero"/><path d="M6.006 1.999L0 97.936 69.923 98l7.978-66.502-21.38-29.499H6.006z" fill="#c1bebb" fill-rule="nonzero"/><path d="M6.006 1.999L0 97.936 69.923 98l7.978-66.502-21.38-29.499H6.006z" fill="#c1bebb" fill-rule="nonzero"/><path d="M73.552 41.132l2.025-4.021L54.278 6.987H9.929L7.696 41.111l65.856.021z" fill="#313156" fill-rule="nonzero"/><clipPath id="la"><path d="M7.68 6.972h67.899v34.172H7.68z"/></clipPath><g opacity=".3" clip-path="url(#la)"><clipPath id="lb"><path d="M7.68 6.972h67.899v34.172H7.68z"/></clipPath><g clip-path="url(#lb)"><path d="M54.282 6.972l21.297 30.141-2.051 4.031-65.848-.022L9.909 7.016l44.373-.044z" fill="#0a1723" fill-rule="nonzero"/></g></g><path d="M7.292 46.298L4.393 91.799l67.332-.083v-45.5l-64.433.082z" fill="#ecdbb1" fill-rule="nonzero"/></g><path d="M68.465 99.58l1.68 19.532h19.321l3.991-19.743-24.992.211z" fill="#5c5e5f" fill-rule="nonzero"/><path d="M88.627 99.37l.84 19.742 5.992-19.742h-6.832z" fill="#2a2b2a" fill-rule="nonzero"/><path d="M181.933 119.112h19.35l1.68-19.321-24.993-.211 3.963 19.532z" fill="#5c5e5f" fill-rule="nonzero"/><path d="M175.97 99.58l5.963 19.532.87-19.532h-6.833z" fill="#2a2b2a" fill-rule="nonzero"/><path d="M94.043 0L65.926 55.831l2.518 43.694 1.89.007 132.638.468 3.795-43.898L179.262 0H94.043z" fill="#e4e2dc" fill-rule="nonzero"/><path d="M65.92 56.422l.834 14.584 18.513.002.94-14.502-20.287-.084z" fill="#ae2025" fill-rule="nonzero"/><path d="M90.457 56.464l7.041 10.46-4.455 4.169-7.771-.105 1.055-14.463 4.13-.061z" fill="#f6f1e1" fill-rule="nonzero"/><path d="M186.285 56.517l1.051 14.491 18.182-.044 1.248-14.501-20.481.054z" fill="#ae2025" fill-rule="nonzero"/><path d="M182.281 56.516l-6.009 10.447 4.417 4.044 6.666-.044-1.083-14.459-3.991.012z" fill="#f6f1e1" fill-rule="nonzero"/><path d="M99.533 6.092l-14.629 33.02h101.925L174.16 6.092H99.533z" fill="#313156" fill-rule="nonzero"/><path d="M108.543 97.06a5.042 5.042 0 0 1-10.081 0 5.04 5.04 0 0 1 10.081 0" fill="#2a2b2a" fill-rule="nonzero"/><path d="M97.497 66.842l-4.454 4.271 87.604-.105-4.417-4.166H97.497z" fill="#c1bebb" fill-rule="nonzero"/><path d="M119.876 78.468l-3.036 10.645h35.407l-3.001-10.515-29.37-.13z" fill="#f4f2ed" fill-rule="nonzero"/><g opacity=".3"><clipPath id="lc"><path d="M84.904 6.093h52.886v33.019H84.904z"/></clipPath><g clip-path="url(#lc)"><path d="M99.528 6.093L84.904 39.112h19.976l32.911-33.019H99.528z" fill="#0f2342" fill-rule="nonzero"/></g></g><g opacity=".3"><clipPath id="ld"><path d="M137.325 6.093h49.504v33.019h-49.504z"/></clipPath><g clip-path="url(#ld)"><path d="M174.195 6.093h-3.651l-33.219 33.02h49.504l-12.634-33.02z" fill="#0a1723" fill-rule="nonzero"/></g></g><path d="M137.866 39.112l32.678-33.02h-8.287l-32.116 33.02h7.725z" fill="#494a72" fill-rule="nonzero"/><path d="M94.713 35.059l.633-7.344 9.207-.022.533 7.339-10.373.027z" fill="#ef67cf" fill-rule="nonzero"/></g></symbol><symbol viewBox="0 0 288 360" fill-rule="evenodd" clip-rule="evenodd" stroke-linejoin="round" stroke-miterlimit="1.414" id="image-vehicles--taxi-inbound-door-left" xmlns="http://www.w3.org/2000/svg"><g transform="translate(7.856 233.566)"><g transform="translate(-.418 .001)"><path d="M6.006 9.32L0 105.256l69.922.064h.001l7.978-66.501L56.521 9.32H6.006z" fill="#c1bebb" fill-rule="nonzero"/><path d="M6.006 9.32L0 105.256l69.922.064h.001l7.978-66.501L56.521 9.32H6.006z" fill="#c1bebb" fill-rule="nonzero"/><path d="M6.006 9.32L0 105.256l69.922.064h.001l7.978-66.501L56.521 9.32H6.006z" fill="#f8bb1c" fill-rule="nonzero"/><path d="M.002 105.32h46.705L2.754 61.686.002 105.32z" fill="#fcd157" fill-rule="nonzero"/><path d="M73.552 48.453l-65.856-.021 2.233-34.124h44.349l21.3 30.124-2.026 4.021z" fill="#313156" fill-rule="nonzero"/><clipPath id="ma"><path d="M7.68 14.293h67.898v34.172H7.68z"/></clipPath><g opacity=".3" clip-path="url(#ma)"><clipPath id="mb"><path d="M7.68 14.292h67.899v34.172H7.68z"/></clipPath><g clip-path="url(#mb)"><path d="M9.909 14.337L7.68 48.443l65.848.022 2.05-4.032-21.296-30.14-44.373.044z" fill="#0a1723" fill-rule="nonzero"/></g></g><path d="M7.801 69.309H2.218l.562-5.583h5.021v5.583zM7.822 69.331h5.583v5.583H7.822zM13.395 63.725h5.583v5.583h-5.583zM18.999 69.331h5.583v5.583h-5.583zM24.593 63.725h5.583v5.583h-5.583zM30.197 69.331h5.583v5.583h-5.583zM35.77 63.725h5.583v5.583H35.77zM41.374 69.331h5.583v5.583h-5.583zM46.968 63.725h5.583v5.583h-5.583zM52.572 69.331h5.583v5.583h-5.583zM58.145 63.725h5.583v5.583h-5.583zM63.749 69.331h5.583v5.583h-5.583z" fill="#2a2b2a" fill-rule="nonzero"/><path d="M7.801 69.309H2.218l.382-5.591 2.196.008 3.005 2.989v2.594zM13.405 74.913H7.822V69.33h2.611l2.972 2.938v2.645z" fill="#5d5f60" fill-rule="nonzero"/></g><g transform="translate(-.151)"><path d="M83.116 41.098l-2.321-2.339-1.259-6.721L64.275 34.7l2.8 7.279 13.651 2.45 2.39-3.331z" fill="#fcd157" fill-rule="nonzero"/><path d="M71.592 42.767l6.621-10.502 1.297-.208 1.269 6.697 2.259 2.185-2.327 3.494-9.119-1.666z" fill="#f8bb1c" fill-rule="nonzero"/><path d="M191.795 38.665l-2.322 2.34 2.39 3.33 13.652-2.45 2.8-7.279-15.261-2.66-1.259 6.719z" fill="#fcd157" fill-rule="nonzero"/><path d="M200.987 42.697l-6.641-10.531-1.297-.208-1.269 6.697-2.259 2.185 2.327 3.494 9.139-1.637z" fill="#f8bb1c" fill-rule="nonzero"/><path d="M183.424 126.433h19.322l1.679-19.532-24.992-.21 3.991 19.742z" fill="#5c5e5f" fill-rule="nonzero"/><path d="M177.431 106.692l5.992 19.742.84-19.742h-6.832z" fill="#2a2b2a" fill-rule="nonzero"/><path d="M69.927 107.112l1.679 19.321h19.351l3.963-19.532-24.993.211z" fill="#5c5e5f" fill-rule="nonzero"/><path d="M90.088 106.901l.869 19.532 5.964-19.532h-6.833z" fill="#2a2b2a" fill-rule="nonzero"/><path d="M93.628 7.321L66.123 63.422l3.796 43.899 132.637-.469 1.89-.007 2.519-43.693-28.118-55.831H93.628z" fill="#fcd157" fill-rule="nonzero"/><path d="M175.357 11.414H96.731l-13.67 30.019h107.925l-15.629-30.019z" fill="#313156" fill-rule="nonzero"/><clipPath id="mc"><path d="M133.1 11.414h57.886v30.019H133.1z"/></clipPath><g opacity=".3" clip-path="url(#mc)"><clipPath id="md"><path d="M133.1 11.414h57.886v30.019H133.1z"/></clipPath><g clip-path="url(#md)"><path d="M175.321 11.414H133.1l29.911 30.02h27.976l-15.666-30.02z" fill="#0f2342" fill-rule="nonzero"/></g></g><clipPath id="me"><path d="M83.061 11.414h47.504v30.019H83.061z"/></clipPath><g opacity=".3" clip-path="url(#me)"><clipPath id="mf"><path d="M83.061 11.414h47.504v30.019H83.061z"/></clipPath><g clip-path="url(#mf)"><path d="M96.69 11.414l-13.629 30.02h47.504l-30.219-30.02H96.69z" fill="#0a1723" fill-rule="nonzero"/></g></g><path d="M130.024 41.433h7.725l-29.115-30.019h-8.287l29.677 30.019z" fill="#494a72" fill-rule="nonzero"/><path d="M206.965 63.934l-30.037-.039 1.051 14.511 28.119.028.867-14.5z" fill="#f6f1e1" fill-rule="nonzero"/><path d="M177.979 78.406l-8.623-1.682 7.571-12.829 1.052 14.511z" fill="#ef9c74" fill-rule="nonzero"/><path d="M66.165 63.934l29.659-.039-1.052 14.511-27.344-.014-1.263-14.458z" fill="#f6f1e1" fill-rule="nonzero"/><path d="M94.772 78.406l6.87-1.682-5.818-12.829-1.052 14.511z" fill="#ef9c74" fill-rule="nonzero"/><path d="M101.598 76.723h67.715l7.604-12.831-81.06.043 5.741 12.788z" fill="#2a2b2a" fill-rule="nonzero"/><path d="M170.083 67.727l-2.592 4.272-64.038-.055-1.926-3.936 68.556-.281z" fill="#5c5e5f" fill-rule="nonzero"/><path d="M121.669 7.312h25.846l-2-7.312h-20.927s-2.96 7.368-2.919 7.312" fill="#f6f1e2" fill-rule="nonzero"/><path d="M126.032 7.33h17.12l-1.325-4.844h-13.861s-1.961 4.881-1.934 4.844" fill="#2a2b2a" fill-rule="nonzero"/></g></g></symbol><symbol viewBox="0 0 288 360" fill-rule="evenodd" clip-rule="evenodd" stroke-linejoin="round" stroke-miterlimit="1.414" id="image-vehicles--taxi-inbound-door-right" xmlns="http://www.w3.org/2000/svg"><g transform="translate(7.856 233.566)"><g transform="matrix(-1 0 0 1 272.262 .001)"><path d="M6.006 9.32L0 105.256l69.922.064h.001l7.978-66.501L56.521 9.32H6.006z" fill="#c1bebb" fill-rule="nonzero"/><path d="M6.006 9.32L0 105.256l69.922.064h.001l7.978-66.501L56.521 9.32H6.006z" fill="#c1bebb" fill-rule="nonzero"/><path d="M6.006 9.32L0 105.256l69.922.064h.001l7.978-66.501L56.521 9.32H6.006z" fill="#f8bb1c" fill-rule="nonzero"/><path d="M.002 105.32h46.705L2.754 61.686.002 105.32z" fill="#fcd157" fill-rule="nonzero"/><path d="M73.552 48.453l-65.856-.021 2.233-34.124h44.349l21.3 30.124-2.026 4.021z" fill="#313156" fill-rule="nonzero"/><clipPath id="na"><path d="M7.68 14.293h67.898v34.172H7.68z"/></clipPath><g opacity=".3" clip-path="url(#na)"><clipPath id="nb"><path d="M7.68 14.292h67.899v34.172H7.68z"/></clipPath><g clip-path="url(#nb)"><path d="M9.909 14.337L7.68 48.443l65.848.022 2.05-4.032-21.296-30.14-44.373.044z" fill="#0a1723" fill-rule="nonzero"/></g></g><path d="M7.801 69.309H2.218l.562-5.583h5.021v5.583zM7.822 69.331h5.583v5.583H7.822zM13.395 63.725h5.583v5.583h-5.583zM18.999 69.331h5.583v5.583h-5.583zM24.593 63.725h5.583v5.583h-5.583zM30.197 69.331h5.583v5.583h-5.583zM35.77 63.725h5.583v5.583H35.77zM41.374 69.331h5.583v5.583h-5.583zM46.968 63.725h5.583v5.583h-5.583zM52.572 69.331h5.583v5.583h-5.583zM58.145 63.725h5.583v5.583h-5.583zM63.749 69.331h5.583v5.583h-5.583z" fill="#2a2b2a" fill-rule="nonzero"/><path d="M7.801 69.309H2.218l.382-5.591 2.196.008 3.005 2.989v2.594zM13.405 74.913H7.822V69.33h2.611l2.972 2.938v2.645z" fill="#5d5f60" fill-rule="nonzero"/></g><g transform="translate(-.151)"><path d="M83.116 41.098l-2.321-2.339-1.259-6.721L64.275 34.7l2.8 7.279 13.651 2.45 2.39-3.331z" fill="#fcd157" fill-rule="nonzero"/><path d="M71.592 42.767l6.621-10.502 1.297-.208 1.269 6.697 2.259 2.185-2.327 3.494-9.119-1.666z" fill="#f8bb1c" fill-rule="nonzero"/><path d="M191.795 38.665l-2.322 2.34 2.39 3.33 13.652-2.45 2.8-7.279-15.261-2.66-1.259 6.719z" fill="#fcd157" fill-rule="nonzero"/><path d="M200.987 42.697l-6.641-10.531-1.297-.208-1.269 6.697-2.259 2.185 2.327 3.494 9.139-1.637z" fill="#f8bb1c" fill-rule="nonzero"/><path d="M183.424 126.433h19.322l1.679-19.532-24.992-.21 3.991 19.742z" fill="#5c5e5f" fill-rule="nonzero"/><path d="M177.431 106.692l5.992 19.742.84-19.742h-6.832z" fill="#2a2b2a" fill-rule="nonzero"/><path d="M69.927 107.112l1.679 19.321h19.351l3.963-19.532-24.993.211z" fill="#5c5e5f" fill-rule="nonzero"/><path d="M90.088 106.901l.869 19.532 5.964-19.532h-6.833z" fill="#2a2b2a" fill-rule="nonzero"/><path d="M93.628 7.321L66.123 63.422l3.796 43.899 132.637-.469 1.89-.007 2.519-43.693-28.118-55.831H93.628z" fill="#fcd157" fill-rule="nonzero"/><path d="M175.357 11.414H96.731l-13.67 30.019h107.925l-15.629-30.019z" fill="#313156" fill-rule="nonzero"/><clipPath id="nc"><path d="M133.1 11.414h57.886v30.019H133.1z"/></clipPath><g opacity=".3" clip-path="url(#nc)"><clipPath id="nd"><path d="M133.1 11.414h57.886v30.019H133.1z"/></clipPath><g clip-path="url(#nd)"><path d="M175.321 11.414H133.1l29.911 30.02h27.976l-15.666-30.02z" fill="#0f2342" fill-rule="nonzero"/></g></g><clipPath id="ne"><path d="M83.061 11.414h47.504v30.019H83.061z"/></clipPath><g opacity=".3" clip-path="url(#ne)"><clipPath id="nf"><path d="M83.061 11.414h47.504v30.019H83.061z"/></clipPath><g clip-path="url(#nf)"><path d="M96.69 11.414l-13.629 30.02h47.504l-30.219-30.02H96.69z" fill="#0a1723" fill-rule="nonzero"/></g></g><path d="M130.024 41.433h7.725l-29.115-30.019h-8.287l29.677 30.019z" fill="#494a72" fill-rule="nonzero"/><path d="M206.965 63.934l-30.037-.039 1.051 14.511 28.119.028.867-14.5z" fill="#f6f1e1" fill-rule="nonzero"/><path d="M177.979 78.406l-8.623-1.682 7.571-12.829 1.052 14.511z" fill="#ef9c74" fill-rule="nonzero"/><path d="M66.165 63.934l29.659-.039-1.052 14.511-27.344-.014-1.263-14.458z" fill="#f6f1e1" fill-rule="nonzero"/><path d="M94.772 78.406l6.87-1.682-5.818-12.829-1.052 14.511z" fill="#ef9c74" fill-rule="nonzero"/><path d="M101.598 76.723h67.715l7.604-12.831-81.06.043 5.741 12.788z" fill="#2a2b2a" fill-rule="nonzero"/><path d="M170.083 67.727l-2.592 4.272-64.038-.055-1.926-3.936 68.556-.281z" fill="#5c5e5f" fill-rule="nonzero"/><path d="M121.669 7.312h25.846l-2-7.312h-20.927s-2.96 7.368-2.919 7.312" fill="#f6f1e2" fill-rule="nonzero"/><path d="M126.032 7.33h17.12l-1.325-4.844h-13.861s-1.961 4.881-1.934 4.844" fill="#2a2b2a" fill-rule="nonzero"/></g></g></symbol><symbol viewBox="0 0 288 360" fill-rule="evenodd" clip-rule="evenodd" stroke-linejoin="round" stroke-miterlimit="1.414" id="image-vehicles--taxi-outbound-door-left" xmlns="http://www.w3.org/2000/svg"><g transform="translate(7.903 234.247)"><path d="M6.006 9.311L0 105.247l69.923.064 7.978-66.501-21.38-29.499H6.006z" fill="#c1bebb" fill-rule="nonzero"/><path d="M6.006 9.311L0 105.247l69.923.064 7.978-66.501-21.38-29.499H6.006z" fill="#c1bebb" fill-rule="nonzero"/><path d="M6.006 9.311L0 105.247l69.923.064 7.978-66.501-21.38-29.499H6.006z" fill="#fcd157" fill-rule="nonzero"/><path d="M73.552 48.443l2.025-4.021-21.299-30.124H9.929L7.696 48.422l65.856.021z" fill="#313156" fill-rule="nonzero"/><clipPath id="oa"><path d="M7.68 14.283h67.899v34.172H7.68z"/></clipPath><g opacity=".3" clip-path="url(#oa)"><clipPath id="ob"><path d="M7.68 14.283h67.899v34.172H7.68z"/></clipPath><g clip-path="url(#ob)"><path d="M54.282 14.283l21.297 30.141-2.051 4.031-65.848-.022 2.229-34.106 44.373-.044z" fill="#0a1723" fill-rule="nonzero"/></g></g><path d="M7.292 53.609L4.393 99.11l67.332-.083v-45.5l-64.433.082z" fill="#f4f3ee" fill-rule="nonzero"/></g><g transform="translate(7.657 233.577)"><path d="M68.465 106.891l1.68 19.532h19.321l3.991-19.742-24.992.21z" fill="#5c5e5f" fill-rule="nonzero"/><path d="M88.627 106.682l.84 19.741 5.992-19.741h-6.832z" fill="#2a2b2a" fill-rule="nonzero"/><path d="M181.933 126.423h19.35l1.68-19.321-24.993-.211 3.963 19.532z" fill="#5c5e5f" fill-rule="nonzero"/><path d="M175.97 106.891l5.963 19.532.87-19.532h-6.833z" fill="#2a2b2a" fill-rule="nonzero"/><path d="M94.043 7.311L65.926 63.142l2.518 43.694 1.89.007 132.638.468 3.795-43.898-27.505-56.102H94.043z" fill="#fcd157" fill-rule="nonzero"/><path d="M65.92 63.733l.834 14.584 18.513.002.94-14.502-20.287-.084z" fill="#ae2025" fill-rule="nonzero"/><path d="M90.457 63.775l7.041 10.46-4.455 4.169-7.771-.105 1.055-14.463 4.13-.061z" fill="#f6f1e1" fill-rule="nonzero"/><path d="M186.285 63.828l1.051 14.491 18.182-.044 1.248-14.501-20.481.054z" fill="#ae2025" fill-rule="nonzero"/><path d="M182.281 63.827l-6.009 10.447 4.417 4.044 6.666-.044-1.083-14.459-3.991.012z" fill="#f6f1e1" fill-rule="nonzero"/><path d="M99.533 13.404L84.904 46.423h101.925L174.16 13.404H99.533z" fill="#313156" fill-rule="nonzero"/><path d="M108.543 104.371a5.042 5.042 0 0 1-10.081 0 5.04 5.04 0 0 1 10.081 0" fill="#2a2b2a" fill-rule="nonzero"/><path d="M97.497 74.153l-4.454 4.271 87.604-.105-4.417-4.166H97.497z" fill="#f8bb1c" fill-rule="nonzero"/><path d="M119.876 85.778l-3.036 10.645h35.407l-3.001-10.515-29.37-.13z" fill="#f4f2ed" fill-rule="nonzero"/><g opacity=".3"><clipPath id="oc"><path d="M84.904 13.404h52.886v33.019H84.904z"/></clipPath><g clip-path="url(#oc)"><path d="M99.528 13.404l-14.624 33.02h19.976l32.911-33.02H99.528z" fill="#0f2342" fill-rule="nonzero"/></g></g><g opacity=".3"><clipPath id="od"><path d="M137.325 13.404h49.504v33.019h-49.504z"/></clipPath><g clip-path="url(#od)"><path d="M174.195 13.404h-3.651l-33.219 33.02h49.504l-12.634-33.02z" fill="#0a1723" fill-rule="nonzero"/></g></g><path d="M137.866 46.423l32.678-33.019h-8.287l-32.116 33.019h7.725z" fill="#494a72" fill-rule="nonzero"/><path d="M124.93 7.312h25.846l-2-7.312h-20.927s-2.96 7.368-2.919 7.312" fill="#f6f1e2" fill-rule="nonzero"/><path d="M129.293 7.33h17.12l-1.325-4.844h-13.86s-1.961 4.881-1.935 4.844" fill="#2a2b2a" fill-rule="nonzero"/></g></symbol><symbol viewBox="0 0 288 360" fill-rule="evenodd" clip-rule="evenodd" stroke-linejoin="round" stroke-miterlimit="1.414" id="image-vehicles--taxi-outbound-door-right" xmlns="http://www.w3.org/2000/svg"><g transform="matrix(-1 0 0 1 279.633 234.247)"><path d="M6.006 9.311L0 105.247l69.923.064 7.978-66.501-21.38-29.499H6.006z" fill="#c1bebb" fill-rule="nonzero"/><path d="M6.006 9.311L0 105.247l69.923.064 7.978-66.501-21.38-29.499H6.006z" fill="#c1bebb" fill-rule="nonzero"/><path d="M6.006 9.311L0 105.247l69.923.064 7.978-66.501-21.38-29.499H6.006z" fill="#fcd157" fill-rule="nonzero"/><path d="M73.552 48.443l2.025-4.021-21.299-30.124H9.929L7.696 48.422l65.856.021z" fill="#313156" fill-rule="nonzero"/><clipPath id="pa"><path d="M7.68 14.283h67.899v34.172H7.68z"/></clipPath><g opacity=".3" clip-path="url(#pa)"><clipPath id="pb"><path d="M7.68 14.283h67.899v34.172H7.68z"/></clipPath><g clip-path="url(#pb)"><path d="M54.282 14.283l21.297 30.141-2.051 4.031-65.848-.022 2.229-34.106 44.373-.044z" fill="#0a1723" fill-rule="nonzero"/></g></g><path d="M7.292 53.609L4.393 99.11l67.332-.083v-45.5l-64.433.082z" fill="#f4f3ee" fill-rule="nonzero"/></g><g transform="translate(7.657 233.577)"><path d="M68.465 106.891l1.68 19.532h19.321l3.991-19.742-24.992.21z" fill="#5c5e5f" fill-rule="nonzero"/><path d="M88.627 106.682l.84 19.741 5.992-19.741h-6.832z" fill="#2a2b2a" fill-rule="nonzero"/><path d="M181.933 126.423h19.35l1.68-19.321-24.993-.211 3.963 19.532z" fill="#5c5e5f" fill-rule="nonzero"/><path d="M175.97 106.891l5.963 19.532.87-19.532h-6.833z" fill="#2a2b2a" fill-rule="nonzero"/><path d="M94.043 7.311L65.926 63.142l2.518 43.694 1.89.007 132.638.468 3.795-43.898-27.505-56.102H94.043z" fill="#fcd157" fill-rule="nonzero"/><path d="M65.92 63.733l.834 14.584 18.513.002.94-14.502-20.287-.084z" fill="#ae2025" fill-rule="nonzero"/><path d="M90.457 63.775l7.041 10.46-4.455 4.169-7.771-.105 1.055-14.463 4.13-.061z" fill="#f6f1e1" fill-rule="nonzero"/><path d="M186.285 63.828l1.051 14.491 18.182-.044 1.248-14.501-20.481.054z" fill="#ae2025" fill-rule="nonzero"/><path d="M182.281 63.827l-6.009 10.447 4.417 4.044 6.666-.044-1.083-14.459-3.991.012z" fill="#f6f1e1" fill-rule="nonzero"/><path d="M99.533 13.404L84.904 46.423h101.925L174.16 13.404H99.533z" fill="#313156" fill-rule="nonzero"/><path d="M108.543 104.371a5.042 5.042 0 0 1-10.081 0 5.04 5.04 0 0 1 10.081 0" fill="#2a2b2a" fill-rule="nonzero"/><path d="M97.497 74.153l-4.454 4.271 87.604-.105-4.417-4.166H97.497z" fill="#f8bb1c" fill-rule="nonzero"/><path d="M119.876 85.778l-3.036 10.645h35.407l-3.001-10.515-29.37-.13z" fill="#f4f2ed" fill-rule="nonzero"/><g opacity=".3"><clipPath id="pc"><path d="M84.904 13.404h52.886v33.019H84.904z"/></clipPath><g clip-path="url(#pc)"><path d="M99.528 13.404l-14.624 33.02h19.976l32.911-33.02H99.528z" fill="#0f2342" fill-rule="nonzero"/></g></g><g opacity=".3"><clipPath id="pd"><path d="M137.325 13.404h49.504v33.019h-49.504z"/></clipPath><g clip-path="url(#pd)"><path d="M174.195 13.404h-3.651l-33.219 33.02h49.504l-12.634-33.02z" fill="#0a1723" fill-rule="nonzero"/></g></g><path d="M137.866 46.423l32.678-33.019h-8.287l-32.116 33.019h7.725z" fill="#494a72" fill-rule="nonzero"/><path d="M124.93 7.312h25.846l-2-7.312h-20.927s-2.96 7.368-2.919 7.312" fill="#f6f1e2" fill-rule="nonzero"/><path d="M129.293 7.33h17.12l-1.325-4.844h-13.86s-1.961 4.881-1.935 4.844" fill="#2a2b2a" fill-rule="nonzero"/></g></symbol></svg>