<?xml version="1.0" encoding="UTF-8" standalone="no"?>
<!DOCTYPE svg PUBLIC "-//W3C//DTD SVG 1.1//EN" "http://www.w3.org/Graphics/SVG/1.1/DTD/svg11.dtd">
<svg width="100%" height="100%" viewBox="0 0 200 200" version="1.1" xmlns="http://www.w3.org/2000/svg" xmlns:xlink="http://www.w3.org/1999/xlink" xml:space="preserve" xmlns:serif="http://www.serif.com/" style="fill-rule:evenodd;clip-rule:evenodd;stroke-linejoin:round;stroke-miterlimit:1.41421;">
    <g transform="matrix(1,0,0,1,1.08976,-1.0909)">
        <circle cx="98.91" cy="101.091" r="94.147" style="fill:rgb(228,226,220);"/>
        <clipPath id="_clip1">
            <circle cx="98.91" cy="101.091" r="94.147"/>
        </clipPath>
        <g clip-path="url(#_clip1)">
            <g transform="matrix(1.23091,0,0,1.23091,24.4648,-60.917)">
                <circle cx="98.91" cy="101.091" r="94.147" style="fill:rgb(246,244,239);"/>
            </g>
        </g>
    </g>
    <circle cx="58.57" cy="65.648" r="17.41" style="fill:rgb(228,226,220);"/>
    <g transform="matrix(1,0,0,1,5.15258,19.5846)">
        <circle cx="113.836" cy="61.193" r="7.121" style="fill:rgb(228,226,220);"/>
    </g>
    <circle cx="106.167" cy="114.182" r="22.353" style="fill:rgb(228,226,220);"/>
    <g transform="matrix(1,0,0,1,1.41582,-5.18782)">
        <circle cx="39.023" cy="112.574" r="12.574" style="fill:rgb(228,226,220);"/>
    </g>
    <g transform="matrix(1,0,0,1,1.41582,-5.18782)">
        <path d="M39.204,98.501C48.512,98.678 56.07,109.626 51.707,118.675C47.896,126.58 35.895,129.035 29.314,122.76C21.588,115.393 25.971,98.746 38.841,98.501C39.023,98.5 39.022,98.5 39.204,98.501ZM38.879,101.501C31.581,101.64 25.613,110.263 29.04,117.372C32.042,123.597 41.481,125.528 46.661,120.589C52.746,114.787 49.306,101.694 39.166,101.501C39.023,101.5 39.023,101.5 38.879,101.501Z" style="fill:rgb(246,244,239);fill-rule:nonzero;"/>
    </g>
    <g transform="matrix(1,0,0,1,1.41582,-5.18782)">
        <circle cx="106.249" cy="168.794" r="14.708" style="fill:rgb(228,226,220);"/>
    </g>
    <g transform="matrix(1,0,0,1,1.41582,-5.18782)">
        <path d="M106.458,152.588C117.111,152.79 125.881,165.4 120.857,175.819C117.315,183.166 107.701,186.9 100.125,183.802C91.975,180.47 87.655,169.783 91.728,161.592C94.361,156.298 99.993,152.702 106.04,152.588C106.25,152.586 106.249,152.586 106.458,152.588ZM106.078,155.587C97.376,155.753 90.256,166.037 94.344,174.516C97.923,181.94 109.182,184.243 115.36,178.353C122.619,171.431 118.512,155.817 106.42,155.587C106.249,155.586 106.249,155.586 106.078,155.587Z" style="fill:rgb(246,244,239);fill-rule:nonzero;"/>
    </g>
    <circle cx="65.46" cy="119.665" r="5.483" style="fill:rgb(228,226,220);"/>
    <g transform="matrix(1,0,0,1,-12.875,2.2443)">
        <circle cx="87.678" cy="34.149" r="3.864" style="fill:rgb(228,226,220);"/>
    </g>
    <g transform="matrix(1,0,0,1,-22.6462,2.2443)">
        <circle cx="118.988" cy="26.9" r="3.385" style="fill:rgb(228,226,220);"/>
    </g>
    <circle cx="147.217" cy="92.15" r="11.373" style="fill:rgb(228,226,220);"/>
    <g transform="matrix(1,0,0,1,-22.1718,4.00804)">
        <circle cx="169.476" cy="135.184" r="5.494" style="fill:rgb(228,226,220);"/>
    </g>
</svg>
