<svg xmlns="http://www.w3.org/2000/svg" viewBox="0 0 500 240"><linearGradient id="a" gradientUnits="userSpaceOnUse" x1="250" y1="236.045" x2="250" y2="104.42"><stop offset="0" stop-color="#b3d2df" stop-opacity=".58"/><stop offset="1" stop-color="#d2edfa" stop-opacity=".4"/></linearGradient><path fill="url(#a)" d="M411.6 158.8c-16.6-16-39.1-25.8-63.9-25.8-31 0-58.5 15.4-75.2 38.9-16.8-7-35.2-10.9-54.5-10.9-23.3 0-45.3 5.6-64.6 15.6-23.8-44.6-70.8-74.9-124.9-74.9-9.8 0-19.3 1-28.5 2.9V240h500V103.9c-36.1 6.5-67.4 26.7-88.4 54.9z"/><linearGradient id="b" gradientUnits="userSpaceOnUse" x1="250" y1="2.909" x2="250" y2="172.823"><stop offset=".08" stop-color="#7d9baa" stop-opacity="0"/><stop offset="1" stop-color="#7d9baa" stop-opacity=".22"/></linearGradient><path fill="url(#b)" d="M0 0v104.6c9.2-1.9 18.7-2.9 28.5-2.9 54.1 0 101 30.3 124.9 74.9 19.4-10 41.3-15.6 64.6-15.6 19.3 0 37.7 3.9 54.5 10.9 16.7-23.5 44.1-38.9 75.2-38.9 24.8 0 47.4 9.8 63.9 25.8 21-28.3 52.3-48.4 88.4-54.9V0H0z"/></svg>