<?xml version="1.0" encoding="utf-8"?>
<!-- Generator: Adobe Illustrator 21.1.0, SVG Export Plug-In . SVG Version: 6.00 Build 0)  -->
<svg version="1.1" id="sky-front" xmlns="http://www.w3.org/2000/svg" xmlns:xlink="http://www.w3.org/1999/xlink" x="0px" y="0px"
	 viewBox="0 0 500 560" enable-background="new 0 0 500 560" xml:space="preserve">
<g>
	<linearGradient id="sky-front-gradient-1" gradientUnits="userSpaceOnUse" x1="250" y1="556" x2="250" y2="198.8866">
		<stop  offset="0.2004" style="stop-color:#A5C4D1;stop-opacity:0.96"/>
		<stop  offset="1" style="stop-color:#CCE0E7;stop-opacity:0.98"/>
	</linearGradient>
	<path fill="url(#sky-front-gradient-1)" d="M451.4,228.2c-24.1,0-46.1,7.1-62.4,18.7c-20.1-29.8-57.2-49.8-99.7-49.8
		c-45.8,0-85.4,23.3-104.1,57c-20.8-12.8-49.2-20.8-80.6-20.8c-31.8,0-60.7,8.2-81.6,21.4C16.1,249,8.4,244,0,239.8v175.3V560h500
		V356.6V238.8C485.9,232.1,469.3,228.2,451.4,228.2z"/>
	<linearGradient id="svg-front-gradient-2" gradientUnits="userSpaceOnUse" x1="250" y1="4.8458" x2="250" y2="246.6063">
		<stop  offset="3.806090e-04" style="stop-color:#B4D2DF;stop-opacity:0.94"/>
		<stop  offset="3.445513e-02" style="stop-color:#B4D2DF;stop-opacity:0.93"/>
		<stop  offset="0.9996" style="stop-color:#ABCAD7;stop-opacity:0.97"/>
	</linearGradient>
	<path fill="url(#svg-front-gradient-2)" d="M0,0v239.8c8.4,4.1,16.1,9.1,23,14.9c20.9-13.2,49.8-21.4,81.6-21.4c31.3,0,59.7,7.9,80.6,20.8
		c18.7-33.7,58.3-57,104.1-57c42.5,0,79.6,20,99.7,49.8c16.4-11.6,38.3-18.7,62.4-18.7c17.8,0,34.5,3.9,48.6,10.6V0H0z"/>
</g>
</svg>
