<svg viewBox="0 0 2000 1333" xmlns="http://www.w3.org/2000/svg" fill-rule="evenodd" clip-rule="evenodd" stroke-linejoin="round" stroke-miterlimit="1.414"><path fill="#000928" d="M0 0h2000v1333H0z"/><path d="M972.7 24.421l1.741 1.604 1.861-1.785-1.861-1.447-1.741 1.628zM437.123 733.496l1.741 1.604 1.861-1.785-1.861-1.447-1.741 1.628zM1944.489 376.022l-1.604 1.741 1.785 1.861 1.447-1.861-1.628-1.741zM727.011 218.141l1.741 1.604 1.861-1.785-1.861-1.447-1.741 1.628zM1880.479 259.091l-1.604 1.741 1.785 1.861 1.447-1.861-1.628-1.741z" fill="#f6f1e2" fill-opacity=".2"/><path d="M982.109 54.153l2.163 1.442 1.647-1.827-2.176-1.47-1.634 1.855zM808.072 65.44l2.163 1.442 1.647-1.827-2.176-1.47-1.634 1.855z" fill="#ffefce" fill-opacity=".302"/><path d="M749.859 19.558L752.022 21l1.647-1.827-2.176-1.47-1.634 1.855z" fill="#ffefce" fill-opacity=".502"/><path d="M989.919 191.029l1.581 1.519 1.558-1.582-1.34-1.47-1.799 1.533M1907.591 611.999l-1.519 1.581 1.582 1.558 1.47-1.34-1.533-1.799" fill="#e7e5dd" fill-opacity=".4"/><path d="M824.855 93.75l2.329 2.526 2.259-2.467-2.174-2.251-2.414 2.192zM583.769 196.716l2.329 2.526 2.259-2.467-2.174-2.251-2.414 2.192zM976.047 353.393l2.329 2.526 2.259-2.467-2.174-2.251-2.414 2.192z" fill="#f6f3ea"/><path d="M989.923 796.895l2.329 2.526 2.259-2.467-2.174-2.251-2.414 2.192z" fill="#f6f3ea" fill-opacity=".702"/><path d="M1765.23 568.128l-2.526 2.329 2.467 2.259 2.251-2.174-2.192-2.414zM125.277 93.976l2.329 2.526 2.259-2.467-2.174-2.251-2.414 2.192zM1712.473 76.036l2.329 2.526 2.259-2.467-2.174-2.25-2.414 2.191z" fill="#f6f3ea"/><path d="M984.441 102.842l1.948 1.488 1.775-1.805-1.838-1.702-1.885 2.019zM1995.783 606.521l-1.49 1.948 1.806 1.775 1.703-1.838-2.02-1.885z" fill="#e7e5dd" fill-opacity=".753"/><path d="M912.084 433.691l2.296 2.153 2.054-3.013-2.014-1.668-2.336 2.528z" fill="#f6f1e2"/><path d="M1012.327 907.718l2.297 2.153 2.053-3.013-2.014-1.668-2.336 2.528z" fill="#f6f1e2" fill-opacity=".6"/><path d="M1914.929 454.164l-2.153 2.296 3.013 2.054 1.668-2.014-2.528-2.336zM964.136 646.027l2.405 1.876 1.88-2.392-2.195-1.53-2.09 2.046zM1812.583 494.088l-1.876 2.405 2.392 1.88 1.53-2.195-2.046-2.09zM81.238 46.618l2.405 1.876 1.88-2.392-2.195-1.53-2.09 2.046zM1668.433 28.678l2.405 1.876 1.88-2.392-2.195-1.53-2.09 2.046zM840.84 275.306l1.648 1.58 1.295-1.512-1.278-1.525-1.665 1.457zM1823.314 392.92l-1.58 1.648 1.512 1.295 1.525-1.278-1.457-1.665zM46.07 49.889l1.648 1.58 1.295-1.512-1.278-1.525-1.665 1.457zM1389.041 512.919l1.648 1.58 1.295-1.512-1.278-1.525-1.665 1.457z" fill="#f6f1e2"/><path d="M937.186 718.495l1.486 1.019 1.016-1.216-1.3-1.014-1.202 1.211zM1809.049 489.95l-1.019 1.486 1.216 1.016 1.014-1.301-1.211-1.201zM77.1 50.154l1.486 1.019 1.016-1.216-1.301-1.014-1.201 1.211zM1664.296 32.214l1.486 1.019 1.016-1.216-1.301-1.014-1.201 1.211z" fill="#d9d4cb" fill-opacity=".2"/><path d="M453.343 729.74l1.94 1.798 1.61-1.798-1.546-1.797-2.004 1.797zM1948.244 392.242l-1.798 1.94 1.798 1.61 1.797-1.546-1.797-2.004zM630.161 110.379l1.94 1.798 1.61-1.798-1.546-1.798-2.004 1.798z" fill="#f6f1e2"/><path d="M963.862 143.453l2.972-2.688 2.728 2.577-2.584 3.084-3.116-2.973z" fill="#f6f3ea" fill-opacity=".902"/><path d="M965.027 143.445l1.822-1.646 1.671 1.578-1.583 1.887-1.91-1.82z" fill="#ffefce" fill-opacity=".902"/><path d="M1955.163 525.942l2.689 2.972-2.578 2.728-3.084-2.584 2.973-3.116z" fill="#f6f3ea"/><path d="M1955.172 527.107l1.645 1.822-1.577 1.671-1.888-1.583 1.82-1.91z" fill="#ffefce"/><path d="M887.862 15.454l2.972-2.689 2.728 2.578-2.584 3.084-3.116-2.973z" fill="#f6f3ea"/><path d="M889.027 15.445l1.822-1.645 1.671 1.577-1.583 1.888-1.91-1.82z" fill="#ffefce"/><path d="M1138.376 87.682l3.225-2.917 2.96 2.796-2.804 3.347-3.381-3.226z" fill="#f6f3ea"/><path d="M1139.64 87.673l1.977-1.785 1.814 1.711-1.719 2.048-2.071-1.974z" fill="#ffefce"/><path d="M1045.582 10.19l2.132-1.984 2.083 2-1.969 2.22-2.246-2.236zM1163.38 184.634l2.132-1.984 2.083 2-1.969 2.22-2.246-2.236zM1913.985 885.46l1.985 2.132-2 2.083-2.22-1.969 2.235-2.246zM1191.207 65.28l1.826-1.7 1.785 1.713-1.687 1.902-1.924-1.915z" fill="#f6f3ea"/><path d="M1050.376 519.98l1.97-1.839 1.44 1.631-1.34 1.577-2.07-1.369z" fill="#f6f1e2"/><path d="M1118.754 772.171l1.97-1.839 1.44 1.631-1.34 1.577-2.07-1.369z" fill="#f6f1e2" fill-opacity=".6"/><path d="M1929.097 663.14l1.839 1.97-1.631 1.44-1.577-1.34 1.369-2.07zM993.532 202.854l1.944 1.762 1.977-1.821c-.544-.574-1.439-1.409-2.009-1.923l-1.912 1.982zM1895.766 615.612l-1.762 1.944 1.821 1.977c.574-.544 1.409-1.439 1.923-2.009l-1.982-1.912z" fill="#f6f1e2"/><path d="M1568.566 56.686l1.741 1.604 1.861-1.785-1.861-1.447-1.741 1.628zM1219.369 274.669l-1.604 1.741 1.785 1.861 1.447-1.861-1.628-1.741zM1955.799 17.312l-1.604 1.741 1.785 1.861 1.447-1.861-1.628-1.741zM487.342 548.735l-1.604 1.741 1.785 1.861 1.447-1.861-1.628-1.741zM819.62 725.411l-1.604 1.741 1.785 1.861 1.447-1.861-1.628-1.741zM166.096 339.023l-1.604 1.741 1.785 1.861 1.447-1.861-1.628-1.741zM1429.807 196.399l1.741 1.604 1.861-1.785-1.861-1.447-1.741 1.628zM346.814 69.464l1.741 1.604 1.861-1.785-1.861-1.447-1.741 1.628zM327.628 299.976l-1.604 1.741 1.785 1.861 1.447-1.861-1.628-1.741zM1314.21 409.899l1.741 1.604 1.861-1.785-1.861-1.447-1.741 1.628zM561.743 43.135l-1.604 1.741 1.785 1.861 1.447-1.861-1.628-1.741zM669.907 516.653l-1.604 1.741 1.785 1.861 1.447-1.861-1.628-1.741zM26.383 180.264l-1.604 1.741 1.785 1.861 1.447-1.861-1.628-1.741zM1332.876 260.406l1.741 1.604 1.861-1.785-1.861-1.447-1.741 1.628zM283.622 233.045l-1.604 1.741 1.785 1.861 1.447-1.861-1.628-1.741zM625.901 379.722l-1.604 1.741 1.785 1.861 1.447-1.861-1.628-1.741z" fill="#f6f1e2" fill-opacity=".2"/><path d="M902.639 809.613l2.163 1.442 1.647-1.827-2.176-1.47-1.634 1.855zM1189.637 284.078l-1.442 2.163 1.827 1.647 1.47-2.176-1.855-1.634zM1814.541 911.717l-2.163-1.442-1.647 1.827 2.176 1.47 1.634-1.855zM1926.067 26.721l-1.442 2.163 1.827 1.647 1.47-2.176-1.855-1.634zM457.61 558.144l-1.442 2.163 1.827 1.647 1.47-2.176-1.855-1.634zM1472.377 279.918l2.163 1.442 1.647-1.827-2.176-1.47-1.634 1.855zM789.888 734.82l-1.442 2.163 1.827 1.647 1.47-2.176-1.855-1.634zM126.364 378.432l-1.442 2.163 1.827 1.647 1.47-2.176-1.855-1.634zM1403.938 97.705l2.163 1.442 1.647-1.827-2.176-1.47-1.634 1.855zM436.322 334.107l-1.442 2.163 1.827 1.647 1.47-2.176-1.855-1.634zM1490.295 795.719l2.163 1.442 1.647-1.827-2.176-1.47-1.634 1.855zM1074.107 1291.038l-1.442 2.163 1.827 1.647 1.47-2.176-1.855-1.634zM772.601 500.783l-1.442 2.163 1.827 1.647 1.47-2.176-1.855-1.634zM1657.841 344.681l-2.163-1.442-1.647 1.827 2.176 1.47 1.634-1.855zM129.077 164.395l-1.442 2.163 1.827 1.647 1.47-2.176-1.855-1.634z" fill="#ffefce" fill-opacity=".302"/><path d="M1335.725 41.823l2.163 1.442 1.647-1.827-2.176-1.47-1.634 1.855zM482.204 255.894l-1.442 2.163 1.827 1.647 1.47-2.176-1.855-1.634zM838.483 402.57l-1.442 2.163 1.827 1.647 1.47-2.176-1.855-1.634zM834.47 847.381l-1.442 2.163 1.827 1.647 1.47-2.176-1.855-1.634zM1716.051 390.563l-2.163-1.442-1.647 1.827 2.176 1.47 1.634-1.855z" fill="#ffefce" fill-opacity=".502"/><path d="M1585.785 223.294l1.581 1.519 1.558-1.582-1.34-1.47-1.799 1.533M1052.761 291.888l-1.519 1.581 1.582 1.558 1.47-1.34-1.533-1.799M1806.731 704.841l-1.581-1.519-1.558 1.582 1.34 1.47 1.799-1.533M1317.611 143.831l-1.519 1.581 1.582 1.558 1.47-1.34-1.533-1.799M221.991 52.47l-1.519 1.581 1.582 1.558 1.47-1.34-1.533-1.799M1789.191 34.531l-1.519 1.581 1.582 1.558 1.47-1.34-1.533-1.799M280.734 505.954l-1.519 1.581 1.582 1.558 1.47-1.34-1.533-1.799M1460.187 446.794l1.581 1.519 1.558-1.582-1.34-1.47-1.799 1.533M603.012 822.63l-1.519 1.581 1.582 1.558 1.47-1.34-1.533-1.799M27.149 514.296l-1.519 1.581 1.582 1.558 1.47-1.34-1.533-1.799" fill="#e7e5dd" fill-opacity=".4"/><path d="M1420.721 126.015l2.329 2.526 2.259-2.467-2.174-2.251-2.414 2.192zM408.013 350.89l-2.526 2.329 2.467 2.259 2.251-2.174-2.192-2.414z" fill="#f6f3ea"/><path d="M1285.123 589.515l2.329 2.526 2.259-2.467-2.174-2.251-2.414 2.192z" fill="#f6f3ea" fill-opacity=".302"/><path d="M1045.8 1307.821l-2.526 2.329 2.467 2.259 2.251-2.174-2.192-2.414zM744.291 517.566l-2.526 2.329 2.467 2.259 2.251-2.174-2.192-2.414zM1641.055 296.372l-2.329-2.526-2.259 2.467 2.174 2.251 2.414-2.192zM100.767 181.178l-2.526 2.329 2.467 2.259 2.251-2.174-2.192-2.414zM1229.634 238.981l2.329 2.526 2.259-2.467-2.174-2.251-2.414 2.192z" fill="#f6f3ea"/><path d="M315.046 169.803l-2.526 2.329 2.467 2.259 2.251-2.174-2.192-2.414z" fill="#f6f3ea" fill-opacity=".8"/><path d="M607.325 286.48l-2.526 2.329 2.467 2.259 2.251-2.174-2.192-2.414z" fill="#f6f3ea"/><path d="M1580.307 135.107l1.948 1.488 1.775-1.805-1.838-1.703-1.885 2.02zM507.314 18.171l1.948 1.49 1.775-1.806-1.838-1.703-1.885 2.02zM1150.263 636.866l-1.49 1.948 1.806 1.775 1.703-1.838-2.02-1.885zM1812.209 823.029l-1.948-1.49-1.775 1.806 1.838 1.703 1.885-2.02zM1877.373 29.053l-1.49 1.948 1.806 1.775 1.703-1.838-2.02-1.885zM408.922 430.476l-1.49 1.948 1.806 1.775 1.703-1.838-2.02-1.885zM1414.709 338.606l1.948 1.49 1.775-1.806-1.838-1.703-1.885 2.02zM761.2 657.152l-1.49 1.948 1.806 1.775 1.703-1.838-2.02-1.885zM97.676 290.764l-1.49 1.948 1.806 1.775 1.703-1.838-2.02-1.885z" fill="#e7e5dd" fill-opacity=".753"/><path d="M1517.95 215.956l2.296 2.153 2.054-3.013-2.014-1.668-2.336 2.528zM424.957 139.02l2.296 2.153 2.054-3.013-2.014-1.667-2.336 2.528zM258.072 392.119l-2.153 2.296 3.013 2.054 1.668-2.014-2.528-2.336zM1376.352 499.456l2.296 2.153 2.054-3.013-2.014-1.668-2.336 2.528zM1444.73 751.647l2.296 2.153 2.054-3.013-2.014-1.668-2.336 2.528zM610.35 724.795l-2.153 2.296 3.013 2.054 1.668-2.014-2.528-2.336zM34.487 406.461l-2.153 2.296 3.013 2.054 1.668-2.014-2.528-2.336zM1964.669 195.92l2.405 1.875 1.88-2.392-2.195-1.53-2.09 2.046zM185.728 518.042l-1.876 2.405 2.392 1.88 1.53-2.195-2.046-2.09zM1422.276 631.8l2.405 1.876 1.88-2.392-2.195-1.53-2.09 2.046zM558.006 654.718l-1.876 2.405 2.392 1.88 1.53-2.195-2.046-2.09zM1869.502 169.19l1.648 1.58 1.295-1.512-1.278-1.525-1.665 1.457zM152.457 406.875l-1.58 1.648 1.512 1.295 1.525-1.278-1.457-1.665zM1371.108 665.071l1.648 1.58 1.295-1.512-1.278-1.525-1.665 1.457zM554.735 619.551l-1.58 1.648 1.512 1.295 1.525-1.278-1.457-1.665z" fill="#f6f1e2"/><path d="M1960.53 199.455l1.486 1.019 1.016-1.216-1.301-1.014-1.201 1.211zM182.192 513.905l-1.019 1.486 1.216 1.016 1.014-1.301-1.211-1.201zM1418.138 635.336l1.486 1.019 1.016-1.216-1.301-1.014-1.201 1.211zM554.47 650.581l-1.019 1.486 1.216 1.016 1.014-1.301-1.211-1.201z" fill="#d9d4cb" fill-opacity=".2"/><path d="M868.703 887.272l1.94 1.798 1.61-1.798-1.546-1.797-2.004 1.797z" fill="#f6f1e2"/><path d="M729.055 315.833l1.94 1.798 1.61-1.798-1.546-1.797-2.004 1.797z" fill="#f6f1e2" fill-opacity=".502"/><path d="M321.384 336.196l-1.798 1.94 1.798 1.61 1.797-1.546-1.797-2.004zM1330.43 396.143l1.94 1.798 1.61-1.798-1.546-1.797-2.004 1.797z" fill="#f6f1e2"/><path d="M1604.21 529.899l1.741 1.604 1.861-1.785-1.861-1.447-1.741 1.628z" fill="#f6f1e2" fill-opacity=".2"/><path d="M1620.43 436.143l1.94 1.798 1.61-1.798-1.546-1.797-2.004 1.797zM989.164 1323.127l-1.798 1.94 1.798 1.61 1.797-1.546-1.797-2.004zM673.663 532.873l-1.798 1.94 1.798 1.61 1.797-1.546-1.797-2.004z" fill="#f6f1e2"/><path d="M1079.619 992.125l-1.604 1.74 1.785 1.862 1.447-1.861-1.628-1.741z" fill="#f6f1e2" fill-opacity=".2"/><path d="M842.601 530.783l-1.442 2.163 1.827 1.647 1.47-2.176-1.855-1.634z" fill="#ffefce" fill-opacity=".302"/><path d="M1526.89 610.227l-2.526 2.329 2.467 2.259 2.251-2.174-2.192-2.414z" fill="#f6f3ea"/><path d="M1173.034 930.833l-1.798 1.94 1.798 1.61 1.797-1.546-1.797-2.004zM30.139 196.484l-1.798 1.94 1.798 1.61 1.797-1.546-1.797-2.004zM1266.027 442.643l1.94 1.798 1.61-1.798-1.546-1.797-2.004 1.797zM1334.405 694.835l1.94 1.798 1.61-1.798-1.546-1.797-2.004 1.797zM723.663 302.873l-1.798 1.94 1.798 1.61 1.797-1.546-1.797-2.004zM1835.752 265.743l-1.94-1.798-1.61 1.798 1.546 1.797 2.004-1.797z" fill="#f6f1e2"/><path d="M1559.728 175.718l2.972-2.689 2.728 2.578-2.584 3.084-3.116-2.973z" fill="#f6f3ea" fill-opacity=".6"/><path d="M1560.893 175.71l1.822-1.646 1.671 1.578-1.583 1.887-1.91-1.82z" fill="#ffefce" fill-opacity=".6"/><path d="M486.735 58.783l2.972-2.689 2.728 2.578-2.584 3.084-3.116-2.973z" fill="#f6f3ea"/><path d="M487.9 58.774l1.822-1.645 1.671 1.577-1.583 1.888-1.91-1.82z" fill="#ffefce"/><path d="M1100.333 265.83l2.689 2.973-2.578 2.728-3.084-2.584 2.973-3.116z" fill="#f6f3ea" fill-opacity=".702"/><path d="M1100.342 266.996l1.645 1.822-1.577 1.671-1.888-1.583 1.82-1.91z" fill="#ffefce" fill-opacity=".702"/><path d="M1929.761 771.527l-2.972 2.689-2.728-2.578 2.584-3.084 3.116 2.973z" fill="#f6f3ea" fill-opacity=".302"/><path d="M1928.596 771.536l-1.822 1.645-1.671-1.577 1.583-1.888 1.91 1.82z" fill="#ffefce" fill-opacity=".302"/><path d="M269.566 26.413l2.689 2.972-2.578 2.728-3.084-2.584 2.973-3.116z" fill="#f6f3ea"/><path d="M269.575 27.578l1.645 1.822-1.577 1.671-1.888-1.583 1.82-1.91z" fill="#ffefce"/><path d="M1836.763 8.474l2.689 2.972-2.578 2.728-3.084-2.584 2.973-3.116z" fill="#f6f3ea"/><path d="M1836.772 9.64l1.645 1.82-1.577 1.672-1.888-1.583 1.82-1.91z" fill="#ffefce"/><path d="M358.31 539.897l2.688 2.972-2.578 2.728-3.084-2.584 2.973-3.116z" fill="#f6f3ea"/><path d="M358.318 541.062l1.645 1.822-1.577 1.671-1.888-1.583 1.82-1.91z" fill="#ffefce"/><path d="M1534.13 379.218l2.972-2.689 2.728 2.578-2.584 3.084-3.116-2.973z" fill="#f6f3ea"/><path d="M1535.295 379.21l1.822-1.646 1.671 1.577-1.583 1.888-1.91-1.82z" fill="#ffefce"/><path d="M710.588 616.573l2.689 2.972-2.578 2.728-3.084-2.584 2.973-3.116z" fill="#f6f3ea" fill-opacity=".6"/><path d="M710.597 617.738l1.645 1.822-1.577 1.671-1.888-1.583 1.82-1.91z" fill="#ffefce" fill-opacity=".6"/><path d="M47.064 700.185l2.689 2.972-2.578 2.728-3.084-2.584 2.973-3.116z" fill="#f6f3ea"/><path d="M47.073 701.35l1.645 1.822-1.577 1.671-1.888-1.583 1.82-1.91z" fill="#ffefce"/><path d="M1483.728 47.718l2.972-2.689 2.728 2.578-2.584 3.084-3.116-2.973z" fill="#f6f3ea"/><path d="M1484.893 47.71l1.822-1.646 1.671 1.578-1.583 1.887-1.91-1.82z" fill="#ffefce"/><path d="M486.31 393.897l2.688 2.972-2.578 2.728-3.084-2.584 2.973-3.116z" fill="#f6f3ea"/><path d="M486.318 395.062l1.645 1.822-1.577 1.671-1.888-1.583 1.82-1.91z" fill="#ffefce"/><path d="M842.588 610.573l2.689 2.972-2.578 2.728-3.084-2.584 2.973-3.116z" fill="#f6f3ea"/><path d="M842.597 611.738l1.645 1.822-1.577 1.671-1.888-1.583 1.82-1.91z" fill="#ffefce"/><path d="M179.064 244.185l2.689 2.972-2.578 2.728-3.084-2.584 2.973-3.116z" fill="#f6f3ea"/><path d="M179.073 245.35l1.645 1.822-1.577 1.671-1.888-1.583 1.82-1.91z" fill="#ffefce"/><path d="M1734.242 119.947l3.225-2.918 2.96 2.797-2.804 3.347-3.381-3.226z" fill="#f6f3ea"/><path d="M1735.507 119.938l1.976-1.786 1.814 1.712-1.719 2.048-2.071-1.974z" fill="#ffefce"/><path d="M1156.106 440.345l2.917 3.225-2.796 2.96-3.347-2.804 3.226-3.381z" fill="#f6f3ea"/><path d="M1156.115 441.61l1.785 1.976-1.711 1.814-2.048-1.719 1.974-2.071z" fill="#ffefce"/><path d="M1224.486 692.537l2.917 3.225-2.796 2.96-3.347-2.804 3.226-3.381z" fill="#f6f3ea"/><path d="M1224.495 693.802l1.785 1.976-1.711 1.814-2.048-1.719 1.974-2.071z" fill="#ffefce"/><path d="M1658.28 878.186l-3.226 2.917-2.96-2.796 2.804-3.347 3.381 3.226z" fill="#f6f3ea"/><path d="M1657.014 878.195l-1.976 1.785-1.814-1.711 1.719-2.048 2.071 1.974z" fill="#ffefce"/><path d="M414.08 794.41l2.918 3.226-2.796 2.96-3.347-2.804 3.226-3.381z" fill="#f6f3ea"/><path d="M414.09 795.676l1.785 1.976-1.711 1.814-2.048-1.719 1.974-2.071z" fill="#ffefce"/><path d="M1643.241 91.154l2.132-1.985 2.083 2-1.969 2.22-2.246-2.235z" fill="#f6f3ea" fill-opacity=".502"/><path d="M1233.595 367.55l1.985 2.132-2 2.083-2.22-1.969 2.235-2.246z" fill="#f6f3ea"/><path d="M1981.455 71.926l1.985 2.132-2 2.083-2.22-1.969 2.235-2.246z" fill="#f6f3ea" fill-opacity=".502"/><path d="M491.572 641.617l1.985 2.132-2 2.083-2.22-1.97 2.235-2.245zM1759.241 216.9l2.132-1.985 2.083 2-1.969 2.22-2.246-2.235zM1059.155 495.35l1.985 2.131-2 2.083-2.22-1.969 2.235-2.246zM1127.535 747.54l1.985 2.133-2 2.083-2.22-1.97 2.235-2.245zM1633.269 711.235l-2.132 1.985-2.083-2 1.969-2.22 2.246 2.235zM297.128 819.415l1.985 2.132-2 2.083-2.22-1.969 2.235-2.246z" fill="#f6f3ea"/><path d="M1787.074 97.545l1.826-1.7 1.785 1.713-1.687 1.902-1.924-1.915z" fill="#f6f3ea" fill-opacity=".302"/><path d="M1178.506 553.175l1.7 1.827-1.713 1.784-1.902-1.687 1.915-1.924zM1246.886 805.367l1.7 1.826-1.713 1.785-1.902-1.687 1.915-1.924zM436.483 887.242l1.7 1.826-1.713 1.785-1.902-1.687 1.915-1.924z" fill="#f6f3ea"/><path d="M1636.926 201.788l1.97-1.84 1.44 1.632-1.34 1.577-2.07-1.37zM1074.267 695.608l1.839 1.97-1.631 1.44-1.577-1.34 1.369-2.07zM1755.59 726.347l-1.97 1.839-1.44-1.631 1.34-1.577 2.07 1.369zM1349.117 204.972l1.839 1.97-1.631 1.44-1.577-1.34 1.369-2.07zM243.497 103.611l1.839 1.97-1.631 1.44-1.577-1.34 1.369-2.07zM1810.697 85.672l1.839 1.97-1.631 1.44-1.577-1.34 1.369-2.07zM322.24 637.095l1.839 1.97-1.631 1.44-1.577-1.34 1.369-2.07zM1589.398 235.119l1.944 1.762 1.977-1.821c-.544-.574-1.439-1.41-2.009-1.923l-1.912 1.982zM1040.936 648.08l-1.762 1.944 1.821 1.977c.574-.544 1.409-1.439 1.923-2.009l-1.982-1.912zM1803.118 663.016l-1.944-1.762-1.977 1.821c.544.574 1.439 1.409 2.009 1.923l1.912-1.982zM1301.786 91.444l-1.762 1.944 1.821 1.977c.574-.544 1.409-1.439 1.923-2.009l-1.982-1.912zM210.166 56.083l-1.762 1.944 1.821 1.977c.574-.544 1.409-1.439 1.923-2.009l-1.982-1.912z" fill="#f6f1e2"/><path d="M972.7 24.421l1.741 1.604 1.861-1.785-1.861-1.447-1.741 1.628zM437.123 733.496l1.741 1.604 1.861-1.785-1.861-1.447-1.741 1.628zM727.011 218.141l1.741 1.604 1.861-1.785-1.861-1.447-1.741 1.628z" fill="#f6f1e2" fill-opacity=".2"/><path d="M982.109 54.153l2.163 1.442 1.647-1.827-2.176-1.47-1.634 1.855zM765.47 139.5l2.163 1.442 1.647-1.827-2.176-1.47-1.634 1.855z" fill="#ffefce" fill-opacity=".302"/><path d="M749.859 19.558L752.022 21l1.647-1.827-2.176-1.47-1.634 1.855z" fill="#ffefce" fill-opacity=".502"/><path d="M989.919 191.029l1.581 1.519 1.558-1.582-1.34-1.47-1.799 1.533" fill="#e7e5dd" fill-opacity=".4"/><path d="M851.892 166.405l2.329 2.526 2.259-2.467-2.174-2.251-2.414 2.192zM583.769 196.716l2.329 2.526 2.259-2.467-2.174-2.251-2.414 2.192z" fill="#f6f3ea"/><path d="M984.441 102.842l1.948 1.488 1.775-1.805-1.838-1.702-1.885 2.019z" fill="#e7e5dd" fill-opacity=".753"/><path d="M453.343 729.74l1.94 1.798 1.61-1.798-1.546-1.797-2.004 1.797zM630.161 110.379l1.94 1.798 1.61-1.798-1.546-1.798-2.004 1.798z" fill="#f6f1e2"/><path d="M1660.753 640.732l2.972-2.689 2.728 2.578-2.584 3.084-3.116-2.973z" fill="#f6f3ea" fill-opacity=".302"/><path d="M1661.918 640.723l1.822-1.645 1.671 1.577-1.583 1.888-1.91-1.82z" fill="#ffefce" fill-opacity=".302"/><path d="M1354.755 860.462l2.972-2.689 2.728 2.578-2.584 3.084-3.116-2.973z" fill="#f6f3ea"/><path d="M1355.92 860.453l1.822-1.645 1.671 1.577-1.583 1.888-1.91-1.82z" fill="#ffefce"/><path d="M993.532 202.854l1.944 1.762 1.977-1.821c-.544-.574-1.439-1.409-2.009-1.923l-1.912 1.982z" fill="#f6f1e2"/><path d="M895.081 1000.268l1.741 1.604 1.861-1.785-1.86-1.447-1.742 1.628zM666.76 94.579l-1.604 1.741 1.785 1.861 1.447-1.861-1.628-1.741zM283.622 233.045l-1.604 1.741 1.785 1.861 1.447-1.861-1.628-1.741z" fill="#f6f1e2" fill-opacity=".2"/><path d="M1074.107 1291.038l-1.442 2.163 1.827 1.647 1.47-2.176-1.855-1.634z" fill="#ffefce" fill-opacity=".302"/><path d="M945.811 528.116l-1.519 1.581 1.582 1.558 1.47-1.34-1.533-1.799" fill="#e7e5dd" fill-opacity=".4"/><path d="M1477.12 846.26l-2.526 2.328 2.467 2.26 2.251-2.174-2.192-2.414z" fill="#f6f3ea"/><path d="M315.046 169.803l-2.526 2.329 2.467 2.259 2.251-2.174-2.192-2.414z" fill="#f6f3ea" fill-opacity=".8"/><path d="M507.314 18.171l1.948 1.49 1.775-1.806-1.838-1.703-1.885 2.02z" fill="#e7e5dd" fill-opacity=".753"/><path d="M1267.746 932.108l2.296 2.153 2.054-3.013-2.014-1.668-2.336 2.528zM696.97 904.808l1.94 1.798 1.61-1.798-1.547-1.797-2.004 1.797zM989.164 1323.127l-1.798 1.94 1.798 1.61 1.797-1.546-1.797-2.004z" fill="#f6f1e2"/><path d="M486.735 58.783l2.972-2.689 2.728 2.578-2.584 3.084-3.116-2.973z" fill="#f6f3ea"/><path d="M487.9 58.774l1.822-1.645 1.671 1.577-1.583 1.888-1.91-1.82z" fill="#ffefce"/><path d="M269.566 26.413l2.689 2.972-2.578 2.728-3.084-2.584 2.973-3.116z" fill="#f6f3ea"/><path d="M269.575 27.578l1.645 1.822-1.577 1.671-1.888-1.583 1.82-1.91z" fill="#ffefce"/><path d="M243.497 103.611l1.839 1.97-1.631 1.44-1.577-1.34 1.369-2.07zM565.953 466.807l-1.762 1.944 1.821 1.977c.574-.544 1.409-1.439 1.923-2.009l-1.982-1.912zM1777.366 38.144l-1.762 1.944 1.821 1.977c.574-.544 1.409-1.439 1.923-2.009l-1.982-1.912z" fill="#f6f1e2"/><path d="M206.415 1050.79l-2.329-2.526-2.259 2.467 2.174 2.251 2.414-2.192z" fill="#f6f3ea"/><path d="M270.451 1238.153l-2.405-1.876-1.88 2.392 2.195 1.53 2.09-2.046zM375.62 1184.884l-1.648-1.58-1.295 1.512 1.278 1.525 1.665-1.457z" fill="#f6f1e2"/><path d="M274.59 1234.619l-1.486-1.019-1.016 1.216 1.301 1.014 1.201-1.211z" fill="#d9d4cb" fill-opacity=".2"/><path d="M350.32 1070.139l-1.741-1.604-1.861 1.785 1.861 1.447 1.741-1.628z" fill="#f6f1e2" fill-opacity=".2"/><path d="M340.911 1040.407l-2.163-1.442-1.647 1.827 2.176 1.47 1.634-1.855zM514.951 1029.127l-2.163-1.442-1.647 1.827 2.176 1.47 1.634-1.855z" fill="#ffefce" fill-opacity=".302"/><path d="M583.161 1085.007l-2.163-1.442-1.647 1.827 2.176 1.47 1.634-1.855z" fill="#ffefce" fill-opacity=".502"/><path d="M601.272 983.001l1.519-1.581-1.582-1.558-1.47 1.34 1.533 1.799M179.7 1132.301l1.519-1.581-1.582-1.558-1.47 1.34 1.533 1.799" fill="#e7e5dd" fill-opacity=".4"/><path d="M498.165 1000.81l-2.329-2.526-2.259 2.467 2.174 2.251 2.414-2.192z" fill="#f6f3ea"/><path d="M338.579 991.723l-1.948-1.49-1.775 1.806 1.838 1.703 1.885-2.02zM71.512 1167.779l1.489-1.948-1.805-1.775-1.703 1.838 2.02 1.885z" fill="#e7e5dd" fill-opacity=".753"/><path d="M49.383 957.644l-1.648-1.58-1.295 1.512 1.278 1.525 1.665-1.457zM482.862 944.184l-1.94-1.798-1.61 1.798 1.546 1.797 2.004-1.797z" fill="#f6f1e2"/><path d="M359.161 951.113l-2.972 2.689-2.728-2.578 2.584-3.084 3.116 2.973z" fill="#f6f3ea" fill-opacity=".6"/><path d="M357.996 951.122l-1.822 1.645-1.671-1.577 1.583-1.888 1.91 1.82z" fill="#ffefce" fill-opacity=".6"/><path d="M122.124 1218.351l-2.689-2.972 2.578-2.728 3.084 2.584-2.973 3.116z" fill="#f6f3ea"/><path d="M122.116 1217.186l-1.646-1.822 1.577-1.671 1.888 1.583-1.82 1.91z" fill="#ffefce"/><path d="M435.161 1079.113l-2.972 2.689-2.728-2.578 2.584-3.084 3.116 2.973z" fill="#f6f3ea"/><path d="M433.996 1079.122l-1.822 1.645-1.671-1.577 1.583-1.888 1.91 1.82z" fill="#ffefce"/><path d="M194.64 966.886l-3.226 2.917-2.96-2.796 2.804-3.347 3.381 3.226z" fill="#f6f3ea"/><path d="M193.374 966.895l-1.976 1.785-1.814-1.711 1.719-2.048 2.071 1.974z" fill="#ffefce"/><path d="M367.439 1174.375l-2.132 1.985-2.083-2 1.969-2.22 2.246 2.235z" fill="#f6f3ea"/><path d="M84.544 895.444l-1.826 1.7-1.785-1.713 1.687-1.902 1.924 1.915z" fill="#f6f3ea" fill-opacity=".502"/><path d="M108.194 1041.16l-1.84-1.97 1.632-1.44 1.577 1.34-1.37 2.07zM617.097 1035.388l1.762-1.944-1.821-1.977c-.574.544-1.409 1.439-1.923 2.009l1.982 1.912zM191.525 1128.688l1.762-1.944-1.821-1.977c-.574.544-1.41 1.439-1.923 2.009l1.982 1.912zM268.909 509.567l-1.762 1.944 1.821 1.977c.574-.544 1.409-1.439 1.923-2.009l-1.982-1.912zM1463.8 458.619l1.944 1.762 1.977-1.821c-.544-.574-1.439-1.409-2.009-1.923l-1.912 1.982zM1115.08 1147.757l-1.97 1.839-1.44-1.631 1.34-1.577 2.07 1.369z" fill="#f6f1e2"/><path d="M851.25 1257.839l-1.741-1.604-1.861 1.785 1.861 1.447 1.741-1.628z" fill="#f6f1e2" fill-opacity=".2"/><path d="M449.411 1277.173l2.163 1.442 1.647-1.827-2.176-1.47-1.634 1.855z" fill="#ffefce" fill-opacity=".502"/><path d="M705.271 1220.951l-1.581-1.519-1.558 1.582 1.34 1.47 1.799-1.533" fill="#e7e5dd" fill-opacity=".4"/><path d="M1015.196 1030.879l1.49-1.948-1.806-1.775-1.703 1.838 2.02 1.885z" fill="#e7e5dd" fill-opacity=".753"/><path d="M789.106 1168.289l-2.296-2.153-2.054 3.013 2.014 1.668 2.336-2.528zM743.181 1035.943l-2.405-1.876-1.88 2.392 2.195 1.53 2.09-2.046zM794.35 1002.674l-1.648-1.58-1.295 1.512 1.278 1.525 1.665-1.457z" fill="#f6f1e2"/><path d="M747.32 1032.409l-1.486-1.019-1.016 1.216 1.301 1.014 1.201-1.211z" fill="#d9d4cb" fill-opacity=".2"/><path d="M835.032 1271.594l-1.94-1.798-1.61 1.798 1.546 1.797 2.004-1.797z" fill="#f6f1e2"/><path d="M561.25 1137.839l-1.741-1.604-1.861 1.785 1.861 1.447 1.741-1.628z" fill="#f6f1e2" fill-opacity=".2"/><path d="M545.032 1231.594l-1.94-1.798-1.61 1.798 1.546 1.797 2.004-1.797zM899.432 1225.094l-1.94-1.798-1.61 1.798 1.546 1.797 2.004-1.797z" fill="#f6f1e2"/><path d="M1009.353 1227.4l-2.917-3.226 2.796-2.96 3.347 2.804-3.226 3.381z" fill="#f6f3ea"/><path d="M1009.344 1226.134l-1.785-1.976 1.711-1.814 2.048 1.719-1.974 2.071z" fill="#ffefce"/><path d="M1106.305 1172.389l-1.985-2.132 2-2.083 2.22 1.969-2.235 2.246zM986.95 1114.566l-1.7-1.826 1.714-1.785 1.902 1.687-1.915 1.924z" fill="#f6f3ea"/><path d="M701.658 1209.126l-1.944-1.762-1.977 1.821c.544.574 1.439 1.409 2.009 1.923l1.912-1.982zM641.187 746.243l-1.762 1.944 1.821 1.977c.574-.544 1.409-1.439 1.923-2.009l-1.982-1.912z" fill="#f6f1e2"/><g><path d="M1375.215 1052.48l-2.329-2.526-2.259 2.467 2.174 2.251 2.414-2.192z" fill="#f6f3ea" fill-opacity=".302"/></g><g><path d="M1439.176 972.179l-2.296-2.153-2.054 3.013 2.014 1.668 2.336-2.528z" fill="#f6f1e2"/></g><g><path d="M1445.921 1204.193l-2.405-1.876-1.88 2.392 2.195 1.53 2.09-2.046z" fill="#f6f1e2"/></g><g><path d="M1457.27 1211.789l-1.486-1.019-1.016 1.216 1.301 1.014 1.201-1.211z" fill="#d9d4cb" fill-opacity=".2"/></g><g><path d="M1268.49 1068.517l-1.97 1.839-1.44-1.631 1.34-1.577 2.07 1.369z" fill="#f6f1e2"/></g><g><path d="M1899.901 1291.95l1.604-1.741-1.785-1.861-1.447 1.861 1.628 1.741z" fill="#f6f1e2" fill-opacity=".2"/></g><g><path d="M1567.621 1115.27l1.604-1.741-1.785-1.861-1.447 1.861 1.628 1.741z" fill="#f6f1e2" fill-opacity=".2"/></g><g><path d="M1929.633 1282.541l1.442-2.163-1.827-1.647-1.47 2.176 1.855 1.634z" fill="#ffefce" fill-opacity=".302"/></g><g><path d="M1597.353 1105.861l1.442-2.163-1.827-1.647-1.47 2.176 1.855 1.634z" fill="#ffefce" fill-opacity=".302"/></g><g><path d="M1552.773 993.301l1.442-2.163-1.827-1.647-1.47 2.176 1.855 1.634z" fill="#ffefce" fill-opacity=".502"/></g><g><path d="M1784.229 1018.051l1.519-1.581-1.582-1.558-1.47 1.34 1.533 1.799" fill="#e7e5dd" fill-opacity=".4"/></g><g><path d="M1236.977 1203.819l1.49-1.948-1.806-1.775-1.703 1.838 2.02 1.885z" fill="#e7e5dd" fill-opacity=".753"/></g><g><path d="M1626.047 1183.529l1.49-1.948-1.806-1.775-1.703 1.838 2.02 1.885z" fill="#e7e5dd" fill-opacity=".753"/></g><g><path d="M1776.891 1115.886l2.153-2.296-3.013-2.054-1.668 2.014 2.528 2.336z" fill="#f6f1e2"/></g><g><path d="M1829.237 1185.971l1.876-2.405-2.392-1.88-1.53 2.195 2.046 2.09z" fill="#f6f1e2"/></g><g><path d="M1832.506 1221.13l1.58-1.648-1.512-1.295-1.525 1.278 1.457 1.665z" fill="#f6f1e2"/></g><g><path d="M1832.771 1190.1l1.019-1.486-1.216-1.016-1.014 1.301 1.211 1.201z" fill="#d9d4cb" fill-opacity=".2"/></g><g><path d="M1736.817 1284.781l-2.689-2.972 2.578-2.728 3.084 2.584-2.973 3.116z" fill="#f6f3ea"/><path d="M1736.808 1283.616l-1.645-1.822 1.577-1.671 1.888 1.583-1.82 1.91z" fill="#ffefce"/></g><g><path d="M1547.797 1270.641l-2.689-2.972 2.578-2.728 3.084 2.584-2.973 3.116z" fill="#f6f3ea"/><path d="M1547.788 1269.476l-1.645-1.822 1.577-1.671 1.888 1.583-1.82 1.91z" fill="#ffefce"/></g><g><path d="M1973.164 1046.27l-2.917-3.226 2.796-2.96 3.347 2.804-3.226 3.381z" fill="#f6f3ea"/><path d="M1973.155 1045.004l-1.785-1.976 1.711-1.814 2.048 1.719-1.974 2.071z" fill="#ffefce"/></g><g><path d="M1895.675 1199.069l-1.985-2.132 2-2.083 2.22 1.969-2.235 2.246z" fill="#f6f3ea"/></g><g><path d="M1208.645 1108.299l-1.985-2.132 2-2.083 2.22 1.969-2.235 2.246z" fill="#f6f3ea"/></g><g><path d="M1208.734 1287.506l-1.7-1.826 1.713-1.785 1.902 1.687-1.915 1.924z" fill="#f6f3ea"/></g><g><path d="M1950.764 953.446l-1.7-1.826 1.713-1.785 1.902 1.687-1.915 1.924z" fill="#f6f3ea"/></g><g><path d="M1312.983 1145.08l-1.839-1.97 1.631-1.44 1.577 1.34-1.369 2.07z" fill="#f6f1e2"/></g><g><path d="M1346.314 1192.608l1.762-1.944-1.821-1.977c-.574.544-1.409 1.439-1.923 2.009l1.982 1.912z" fill="#f6f1e2"/></g><g><path d="M1743.224 998.738l1.762-1.944-1.821-1.977c-.574.544-1.409 1.439-1.923 2.009l1.982 1.912z" fill="#f6f1e2"/></g><g><path d="M65.324 407.909l-1.762 1.944 1.821 1.977c.574-.544 1.409-1.439 1.923-2.009l-1.982-1.912z" fill="#f6f1e2"/></g><g><path d="M175.44 674.979l-1.741-1.604-1.861 1.785 1.861 1.447 1.741-1.628z" fill="#f6f1e2" fill-opacity=".2"/></g><g><path d="M201.311 807.673l-2.163-1.442-1.647 1.827 2.176 1.47 1.634-1.855z" fill="#ffefce" fill-opacity=".302"/></g><g><path d="M184.525 779.364l-2.329-2.526-2.259 2.467 2.174 2.251 2.414-2.192z" fill="#f6f3ea"/></g><g><path d="M159.222 678.735l-1.94-1.798-1.61 1.798 1.546 1.797 2.004-1.797z" fill="#f6f1e2"/></g></svg>