<svg viewBox="0 0 2000 1333" xmlns="http://www.w3.org/2000/svg" fill-rule="evenodd" clip-rule="evenodd" stroke-linejoin="round" stroke-miterlimit="1.414"><path d="M972.7 24.421l1.741 1.604 1.861-1.785-1.861-1.447-1.741 1.628zM437.123 733.496l1.741 1.604 1.861-1.785-1.861-1.447-1.741 1.628zM1944.49 376.022l-1.61 1.741 1.79 1.861 1.45-1.861-1.63-1.741zM727.011 218.141l1.741 1.604 1.861-1.785-1.861-1.447-1.741 1.628zm1153.469 40.95l-1.6 1.741 1.78 1.861 1.45-1.861-1.63-1.741z" fill="#f6f1e2" fill-opacity=".2"/><path d="M982.109 54.153l2.163 1.442 1.647-1.827-2.176-1.47-1.634 1.855zM808.072 65.44l2.163 1.442 1.647-1.827-2.176-1.47-1.634 1.855z" fill="#ffefce" fill-opacity=".302"/><path d="M749.859 19.558L752.022 21l1.647-1.827-2.176-1.47-1.634 1.855z" fill="#ffefce" fill-opacity=".502"/><path d="M989.919 191.029l1.581 1.519 1.558-1.582-1.34-1.47-1.799 1.533m917.671 420.97l-1.52 1.581 1.58 1.558 1.47-1.34-1.53-1.799" fill="#e7e5dd" fill-opacity=".4"/><path d="M824.855 93.75l2.329 2.526 2.259-2.467-2.174-2.251-2.414 2.192zM583.769 196.716l2.329 2.526 2.259-2.467-2.174-2.251-2.414 2.192zm392.278 156.677l2.329 2.526 2.259-2.467-2.174-2.251-2.414 2.192z" fill="#f6f3ea"/><path d="M989.923 796.895l2.329 2.526 2.259-2.467-2.174-2.251-2.414 2.192z" fill="#f6f3ea" fill-opacity=".702"/><path d="M1765.23 568.128l-2.53 2.329 2.47 2.259 2.25-2.174-2.19-2.414zM125.277 93.976l2.329 2.526 2.259-2.467-2.174-2.251-2.414 2.192zm1587.193-17.94l2.33 2.526 2.26-2.467-2.17-2.25-2.42 2.191z" fill="#f6f3ea"/><path d="M984.441 102.842l1.948 1.488 1.775-1.805-1.838-1.702-1.885 2.019zM1995.78 606.521l-1.49 1.948 1.81 1.775 1.7-1.838-2.02-1.885z" fill="#e7e5dd" fill-opacity=".753"/><path d="M912.084 433.691l2.296 2.153 2.054-3.013-2.014-1.668-2.336 2.528z" fill="#f6f1e2"/><path d="M1012.33 907.718l2.29 2.153 2.06-3.013-2.02-1.668-2.33 2.528z" fill="#f6f1e2" fill-opacity=".6"/><path d="M1914.93 454.164l-2.15 2.296 3.01 2.054 1.67-2.014-2.53-2.336zM964.136 646.027l2.405 1.876 1.88-2.392-2.195-1.53-2.09 2.046zm848.444-151.939l-1.87 2.405 2.39 1.88 1.53-2.195-2.05-2.09zM81.238 46.618l2.405 1.876 1.88-2.392-2.195-1.53-2.09 2.046zm1587.192-17.94l2.41 1.876 1.88-2.392-2.2-1.53-2.09 2.046zM840.84 275.306l1.648 1.58 1.295-1.512-1.278-1.525-1.665 1.457zm982.47 117.614l-1.58 1.648 1.52 1.295 1.52-1.278-1.46-1.665zM46.07 49.889l1.648 1.58 1.295-1.512-1.278-1.525-1.665 1.457zm1342.97 463.03l1.65 1.58 1.29-1.512-1.27-1.525-1.67 1.457z" fill="#f6f1e2"/><path d="M937.186 718.495l1.486 1.019 1.016-1.216-1.3-1.014-1.202 1.211zM1809.05 489.95l-1.02 1.486 1.22 1.016 1.01-1.301-1.21-1.201zM77.1 50.154l1.486 1.019 1.016-1.216-1.301-1.014-1.201 1.211zm1587.2-17.94l1.48 1.019 1.02-1.216-1.3-1.014-1.2 1.211z" fill="#d9d4cb" fill-opacity=".2"/><path d="M453.343 729.74l1.94 1.798 1.61-1.798-1.546-1.797-2.004 1.797zM1948.24 392.242l-1.79 1.94 1.79 1.61 1.8-1.546-1.8-2.004zM630.161 110.379l1.94 1.798 1.61-1.798-1.546-1.798-2.004 1.798z" fill="#f6f1e2"/><path d="M963.862 143.453l2.972-2.688 2.728 2.577-2.584 3.084-3.116-2.973z" fill="#f6f3ea" fill-opacity=".902"/><path d="M965.027 143.445l1.822-1.646 1.671 1.578-1.583 1.887-1.91-1.82v.001z" fill="#ffefce" fill-opacity=".902"/><path d="M1955.16 525.942l2.69 2.972-2.58 2.728-3.08-2.584 2.97-3.116z" fill="#f6f3ea"/><path d="M1955.17 527.107l1.65 1.822-1.58 1.671-1.89-1.583 1.82-1.91z" fill="#ffefce"/><path d="M887.862 15.454l2.972-2.689 2.728 2.578-2.584 3.084-3.116-2.973z" fill="#f6f3ea"/><path d="M889.027 15.445l1.822-1.645 1.671 1.577-1.583 1.888-1.91-1.82z" fill="#ffefce"/><path d="M1138.38 87.682l3.22-2.917 2.96 2.796-2.8 3.347-3.38-3.226z" fill="#f6f3ea"/><path d="M1139.64 87.673l1.98-1.785 1.81 1.711-1.72 2.048-2.07-1.974z" fill="#ffefce"/><path d="M1045.58 10.19l2.13-1.984 2.09 2-1.97 2.22-2.25-2.236zm117.8 174.444l2.13-1.984 2.09 2-1.97 2.22-2.25-2.236zm750.61 700.826l1.98 2.132-2 2.083-2.22-1.969 2.24-2.246zM1191.21 65.28l1.82-1.7 1.79 1.713-1.69 1.902-1.92-1.915z" fill="#f6f3ea"/><path d="M1050.38 519.98l1.97-1.839 1.44 1.631-1.34 1.577-2.07-1.369z" fill="#f6f1e2"/><path d="M1118.75 772.171l1.97-1.839 1.44 1.631-1.34 1.577-2.07-1.369z" fill="#f6f1e2" fill-opacity=".6"/><path d="M1929.1 663.14l1.84 1.97-1.63 1.44-1.58-1.34 1.37-2.07zM993.532 202.854l1.944 1.762 1.977-1.821c-.544-.574-1.439-1.409-2.009-1.923l-1.912 1.982zm902.238 412.758l-1.77 1.944 1.83 1.977c.57-.544 1.4-1.439 1.92-2.009l-1.98-1.912z" fill="#f6f1e2"/><path d="M1568.57 56.686l1.74 1.604 1.86-1.785-1.86-1.447-1.74 1.628zm-349.2 217.983l-1.6 1.741 1.78 1.861 1.45-1.861-1.63-1.741zM1955.8 17.312l-1.61 1.741 1.79 1.861 1.45-1.861-1.63-1.741zM487.342 548.735l-1.604 1.741 1.785 1.861 1.447-1.861-1.628-1.741zM819.62 725.411l-1.604 1.741 1.785 1.861 1.447-1.861-1.628-1.741zM166.096 339.023l-1.604 1.741 1.785 1.861 1.447-1.861-1.628-1.741zM1429.81 196.399l1.74 1.604 1.86-1.785-1.86-1.447-1.74 1.628zM346.814 69.464l1.741 1.604 1.861-1.785-1.861-1.447-1.741 1.628zm-19.186 230.512l-1.604 1.741 1.785 1.861 1.447-1.861-1.628-1.741zm986.582 109.923l1.74 1.604 1.86-1.785-1.86-1.447-1.74 1.628zM561.743 43.135l-1.604 1.741 1.785 1.861 1.447-1.861-1.628-1.741zm108.164 473.518l-1.604 1.741 1.785 1.861 1.447-1.861-1.628-1.741zM26.383 180.264l-1.604 1.741 1.785 1.861 1.447-1.861-1.628-1.741zm1306.497 80.142l1.74 1.604 1.86-1.785-1.86-1.447-1.74 1.628zM283.622 233.045l-1.604 1.741 1.785 1.861 1.447-1.861-1.628-1.741zm342.279 146.677l-1.604 1.741 1.785 1.861 1.447-1.861-1.628-1.741z" fill="#f6f1e2" fill-opacity=".2"/><path d="M902.639 809.613l2.163 1.442 1.647-1.827-2.176-1.47-1.634 1.855zm287.001-525.535l-1.45 2.163 1.83 1.647 1.47-2.176-1.85-1.634zm624.9 627.639l-2.16-1.442-1.65 1.827 2.18 1.47 1.63-1.855zm111.53-884.996l-1.45 2.163 1.83 1.647 1.47-2.176-1.85-1.634zM457.61 558.144l-1.442 2.163 1.827 1.647 1.47-2.176-1.855-1.634zm1014.77-278.226l2.16 1.442 1.65-1.827-2.18-1.47-1.63 1.855zM789.888 734.82l-1.442 2.163 1.827 1.647 1.47-2.176-1.855-1.634zM126.364 378.432l-1.442 2.163 1.827 1.647 1.47-2.176-1.855-1.634zM1403.94 97.705l2.16 1.442 1.65-1.827-2.18-1.47-1.63 1.855zM436.322 334.107l-1.442 2.163 1.827 1.647 1.47-2.176-1.855-1.634zM1490.3 795.719l2.16 1.442 1.65-1.827-2.18-1.47-1.63 1.855zm-416.19 495.321l-1.45 2.16 1.83 1.65 1.47-2.18-1.85-1.63zM772.601 500.783l-1.442 2.163 1.827 1.647 1.47-2.176-1.855-1.634zm885.239-156.102l-2.16-1.442-1.65 1.827 2.18 1.47 1.63-1.855zM129.077 164.395l-1.442 2.163 1.827 1.647 1.47-2.176-1.855-1.634z" fill="#ffefce" fill-opacity=".302"/><path d="M1335.73 41.823l2.16 1.442 1.65-1.827-2.18-1.47-1.63 1.855zM482.204 255.894l-1.442 2.163 1.827 1.647 1.47-2.176-1.855-1.634zM838.483 402.57l-1.442 2.163 1.827 1.647 1.47-2.176-1.855-1.634zm-4.013 444.811l-1.442 2.163 1.827 1.647 1.47-2.176-1.855-1.634zm881.58-456.818l-2.16-1.442-1.65 1.827 2.18 1.47 1.63-1.855z" fill="#ffefce" fill-opacity=".502"/><path d="M1585.79 223.294l1.58 1.519 1.55-1.582-1.34-1.47-1.79 1.533m-533.03 68.594l-1.52 1.581 1.58 1.558 1.47-1.34-1.53-1.799m753.97 412.953l-1.58-1.519-1.56 1.582 1.34 1.47 1.8-1.533m-489.12-561.01l-1.52 1.581 1.58 1.558 1.47-1.34-1.53-1.799M221.991 52.47l-1.519 1.581 1.582 1.558 1.47-1.34-1.533-1.799M1789.19 34.531l-1.52 1.581 1.58 1.558 1.47-1.34-1.53-1.799M280.734 505.954l-1.519 1.581 1.582 1.558 1.47-1.34-1.533-1.799m1179.456-59.16l1.58 1.519 1.56-1.582-1.34-1.47-1.8 1.533M603.012 822.63l-1.519 1.581 1.582 1.558 1.47-1.34-1.533-1.799M27.149 514.296l-1.519 1.581 1.582 1.558 1.47-1.34-1.533-1.799" fill="#e7e5dd" fill-opacity=".4"/><path d="M1420.72 126.015l2.33 2.526 2.26-2.467-2.18-2.251-2.41 2.192zM408.013 350.89l-2.526 2.329 2.467 2.259 2.251-2.174-2.192-2.414z" fill="#f6f3ea"/><path d="M1285.12 589.515l2.33 2.526 2.26-2.467-2.17-2.251-2.42 2.192z" fill="#f6f3ea" fill-opacity=".302"/><path d="M1045.8 1307.82l-2.53 2.33 2.47 2.26 2.25-2.17-2.19-2.42zM744.291 517.566l-2.526 2.329 2.467 2.259 2.251-2.174-2.192-2.414zm896.769-221.194l-2.33-2.526-2.26 2.467 2.17 2.251 2.42-2.192zM100.767 181.178l-2.526 2.329 2.467 2.259 2.251-2.174-2.192-2.414zm1128.863 57.803l2.33 2.526 2.26-2.467-2.17-2.251-2.42 2.192z" fill="#f6f3ea"/><path d="M315.046 169.803l-2.526 2.329 2.467 2.259 2.251-2.174-2.192-2.414z" fill="#f6f3ea" fill-opacity=".8"/><path d="M607.325 286.48l-2.526 2.329 2.467 2.259 2.251-2.174-2.192-2.414z" fill="#f6f3ea"/><path d="M1580.31 135.107l1.95 1.488 1.77-1.805-1.84-1.703-1.88 2.02zM507.314 18.171l1.948 1.49 1.775-1.806-1.838-1.703-1.885 2.02v-.001zm642.946 618.695l-1.49 1.948 1.81 1.775 1.7-1.838-2.02-1.885zm661.95 186.163l-1.95-1.49-1.77 1.806 1.83 1.703 1.89-2.02v.001zm65.16-793.976l-1.49 1.948 1.81 1.775 1.7-1.838-2.02-1.885zM408.922 430.476l-1.49 1.948 1.806 1.775 1.703-1.838-2.02-1.885h.001zm1005.788-91.87l1.95 1.49 1.77-1.806-1.84-1.703-1.88 2.02v-.001zM761.2 657.152l-1.49 1.948 1.806 1.775 1.703-1.838-2.02-1.885h.001zM97.676 290.764l-1.49 1.948 1.806 1.775 1.703-1.838-2.02-1.885h.001z" fill="#e7e5dd" fill-opacity=".753"/><path d="M1517.95 215.956l2.3 2.153 2.05-3.013-2.01-1.668-2.34 2.528zM424.957 139.02l2.296 2.153 2.054-3.013-2.014-1.667-2.336 2.528v-.001zM258.072 392.119l-2.153 2.296 3.013 2.054 1.668-2.014-2.528-2.336zM1376.35 499.456l2.3 2.153 2.05-3.013-2.01-1.668-2.34 2.528zm68.38 252.191l2.3 2.153 2.05-3.013-2.01-1.668-2.34 2.528zm-834.38-26.852l-2.153 2.296 3.013 2.054 1.668-2.014-2.528-2.336zM34.487 406.461l-2.153 2.296 3.013 2.054 1.668-2.014-2.528-2.336zM1964.67 195.92l2.4 1.875 1.88-2.392-2.19-1.53-2.09 2.046v.001zM185.728 518.042l-1.876 2.405 2.392 1.88 1.53-2.195-2.046-2.09zM1422.28 631.8l2.4 1.876 1.88-2.392-2.19-1.53-2.09 2.046zm-864.274 22.918l-1.876 2.405 2.392 1.88 1.53-2.195-2.046-2.09zM1869.5 169.19l1.65 1.58 1.29-1.512-1.27-1.525-1.67 1.457zM152.457 406.875l-1.58 1.648 1.512 1.295 1.525-1.278-1.457-1.665zM1371.11 665.071l1.65 1.58 1.29-1.512-1.28-1.525-1.66 1.457zm-816.375-45.52l-1.58 1.648 1.512 1.295 1.525-1.278-1.457-1.665z" fill="#f6f1e2"/><path d="M1960.53 199.455l1.49 1.019 1.01-1.216-1.3-1.014-1.2 1.211zM182.192 513.905l-1.019 1.486 1.216 1.016 1.014-1.301-1.211-1.201zM1418.14 635.336l1.48 1.019 1.02-1.216-1.3-1.014-1.2 1.211zm-863.67 15.245l-1.019 1.486 1.216 1.016 1.014-1.301-1.211-1.201z" fill="#d9d4cb" fill-opacity=".2"/><path d="M868.703 887.272l1.94 1.798 1.61-1.798-1.546-1.797-2.004 1.797z" fill="#f6f1e2"/><path d="M729.055 315.833l1.94 1.798 1.61-1.798-1.546-1.797-2.004 1.797z" fill="#f6f1e2" fill-opacity=".502"/><path d="M321.384 336.196l-1.798 1.94 1.798 1.61 1.797-1.546-1.797-2.004zm1009.046 59.947l1.94 1.798 1.61-1.798-1.55-1.797-2 1.797z" fill="#f6f1e2"/><path d="M1604.21 529.899l1.74 1.604 1.86-1.785-1.86-1.447-1.74 1.628z" fill="#f6f1e2" fill-opacity=".2"/><path d="M1620.43 436.143l1.94 1.798 1.61-1.798-1.55-1.797-2 1.797zM989.164 1323.13l-1.798 1.94 1.798 1.61 1.797-1.55-1.797-2zM673.663 532.873l-1.798 1.94 1.798 1.61 1.797-1.546-1.797-2.004z" fill="#f6f1e2"/><path d="M1079.62 992.125l-1.6 1.74 1.78 1.862 1.45-1.861-1.63-1.741z" fill="#f6f1e2" fill-opacity=".2"/><path d="M842.601 530.783l-1.442 2.163 1.827 1.647 1.47-2.176-1.855-1.634z" fill="#ffefce" fill-opacity=".302"/><path d="M1526.89 610.227l-2.53 2.329 2.47 2.259 2.25-2.174-2.19-2.414z" fill="#f6f3ea"/><path d="M1173.03 930.833l-1.79 1.94 1.79 1.61 1.8-1.546-1.8-2.004zM30.139 196.484l-1.798 1.94 1.798 1.61 1.797-1.546-1.797-2.004zM1266.03 442.643l1.94 1.798 1.61-1.798-1.55-1.797-2 1.797zm68.37 252.192l1.95 1.798 1.6-1.798-1.54-1.797-2.01 1.797zM723.663 302.873l-1.798 1.94 1.798 1.61 1.797-1.546-1.797-2.004zm1112.087-37.13l-1.94-1.798-1.61 1.798 1.55 1.797 2-1.797z" fill="#f6f1e2"/><path d="M1559.73 175.718l2.97-2.689 2.73 2.578-2.59 3.084-3.11-2.973z" fill="#f6f3ea" fill-opacity=".6"/><path d="M1560.89 175.71l1.83-1.646 1.67 1.578-1.59 1.887-1.91-1.82v.001z" fill="#ffefce" fill-opacity=".6"/><path d="M486.735 58.783l2.972-2.689 2.728 2.578-2.584 3.084-3.116-2.973z" fill="#f6f3ea"/><path d="M487.9 58.774l1.822-1.645 1.671 1.577-1.583 1.888-1.91-1.82z" fill="#ffefce"/><path d="M1100.33 265.83l2.69 2.973-2.58 2.728-3.08-2.584 2.97-3.116v-.001z" fill="#f6f3ea" fill-opacity=".702"/><path d="M1100.34 266.996l1.65 1.822-1.58 1.671-1.89-1.583 1.82-1.91z" fill="#ffefce" fill-opacity=".702"/><path d="M1929.76 771.527l-2.97 2.689-2.73-2.578 2.58-3.084 3.12 2.973z" fill="#f6f3ea" fill-opacity=".302"/><path d="M1928.6 771.536l-1.83 1.645-1.67-1.577 1.59-1.888 1.91 1.82z" fill="#ffefce" fill-opacity=".302"/><path d="M269.566 26.413l2.689 2.972-2.578 2.728-3.084-2.584 2.973-3.116z" fill="#f6f3ea"/><path d="M269.575 27.578l1.645 1.822-1.577 1.671-1.888-1.583 1.82-1.91z" fill="#ffefce"/><path d="M1836.76 8.474l2.69 2.972-2.58 2.728-3.08-2.584 2.97-3.116z" fill="#f6f3ea"/><path d="M1836.77 9.64l1.65 1.82-1.58 1.672-1.89-1.583 1.82-1.91v.001z" fill="#ffefce"/><path d="M358.31 539.897l2.688 2.972-2.578 2.728-3.084-2.584 2.973-3.116h.001z" fill="#f6f3ea"/><path d="M358.318 541.062l1.645 1.822-1.577 1.671-1.888-1.583 1.82-1.91z" fill="#ffefce"/><path d="M1534.13 379.218l2.97-2.689 2.73 2.578-2.58 3.084-3.12-2.973z" fill="#f6f3ea"/><path d="M1535.3 379.21l1.82-1.646 1.67 1.577-1.59 1.888-1.9-1.82v.001z" fill="#ffefce"/><path d="M710.588 616.573l2.689 2.972-2.578 2.728-3.084-2.584 2.973-3.116z" fill="#f6f3ea" fill-opacity=".6"/><path d="M710.597 617.738l1.645 1.822-1.577 1.671-1.888-1.583 1.82-1.91z" fill="#ffefce" fill-opacity=".6"/><path d="M47.064 700.185l2.689 2.972-2.578 2.728-3.084-2.584 2.973-3.116z" fill="#f6f3ea"/><path d="M47.073 701.35l1.645 1.822-1.577 1.671-1.888-1.583 1.82-1.91z" fill="#ffefce"/><path d="M1483.73 47.718l2.97-2.689 2.73 2.578-2.59 3.084-3.11-2.973z" fill="#f6f3ea"/><path d="M1484.89 47.71l1.82-1.646 1.68 1.578-1.59 1.887-1.91-1.82v.001z" fill="#ffefce"/><path d="M486.31 393.897l2.688 2.972-2.578 2.728-3.084-2.584 2.973-3.116h.001z" fill="#f6f3ea"/><path d="M486.318 395.062l1.645 1.822-1.577 1.671-1.888-1.583 1.82-1.91z" fill="#ffefce"/><path d="M842.588 610.573l2.689 2.972-2.578 2.728-3.084-2.584 2.973-3.116z" fill="#f6f3ea"/><path d="M842.597 611.738l1.645 1.822-1.577 1.671-1.888-1.583 1.82-1.91z" fill="#ffefce"/><path d="M179.064 244.185l2.689 2.972-2.578 2.728-3.084-2.584 2.973-3.116z" fill="#f6f3ea"/><path d="M179.073 245.35l1.645 1.822-1.577 1.671-1.888-1.583 1.82-1.91z" fill="#ffefce"/><path d="M1734.24 119.947l3.23-2.918 2.96 2.797-2.81 3.347-3.38-3.226z" fill="#f6f3ea"/><path d="M1735.51 119.938l1.97-1.786 1.82 1.712-1.72 2.048-2.07-1.974z" fill="#ffefce"/><path d="M1156.11 440.345l2.91 3.225-2.79 2.96-3.35-2.804 3.23-3.381z" fill="#f6f3ea"/><path d="M1156.12 441.61l1.78 1.976-1.71 1.814-2.05-1.719 1.98-2.071z" fill="#ffefce"/><path d="M1224.49 692.537l2.91 3.225-2.79 2.96-3.35-2.804 3.23-3.381z" fill="#f6f3ea"/><path d="M1224.5 693.802l1.78 1.976-1.71 1.814-2.05-1.719 1.98-2.071z" fill="#ffefce"/><path d="M1658.28 878.186l-3.23 2.917-2.96-2.796 2.81-3.347 3.38 3.226z" fill="#f6f3ea"/><path d="M1657.01 878.195l-1.97 1.785-1.82-1.711 1.72-2.048 2.07 1.974z" fill="#ffefce"/><path d="M414.08 794.41l2.918 3.226-2.796 2.96-3.347-2.804 3.226-3.381-.001-.001z" fill="#f6f3ea"/><path d="M414.09 795.676l1.785 1.976-1.711 1.814-2.048-1.719 1.974-2.071z" fill="#ffefce"/><path d="M1643.24 91.154l2.13-1.985 2.09 2-1.97 2.22-2.25-2.235z" fill="#f6f3ea" fill-opacity=".502"/><path d="M1233.6 367.55l1.98 2.132-2 2.083-2.22-1.969 2.24-2.246z" fill="#f6f3ea"/><path d="M1981.46 71.926l1.98 2.132-2 2.083-2.22-1.969 2.24-2.246z" fill="#f6f3ea" fill-opacity=".502"/><path d="M491.572 641.617l1.985 2.132-2 2.083-2.22-1.97 2.235-2.245zM1759.24 216.9l2.13-1.985 2.09 2-1.97 2.22-2.25-2.235zm-700.09 278.45l1.99 2.131-2 2.083-2.22-1.969 2.23-2.246v.001zm68.39 252.19l1.98 2.133-2 2.083-2.22-1.97 2.24-2.245v-.001zm505.73-36.305l-2.13 1.985-2.09-2 1.97-2.22 2.25 2.235zM297.128 819.415l1.985 2.132-2 2.083-2.22-1.969 2.235-2.246z" fill="#f6f3ea"/><path d="M1787.07 97.545l1.83-1.7 1.78 1.713-1.68 1.902-1.93-1.915z" fill="#f6f3ea" fill-opacity=".302"/><path d="M1178.51 553.175l1.7 1.827-1.72 1.784-1.9-1.687 1.92-1.924zm68.38 252.192l1.7 1.826-1.72 1.785-1.9-1.687 1.92-1.924zm-810.407 81.875l1.7 1.826-1.713 1.785-1.902-1.687 1.915-1.924z" fill="#f6f3ea"/><path d="M1636.93 201.788l1.97-1.84 1.44 1.632-1.34 1.577-2.07-1.37v.001zm-562.66 493.82l1.84 1.97-1.64 1.44-1.57-1.34 1.37-2.07zm681.32 30.739l-1.97 1.839-1.44-1.631 1.34-1.577 2.07 1.369zm-406.47-521.375l1.84 1.97-1.63 1.44-1.58-1.34 1.37-2.07zM243.497 103.611l1.839 1.97-1.631 1.44-1.577-1.34 1.369-2.07zM1810.7 85.672l1.84 1.97-1.64 1.44-1.57-1.34 1.37-2.07zM322.24 637.095l1.839 1.97-1.631 1.44-1.577-1.34 1.369-2.07zM1589.4 235.119l1.94 1.762 1.98-1.821c-.54-.574-1.44-1.41-2.01-1.923l-1.91 1.982zM1040.94 648.08l-1.77 1.944 1.83 1.977c.57-.544 1.4-1.439 1.92-2.009l-1.98-1.912zm762.18 14.936l-1.95-1.762-1.97 1.821c.54.574 1.44 1.409 2.01 1.923l1.91-1.982zM1301.79 91.444l-1.77 1.944 1.83 1.977c.57-.544 1.4-1.439 1.92-2.009l-1.98-1.912zM210.166 56.083l-1.762 1.944 1.821 1.977c.574-.544 1.409-1.439 1.923-2.009l-1.982-1.912z" fill="#f6f1e2"/><path d="M972.7 24.421l1.741 1.604 1.861-1.785-1.861-1.447-1.741 1.628zM437.123 733.496l1.741 1.604 1.861-1.785-1.861-1.447-1.741 1.628zm289.888-515.355l1.741 1.604 1.861-1.785-1.861-1.447-1.741 1.628z" fill="#f6f1e2" fill-opacity=".2"/><path d="M982.109 54.153l2.163 1.442 1.647-1.827-2.176-1.47-1.634 1.855zM765.47 139.5l2.163 1.442 1.647-1.827-2.176-1.47-1.634 1.855z" fill="#ffefce" fill-opacity=".302"/><path d="M749.859 19.558L752.022 21l1.647-1.827-2.176-1.47-1.634 1.855z" fill="#ffefce" fill-opacity=".502"/><path d="M989.919 191.029l1.581 1.519 1.558-1.582-1.34-1.47-1.799 1.533" fill="#e7e5dd" fill-opacity=".4"/><path d="M851.892 166.405l2.329 2.526 2.259-2.467-2.174-2.251-2.414 2.192zm-268.123 30.311l2.329 2.526 2.259-2.467-2.174-2.251-2.414 2.192z" fill="#f6f3ea"/><path d="M984.441 102.842l1.948 1.488 1.775-1.805-1.838-1.702-1.885 2.019z" fill="#e7e5dd" fill-opacity=".753"/><path d="M453.343 729.74l1.94 1.798 1.61-1.798-1.546-1.797-2.004 1.797zm176.818-619.361l1.94 1.798 1.61-1.798-1.546-1.798-2.004 1.798z" fill="#f6f1e2"/><path d="M1660.75 640.732l2.98-2.689 2.72 2.578-2.58 3.084-3.12-2.973z" fill="#f6f3ea" fill-opacity=".302"/><path d="M1661.92 640.723l1.82-1.645 1.67 1.577-1.58 1.888-1.91-1.82z" fill="#ffefce" fill-opacity=".302"/><path d="M1354.76 860.462l2.97-2.689 2.72 2.578-2.58 3.084-3.11-2.973z" fill="#f6f3ea"/><path d="M1355.92 860.453l1.82-1.645 1.67 1.577-1.58 1.888-1.91-1.82z" fill="#ffefce"/><path d="M993.532 202.854l1.944 1.762 1.977-1.821c-.544-.574-1.439-1.409-2.009-1.923l-1.912 1.982z" fill="#f6f1e2"/><path d="M895.081 1000.27l1.741 1.6 1.861-1.78-1.86-1.45-1.742 1.63zM666.76 94.579l-1.604 1.741 1.785 1.861 1.447-1.861-1.628-1.741zM283.622 233.045l-1.604 1.741 1.785 1.861 1.447-1.861-1.628-1.741z" fill="#f6f1e2" fill-opacity=".2"/><path d="M1074.11 1291.04l-1.45 2.16 1.83 1.65 1.47-2.18-1.85-1.63z" fill="#ffefce" fill-opacity=".302"/><path d="M945.811 528.116l-1.519 1.581 1.582 1.558 1.47-1.34-1.533-1.799" fill="#e7e5dd" fill-opacity=".4"/><path d="M1477.12 846.26l-2.53 2.328 2.47 2.26 2.25-2.174-2.19-2.414z" fill="#f6f3ea"/><path d="M315.046 169.803l-2.526 2.329 2.467 2.259 2.251-2.174-2.192-2.414z" fill="#f6f3ea" fill-opacity=".8"/><path d="M507.314 18.171l1.948 1.49 1.775-1.806-1.838-1.703-1.885 2.02v-.001z" fill="#e7e5dd" fill-opacity=".753"/><path d="M1267.75 932.108l2.29 2.153 2.06-3.013-2.02-1.668-2.33 2.528zm-570.78-27.3l1.94 1.798 1.61-1.798-1.547-1.797-2.004 1.797h.001zm292.194 418.322l-1.798 1.94 1.798 1.61 1.797-1.55-1.797-2z" fill="#f6f1e2"/><path d="M486.735 58.783l2.972-2.689 2.728 2.578-2.584 3.084-3.116-2.973z" fill="#f6f3ea"/><path d="M487.9 58.774l1.822-1.645 1.671 1.577-1.583 1.888-1.91-1.82z" fill="#ffefce"/><path d="M269.566 26.413l2.689 2.972-2.578 2.728-3.084-2.584 2.973-3.116z" fill="#f6f3ea"/><path d="M269.575 27.578l1.645 1.822-1.577 1.671-1.888-1.583 1.82-1.91z" fill="#ffefce"/><path d="M243.497 103.611l1.839 1.97-1.631 1.44-1.577-1.34 1.369-2.07zm322.456 363.196l-1.762 1.944 1.821 1.977c.574-.544 1.409-1.439 1.923-2.009l-1.982-1.912zM1777.37 38.144l-1.77 1.944 1.82 1.977c.58-.544 1.41-1.439 1.93-2.009l-1.98-1.912z" fill="#f6f1e2"/><path d="M206.415 1050.79l-2.329-2.53-2.259 2.47 2.174 2.25 2.414-2.19z" fill="#f6f3ea"/><path d="M270.451 1238.15l-2.405-1.87-1.88 2.39 2.195 1.53 2.09-2.05zm105.169-53.27l-1.648-1.58-1.295 1.52 1.278 1.52 1.665-1.46z" fill="#f6f1e2"/><path d="M274.59 1234.62l-1.486-1.02-1.016 1.22 1.301 1.01 1.201-1.21z" fill="#d9d4cb" fill-opacity=".2"/><path d="M350.32 1070.14l-1.741-1.6-1.861 1.78 1.861 1.45 1.741-1.63z" fill="#f6f1e2" fill-opacity=".2"/><path d="M340.911 1040.41l-2.163-1.45-1.647 1.83 2.176 1.47 1.634-1.85zm174.04-11.28l-2.163-1.45-1.647 1.83 2.176 1.47 1.634-1.85z" fill="#ffefce" fill-opacity=".302"/><path d="M583.161 1085.01l-2.163-1.44-1.647 1.82 2.176 1.47 1.634-1.85z" fill="#ffefce" fill-opacity=".502"/><path d="M601.272 983.001l1.519-1.581-1.582-1.558-1.47 1.34 1.533 1.799M179.7 1132.3l1.519-1.58-1.582-1.56-1.47 1.34 1.533 1.8" fill="#e7e5dd" fill-opacity=".4"/><path d="M498.165 1000.81l-2.329-2.526-2.259 2.466 2.174 2.25 2.414-2.19z" fill="#f6f3ea"/><path d="M338.579 991.723l-1.948-1.49-1.775 1.806 1.838 1.703 1.885-2.02v.001zM71.512 1167.78l1.489-1.95-1.805-1.77-1.703 1.83 2.02 1.89h-.001z" fill="#e7e5dd" fill-opacity=".753"/><path d="M49.383 957.644l-1.648-1.58-1.295 1.512 1.278 1.525 1.665-1.457zm433.479-13.46l-1.94-1.798-1.61 1.798 1.546 1.797 2.004-1.797z" fill="#f6f1e2"/><path d="M359.161 951.113l-2.972 2.689-2.728-2.578 2.584-3.084 3.116 2.973z" fill="#f6f3ea" fill-opacity=".6"/><path d="M357.996 951.122l-1.822 1.645-1.671-1.577 1.583-1.888 1.91 1.82z" fill="#ffefce" fill-opacity=".6"/><path d="M122.124 1218.35l-2.689-2.97 2.578-2.73 3.084 2.59-2.973 3.11z" fill="#f6f3ea"/><path d="M122.116 1217.19l-1.646-1.83 1.577-1.67 1.888 1.59-1.82 1.91h.001z" fill="#ffefce"/><path d="M435.161 1079.11l-2.972 2.69-2.728-2.58 2.584-3.08 3.116 2.97z" fill="#f6f3ea"/><path d="M433.996 1079.12l-1.822 1.65-1.671-1.58 1.583-1.89 1.91 1.82z" fill="#ffefce"/><path d="M194.64 966.886l-3.226 2.917-2.96-2.796 2.804-3.347 3.381 3.226h.001z" fill="#f6f3ea"/><path d="M193.374 966.895l-1.976 1.785-1.814-1.711 1.719-2.048 2.071 1.974z" fill="#ffefce"/><path d="M367.439 1174.38l-2.132 1.98-2.083-2 1.969-2.22 2.246 2.24z" fill="#f6f3ea"/><path d="M84.544 895.444l-1.826 1.7-1.785-1.713 1.687-1.902 1.924 1.915z" fill="#f6f3ea" fill-opacity=".502"/><path d="M108.194 1041.16l-1.84-1.97 1.632-1.44 1.577 1.34-1.37 2.07h.001zm508.903-5.77l1.762-1.95-1.821-1.97c-.574.54-1.409 1.44-1.923 2.01l1.982 1.91zm-425.572 93.3l1.762-1.95-1.821-1.97c-.574.54-1.41 1.44-1.923 2.01l1.982 1.91zm77.384-619.123l-1.762 1.944 1.821 1.977c.574-.544 1.409-1.439 1.923-2.009l-1.982-1.912zM1463.8 458.619l1.94 1.762 1.98-1.821c-.54-.574-1.44-1.409-2.01-1.923l-1.91 1.982zm-348.72 689.141l-1.97 1.84-1.44-1.64 1.34-1.57 2.07 1.37z" fill="#f6f1e2"/><path d="M851.25 1257.84l-1.741-1.6-1.861 1.78 1.861 1.45 1.741-1.63z" fill="#f6f1e2" fill-opacity=".2"/><path d="M449.411 1277.17l2.163 1.45 1.647-1.83-2.176-1.47-1.634 1.85z" fill="#ffefce" fill-opacity=".502"/><path d="M705.271 1220.95l-1.581-1.52-1.558 1.58 1.34 1.47 1.799-1.53" fill="#e7e5dd" fill-opacity=".4"/><path d="M1015.2 1030.88l1.49-1.95-1.81-1.77-1.7 1.83 2.02 1.89z" fill="#e7e5dd" fill-opacity=".753"/><path d="M789.106 1168.29l-2.296-2.15-2.054 3.01 2.014 1.67 2.336-2.53zm-45.925-132.35l-2.405-1.87-1.88 2.39 2.195 1.53 2.09-2.05zm51.169-33.27l-1.648-1.58-1.295 1.52 1.278 1.52 1.665-1.46z" fill="#f6f1e2"/><path d="M747.32 1032.41l-1.486-1.02-1.016 1.22 1.301 1.01 1.201-1.21z" fill="#d9d4cb" fill-opacity=".2"/><path d="M835.032 1271.59l-1.94-1.79-1.61 1.79 1.546 1.8 2.004-1.8z" fill="#f6f1e2"/><path d="M561.25 1137.84l-1.741-1.6-1.861 1.78 1.861 1.45 1.741-1.63z" fill="#f6f1e2" fill-opacity=".2"/><path d="M545.032 1231.59l-1.94-1.79-1.61 1.79 1.546 1.8 2.004-1.8zm354.4-6.5l-1.94-1.79-1.61 1.79 1.546 1.8 2.004-1.8z" fill="#f6f1e2"/><path d="M1009.35 1227.4l-2.91-3.23 2.79-2.96 3.35 2.81-3.23 3.38z" fill="#f6f3ea"/><path d="M1009.34 1226.13l-1.78-1.97 1.71-1.82 2.05 1.72-1.98 2.07z" fill="#ffefce"/><path d="M1106.31 1172.39l-1.99-2.13 2-2.09 2.22 1.97-2.23 2.25zm-119.36-57.82l-1.7-1.83 1.714-1.79 1.902 1.69-1.915 1.93h-.001z" fill="#f6f3ea"/><path d="M701.658 1209.13l-1.944-1.77-1.977 1.82c.544.58 1.439 1.41 2.009 1.93l1.912-1.98zm-60.471-462.887l-1.762 1.944 1.821 1.977c.574-.544 1.409-1.439 1.923-2.009l-1.982-1.912z" fill="#f6f1e2"/><path d="M1375.21 1052.48l-2.32-2.53-2.26 2.47 2.17 2.25 2.41-2.19z" fill="#f6f3ea" fill-opacity=".302"/><path d="M1439.18 972.179l-2.3-2.153-2.05 3.013 2.01 1.668 2.34-2.528zM1445.92 1204.19l-2.4-1.87-1.88 2.39 2.19 1.53 2.09-2.05z" fill="#f6f1e2"/><path d="M1457.27 1211.79l-1.49-1.02-1.01 1.22 1.3 1.01 1.2-1.21z" fill="#d9d4cb" fill-opacity=".2"/><path d="M1268.49 1068.52l-1.97 1.84-1.44-1.64 1.34-1.57 2.07 1.37z" fill="#f6f1e2"/><path d="M1899.9 1291.95l1.61-1.74-1.79-1.86-1.45 1.86 1.63 1.74zM1567.62 1115.27l1.61-1.74-1.79-1.86-1.45 1.86 1.63 1.74z" fill="#f6f1e2" fill-opacity=".2"/><path d="M1929.63 1282.54l1.45-2.16-1.83-1.65-1.47 2.18 1.85 1.63zM1597.35 1105.86l1.45-2.16-1.83-1.65-1.47 2.18 1.85 1.63z" fill="#ffefce" fill-opacity=".302"/><path d="M1552.77 993.301l1.45-2.163-1.83-1.647-1.47 2.176 1.85 1.634z" fill="#ffefce" fill-opacity=".502"/><path d="M1784.23 1018.05l1.52-1.58-1.58-1.56-1.47 1.34 1.53 1.8" fill="#e7e5dd" fill-opacity=".4"/><path d="M1236.98 1203.82l1.49-1.95-1.81-1.77-1.7 1.83 2.02 1.89zM1626.05 1183.53l1.49-1.95-1.81-1.77-1.7 1.83 2.02 1.89z" fill="#e7e5dd" fill-opacity=".753"/><path d="M1776.89 1115.89l2.15-2.3-3.01-2.05-1.67 2.01 2.53 2.34zM1829.24 1185.97l1.87-2.4-2.39-1.88-1.53 2.19 2.05 2.09zM1832.51 1221.13l1.58-1.65-1.52-1.29-1.52 1.27 1.46 1.67z" fill="#f6f1e2"/><path d="M1832.77 1190.1l1.02-1.49-1.22-1.01-1.01 1.3 1.21 1.2z" fill="#d9d4cb" fill-opacity=".2"/><path d="M1736.82 1284.78l-2.69-2.97 2.58-2.73 3.08 2.58-2.97 3.12z" fill="#f6f3ea"/><path d="M1736.81 1283.62l-1.65-1.83 1.58-1.67 1.89 1.59-1.82 1.91z" fill="#ffefce"/><path d="M1547.8 1270.64l-2.69-2.97 2.58-2.73 3.08 2.59-2.97 3.11z" fill="#f6f3ea"/><path d="M1547.79 1269.48l-1.65-1.83 1.58-1.67 1.89 1.59-1.82 1.91z" fill="#ffefce"/><path d="M1973.16 1046.27l-2.91-3.23 2.79-2.96 3.35 2.81-3.23 3.38z" fill="#f6f3ea"/><path d="M1973.15 1045l-1.78-1.97 1.71-1.82 2.05 1.72-1.98 2.07z" fill="#ffefce"/><path d="M1895.67 1199.07l-1.98-2.13 2-2.09 2.22 1.97-2.24 2.25zM1208.64 1108.3l-1.98-2.13 2-2.09 2.22 1.97-2.24 2.25zM1208.73 1287.51l-1.7-1.83 1.72-1.79 1.9 1.69-1.92 1.93zM1950.76 953.446l-1.7-1.826 1.72-1.785 1.9 1.687-1.92 1.924z" fill="#f6f3ea"/><path d="M1312.98 1145.08l-1.84-1.97 1.64-1.44 1.57 1.34-1.37 2.07zM1346.31 1192.61l1.77-1.95-1.82-1.97c-.58.54-1.41 1.44-1.93 2.01l1.98 1.91zM1743.22 998.738l1.77-1.944-1.83-1.977c-.57.544-1.4 1.439-1.92 2.009l1.98 1.912zM65.324 407.909l-1.762 1.944 1.821 1.977c.574-.544 1.409-1.439 1.923-2.009l-1.982-1.912z" fill="#f6f1e2"/><path d="M175.44 674.979l-1.741-1.604-1.861 1.785 1.861 1.447 1.741-1.628z" fill="#f6f1e2" fill-opacity=".2"/><path d="M201.311 807.673l-2.163-1.442-1.647 1.827 2.176 1.47 1.634-1.855z" fill="#ffefce" fill-opacity=".302"/><path d="M184.525 779.364l-2.329-2.526-2.259 2.467 2.174 2.251 2.414-2.192z" fill="#f6f3ea"/><path d="M159.222 678.735l-1.94-1.798-1.61 1.798 1.546 1.797 2.004-1.797z" fill="#f6f1e2"/></svg>