<svg viewBox="0 0 160 28" xmlns="http://www.w3.org/2000/svg" fill-rule="evenodd" clip-rule="evenodd" stroke-linejoin="round" stroke-miterlimit="1.414"><path d="M10.656 2.437c-5.473 0-9.18 2.7-9.18 7.02 0 8.966 13.608 5.834 13.608 11.451 0 1.946-1.763 3.06-4.715 3.06-2.7 0-5.94-1.294-8.534-3.671L0 23.968c2.591 2.377 6.335 3.997 10.295 3.997 5.545 0 9.505-2.772 9.505-7.272.037-9.074-13.572-6.122-13.572-11.63 0-1.692 1.62-2.63 4.104-2.63 1.909 0 4.645.685 7.381 2.34l1.764-3.743c-2.34-1.549-5.544-2.594-8.82-2.594v.001zm21.854 20.99c-1.115.54-2.016.83-2.88.83-1.295 0-2.052-.613-2.052-2.593v-9.18h5.652V9.385h-5.652V4.13h-4.104v5.255h-2.7v3.096h2.7v9.937c0 3.925 2.484 5.581 5.364 5.581 1.62 0 3.205-.503 4.717-1.404l-1.046-3.168zm7.2-14.761h-4.14V27.82h4.14V17.81c.326-3.275 2.773-5.543 6.625-5.328v-3.96c-3.023 0-5.328 1.368-6.624 3.96V8.666zm16.13-.144c-5.687.036-9.684 3.96-9.684 9.758 0 5.76 3.889 9.684 9.793 9.684 3.312 0 6.048-1.187 7.92-3.24l-2.197-2.34c-1.404 1.44-3.312 2.232-5.4 2.232-3.024 0-5.293-1.835-5.941-4.789h14.474c.506-6.912-2.23-11.305-8.965-11.305zm-5.58 8.28c.469-3.06 2.593-4.968 5.617-4.968 3.132 0 5.184 1.873 5.328 4.97H50.261l-.001-.001zm24.95-8.28c-5.687.036-9.684 3.96-9.684 9.758 0 5.76 3.89 9.684 9.794 9.684 3.313 0 6.049-1.187 7.921-3.24l-2.197-2.34c-1.404 1.44-3.312 2.232-5.4 2.232-3.024 0-5.293-1.835-5.941-4.789h14.473c.506-6.912-2.23-11.305-8.964-11.305h-.001zm-5.58 8.28c.469-3.06 2.592-4.968 5.618-4.968 3.132 0 5.184 1.873 5.329 4.97H69.63v-.001zm26.859 6.625c-1.114.54-2.016.83-2.88.83-1.296 0-2.053-.613-2.053-2.593v-9.18h5.653V9.385h-5.653V4.13h-4.103v5.255h-2.7v3.096h2.7v9.937c0 3.925 2.483 5.581 5.363 5.581 1.62 0 3.206-.503 4.716-1.404l-1.044-3.168h.001zm28.047-14.905c-3.492 0-6.049 1.404-7.272 4.608-.9-2.914-3.24-4.608-6.66-4.608-3.17 0-5.618 1.153-6.95 3.853v-3.71h-4.105V27.82h4.105v-9.467c0-3.35 2.016-5.87 5.328-5.978 2.809 0 4.5 1.764 4.5 4.68V27.82h4.141v-9.467c0-3.35 1.98-5.87 5.257-5.978 2.808 0 4.536 1.764 4.536 4.68V27.82h4.14V15.903c0-4.573-2.627-7.381-7.02-7.381zM137.354.674c-1.369 0-2.413 1.044-2.413 2.52 0 1.44 1.044 2.484 2.413 2.484 1.368 0 2.412-1.045 2.412-2.486 0-1.474-1.044-2.518-2.412-2.518zm2.052 27.146V8.666H135.3V27.82h4.105zm11.269-12.601l-4.284-6.552h-4.753l6.3 9.325-6.768 9.829h4.608l4.897-7.02 4.573 7.02H160l-6.589-9.83 6.157-9.323h-4.536l-4.357 6.552v-.001z" fill="#35677c" fill-rule="nonzero"/></svg>