<svg clip-rule="evenodd" fill-rule="evenodd" stroke-linejoin="round" stroke-miterlimit="2" viewBox="0 0 169 28" xmlns="http://www.w3.org/2000/svg"><g fill="#fff"><g fill-rule="nonzero"><path d="m51.482 8.516v4.324c-1.146-.421-2.37-.585-3.586-.479-1.337.102-2.305.584-2.951 1.28-.824.892-1.201 2.126-1.201 3.499v9.887h-4.697v-18.547h4.118v2.534c.48-.841 1.164-1.546 1.991-2.049.98-.582 2.088-.912 3.227-.961 1.058-.065 2.118.111 3.099.512z"/><path d="m100.787 18.882c0 1.442-.069 2.643.376 3.329.446.687 1.237.997 1.957 1.063 1.009.055 2.022.01 3.022-.135v3.877c-1.442.413-4.052.377-5.424.139-1.717-.31-2.779-.858-3.776-2.336-.996-1.478-.825-3.432-.825-5.663v-7.069h-3.142v-3.607h3.155v-5.15h4.657v5.148h5.355v3.609h-5.355z"/><path d="m137.331 15.803v11.388h-4.777v-11.042c0-1.35-.243-2.18-.899-2.907-.621-.642-1.478-1.004-2.371-1.004-.911 0-1.782.376-2.405 1.04-.728.83-.864 1.659-.864 2.602v11.318h-4.779v-11.049c0-1.35-.241-2.18-.899-2.907-.622-.642-1.478-1.004-2.371-1.004-.911 0-1.782.376-2.406 1.04-.725.83-.866 1.659-.866 2.594v11.319h-4.74v-18.698h4.154v2.008c1.353-1.568 3.328-2.467 5.399-2.459 1.557 0 3.53.487 4.705 1.732.333.345.623.729.866 1.142 1.348-1.816 3.484-2.884 5.745-2.874 1.557 0 3.529.487 4.708 1.732 1.626 1.703 1.8 3.642 1.8 6.029z"/><path d="m141.147 8.501h4.705v18.697h-4.705z"/></g><circle cx="143.501" cy="2.989" r="2.989"/><path d="m58.443 21.722c.769 1.025 2.049 1.591 3.425 1.591 1.109 0 1.975-.277 2.666-.83.523-.4.939-.922 1.212-1.521l4.705 1.347c-.669 1.599-1.802 2.962-3.253 3.911-1.514.954-3.264 1.47-5.053 1.488-2.838 0-5.745-1.073-7.428-3.115-1.496-1.835-2.303-4.137-2.282-6.505 0-2.7.794-5.192 2.282-6.993 1.731-2.049 4.395-3.114 7.171-3.114 2.777 0 4.951.902 6.68 2.943 1.87 2.18 2.321 4.984 2.077 8.237h-13.172c.102.922.436 1.803.97 2.561zm.034-8.134c-.438.572-.745 1.234-.899 1.939h8.339c-.045-.754-.312-1.477-.768-2.078-.727-.935-2.008-1.383-3.289-1.383-1.204 0-2.438.346-3.383 1.522z" fill-rule="nonzero"/><path d="m79.484 21.722c.769 1.025 2.049 1.591 3.427 1.591 1.107 0 1.973-.277 2.664-.83.523-.4.939-.922 1.212-1.521l4.707 1.347c-.669 1.599-1.803 2.961-3.253 3.911-1.514.954-3.263 1.469-5.053 1.488-2.838 0-5.745-1.073-7.44-3.115-1.498-1.834-2.306-4.137-2.285-6.505 0-2.7.796-5.192 2.285-6.993 1.728-2.049 4.395-3.114 7.171-3.114 2.777 0 4.933.902 6.672 2.943 1.867 2.18 2.305 4.984 2.075 8.237h-13.15c.102.922.435 1.803.968 2.561zm.036-8.134c-.434.573-.737 1.235-.888 1.939h8.342c-.044-.754-.312-1.477-.769-2.078-.725-.935-2.005-1.383-3.286-1.383-1.214 0-2.466.346-3.399 1.522z" fill-rule="nonzero"/><path d="m15.524 9.784c-.625-1.25-1.145-2.118-2.326-2.817-.883-.566-1.905-.877-2.953-.899-1.052-.055-2.098.187-3.02.696-.766.417-1.254 1.211-1.28 2.083-.003.442.173.868.486 1.18.451.487 1.596.938 2.849 1.322l4.341 1.25c2.221.658 3.506 1.319 4.61 2.361 1.483 1.369 2.327 3.297 2.328 5.315 0 2.187-1.249 4.48-3.229 5.799-1.908 1.286-4.201 1.588-6.829 1.588-3.329 0-6.183-.868-8.229-3.368-1.117-1.424-1.894-3.084-2.272-4.854l4.792-1.28c.21 1.211.625 2.33 1.253 3.099 1.006 1.39 2.95 2.015 4.61 2.015 1.319 0 2.986-.381 3.891-1.078.659-.469 1.038-1.241 1.006-2.049.013-.663-.269-1.299-.768-1.736-.648-.534-1.408-.914-2.223-1.112l-4.641-1.365c-1.875-.512-3.586-1.253-4.793-2.328-1.495-1.25-2.154-3.125-2.154-4.867 0-2.746 1.77-5.107 4.062-6.147 1.806-.832 3.614-.971 5.279-.971s3.586.313 5.246 1.214c2.113 1.15 3.785 3.13 4.759 5.666z" fill-rule="nonzero"/><path d="m29.816 18.92c0 1.458-.069 2.674.382 3.368.45.694 1.249 1.007 1.979 1.076 1.021.057 2.045.01 3.056-.138v3.924c-1.457.415-4.098.381-5.486.138-1.737-.313-2.818-.868-3.822-2.362-1.004-1.493-.824-3.47-.824-5.716v-7.172h-3.205v-3.642h3.205v-5.21h4.723v5.21h5.417v3.642h-5.425z" fill-rule="nonzero"/><path d="m168.176 10.643-3.166-2.952-16.188 17.359 3.166 2.952z"/><path d="m165.011 28.001 3.165-2.952-16.187-17.359-3.166 2.952z"/></g></svg>