<?xml version="1.0" encoding="UTF-8" standalone="no"?>
<!DOCTYPE svg PUBLIC "-//W3C//DTD SVG 1.1//EN" "http://www.w3.org/Graphics/SVG/1.1/DTD/svg11.dtd">
<svg width="100%" height="100%" viewBox="0 0 200 210" version="1.1" xmlns="http://www.w3.org/2000/svg" xmlns:xlink="http://www.w3.org/1999/xlink" xml:space="preserve" xmlns:serif="http://www.serif.com/" style="fill-rule:evenodd;clip-rule:evenodd;stroke-linejoin:round;stroke-miterlimit:2;">
    <g id="av-outbound" transform="matrix(1.27,0,0,1.27,-13.5824,9.55526)">
        <g transform="matrix(-1.04551,0,0,1.04551,82.2982,10.6901)">
            <path d="M-13.541,2.228L0.001,2.228L1.793,0L-15.334,0L-13.541,2.228Z" style="fill:rgb(44,43,41);fill-rule:nonzero;"/>
        </g>
        <g transform="matrix(-1.04551,0,0,1.04551,75.0207,4.09487)">
            <path d="M-27.658,2.228L0,2.228L1.793,0L-29.451,0L-27.658,2.228Z" style="fill:rgb(44,43,41);fill-rule:nonzero;"/>
        </g>
        <g transform="matrix(-1.04551,0,0,1.04551,67.7431,-2.50009)">
            <path d="M-41.775,2.228L0,2.228L1.793,0L-43.568,0L-41.775,2.228Z" style="fill:rgb(44,43,41);fill-rule:nonzero;"/>
        </g>
        <g transform="matrix(1.04552,0,0,1.04552,41.4397,115.56)">
            <path d="M0,40.43L13.721,10.9L2.49,0L0,40.43Z" style="fill:rgb(43,43,42);fill-rule:nonzero;"/>
        </g>
        <g transform="matrix(0.0855674,1.04201,1.04201,-0.0855674,55.0352,125.686)">
            <path d="M-11.971,-27.436L28.595,-27.436L29.577,-15.476L-10.513,-9.685L-11.971,-27.436Z" style="fill:rgb(92,95,96);fill-rule:nonzero;"/>
        </g>
        <g transform="matrix(1.04552,0,0,1.04552,123.043,146.434)">
            <path d="M0,-18.63L13.72,10.9L11.229,-29.53L0,-18.63Z" style="fill:rgb(43,43,42);fill-rule:nonzero;"/>
        </g>
        <g transform="matrix(0.0642698,1.04355,1.04355,-0.0642698,164.618,126.103)">
            <path d="M-11.819,-27.861L28.688,-27.861L29.426,-15.874L-10.724,-10.084L-11.819,-27.861Z" style="fill:rgb(92,95,96);fill-rule:nonzero;"/>
        </g>
        <g transform="matrix(1.04552,0,0,1.04552,156.803,123.025)">
            <path d="M0,4.77L-3.15,13.91L2.479,13.91L1.74,17.35L-7.68,19.959L-7.68,19.87L-7.71,19.959L-25.3,21.86L-49.36,24.459L-64.44,26.45L-82.86,24.459L-106.84,21.64L-121.18,19.959L-130.61,17.35L-131.34,13.91L-133.29,4.77L-133.29,4.749L-128.32,-16.15L-119.29,-21.68L-119.56,-18.49L-9.34,-18.38L-9.61,-21.68L-0.54,-16.15L4.43,4.749L4.43,4.77L0,4.77Z" style="fill:rgb(228,226,220);fill-rule:nonzero;"/>
        </g>
        <g transform="matrix(-0.21815,1.02251,1.02251,0.21815,161.318,137.662)">
            <path d="M-9.05,-1.817L0.295,-1.817L1.47,-7.323L-8.126,-6.149L-9.05,-1.817Z" style="fill:rgb(228,226,220);fill-rule:nonzero;"/>
        </g>
        <g transform="matrix(-0.21815,1.02251,1.02251,0.21815,161.318,137.662)">
            <path d="M-9.05,-1.817L0.295,-1.817L1.47,-7.323L-8.126,-6.149L-9.05,-1.817Z" style="fill:rgb(249,187,36);fill-rule:nonzero;"/>
        </g>
        <g transform="matrix(-1.04552,0,0,1.04552,17.435,128.013)">
            <path d="M-7.58,9.15L-1.95,9.15L0,0L-4.43,0L-7.58,9.15Z" style="fill:rgb(249,187,36);fill-rule:nonzero;"/>
        </g>
        <g transform="matrix(0.339697,-0.988799,-0.988799,-0.339697,90.5715,34.6753)">
            <path d="M2.368,12.458L12.032,12.458L16.432,-0.349L8.808,-6.287L2.368,12.458Z" style="fill:rgb(43,43,42);fill-rule:nonzero;"/>
        </g>
        <g transform="matrix(1.04552,0,0,1.04552,147.038,29.5873)">
            <path d="M0,70.989L-6.9,74.38L-103.2,74.38L-110.21,70.88L-110.09,69.439L-109.47,61.75L-109.47,61.739L-106.03,19.719L-104.73,3.829L-55.11,-3.391L-5.49,3.829L-5.021,9.569L-4.92,10.849L-4.5,16.03L-0.761,61.739L-0.761,61.75L0,70.989Z" style="fill:rgb(40,45,81);fill-rule:nonzero;"/>
        </g>
        <g transform="matrix(1.04552,0,0,1.04552,130.352,138.719)">
            <path d="M0,6.849L-24.07,9.449L-39.15,11.439L-57.561,9.449L-81.55,6.639L-77.69,-4.59L-3.94,-4.59L0,6.849Z" style="fill:rgb(161,159,155);fill-rule:nonzero;"/>
        </g>
        <g transform="matrix(1.04552,0,0,1.04552,141.895,92.4651)">
            <path d="M0,-49.301L-48.931,1.599L-61.081,14.24L-98.28,14.24L-105.291,10.74L-105.17,9.299L-104.541,1.599L-101.11,-40.421L-99.811,-56.321L-50.19,-63.541L-0.57,-56.321L-0.101,-50.571L0,-49.301Z" style="fill:rgb(48,48,85);fill-rule:nonzero;"/>
        </g>
        <g transform="matrix(1.04552,0,0,1.04552,142.334,100.599)">
            <path d="M0,-51.89L-43.931,-6.181L-56.07,6.46L-62.82,6.46L-50.67,-6.181L-0.521,-58.35L-0.42,-57.08L0,-51.89Z" style="fill:rgb(73,74,115);fill-rule:nonzero;"/>
        </g>
        <g transform="matrix(0.339697,0.988799,0.988799,-0.339697,88.3304,107.587)">
            <path d="M6.864,-18.756L16.529,-18.756L25.252,6.637L17.632,12.586L6.864,-18.756Z" style="fill:white;fill-rule:nonzero;"/>
        </g>
        <g transform="matrix(1.04552,0,0,1.04552,33.5634,107.353)">
            <path d="M0,-24.2L-0.947,-12.64L-0.947,-12.63L-1.566,-4.94L-1.686,-3.5L5.324,0L16.494,0L8.174,-24.2L0,-24.2Z" style="fill:rgb(174,32,37);fill-rule:nonzero;"/>
        </g>
        <g transform="matrix(1.04552,0,0,1.04552,136.739,107.353)">
            <path d="M0,-24.2L-8.32,0L2.94,0L9.84,-3.39L9.08,-12.63L9.08,-12.64L8.134,-24.2L0,-24.2Z" style="fill:rgb(174,32,37);fill-rule:nonzero;"/>
        </g>
    </g>
</svg>
