<?xml version="1.0" encoding="UTF-8" standalone="no"?>
<!DOCTYPE svg PUBLIC "-//W3C//DTD SVG 1.1//EN" "http://www.w3.org/Graphics/SVG/1.1/DTD/svg11.dtd">
<svg width="100%" height="100%" viewBox="0 0 420 180" version="1.1" xmlns="http://www.w3.org/2000/svg" xmlns:xlink="http://www.w3.org/1999/xlink" xml:space="preserve" xmlns:serif="http://www.serif.com/" style="fill-rule:evenodd;clip-rule:evenodd;stroke-linejoin:round;stroke-miterlimit:2;">
    <g id="car-angled-front-left" transform="matrix(1.27,0,0,1.27,-18.6,-2.88)">
        <g transform="matrix(1,0,0,1,-1248,-614.5)">
            <rect x="1378" y="711" width="176" height="28" style="fill:rgb(91,94,94);"/>
        </g>
        <g transform="matrix(1,0,0,1,-1222.6,-614.965)">
            <path d="M1486.5,718C1478.3,718 1472.9,727.2 1474.6,738.5C1476.3,749.8 1484.3,759 1492.5,759L1505.5,759C1506,756.4 1504.8,741.6 1504.4,738.5C1502.8,727.2 1494.8,718 1486.5,718Z" style="fill:rgb(42,43,42);fill-rule:nonzero;"/>
            <path d="M1496.8,718C1488.6,718 1481.2,727.2 1480.2,738.5C1479.3,749.8 1485.2,759 1493.5,759L1506.5,759C1507.6,756.4 1509.8,741.6 1510,738.5C1511,727.2 1505.1,718 1496.8,718Z" style="fill:rgb(91,94,94);fill-rule:nonzero;"/>
            <g transform="matrix(0.1526,-0.9883,0.9883,0.1526,548.693,2116.78)">
                <ellipse cx="1508.7" cy="738.4" rx="20.6" ry="14.4" style="fill:rgb(42,43,42);"/>
            </g>
            <g transform="matrix(0.1526,-0.9883,0.9883,0.1526,548.693,2116.78)">
                <ellipse cx="1508.7" cy="738.4" rx="13.1" ry="9.2" style="fill:rgb(243,241,237);"/>
            </g>
        </g>
        <g transform="matrix(1,0,0,1,-1222.6,-614.965)">
            <path d="M1350.5,718C1342.3,718 1336.9,727.2 1338.6,738.5C1340.3,749.8 1348.3,759 1356.5,759L1369.5,759C1370,756.4 1368.8,741.6 1368.4,738.5C1366.8,727.2 1358.8,718 1350.5,718Z" style="fill:rgb(42,43,42);fill-rule:nonzero;"/>
            <path d="M1360.8,718C1352.6,718 1345.2,727.2 1344.2,738.5C1343.3,749.8 1349.2,759 1357.5,759L1370.5,759C1371.6,756.4 1373.8,741.6 1374,738.5C1375,727.2 1369.1,718 1360.8,718Z" style="fill:rgb(91,94,94);fill-rule:nonzero;"/>
            <g transform="matrix(0.1526,-0.9883,0.9883,0.1526,433.446,1982.37)">
                <ellipse cx="1372.7" cy="738.4" rx="20.6" ry="14.4" style="fill:rgb(42,43,42);"/>
            </g>
            <g transform="matrix(0.1526,-0.9883,0.9883,0.1526,433.446,1982.37)">
                <ellipse cx="1372.7" cy="738.4" rx="13.1" ry="9.2" style="fill:rgb(243,241,237);"/>
            </g>
        </g>
        <g transform="matrix(1,0,0,1,-1222.6,-614.965)">
            <path d="M1415.9,718C1406.5,718 1398.9,727.2 1398.8,738.5C1398.8,749.8 1406.4,759 1415.9,759L1430.8,759C1431.8,756.4 1432.9,741.6 1432.9,738.5C1433,727.2 1425.3,718 1415.9,718Z" style="fill:rgb(91,94,94);fill-rule:nonzero;"/>
        </g>
        <g transform="matrix(1,0,0,1,-1222.6,-614.965)">
            <path d="M1432.7,718C1423.6,718 1415.5,727.2 1414.5,738.5C1413.5,749.8 1420,759 1429.1,759C1438.2,759 1446.3,749.8 1447.3,738.5C1448.3,727.2 1441.8,718 1432.7,718Z" style="fill:rgb(42,43,42);fill-rule:nonzero;"/>
        </g>
        <g transform="matrix(1,0,0,1,-1222.6,-614.965)">
            <path d="M1282.7,718C1273.6,718 1265.5,727.2 1264.5,738.5C1263.5,749.8 1270,759 1279.1,759L1293.4,759C1294.6,756.4 1297,741.6 1297.3,738.5C1298.3,727.2 1291.8,718 1282.7,718Z" style="fill:rgb(91,94,94);fill-rule:nonzero;"/>
        </g>
        <g transform="matrix(1,0,0,1,-1222.6,-614.965)">
            <path d="M1296.7,718C1287.6,718 1279.5,727.2 1278.5,738.5C1277.5,749.8 1284,759 1293.1,759C1302.2,759 1310.3,749.8 1311.3,738.5C1312.3,727.2 1305.8,718 1296.7,718Z" style="fill:rgb(42,43,42);fill-rule:nonzero;"/>
        </g>
        <g id="Layer_2" transform="matrix(1,0,0,1,-1222.6,-614.965)">
            <path d="M1561.1,681.5L1513.1,640.5L1355.1,640.5L1298.8,677.5L1240.4,689.8L1238.4,696.8L1247.1,739.5L1353.3,739.5L1361,715L1386,715L1393.1,739.5L1489.8,739.5L1497,716L1521,716L1528.3,739.5L1558.1,739.5L1565.1,696.5L1561.1,681.5Z" style="fill:rgb(227,225,220);fill-rule:nonzero;"/>
        </g>
        <g id="Layer_6" transform="matrix(1,0,0,1,-1222.6,-614.965)">
            <path d="M1558.1,739.5L1560.4,725.5L1404,675L1394,677L1385,677L1335,689L1339,698L1342.3,739.5L1353.3,739.5L1361,715L1386,715L1393.1,739.5L1489.8,739.5L1497,716L1521,716L1528.3,739.5L1558.1,739.5Z" style="fill:rgb(243,241,237);fill-rule:nonzero;"/>
        </g>
        <g transform="matrix(1,0,0,1,-1222.6,-614.965)">
            <path d="M1456.4,677L1392.4,677L1419.4,644L1449.4,644L1456.4,677Z" style="fill:rgb(13,34,65);fill-rule:nonzero;"/>
            <path d="M1460.4,677L1525.4,677L1500.4,644L1452.4,644L1460.4,677Z" style="fill:rgb(13,34,65);fill-rule:nonzero;"/>
            <path d="M1307.4,674L1383,674L1409.4,644L1352.4,644L1307.4,674Z" style="fill:rgb(13,34,65);fill-rule:nonzero;"/>
            <g>
                <clipPath id="_clip1">
                    <path d="M1413.2,644L1356.2,644L1313.1,674L1384.1,674L1413.2,644Z"/>
                </clipPath>
                <g clip-path="url(#_clip1)">
                    <path d="M1415,639L1347,676L1339.6,676L1403.9,640L1415,639Z" style="fill:rgb(72,74,113);fill-rule:nonzero;"/>
                </g>
                <clipPath id="_clip2">
                    <path d="M1411.2,644L1354.2,644L1313.1,674L1384.1,674L1411.2,644Z"/>
                </clipPath>
                <g clip-path="url(#_clip2)">
                    <path d="M1324.6,675.3L1391.2,638.5L1405.8,639.8L1330.5,682L1324.6,675.3Z" style="fill:rgb(49,49,85);fill-rule:nonzero;"/>
                </g>
            </g>
        </g>
        <g transform="matrix(1,0,0,1,-1222.6,-614.965)">
            <path d="M1513,646L1544.5,667.3L1519.5,646L1513,646Z" style="fill:rgb(13,34,65);fill-rule:nonzero;"/>
        </g>
        <g transform="matrix(1,0,0,1,-1222.6,-614.965)">
            <clipPath id="_clip3">
                <path d="M1561.1,681.5L1513.1,640.5L1355.1,640.5L1298.8,677.5L1240.4,689.8L1238.4,696.8L1247.1,739.5L1353.3,739.5L1361,715L1386,715L1393.1,739.5L1489.8,739.5L1497,716L1521,716L1528.3,739.5L1558.1,739.5L1565.1,696.5L1561.1,681.5Z"/>
            </clipPath>
            <g clip-path="url(#_clip3)">
                <path d="M1264,708L1314,708L1317,696L1259,696L1264,708Z" style="fill:rgb(42,43,42);fill-rule:nonzero;"/>
            </g>
        </g>
        <g transform="matrix(1,0,0,1,-1222.6,-614.965)">
            <clipPath id="_clip4">
                <path d="M1561.1,681.5L1513.1,640.5L1355.1,640.5L1298.8,677.5L1240.4,689.8L1238.4,696.8L1247.1,739.5L1353.3,739.5L1361,715L1386,715L1393.1,739.5L1489.8,739.5L1497,716L1521,716L1528.3,739.5L1558.1,739.5L1565.1,696.5L1561.1,681.5Z"/>
            </clipPath>
            <g clip-path="url(#_clip4)">
                <path d="M1549,691L1567.4,691L1566.7,696L1550.1,696L1549,691Z" style="fill:rgb(255,237,204);fill-rule:nonzero;"/>
            </g>
        </g>
        <g transform="matrix(1,0,0,1,-1222.6,-614.965)">
            <clipPath id="_clip5">
                <path d="M1561.1,681.5L1513.1,640.5L1355.1,640.5L1298.8,677.5L1240.4,689.8L1238.4,696.8L1247.1,739.5L1353.3,739.5L1361,715L1386,715L1393.1,739.5L1489.8,739.5L1497,716L1521,716L1528.3,739.5L1558.1,739.5L1565.1,696.5L1561.1,681.5Z"/>
            </clipPath>
            <g clip-path="url(#_clip5)">
                <path d="M1550,696L1570.2,696L1568.2,710L1553,710L1550,696Z" style="fill:rgb(173,32,36);fill-rule:nonzero;"/>
            </g>
        </g>
        <g transform="matrix(1,0,0,1,-1222.6,-614.965)">
            <clipPath id="_clip6">
                <path d="M1561.1,681.5L1513.1,640.5L1355.1,640.5L1298.8,677.5L1240.4,689.8L1238.4,696.8L1247.1,739.5L1353.3,739.5L1361,715L1386,715L1393.1,739.5L1489.8,739.5L1497,716L1521,716L1528.3,739.5L1558.1,739.5L1565.1,696.5L1561.1,681.5Z"/>
            </clipPath>
            <g clip-path="url(#_clip6)">
                <path d="M1320,710L1358,710L1359,696L1317,696L1320,710Z" style="fill:rgb(255,237,204);fill-rule:nonzero;"/>
            </g>
        </g>
        <g transform="matrix(1,0,0,1,-1222.6,-614.965)">
            <clipPath id="_clip7">
                <path d="M1561.1,681.5L1513.1,640.5L1355.1,640.5L1298.8,677.5L1240.4,689.8L1238.4,696.8L1247.1,739.5L1353.3,739.5L1361,715L1386,715L1393.1,739.5L1489.8,739.5L1497,716L1521,716L1528.3,739.5L1558.1,739.5L1565.1,696.5L1561.1,681.5Z"/>
            </clipPath>
            <g clip-path="url(#_clip7)">
                <path d="M1260,710L1265,708L1259,696L1260,710Z" style="fill:rgb(238,155,116);fill-rule:nonzero;"/>
            </g>
        </g>
        <g transform="matrix(1,0,0,1,-1222.6,-614.965)">
            <clipPath id="_clip8">
                <path d="M1561.1,681.5L1513.1,640.5L1355.1,640.5L1298.8,677.5L1240.4,689.8L1238.4,696.8L1247.1,739.5L1353.3,739.5L1361,715L1386,715L1393.1,739.5L1489.8,739.5L1497,716L1521,716L1528.3,739.5L1558.1,739.5L1565.1,696.5L1561.1,681.5Z"/>
            </clipPath>
            <g clip-path="url(#_clip8)">
                <path d="M1320,710L1314,708L1317,696L1320,710Z" style="fill:rgb(238,155,116);fill-rule:nonzero;"/>
            </g>
        </g>
        <g transform="matrix(1,0,0,1,-1222.6,-614.965)">
            <clipPath id="_clip9">
                <path d="M1561.1,681.5L1513.1,640.5L1355.1,640.5L1298.8,677.5L1240.4,689.8L1238.4,696.8L1247.1,739.5L1353.3,739.5L1361,715L1386,715L1393.1,739.5L1489.8,739.5L1497,716L1521,716L1528.3,739.5L1558.1,739.5L1565.1,696.5L1561.1,681.5Z"/>
            </clipPath>
            <g clip-path="url(#_clip9)">
                <path d="M1222,710L1260,710L1259,696L1219,696L1222,710Z" style="fill:rgb(255,237,204);fill-rule:nonzero;"/>
            </g>
        </g>
        <g transform="matrix(1,0,0,1,-1222.6,-614.965)">
            <clipPath id="_clip10">
                <path d="M1561.1,681.5L1513.1,640.5L1355.1,640.5L1298.8,677.5L1240.4,689.8L1238.4,696.8L1247.1,739.5L1353.3,739.5L1361,715L1386,715L1393.1,739.5L1489.8,739.5L1497,716L1521,716L1528.3,739.5L1558.1,739.5L1565.1,696.5L1561.1,681.5Z"/>
            </clipPath>
            <g clip-path="url(#_clip10)">
                <path d="M1312,699.6L1265,699.6L1266.8,704L1310.9,704L1312,699.6Z" style="fill:rgb(91,94,94);fill-rule:nonzero;"/>
            </g>
        </g>
        <g transform="matrix(1,0,0,1,-1222.6,-614.965)">
            <path d="M1410,677L1405,665L1416,662L1426,665C1426,665 1426,673 1423,673L1412,673L1413,677L1410,677Z" style="fill:rgb(227,225,220);fill-rule:nonzero;"/>
        </g>
        <g transform="matrix(1,0,0,1,-1222.6,-614.965)">
            <path d="M1408,673L1412,673L1408.1,664.3L1405,665L1408,673Z" style="fill:rgb(192,189,186);fill-rule:nonzero;"/>
        </g>
    </g>
</svg>
