<?xml version="1.0" encoding="UTF-8" standalone="no"?>
<!DOCTYPE svg PUBLIC "-//W3C//DTD SVG 1.1//EN" "http://www.w3.org/Graphics/SVG/1.1/DTD/svg11.dtd">
<svg width="100%" height="100%" viewBox="0 0 420 180" version="1.1" xmlns="http://www.w3.org/2000/svg" xmlns:xlink="http://www.w3.org/1999/xlink" xml:space="preserve" xmlns:serif="http://www.serif.com/" style="fill-rule:evenodd;clip-rule:evenodd;stroke-linejoin:round;stroke-miterlimit:2;">
    <g id="car-angled-rear-right" transform="matrix(1.27,0,0,1.27,-1598.1,-801.066)">
        <g transform="matrix(1,0,0,1,13.35,13.4928)">
            <path d="M1512.4,718C1504.2,718 1498.8,727.2 1500.5,738.5C1502.2,749.8 1510.2,759 1518.4,759L1531.4,759C1531.9,756.4 1530.7,741.6 1530.3,738.5C1528.7,727.2 1520.7,718 1512.4,718Z" style="fill:rgb(42,43,42);fill-rule:nonzero;"/>
        </g>
        <g transform="matrix(1,0,0,1,13.35,13.4928)">
            <path d="M1522.7,718C1514.5,718 1507.1,727.2 1506.1,738.5C1505.2,749.8 1511.1,759 1519.4,759L1532.4,759C1533.5,756.4 1535.7,741.6 1535.9,738.5C1536.9,727.2 1531,718 1522.7,718Z" style="fill:rgb(91,94,94);fill-rule:nonzero;"/>
        </g>
        <g transform="matrix(1,0,0,1,13.35,13.4928)">
            <path d="M1441.5,718C1432.1,718 1424.5,727.2 1424.4,738.5C1424.4,749.8 1432,759 1441.5,759L1456.4,759C1457.4,756.4 1458.5,741.6 1458.5,738.5C1458.6,727.2 1450.9,718 1441.5,718Z" style="fill:rgb(91,94,94);fill-rule:nonzero;"/>
        </g>
        <g transform="matrix(1,0,0,1,13.35,13.4928)">
            <rect x="1378" y="711" width="176" height="28" style="fill:rgb(91,94,94);"/>
        </g>
        <g transform="matrix(0.1526,-0.9883,0.9883,0.1526,583.912,2155.87)">
            <ellipse cx="1534.6" cy="738.5" rx="20.6" ry="14.4" style="fill:rgb(42,43,42);"/>
        </g>
        <g transform="matrix(1,0,0,1,13.35,13.4928)">
            <path d="M1458.3,718C1449.2,718 1441.1,727.2 1440.1,738.5C1439.1,749.8 1445.6,759 1454.7,759C1463.8,759 1471.9,749.8 1472.9,738.5C1473.9,727.2 1467.4,718 1458.3,718Z" style="fill:rgb(42,43,42);fill-rule:nonzero;"/>
        </g>
        <g transform="matrix(1,0,0,1,13.35,13.4928)">
            <path d="M1308.3,718C1299.2,718 1291.1,727.2 1290.1,738.5C1289.1,749.8 1295.6,759 1304.7,759L1319,759C1320.2,756.4 1322.6,741.6 1322.9,738.5C1323.9,727.2 1317.4,718 1308.3,718Z" style="fill:rgb(91,94,94);fill-rule:nonzero;"/>
        </g>
        <g transform="matrix(1,0,0,1,13.35,13.4928)">
            <path d="M1377.3,718C1369.1,718 1363.7,727.2 1365.4,738.5C1367.1,749.8 1375.1,759 1383.3,759L1396.3,759C1396.8,756.4 1395.6,741.6 1395.2,738.5C1393.6,727.2 1385.6,718 1377.3,718Z" style="fill:rgb(42,43,42);fill-rule:nonzero;"/>
        </g>
        <g transform="matrix(1,0,0,1,13.35,13.4928)">
            <path d="M1387.6,718C1379.4,718 1372,727.2 1371,738.5C1370.1,749.8 1376,759 1384.3,759L1397.3,759C1398.4,756.4 1400.6,741.6 1400.8,738.5C1401.8,727.2 1395.9,718 1387.6,718Z" style="fill:rgb(91,94,94);fill-rule:nonzero;"/>
        </g>
        <g transform="matrix(1,0,0,1,13.35,13.4928)">
            <path d="M1322.3,718C1313.2,718 1305.1,727.2 1304.1,738.5C1303.1,749.8 1309.6,759 1318.7,759C1327.8,759 1335.9,749.8 1336.9,738.5C1337.9,727.2 1331.4,718 1322.3,718Z" style="fill:rgb(42,43,42);fill-rule:nonzero;"/>
        </g>
        <g transform="matrix(0.1526,-0.9883,0.9883,0.1526,468.664,2021.46)">
            <ellipse cx="1398.6" cy="738.5" rx="20.6" ry="14.4" style="fill:rgb(42,43,42);"/>
        </g>
        <g id="rims">
            <g transform="matrix(0.1526,-0.9883,0.9883,0.1526,468.664,2021.46)">
                <ellipse cx="1398.6" cy="738.5" rx="13.1" ry="9.2" style="fill:rgb(243,241,237);"/>
            </g>
            <g transform="matrix(0.1526,-0.9883,0.9883,0.1526,583.912,2155.87)">
                <ellipse cx="1534.6" cy="738.5" rx="13.1" ry="9.2" style="fill:rgb(243,241,237);"/>
            </g>
        </g>
        <g id="body__x2B__mask">
            <g transform="matrix(1,0,0,1,13.35,13.4928)">
                <clipPath id="_clip1">
                    <path d="M1571.7,689.3L1513.3,677L1457,640L1299,640L1251,681L1247,696L1254,739L1378.2,739L1388,715L1413,715L1417.6,739L1514.1,739L1523,715L1548,715L1554.2,739L1565,739L1573.7,696.3L1571.7,689.3Z"/>
                </clipPath>
                <g clip-path="url(#_clip1)">
                    <path d="M1299,640L1457,640L1513.3,677L1571.7,689.3L1573.7,696.3L1565,739L1254,739L1247,696L1251,681L1299,640Z" style="fill:rgb(227,225,220);fill-rule:nonzero;"/>
                </g>
            </g>
            <g transform="matrix(1,0,0,1,13.35,13.4928)">
                <clipPath id="_clip2">
                    <path d="M1571.7,689.3L1513.3,677L1457,640L1299,640L1251,681L1247,696L1254,739L1378.2,739L1388,715L1413,715L1417.6,739L1514.1,739L1523,715L1548,715L1554.2,739L1565,739L1573.7,696.3L1571.7,689.3Z"/>
                </clipPath>
                <g clip-path="url(#_clip2)">
                    <path d="M1341.7,682.3L1346.7,696.3L1349,741.6L1574,741.6L1360.7,682C1360.7,682 1341.3,682.3 1341.7,682.3Z" style="fill:rgb(243,241,237);fill-rule:nonzero;"/>
                </g>
            </g>
            <g transform="matrix(1,0,0,1,13.35,13.4928)">
                <clipPath id="_clip3">
                    <path d="M1571.7,689.3L1513.3,677L1457,640L1299,640L1251,681L1247,696L1254,739L1378.2,739L1388,715L1413,715L1417.6,739L1514.1,739L1523,715L1548,715L1554.2,739L1565,739L1573.7,696.3L1571.7,689.3Z"/>
                </clipPath>
                <g clip-path="url(#_clip3)">
                    <path d="M1308,718L1287.1,718L1286.4,728.2L1311.2,728.2L1308,718Z" style="fill:rgb(243,241,237);fill-rule:nonzero;"/>
                </g>
            </g>
            <g transform="matrix(1,0,0,1,13.35,13.4928)">
                <clipPath id="_clip4">
                    <path d="M1571.7,689.3L1513.3,677L1457,640L1299,640L1251,681L1247,696L1254,739L1378.2,739L1388,715L1413,715L1417.6,739L1514.1,739L1523,715L1548,715L1554.2,739L1565,739L1573.7,696.3L1571.7,689.3Z"/>
                </clipPath>
                <g clip-path="url(#_clip4)">
                    <rect x="1266.9" y="706" width="76.4" height="4" style="fill:rgb(192,189,186);"/>
                </g>
            </g>
            <g transform="matrix(1,0,0,1,13.35,13.4928)">
                <clipPath id="_clip5">
                    <path d="M1571.7,689.3L1513.3,677L1457,640L1299,640L1251,681L1247,696L1254,739L1378.2,739L1388,715L1413,715L1417.6,739L1514.1,739L1523,715L1548,715L1554.2,739L1565,739L1573.7,696.3L1571.7,689.3Z"/>
                </clipPath>
                <g clip-path="url(#_clip5)">
                    <path d="M1244,696L1261,696L1262,710L1246,710L1244,696Z" style="fill:rgb(173,32,36);fill-rule:nonzero;"/>
                </g>
            </g>
            <g transform="matrix(1,0,0,1,13.35,13.4928)">
                <clipPath id="_clip6">
                    <path d="M1571.7,689.3L1513.3,677L1457,640L1299,640L1251,681L1247,696L1254,739L1378.2,739L1388,715L1413,715L1417.6,739L1514.1,739L1523,715L1548,715L1554.2,739L1565,739L1573.7,696.3L1571.7,689.3Z"/>
                </clipPath>
                <g clip-path="url(#_clip6)">
                    <path d="M1332.7,696L1362,696L1357.3,710L1334.7,710L1332.7,696Z" style="fill:rgb(173,32,36);fill-rule:nonzero;"/>
                </g>
            </g>
            <g transform="matrix(1,0,0,1,13.35,13.4928)">
                <clipPath id="_clip7">
                    <path d="M1571.7,689.3L1513.3,677L1457,640L1299,640L1251,681L1247,696L1254,739L1378.2,739L1388,715L1413,715L1417.6,739L1514.1,739L1523,715L1548,715L1554.2,739L1565,739L1573.7,696.3L1571.7,689.3Z"/>
                </clipPath>
                <g clip-path="url(#_clip7)">
                    <path d="M1552.7,696.3L1552.2,710L1574.3,710L1577,696.3L1552.7,696.3Z" style="fill:rgb(255,237,204);fill-rule:nonzero;"/>
                </g>
            </g>
            <g transform="matrix(1,0,0,1,13.35,13.4928)">
                <clipPath id="_clip8">
                    <path d="M1571.7,689.3L1513.3,677L1457,640L1299,640L1251,681L1247,696L1254,739L1378.2,739L1388,715L1413,715L1417.6,739L1514.1,739L1523,715L1548,715L1554.2,739L1565,739L1573.7,696.3L1571.7,689.3Z"/>
                </clipPath>
                <g clip-path="url(#_clip8)">
                    <path d="M1261,696L1264,696L1270,706L1268,710L1262,710L1261,696Z" style="fill:rgb(255,237,204);fill-rule:nonzero;"/>
                </g>
            </g>
            <g transform="matrix(1,0,0,1,13.35,13.4928)">
                <clipPath id="_clip9">
                    <path d="M1571.7,689.3L1513.3,677L1457,640L1299,640L1251,681L1247,696L1254,739L1378.2,739L1388,715L1413,715L1417.6,739L1514.1,739L1523,715L1548,715L1554.2,739L1565,739L1573.7,696.3L1571.7,689.3Z"/>
                </clipPath>
                <g clip-path="url(#_clip9)">
                    <path d="M1333,696L1329,696L1326,706L1330,710L1335,710L1333,696Z" style="fill:rgb(255,237,204);fill-rule:nonzero;"/>
                </g>
            </g>
        </g>
        <g id="windows">
            <g transform="matrix(1,0,0,1,13.35,13.4928)">
                <path d="M1426,644L1456,644L1506,677L1442,677L1426,644Z" style="fill:rgb(13,34,65);fill-rule:nonzero;"/>
            </g>
            <g transform="matrix(1,0,0,1,13.35,13.4928)">
                <path d="M1423,644L1375,644L1373,677L1438,677L1423,644Z" style="fill:rgb(13,34,65);fill-rule:nonzero;"/>
            </g>
            <g transform="matrix(1,0,0,1,13.35,13.4928)">
                <path d="M1350,646L1293,646L1261,679L1332,679L1350,646Z" style="fill:rgb(13,34,65);fill-rule:nonzero;"/>
            </g>
            <g transform="matrix(1,0,0,1,13.35,13.4928)">
                <clipPath id="_clip10">
                    <path d="M1350,646L1293,646L1261,679L1332,679L1350,646Z"/>
                </clipPath>
                <g clip-path="url(#_clip10)">
                    <path d="M1336.57,645.3L1296.2,681L1288.8,681L1329,645L1336.57,645.3Z" style="fill:rgb(72,74,113);fill-rule:nonzero;"/>
                </g>
                <clipPath id="_clip11">
                    <path d="M1350,646L1293,646L1261,679L1332,679L1350,646Z"/>
                </clipPath>
                <g clip-path="url(#_clip11)">
                    <path d="M1273.3,680.3L1315.3,643.5L1330.8,644.8L1283.7,687L1273.3,680.3Z" style="fill:rgb(49,49,85);fill-rule:nonzero;"/>
                </g>
            </g>
        </g>
        <g id="mirror">
            <g transform="matrix(1,0,0,1,13.35,13.4928)">
                <path d="M1476,662C1476,662 1495,664 1496,666C1497,668 1495,672 1489,673C1483,674 1476,673 1476,673C1476,673 1475,669 1475,666C1475,663 1476,662 1476,662" style="fill:rgb(227,225,220);fill-rule:nonzero;"/>
            </g>
            <g transform="matrix(1,0,0,1,13.35,13.4928)">
                <path d="M1475,665C1475,665 1480,665 1482,666C1484,667 1482,670 1480,671C1478,672 1475,672 1475,669L1475,665Z" style="fill:rgb(42,43,42);fill-rule:nonzero;"/>
            </g>
            <g transform="matrix(1,0,0,1,13.35,13.4928)">
                <path d="M1488,677L1488,672L1485,672L1485,677L1488,677" style="fill:rgb(227,225,220);fill-rule:nonzero;"/>
            </g>
        </g>
        <g id="exhaust" transform="matrix(1,0,0,1,13.35,13.4928)">
            <path d="M1280.9,737C1280.5,734.2 1278.6,732 1276.8,732C1275,732 1273.9,734.2 1274.3,737C1274.7,739.8 1276.6,742 1278.4,742C1280.2,742 1281.3,739.8 1280.9,737Z" style="fill:rgb(42,43,42);fill-rule:nonzero;"/>
        </g>
    </g>
</svg>
