<?xml version="1.0" encoding="UTF-8" standalone="no"?>
<!DOCTYPE svg PUBLIC "-//W3C//DTD SVG 1.1//EN" "http://www.w3.org/Graphics/SVG/1.1/DTD/svg11.dtd">
<svg width="100%" height="100%" viewBox="0 0 180 180" version="1.1" xmlns="http://www.w3.org/2000/svg" xmlns:xlink="http://www.w3.org/1999/xlink" xml:space="preserve" xmlns:serif="http://www.serif.com/" style="fill-rule:evenodd;clip-rule:evenodd;stroke-linejoin:round;stroke-miterlimit:2;">
    <g id="krz-motorbike-inbound" transform="matrix(1.30655,0,0,1.30655,49.4613,-70.8569)">
        <g transform="matrix(1,0,0,1,2.91608,0)">
            <g>
                <g transform="matrix(1,0,0,1,-90.7509,8.88178e-16)">
                    <path d="M74.922,172.721L143.783,172.312L143.792,156.201L140.927,160.611L140.971,170.172L78.209,170.262L78.052,158.566L74.806,153.556L74.922,172.721Z" style="fill:rgb(93,96,97);"/>
                </g>
                <g transform="matrix(1,0,0,1,-88.8069,8.88178e-16)">
                    <path d="M75.661,165.285L80.828,171.104L84.275,170.793L75.684,161.023L75.661,165.285Z" style="fill:rgb(93,96,97);"/>
                </g>
                <g transform="matrix(-1,0,0,1,126.125,8.88178e-16)">
                    <path d="M75.661,165.285L80.828,171.104L84.275,170.793L75.684,161.023L75.661,165.285Z" style="fill:rgb(93,96,97);"/>
                </g>
            </g>
            <g transform="matrix(1,0,0,1,-17.1414,57.474)">
                <g transform="matrix(0.918843,0,0,0.918843,-1253.41,-63.1727)">
                    <path d="M1395.93,138.177L1399.39,136.553L1401.23,130.837L1405.52,132.06L1406.59,136.15L1409.43,137.315L1409.46,146.796L1396.5,146.603L1395.93,138.177Z" style="fill:rgb(206,171,151);fill-rule:nonzero;"/>
                </g>
                <g transform="matrix(0.967385,0.0268784,-0.0268784,0.967385,-1318.92,-69.7607)">
                    <g transform="matrix(1,0,0,1,1342.64,32.5701)">
                        <path d="M66.129,52.339L67.575,52.321L67.61,54.884L65.726,55.948L66.129,52.339Z" style="fill:rgb(225,197,181);"/>
                    </g>
                    <g transform="matrix(-1,0,0,1,1463.64,32.5701)">
                        <path d="M66.129,52.339L67.575,52.321L67.61,54.884L65.726,55.948L66.129,52.339Z" style="fill:rgb(225,197,181);"/>
                    </g>
                    <g transform="matrix(1,0,0,1,1342.96,32.5701)">
                        <path d="M54.941,45.145L54.394,53.216L55.168,59.714L58.254,63.63L61.502,63.667L64.908,60.055L66.002,52.381L65.682,44.626L60.968,43.764L54.941,45.145Z" style="fill:rgb(225,197,181);"/>
                    </g>
                    <g transform="matrix(1,0,0,1,1343,32.5701)">
                        <path d="M54.599,47.495L65.911,47.173L65.673,44.251L62.63,43.463L57.544,43.833L54.723,45.005L54.599,47.495Z" style="fill:rgb(207,174,128);"/>
                    </g>
                    <g transform="matrix(1,0,0,1,1343,32.5701)">
                        <path d="M54.599,47.495L60.232,49.189L65.911,47.173L65.673,44.251L62.63,43.463L57.544,43.833L54.723,45.005L54.599,47.495Z" style="fill:rgb(207,174,128);"/>
                    </g>
                </g>
                <g transform="matrix(0.965962,0.0589431,-0.0589431,0.965962,-18.5855,-3.87229)">
                    <path d="M55.225,51.641L64.984,51.434L65.95,51.252L65.97,52.307L64.605,54.642L61.598,54.729L60.812,54.069L59.567,54.069L58.859,54.74L55.864,54.748L54.382,52.264L54.475,51.362L55.225,51.641Z" style="fill:rgb(42,42,41);"/>
                </g>
                <g transform="matrix(0.918843,0,0,0.918843,-1292,-40.5469)">
                    <g transform="matrix(1,0,0,1,1385,48)">
                        <path d="M56.819,62.59L58.114,65.295L61.776,65.246L63.277,62.34L63.648,63.551L66.429,64.691L66.544,66.128L62.486,74.646L57.425,74.759L52.926,68.794L52.926,65.553L56.403,63.888L56.819,62.59Z" style="fill:rgb(228,226,220);"/>
                    </g>
                    <g transform="matrix(1,0,0,1,1385,48)">
                        <path d="M58.114,65.295L61.776,65.246L60.799,67.919L61.994,74.657L61.388,80.093L58.176,80.309L57.425,74.759L58.984,67.895L58.114,65.295Z" style="fill:rgb(73,121,158);"/>
                    </g>
                    <g transform="matrix(1,0,0,1,1385,48)">
                        <path d="M53.989,65.034L60,73.029L66.429,64.691L71.254,68.715L72.135,103.716L49.541,104.274L50.502,66.674L53.989,65.034Z" style="fill:rgb(239,157,117);"/>
                    </g>
                </g>
                <g transform="matrix(0.918843,0,0,0.918843,-19.9144,3.55751)">
                    <path d="M44.882,69.011L54.91,64.87L55.44,77.453L58.064,108.986L49.295,110.016L49.26,105.081L48.815,83.126L41.104,90.833L34.48,87.206L44.882,69.011Z" style="fill:rgb(86,65,57);"/>
                </g>
                <g transform="matrix(0.918843,0,0,0.918843,-19.9144,3.55751)">
                    <path d="M66.621,64.502L76.701,68.947L82.681,85.823L81.978,90.215L71.432,88.628L72.705,110.016L64.26,108.485L66.651,77.79L66.621,64.502Z" style="fill:rgb(86,65,57);"/>
                </g>
                <g transform="matrix(1,0,0,1,-73.6095,-57.474)">
                    <path d="M94.946,138.296L96.142,132.395L101.418,132.927L102.539,139.075L94.946,138.296Z" style="fill:rgb(207,174,128);"/>
                </g>
            </g>
            <g transform="matrix(1,0,0,1,2.91608,0)">
                <g transform="matrix(1,0,0,1,-92.695,8.88178e-16)">
                    <path d="M94.992,171.205L95.037,165.285L98.233,165.285L98.054,171.205L94.992,171.205Z" style="fill:rgb(93,96,97);"/>
                </g>
                <g transform="matrix(1,0,0,1,-92.695,8.88178e-16)">
                    <path d="M116.524,171.205L116.524,165.285L119.019,165.285L119.328,171.205L116.524,171.205Z" style="fill:rgb(93,96,97);"/>
                </g>
                <g transform="matrix(1,0,0,1,-92.695,-3.31574)">
                    <path d="M85.714,151.188L92.132,139.329L121.054,139.128L127.518,150.101L120.425,170.421L93.557,170.321L85.714,151.188Z" style="fill:rgb(42,42,41);"/>
                </g>
                <g transform="matrix(1,0,0,1,-92.695,8.88178e-16)">
                    <path d="M85.714,147.873L127.518,146.785L120.425,167.105L116.678,167.091L85.714,147.873Z" style="fill-opacity:0.5;"/>
                </g>
            </g>
            <g>
                <g transform="matrix(1.82255,0,0,1.19158,-8056.6,-836.93)">
                    <path d="M4408.12,814.367L4406.88,815.655L4406.93,861.664L4408.31,863.5L4410.56,863.5L4411.89,861.43L4411.71,815.421L4410.33,814.367L4408.12,814.367Z" style="fill:rgb(41,43,41);fill-rule:nonzero;"/>
                </g>
                <g transform="matrix(1,0,0,1,-85.2499,-0.0685869)">
                    <path d="M62.1,130.788L59.973,133.523L60.096,174.228L61.28,175.297L68.535,175.372L69.865,174.187L69.823,133.349L68.332,130.855L62.1,130.788Z" style="fill:rgb(194,190,186);"/>
                </g>
            </g>
        </g>
        <g>
            <g>
                <path d="M53.24,150.224L53.624,128.938L61.565,115.328L69.979,113.308L72.859,122.174L76.994,151.098L81.244,150.723L81.843,121.197L75.96,101.92L55.255,101.904L46.063,125.791L48.678,150.911L53.24,150.224Z" style="fill:rgb(42,42,41);"/>
                <path d="M74.567,134.123L79.762,114.379L76.918,105.059L65.235,103.689L53.389,106.752L50.454,114.379L53.624,128.938L61.565,115.328L69.979,113.308L72.859,122.174L74.567,134.123Z" style="fill-opacity:0.5;"/>
                <path d="M57.233,81.221L64.558,78.6L68.464,78.479L73.616,80.246L74.782,85.661L70.476,88.158L59.064,88.127L57.233,81.221Z" style="fill:rgb(206,173,153);"/>
                <path d="M58.81,86.468L65.764,87.081L73.238,86.054L75.934,105.059L55.294,105.059L58.81,86.468Z" style="fill:rgb(74,75,115);"/>
                <path d="M55.294,105.059L76.157,105.828L74.826,98.864L56.021,101.215L55.294,105.059Z" style="fill:rgb(114,15,27);fill-opacity:0.35;"/>
                <path d="M56.801,98.864L73.128,95.557L74.642,89.764L57.831,94.738L56.801,98.864Z" style="fill:rgb(114,15,27);fill-opacity:0.35;"/>
                <path d="M41.937,100.954L46.063,101.904L49.977,94.372L55.959,88.978L53.329,105.703L59.162,104.45L62.262,90.068L58.157,80.744L52.076,83.402L46.442,92.055L41.937,100.954Z" style="fill:rgb(42,42,41);"/>
                <path d="M88.516,101.904L85.222,89.923L78.208,82.021L73.119,80.039L69.624,89.864L72.933,104.907L78.002,105.059L76.119,89.091L81.802,94.806L84.383,102.561L88.516,101.904Z" style="fill:rgb(42,42,41);"/>
                <g transform="matrix(1.04784,0,0,0.902182,-1404.77,-2.47822)">
                    <g transform="matrix(1,0,0,1,1342.64,32.5701)">
                        <path d="M66.129,52.339L67.575,52.321L67.61,54.884L65.726,55.948L66.129,52.339Z" style="fill:rgb(225,197,181);"/>
                    </g>
                    <g transform="matrix(1,0,0,1,1342.96,32.5701)">
                        <path d="M55.467,46.119L54.486,55.547L55.168,59.714L58.254,63.63L61.502,63.667L64.908,60.055L66.002,52.381L65.682,44.626L61.224,42.665L55.467,46.119Z" style="fill:rgb(225,197,181);"/>
                    </g>
                    <g transform="matrix(1,0,0,1,1342.64,32.5701)">
                        <path d="M60.538,40.753L54.972,43.247L53.261,56.585L53.863,64.86L56.855,54.106L63.606,45.913L67.089,43.579L60.538,40.753Z" style="fill:rgb(16,155,168);"/>
                    </g>
                </g>
            </g>
            <g>
                <g transform="matrix(1.00011,0,0,1.00011,-4346.12,-671.597)">
                    <path d="M4401.89,830.589L4389.96,832.191L4391.01,827.266L4402.81,826.326L4401.89,830.589Z" style="fill:rgb(55,56,55);fill-rule:nonzero;"/>
                </g>
                <g transform="matrix(1.00011,0,0,1.00011,-4344.92,-671.597)">
                    <path d="M4415.49,829.884L4429.38,830.04L4428.76,825.976L4415.25,825.351L4415.49,829.884Z" style="fill:rgb(55,56,55);fill-rule:nonzero;"/>
                </g>
                <path d="M59.669,174.911L55.909,170.717L55.356,132.469L59.939,125.853L70.429,125.793L75.114,133.251L75.074,170.394L71.083,175.097L59.669,174.911Z" style="fill:rgb(194,190,186);"/>
                <g transform="matrix(1.82255,0,0,1.19158,-7971.12,-836.93)">
                    <path d="M4408.12,814.367L4406.88,815.655L4406.93,861.664L4408.31,863.5L4410.56,863.5L4411.89,861.43L4411.71,815.421L4410.33,814.367L4408.12,814.367Z" style="fill:rgb(41,43,41);fill-rule:nonzero;"/>
                </g>
                <path d="M62.1,130.788L60.278,133.572L60.226,139.382L69.871,139.346L69.823,133.349L68.332,130.855L62.1,130.788Z" style="fill:rgb(228,226,220);"/>
            </g>
            <g>
                <g transform="matrix(1.00011,0,0,0.271359,-4344.36,-95.3601)">
                    <path d="M4407.29,815.626L4406.95,791.03L4410.89,791.039L4411.16,815.45L4407.29,815.626Z" style="fill:rgb(93,96,97);fill-rule:nonzero;"/>
                </g>
                <g transform="matrix(1.00011,0,0,0.271359,-4344.36,-109.657)">
                    <path d="M4407.95,814.156L4407.54,791.024L4410.89,791.039L4410.58,813.933L4407.95,814.156Z" style="fill:rgb(93,96,97);fill-rule:nonzero;"/>
                </g>
                <g transform="matrix(1.00011,0,0,-1.00011,-4344.12,893.062)">
                    <path d="M4407.35,790.093L4410.89,790.132L4419.16,788.255L4418.65,786.221L4410.8,787.513L4407.3,787.552L4399.09,786.418L4398.58,788.665L4407.35,790.093Z" style="fill:rgb(93,96,97);fill-rule:nonzero;"/>
                </g>
                <path d="M56.319,106.437L57.162,123.035L63.368,123.848L67.216,123.842L74.298,123.991L75.074,106.725L72.879,106.055L71.953,121.355L59.481,120.927L58.799,105.801L56.319,106.437Z" style="fill:rgb(93,96,97);"/>
                <path d="M56.362,106.431L58.813,106.093L59.481,120.927L56.362,106.431Z" style="fill-opacity:0.5;"/>
                <g transform="matrix(1,0,0,1,7.19394,-0.976755)">
                    <path d="M56.514,106.398L59.815,106.435L59.539,111.884L56.514,106.398Z" style="fill-opacity:0.5;"/>
                </g>
                <g transform="matrix(1,0,0,1,17.1939,-0.976755)">
                    <path d="M55.665,107.371L57.88,107.729L57.186,123.15L55.665,107.371Z" style="fill-opacity:0.5;"/>
                </g>
                <g transform="matrix(1.00011,0,0,-1.00011,-4343.56,893.685)">
                    <path d="M4417.7,785.53L4417.98,789.907L4435.89,788.448L4435.15,783.196L4417.7,785.53Z" style="fill:rgb(42,42,41);fill-rule:nonzero;"/>
                </g>
                <g transform="matrix(1.00011,0,0,-1.00011,-4343.56,893.685)">
                    <path d="M4399.87,785.969L4399.58,790.346L4381.68,788.887L4382.42,783.636L4399.87,785.969Z" style="fill:rgb(42,42,41);fill-rule:nonzero;"/>
                </g>
                <path d="M60.792,101.49L60.624,103.797L64.258,103.218L63.269,101.275L60.792,101.49Z" style="fill:rgb(42,42,41);"/>
                <path d="M67.441,103.265L71.021,104.083L70.487,101.356L68.762,100.968L67.441,103.265Z" style="fill:rgb(42,42,41);"/>
                <g transform="matrix(1,0,0,1,-0.32885,-0.0357548)">
                    <path d="M58.356,114.386L60.615,108.988L65.679,107.118L71.027,109.209L73.006,114.229L71.158,119.007L65.898,121.712L60.596,119.059L58.356,114.386Z" style="fill:rgb(255,239,206);"/>
                </g>
            </g>
            <g transform="matrix(1.00011,0,0,1.00011,-4344.29,-681.095)">
                <path d="M4385.29,783.603L4386.47,787.28L4392.41,788.763L4391.7,785.011L4393.73,784.853L4393.66,783.76L4385.61,781.96L4385.29,783.603Z" style="fill:rgb(223,195,181);fill-rule:nonzero;"/>
            </g>
            <g transform="matrix(1.00011,0,0,1.00011,-4343.94,-680.586)">
                <path d="M4431.65,785.792L4430.95,787.044L4425.01,788.528L4425.71,784.775L4423.7,784.646L4423.76,783.526L4431.96,782.587L4431.65,785.792Z" style="fill:rgb(223,195,181);fill-rule:nonzero;"/>
            </g>
            <g>
                <g transform="matrix(1.00011,0,0,1.00011,-4344.15,-672.869)">
                    <path d="M4392.34,823.688L4391.9,833.188L4394.18,838.061L4396.68,837.905L4398.01,833.371L4396.9,823.001L4392.34,823.688Z" style="fill:rgb(42,42,41);fill-rule:nonzero;"/>
                </g>
                <g transform="matrix(1.00011,0,0,1.00011,-4344.15,-672.869)">
                    <path d="M4424.9,823.5L4427.78,832.375L4425.61,835.974L4422.68,836.209L4420.53,833.063L4420.65,823.875" style="fill:rgb(42,42,41);fill-rule:nonzero;"/>
                </g>
                <path d="M53.24,150.224L48.678,150.911L47.637,140.909L53.432,139.586L53.24,150.224Z" style="fill:rgb(93,96,97);"/>
                <path d="M81.244,150.723L76.994,151.098L75.55,140.997L81.443,140.909L81.244,150.723Z" style="fill:rgb(93,96,97);"/>
            </g>
        </g>
    </g>
</svg>
