<?xml version="1.0" encoding="UTF-8" standalone="no"?>
<!DOCTYPE svg PUBLIC "-//W3C//DTD SVG 1.1//EN" "http://www.w3.org/Graphics/SVG/1.1/DTD/svg11.dtd">
<svg width="100%" height="100%" viewBox="0 0 180 180" version="1.1" xmlns="http://www.w3.org/2000/svg" xmlns:xlink="http://www.w3.org/1999/xlink" xml:space="preserve" xmlns:serif="http://www.serif.com/" style="fill-rule:evenodd;clip-rule:evenodd;stroke-linejoin:round;stroke-miterlimit:2;">
    <g id="krz-motorbike-outbound" transform="matrix(-1.30655,0,0,1.30655,141.684,-70.8569)">
        <g transform="matrix(1,0,0,1,2.91608,0)">
            <g>
                <g transform="matrix(1,0,0,1,-90.7509,8.88178e-16)">
                    <path d="M74.922,172.721L143.783,172.312L143.792,156.201L140.927,160.611L140.971,170.172L78.209,170.262L78.052,158.566L74.806,153.556L74.922,172.721Z" style="fill:rgb(93,96,97);"/>
                </g>
                <g transform="matrix(1,0,0,1,-88.8069,8.88178e-16)">
                    <path d="M75.661,165.285L80.828,171.104L84.275,170.793L75.684,161.023L75.661,165.285Z" style="fill:rgb(93,96,97);"/>
                </g>
                <g transform="matrix(-1,0,0,1,126.125,8.88178e-16)">
                    <path d="M75.661,165.285L80.828,171.104L84.275,170.793L75.684,161.023L75.661,165.285Z" style="fill:rgb(93,96,97);"/>
                </g>
            </g>
            <g transform="matrix(1,0,0,1,-17.1414,57.474)">
                <g transform="matrix(0.918843,0,0,0.918843,-1253.41,-63.1727)">
                    <path d="M1406.59,136.15L1399.39,136.553L1401.23,130.837L1405.52,132.06L1406.59,136.15Z" style="fill:rgb(225,197,181);fill-rule:nonzero;"/>
                </g>
                <g transform="matrix(0.967385,0.0268784,-0.0268784,0.967385,-1318.92,-69.7607)">
                    <g transform="matrix(1,0,0,1,1342.64,32.5701)">
                        <path d="M66.129,52.339L67.575,52.321L67.61,54.884L65.726,55.948L66.129,52.339Z" style="fill:rgb(225,197,181);"/>
                    </g>
                    <g transform="matrix(-1,0,0,1,1463.64,32.5701)">
                        <path d="M66.129,52.339L67.575,52.321L67.61,54.884L65.726,55.948L66.129,52.339Z" style="fill:rgb(225,197,181);"/>
                    </g>
                    <g transform="matrix(1,0,0,1,1342.96,32.5701)">
                        <path d="M54.941,45.145L54.394,53.216L55.168,59.714L58.254,63.63L61.502,63.667L64.908,60.055L66.002,52.381L65.682,44.626L60.968,43.764L54.941,45.145Z" style="fill:rgb(225,197,181);"/>
                    </g>
                    <g transform="matrix(1,0,0,1,1343,32.5701)">
                        <path d="M54.599,47.495L65.81,47.183L65.673,44.251L62.63,43.463L57.544,43.833L54.723,45.005L54.599,47.495Z" style="fill:rgb(207,174,128);"/>
                    </g>
                    <g transform="matrix(1,0,0,1,1343,32.5701)">
                        <path d="M54.352,53.216L59.867,59.6L66.059,52.509L65.673,44.251L62.63,43.463L57.544,43.833L54.723,45.005L54.352,53.216Z" style="fill:rgb(207,174,128);"/>
                    </g>
                </g>
                <g transform="matrix(-0.972028,0,0,0.972028,123.769,-52.1034)">
                    <path d="M108.963,143.125L80.295,141.041L70.325,142.541L69.662,138.39L75.314,122.437L83.191,119.035L85.324,116.065L94.912,115.949L96.51,118.73L105.392,122.497L115.225,139.697L108.963,143.125Z" style="fill:rgb(86,65,57);"/>
                </g>
            </g>
            <g transform="matrix(1,0,0,1,2.91608,0)">
                <g transform="matrix(1,0,0,1,-92.695,8.88178e-16)">
                    <path d="M94.992,171.205L95.037,165.285L98.233,165.285L98.054,171.205L94.992,171.205Z" style="fill:rgb(93,96,97);"/>
                </g>
                <g transform="matrix(1,0,0,1,-92.695,8.88178e-16)">
                    <path d="M116.524,171.205L116.524,165.285L119.019,165.285L119.328,171.205L116.524,171.205Z" style="fill:rgb(93,96,97);"/>
                </g>
                <g transform="matrix(1,0,0,1,-92.695,-3.31574)">
                    <path d="M85.714,151.188L92.132,139.329L121.054,139.128L127.518,150.101L120.425,170.421L93.557,170.321L85.714,151.188Z" style="fill:rgb(42,42,41);"/>
                </g>
                <g transform="matrix(1,0,0,1,-92.695,8.88178e-16)">
                    <path d="M85.714,147.873L127.518,146.785L97.967,167.105L93.557,167.005L85.714,147.873Z" style="fill-opacity:0.5;"/>
                </g>
            </g>
            <g>
                <g transform="matrix(1.82255,0,0,1.19158,-8056.6,-836.93)">
                    <path d="M4408.12,814.367L4406.88,815.655L4406.93,861.664L4408.31,863.5L4410.56,863.5L4411.89,861.43L4411.71,815.421L4410.33,814.367L4408.12,814.367Z" style="fill:rgb(41,43,41);fill-rule:nonzero;"/>
                </g>
                <g transform="matrix(1,0,0,1,-85.2499,-0.0685869)">
                    <path d="M62.1,130.788L60.034,133.523L60.096,174.228L61.28,175.297L68.535,175.372L69.865,174.187L69.823,133.349L68.332,130.855L62.1,130.788Z" style="fill:rgb(194,190,186);"/>
                </g>
            </g>
        </g>
        <g transform="matrix(-0.669654,0,0,0.669654,66.8601,51.7791)">
            <path d="M57.084,156.851L55.393,167.497L83.675,167.436L82.098,157.037L57.084,156.851Z" style="fill:rgb(244,242,237);fill-rule:nonzero;"/>
        </g>
        <g>
            <g>
                <g transform="matrix(1.00011,0,0,-1.00011,-4343.56,893.685)">
                    <path d="M4417.7,785.53L4417.98,789.907L4435.89,788.448L4435.15,783.196L4417.7,785.53Z" style="fill:rgb(42,42,41);fill-rule:nonzero;"/>
                </g>
                <g transform="matrix(1.00011,0,0,-1.00011,-4343.56,893.685)">
                    <path d="M4399.87,785.969L4399.58,790.346L4381.68,788.887L4382.42,783.636L4399.87,785.969Z" style="fill:rgb(42,42,41);fill-rule:nonzero;"/>
                </g>
                <g transform="matrix(1.04784,0,0,0.902182,2.10664,26.9059)">
                    <path d="M66.129,52.339L67.575,52.321L67.61,54.884L65.726,55.948L66.129,52.339Z" style="fill:rgb(225,197,181);"/>
                </g>
                <g transform="matrix(1.04784,0,0,0.902182,2.10664,26.9059)">
                    <path d="M66.129,52.339L67.575,52.321L67.61,54.884L65.726,55.948L66.129,52.339Z" style="fill:rgb(225,197,181);"/>
                </g>
                <g transform="matrix(-1.04784,0,0,0.902182,129.388,26.9059)">
                    <path d="M66.129,52.339L67.575,52.321L67.61,54.884L65.726,55.948L66.129,52.339Z" style="fill:rgb(225,197,181);"/>
                </g>
                <g transform="matrix(1.04784,0,0,0.902182,2.43786,26.9059)">
                    <path d="M55.467,46.119L54.486,55.547L55.168,59.714L58.254,63.63L61.502,63.667L64.908,60.055L66.002,52.381L65.682,44.626L61.224,42.665L55.467,46.119Z" style="fill:rgb(225,197,181);"/>
                </g>
                <path d="M53.24,150.224L53.624,128.938L61.565,115.328L69.979,113.308L72.859,122.174L76.994,151.098L81.244,150.723L81.843,121.197L75.96,101.92L55.255,101.904L46.063,125.791L48.678,150.911L53.24,150.224Z" style="fill:rgb(42,42,41);"/>
                <path d="M74.567,134.123L79.762,114.379L76.918,105.059L65.235,103.689L53.389,106.752L50.454,114.379L53.624,128.938L61.565,115.328L69.979,113.308L72.859,122.174L74.567,134.123Z" style="fill-opacity:0.5;"/>
                <g transform="matrix(-0.972028,0,0,0.972028,109.544,5.37059)">
                    <path d="M32.238,78.856L42.262,75.212L46.28,75.337L52.808,77.673L59.122,80.277L64.918,89.179L69.552,98.334L65.307,99.312L61.281,91.562L55.127,86.013L57.833,103.22L52.091,105.79L38.408,107.601L32.45,102.557L34.387,86.13L28.54,92.01L25.885,99.988L21.633,99.312L25.021,86.985L32.238,78.856Z" style="fill:rgb(42,42,41);"/>
                </g>
                <g transform="matrix(1.04784,0,0,0.902182,2.10664,26.9059)">
                    <path d="M60.538,40.753L54.972,43.247L54.302,51.618L54.949,54.134L58.602,61.435L67.449,51.342L67.089,43.579L60.538,40.753Z" style="fill:rgb(16,155,168);"/>
                </g>
            </g>
            <g>
                <g transform="matrix(1.00011,0,0,1.00011,-4346.12,-671.597)">
                    <path d="M4401.89,830.589L4389.96,832.191L4391.01,827.266L4402.81,826.326L4401.89,830.589Z" style="fill:rgb(55,56,55);fill-rule:nonzero;"/>
                </g>
                <g transform="matrix(1.00011,0,0,1.00011,-4344.92,-671.597)">
                    <path d="M4415.49,829.884L4429.38,830.04L4428.76,825.976L4415.25,825.351L4415.49,829.884Z" style="fill:rgb(55,56,55);fill-rule:nonzero;"/>
                </g>
                <path d="M59.669,174.911L55.909,170.717L55.356,132.469L59.939,125.853L70.429,125.793L75.114,133.251L75.074,170.394L71.083,175.097L59.669,174.911Z" style="fill:rgb(194,190,186);"/>
                <g transform="matrix(1.82255,0,0,1.19158,-7971.12,-836.93)">
                    <path d="M4408.12,814.367L4406.88,815.655L4406.93,861.664L4408.31,863.5L4410.56,863.5L4411.89,861.43L4411.71,815.421L4410.33,814.367L4408.12,814.367Z" style="fill:rgb(41,43,41);fill-rule:nonzero;"/>
                </g>
                <path d="M62.1,130.788L60.278,133.572L60.272,138.277L69.918,138.241L69.823,133.349L68.332,130.855L62.1,130.788Z" style="fill:rgb(228,226,220);"/>
            </g>
            <g>
                <g transform="matrix(0.977071,0,0,0.219175,-4242.71,-52.7977)">
                    <path d="M4407.29,815.626L4406.8,756.643L4411.29,756.643L4411.16,815.45L4407.29,815.626Z" style="fill:rgb(93,96,97);fill-rule:nonzero;"/>
                </g>
                <path d="M59.396,119.044L57.078,123.017L63.368,123.848L67.216,123.842L73.113,123.953L72.859,122.174L72.014,119.574L71.953,121.355L59.481,120.927L59.396,119.044Z" style="fill:rgb(93,96,97);"/>
            </g>
            <g transform="matrix(1.00011,0,0,1.00011,-4344.29,-681.095)">
                <path d="M4385.29,783.603L4385.9,785.432L4386.33,786.526L4393.62,786.143L4393.73,784.853L4393.66,783.76L4385.61,781.96L4385.29,783.603Z" style="fill:rgb(223,195,181);fill-rule:nonzero;"/>
            </g>
            <g transform="matrix(1.00011,0,0,1.00011,-4343.94,-680.586)">
                <path d="M4431.76,785.279L4431.53,786.585L4423.92,786.018L4423.7,784.646L4423.76,783.526L4431.96,782.388L4431.76,785.279Z" style="fill:rgb(223,195,181);fill-rule:nonzero;"/>
            </g>
            <g>
                <g transform="matrix(1.00011,0,0,1.00011,-4344.15,-672.869)">
                    <path d="M4392.34,823.688L4391.9,833.188L4394.18,838.061L4396.68,837.905L4398.01,833.371L4396.9,823.001L4392.34,823.688Z" style="fill:rgb(42,42,41);fill-rule:nonzero;"/>
                </g>
                <g transform="matrix(1.00011,0,0,1.00011,-4344.15,-672.869)">
                    <path d="M4424.9,823.5L4427.78,832.375L4425.61,835.974L4422.68,836.209L4420.53,833.063L4420.65,823.875" style="fill:rgb(42,42,41);fill-rule:nonzero;"/>
                </g>
                <path d="M53.24,150.224L48.678,150.911L47.637,140.909L53.432,139.586L53.24,150.224Z" style="fill:rgb(93,96,97);"/>
                <path d="M81.244,150.723L76.994,151.098L75.55,140.997L81.443,140.909L81.244,150.723Z" style="fill:rgb(93,96,97);"/>
            </g>
        </g>
        <g transform="matrix(-0.972137,0,0,0.972137,4426.56,-656.23)">
            <path d="M4479.47,793.362L4493.48,793.371L4492.09,789.302L4481.06,789.263L4479.47,793.362Z" style="fill:rgb(86,65,57);fill-rule:nonzero;"/>
        </g>
        <g transform="matrix(-1,0,0,1,123.718,8.62233)">
            <path d="M56.293,106.428L60.604,106.373L60.216,116.757L56.293,106.428Z" style="fill-opacity:0.5;"/>
        </g>
        <g transform="matrix(-0.63663,0,0,0.351881,150.166,69.9863)">
            <path d="M141.228,139.07L140.942,149.926L125.716,150.559L125.107,139.024L141.228,139.07Z" style="fill:rgb(174,32,37);fill-rule:nonzero;"/>
        </g>
    </g>
</svg>
