<?xml version="1.0" encoding="UTF-8" standalone="no"?>
<!DOCTYPE svg PUBLIC "-//W3C//DTD SVG 1.1//EN" "http://www.w3.org/Graphics/SVG/1.1/DTD/svg11.dtd">
<svg width="100%" height="100%" viewBox="0 0 180 160" version="1.1" xmlns="http://www.w3.org/2000/svg" xmlns:xlink="http://www.w3.org/1999/xlink" xml:space="preserve" xmlns:serif="http://www.serif.com/" style="fill-rule:evenodd;clip-rule:evenodd;stroke-linejoin:round;stroke-miterlimit:2;">
    <g id="aladdin" transform="matrix(0.3048,0,0,0.3048,-412.92,-320.06)">
        <g transform="matrix(-0.208905,-4.16143,-4.16143,0.208905,1756.13,1418.23)">
            <path d="M-14.565,36.068L35.418,36.068L34.177,11.349L-15.554,16.355L-14.565,36.068Z" style="fill:rgb(245,243,233);fill-rule:nonzero;"/>
        </g>
        <g transform="matrix(4.16667,0,0,4.16667,1609.02,1278.38)">
            <path d="M0,49.92L22.258,0L19.738,49.92L0,49.92Z" style="fill:rgb(202,199,191);fill-rule:nonzero;"/>
        </g>
        <g transform="matrix(-1.3482,-3.94252,-3.94252,1.3482,1606.96,1266.74)">
            <path d="M-3.156,-0.595L-1.401,-0.595L-0.609,1.719L-1.997,2.794L-3.156,-0.595Z" style="fill:rgb(73,75,114);fill-rule:nonzero;"/>
        </g>
        <g transform="matrix(0.208859,4.16143,4.16143,-0.208859,1702.34,1362.81)">
            <path d="M-21.487,-23.842L24.517,-23.842L25.069,-22.592L-21.307,-20.264L-21.487,-23.842Z" style="fill:rgb(73,75,114);fill-rule:nonzero;"/>
        </g>
        <g transform="matrix(1.34607,-3.94325,-3.94325,-1.34607,1695.16,1283.1)">
            <path d="M0.426,2.257L2.182,2.257L2.972,-0.059L1.584,-1.133L0.426,2.257Z" style="fill:rgb(73,75,114);fill-rule:nonzero;"/>
        </g>
        <g transform="matrix(-0.20895,4.16142,4.16142,0.20895,1790.54,1387.42)">
            <path d="M-25.069,-22.593L20.935,-22.593L21.487,-23.841L-24.889,-26.17L-25.069,-22.593Z" style="fill:rgb(73,75,114);fill-rule:nonzero;"/>
        </g>
        <g transform="matrix(4.16667,0,0,4.16667,1650.2,1264.6)">
            <path d="M0,-18.256L-10.139,-20.04L-14.706,-2.945L0,1.784L14.706,-2.945L10.139,-20.04L0,-18.256Z" style="fill:rgb(227,225,216);fill-rule:nonzero;"/>
        </g>
        <g transform="matrix(4.16667,0,0,4.16667,1650.14,1272.43)">
            <path d="M0,-20.081L0,0.003L0.014,0L0.029,0.003L0.029,-20.081L0.014,-20.084L0,-20.081Z" style="fill:rgb(227,225,216);fill-rule:nonzero;"/>
        </g>
        <g transform="matrix(4.16667,0,0,4.16667,1650.2,1245.3)">
            <path d="M0,31.127L-3.695,8.023L-4.197,0L4.197,0L3.695,8.023L0,31.127Z" style="fill:rgb(174,145,128);fill-rule:nonzero;"/>
        </g>
        <g transform="matrix(4.16667,0,0,4.16667,1636.41,1252.33)">
            <path d="M0,-20.499L-5.213,-18.582L-4.21,-3.674L1.106,0L5.514,0L10.83,-3.674L11.832,-18.582L6.619,-20.499L0,-20.499Z" style="fill:rgb(206,171,152);fill-rule:nonzero;"/>
        </g>
        <g transform="matrix(4.16667,0,0,4.16667,1618.93,1213.66)">
            <path d="M0,-3.384L-1.18,-4.292L-2.723,-3.384L-1.362,0.908L0,0.908L0,-3.384Z" style="fill:rgb(206,171,152);fill-rule:nonzero;"/>
        </g>
        <g transform="matrix(4.16667,0,0,4.16667,1681.47,1213.66)">
            <path d="M0,-3.384L1.181,-4.292L2.724,-3.384L1.362,0.908L0,0.908L0,-3.384Z" style="fill:rgb(206,171,152);fill-rule:nonzero;"/>
        </g>
        <g transform="matrix(4.16667,0,0,4.16667,1650.2,1183.82)">
            <path d="M0,-17.443L-5.892,-15.996L-13.377,-9.513L-12.375,-2.889L-9.486,0L-0.015,-3.424L0,-3.419L0.015,-3.424L9.486,0L12.375,-2.889L13.377,-9.513L5.892,-15.996L0,-17.443Z" style="fill:rgb(245,243,233);fill-rule:nonzero;"/>
        </g>
        <g transform="matrix(4.16667,0,0,4.16667,1650.2,1188.74)">
            <path d="M0,-4.601L-0.015,-4.606L-9.486,-1.182L-8.299,0.005L-5.629,-0.461L0,-1.444L5.63,-0.461L8.299,0.005L8.766,-0.461L9.486,-1.182L0.015,-4.606L0,-4.601Z" style="fill:rgb(73,75,114);fill-rule:nonzero;"/>
        </g>
        <g transform="matrix(4.16667,0,0,4.16667,1643.39,1153.43)">
            <path d="M0,-14.046L-1.845,-12.201L-1.845,-9.489L0.615,0L2.653,0L5.113,-9.489L5.113,-12.201L3.268,-14.046L0,-14.046Z" style="fill:rgb(73,75,114);fill-rule:nonzero;"/>
        </g>
        <g transform="matrix(4.16667,0,0,4.16667,1640.47,1172.77)">
            <path d="M0,-6.303L-1.078,-3.152L0,0L4.672,0L5.75,-3.152L4.672,-6.303L0,-6.303Z" style="fill:rgb(248,187,34);fill-rule:nonzero;"/>
        </g>
        <g transform="matrix(4.16667,0,0,4.16667,1650.2,1486.38)">
            <path d="M0,11.875L-15.538,10.059L-9.869,0L9.869,0L15.539,10.059L0,11.875Z" style="fill:rgb(74,74,71);fill-rule:nonzero;"/>
        </g>
        <g transform="matrix(-2.64134,3.22249,3.22249,2.64134,1582.85,1383.67)">
            <path d="M-21.929,-13.11L3.803,-13.11L3.245,-6.768L-13.218,-5.209L-21.929,-13.11Z" style="fill:rgb(245,243,233);fill-rule:nonzero;"/>
        </g>
        <g transform="matrix(0.706167,4.10639,4.10639,-0.706167,1542.71,1453.88)">
            <path d="M-4.922,5.477L0.884,5.477L-6.426,-6.851L-12.013,-4.138L-4.922,5.477Z" style="fill:rgb(206,171,152);fill-rule:nonzero;"/>
        </g>
        <g transform="matrix(3.4416,2.34872,2.34872,-3.4416,1551.45,1362.25)">
            <path d="M-4.263,-2.632L2.104,-2.632L11.174,-12L-0.666,-13.593L-4.263,-2.632Z" style="fill:rgb(245,243,233);fill-rule:nonzero;"/>
        </g>
        <g transform="matrix(3.66353,1.98486,1.98486,-3.66353,1566.64,1427.19)">
            <path d="M-0.739,-1.112L2.731,-1.112L4.041,-2.275L1.788,-4.323L-0.739,-1.112Z" style="fill:rgb(174,145,128);fill-rule:nonzero;"/>
        </g>
        <g transform="matrix(2.64134,3.22249,3.22249,-2.64134,1751.6,1270.96)">
            <path d="M-6.206,-10.379L19.526,-10.379L18.968,-16.722L2.504,-18.281L-6.206,-10.379Z" style="fill:rgb(245,243,233);fill-rule:nonzero;"/>
        </g>
        <g transform="matrix(-0.706167,4.10639,4.10639,0.706167,1767.12,1407.24)">
            <path d="M6.499,-5.84L12.305,-5.84L4.995,6.488L-0.592,3.776L6.499,-5.84Z" style="fill:rgb(206,171,152);fill-rule:nonzero;"/>
        </g>
        <g transform="matrix(-3.44181,2.34841,2.34841,3.44181,1772.77,1428.85)">
            <path d="M-8.524,-13.809L-2.156,-13.809L6.912,-4.439L-4.929,-2.848L-8.524,-13.809Z" style="fill:rgb(245,243,233);fill-rule:nonzero;"/>
        </g>
        <g transform="matrix(-3.66353,1.98486,1.98486,3.66353,1728.26,1449.19)">
            <path d="M-4.388,-2.915L-0.918,-2.915L0.392,-1.752L-1.86,0.296L-4.388,-2.915Z" style="fill:rgb(174,145,128);fill-rule:nonzero;"/>
        </g>
        <g transform="matrix(-3.65694,-1.99698,-1.99698,3.65694,1505.91,1447.91)">
            <path d="M-26.156,-3.764L0.908,-3.764L0.752,3.54L-26.002,7.781L-26.156,-3.764Z" style="fill:rgb(74,74,71);fill-rule:nonzero;"/>
        </g>
        <g transform="matrix(4.16667,0,0,4.16667,1510.11,1528.29)">
            <path d="M0,-23.029L30.143,-11.514L26.654,0L-3.364,-16.544" style="fill:rgb(245,243,233);fill-rule:nonzero;"/>
        </g>
        <g transform="matrix(-4.16505,0.116032,0.116032,4.16505,1621.84,1550.32)">
            <path d="M-12.417,-16.625L-3.798,-16.625L0.09,-5.258L-6.723,0.021L-12.417,-16.625Z" style="fill:rgb(174,145,128);fill-rule:nonzero;"/>
        </g>
        <g transform="matrix(3.65694,-1.99698,-1.99698,-3.65694,1701.14,1512.71)">
            <path d="M0.961,6.676L28.025,6.676L27.869,-0.628L1.116,-4.87L0.961,6.676Z" style="fill:rgb(74,74,71);fill-rule:nonzero;"/>
        </g>
        <g transform="matrix(4.16667,0,0,4.16667,1790.29,1528.29)">
            <path d="M0,-23.029L-30.143,-11.514L-26.654,0L3.364,-16.544" style="fill:rgb(245,243,233);fill-rule:nonzero;"/>
        </g>
        <g transform="matrix(4.16505,0.116032,0.116032,-4.16505,1629.75,1478.94)">
            <path d="M-0.232,-0.173L8.387,-0.173L12.275,-11.54L5.462,-16.819L-0.232,-0.173Z" style="fill:rgb(206,171,152);fill-rule:nonzero;"/>
        </g>
        <g transform="matrix(-4.16667,0,0,4.16667,1421.93,1528.66)">
            <path d="M-109.583,6.199L0,6.199L-2.122,0L-107.474,0L-109.583,6.199Z" style="fill:rgb(175,31,37);fill-rule:nonzero;"/>
        </g>
        <g transform="matrix(-1.34886,-3.9423,-3.9423,1.34886,1449.38,1542.77)">
            <path d="M-7.835,-1.479L-3.479,-1.479L-1.514,4.266L-4.956,6.934L-7.835,-1.479Z" style="fill:rgb(248,187,34);fill-rule:nonzero;"/>
        </g>
        <g transform="matrix(-1.3479,-3.94262,-3.94262,1.3479,1494.22,1559.42)">
            <path d="M-4.224,-0.797L-1.875,-0.797L-0.816,2.301L-2.673,3.739L-4.224,-0.797Z" style="fill:rgb(59,17,19);fill-rule:nonzero;"/>
        </g>
        <g transform="matrix(-1.33733,3.94622,3.94622,1.33733,1597.88,1732.12)">
            <path d="M-58.252,39.065L-55.401,39.065L-28.302,-40.897L-30.566,-42.631L-58.252,39.065Z" style="fill:rgb(59,17,19);fill-rule:nonzero;"/>
        </g>
        <g transform="matrix(1.34886,-3.9423,-3.9423,-1.34886,1855.33,1583.38)">
            <path d="M1.057,5.6L5.413,5.6L7.378,-0.144L3.936,-2.813L1.057,5.6Z" style="fill:rgb(248,187,34);fill-rule:nonzero;"/>
        </g>
        <g transform="matrix(1.34949,-3.94208,-3.94208,-1.34949,1808.54,1581.32)">
            <path d="M0.569,3.02L2.919,3.02L3.979,-0.078L2.122,-1.517L0.569,3.02Z" style="fill:rgb(59,17,19);fill-rule:nonzero;"/>
        </g>
    </g>
</svg>
