<?xml version="1.0" encoding="UTF-8" standalone="no"?>
<!DOCTYPE svg PUBLIC "-//W3C//DTD SVG 1.1//EN" "http://www.w3.org/Graphics/SVG/1.1/DTD/svg11.dtd">
<svg width="100%" height="100%" viewBox="0 0 180 160" version="1.1" xmlns="http://www.w3.org/2000/svg" xmlns:xlink="http://www.w3.org/1999/xlink" xml:space="preserve" xmlns:serif="http://www.serif.com/" style="fill-rule:evenodd;clip-rule:evenodd;stroke-miterlimit:10;">
    <g id="jasmine" transform="matrix(0.3048,0,0,0.3048,-412.92,-339.157)">
        <g transform="matrix(4.16667,0,0,4.16667,1644.34,1264.77)">
            <path d="M0,-3.524L-10.453,0.988L-9.869,-2.306L-8.477,-2.652L-0.986,-4.512L0,-3.524Z" style="fill:rgb(73,75,114);fill-rule:nonzero;"/>
        </g>
        <g transform="matrix(4.16667,0,0,4.16667,1635.11,1370.26)">
            <path d="M0,-22.375L-6.051,-18.367L-5.846,-15.543L-7.519,-14.865L-7.786,-12.314L-6.54,-10.351L-5.449,-10.112L-5.217,-6.928L0.707,-0.944L1.626,6.468L0.096,4.929L-0.328,5.159L-11.774,-11.011L-12.702,-18.804L-10.744,-22.821L-8.239,-24.331L2.214,-28.843L3.102,-27.958L3.102,-27.955L0,-22.375Z" style="fill:rgb(29,29,27);fill-rule:nonzero;"/>
        </g>
        <g transform="matrix(4.16667,0,0,4.16667,1660.77,1404.78)">
            <path d="M0,-9.227L-0.921,-1.815L-2.728,0L-4.534,-1.815L-5.453,-9.227L-4.581,-8.346L-0.874,-8.346L0,-9.227Z" style="fill:rgb(174,145,128);fill-rule:nonzero;"/>
        </g>
        <g transform="matrix(4.16667,0,0,4.16667,1679.62,1538.91)">
            <path d="M0,-8.438L-1.767,-2.012L-7.251,3.02L-12.735,-2.012L-14.501,-8.438L-7.251,-11.458L0,-8.438Z" style="fill:rgb(174,145,128);fill-rule:nonzero;"/>
        </g>
        <g transform="matrix(4.16667,0,0,4.16667,1709.84,1419.96)">
            <path d="M0,0.953L-5.96,6.557L-8.328,3.892L-12.348,3.892L-14.502,5.822L-16.654,3.892L-20.675,3.892L-23.044,6.557L-29.003,0.953L-27.583,-1.09L-18.786,-5.604L-17.1,-2.261L-14.502,-0.557L-11.903,-2.261L-10.218,-5.604L-1.421,-1.09L0,0.953Z" style="fill:rgb(174,145,128);fill-rule:nonzero;"/>
        </g>
        <g transform="matrix(4.16667,0,0,4.16667,1722.91,1484.95)">
            <path d="M0,-10.134L-5.067,-6.462L-7.944,-4.379L-10.389,4.512L-17.64,1.493L-24.89,4.512L-27.334,-4.379L-30.209,-6.462L-35.279,-10.134L-32.141,-14.646L-26.182,-9.041L-23.813,-11.706L-19.792,-11.706L-17.64,-9.777L-15.485,-11.706L-11.466,-11.706L-9.098,-9.041L-3.138,-14.646L0,-10.134Z" style="fill:rgb(73,75,114);fill-rule:nonzero;"/>
        </g>
        <g transform="matrix(4.16667,0,0,4.16667,1594.91,1476.95)">
            <path d="M0,15.622L2.047,23.836L-2.32,20.357L-3.053,15.992L-10.936,7.464L-13.518,4.669L-4.559,-8.214L0.511,-4.542L-7.05,4.064L-1.8,12.069L1.75,15.104L1.862,15.907L2.047,17.25L0,15.622Z" style="fill:rgb(174,145,128);fill-rule:nonzero;"/>
        </g>
        <g transform="matrix(4.16667,0,0,4.16667,1676.78,1561.33)">
            <path d="M0,-4.866L-6.568,2.525L-13.134,-4.866L-12.053,-7.391L-6.568,-2.359L-1.084,-7.391L0,-4.866Z" style="fill:rgb(248,187,34);fill-rule:nonzero;"/>
        </g>
        <g transform="matrix(4.16667,0,0,4.16667,1629.24,1511.94)">
            <path d="M0,18.77L-0.484,19.852L-1.998,23.231L-2.518,24.393L-7.65,25.972L-33.303,11.468L-43.17,-2.739L-41.196,-5.897L-30.229,-7.202L-19.176,-0.932L-11.294,7.596L-10.561,11.961L-6.193,15.44L-8.241,7.226L-6.193,8.854L-6.378,7.511L-3.849,9.18L-1.726,10.581L0,18.77Z" style="fill:rgb(73,75,114);fill-rule:nonzero;"/>
        </g>
        <g transform="matrix(4.16667,0,0,4.16667,1639.11,1598.56)">
            <path d="M0,4.888L-0.836,5.825L-2.367,3.704L-2.398,3.684L-4.365,2.442L-2.851,-0.937L-2.208,-0.605L-0.836,0.102L0,4.888Z" style="fill:rgb(174,145,128);fill-rule:nonzero;"/>
        </g>
        <g transform="matrix(4.16667,0,0,4.16667,1649.42,1597.97)">
            <path d="M0,5.965L-0.056,7.302L-1.292,7.302L-3.562,5.944L-4.874,3.824L-4.842,3.845L-3.312,5.965L-2.476,5.028L-3.312,0.242L-4.684,-0.465L-3.02,-1.337L0,5.965Z" style="fill:rgb(248,187,34);fill-rule:nonzero;"/>
        </g>
        <g transform="matrix(4.16667,0,0,4.16667,1658.6,1222)">
            <path d="M0,5.752L0.25,5.502L-2.208,3.051L-4.659,5.502L-4.41,5.752L-11.901,7.612L-10.273,2.362L-2.206,-1.86L5.861,2.362L7.489,7.612L0,5.752Z" style="fill:rgb(29,29,27);fill-rule:nonzero;"/>
        </g>
        <g transform="matrix(-4.16667,0,0,4.16667,1658.59,1245.97)">
            <path d="M-0.002,0L0,0" style="fill:none;fill-rule:nonzero;stroke:rgb(29,29,27);stroke-width:0.22px;"/>
        </g>
        <g transform="matrix(4.16667,0,0,4.16667,1698.04,1245.97)">
            <path d="M0,5.5L-10.454,0.988L-9.466,0L-1.977,1.86L-0.585,2.206L0,5.5Z" style="fill:rgb(73,75,114);fill-rule:nonzero;"/>
        </g>
        <g transform="matrix(4.16667,0,0,4.16667,1668.71,1414.71)">
            <path d="M0,-5.036L-0.349,-4.345L-2.034,-1.001L-4.633,0.703L-7.231,-1.001L-8.917,-4.345L-9.265,-5.036L-8.393,-5.509L-7.969,-5.739L-6.439,-4.2L-4.633,-2.384L-2.826,-4.2L-1.294,-5.739L0,-5.036Z" style="fill:rgb(248,187,34);fill-rule:nonzero;"/>
        </g>
        <g transform="matrix(4.16667,0,0,4.16667,1760.24,1522.59)">
            <path d="M0,-6.284L-2.582,-3.489L-10.464,5.039L-11.198,9.404L-15.565,12.883L-13.518,4.669L-15.565,6.297L-15.38,4.954L-15.269,4.152L-11.716,1.116L-6.468,-6.888L-14.026,-15.495L-8.959,-19.167L-7.549,-17.141L0,-6.284Z" style="fill:rgb(174,145,128);fill-rule:nonzero;"/>
        </g>
        <g transform="matrix(4.16667,0,0,4.16667,1676.78,1607.86)">
            <path d="M0,-12.44L-1.729,-4.251L-1.244,-3.169L-1.887,-2.836L-3.551,-3.709L-6.566,3.593L-9.586,-3.709L-11.25,-2.836L-11.892,-3.169L-11.408,-4.251L-13.134,-12.44L-15.257,-13.84L-13.134,-16.033L-6.568,-8.642L0,-16.033L2.121,-13.84L0,-12.44Z" style="fill:rgb(11,23,35);fill-rule:nonzero;"/>
        </g>
        <g transform="matrix(4.16667,0,0,4.16667,1849.45,1601.56)">
            <path d="M0,-24.248L-9.866,-10.041L-35.52,4.463L-40.651,2.884L-41.172,1.722L-42.686,-1.657L-43.17,-2.739L-41.441,-10.929L-39.32,-12.329L-36.791,-13.998L-36.977,-12.655L-34.929,-14.283L-36.977,-6.069L-32.609,-9.548L-31.875,-13.913L-23.993,-22.441L-11.044,-28.711L-1.974,-27.406L0,-24.248Z" style="fill:rgb(73,75,114);fill-rule:nonzero;"/>
        </g>
        <g transform="matrix(4.16667,0,0,4.16667,1677.9,1608.75)">
            <path d="M0,-0.004L-1.965,1.238L-1.998,1.259L-3.528,3.379L-4.364,2.442L-3.528,-2.344L-2.156,-3.051L-1.514,-3.383L0,-0.004Z" style="fill:rgb(174,145,128);fill-rule:nonzero;"/>
        </g>
        <g transform="matrix(-4.16667,0,0,4.16667,1671.59,1594.65)">
            <path d="M-0.002,0L0,0" style="fill:none;fill-rule:nonzero;stroke:rgb(29,29,27);stroke-width:0.22px;"/>
        </g>
        <g transform="matrix(4.16667,0,0,4.16667,1669.71,1606.9)">
            <path d="M0,1.683L-1.313,3.802L-3.581,5.161L-4.819,5.161L-4.871,3.824L-1.855,-3.478L-0.191,-2.606L-1.563,-1.899L-2.399,2.887L-1.563,3.824L-0.033,1.704L0,1.683Z" style="fill:rgb(248,187,34);fill-rule:nonzero;"/>
        </g>
        <g transform="matrix(4.16667,0,0,4.16667,1696.15,1304.82)">
            <path d="M0,3.393L-1.247,5.356L-2.335,5.595L-2.567,8.779L-8.491,14.763L-9.365,15.644L-13.072,15.644L-13.944,14.763L-19.868,8.779L-20.1,5.595L-21.19,5.356L-22.437,3.393L-22.169,0.842L-20.497,0.164L-20.702,-2.66L-14.651,-6.668L-11.549,-12.248L-11.219,-11.918L-10.886,-12.251L-7.786,-6.668L-1.735,-2.66L-1.94,0.164L-0.268,0.842L0,3.393Z" style="fill:rgb(206,171,152);fill-rule:nonzero;"/>
        </g>
        <g transform="matrix(4.16667,0,0,4.16667,1839.31,1352.69)">
            <path d="M0,-0.99L-3.848,9.147L-6.363,4.929L-13.467,5.226L-19.15,19.286L-26.525,23.635L-27.936,21.61L-31.073,17.098L-32.494,15.055L-41.291,10.541L-40.942,9.849L-42.236,9.147L-43.769,10.686L-42.848,3.274L-36.924,-2.71L-36.691,-5.894L-35.604,-6.133L-34.356,-8.096L-34.624,-10.647L-36.297,-11.325L-36.092,-14.149L-42.143,-18.157L-45.243,-23.74L-44.357,-24.625L-33.903,-20.113L-31.396,-18.603L-29.44,-14.586L-30.368,-6.793L-37.148,2.784L-37.148,6.981L-33.224,10.905L-29.006,6.687L-21.313,-3.949L-21.313,1.526L-7.4,-5.404L0,-0.99Z" style="fill:rgb(29,29,27);fill-rule:nonzero;"/>
        </g>
        <g transform="matrix(4.16667,0,0,4.16667,1669.11,1249.22)">
            <path d="M0,-0.008L-0.481,0.473L-2.384,2.375L-4.729,4.72L-5.364,4.084L-5.364,4.08L-7.073,2.375L-8.971,0.473L-9.452,-0.008L-4.733,-4.728L0,-0.008Z" style="fill:rgb(248,187,34);fill-rule:nonzero;"/>
        </g>
        <g transform="matrix(-4.16667,0,0,4.16667,1421.11,1591.31)">
            <path d="M-109.583,6.199L0,6.199L-2.122,0L-107.474,0L-109.583,6.199Z" style="fill:rgb(175,31,37);fill-rule:nonzero;"/>
        </g>
        <g transform="matrix(-1.34856,-3.9424,-3.9424,1.34856,1448.57,1605.42)">
            <path d="M-7.835,-1.479L-3.479,-1.479L-1.513,4.267L-4.957,6.935L-7.835,-1.479Z" style="fill:rgb(248,187,34);fill-rule:nonzero;"/>
        </g>
        <g transform="matrix(-1.34845,-3.94244,-3.94244,1.34845,1493.4,1622.08)">
            <path d="M-4.225,-0.798L-1.876,-0.798L-0.816,2.301L-2.673,3.739L-4.225,-0.798Z" style="fill:rgb(59,17,19);fill-rule:nonzero;"/>
        </g>
        <g transform="matrix(-1.33689,3.94637,3.94637,1.33689,1597.08,1794.78)">
            <path d="M-58.247,39.066L-55.396,39.066L-28.306,-40.9L-30.571,-42.633L-58.247,39.066Z" style="fill:rgb(59,17,19);fill-rule:nonzero;"/>
        </g>
        <g transform="matrix(1.34856,-3.9424,-3.9424,-1.34856,1854.52,1646.04)">
            <path d="M1.057,5.601L5.413,5.601L7.378,-0.144L3.935,-2.813L1.057,5.601Z" style="fill:rgb(248,187,34);fill-rule:nonzero;"/>
        </g>
        <g transform="matrix(1.35004,-3.94189,-3.94189,-1.35004,1807.72,1643.98)">
            <path d="M0.57,3.019L2.918,3.019L3.979,-0.077L2.123,-1.517L0.57,3.019Z" style="fill:rgb(59,17,19);fill-rule:nonzero;"/>
        </g>
    </g>
</svg>
