<?xml version="1.0" encoding="UTF-8" standalone="no"?>
<!DOCTYPE svg PUBLIC "-//W3C//DTD SVG 1.1//EN" "http://www.w3.org/Graphics/SVG/1.1/DTD/svg11.dtd">
<svg width="100%" height="100%" viewBox="0 0 180 180" version="1.1" xmlns="http://www.w3.org/2000/svg" xmlns:xlink="http://www.w3.org/1999/xlink" xml:space="preserve" xmlns:serif="http://www.serif.com/" style="fill-rule:evenodd;clip-rule:evenodd;stroke-linejoin:round;stroke-miterlimit:2;">
    <g transform="matrix(1.27,0,0,1.27,-92.88,-135.24)">
        <g id="_59--wide" serif:id="59&quot; wide">
            <g id="microvan-inbound">
                <g transform="matrix(1,0,0,1,199.287,149.788)">
                    <path d="M0,20.368L4.711,13.606L9.81,13.385L8.896,0L-1.164,0.166L0.083,13.052L-2.327,16.874L0,20.368Z" style="fill:rgb(42,43,41);fill-rule:nonzero;"/>
                </g>
                <g transform="matrix(1,0,0,1,88.7131,149.788)">
                    <path d="M0,20.368L-4.711,13.606L-9.81,13.385L-8.896,0L1.164,0.166L-0.083,13.052L2.327,16.874L0,20.368Z" style="fill:rgb(42,43,41);fill-rule:nonzero;"/>
                </g>
                <g transform="matrix(0.999995,-0.00305016,-0.00305016,-0.999995,90.6593,248.239)">
                    <path d="M-0.03,0.024L13.084,0.024L17.139,19.78L-1.653,19.628L-0.03,0.024Z" style="fill:rgb(92,94,95);fill-rule:nonzero;"/>
                </g>
                <g transform="matrix(1,0,0,1,102.984,247.755)">
                    <path d="M0,-19.348L0.842,0L6.839,-19.348L0,-19.348Z" style="fill:rgb(42,43,41);fill-rule:nonzero;"/>
                </g>
                <g transform="matrix(-0.999995,-0.00305039,-0.00305039,0.999995,181.035,228.3)">
                    <path d="M-15.455,19.785L-2.342,19.785L1.713,0.029L-17.078,0.181L-15.455,19.785Z" style="fill:rgb(92,94,95);fill-rule:nonzero;"/>
                </g>
                <g transform="matrix(1,0,0,1,184.075,247.672)">
                    <path d="M0,-19.348L-0.842,0L-6.839,-19.348L0,-19.348Z" style="fill:rgb(42,43,41);fill-rule:nonzero;"/>
                </g>
                <g transform="matrix(1,0,0,1,102.95,228.683)">
                    <path d="M0,-109.651L-14.13,-62.158L-18.362,-48.437L-18.583,-14.257L-15.15,-0.042L96.367,0L99.579,-14.368L99.77,-48.2L95.459,-63.712L80.179,-109.651L0,-109.651Z" style="fill:rgb(252,209,87);fill-rule:nonzero;"/>
                </g>
                <g transform="matrix(-0.274198,0.961673,0.961673,0.274198,170.929,115.01)">
                    <path d="M35.611,-59.916L69.98,-59.916L42.716,35.962L13.724,16.543L35.611,-59.916Z" style="fill:rgb(49,49,86);fill-rule:nonzero;"/>
                </g>
                <g transform="matrix(-0.412727,-0.910855,-0.910855,0.412727,137.135,202.814)">
                    <path d="M-34.926,-15.083L-26.87,-15.083L-11.212,19.238L-16.444,25.563L-34.926,-15.083Z" style="fill:rgb(42,43,41);fill-rule:nonzero;"/>
                </g>
                <g transform="matrix(0.320559,0.947229,0.947229,-0.320559,103.627,189.341)">
                    <path d="M-7.485,4.434L-1.186,4.434L-6.809,-12.29L-12.513,-10.424L-7.485,4.434Z" style="fill:rgb(239,156,116);fill-rule:nonzero;"/>
                </g>
                <g transform="matrix(-1,0,0,1,714.113,-344.998)">
                    <rect x="515.91" y="533.864" width="108.349" height="20.119" style="fill:rgb(42,43,41);"/>
                </g>
                <g transform="matrix(0,-1,-1,0,99.8852,192.235)">
                    <path d="M-6.554,-6.554C-10.172,-6.554 -13.109,-3.618 -13.109,0C-13.109,3.621 -10.172,6.554 -6.554,6.554C-2.933,6.554 0.001,3.621 0.001,0C0.001,-3.618 -2.933,-6.554 -6.554,-6.554" style="fill:rgb(244,242,237);fill-rule:nonzero;"/>
                </g>
                <g transform="matrix(-0.320559,0.947229,0.947229,0.320559,194.521,178.32)">
                    <path d="M6.181,-10.435L12.48,-10.435L6.857,6.289L1.153,4.423L6.181,-10.435Z" style="fill:rgb(239,156,116);fill-rule:nonzero;"/>
                </g>
                <g transform="matrix(0,1,1,0,188.197,192.235)">
                    <path d="M6.554,-6.554C10.172,-6.554 13.109,-3.618 13.109,0C13.109,3.621 10.172,6.554 6.554,6.554C2.933,6.554 -0.001,3.621 -0.001,0C-0.001,-3.618 2.933,-6.554 6.554,-6.554" style="fill:rgb(244,242,237);fill-rule:nonzero;"/>
                </g>
                <g transform="matrix(1,0,0,1,-426.056,-883.151)">
                    <g opacity="0.3">
                        <g transform="matrix(1,0,0,1,529.571,1039.44)">
                            <path d="M0,-23.44L-6.605,0.031L16.834,-23.471L0,-23.44Z" style="fill:rgb(15,35,66);fill-rule:nonzero;"/>
                        </g>
                    </g>
                </g>
                <g transform="matrix(1,0,0,1,-426.056,-883.151)">
                    <g opacity="0.3">
                        <g transform="matrix(-0.999898,-0.0142622,-0.0142622,0.999898,582.036,1048.61)">
                            <path d="M-26.628,-33.016L-20.808,-33.016L10.436,0.384L-37.769,-0.262L-26.628,-33.016Z" style="fill:rgb(10,23,35);fill-rule:nonzero;"/>
                        </g>
                    </g>
                </g>
                <g transform="matrix(0.702222,-0.711958,-0.711958,-0.702222,163.307,170.247)">
                    <path d="M-7.759,14.36L38.464,14.36L34.319,18.566L-11.859,18.58L-7.759,14.36Z" style="fill:rgb(73,74,114);fill-rule:nonzero;"/>
                </g>
            </g>
        </g>
    </g>
</svg>
