<?xml version="1.0" encoding="UTF-8" standalone="no"?>
<!DOCTYPE svg PUBLIC "-//W3C//DTD SVG 1.1//EN" "http://www.w3.org/Graphics/SVG/1.1/DTD/svg11.dtd">
<svg width="100%" height="100%" viewBox="0 0 180 180" version="1.1" xmlns="http://www.w3.org/2000/svg" xmlns:xlink="http://www.w3.org/1999/xlink" xml:space="preserve" xmlns:serif="http://www.serif.com/" style="fill-rule:evenodd;clip-rule:evenodd;stroke-linejoin:round;stroke-miterlimit:2;">
    <g id="_59--wide" serif:id="59&quot; wide" transform="matrix(1.27,0,0,1.27,-92.88,-277.2)">
        <g id="microvan-outbound">
            <g transform="matrix(1,0,0,1,199.446,261.572)">
                <path d="M0,20.368L4.711,13.606L9.81,13.385L8.896,0L-1.164,0.166L0.083,13.052L-2.327,16.874L0,20.368Z" style="fill:rgb(42,43,41);fill-rule:nonzero;"/>
            </g>
            <g transform="matrix(1,0,0,1,88.5537,261.572)">
                <path d="M0,20.368L-4.711,13.606L-9.81,13.385L-8.896,0L1.164,0.166L-0.083,13.052L2.327,16.874L0,20.368Z" style="fill:rgb(42,43,41);fill-rule:nonzero;"/>
            </g>
            <g transform="matrix(0.999995,-0.00305039,-0.00305039,-0.999995,90.5009,360.023)">
                <path d="M-0.03,0.024L13.083,0.024L17.138,19.78L-1.653,19.628L-0.03,0.024Z" style="fill:rgb(92,94,95);fill-rule:nonzero;"/>
            </g>
            <g transform="matrix(1,0,0,1,102.825,359.539)">
                <path d="M0,-19.348L0.842,0L6.839,-19.348L0,-19.348Z" style="fill:rgb(42,43,41);fill-rule:nonzero;"/>
            </g>
            <g transform="matrix(-0.999995,-0.00305039,-0.00305039,0.999995,181.194,340.085)">
                <path d="M-15.455,19.785L-2.342,19.785L1.713,0.029L-17.078,0.181L-15.455,19.785Z" style="fill:rgb(92,94,95);fill-rule:nonzero;"/>
            </g>
            <g transform="matrix(1,0,0,1,184.234,359.456)">
                <path d="M0,-19.348L-0.842,0L-6.839,-19.348L0,-19.348Z" style="fill:rgb(42,43,41);fill-rule:nonzero;"/>
            </g>
            <g transform="matrix(1,0,0,1,102.791,340.467)">
                <path d="M0,-109.651L-14.13,-62.158L-18.362,-48.437L-18.584,-14.257L-15.15,-0.042L96.686,0L99.897,-14.368L100.088,-48.2L95.777,-63.712L80.497,-109.651L0,-109.651Z" style="fill:rgb(252,209,87);fill-rule:nonzero;"/>
            </g>
            <g transform="matrix(-0.274225,0.961665,0.961665,0.274225,169.901,229.92)">
                <path d="M31.472,-56.791L65.842,-56.791L40.356,32.839L11.365,13.42L31.472,-56.791Z" style="fill:rgb(49,49,86);fill-rule:nonzero;"/>
            </g>
            <g transform="matrix(-0.412727,-0.910855,-0.910855,0.412727,123.792,284.424)">
                <path d="M-82.307,-45.632L-74.251,-45.632L-30.908,49.785L-36.141,56.112L-82.307,-45.632Z" style="fill:rgb(42,43,41);fill-rule:nonzero;"/>
            </g>
            <g transform="matrix(1,0,0,1,-594.191,-770.701)">
                <g opacity="0.3">
                    <g transform="matrix(1,0,0,1,700.819,1038.77)">
                        <path d="M0,-23.44L-6.604,0.031L16.834,-23.471L0,-23.44Z" style="fill:rgb(15,35,66);fill-rule:nonzero;"/>
                    </g>
                </g>
            </g>
            <g transform="matrix(1,0,0,1,-594.191,-770.701)">
                <g opacity="0.3">
                    <g transform="matrix(-0.9992,-0.0399873,-0.0399873,0.9992,750.085,1047.66)">
                        <path d="M-22.452,-33.275L-20.377,-33.275L9.997,0.918L-34.433,-0.819L-22.452,-33.275Z" style="fill:rgb(10,23,35);fill-rule:nonzero;"/>
                    </g>
                </g>
            </g>
            <g transform="matrix(0.702241,-0.71194,-0.71194,-0.702241,162.763,282.266)">
                <path d="M-7.799,14.458L38.699,14.458L34.553,18.662L-11.9,18.678L-7.799,14.458Z" style="fill:rgb(73,74,114);fill-rule:nonzero;"/>
            </g>
            <g transform="matrix(-0.999795,-0.0202462,-0.0202462,0.999795,81.1331,272.487)">
                <path d="M-5.792,-8.152L-0.359,-8.152L-0.083,0.058L-5.294,0.063L-5.792,-8.152Z" style="fill:rgb(244,242,237);fill-rule:nonzero;"/>
            </g>
            <g transform="matrix(0.999795,-0.0202462,-0.0202462,-0.999795,200.722,264.514)">
                <path d="M0.083,0.059L5.516,0.059L5.792,-8.151L0.581,-8.156L0.083,0.059Z" style="fill:rgb(244,242,237);fill-rule:nonzero;"/>
            </g>
            <g transform="matrix(0,-1,-1,0,90.5249,314.163)">
                <path d="M-3.165,-3.167C-4.914,-3.167 -6.332,-1.75 -6.332,-0.001C-6.332,1.747 -4.914,3.165 -3.165,3.165C-1.416,3.165 0.001,1.747 0.001,-0.001C0.001,-1.75 -1.416,-3.167 -3.165,-3.167" style="fill:rgb(244,242,237);fill-rule:nonzero;"/>
            </g>
            <g transform="matrix(0,-1,-1,0,90.5259,306.195)">
                <path d="M-3.167,-3.165C-4.915,-3.165 -6.332,-1.749 -6.332,0.001C-6.332,1.749 -4.915,3.167 -3.167,3.167C-1.417,3.167 0.001,1.749 0.001,0.001C0.001,-1.749 -1.417,-3.165 -3.167,-3.165" style="fill:rgb(114,14,26);fill-rule:nonzero;"/>
            </g>
            <g transform="matrix(0,-1,-1,0,90.5249,298.023)">
                <path d="M-3.165,-3.167C-4.914,-3.167 -6.332,-1.75 -6.332,-0.001C-6.332,1.747 -4.914,3.165 -3.165,3.165C-1.416,3.165 0.001,1.747 0.001,-0.001C0.001,-1.75 -1.416,-3.167 -3.165,-3.167" style="fill:rgb(239,156,116);fill-rule:nonzero;"/>
            </g>
            <g transform="matrix(0,-1,-1,0,196.478,314.163)">
                <path d="M-3.165,-3.167C-4.914,-3.167 -6.332,-1.75 -6.332,-0.001C-6.332,1.747 -4.914,3.165 -3.165,3.165C-1.416,3.165 0.001,1.747 0.001,-0.001C0.001,-1.75 -1.416,-3.167 -3.165,-3.167" style="fill:rgb(244,242,237);fill-rule:nonzero;"/>
            </g>
            <g transform="matrix(0,-1,-1,0,196.479,306.195)">
                <path d="M-3.167,-3.165C-4.915,-3.165 -6.332,-1.749 -6.332,0.001C-6.332,1.749 -4.915,3.167 -3.167,3.167C-1.417,3.167 0.001,1.749 0.001,0.001C0.001,-1.749 -1.417,-3.165 -3.167,-3.165" style="fill:rgb(114,14,26);fill-rule:nonzero;"/>
            </g>
            <g transform="matrix(0,-1,-1,0,196.478,298.023)">
                <path d="M-3.165,-3.167C-4.914,-3.167 -6.332,-1.75 -6.332,-0.001C-6.332,1.747 -4.914,3.165 -3.165,3.165C-1.416,3.165 0.001,1.747 0.001,-0.001C0.001,-1.75 -1.416,-3.167 -3.165,-3.167" style="fill:rgb(239,156,116);fill-rule:nonzero;"/>
            </g>
            <g transform="matrix(-0.0215569,0.999768,0.999768,0.0215569,148.521,282.991)">
                <path d="M21.707,-30.937L31.402,-30.937L30.273,21.452L20.583,21.244L21.707,-30.937Z" style="fill:rgb(244,242,237);fill-rule:nonzero;"/>
            </g>
        </g>
    </g>
</svg>
