<?xml version="1.0" encoding="UTF-8" standalone="no"?>
<!DOCTYPE svg PUBLIC "-//W3C//DTD SVG 1.1//EN" "http://www.w3.org/Graphics/SVG/1.1/DTD/svg11.dtd">
<svg width="100%" height="100%" viewBox="0 0 300 360" version="1.1" xmlns="http://www.w3.org/2000/svg" xmlns:xlink="http://www.w3.org/1999/xlink" xml:space="preserve" xmlns:serif="http://www.serif.com/" style="fill-rule:evenodd;clip-rule:evenodd;stroke-linejoin:round;stroke-miterlimit:2;">
    <g id="truck-inbound" transform="matrix(1.27,0,0,1.27,12.84,-5.76)">
        <g transform="matrix(1,0,0,1,-990.664,-575)">
            <path d="M1010.4,843.337L1012.1,863L1031.55,863L1035.56,843.126L1010.4,843.337Z" style="fill:rgb(91,93,94);fill-rule:nonzero;"/>
        </g>
        <g transform="matrix(1,0,0,1,-990.664,-575)">
            <path d="M1030.7,843.127L1031.55,862.577L1037.56,843.127L1030.7,843.127Z" style="fill:rgb(41,43,41);fill-rule:nonzero;"/>
        </g>
        <g transform="matrix(1,0,0,1,-990.664,-575)">
            <path d="M1167.26,862.79L1186.71,863.001L1188.4,843.549L1163.25,843.338L1167.26,862.79Z" style="fill:rgb(91,93,94);fill-rule:nonzero;"/>
        </g>
        <g transform="matrix(1,0,0,1,-990.664,-575)">
            <path d="M1161.16,843.337L1167.18,863L1168.03,843.337L1161.16,843.337Z" style="fill:rgb(41,43,41);fill-rule:nonzero;"/>
        </g>
        <g transform="matrix(1,0,0,1,-990.664,-575)">
            <path d="M1188.53,843.534L1010.32,843.534L1003.13,591.732L1193.17,591.79L1188.53,843.534Z" style="fill:rgb(193,190,187);fill-rule:nonzero;"/>
        </g>
        <g transform="matrix(1,0,0,1,-990.664,-575)">
            <path d="M1007.93,759.725L1005.22,664.968L1003.13,591.733L1193.17,591.79" style="fill:rgb(216,211,203);fill-rule:nonzero;"/>
        </g>
        <g transform="matrix(1,0,0,1,-990.664,-575)">
            <path d="M1188.53,843.534L1010.32,843.534L1006.71,752.209L1025.63,669.232L1168.17,669.79L1190.88,753.226L1188.53,843.534Z" style="fill:rgb(228,225,219);fill-rule:nonzero;"/>
        </g>
        <g transform="matrix(1,0,0,1,-990.664,-575)">
            <path d="M1032.95,798.273L1036.08,788.871L1017.39,788.835L1020.43,798.314L1032.95,798.273Z" style="fill:rgb(248,244,227);fill-rule:nonzero;"/>
        </g>
        <g transform="matrix(1,0,0,1,-990.664,-575)">
            <path d="M1033.31,812.531L1036.44,803.129L1017.75,803.093L1020.79,812.572L1033.31,812.531Z" style="fill:rgb(248,244,227);fill-rule:nonzero;"/>
        </g>
        <g transform="matrix(1,0,0,1,-990.664,-575)">
            <path d="M1023.72,768.916L1026.85,778.318L1008.15,778.354L1007.93,768.895L1023.72,768.916Z" style="fill:rgb(240,157,116);fill-rule:nonzero;"/>
        </g>
        <g transform="matrix(1,0,0,1,-990.664,-575)">
            <path d="M1144.29,817.465L1054.26,817.465L1051.76,755.455L1146.79,755.455L1144.29,817.465Z" style="fill:rgb(41,43,41);fill-rule:nonzero;"/>
        </g>
        <g transform="matrix(1,0,0,1,-990.664,-575)">
            <path d="M1177.45,798.273L1180.58,788.871L1161.89,788.835L1164.93,798.314L1177.45,798.273Z" style="fill:rgb(248,244,227);fill-rule:nonzero;"/>
        </g>
        <g transform="matrix(1,0,0,1,-990.664,-575)">
            <path d="M1177.81,812.531L1180.94,803.129L1162.25,803.093L1165.29,812.572L1177.81,812.531Z" style="fill:rgb(248,244,227);fill-rule:nonzero;"/>
        </g>
        <g transform="matrix(1,0,0,1,-990.664,-575)">
            <path d="M1190.46,768.812L1190.13,778.402L1171.44,778.437L1174.48,768.958L1190.46,768.812Z" style="fill:rgb(240,157,116);fill-rule:nonzero;"/>
        </g>
        <g transform="matrix(1,0,0,1,-990.664,-575)">
            <path d="M1188.53,843.534L1010.15,843.337L1009.49,822.466L1189.08,822.466L1188.53,843.534Z" style="fill:rgb(245,245,239);fill-rule:nonzero;"/>
        </g>
        <g transform="matrix(1,0,0,1,-990.664,-575)">
            <path d="M1170.95,680.004L1203.4,678.025L1203.61,685.847L1207.84,685.214L1207.82,671.953L1169.83,675.889L1170.95,680.004Z" style="fill:rgb(41,43,41);fill-rule:nonzero;"/>
        </g>
        <g transform="matrix(1,0,0,1,-990.664,-575)">
            <path d="M1211.02,684.578L1210.17,716.926L1195.16,719.041L1192.41,687.539L1211.02,684.578Z" style="fill:rgb(41,43,41);fill-rule:nonzero;"/>
        </g>
        <g transform="matrix(1,0,0,1,-990.664,-575)">
            <g opacity="0.3">
                <path d="M1211.02,684.685L1210.8,692.19L1192.83,692.295L1192.41,687.539L1211.02,684.685Z" style="fill:rgb(91,93,94);fill-rule:nonzero;"/>
            </g>
        </g>
        <g transform="matrix(1,0,0,1,-990.664,-575)">
            <path d="M1023.23,679.781L993.925,677.779L993.713,685.6L989.486,684.968L989.507,671.707L1024.25,675.294L1023.23,679.781Z" style="fill:rgb(41,43,41);fill-rule:nonzero;"/>
        </g>
        <g transform="matrix(1,0,0,1,-990.664,-575)">
            <path d="M986.564,684.332L987.41,716.68L1002.42,718.795L1005.17,687.293L986.564,684.332Z" style="fill:rgb(41,43,41);fill-rule:nonzero;"/>
        </g>
        <g transform="matrix(1,0,0,1,-990.664,-575)">
            <g opacity="0.3">
                <path d="M986.314,684.439L986.526,691.944L1004.5,692.049L1004.92,687.293L986.314,684.439Z" style="fill:rgb(91,93,94);fill-rule:nonzero;"/>
            </g>
        </g>
        <g transform="matrix(1,0,0,1,-990.664,-575)">
            <path d="M1136.49,770.365L1135.01,773.406L1063.1,773.449L1061.09,770.146L1136.49,770.365Z" style="fill:rgb(92,95,96);fill-rule:nonzero;"/>
        </g>
        <g transform="matrix(1,0,0,1,-990.664,-575)">
            <path d="M1136.49,785.365L1135.01,788.406L1063.1,788.449L1061.09,785.146L1136.49,785.365Z" style="fill:rgb(92,95,96);fill-rule:nonzero;"/>
        </g>
        <g transform="matrix(1,0,0,1,-990.664,-575)">
            <path d="M1136.49,800.365L1135.01,803.406L1063.1,803.449L1061.09,800.146L1136.49,800.365Z" style="fill:rgb(92,95,96);fill-rule:nonzero;"/>
        </g>
        <g transform="matrix(1,0,0,1,-990.664,-575)">
            <path d="M1018.13,740.79L1178.17,740.79L1161.89,678.983L1033.38,678.748L1018.13,740.79Z" style="fill:rgb(49,50,86);fill-rule:nonzero;"/>
        </g>
        <g transform="matrix(1,0,0,1,-990.664,-575)">
            <path d="M1018.13,740.789L1178.17,740.789L1161.89,678.983L1033.38,678.749L1018.13,740.789Z" style="fill:none;"/>
            <clipPath id="_clip1">
                <path d="M1018.13,740.789L1178.17,740.789L1161.89,678.983L1033.38,678.749L1018.13,740.789Z"/>
            </clipPath>
            <g clip-path="url(#_clip1)">
                <g opacity="0.3">
                    <path d="M1117.64,645.312L949.09,814.965L1011.28,645.316L1117.64,645.312Z" style="fill:rgb(12,24,37);fill-rule:nonzero;"/>
                </g>
                <g opacity="0.3">
                    <path d="M1190.88,769.298L1164.32,656.277L1064.32,751.764L1063.07,758.315L1190.88,769.298Z" style="fill:rgb(12,24,37);fill-rule:nonzero;"/>
                </g>
            </g>
        </g>
        <g transform="matrix(1,0,0,1,-990.664,-575)">
            <path d="M1074.35,740.79L1080.52,740.79L1142.14,678.947L1136.12,678.935L1074.35,740.79Z" style="fill:rgb(73,75,114);fill-rule:nonzero;"/>
        </g>
    </g>
</svg>
