<svg viewBox="0 0 360 300" xmlns="http://www.w3.org/2000/svg" fill-rule="evenodd" clip-rule="evenodd" stroke-linejoin="round" stroke-miterlimit="1.414"><path d="M312.015 224.5l1.368 9.972-9.72-.25-.749-10.714 9.101.991zM296.253 237.9l-2 13.148 1.123 3.181h7.664l1.963-14.49-8.75-1.839z" fill="#2a2b2a" fill-rule="nonzero"/><path d="M291.45 71.197l4.113-2.743 2.992-8.472 6.904 1.965 2.193 5.383 4.736 2.37-10.312 16.64-10.627-15.143z" fill="#ceab97" fill-rule="nonzero"/><path d="M298.407 66.018h6.221l6.702-8.613-1.198-18.425-11.952-1.997-7.425 2.954.238 17.468 7.414 8.613z" fill="#e1c5b5" fill-rule="nonzero"/><path d="M294.565 37.295l.625-2.492 20.056 1.94 1.67 14.26-6.21.378-4.86-9.914-9.036-1.308-2.245-2.864z" fill="#543e36" fill-rule="nonzero"/><path d="M310.582 46.594l4.098.07.323 7.135-4.18-.218-.241-6.987z" fill="#e1c5b5" fill-rule="nonzero"/><path d="M296.87 40.162l-5.048 2.057-.932 8.974-7.338.934.845-11.82 10.887-5.443 1.587 5.298z" fill="#543e36" fill-rule="nonzero"/><path d="M291.294 47.567l-4.134 1.125.324 5.983 3.655.141.155-7.25z" fill="#e1c5b5" fill-rule="nonzero"/><path d="M318.782 126.539l-6.767 97.962h-7.852l-1.743-83.258 4.055 38.409-1.564 60.18-8.598-1.869-4.49-57.956-5.855-52.723 32.814-.745z" fill="#f4f2ed" fill-rule="nonzero"/><path d="M303.208 141.097l3.948 41.525-1.86 41.89 7.717-14.618 3.738-55.434-13.543-13.363z" fill="#e4e2dc" fill-rule="nonzero"/><path d="M275.361 120.673l-3.41 8.373.653 11.601 3.853-1.48.787-9.793-.32 2.952 3.483.155-1.265-8.054-3.78-3.754zM327.769 121.075l2.579 6.5-.227 10.709-4.21-.553-.852-9.788.337 2.947-3.621.501 1.215-8.121 4.779-2.195z" fill="#e1c5b5" fill-rule="nonzero"/><path d="M312.577 69.514l9.034 3.925 6.472 48.86-5.232.87-5.974-43 1.993 46.365-32.902.75 2.74-43.126-9.471 40.383-4.802-2.118 8.54-46.24 8.474-5.175 12.152 12.339 8.976-13.833z" fill="#5c5e5f" fill-rule="nonzero"/><g><path d="M7.069 144.682c0 61.419 49.788 111.209 111.209 111.209 61.419 0 111.21-49.79 111.21-111.21 0-61.418-49.791-111.208-111.21-111.208-61.421 0-111.21 49.79-111.21 111.209z" fill="#fff" fill-opacity=".3"/></g><g transform="translate(5.706 -238.374) scale(2.24665)"><clipPath id="a"><path d="M.322 170.501c0 27.337 22.162 49.5 49.5 49.5 27.339 0 49.5-22.163 49.5-49.5 0-27.338-22.161-49.5-49.5-49.5-27.338 0-49.5 22.162-49.5 49.5z"/></clipPath><g clip-path="url(#a)" fill-rule="nonzero"><path d="M80.533 148.498L69.581 307.076H56.868l-2.822-134.773 6.567 62.169-2.532 97.419-13.921-3.028-7.266-93.813-9.479-85.346 53.118-1.206z" fill="#f4f2ed"/><path d="M55.325 172.066l6.39 67.22-3.011 67.808 12.493-23.665 6.052-89.731-21.924-21.632z" fill="#e4e2dc"/><path d="M10.245 139.003l-5.52 13.551 1.059 18.779 6.237-2.392 1.271-15.855-.514 4.78 5.636.248-2.048-13.037-6.121-6.074zM95.083 139.654l4.174 10.521-.366 17.339-6.816-.897-1.382-15.849.546 4.776-5.86.809 1.967-13.144 7.737-3.555z" fill="#e1c5b5"/><path d="M70.49 56.19l14.625 6.355 10.477 79.088-8.473 1.411-9.668-69.607 3.227 75.055-53.263 1.212 4.437-69.807-15.331 65.365-7.771-3.427 13.821-74.852 13.719-8.375 19.67 19.976L70.49 56.19z" fill="#5c5e5f"/></g></g></svg>