<svg viewBox="0 0 288 264" xmlns="http://www.w3.org/2000/svg" fill-rule="evenodd" clip-rule="evenodd" stroke-linejoin="round" stroke-miterlimit="1.414"><path d="M240.217 66.83l21.373-1.11.21 7.82 4.228-.634-.02-13.258-26.002 2.745.21 4.436z" fill="#2a2b2a" fill-rule="nonzero"/><path d="M269.2 72.272l-.846 32.34-15.008 2.118-2.748-31.497 18.602-2.96z" fill="#2a2b2a" fill-rule="nonzero"/><path d="M251.02 79.987l-.422-4.753 18.6-2.854-.21 7.5" fill="#5c5e5f" fill-rule="nonzero"/><path d="M47.683 66.83L26.31 65.72l-.21 7.82-4.228-.634.02-13.258 26.002 2.745-.21 4.436z" fill="#2a2b2a" fill-rule="nonzero"/><path d="M18.7 72.272l.846 32.34 15.008 2.118 2.75-31.497-18.604-2.96z" fill="#2a2b2a" fill-rule="nonzero"/><path d="M49.438 263.942h19.45l4.014-19.66-25.155.213 1.69 19.447z" fill="#5c5e5f" fill-rule="nonzero"/><path d="M68.042 244.07l.846 19.872 6.018-19.873h-6.864z" fill="#2a2b2a" fill-rule="nonzero"/><path d="M236.447 263.942H217l-4.017-19.656 25.155.21-1.69 19.446z" fill="#5c5e5f" fill-rule="nonzero"/><path d="M217.844 244.287L217 263.73l-6.02-19.443h6.864z" fill="#2a2b2a" fill-rule="nonzero"/><path d="M47.618 244.48h190.68l7.187-185.597-202.51 1.688 4.643 183.91z" fill="#e4e2dc" fill-rule="nonzero"/><path d="M68.612 24.3L42.808 40.365v21.143l202.466-.093.46-21.052L227.78 24.3H68.61z" fill="#e4e2dc" fill-rule="nonzero"/><path d="M63.31 35.938l.043 24.674 164.098-.365-.32-24.08-163.82-.23z" fill="#2a2b2a" fill-rule="nonzero"/><path d="M48.54 68.938l1.903 100.814 185.996-.414 3.594-99.346L48.54 68.938z" fill="#313156" fill-rule="nonzero"/><g opacity=".3"><clipPath id="a"><path d="M120.23 70.305h115.93v99.27H120.23z"/></clipPath><g clip-path="url(#a)"><path d="M236.16 169.17l-11.033-98.867-104.897 99.272 115.93-.405z" fill="#0a1723" fill-rule="nonzero"/></g></g><g opacity=".3"><clipPath id="b"><path d="M48.54 68.94h72.127v71.127H48.54z"/></clipPath><g clip-path="url(#b)"><path d="M48.54 68.938l1.387 71.13 70.74-70.677-72.128-.452z" fill="#0a1723" fill-rule="nonzero"/></g></g><path d="M68.35 41.167l.027 8.27 8.138.105.028 6.87 3.037-.028v-15.19h-3.143l-.026 5.286h-5.127v-5.287l-2.934-.026z" fill="#ef9c74" fill-rule="nonzero"/><path d="M126.103 169.605l99.55-99.696h-5.98L120 169.583l6.103.02z" fill="#494a72" fill-rule="nonzero"/><path d="M142.6 169.753h4.862l.846-100.61-5.502-.005-.206 100.615z" fill="#dadad7" fill-rule="nonzero"/><path d="M210.22 229.24l3.125-9.402-18.69-.033 3.044 9.476 12.52-.04z" fill="#f6f1e1" fill-rule="nonzero"/><path d="M192.133 219.844l3.126 9.405-18.69.03 3.044-9.476 12.52.04z" fill="#c1bebb" fill-rule="nonzero"/><path d="M239.17 219.66l-.328 9.588-18.69.03 3.042-9.473 15.975-.146z" fill="#ef9c74" fill-rule="nonzero"/><path d="M50.442 169.753l185.888 21.264-.17-21.846-185.718.583zM244.028 66.673l1.705-26.31L227.778 24.3l16.25 42.373zM42.808 40.365l-.094 24.532L68.612 24.3 42.808 40.365z" fill="#f4f2ed" fill-rule="nonzero"/><g opacity=".4"><clipPath id="c"><path d="M46.71 211.813h191.767v32.64H46.71z"/></clipPath><g clip-path="url(#c)"><path d="M47.67 244.453l-.96-32.64 191.768 26.127-.15 6.513H47.67z" fill="#5c5e5f" fill-rule="nonzero"/></g></g><path d="M105.234 219.844l3.126 9.405-18.687.03 3.04-9.476 12.52.04z" fill="#c1bebb" fill-rule="nonzero"/><path d="M87.15 229.24l3.126-9.402-18.69-.033 3.044 9.476 12.52-.04z" fill="#f6f1e1" fill-rule="nonzero"/><path d="M62.653 219.677l3.127 9.405-18.514.088-.4-9.512 15.787.02z" fill="#ef9c74" fill-rule="nonzero"/><path d="M37.07 79.987l.42-4.753-18.6-2.854.21 7.5" fill="#5c5e5f" fill-rule="nonzero"/><path d="M46.968 219.696l.26 9.436 18.477-.12-18.737-9.316zM239.19 219.696l-.26 9.436-18.478-.12 18.737-9.316z" fill="#c16a48" fill-rule="nonzero"/><path d="M197.992 229.354l6.81-7.105 8.544-2.412-3.126 9.4-12.228.116zM86.783 229.354l-6.81-7.105-8.545-2.412 3.126 9.4 12.23.116z" fill="#ead8a4" fill-rule="nonzero"/><g opacity=".4"><clipPath id="d"><path d="M95.013 36.17H227.45v24.076H95.013z"/></clipPath><g clip-path="url(#d)"><path d="M95.013 36.28l132.117-.11.32 24.076L95.013 36.28z" fill="#5c5e5f" fill-rule="nonzero"/></g></g></svg>