<svg viewBox="0 160 288 260" xmlns="http://www.w3.org/2000/svg" fill-rule="evenodd" clip-rule="evenodd" stroke-linejoin="round" stroke-miterlimit="1.414"><path d="M84.375 277.354l-13.485-2.42s-4.46-4.995-2.764-7.19c1.696-2.195 12.812-3.38 15.073-2.628 2.258.752 1.242 6.637 1.242 6.637l2.228 2.156-2.295 3.444zM203.914 277.354l13.485-2.42s4.46-4.995 2.763-7.19c-1.696-2.195-12.812-3.38-15.073-2.628-2.26.752-1.243 6.637-1.243 6.637l-2.228 2.156 2.294 3.444z" fill="#E4E2DC" fill-rule="nonzero"/><path d="M84.375 277.354l2.295-3.445-2.228-2.157-13.552 3.18 13.485 2.42zM203.556 272.03l13.552 3.18-13.214 2.445-2.42-3.593 2.082-2.032z" fill="#C1BEBB" fill-rule="nonzero"/><path d="M95.908 340.286l-6.122 19.437s9.255.106 10.637-4.575c.802-2.71 2.23-14.862 2.23-14.862h-6.745z" fill="#2A2B2A" fill-rule="nonzero"/><path d="M77.655 357.702c2.237 2.664 17.13 3.09 19.083-.04 1.377-2.207 1.132-17.375 1.132-17.375l-21.875-4.904s-.578 19.655 1.66 22.32" fill="#5C5E5F" fill-rule="nonzero"/><path d="M190.433 340.46l6.122 19.437s-9.255.106-10.637-4.575c-.802-2.71-2.23-14.862-2.23-14.862h6.745z" fill="#2A2B2A" fill-rule="nonzero"/><path d="M208.687 357.876c-2.238 2.664-17.13 3.09-19.084-.04-1.377-2.208-1.132-17.375-1.132-17.375l21.876-4.903s.578 19.655-1.66 22.32" fill="#5C5E5F" fill-rule="nonzero"/><path d="M102.19 241.803c-3.016 1.857-28.88 55.88-28.88 55.88s2.28 38.892 2.492 40.173c.388 2.34 1.805 3.13 4.32 3.3 22.376 1.503 96.92 1.15 123.434.21 3.966-.138 6.036-1.633 6.85-4.026.507-1.492 3.672-40.11 3.672-40.11s-25.253-53.598-28.053-55.477c-2.802-1.88-80.818-1.807-83.835.05" fill="#E4E2DC" fill-rule="nonzero"/><path d="M104.938 244.98L89.308 275h107.926l-13.67-30.02h-78.626z" fill="#313156" fill-rule="nonzero"/><path d="M104.973 244.98L89.31 275h27.973l29.913-30.02h-42.223z" fill="#0F2342" fill-rule="nonzero" opacity=".3"/><path d="M183.605 244.98h-3.656L149.73 275h47.504l-13.63-30.02z" fill="#0A1723" fill-rule="nonzero" opacity=".3"/><path d="M150.27 275l29.677-30.02h-8.287L142.545 275h7.726z" fill="#494A72" fill-rule="nonzero"/><path d="M73.33 297.5l.867 14.5 28.12-.027 1.05-14.51-30.037.038z" fill="#F6F1E1" fill-rule="nonzero"/><path d="M103.368 297.462l7.57 12.83-8.622 1.68 1.052-14.51z" fill="#EF9C74" fill-rule="nonzero"/><path d="M214.13 297.5l-1.263 14.46-27.344.013-1.052-14.51 29.66.038z" fill="#F6F1E1" fill-rule="nonzero"/><path d="M184.47 297.462l-5.817 12.83 6.87 1.68-1.052-14.51z" fill="#EF9C74" fill-rule="nonzero"/><path d="M184.438 297.502l-81.06-.043 7.604 12.83h67.715l5.74-12.788z" fill="#2A2B2A" fill-rule="nonzero"/><path d="M178.768 301.575l-1.926 3.936-64.038.056-2.592-4.272 68.556.28z" fill="#5C5E5F" fill-rule="nonzero"/></svg>