<svg viewBox="0 0 288 744" xmlns="http://www.w3.org/2000/svg" fill-rule="evenodd" clip-rule="evenodd" stroke-linejoin="round" stroke-miterlimit="1.414"><g id="lamp.-modern.-left"><g id="lamp" fill-rule="nonzero"><path d="M150.83 38.95l-96.163 1.963L15.164 74.5-.834 744h32.66L28.32 81.166 60.067 49.5 288 46.022l-21.496-21.184L150.83 38.95z" fill="#e5e2dc"/><path d="M279.136 46.167L267.27 58.014l-33.284.55-11.88-11.83 57.03-.567z" fill="#f8f4e3"/><path d="M178.498 47.5l97.772-13L288 46.02 178.498 47.5zM-.837 744H31.83L5.335 490.082-.837 744zM29.25 260.916L15.17 74.5l44.75-25-31.595 31.687.928 179.73z" fill="#c2bfbc"/></g></g><path d="M34.478 744.083H-2.35L13.87 74.178h16.417l4.19 669.905zM17.776 78.178L1.75 740.083h28.703l-4.14-661.905h-8.537z" fill="#35813f" id="guidebook.-yep.-example.-trapezoid.-2"/></svg>