<svg viewBox="0 0 288 744" xmlns="http://www.w3.org/2000/svg" fill-rule="evenodd" clip-rule="evenodd" stroke-linejoin="round" stroke-miterlimit="1.414"><g id="guideboox.-nope.-example.-trapezoid.-2"><g id="lamp" fill-rule="nonzero"><path d="M150.83 38.95l-96.163 1.963L15.164 74.5 15.2 744h13.1l.02-662.834L60.067 49.5 288 46.022l-21.496-21.184L150.83 38.95z" fill="#e5e2dc"/><path d="M279.136 46.167L267.27 58.014l-33.284.55-11.88-11.83 57.03-.567z" fill="#f8f4e3"/><path d="M178.498 47.5l97.772-13L288 46.02 178.498 47.5zM15.2 744h13.1L15.2 490.082V744zM28.3 260.916L15.168 74.5l44.75-25-31.595 31.687-.023 179.73z" fill="#c2bfbc"/></g><path d="M31.018 745.116H13V72.5h18.018v672.616zM17 76.5v664.616h10.018V76.5H17z" fill="#ae2025"/></g></svg>