<svg xmlns="http://www.w3.org/2000/svg" xmlns:xlink="http://www.w3.org/1999/xlink" version="1.1" x="0px" y="0px" width="100px" height="100px" viewBox="0 0 100 100" enable-background="new 0 0 100 100" xml:space="preserve">
<g id="Captions">
</g>
<g id="Your_Icon">
	<path fill-rule="evenodd" clip-rule="evenodd" d="M45.978,6.055c0-3.369,2.682-6.054,5.969-6.054C55.32,0.001,58,2.686,58,6.055   c0,1.559-0.604,3.201-1.295,4.675c-0.346,0.689-0.52,1.385-0.52,2.159c0,2.337,1.643,5.364,4.068,5.796   c7.006,1.905,12.631,10.38,15.912,16.266c1.211,2.158,1.818,4.67,1.818,7.181v11.503c0,1.126-0.955,2.074-2.074,2.074   c-1.209,0-2.164-0.948-2.164-2.074v-7.612c0-3.375-1.385-6.575-3.807-8.913l-5.361-5.186c-0.262-0.174-0.52-0.348-0.867-0.348   c-0.605,0-1.123,0.432-1.209,1.037c-1.992,9.776-1.125,19.895,2.504,29.413l14.711,30.79c0.174,0.437,0.256,0.953,0.256,1.475   c0,1.469-0.861,2.68-2.338,3.2l-7.695,2.422c-0.605,0.174-1.301-0.348-1.301-0.953c0-0.347,0.174-0.689,0.439-0.863l3.111-2.248   c0.52-0.437,0.861-0.953,0.861-1.643c0-0.437-0.084-0.694-0.342-1.042L59.477,72.059c-1.734-2.68-2.945-5.448-3.725-8.564   L33.955,98.875c-0.433,0.689-1.125,1.126-1.903,1.126c-0.692,0-1.298-0.263-1.731-0.783l-6.4-7.266   c-0.173-0.174-0.26-0.432-0.26-0.689c0-0.521,0.433-0.953,1.039-0.953c0.086,0,0.259,0,0.346,0.089l3.288,1.207   c0.346,0.173,0.432,0.173,0.778,0.173c0.779,0,1.471-0.432,1.816-1.121l2.077-3.722l9.515-21.968   c3.806-9.086,4.412-19.031,1.903-28.465c-0.086-0.342-0.346-0.604-0.692-0.604c-0.259,0-0.432,0.173-0.605,0.347   c-5.363,6.749-12.716,10.729-21.28,11.419c-0.951,0-1.816-0.779-1.816-1.643c0-0.695,0.519-1.385,1.21-1.559   c9.256-2.68,16.35-10.034,18.685-19.378l0.692-2.158c0.259-1.042,1.211-1.731,2.336-1.731c2.854-0.085,5.363-1.905,5.968-4.844   c0.346-2.248,0.346-2.422,0.346-2.422c0-0.521-0.433-0.952-1.039-0.952c0,0-0.172,0-0.519,0.084h-0.259   c-0.779,0-1.471-0.689-1.471-1.469V6.055z"/>
</g>
</svg>