<svg width="92" height="102" viewBox="0 0 92 102" fill="none" xmlns="http://www.w3.org/2000/svg">
<path d="M8 66.2857L14.8824 96H52.7353L57 48L40.5 59.5L26.5 49.5L37.0588 29.5L11 38.5L8 66.2857Z" fill="#679A45"/>
<path d="M39 38.5691V81H45.0674L48.1011 26.5L55 25L66.5 17L45.0674 19.5L39 38.5691Z" fill="#679A45"/>
<path d="M50 57L53.5 95L58.5 94L57 53.5L74 29.5L91.5 17.5L66 29.5L50 57Z" fill="#F6F1E1"/>
<path d="M31 35V95H37L40 21.5L73.5 9.5L75.5 4.5L40 7L31 35Z" fill="#89BA6A"/>
<path d="M0 38V98H6L9 20L27.5 6.5L31.5 0L6 14.5L0 38Z" fill="#E0CEA8"/>
<path d="M35 39.5L39.5 95H49.5L40.5 38.5L54.5 14L89.5 2.5L46 12.5L35 39.5Z" fill="#E0CEA8"/>
<path d="M4 41.5V97H10L13.5 38L32.5 18.5L48 16.5H26L4 41.5Z" fill="#89BA6A"/>
<path d="M4 75V94.5H11L8.5 78.5L22 47.5L39.5 33.5L18 46L4 75Z" fill="#F6F1E1"/>
<path d="M7 74L9.95783 102L14.8976 101.29L13.4157 72.5484L23.5 61L35 54.5L16 60L7 74Z" fill="#E0CEA8"/>
</svg>
