<svg width="47" height="66" viewBox="0 0 47 66" fill="none" xmlns="http://www.w3.org/2000/svg">
<path d="M6 21.5691V64H12.0674L15.1011 9.5L22 8L33.5 0L12.0674 2.5L6 21.5691Z" fill="#679A45"/>
<path d="M3 16L0 64H6.06897L11 14.5L24.5 2.5L15 5.5L3 16Z" fill="#89BA6A"/>
<path d="M18 25.7019V65H24L27.5 23.2236L34.5 17L46.5 13L30.5 14.5L18 25.7019Z" fill="#89BA6A"/>
<path d="M12 20V65H22L16 24.5L27 12.5L42.5 5L22 11L12 20Z" fill="#F6F1E1"/>
<path d="M6.5 38L9.45783 66L14.3976 65.2903L12.9157 36.5484L23 25L34.5 18.5L15.5 24L6.5 38Z" fill="#F6F1E1"/>
</svg>
