<svg width="62" height="101" viewBox="0 0 62 101" fill="none" xmlns="http://www.w3.org/2000/svg">
<path d="M6 37.5V97.5H12L15 24L48.5 12L50.5 7L15 9.5L6 37.5Z" fill="#E0CEA8"/>
<path d="M1.5 26L0 97.5H6L10.5 23.5L43.5 0L26 4L1.5 26Z" fill="#89BA6A"/>
<path d="M18 43V98.5H24L27.5 39.5L46.5 20L62 18H40L18 43Z" fill="#89BA6A"/>
<path d="M11.5 39.5V98.5H21.5L18 39.5L38 17.5L61.5 6L30.5 15.5L11.5 39.5Z" fill="#679A45"/>
<path d="M5.5 62.5L9 100.5L14 99.5L12.5 59L29.5 35L47 23L21.5 35L5.5 62.5Z" fill="#E0CEA8"/>
</svg>
