<svg width="62" height="71" viewBox="0 0 62 71" fill="none" xmlns="http://www.w3.org/2000/svg">
<path d="M6 26.5691V69H12.0674L15.1011 14.5L48.9775 8.53591L51 5L15.1011 3.5L6 26.5691Z" fill="#679A45"/>
<path d="M3 21L0 69H6.06897L11 19.5L44 0L26.2989 2.83077L3 21Z" fill="#E0CEA8"/>
<path d="M18 30.7019V70H24L27.5 28.2236L46.5 14.4161L62 13H40L18 30.7019Z" fill="#89BA6A"/>
<path d="M12 25V70H22L18.5 27.9027L38.5 12.2054L62 4L31 10.7784L12 25Z" fill="#F6F1E1"/>
<path d="M6.5 43L9.45783 71L14.3976 70.2903L12.9157 41.5484L29.7108 24.5161L47 16L21.8072 24.5161L6.5 43Z" fill="#89BA6A"/>
</svg>
