<svg width="46" height="67" viewBox="0 0 46 67" fill="none" xmlns="http://www.w3.org/2000/svg">
<path d="M4.5 21L8.5 66.5H14.5674L10.5 17L24.5 5L36 2.5L15.5 0L4.5 21Z" fill="#E0CEA8"/>
<path d="M0 34L6.5 65H12.569L6.5 29L31 3.5L24.5 0L0 34Z" fill="#679A45"/>
<path d="M17.5 27.2019V66.5H23.5L27 24.7236L34 18.5L46 14.5L30 16L17.5 27.2019Z" fill="#89BA6A"/>
<path d="M12.5 21.5V66.5H22.5L16.5 26L27.5 14L43 6.5L22.5 12.5L12.5 21.5Z" fill="#F6F1E1"/>
<path d="M13 39L15.9578 67L20.8976 66.2903L19.4157 37.5484L29.5 26L41 19.5L22 25L13 39Z" fill="#679A45"/>
</svg>
