<svg clip-rule="evenodd" fill-rule="evenodd" stroke-linejoin="round" stroke-miterlimit="2" viewBox="0 0 360 320" xmlns="http://www.w3.org/2000/svg"><g fill-rule="nonzero" transform="matrix(1.2700381 0 0 1.2700381 -838.34009 -776.67737)"><path d="m898.101 666.358 21.376-1.109.211 7.821 4.228-.633-.022-13.261-26.003 2.745z" fill="#292b29"/><path d="m927.088 671.802-.846 32.348-15.01 2.115-2.749-31.502z" fill="#292b29"/><path d="m927.088 671.908-.211 7.505-17.972.105-.422-4.756z" fill="#5b5d5e" opacity=".3"/><path d="m705.538 666.358-21.376-1.109-.211 7.821-4.228-.633.022-13.261 26.003 2.745z" fill="#292b29"/><path d="m676.551 671.802.846 32.348 15.01 2.115 2.749-31.502z" fill="#292b29"/><path d="m705.603 844.051 1.69 19.449h19.451l4.018-19.661z" fill="#5b5d5e"/><path d="m725.899 843.626.845 19.874 6.02-19.874z" fill="#292b29"/><path d="m874.88 863.5h19.45l1.692-19.45-25.16-.211z" fill="#5b5d5e"/><path d="m868.86 843.839 6.02 19.449.845-19.449z" fill="#292b29"/><path d="m705.473 844.037h190.708l7.188-185.628-202.538 1.691z" fill="#d9d4cb"/><path d="m700.662 661.034v-21.143l25.807-16.068h159.191l17.956 16.066-.458 21.055z" fill="#d9d4cb"/><path d="m721.167 635.463.042 24.679 164.124-.367-.32-24.083z" fill="#292b29"/><path d="m706.394 668.468 1.904 100.83 186.025-.417 3.597-99.359z" fill="#313156"/><path d="m894.042 768.715-11.034-98.881-104.913 99.287z" fill="#091724" opacity=".3"/><path d="m706.394 668.468 1.389 71.139 70.75-70.688z" fill="#091724" opacity=".3"/><path d="m726.207 640.692.028 8.271 8.139.106.027 6.871 3.038-.027-.001-15.196h-3.143l-.025 5.287h-5.128v-5.287z" fill="#f09d74"/><path d="m676.551 671.908.212 7.505 17.971.105.422-4.756z" fill="#5b5d5e" opacity=".3"/><path d="m783.97 769.149 99.563-99.71h-5.979l-99.688 99.689z" fill="#494a73"/><path d="m800.47 769.298h4.862l.845-100.626-5.502-.004z" fill="#d9d4cb"/><path d="m763.098 819.398 3.127 9.402-18.691.036 3.043-9.479z" fill="#c2bfbc"/><path d="m745.01 828.794 3.127-9.402-18.691-.036 3.043 9.479z" fill="#f8f4e3"/><path d="m868.098 828.794 3.127-9.402-18.691-.036 3.043 9.479z" fill="#f8f4e3"/><path d="m850.01 819.398 3.127 9.402-18.691.036 3.043-9.479z" fill="#c2bfbc"/><g fill="#f09d74"><path d="m897.053 819.21-.327 9.59-18.692.035 3.043-9.479z"/><path d="m720.51 819.231 3.127 9.402-18.691.036-.226-9.459z"/></g></g></svg>