<?xml version="1.0" encoding="UTF-8" standalone="no"?>
<!DOCTYPE svg PUBLIC "-//W3C//DTD SVG 1.1//EN" "http://www.w3.org/Graphics/SVG/1.1/DTD/svg11.dtd">
<svg width="100%" height="100%" viewBox="0 0 360 450" version="1.1" xmlns="http://www.w3.org/2000/svg" xmlns:xlink="http://www.w3.org/1999/xlink" xml:space="preserve" xmlns:serif="http://www.serif.com/" style="fill-rule:evenodd;clip-rule:evenodd;stroke-linejoin:round;stroke-miterlimit:2;">
    <g id="double-decker-bus-outbound" transform="matrix(1.27,0,0,1.27,-2.88,-7.2)">
        <g transform="matrix(1,0,0,1,240.281,162.389)">
            <path d="M0,0.469L21.376,-0.64L21.587,7.181L25.815,6.548L25.793,-6.712L-0.21,-3.968L0,0.469Z" style="fill:rgb(114,14,26);fill-rule:nonzero;"/>
        </g>
        <g transform="matrix(-0.026145,0.999658,0.999658,0.026145,276.948,195.283)">
            <path d="M-26.771,-8.382L5.587,-8.382L8.094,-23.332L-23.325,-26.903L-26.771,-8.382Z" style="fill:rgb(114,14,26);fill-rule:nonzero;"/>
        </g>
        <g transform="matrix(1,0,0,1,47.7187,162.389)">
            <path d="M0,0.469L-21.376,-0.64L-21.587,7.181L-25.815,6.548L-25.793,-6.712L0.21,-3.968L0,0.469Z" style="fill:rgb(114,14,26);fill-rule:nonzero;"/>
        </g>
        <g transform="matrix(0.026145,0.999658,0.999658,-0.026145,45.0158,175.783)">
            <path d="M-8.166,-26.08L24.192,-26.08L26.699,-11.13L-4.72,-7.559L-8.166,-26.08Z" style="fill:rgb(114,14,26);fill-rule:nonzero;"/>
        </g>
        <g transform="matrix(1,0,0,1,47.6534,59.6611)">
            <path d="M0,280.876L190.708,280.876L193.896,0L-0.477,2L0,280.876Z" style="fill:rgb(174,32,37);fill-rule:nonzero;"/>
        </g>
        <g transform="matrix(-0.990026,0.140885,0.140885,0.990026,252.798,174.097)">
            <path d="M-8.762,24.907L-0.152,24.907L-1.336,0.019L-12.684,-0.291L-8.762,24.907Z" style="fill:rgb(244,242,237);fill-rule:nonzero;"/>
        </g>
        <g transform="matrix(0.990891,0.134668,0.134668,-0.990891,20.8718,197.036)">
            <path d="M1.703,-0.595L10.332,-0.595L8.97,24.528L-1.847,24.909L1.703,-0.595Z" style="fill:rgb(244,242,237);fill-rule:nonzero;"/>
        </g>
        <g transform="matrix(-0.0110107,0.999939,0.999939,0.0110107,154.237,287.78)">
            <path d="M12.65,-31.674L31.813,-31.674L31.324,12.722L12.166,12.512L12.65,-31.674Z" style="fill:rgb(244,242,237);fill-rule:nonzero;"/>
        </g>
        <g transform="matrix(0,-1,-1,0,226.014,289.631)">
            <path d="M-6.554,-6.554C-10.174,-6.554 -13.109,-3.618 -13.109,0C-13.109,3.621 -10.174,6.554 -6.554,6.554C-2.933,6.554 0.001,3.621 0.001,0C0.001,-3.618 -2.933,-6.554 -6.554,-6.554" style="fill:rgb(114,14,26);fill-rule:nonzero;"/>
        </g>
        <g transform="matrix(0,-1,-1,0,226.014,272.714)">
            <path d="M-6.553,-6.555C-10.173,-6.555 -13.109,-3.619 -13.109,-0.001C-13.109,3.621 -10.173,6.553 -6.553,6.553C-2.933,6.553 0.001,3.621 0.001,-0.001C0.001,-3.619 -2.933,-6.555 -6.553,-6.555" style="fill:rgb(239,156,116);fill-rule:nonzero;"/>
        </g>
        <g transform="matrix(0,-1,-1,0,60.9095,306.123)">
            <path d="M-6.553,-6.553C-10.172,-6.553 -13.109,-3.62 -13.109,0C-13.109,3.619 -10.172,6.553 -6.553,6.553C-2.932,6.553 0.002,3.619 0.002,0C0.002,-3.62 -2.932,-6.553 -6.553,-6.553" style="fill:rgb(193,190,187);fill-rule:nonzero;"/>
        </g>
        <g transform="matrix(0,-1,-1,0,225.689,306.123)">
            <path d="M-6.553,-6.553C-10.172,-6.553 -13.109,-3.62 -13.109,0C-13.109,3.619 -10.172,6.553 -6.553,6.553C-2.932,6.553 0.002,3.619 0.002,0C0.002,-3.62 -2.932,-6.553 -6.553,-6.553" style="fill:rgb(193,190,187);fill-rule:nonzero;"/>
        </g>
        <g transform="matrix(0,-1,-1,0,60.9095,289.631)">
            <path d="M-6.553,-6.553C-10.174,-6.553 -13.109,-3.62 -13.109,0C-13.109,3.619 -10.174,6.553 -6.553,6.553C-2.932,6.553 0.002,3.619 0.002,0C0.002,-3.62 -2.932,-6.553 -6.553,-6.553" style="fill:rgb(114,14,26);fill-rule:nonzero;"/>
        </g>
        <g transform="matrix(0,-1,-1,0,60.909,272.715)">
            <path d="M-6.553,-6.554C-10.173,-6.554 -13.108,-3.62 -13.108,-0C-13.108,3.618 -10.173,6.553 -6.553,6.553C-2.933,6.553 0.001,3.618 0.001,-0C0.001,-3.62 -2.933,-6.554 -6.553,-6.554" style="fill:rgb(239,156,116);fill-rule:nonzero;"/>
        </g>
        <g transform="matrix(0.0364459,-0.999336,-0.999336,-0.0364459,172.687,308.261)">
            <path d="M34.724,99.846L98.599,99.846L103.053,-33.703L39.97,-38.332L34.724,99.846Z" style="fill:rgb(42,43,41);fill-rule:nonzero;"/>
        </g>
        <g transform="matrix(-0.721779,0.692124,0.692124,0.721779,185.09,219.683)">
            <path d="M93.476,-41.846L99.646,-41.846L13.534,40.582L13.839,34.518L93.476,-41.846Z" style="fill:rgb(92,94,95);fill-rule:nonzero;"/>
        </g>
        <g transform="matrix(-0.721779,0.692124,0.692124,0.721779,185.09,202.185)">
            <path d="M93.476,-41.846L99.646,-41.846L13.534,40.582L13.839,34.518L93.476,-41.846Z" style="fill:rgb(92,94,95);fill-rule:nonzero;"/>
        </g>
        <g transform="matrix(-0.721779,0.692124,0.692124,0.721779,185.09,183.35)">
            <path d="M93.476,-41.846L99.646,-41.846L13.534,40.582L13.839,34.518L93.476,-41.846Z" style="fill:rgb(92,94,95);fill-rule:nonzero;"/>
        </g>
        <g transform="matrix(1,0,0,1,49.4747,340.338)">
            <path d="M0,19.662L19.45,19.662L23.468,0L-1.691,0.213L0,19.662Z" style="fill:rgb(92,94,95);fill-rule:nonzero;"/>
        </g>
        <g transform="matrix(1,0,0,1,68.0802,360)">
            <path d="M0,-19.874L0.845,0L6.864,-19.874L0,-19.874Z" style="fill:rgb(42,43,41);fill-rule:nonzero;"/>
        </g>
        <g transform="matrix(-1,0,0,1,214.734,340.339)">
            <path d="M-21.777,19.661L-2.326,19.661L1.691,0L-23.468,0.211L-21.777,19.661Z" style="fill:rgb(92,94,95);fill-rule:nonzero;"/>
        </g>
        <g transform="matrix(1,0,0,1,217.905,359.788)">
            <path d="M0,-19.449L-0.846,0L-6.864,-19.449L0,-19.449Z" style="fill:rgb(42,43,41);fill-rule:nonzero;"/>
        </g>
        <g transform="matrix(1,0,0,1,47.1764,23.3237)">
            <path d="M0,38.337L-0.333,16.068L15,0L179,0L194.808,16.253L194.35,37.308L0,38.337Z" style="fill:rgb(174,32,37);fill-rule:nonzero;"/>
        </g>
        <g transform="matrix(0.0149363,0.999888,0.999888,-0.0149363,164.247,-32.1392)">
            <path d="M71.37,-114.988L113.95,-114.988L116.326,71.963L74.147,73.08L71.37,-114.988Z" style="fill:rgb(49,49,86);fill-rule:nonzero;"/>
        </g>
        <g transform="matrix(1,0,0,1,-355.705,-73.4277)">
            <g opacity="0.3">
                <g transform="matrix(0.0106848,-0.999943,-0.999943,-0.0106848,586.849,107.49)">
                    <path d="M-48.963,-7.341L-6.754,-7.341L-6.889,7.876L-49.656,49.489L-48.963,-7.341Z" style="fill:rgb(10,23,35);fill-rule:nonzero;"/>
                </g>
            </g>
        </g>
        <g transform="matrix(1,0,0,1,-355.705,-73.4277)">
            <g opacity="0.3">
                <g transform="matrix(1,0,0,1,406.106,156.925)">
                    <path d="M0,-42.558L0.576,0.018L39.12,-42.576L0,-42.558Z" style="fill:rgb(10,23,35);fill-rule:nonzero;"/>
                </g>
            </g>
        </g>
        <g transform="matrix(0.705874,-0.708337,-0.708337,-0.705874,201.301,89.7187)">
            <path d="M-9.674,18.973L50.001,18.973L45.782,23.208L-13.968,23.311L-9.674,18.973Z" style="fill:rgb(73,74,114);fill-rule:nonzero;"/>
        </g>
        <g transform="matrix(-0.0420748,0.999114,0.999114,0.0420748,167.479,110.043)">
            <path d="M45.996,-87.128L89.062,-87.128L83.043,45.893L40.959,42.457L45.996,-87.128Z" style="fill:rgb(49,49,86);fill-rule:nonzero;"/>
        </g>
        <g transform="matrix(1,0,0,1,-355.705,-73.4277)">
            <g opacity="0.3">
                <g transform="matrix(1,0,0,1,565.542,226.252)">
                    <path d="M0,42.121L-1.621,-0.086L-45.775,42.207L0,42.121Z" style="fill:rgb(10,23,35);fill-rule:nonzero;"/>
                </g>
            </g>
        </g>
        <g transform="matrix(1,0,0,1,-355.705,-73.4277)">
            <g opacity="0.3">
                <g transform="matrix(1,0,0,1,434.216,268.455)">
                    <path d="M0,-42.691L-2.049,0L40.495,-42.594L0,-42.691Z" style="fill:rgb(10,23,35);fill-rule:nonzero;"/>
                </g>
            </g>
        </g>
        <g transform="matrix(0.705405,-0.708804,-0.708804,-0.705405,186.43,201.609)">
            <path d="M-9.695,19L50.02,19L45.803,23.237L-13.986,23.341L-9.695,19Z" style="fill:rgb(73,74,114);fill-rule:nonzero;"/>
        </g>
    </g>
</svg>
