<?xml version="1.0" encoding="UTF-8" standalone="no"?>
<!DOCTYPE svg PUBLIC "-//W3C//DTD SVG 1.1//EN" "http://www.w3.org/Graphics/SVG/1.1/DTD/svg11.dtd">
<svg width="100%" height="100%" viewBox="0 0 320 420" version="1.1" xmlns="http://www.w3.org/2000/svg" xmlns:xlink="http://www.w3.org/1999/xlink" xml:space="preserve" xmlns:serif="http://www.serif.com/" style="fill-rule:evenodd;clip-rule:evenodd;stroke-linejoin:round;stroke-miterlimit:2;">
    <g id="streetcar-outbound" transform="matrix(1.27,0,0,1.27,-22.88,-342)">
        <g transform="matrix(1,0,0,1,-251.479,57.0752)">
            <path d="M353.09,230.668L386.174,296.002L391.424,296.002L358.424,230.668" style="fill:rgb(42,43,42);fill-rule:nonzero;"/>
        </g>
        <g transform="matrix(1,0,0,1,-251.479,57.0752)">
            <path d="M436.424,230.668L403.34,296.002L398.09,296.002L431.09,230.668" style="fill:rgb(42,43,42);fill-rule:nonzero;"/>
        </g>
        <g transform="matrix(1,0,0,1,-251.479,57.0752)">
            <path d="M430.998,232.75L461.31,233L466.77,244.821L471.999,244.188L463.977,227.928L325.777,227.928L317.755,244.188L322.983,244.821L328.444,233L352.756,232.75" style="fill:rgb(42,43,42);fill-rule:nonzero;"/>
        </g>
        <g transform="matrix(1,0,0,1,-251.479,57.0752)">
            <path d="M490.286,360.847L511.662,359.737L511.873,367.56L516.101,366.925L516.078,353.666L490.074,356.408L490.286,360.847Z" style="fill:rgb(243,242,236);fill-rule:nonzero;"/>
        </g>
        <g transform="matrix(1,0,0,1,-251.479,57.0752)">
            <path d="M519.273,366.29L518.426,387.628L503.416,389.741L500.668,369.251L519.273,366.29Z" style="fill:rgb(243,242,236);fill-rule:nonzero;"/>
        </g>
        <g transform="matrix(1,0,0,1,-251.479,57.0752)">
            <path d="M515.284,384.857L506.76,386.07L504.426,372.274L515.617,370.368L515.284,384.857Z" style="fill:rgb(192,189,186);fill-rule:nonzero;"/>
        </g>
        <g transform="matrix(1,0,0,1,-251.479,57.0752)">
            <path d="M300.671,360.847L279.295,359.737L279.085,367.56L274.856,366.925L274.878,353.666L300.883,356.408L300.671,360.847Z" style="fill:rgb(243,242,236);fill-rule:nonzero;"/>
        </g>
        <g transform="matrix(1,0,0,1,-251.479,57.0752)">
            <path d="M271.684,366.29L272.531,387.628L287.541,389.741L290.29,369.251L271.684,366.29Z" style="fill:rgb(243,242,236);fill-rule:nonzero;"/>
        </g>
        <g transform="matrix(1,0,0,1,-251.479,57.0752)">
            <path d="M275.787,385.191L284.337,386.353L286.371,372.286L275.704,370.452L275.787,385.191Z" style="fill:rgb(192,189,186);fill-rule:nonzero;"/>
        </g>
        <g transform="matrix(1,0,0,1,-251.479,57.0752)">
            <path d="M452.777,542.925L441.326,542.925L441.559,518.514L454.718,518.725L452.777,542.925Z" style="fill:rgb(92,94,95);fill-rule:nonzero;"/>
        </g>
        <g transform="matrix(1,0,0,1,-251.479,57.0752)">
            <path d="M339.271,542.925L350.722,542.925L350.739,520.764L337.58,520.975L339.271,542.925Z" style="fill:rgb(92,94,95);fill-rule:nonzero;"/>
        </g>
        <g transform="matrix(1,0,0,1,-251.479,57.0752)">
            <path d="M304.037,517.525L304.576,529.315L487.054,529.545L487.692,517.525L396.701,499.523L304.037,517.525Z" style="fill:rgb(42,43,42);fill-rule:nonzero;"/>
        </g>
        <g transform="matrix(1,0,0,1,-251.479,57.0752)">
            <path d="M487.106,484.784L483.58,487.825L313.191,487.868L308.448,484.565L487.106,484.784Z" style="fill-rule:nonzero;"/>
        </g>
        <g transform="matrix(1,0,0,1,-251.479,57.0752)">
            <path d="M419.515,309.358L413.841,296.024L375.888,296.024L371.215,309.358L419.515,309.358Z" style="fill:rgb(243,242,236);fill-rule:nonzero;"/>
        </g>
        <g transform="matrix(1,0,0,1,-251.479,57.0752)">
            <path d="M295.534,329.69L300.673,421.107L490.699,420.857L495.7,329.524L474.95,308.524L316.869,308.19L295.534,329.69Z" style="fill:rgb(136,186,106);fill-rule:nonzero;"/>
        </g>
        <g transform="matrix(1,0,0,1,-251.479,57.0752)">
            <path d="M494.825,350.648L296.45,350.398L304.006,517.509L396.169,503.507L487.661,517.509L494.825,350.648Z" style="fill:rgb(227,225,219);fill-rule:nonzero;"/>
        </g>
        <g transform="matrix(1,0,0,1,-251.479,57.0752)">
            <path d="M343.549,470.496L346.676,479.898L327.985,479.934L331.028,470.455L343.549,470.496Z" style="fill:rgb(173,33,37);fill-rule:nonzero;"/>
        </g>
        <g transform="matrix(1,0,0,1,-251.479,57.0752)">
            <path d="M457.547,470.496L460.674,479.898L441.983,479.934L445.026,470.455L457.547,470.496Z" style="fill:rgb(173,33,37);fill-rule:nonzero;"/>
        </g>
        <g transform="matrix(1,0,0,1,-251.479,57.0752)">
            <path d="M397.825,358.602L458.617,358.523L464.617,412.83L397.986,412.691L397.825,358.602Z" style="fill:rgb(49,49,86);fill-rule:nonzero;"/>
        </g>
        <g transform="matrix(1,0,0,1,-251.479,57.0752)">
            <path d="M392.993,358.602L331.95,358.523L325.95,412.83L392.832,412.691L392.993,358.602Z" style="fill:rgb(49,49,86);fill-rule:nonzero;"/>
        </g>
        <g transform="matrix(1,0,0,1,-251.479,57.0752)">
            <g opacity="0.3">
                <path d="M387.984,358.64L326.776,405.196L331.951,358.441L387.984,358.64Z" style="fill:rgb(13,24,36);fill-rule:nonzero;"/>
            </g>
        </g>
        <g transform="matrix(1,0,0,1,-251.479,57.0752)">
            <g opacity="0.3">
                <path d="M392.891,397.012L383.318,406.161L382.07,412.712L392.839,412.733L392.891,397.012Z" style="fill:rgb(13,24,36);fill-rule:nonzero;"/>
            </g>
        </g>
        <g transform="matrix(1,0,0,1,-251.479,57.0752)">
            <g opacity="0.3">
                <path d="M397.983,412.742L464.7,412.851L458.684,358.508L433.2,358.554L397.924,392.199L397.983,412.742Z" style="fill:rgb(13,24,36);fill-rule:nonzero;"/>
            </g>
        </g>
        <g transform="matrix(1,0,0,1,-251.479,57.0752)">
            <path d="M392.903,395.63L375.85,412.706L382.069,412.691L392.848,401.873L392.903,395.63Z" style="fill:rgb(73,74,114);fill-rule:nonzero;"/>
        </g>
        <g transform="matrix(1,0,0,1,-251.479,57.0752)">
            <path d="M397.917,396.787L436.021,358.547L429.923,358.559L397.93,390.596L397.917,396.787Z" style="fill:rgb(73,74,114);fill-rule:nonzero;"/>
        </g>
        <g transform="matrix(1,0,0,1,-251.479,57.0752)">
            <path d="M408.033,449.351C408.033,456.347 402.362,462.018 395.366,462.018C388.371,462.018 382.7,456.347 382.7,449.351C382.7,442.356 388.371,436.685 395.366,436.685C402.362,436.685 408.033,442.356 408.033,449.351" style="fill:rgb(42,43,42);fill-rule:nonzero;"/>
        </g>
        <g transform="matrix(1,0,0,1,-251.479,57.0752)">
            <path d="M312.788,336.024C312.788,338.927 310.434,341.28 307.534,341.28C304.631,341.28 302.278,338.927 302.278,336.024C302.278,333.125 304.631,330.77 307.534,330.77C310.434,330.77 312.788,333.125 312.788,336.024" style="fill:rgb(173,33,37);fill-rule:nonzero;"/>
        </g>
        <g transform="matrix(1,0,0,1,-251.479,57.0752)">
            <path d="M488.788,336.024C488.788,338.927 486.434,341.28 483.534,341.28C480.631,341.28 478.278,338.927 478.278,336.024C478.278,333.125 480.631,330.77 483.534,330.77C486.434,330.77 488.788,333.125 488.788,336.024" style="fill:rgb(173,33,37);fill-rule:nonzero;"/>
        </g>
    </g>
</svg>
