<?xml version="1.0" encoding="UTF-8" standalone="no"?>
<!DOCTYPE svg PUBLIC "-//W3C//DTD SVG 1.1//EN" "http://www.w3.org/Graphics/SVG/1.1/DTD/svg11.dtd">
<svg width="100%" height="100%" viewBox="0 0 867 263" version="1.1" xmlns="http://www.w3.org/2000/svg" xmlns:xlink="http://www.w3.org/1999/xlink" xml:space="preserve" xmlns:serif="http://www.serif.com/" style="fill-rule:evenodd;clip-rule:evenodd;stroke-linejoin:round;stroke-miterlimit:2;">
    <g transform="matrix(1,0,0,1,-85,-75.5)">
        <path d="M122,112.8L85,322.5L101.8,336.6L193.5,303.2L215.6,276.9L225.9,218.4L212,206.8L232.1,182.8L242.4,124.3L196.4,85.7L122,112.8ZM220.6,220.3L211,274.7L190.6,299L105.4,330L140.4,131.4L150.7,140.1L136.9,218.1L175.4,204.1L185.7,212.8L134.5,231.4L120.3,312.2L178.7,290.9L200.8,264.6L210.1,211.7L220.6,220.3ZM153.9,136.4L143.6,127.7L192.2,110L202.5,118.7L153.9,136.4ZM204.1,123.3L198.3,156.1L177.9,180.4L146.6,191.8L155.6,140.9L204.1,123.3ZM187.5,217.4L181.7,250.2L161.3,274.5L130,285.9L139,235L187.5,217.4ZM237.2,126.3L227.6,180.7L208.3,203.7L197.4,194.5L217.5,170.5L226.8,117.6L237.2,126.3ZM213,168.4L190.6,195.1L205.2,207.4L206,208.1L196.4,262.5L176,286.8L126.7,304.7L129,291.4L164.2,278.6L186.3,252.3L193.3,212.7L176.5,198.6L143.2,210.7L145.5,197.4L180.7,184.6L202.8,158.3L209.8,118.7L193,104.6L136.5,125.2L100.5,329.4L90.2,320.7L126.2,116.6L195.4,91.4L222.5,114.1L213,168.4Z" style="fill:rgb(0,0,255);fill-rule:nonzero;"/>
        <path d="M295.5,93.1L278.3,107.5L316.1,322L337.2,329.7L354.4,315.3L316.6,100.7L295.5,93.1ZM320.5,318.3L283.7,109.4L294.3,100.5L333.5,323L320.5,318.3ZM338.4,322.2L299.2,99.7L312.2,104.4L349,313.3L338.4,322.2Z" style="fill:rgb(0,0,255);fill-rule:nonzero;"/>
        <path d="M427.6,117.2L391.4,322.4L407.8,336.2L427.9,328.9L444.1,236.8L496.8,217.6L500.5,196.5L484.1,182.7L451.5,194.5L460.3,144.6L530.6,119.1L534.3,98L517.9,84.2L427.6,117.2ZM406.7,329.1L396.6,320.6L431.8,120.8L444.2,116.3L406.7,329.1ZM492.8,214.1L445.3,231.4L447.6,218.4L495.2,200.9L492.8,214.1ZM459.5,122.8L445.6,201.9L483.3,188.2L493.3,196.6L443.3,215L423.8,325.5L411.4,330L449.4,114.5L514.5,90.8L512.2,103.8L459.5,122.8ZM461.5,139.3L463.8,126.4L513.9,108.2L524,116.7L461.5,139.3ZM529.3,100L527,113L516.9,104.5L519.2,91.5L529.3,100Z" style="fill:rgb(0,0,255);fill-rule:nonzero;"/>
        <path d="M660.3,142.8C663.2,139.7 664.7,136 664.7,131.7C664.7,129.1 664,126.7 662.7,124.4C661.3,122.1 659.3,120.5 656.5,119.5C660.8,117.5 662.9,113.9 662.9,108.7C662.9,104.6 661.5,101.2 658.8,98.5C656.1,95.8 651.7,94.5 645.7,94.5L622.5,94.5L622.5,147.4L646.8,147.4C652.9,147.4 657.4,145.9 660.3,142.8ZM632.6,104L645.8,104C650.2,104 652.4,105.9 652.4,109.6C652.4,111.4 651.7,112.7 650.4,113.8C649.1,114.8 647.1,115.3 644.4,115.3L632.6,115.3L632.6,104ZM632.6,124.8L645.2,124.8C651.3,124.8 654.3,127.1 654.3,131.7C654.3,133.4 653.7,134.8 652.6,136C651.5,137.2 649.7,137.9 647.2,137.9L632.6,137.9L632.6,124.8Z" style="fill:rgb(0,0,255);fill-rule:nonzero;"/>
        <path d="M684.4,136.5L704.8,136.5L708.9,147.5L719.9,147.5L699.7,94.6L689.7,94.6L669.5,147.5L680.5,147.5L684.4,136.5ZM692.9,113.4C693.7,111.4 694.3,109.8 694.6,108.6C694.9,109.8 695.5,111.3 696.3,113.4L701.5,127.1L687.8,127.1L692.9,113.4Z" style="fill:rgb(0,0,255);fill-rule:nonzero;"/>
        <path d="M755.2,145.8C758.2,144.7 760.7,143.3 762.6,141.6C764.5,139.9 766.1,137.8 767.4,135.5C768.7,133.2 769.6,130.8 770.2,128.4C770.7,126 771,123.5 771,121C771,117.6 770.5,114.3 769.6,111.3C768.6,108.3 767.2,105.4 765.2,102.9C763.2,100.3 760.6,98.3 757.2,96.8C753.8,95.3 749.9,94.6 745.5,94.6L727.7,94.6L727.7,147.5L745.2,147.5C748.8,147.4 752.2,146.9 755.2,145.8ZM737.7,104.2L747.1,104.2C751.4,104.2 754.7,105.8 757,109.1C759.3,112.4 760.4,116.3 760.4,120.9C760.4,125.4 759.2,129.3 756.9,132.6C754.6,135.9 751,137.6 746.2,137.6L737.7,137.6L737.7,104.2Z" style="fill:rgb(0,0,255);fill-rule:nonzero;"/>
        <rect x="626.9" y="185.2" width="10.2" height="52.9" style="fill:rgb(0,0,255);"/>
        <path d="M675.1,187.4C671.7,185.9 667.8,185.2 663.4,185.2L645.6,185.2L645.6,238L663.1,238C666.8,238 670.2,237.5 673.2,236.4C676.2,235.3 678.7,233.9 680.6,232.2C682.5,230.5 684.1,228.4 685.4,226.1C686.7,223.8 687.6,221.4 688.2,219C688.7,216.6 689,214.1 689,211.6C689,208.2 688.5,204.9 687.6,201.9C686.6,198.9 685.2,196 683.2,193.5C681.2,190.9 678.5,188.9 675.1,187.4ZM674.9,223.4C672.6,226.8 669,228.4 664.2,228.4L655.7,228.4L655.7,194.9L665.1,194.9C669.4,194.9 672.7,196.6 675,199.9C677.3,203.2 678.4,207.1 678.4,211.7C678.4,216.1 677.3,220 674.9,223.4Z" style="fill:rgb(0,0,255);fill-rule:nonzero;"/>
        <path d="M735.3,194.8L735.3,185.2L699.2,185.2L699.2,238L736.9,238L736.9,228.4L709.4,228.4L709.4,215.6L724.7,215.6L724.7,205.9L709.4,205.9L709.4,194.8L735.3,194.8Z" style="fill:rgb(0,0,255);fill-rule:nonzero;"/>
        <path d="M778.1,227.1L782.2,238.1L793.2,238.1L773,185.2L763,185.2L742.7,238L753.7,238L757.8,227L778.1,227L778.1,227.1ZM766.3,204.1C767.1,202.1 767.7,200.5 768,199.3C768.3,200.5 768.9,202 769.7,204.1L774.9,217.9L761.2,217.9L766.3,204.1Z" style="fill:rgb(0,0,255);fill-rule:nonzero;"/>
        <path d="M632.7,285.5L657.9,285.5L657.9,275.8L622.5,275.8L622.5,328.7L632.7,328.7L632.7,306.2L648.7,306.2L648.7,296.6L632.7,296.6L632.7,285.5Z" style="fill:rgb(0,0,255);fill-rule:nonzero;"/>
        <path d="M674.6,275.8L654.4,328.7L665.4,328.7L669.5,317.7L689.9,317.7L694,328.7L705,328.7L684.8,275.8L674.6,275.8ZM672.7,308.4L677.9,294.6C678.7,292.6 679.3,291 679.6,289.8C679.9,291 680.5,292.5 681.3,294.6L686.5,308.4L672.7,308.4Z" style="fill:rgb(0,0,255);fill-rule:nonzero;"/>
        <path d="M730.5,319.7C726.7,319.7 723.8,317.9 721.8,314.4C719.8,310.9 718.8,306.8 718.8,302.2C718.8,299.3 719.1,296.6 719.8,294.2C720.5,291.7 721.7,289.5 723.5,287.6C725.3,285.7 727.6,284.8 730.4,284.8C732.6,284.8 734.4,285.3 735.8,286.3C737.3,287.3 738.7,288.9 740.1,291.1L749.2,286.9C747.8,283.6 745.5,280.8 742.3,278.4C739.1,276.1 735.1,274.9 730.3,274.9C726.4,274.9 722.9,275.7 719.9,277.4C716.9,279.1 714.6,281.3 712.9,284C711.2,286.7 710,289.6 709.2,292.7C708.4,295.7 708,298.9 708,302.1C708,305.6 708.4,308.9 709.2,311.9C710,315 711.2,317.9 712.9,320.5C714.6,323.2 716.9,325.3 719.8,326.9C722.8,328.5 726.2,329.3 730.2,329.3C738.9,329.3 745.2,324.9 749.2,316.2L739.8,312.7C737.4,317.4 734.2,319.7 730.5,319.7Z" style="fill:rgb(0,0,255);fill-rule:nonzero;"/>
        <path d="M754.4,285.6L769.5,285.6L769.5,328.7L779.7,328.7L779.7,285.6L794.8,285.6L794.8,275.8L754.4,275.8L754.4,285.6Z" style="fill:rgb(0,0,255);fill-rule:nonzero;"/>
        <path d="M843.1,287C841.9,284.6 840.5,282.6 838.7,280.8C837,279 834.7,277.6 832.1,276.5C829.4,275.4 826.4,274.9 823.1,274.9C819.8,274.9 816.8,275.4 814.1,276.5C811.4,277.6 809.2,279 807.5,280.8C805.8,282.6 804.3,284.7 803.1,287C801.9,289.4 801,291.8 800.5,294.4C800,296.9 799.7,299.6 799.7,302.3C799.7,305 800,307.7 800.5,310.2C801,312.7 801.9,315.2 803.1,317.6C804.3,320 805.8,322 807.5,323.8C809.2,325.6 811.5,327 814.1,328.1C816.8,329.2 819.8,329.7 823.1,329.7C826.4,329.7 829.4,329.2 832.1,328.1C834.8,327 837,325.6 838.7,323.8C840.4,322 841.9,319.9 843.1,317.6C844.3,315.2 845.1,312.8 845.6,310.2C846.1,307.7 846.4,305 846.4,302.3C846.4,299.6 846.1,296.9 845.6,294.4C845.1,291.8 844.3,289.3 843.1,287ZM835.1,308.2C834.6,310.2 833.9,312 833,313.8C832,315.6 830.7,317 829,318.1C827.3,319.2 825.3,319.7 823.1,319.7C820.1,319.7 817.6,318.8 815.6,316.9C813.6,315 812.2,312.8 811.4,310.3C810.6,307.8 810.3,305.1 810.3,302.1C810.3,300 810.5,298 811,296.1C811.5,294.2 812.1,292.3 813.1,290.5C814,288.7 815.4,287.3 817.1,286.2C818.8,285.1 820.8,284.6 823.1,284.6C825.4,284.6 827.4,285.1 829.1,286.2C830.8,287.3 832.1,288.7 833.1,290.4C834.1,292.1 834.7,294 835.2,296C835.7,298 835.9,300 835.9,302.2C835.8,304.3 835.6,306.2 835.1,308.2Z" style="fill:rgb(0,0,255);fill-rule:nonzero;"/>
        <path d="M896.1,301.5C897.9,298.6 898.8,295.5 898.8,292.3C898.8,287.5 897.4,283.5 894.6,280.4C891.8,277.3 887.3,275.8 881.1,275.8L856.5,275.8L856.5,328.7L866.7,328.7L866.7,309L877.4,309L887.3,328.7L898.8,328.7L888.5,307.6C891.8,306.4 894.3,304.4 896.1,301.5ZM886.6,297.3C885.5,298.6 883.7,299.3 881.3,299.3L866.8,299.3L866.8,285.5L881.3,285.5C883.8,285.5 885.5,286.2 886.6,287.5C887.7,288.8 888.2,290.4 888.2,292.4C888.2,294.4 887.7,296 886.6,297.3Z" style="fill:rgb(0,0,255);fill-rule:nonzero;"/>
        <path d="M940.3,275.8L927.2,297.4L914.1,275.8L902.6,275.8L922.1,308.1L922.1,328.7L932.3,328.7L932.3,308.1L951.8,275.8L940.3,275.8Z" style="fill:rgb(0,0,255);fill-rule:nonzero;"/>
    </g>
</svg>
