<svg viewBox="0 0 60 60" xmlns="http://www.w3.org/2000/svg" fill-rule="evenodd" clip-rule="evenodd" stroke-linejoin="round" stroke-miterlimit="2"><path d="M15.097 35.062c-.527.225-1.063 1.184-.855 1.718 5.471 14.066 26.859 12.852 31.516.342.596-1.601-.183-2.205-.762-2.391-8.733-2.818-21.727-3.159-29.899.331z"/><clipPath id="a"><path d="M15.097 35.062c-.527.225-1.063 1.184-.855 1.718 5.471 14.066 26.859 12.852 31.516.342.596-1.601-.183-2.205-.762-2.391-8.733-2.818-21.727-3.159-29.899.331z"/></clipPath><g clip-path="url(#a)"><path d="M20.37 47.478l20.322.378s-2.479-5.364-10.317-5.493c-8.062-.133-10.005 5.115-10.005 5.115z" fill="#ff5b5b"/><path d="M14.242 32.531h32.267s-8.612 2.409-16.425 2.409c-7.813 0-15.842-2.409-15.842-2.409z" fill="#fff"/></g><path d="M10.508 25.663c-.333.937.243 1.261.857.913 2.352-1.331 3.227-1.368 5.703-.033.881.476 1.218.032.871-.867-1.537-3.98-5.941-4.216-7.431-.013zM49.492 25.663c.333.937-.243 1.261-.857.913-2.352-1.331-3.227-1.368-5.703-.033-.881.476-1.218.032-.871-.867 1.537-3.98 5.941-4.216 7.431-.013z"/></svg>