<svg viewBox="0 0 60 60" xmlns="http://www.w3.org/2000/svg" fill-rule="evenodd" clip-rule="evenodd" stroke-linejoin="round" stroke-miterlimit="2"><path d="M12.64 25.663c-.332.937.243 1.261.857.913 2.352-1.331 3.227-1.368 5.703-.033.881.476 1.218.032.871-.867-1.536-3.98-5.941-4.216-7.431-.013zM47.36 25.663c.332.937-.243 1.261-.857.913-2.352-1.331-3.227-1.368-5.703-.033-.881.476-1.218.032-.871-.867 1.536-3.98 5.941-4.216 7.431-.013zM42.126 36.134c.732.113.772.308.949.549.972 1.325-1.575 3.146-3.793 4.403-3.412 1.933-7.453 2.702-11.325 2.128-3.832-.569-7.526-2.167-10.511-4.674 0 0-.517-.51-.491-1.109.045-1.034 1.422-1.655 2.306-.932.191.157.214.171.296.234 4.523 3.426 10.656 5.054 16.07 3.055 2.006-.741 3.831-1.918 5.452-3.327 0 0 .389-.373 1.047-.327z"/></svg>