<?xml version="1.0" standalone="no"?><!DOCTYPE svg PUBLIC "-//W3C//DTD SVG 1.1//EN" "http://www.w3.org/Graphics/SVG/1.1/DTD/svg11.dtd"><svg width="72px" height="144px" version="1.1" xmlns="http://www.w3.org/2000/svg" xmlns:xlink="http://www.w3.org/1999/xlink" xml:space="preserve" style="fill-rule:evenodd;clip-rule:evenodd;stroke-linejoin:round;stroke-miterlimit:1.41421;"><g><g id="bench-center" transform="matrix(0.5,0,0,0.5,1.98095,48)"><g transform="matrix(2.00017,-9.86076e-32,-9.86076e-32,2.00017,-10.4354,-1032.1)"><path d="M56.3691,586.079l-0.772,3.041l-37.338,0.043l-1.04,-3.303l39.15,0.219Z" style="fill:#655949;fill-rule:nonzero;"/></g><g transform="matrix(2.00017,-9.86076e-32,-9.86076e-32,2.00017,-10.4354,-1032.1)"><path d="M32.517,589.953l22.037,22.039l12.726,0.008l-28.417,-28.353l-6.346,6.306Z" style="fill:#7c705b;fill-rule:nonzero;"/></g><g transform="matrix(2.00017,-9.86076e-32,-9.86076e-32,2.00017,-10.4354,-1032.1)"><path d="M10.4337,612l12.725,-0.008l22.038,-22.039l-6.346,-6.307l-28.417,28.354Z" style="fill:#7c705b;fill-rule:nonzero;"/></g><g transform="matrix(2.00017,-9.86076e-32,-9.86076e-32,2.00017,-10.4354,-1032.1)"><path d="M27.4063,592.314l3.127,-9.402l-18.691,-0.036l3.043,9.479l12.521,-0.041Z" style="fill:#968974;fill-rule:nonzero;"/></g><g transform="matrix(2.00017,-9.86076e-32,-9.86076e-32,2.00017,-10.4354,-1032.1)"><path d="M64.9063,592.314l3.127,-9.402l-18.691,-0.036l3.043,9.479l12.521,-0.041Z" style="fill:#968974;fill-rule:nonzero;"/></g><g transform="matrix(2.00017,-9.86076e-32,-9.86076e-32,2.00017,-10.4354,-1032.1)"><path d="M46.1563,582.918l3.127,9.402l-18.691,0.036l3.043,-9.479l12.521,0.041Z" style="fill:#968974;fill-rule:nonzero;"/></g></g></g></svg>