<?xml version="1.0" standalone="no"?><!DOCTYPE svg PUBLIC "-//W3C//DTD SVG 1.1//EN" "http://www.w3.org/Graphics/SVG/1.1/DTD/svg11.dtd"><svg width="72px" height="144px" version="1.1" xmlns="http://www.w3.org/2000/svg" xmlns:xlink="http://www.w3.org/1999/xlink" xml:space="preserve" style="fill-rule:evenodd;clip-rule:evenodd;stroke-linejoin:round;stroke-miterlimit:1.41421;"><g><g id="bench-right" transform="matrix(0.5,0,0,0.5,-88.9412,48)"><g transform="matrix(2.00017,-9.86076e-32,-9.86076e-32,2.00017,-10.4354,-1032.1)"><path d="M140.702,586.079l-0.772,3.041l-37.338,0.043l-1.04,-3.303l39.15,0.219Z" style="fill:#655949;fill-rule:nonzero;"/></g><g transform="matrix(2.00017,-9.86076e-32,-9.86076e-32,2.00017,-10.4354,-1032.1)"><path d="M156.722,549.68l2.632,1.709l-11.948,35.375l-3.462,-0.076l12.778,-37.008Z" style="fill:#655949;fill-rule:nonzero;"/></g><g transform="matrix(2.00017,-9.86076e-32,-9.86076e-32,2.00017,-10.4354,-1032.1)"><path d="M99.6435,587.744l9.093,24.243l9.625,0l-10.329,-27.354l-8.389,3.111Z" style="fill:#7c705b;fill-rule:nonzero;"/></g><g transform="matrix(2.00017,-9.86076e-32,-9.86076e-32,2.00017,-10.4354,-1032.1)"><path d="M132.611,611.987l9.437,0l8.211,-24.415l-9.267,-0.506l-8.381,24.921Z" style="fill:#7c705b;fill-rule:nonzero;"/></g><g transform="matrix(2.00017,-9.86076e-32,-9.86076e-32,2.00017,-10.4354,-1032.1)"><path d="M111.739,592.314l3.127,-9.402l-18.691,-0.036l3.043,9.479l12.521,-0.041Z" style="fill:#968974;fill-rule:nonzero;"/></g><g transform="matrix(2.00017,-9.86076e-32,-9.86076e-32,2.00017,-10.4354,-1032.1)"><path d="M149.239,592.314l3.127,-9.402l-18.691,-0.036l3.043,9.479l12.521,-0.041Z" style="fill:#968974;fill-rule:nonzero;"/></g><g transform="matrix(2.00017,-9.86076e-32,-9.86076e-32,2.00017,-10.4354,-1032.1)"><path d="M130.489,582.918l3.127,9.402l-18.691,0.036l3.043,-9.479l12.521,0.041Z" style="fill:#968974;fill-rule:nonzero;"/></g><g transform="matrix(2.00017,-9.86076e-32,-9.86076e-32,2.00017,-10.4354,-1032.1)"><path d="M157.126,568.107l-7.911,-5.968l-6.006,17.7l9.955,0.146l3.962,-11.878Z" style="fill:#968974;fill-rule:nonzero;"/></g><g transform="matrix(2.00017,-9.86076e-32,-9.86076e-32,2.00017,-10.4354,-1032.1)"><path d="M154.212,547.337l9.909,0.041l-5.939,17.724l-8.01,-5.912l4.04,-11.853Z" style="fill:#968974;fill-rule:nonzero;"/></g></g></g></svg>