<svg version="1" xmlns="http://www.w3.org/2000/svg" width="682.667" height="682.667" viewBox="0 0 512.000000 512.000000"><path d="M339.8 147.5c-.2.1-2.6.5-5.5.9-14 1.6-28 5.9-41.6 12.7-24.8 12.4-43.8 30.5-73.2 69.4-30 39.8-40.4 47.9-61 47.9-17 0-29.7-7.4-39.1-22.6-3.3-5.3-7-15.7-7.8-21.8-.2-1.4-.4-2.8-.5-3.2 0-.5-1.6-.6-3.3-.3-3.3.4-8 .7-41.3 2.9-4.9.4-11.2.8-14 1-2.7.3-9.7.7-15.5 1.1-5.8.4-10.7.8-11.1 1-.3.2-.2 3.7.3 7.7 6.1 52.9 42.6 98.6 91.4 114.3 15.8 5.1 24.4 6.3 42.9 6 9.4-.1 18-.5 19.1-.8 1.2-.3 3.7-.8 5.5-1.1 3.7-.6 16.2-4.2 19.4-5.6 11.7-5.1 15-6.7 21.1-10.5 21.9-13.7 34.6-26.9 67.5-70 20.3-26.8 33.8-38.4 48.5-41.8 28.8-6.8 58.2 18.3 58.5 49.9.1 5.4.1 5.4 3.3 5.5 1.7 0 4 .2 5.1.4 1.1.2 4.5.7 7.5 1 6.2.6 13.1 1.4 17.5 2 1.7.2 5.7.7 9 1 3.3.3 7.4.8 9 1 1.7.2 5.7.7 9 1 3.3.3 7.1.8 8.5 1 1.4.3 5.8.8 9.8 1.1l7.2.7.1-3.4c.4-13.3-.3-28.5-1.6-34.9-.3-1.4-.7-3.4-.9-4.5-4.7-24.1-18.8-50.3-36.7-68.4-21.5-21.7-45.9-34.2-77.4-39.7-3.9-.7-29.1-1.4-29.7-.9z"/></svg>