<svg version="1" xmlns="http://www.w3.org/2000/svg" width="4400" height="4400" viewBox="0 0 3300.000000 3300.000000"><path d="M100 1650v1550h3100V100H100v1550zm3000 0v1450H200V200h2900v1450z"/><path d="M1167.5 803.1c-157.3 8-292 50.9-388.5 123.7-101 76.3-158.6 181-167.9 305.8-1.4 17.8-1.4 54.7-.1 72.9 5.6 76 25.7 138.6 62.6 194.7 13.4 20.3 27.2 36.8 48.8 58.4 39.2 39.1 79.6 67.1 139.6 97 66.1 32.9 130.2 55.7 276.5 98.4 78.1 22.8 111.6 33.2 145.5 45.2 83.2 29.5 136.6 58.7 172.5 94.3 28.4 28.1 44.2 56.6 52.2 94.4 2.6 11.9 2.7 14.1 2.7 39.1 0 23.8-.2 27.6-2.2 37-10.4 47.8-34.8 82.9-77.2 111.2-47.3 31.5-110.3 48.9-194.5 53.9-24 1.4-70.3.6-92.5-1.6-171.4-16.9-348.3-98.2-496.7-228.1-7.9-6.9-14.6-12.5-14.7-12.3-.5.6-121.6 242.8-121.6 243.3 0 .8 31.2 27.7 45.5 39.2 154.2 123.9 344.4 201.5 542.5 221.3 59.3 6 128.7 6.2 189.5.6 143.4-13.3 268-56.9 360-126 19.7-14.8 30.7-24.5 51.5-45.4 27.5-27.5 45.3-49.9 63-79.1 46-75.9 66.6-163.9 61-260.5-8.3-141.9-67.8-246.7-184.6-325.2-72.5-48.7-159-85.1-315.4-132.8-88-26.8-104.5-32-134.5-41.9-17-5.7-39.8-13.6-50.5-17.6-113.5-42.3-175.2-88.6-201-150.7-8.9-21.3-13-43.1-13-69.8 0-18.6 1.4-29.7 5.5-44 19.6-67.7 88.8-112.9 193.5-126.4 46.1-6 102.7-5.6 153.8.9 125.9 16.2 265.9 66.3 392.6 140.5 8 4.7 14.9 8.5 15.4 8.5.8 0 116-243.5 116.9-247 .4-1.6-3.9-4.5-31.2-21-135-81.7-303.1-135.1-467.5-148.5-42.9-3.4-97.6-4.4-137.5-2.4zM2069 1088.5V1263h-179v206h179v338.8c0 219.8.4 344.3 1 354.7 7.3 113.2 46.5 199.5 117.6 258.6 77.6 64.5 193.2 90 319.4 70.4 72.1-11.1 144.5-37.5 218.9-79.5 4.7-2.7 9.4-5.5 10.4-6.2 1.7-1.3-.2-7.5-32.7-106.1-19-57.6-34.6-104.9-34.6-105.2 0-.2-5.1 2-11.3 5-55.5 26.2-102 41.3-146.2 47.7-13.7 2-56.6 1.7-68-.4-59.6-11.2-88.4-46.2-99.2-120.3-1.6-11.2-1.7-34.5-2-334.7l-.3-322.8 187.2-.2 187.3-.3.3-102.8.2-102.7h-375l-.2-174.3-.3-174.2-136.2-.3-136.3-.2v174.5z"/></svg>