<?xml version="1.0" encoding="UTF-8" standalone="no"?><!DOCTYPE svg PUBLIC "-//W3C//DTD SVG 1.1//EN" "http://www.w3.org/Graphics/SVG/1.1/DTD/svg11.dtd"><svg width="100%" height="100%" viewBox="0 0 96 96" version="1.1" xmlns="http://www.w3.org/2000/svg" xmlns:xlink="http://www.w3.org/1999/xlink" xml:space="preserve" xmlns:serif="http://www.serif.com/" style="fill-rule:evenodd;clip-rule:evenodd;stroke-linejoin:round;stroke-miterlimit:2;"><g id="left-right-straight-inbound"><path d="M53.138,59.318l0,-27.332l-10.676,0l0,27.332l-11.162,0l16.5,23.682l16.5,-23.682l-11.162,0Z" style="fill:#fff;fill-rule:nonzero;"/><path d="M53.049,11.518c-0.634,20.176 -4.594,31.233 -22.999,32.418l0,11.1l-24.4,-17.1l24.4,-17.1l0,13.3c9.156,-0.718 12.188,-5.783 12.713,-22.618l10.286,0Z" style="fill:#fff;fill-rule:nonzero;"/><path d="M53.237,11.518c0.525,16.835 3.557,21.9 12.713,22.618l0,-13.3l24.4,17.1l-24.4,17.1l0,-11.1c-18.405,-1.185 -22.365,-12.242 -22.999,-32.418l10.286,0Z" style="fill:#fff;fill-rule:nonzero;"/></g></svg>