<?xml version="1.0" encoding="UTF-8" standalone="no"?><!DOCTYPE svg PUBLIC "-//W3C//DTD SVG 1.1//EN" "http://www.w3.org/Graphics/SVG/1.1/DTD/svg11.dtd"><svg width="100%" height="100%" viewBox="0 0 96 96" version="1.1" xmlns="http://www.w3.org/2000/svg" xmlns:xlink="http://www.w3.org/1999/xlink" xml:space="preserve" xmlns:serif="http://www.serif.com/" style="fill-rule:evenodd;clip-rule:evenodd;stroke-linejoin:round;stroke-miterlimit:2;"><g id="left-right-straight-outbound"><path d="M42.862,35.2l0,27.332l10.676,0l0,-27.332l11.162,0l-16.5,-23.682l-16.5,23.682l11.162,0Z" style="fill:#fff;fill-rule:nonzero;"/><path d="M42.951,83c0.634,-20.176 4.594,-31.234 22.999,-32.418l0,-11.1l24.4,17.1l-24.4,17.1l0,-13.3c-9.156,0.718 -12.188,5.782 -12.713,22.618l-10.286,0Z" style="fill:#fff;fill-rule:nonzero;"/><path d="M42.763,83c-0.525,-16.836 -3.557,-21.9 -12.713,-22.618l0,13.3l-24.4,-17.1l24.4,-17.1l0,11.1c18.405,1.184 22.365,12.242 22.999,32.418l-10.286,0Z" style="fill:#fff;fill-rule:nonzero;"/></g></svg>