<?xml version="1.0" standalone="no"?><!DOCTYPE svg PUBLIC "-//W3C//DTD SVG 1.1//EN" "http://www.w3.org/Graphics/SVG/1.1/DTD/svg11.dtd"><svg width="72px" height="264px" version="1.1" xmlns="http://www.w3.org/2000/svg" xmlns:xlink="http://www.w3.org/1999/xlink" xml:space="preserve" style="fill-rule:evenodd;clip-rule:evenodd;stroke-linejoin:round;stroke-miterlimit:1.41421;"><g><g id="nyc-wayfinding-pylon-medium" transform="matrix(0.5,0,0,0.5,0,24)"><g id="pylon"><g transform="matrix(1,0,0,1,-31.1616,0)"><path d="M38.7981,75.9999l-2.798,404l134.323,0l-2.784,-404l-128.741,0Z" style="fill:#c1bebb;fill-rule:nonzero;"/></g><g transform="matrix(1,0,0,1,-31.1616,0)"><path d="M38.7981,75.9999l-0.042,12.435l129.488,-0.435l-0.042,-12l-129.404,0Z" style="fill:#07bcd0;fill-rule:nonzero;"/></g><g transform="matrix(1,0,0,1,-31.1616,0)"><path d="M38.7172,87.6839l-1.941,280.316l133.448,0l-1.943,-280.623l-129.564,0.307Z" style="fill:#5c5e5f;fill-rule:nonzero;"/></g><g transform="matrix(1,0,0,1,-31.1616,0)"><path d="M38.2371,157l-0.014,2l130.554,0l-0.014,-2l-130.526,0Z" style="fill:#d8d3cb;fill-rule:nonzero;"/></g><g transform="matrix(1,0,0,1,-31.1616,0)"><path d="M38.5972,105l-0.021,3.001l129.847,0l-0.02,-3.001l-129.806,0Z" style="fill:#d8d3cb;fill-rule:nonzero;"/></g><g transform="matrix(1,0,0,1,-31.1616,0)"><path d="M38.3895,135l-0.021,3l130.263,0l-0.021,-3l-130.221,0Z" style="fill:#d8d3cb;fill-rule:nonzero;"/></g><g transform="matrix(1,0,0,1,-31.1616,0)"><path d="M153.799,149.821l-17.635,-0.025l0.114,-4.093l17.634,0.025l-0.113,4.093Z" style="fill:#d8d3cb;fill-rule:nonzero;"/></g><g transform="matrix(1,0,0,1,-31.1616,0)"><path d="M153.799,169.821l-17.635,-0.025l0.114,-4.093l17.634,0.025l-0.113,4.093Z" style="fill:#d8d3cb;fill-rule:nonzero;"/></g><g transform="matrix(1,0,0,1,-31.1616,0)"><path d="M103.178,101.257l-50.178,-0.032l0.323,-5.225l50.177,0.032l-0.322,5.225Z" style="fill:#d8d3cb;fill-rule:nonzero;"/></g><g transform="matrix(1,0,0,1,-31.1616,0)"><path d="M78.2109,116.821l-25.211,-0.025l0.162,-4.093l25.211,0.025l-0.162,4.093Z" style="fill:#d8d3cb;fill-rule:nonzero;"/></g></g><g id="map"><g transform="matrix(1,0,0,1,-31.1616,0)"><path d="M54,187l-1,99.756l100.701,1.245l0.211,-101.201l-99.912,0.2Z" style="fill:#d8d3cb;fill-rule:nonzero;"/></g><g transform="matrix(1,0,0,1,-31.1616,0)"><clipPath id="tag1"><path d="M54,187l-1,99.756l100.701,1.244l0.211,-101.2l-99.912,0.2Z"/></clipPath><g clip-path="url(#tag1)"><g transform="matrix(1,0,0,1,31.1616,-48)"><path d="M18.1735,321.682l-1.90829,-0.640793l30.871,-91.934l1.90829,0.640793c-10.2903,30.6447 -20.5807,61.2893 -30.871,91.934Z" style="fill:#5c5e5f;fill-rule:nonzero;"/></g><g transform="matrix(1,0,0,1,31.1616,-48)"><path d="M18.173,282.293l-1.90829,-0.64079l21.475,-63.953l1.90829,0.64079c-7.15833,21.3177 -14.3167,42.6353 -21.475,63.953Z" style="fill:#5c5e5f;fill-rule:nonzero;"/></g><g transform="matrix(1,0,0,1,31.1616,-48)"><path d="M24.6428,340.55l-2.31904,-0.79647l38.028,-110.724l2.31904,0.79647c-12.676,36.908 -25.352,73.816 -38.028,110.724Z" style="fill:#5c5e5f;fill-rule:nonzero;"/></g><g transform="matrix(1,0,0,1,31.1616,-48)"><path d="M41.4191,340.55l-2.31903,-0.796489l38.029,-110.724l2.31903,0.796489c-12.6763,36.908 -25.3527,73.816 -38.029,110.724Z" style="fill:#5c5e5f;fill-rule:nonzero;"/></g><g transform="matrix(1,0,0,1,31.1616,-48)"><path d="M60.2101,340.55l-2.31904,-0.79647l38.028,-110.724l2.31904,0.79647c-12.676,36.908 -25.352,73.816 -38.028,110.724Z" style="fill:#5c5e5f;fill-rule:nonzero;"/></g><g transform="matrix(1,0,0,1,31.1616,-48)"><path d="M74.3029,340.55l-2.31904,-0.796471l38.028,-110.724l2.31904,0.796471c-12.676,36.908 -25.352,73.816 -38.028,110.724Z" style="fill:#5c5e5f;fill-rule:nonzero;"/></g><g transform="matrix(1,0,0,1,31.1616,-48)"><path d="M88.3957,340.55l-2.31904,-0.79647l38.028,-110.724l2.31904,0.79647c-12.676,36.908 -25.352,73.816 -38.028,110.724Z" style="fill:#5c5e5f;fill-rule:nonzero;"/></g><g transform="matrix(1,0,0,1,31.1616,-48)"><path d="M104.215,340.451l-1.74496,-0.599297l28.609,-83.3l1.74496,0.599297c-9.53633,27.7667 -19.0727,55.5333 -28.609,83.3Z" style="fill:#5c5e5f;fill-rule:nonzero;"/></g><g transform="matrix(1,0,0,1,31.1616,-48)"><path d="M116.374,347.19l-1.90385,-0.653855l14.807,-43.114l1.90385,0.653855c-4.93567,14.3713 -9.87134,28.7427 -14.807,43.114Z" style="fill:#5c5e5f;fill-rule:nonzero;"/></g><g transform="matrix(1,0,0,1,31.1616,-48)"><path d="M129.627,259.248l-91.934,-30.87l0.640775,-1.90829l91.934,30.87c-0.213592,0.636097 -0.427183,1.27219 -0.640775,1.90829Z" style="fill:#5c5e5f;fill-rule:nonzero;"/></g><g transform="matrix(1,0,0,1,31.1616,-48)"><path d="M129.55,272.874l-110.725,-38.028l0.796464,-2.31904l110.725,38.028c-0.265488,0.773014 -0.530976,1.54603 -0.796464,2.31904Z" style="fill:#5c5e5f;fill-rule:nonzero;"/></g><g transform="matrix(1,0,0,1,31.1616,-48)"><path d="M129.55,289.652l-110.725,-38.029l0.796483,-2.31903l110.725,38.029c-0.265494,0.773011 -0.530988,1.54602 -0.796483,2.31903Z" style="fill:#5c5e5f;fill-rule:nonzero;"/></g><g transform="matrix(1,0,0,1,31.1616,-48)"><path d="M129.55,308.442l-110.725,-38.029l0.796483,-2.31903l110.725,38.029c-0.265494,0.773011 -0.530988,1.54602 -0.796483,2.31903Z" style="fill:#5c5e5f;fill-rule:nonzero;"/></g><g transform="matrix(1,0,0,1,31.1616,-48)"><path d="M129.55,322.535l-110.725,-38.029l0.796483,-2.31903l110.725,38.029c-0.265494,0.773011 -0.530988,1.54602 -0.796483,2.31903Z" style="fill:#5c5e5f;fill-rule:nonzero;"/></g><g transform="matrix(1,0,0,1,31.1616,-48)"><path d="M129.55,336.628l-110.725,-38.029l0.796483,-2.31903l110.725,38.029c-0.265494,0.773011 -0.530988,1.54602 -0.796483,2.31903Z" style="fill:#5c5e5f;fill-rule:nonzero;"/></g><g transform="matrix(1,0,0,1,31.1616,-48)"><path d="M102.223,343.028l-83.3,-28.61l0.599316,-1.74495l83.3,28.61c-0.199772,0.58165 -0.399544,1.1633 -0.599316,1.74495Z" style="fill:#5c5e5f;fill-rule:nonzero;"/></g><g transform="matrix(1,0,0,1,31.1616,-48)"><path d="M113.814,347.34l-37.134,-125.042l3.21617,-0.955115l37.134,125.042c-1.07206,0.318372 -2.14412,0.636743 -3.21617,0.955115Z" style="fill:#5c5e5f;fill-rule:nonzero;"/></g></g></g><g transform="matrix(1,0,0,1,-31.1616,0)"><path d="M53.0001,354.305l55.827,0.695l0.591,-47.056l-0.222,-8.907l-56.196,-1.037l0,56.305Z" style="fill:#d8d3cb;fill-rule:nonzero;"/></g><g transform="matrix(1,0,0,1,-31.1616,0)"><clipPath id="tag2"><path d="M53,354.305l55.827,0.695l0.703,-55.957l-56.53,-1.043l0,56.305Z"/></clipPath><g clip-path="url(#tag2)"><g transform="matrix(1,0,0,1,31.1616,-48)"><path d="M27.4046,421.769l-1.70877,-0.0280325l1.338,-81.56l1.70877,0.0280325c-0.446,27.1867 -0.892,54.3733 -1.338,81.56Z" style="fill:#5c5e5f;fill-rule:nonzero;"/></g><g transform="matrix(1,0,0,1,31.1616,-48)"><path d="M38.5208,418.153l-1.70877,-0.0280535l1.339,-81.56l1.70877,0.0280535c-0.446334,27.1867 -0.892668,54.3733 -1.339,81.56Z" style="fill:#5c5e5f;fill-rule:nonzero;"/></g><g transform="matrix(1,0,0,1,31.1616,-48)"><path d="M50.972,414.104l-1.70877,-0.0280325l1.338,-81.56l1.70877,0.0280325c-0.445999,27.1867 -0.891999,54.3733 -1.338,81.56Z" style="fill:#5c5e5f;fill-rule:nonzero;"/></g><g transform="matrix(1,0,0,1,31.1616,-48)"><path d="M60.3109,411.067l-1.70877,-0.0279906l1.336,-81.56l1.70877,0.0279906c-0.445333,27.1867 -0.890666,54.3733 -1.336,81.56Z" style="fill:#5c5e5f;fill-rule:nonzero;"/></g><g transform="matrix(1,0,0,1,31.1616,-48)"><path d="M69.6478,408.03l-1.70877,-0.0279906l1.336,-81.56l1.70877,0.0279906c-0.445333,27.1867 -0.890666,54.3733 -1.336,81.56Z" style="fill:#5c5e5f;fill-rule:nonzero;"/></g><g transform="matrix(1,0,0,1,31.1616,-48)"><path d="M82.3322,354.321l-81.561,-1.33598l0.0279898,-1.70877l81.561,1.33598c-0.00932993,0.56959 -0.0186599,1.13918 -0.0279898,1.70877Z" style="fill:#5c5e5f;fill-rule:nonzero;"/></g><g transform="matrix(1,0,0,1,31.1616,-48)"><path d="M85.9474,365.437l-81.561,-1.33601l0.0279905,-1.70877l81.561,1.33601c-0.00933016,0.56959 -0.0186603,1.13918 -0.0279905,1.70877Z" style="fill:#5c5e5f;fill-rule:nonzero;"/></g><g transform="matrix(1,0,0,1,31.1616,-48)"><path d="M89.9973,377.888l-81.562,-1.33698l0.0280105,-1.70877l81.562,1.33698c-0.00933683,0.56959 -0.0186737,1.13918 -0.0280105,1.70877Z" style="fill:#5c5e5f;fill-rule:nonzero;"/></g><g transform="matrix(1,0,0,1,31.1616,-48)"><path d="M93.0324,387.225l-81.559,-1.33499l0.0279698,-1.70877l81.559,1.33499c-0.00932326,0.56959 -0.0186465,1.13918 -0.0279698,1.70877Z" style="fill:#5c5e5f;fill-rule:nonzero;"/></g><g transform="matrix(1,0,0,1,31.1616,-48)"><path d="M96.0709,396.563l-83.778,-1.33698l0.0272698,-1.70878l83.778,1.33698c-0.00908992,0.569594 -0.0181798,1.13919 -0.0272698,1.70878Z" style="fill:#5c5e5f;fill-rule:nonzero;"/></g><g transform="matrix(1,0,0,1,31.1616,-48)"><path d="M81.402,404.869l-51.549,-74.85l1.92553,-1.32611l51.549,74.85c-0.641844,0.442037 -1.28369,0.884073 -1.92553,1.32611Z" style="fill:#5c5e5f;fill-rule:nonzero;"/></g></g></g></g></g></g></svg>