<?xml version="1.0" standalone="no"?><!DOCTYPE svg PUBLIC "-//W3C//DTD SVG 1.1//EN" "http://www.w3.org/Graphics/SVG/1.1/DTD/svg11.dtd"><svg width="48px" height="264px" version="1.1" xmlns="http://www.w3.org/2000/svg" xmlns:xlink="http://www.w3.org/1999/xlink" xml:space="preserve" style="fill-rule:evenodd;clip-rule:evenodd;stroke-linejoin:round;stroke-miterlimit:1.41421;"><g><g id="nyc-wayfinding-pylon-small" transform="matrix(0.5,0,0,0.5,-14.0816,24)"><g id="pylon"><path d="M43.6797,66l-1.411,414l67.724,0l0.065,-80.751l-1.136,-333.249l-65.242,0Z" style="fill:#c1bebb;fill-rule:nonzero;"/><path d="M43.6387,78.0163l-0.954,279.983l67.232,0l-0.955,-280.261l-65.323,0.278Z" style="fill:#5c5e5f;fill-rule:nonzero;"/><path d="M43.4002,148l-0.007,2l65.815,0l-0.007,-2l-65.801,0Z" style="fill:#d8d3cb;fill-rule:nonzero;"/><path d="M43.5774,95.9997l-0.01,3.001l65.467,0l-0.011,-3.001l-65.446,0Z" style="fill:#d8d3cb;fill-rule:nonzero;"/><path d="M43.4752,126l-0.014,4l65.679,0l-0.014,-4l-65.651,0Z" style="fill:#d8d3cb;fill-rule:nonzero;"/><path d="M43.6797,66l-0.022,12.743l65.286,-0.446l-0.022,-12.297l-65.242,0Z" style="fill:#07bcd0;fill-rule:nonzero;"/><path d="M68.6348,142.821l-17.635,-0.025l0.114,-4.093l17.634,0.025l-0.113,4.093Z" style="fill:#d8d3cb;fill-rule:nonzero;"/><path d="M68.6348,159.821l-17.635,-0.025l0.114,-4.093l17.634,0.025l-0.113,4.093Z" style="fill:#d8d3cb;fill-rule:nonzero;"/><path d="M90.3037,91.2573l-39.304,-0.025l0.253,-4.093l39.304,0.025l-0.253,4.093Z" style="fill:#d8d3cb;fill-rule:nonzero;"/><path d="M76.2109,107.821l-25.211,-0.025l0.162,-4.093l25.211,0.025l-0.162,4.093Z" style="fill:#d8d3cb;fill-rule:nonzero;"/></g><g id="map"><path d="M61.0002,279.822l30.848,1.105l2.054,0.069l0.193,-95.778l-0.295,-0.006l-32.8,-0.707l0,95.317Z" style="fill:#d8d3cb;fill-rule:nonzero;"/><clipPath id="tag1"><path d="M61,279.822l32.902,1.178l0.193,-95.781l-33.095,-0.757l0,95.36Z"/></clipPath><g clip-path="url(#tag1)"><g transform="matrix(1,0,0,1,28.1632,-48)"><path d="M45.8075,330.973l-2.32099,-0.00733146l0.350001,-110.803l2.32099,0.00733146c-0.116667,36.9343 -0.233334,73.8687 -0.350001,110.803Z" style="fill:#5c5e5f;fill-rule:nonzero;"/></g><g transform="matrix(1,0,0,1,28.1632,-48)"><path d="M58.4364,331.413l-2.32099,-0.00733151l0.350003,-110.803l2.32099,0.00733151c-0.116668,36.9343 -0.233336,73.8687 -0.350003,110.803Z" style="fill:#5c5e5f;fill-rule:nonzero;"/></g><g transform="matrix(1,0,0,1,28.1632,-48)"><path d="M87.3292,247.315l-110.805,-0.348992l0.00731021,-2.32099l110.805,0.348992c-0.00243674,0.773663 -0.00487347,1.54733 -0.00731021,2.32099Z" style="fill:#5c5e5f;fill-rule:nonzero;"/></g><g transform="matrix(1,0,0,1,28.1632,-48)"><path d="M92.4395,262.35l-110.804,-0.350006l0.00733151,-2.32099l110.804,0.350006c-0.00244384,0.773663 -0.00488768,1.54733 -0.00733151,2.32099Z" style="fill:#5c5e5f;fill-rule:nonzero;"/></g><g transform="matrix(1,0,0,1,28.1632,-48)"><path d="M98.1632,279.187l-110.805,-0.35001l0.00733151,-2.32099l110.805,0.35001c-0.00244384,0.773663 -0.00488768,1.54733 -0.00733151,2.32099Z" style="fill:#5c5e5f;fill-rule:nonzero;"/></g><g transform="matrix(1,0,0,1,28.1632,-48)"><path d="M102.455,291.816l-110.804,-0.350006l0.00733151,-2.32099l110.804,0.350006c-0.00244384,0.773663 -0.00488768,1.54733 -0.00733151,2.32099Z" style="fill:#5c5e5f;fill-rule:nonzero;"/></g><g transform="matrix(1,0,0,1,28.1632,-48)"><path d="M106.749,304.445l-110.804,-0.350006l0.00733151,-2.32099l110.804,0.350006c-0.00244384,0.773663 -0.00488768,1.54733 -0.00733151,2.32099Z" style="fill:#5c5e5f;fill-rule:nonzero;"/></g><g transform="matrix(1,0,0,1,28.1632,-48)"><path d="M84.211,318.503l-83.359,-0.263004l0.00550874,-1.74599l83.359,0.263004c-0.00183625,0.581997 -0.00367249,1.16399 -0.00550874,1.74599Z" style="fill:#5c5e5f;fill-rule:nonzero;"/></g><g transform="matrix(1,0,0,1,28.1632,-48)"><path d="M96.8574,335.873l-71.364,-100.738l2.5916,-1.83592l71.364,100.738c-0.863866,0.611973 -1.72773,1.22395 -2.5916,1.83592Z" style="fill:#5c5e5f;fill-rule:nonzero;"/></g></g><path d="M54,343.081l45.464,0.563l0.486,-45.4l-45.95,-0.846l0,45.683Z" style="fill:#d8d3cb;fill-rule:nonzero;"/><clipPath id="tag2"><path d="M54,343.081l45.464,0.564l0.486,-45.401l-45.95,-0.846l0,45.683Z"/></clipPath><g clip-path="url(#tag2)"><g transform="matrix(1,0,0,1,28.1632,-48)"><path d="M30.4437,411.367l-1.4728,-0.0241295l1.152,-70.315l1.4728,0.0241295c-0.384,23.4383 -0.767999,46.8767 -1.152,70.315Z" style="fill:#5c5e5f;fill-rule:nonzero;"/></g><g transform="matrix(1,0,0,1,28.1632,-48)"><path d="M40.0266,408.25l-1.4728,-0.0241501l1.153,-70.316l1.4728,0.0241501c-0.384332,23.4387 -0.768665,46.8773 -1.153,70.316Z" style="fill:#5c5e5f;fill-rule:nonzero;"/></g><g transform="matrix(1,0,0,1,28.1632,-48)"><path d="M50.762,404.759l-1.4728,-0.0241291l1.152,-70.316l1.4728,0.0241291c-0.383999,23.4387 -0.767999,46.8773 -1.152,70.316Z" style="fill:#5c5e5f;fill-rule:nonzero;"/></g><g transform="matrix(1,0,0,1,28.1632,-48)"><path d="M58.8118,402.141l-1.4728,-0.0241292l1.152,-70.316l1.4728,0.0241292c-0.384,23.4387 -0.768001,46.8773 -1.152,70.316Z" style="fill:#5c5e5f;fill-rule:nonzero;"/></g><g transform="matrix(1,0,0,1,28.1632,-48)"><path d="M66.8626,399.522l-1.4728,-0.0241297l1.15201,-70.315l1.4728,0.0241297c-0.384002,23.4383 -0.768004,46.8767 -1.15201,70.315Z" style="fill:#5c5e5f;fill-rule:nonzero;"/></g><g transform="matrix(1,0,0,1,28.1632,-48)"><path d="M75.3105,345.419l-58.253,-0.554996l0.011518,-1.20895l58.253,0.554996c-0.00383935,0.402982 -0.00767869,0.805963 -0.011518,1.20895Z" style="fill:#5c5e5f;fill-rule:nonzero;"/></g><g transform="matrix(1,0,0,1,28.1632,-48)"><path d="M77.7974,353.217l-70.316,-1.152l0.0241292,-1.4728l70.316,1.152c-0.00804307,0.490934 -0.0160861,0.981868 -0.0241292,1.4728Z" style="fill:#5c5e5f;fill-rule:nonzero;"/></g><g transform="matrix(1,0,0,1,28.1632,-48)"><path d="M80.9145,362.801l-70.315,-1.15201l0.0241298,-1.4728l70.315,1.15201c-0.00804327,0.490934 -0.0160865,0.981868 -0.0241298,1.4728Z" style="fill:#5c5e5f;fill-rule:nonzero;"/></g><g transform="matrix(1,0,0,1,28.1632,-48)"><path d="M84.4058,373.535l-70.316,-1.15197l0.0241286,-1.4728l70.316,1.15197c-0.00804288,0.490934 -0.0160858,0.981868 -0.0241286,1.4728Z" style="fill:#5c5e5f;fill-rule:nonzero;"/></g><g transform="matrix(1,0,0,1,28.1632,-48)"><path d="M87.0239,381.586l-70.315,-1.15201l0.0241298,-1.4728l70.315,1.15201c-0.00804326,0.490934 -0.0160865,0.981868 -0.0241298,1.4728Z" style="fill:#5c5e5f;fill-rule:nonzero;"/></g><g transform="matrix(1,0,0,1,28.1632,-48)"><path d="M89.6425,389.636l-72.229,-1.152l0.0234902,-1.47281l72.229,1.152c-0.00783007,0.490938 -0.0156601,0.981875 -0.0234902,1.47281Z" style="fill:#5c5e5f;fill-rule:nonzero;"/></g><g transform="matrix(1,0,0,1,28.1632,-48)"><path d="M76.9968,396.797l-44.443,-64.531l1.66033,-1.14348l44.443,64.531c-0.553444,0.381161 -1.10689,0.762322 -1.66033,1.14348Z" style="fill:#5c5e5f;fill-rule:nonzero;"/></g></g></g></g></g></svg>