<?xml version="1.0" standalone="no"?><!DOCTYPE svg PUBLIC "-//W3C//DTD SVG 1.1//EN" "http://www.w3.org/Graphics/SVG/1.1/DTD/svg11.dtd"><svg width="96px" height="264px" version="1.1" xmlns="http://www.w3.org/2000/svg" xmlns:xlink="http://www.w3.org/1999/xlink" xml:space="preserve" style="fill-rule:evenodd;clip-rule:evenodd;stroke-linejoin:round;stroke-miterlimit:1.41421;"><g><g id="nyc-wayfinding-pylon-large" transform="matrix(0.5,0,0,0.5,-24.25,24)"><g id="pylon"><g transform="matrix(1,0,0,1,-3.9998,0)"><path d="M55.9998,84l-4,396l193,0l-4,-396l-185,0Z" style="fill:#c1bebb;fill-rule:nonzero;"/></g><g transform="matrix(1,0,0,1,-4.4998,0)"><path d="M55.9998,84l-0.06,12.435l185.121,-0.435l-0.061,-12l-185,0Z" style="fill:#07bcd0;fill-rule:nonzero;"/></g><g transform="matrix(1,0,0,1,-4.4998,0)"><path d="M55.8818,95.6831l-2.75,272.317l190.737,0l-2.754,-272.623l-185.233,0.306Z" style="fill:#5c5e5f;fill-rule:nonzero;"/></g><g transform="matrix(1,0,0,1,-4.4998,0)"><path d="M70.0002,343l156,2l1.999,-161l-156.999,-2l-1,161Z" style="fill:#d8d3cb;fill-rule:nonzero;"/></g><g transform="matrix(1,0,0,1,-4.4998,0)"><path d="M70.0002,106.226l50.178,0.032l0.322,-5.225l-50.178,-0.032l-0.322,5.225Z" style="fill:#d8d3cb;fill-rule:nonzero;"/></g><g transform="matrix(1,0,0,1,-4.4998,0)"><path d="M70.0002,121.796l25.211,0.026l0.162,-4.093l-25.211,-0.025l-0.162,4.092Z" style="fill:#d8d3cb;fill-rule:nonzero;"/></g><g transform="matrix(1,0,0,1,-4.4998,0)"><path d="M70.0002,130.796l25.211,0.026l0.162,-4.093l-25.211,-0.025l-0.162,4.092Z" style="fill:#d8d3cb;fill-rule:nonzero;"/></g><g transform="matrix(1,0,0,1,-4.4998,0)"><path d="M202,149.796l25.212,0.025l0.162,-4.093l-25.211,-0.025l-0.163,4.093Z" style="fill:#d8d3cb;fill-rule:nonzero;"/></g><g transform="matrix(1,0,0,1,-4.4998,0)"><path d="M202,169.796l25.212,0.025l0.162,-4.093l-25.211,-0.025l-0.163,4.093Z" style="fill:#d8d3cb;fill-rule:nonzero;"/></g><g transform="matrix(1,0,0,1,-4.4998,0)"><path d="M55.2625,157l-0.02,2l186.515,0l-0.02,-2l-186.475,0Z" style="fill:#d8d3cb;fill-rule:nonzero;"/></g><g transform="matrix(1,0,0,1,-4.4998,0)"><path d="M55.7372,110l-0.03,3l185.586,0l-0.03,-3l-185.526,0Z" style="fill:#d8d3cb;fill-rule:nonzero;"/></g><g transform="matrix(1,0,0,1,-4.4998,0)"><path d="M55.4847,135l-0.03,3l186.091,0l-0.03,-3l-186.031,0Z" style="fill:#d8d3cb;fill-rule:nonzero;"/></g></g><g id="map"><g transform="matrix(1,0,0,1,48.5,-48)"><path d="M14.0892,365.478l-2.84395,-0.954959l46,-136.992l2.84395,0.954959c-15.3333,45.664 -30.6667,91.328 -46,136.992Z" style="fill:#5c5e5f;fill-rule:nonzero;"/></g><g transform="matrix(1,0,0,1,48.5,-48)"><path d="M14.0892,306.784l-2.84395,-0.954966l32,-95.298l2.84395,0.954966c-10.6667,31.766 -21.3333,63.532 -32,95.298Z" style="fill:#5c5e5f;fill-rule:nonzero;"/></g><g transform="matrix(1,0,0,1,48.5,-48)"><path d="M23.7281,393.594l-3.45585,-1.18692l56.667,-164.992l3.45585,1.18692c-18.889,54.9973 -37.778,109.995 -56.667,164.992Z" style="fill:#5c5e5f;fill-rule:nonzero;"/></g><g transform="matrix(1,0,0,1,48.5,-48)"><path d="M48.7281,393.594l-3.45585,-1.18692l56.667,-164.992l3.45585,1.18692c-18.889,54.9973 -37.778,109.995 -56.667,164.992Z" style="fill:#5c5e5f;fill-rule:nonzero;"/></g><g transform="matrix(1,0,0,1,48.5,-48)"><path d="M76.7281,393.594l-3.45585,-1.18692l56.667,-164.992l3.45585,1.18692c-18.889,54.9973 -37.778,109.995 -56.667,164.992Z" style="fill:#5c5e5f;fill-rule:nonzero;"/></g><g transform="matrix(1,0,0,1,48.5,-48)"><path d="M97.7281,393.594l-3.45585,-1.18692l56.667,-164.992l3.45585,1.18692c-18.889,54.9973 -37.778,109.995 -56.667,164.992Z" style="fill:#5c5e5f;fill-rule:nonzero;"/></g><g transform="matrix(1,0,0,1,48.5,-48)"><path d="M118.728,393.594l-3.45585,-1.18692l56.667,-164.992l3.45585,1.18692c-18.889,54.9973 -37.778,109.995 -56.667,164.992Z" style="fill:#5c5e5f;fill-rule:nonzero;"/></g><g transform="matrix(1,0,0,1,48.5,-48)"><path d="M142.3,393.446l-2.59993,-0.892964l42.632,-124.126l2.59993,0.892964c-14.2107,41.3753 -28.4213,82.7507 -42.632,124.126Z" style="fill:#5c5e5f;fill-rule:nonzero;"/></g><g transform="matrix(1,0,0,1,48.5,-48)"><path d="M160.419,403.487l-2.83733,-0.974454l22.064,-64.244l2.83733,0.974454c-7.35467,21.4147 -14.7093,42.8293 -22.064,64.244Z" style="fill:#5c5e5f;fill-rule:nonzero;"/></g><g transform="matrix(1,0,0,1,48.5,-48)"><path d="M180.168,272.443l-136.992,-46l0.954959,-2.84395l136.992,46c-0.31832,0.947983 -0.636639,1.89597 -0.954959,2.84395Z" style="fill:#5c5e5f;fill-rule:nonzero;"/></g><g transform="matrix(1,0,0,1,48.5,-48)"><path d="M180.052,292.749l-164.992,-56.667l1.18692,-3.45585l164.992,56.667c-0.395641,1.15195 -0.791282,2.3039 -1.18692,3.45585Z" style="fill:#5c5e5f;fill-rule:nonzero;"/></g><g transform="matrix(1,0,0,1,48.5,-48)"><path d="M180.052,317.749l-164.992,-56.667l1.18692,-3.45585l164.992,56.667c-0.395641,1.15195 -0.791282,2.3039 -1.18692,3.45585Z" style="fill:#5c5e5f;fill-rule:nonzero;"/></g><g transform="matrix(1,0,0,1,48.5,-48)"><path d="M180.052,345.749l-164.992,-56.667l1.18692,-3.45585l164.992,56.667c-0.395641,1.15195 -0.791282,2.3039 -1.18692,3.45585Z" style="fill:#5c5e5f;fill-rule:nonzero;"/></g><g transform="matrix(1,0,0,1,48.5,-48)"><path d="M180.052,366.749l-164.992,-56.667l1.18692,-3.45585l164.992,56.667c-0.395641,1.15195 -0.791282,2.3039 -1.18692,3.45585Z" style="fill:#5c5e5f;fill-rule:nonzero;"/></g><g transform="matrix(1,0,0,1,48.5,-48)"><path d="M180.052,387.749l-164.992,-56.667l1.18692,-3.45585l164.992,56.667c-0.395641,1.15195 -0.791283,2.3039 -1.18692,3.45585Z" style="fill:#5c5e5f;fill-rule:nonzero;"/></g><g transform="matrix(1,0,0,1,48.5,-48)"><path d="M139.334,397.286l-124.127,-42.632l0.892958,-2.59993l124.127,42.632c-0.297653,0.866643 -0.595305,1.73329 -0.892958,2.59993Z" style="fill:#5c5e5f;fill-rule:nonzero;"/></g><g transform="matrix(1,0,0,1,48.5,-48)"><path d="M156.604,403.712l-55.333,-186.326l4.79311,-1.4234l55.333,186.326c-1.5977,0.474468 -3.19541,0.948936 -4.79311,1.4234Z" style="fill:#5c5e5f;fill-rule:nonzero;"/></g></g></g></g></svg>