<svg id="Layer_1" data-name="Layer 1" xmlns="http://www.w3.org/2000/svg" viewBox="0 0 962.57 109.64"><defs><style>.cls-2{fill:#1a914e}</style></defs><path d="M66.71 108.83c-2.53 0-5.14-.14-7.85-.41l-.72-.09C26.22 104 2.31 77.76 0 44.56l42.9-3c.73 10.61 7.42 22.12 20.7 24.11C76.83 66.91 83 60.45 96.81 42c11.41-15.2 25.61-34.1 50.68-40.19A66.51 66.51 0 01207 17a68.49 68.49 0 0123 59l-42.72-4.88a25.44 25.44 0 00-8.66-21.88 23.17 23.17 0 00-21-5.59c-9.6 2.33-16.3 10.72-26.44 24.22-13.13 17.45-30.8 40.95-64.47 40.96z" fill="#c1ebf7"/><path class="cls-2" d="M506.92 33.57v16.89A32.26 32.26 0 00493 48.58c-5.22.4-9 2.28-11.52 5-3.22 3.48-4.69 8.31-4.69 13.67v38.55h-18.38V33.44h16.08v9.91a22.31 22.31 0 017.77-8 27 27 0 0112.6-3.75 27.53 27.53 0 0112.06 1.97zM699.46 74c0 5.63-.27 10.32 1.47 13s4.83 3.89 7.64 4.15a59.53 59.53 0 0011.79-.53v15.18c-5.63 1.61-15.81 1.48-21.17.54-6.7-1.21-10.85-3.35-14.74-9.12s-3.22-13.4-3.22-22.11v-27.6H668.9V33.44h12.33V13.33h18.23v20.11h20.9v14.07h-20.9zM842.13 62v44.46h-18.64V63.37c0-5.27-1-8.51-3.52-11.35a12.9 12.9 0 00-18.64.14c-2.84 3.24-3.33 6.48-3.33 10.13v44.19h-18.7V63.37c0-5.27-.94-8.51-3.51-11.35a12.91 12.91 0 00-18.65.14c-2.84 3.24-3.38 6.48-3.38 10.13v44.19h-18.51v-73h16.22v7.84a27.68 27.68 0 0121.08-9.59c6.08 0 13.78 1.89 18.37 6.75A24.29 24.29 0 01794.3 43a27.75 27.75 0 0122.43-11.21c6.08 0 13.78 1.89 18.38 6.75 6.35 6.59 7.02 14.16 7.02 23.46zM875.41 33.51v73H857v-73z"/><circle class="cls-2" cx="866.22" cy="11.99" r="11.67"/><path class="cls-2" d="M534.13 85.13c3 4.05 8 6.22 13.38 6.22a16 16 0 0010.41-3.25 15.71 15.71 0 004.73-5.94L581 87.43a33.84 33.84 0 01-12.7 15.26 37.74 37.74 0 01-19.73 5.82c-11.08 0-22.43-4.19-29.05-12.17a39.66 39.66 0 01-8.92-25.4c0-10.54 3.11-20.27 8.92-27.29 6.76-8 17.16-12.17 28-12.17S566.84 35 573.59 43c7.3 8.51 9 19.46 8.11 32.16h-51.35a21.48 21.48 0 003.78 9.97zm.14-31.76a19.3 19.3 0 00-3.51 7.57h32.56a14.92 14.92 0 00-3-8.11c-2.84-3.65-7.84-5.4-12.84-5.4-4.7 0-9.56 1.35-13.21 5.94zM616.29 85.13c3 4.05 8 6.22 13.38 6.22a16 16 0 0010.4-3.25 15.61 15.61 0 004.73-5.94l18.38 5.27a33.93 33.93 0 01-12.71 15.26 37.73 37.73 0 01-19.72 5.82c-11.08 0-22.43-4.19-29-12.17a39.61 39.61 0 01-8.92-25.4c0-10.54 3.11-20.27 8.92-27.29 6.75-8 17.16-12.17 28-12.17S649 35 655.74 43c7.3 8.51 9.06 19.46 8.11 32.16h-51.34a21.48 21.48 0 003.78 9.97zm.13-31.76a19.44 19.44 0 00-3.51 7.57h32.57a14.93 14.93 0 00-3-8.11c-2.84-3.65-7.83-5.4-12.83-5.4-4.71 0-9.58 1.35-13.23 5.94zM366.57 38.53c-2.44-4.89-4.47-8.28-9.08-11A22.25 22.25 0 00346 24a22 22 0 00-11.8 2.71 9.57 9.57 0 00-5 8.13 6.48 6.48 0 001.8 4.63c1.77 1.9 6.24 3.67 11.12 5.16l16.95 4.88c8.68 2.58 13.7 5.15 18 9.22a28.26 28.26 0 019.09 20.75c0 8.54-4.89 17.49-12.61 22.64-7.46 5-16.41 6.24-26.72 6.24-13 0-24.14-3.39-32.14-13.15a46.49 46.49 0 01-8.81-19l18.71-5c.82 4.74 2.44 9.08 4.88 12.06 3.94 5.43 11.53 7.87 18 7.87 5.15 0 11.66-1.49 15.19-4.2a9.4 9.4 0 003.93-8 8.79 8.79 0 00-3-6.78 21.78 21.78 0 00-8.68-4.33l-18.17-5.29c-7.33-2-14-4.88-18.72-9.09-5.83-4.88-8.4-12.2-8.4-19 0-10.72 6.91-19.94 15.86-24 7.05-3.26 14.1-3.8 20.61-3.8s14 1.22 20.48 4.74c8.27 4.48 14.78 12.21 18.58 22.11z"/><path d="M422.37 74.19c0 5.69-.28 10.44 1.49 13.15s4.88 3.94 7.73 4.21a59.51 59.51 0 0011.93-.55v15.33c-5.7 1.62-16 1.49-21.43.54-6.78-1.22-11-3.39-14.91-9.22s-3.26-13.56-3.26-22.38V47.34h-12.47V33.1h12.47V12.76h18.45V33.1h21.15v14.24h-21.15z" fill="#199150"/><path class="cls-2" transform="rotate(43 924.79 69.998)" d="M916.34 23.66h16.9v92.67h-16.9z"/><path class="cls-2" transform="rotate(137 924.788 69.994)" d="M916.34 23.66h16.9v92.67h-16.9z"/></svg>