<svg clip-rule="evenodd" fill-rule="evenodd" stroke-linejoin="round" stroke-miterlimit="2" viewBox="0 0 80 80" xmlns="http://www.w3.org/2000/svg"><g transform="translate(-21.913 -16.984)"><circle cx="62.41338014" cy="60.50736162" fill="#c61111" r="28.09968902" stroke-width="1.35577"/><g fill="#fff" fill-rule="nonzero"><path d="m31.963 74.475v.04c0 4.412-3.63 8.042-8.041 8.042-4.412 0-8.042-3.63-8.042-8.042 0-.013 0-.027 0-.04s0-.027 0-.04c0-4.412 3.63-8.042 8.042-8.042 4.411 0 8.041 3.63 8.041 8.042z" transform="matrix(.54212 0 0 .54212 49.546 33.731)"/><path d="m62.486 43.817c1.713 0 4.371 1.365 4.371 3.06l-1.279 17.615c0 1.695-1.379 3.06-3.092 3.06s-3.091-1.365-3.091-3.06l-1.493-17.615c0-1.695 2.871-3.06 4.584-3.06z"/></g></g></svg>