<svg clip-rule="evenodd" fill-rule="evenodd" stroke-linejoin="round" stroke-miterlimit="2" viewBox="0 0 80 80" xmlns="http://www.w3.org/2000/svg"><g fill-rule="nonzero" transform="translate(-21.913 -16.984)"><path d="m12.473 121.08c-.914 1.76-1.991 3.41-1.991 5.34l.009.81c0 4.17 3.266 6.69 7.02 6.69h121.32c3.76 0 6.99-3.12 6.99-7.29l-.04-.81c0-1.94-.95-3.62-1.99-5.35l-60.084-107.78c-2.655-2.946-6.959-2.946-9.614.004l-61.619 108.39z" fill="#ffd42a" transform="matrix(.45541 0 0 .45541 26.271 23.868)"/><path d="m31.963 74.475v.04c0 4.412-3.63 8.042-8.041 8.042-4.412 0-8.042-3.63-8.042-8.042 0-.013 0-.027 0-.04s0-.027 0-.04c0-4.412 3.63-8.042 8.042-8.042 4.411 0 8.041 3.63 8.041 8.042z" transform="matrix(.54212 0 0 .54212 49.546 33.731)"/><path d="m62.486 43.817c1.713 0 4.371 1.365 4.371 3.06l-1.279 17.615c0 1.695-1.379 3.06-3.092 3.06s-3.091-1.365-3.091-3.06l-1.493-17.615c0-1.695 2.871-3.06 4.584-3.06z"/></g></svg>