<?xml version="1.0" encoding="UTF-8" standalone="no"?><!DOCTYPE svg PUBLIC "-//W3C//DTD SVG 1.1//EN" "http://www.w3.org/Graphics/SVG/1.1/DTD/svg11.dtd"><svg width="100%" height="100%" viewBox="0 0 36 36" version="1.1" xmlns="http://www.w3.org/2000/svg" xmlns:xlink="http://www.w3.org/1999/xlink" xml:space="preserve" xmlns:serif="http://www.serif.com/" style="fill-rule:evenodd;clip-rule:evenodd;stroke-linejoin:round;stroke-miterlimit:2;"><g id="aladdin"><path d="M29.192,36l-22.384,0l3.737,-4.541l0.343,-1l1.475,0l0.342,1l0.001,0.001l3.071,0l-0.105,-1.669l-6.532,-2.101l2.754,-10.309l0,0l-1.348,-1.349l-0.605,-3.994l4.514,-3.91l1.483,-0.364l-0.028,-0.11l0,-1.636l1.113,-1.112l1.97,0l1.113,1.112l0,1.636l-0.029,0.11l1.484,0.364l4.514,3.91l-0.604,3.994l-1.349,1.349l0,0l2.755,10.309l-6.533,2.101l-0.104,1.669l3.07,0l0.342,-1.002l1.476,0.001l0.342,1.001l0.001,0l0,0l3.721,4.54Zm-9.188,-20.672l-3.992,0l-3.143,1.156l0.605,8.99l3.205,2.216l2.659,0l3.205,-2.216l0.605,-8.99l-3.144,-1.156Z"/></g></svg>