<?xml version="1.0" encoding="UTF-8" standalone="no"?>
<!DOCTYPE svg PUBLIC "-//W3C//DTD SVG 1.1//EN" "http://www.w3.org/Graphics/SVG/1.1/DTD/svg11.dtd">
<svg width="100%" height="100%" viewBox="0 0 48 48" version="1.1" xmlns="http://www.w3.org/2000/svg" xmlns:xlink="http://www.w3.org/1999/xlink" xml:space="preserve" xmlns:serif="http://www.serif.com/" style="fill-rule:evenodd;clip-rule:evenodd;stroke-linejoin:round;stroke-miterlimit:2;">
    <g id="av-shuttle" transform="matrix(0.926506,-2.88804e-17,-2.88804e-17,1.04442,-20.4723,-251.704)">
        <g transform="matrix(1.12727,3.11713e-17,3.11713e-17,1,20.9456,240)">
            <path d="M12.397,44.252L12.347,44.252L10.457,42.247L11.327,15.215L13.106,13.072L22.758,13.068L23.194,11.758L24.965,11.753L25.387,13.067L35.307,13.063L37.145,15.187L37.543,42.284L35.605,44.252L35.52,44.252L35.368,45.993L32.115,45.993L31.76,44.252L16.152,44.252L15.8,45.993L12.547,45.999L12.397,44.252ZM15.313,39.265C15.313,39.873 14.819,40.367 14.211,40.367C13.602,40.367 13.109,39.873 13.109,39.265C13.109,38.656 13.602,38.163 14.211,38.163C14.819,38.163 15.313,38.656 15.313,39.265ZM35.067,39.265C35.067,39.873 34.574,40.367 33.965,40.367C33.357,40.367 32.864,39.873 32.864,39.265C32.864,38.656 33.357,38.163 33.965,38.163C34.574,38.163 35.067,38.656 35.067,39.265ZM21.712,38.26L21.69,40.234L26.305,40.234L26.305,38.26L21.712,38.26ZM14.001,17.75L13.529,33.771L15.69,36.089L32.37,36.041L34.594,33.742L34.35,17.729L14.001,17.75Z"/>
        </g>
        <g transform="matrix(0.106565,2.94675e-18,2.94675e-18,0.0945339,31.5137,239.366)">
            <g transform="matrix(4.88532,1.83286e-32,-1.83286e-32,4.88532,61.7748,-23.0141)">
                <path d="M21.673,26.869C21.673,28.25 20.555,29.367 19.175,29.367C17.795,29.367 16.677,28.25 16.677,26.869C16.677,25.489 17.795,24.371 19.175,24.371C20.555,24.371 21.673,25.489 21.673,26.869" style="fill-rule:nonzero;"/>
            </g>
            <g transform="matrix(4.88532,1.83286e-32,-1.83286e-32,4.88532,61.7748,-23.0141)">
                <path d="M25.32,24.575C24.677,24.575 24.048,24.261 23.671,23.679C23.613,23.597 22.026,21.301 19.091,21.301C16.045,21.301 14.347,23.683 14.332,23.71C13.725,24.609 12.504,24.845 11.602,24.239C10.703,23.631 10.466,22.41 11.073,21.51C11.187,21.341 13.929,17.367 19.091,17.367C24.196,17.367 26.856,21.366 26.966,21.538C27.559,22.447 27.3,23.666 26.39,24.257C26.059,24.472 25.688,24.575 25.32,24.575" style="fill-rule:nonzero;"/>
            </g>
            <g transform="matrix(4.88532,1.83286e-32,-1.83286e-32,4.88532,61.7748,-23.0141)">
                <path d="M30.152,19.619C29.587,19.619 29.025,19.377 28.636,18.907C28.601,18.865 24.674,14.254 19.291,14.254L19.174,14.254C13.377,14.326 9.243,18.768 9.202,18.813C8.47,19.611 7.229,19.672 6.426,18.941C5.625,18.213 5.562,16.975 6.289,16.172C6.501,15.937 11.577,10.418 19.125,10.321C26.513,10.265 31.458,16.148 31.666,16.399C32.358,17.236 32.241,18.477 31.404,19.169C31.037,19.473 30.593,19.619 30.152,19.619" style="fill-rule:nonzero;"/>
            </g>
        </g>
    </g>
</svg>
