<?xml version="1.0" standalone="no"?>
<!DOCTYPE svg PUBLIC "-//W3C//DTD SVG 1.1//EN" "http://www.w3.org/Graphics/SVG/1.1/DTD/svg11.dtd">
<svg width="48px" height="48px" version="1.1" xmlns="http://www.w3.org/2000/svg" xmlns:xlink="http://www.w3.org/1999/xlink" xml:space="preserve" style="fill-rule:evenodd;clip-rule:evenodd;stroke-linejoin:round;stroke-miterlimit:1.41421;">
    <g>
        <g id="bush">
            <g>
                <path d="M48,48L0,48L-0.0135,39.2526L1.8715,40.5626L2.5695,38.5976L4.7355,39.0896L5.4335,37.1246L9.4675,38.7226L10.3055,38.8866L15.982,37.6332L14.6122,35.5249L13.6463,35.0961L9.4203,36.6011L12.9779,33.0095L11.7023,31.0462L6.7693,31.8282L12.1713,28.5772L13.9085,30.6081L15.3732,30.7313L15.0843,27.8625L17.673,27.2284L15.9003,25.0303L11.8813,24.4533L16.2013,22.0073L20.0505,26.646L22.0641,26.1528L21.079,21.5986L19.124,19.8016L22.697,19.9796L23.661,23.8348L25.2386,22.4627L25.9566,24.7617L32.3482,27.5408L35.8713,23.8115L40.8743,27.3625L36.2613,26.3625L34.1583,31.8392L37.8794,30.5736L43.1974,34.3676L37.4104,32.8626L33.2192,34.2845L32.0373,37.3625L33.0896,39.582C34.4105,39.3433 35.3245,39.1746 35.3245,39.1746L37.6285,37.1246L42.8665,39.6656L48,40.8116L48,48Z" style="fill:black;"/>
            </g>
        </g>
    </g>
</svg>
