<?xml version="1.0" encoding="UTF-8" standalone="no"?>
<!DOCTYPE svg PUBLIC "-//W3C//DTD SVG 1.1//EN" "http://www.w3.org/Graphics/SVG/1.1/DTD/svg11.dtd">
<svg width="100%" height="100%" viewBox="0 0 48 48" version="1.1" xmlns="http://www.w3.org/2000/svg" xmlns:xlink="http://www.w3.org/1999/xlink" xml:space="preserve" xmlns:serif="http://www.serif.com/" style="fill-rule:evenodd;clip-rule:evenodd;stroke-linejoin:round;stroke-miterlimit:2;">
    <g id="car-with-bus" transform="matrix(0.887102,-2.76521e-17,-2.76521e-17,1,-18.5809,-241.643)">
        <g transform="matrix(1,-2.55736e-18,-2.55736e-18,1.01044,6.07846,-1.27501)">
            <path d="M36.688,265.987L39.053,261.816L57.144,261.774L59.895,266.001L36.688,265.987ZM31.156,271.231L36.994,271.223L36.784,274.126L31.307,274.132L31.652,280.519L31.668,280.519L31.989,284.25L35.858,284.242L35.907,284L36.982,280.533L58.715,280.59L59.809,284.119L59.834,284.242L63.704,284.242L64.27,280.603L64.208,280.603L64.724,274.123L59.231,274.126L59.021,271.223L64.947,271.231L64.965,271.097L57.857,260.498L38.382,260.498L31.147,271.181" style="fill-rule:nonzero;"/>
        </g>
        <g transform="matrix(1.09758,3.03503e-17,3.03503e-17,0.973661,21.9386,241.21)">
            <path d="M37.775,43.908L37.845,44.168L37.69,45.943L34.181,45.943L33.763,43.896L37.775,43.908ZM13.389,42.431L8.173,42.431L7.455,45.943L3.946,45.943L3.641,42.434L3.618,42.431L3.548,39.659L8.895,39.652L8.331,36.956L3.505,36.952L2.75,5.6L7.406,2.701L36.126,2.701L39.366,5.6L38.819,20.276L37,20.276L37.338,10.946L22.145,10.904L22.066,20.276L20.14,20.276L20.159,10.918L4.784,10.756L5.127,28.947L14.9,28.968L12.915,32.307L13.389,42.431Z"/>
        </g>
    </g>
</svg>
