<?xml version="1.0" encoding="UTF-8" standalone="no"?>
<!DOCTYPE svg PUBLIC "-//W3C//DTD SVG 1.1//EN" "http://www.w3.org/Graphics/SVG/1.1/DTD/svg11.dtd">
<svg width="100%" height="100%" viewBox="0 0 48 48" version="1.1" xmlns="http://www.w3.org/2000/svg" xmlns:xlink="http://www.w3.org/1999/xlink" xml:space="preserve" xmlns:serif="http://www.serif.com/" style="fill-rule:evenodd;clip-rule:evenodd;stroke-linejoin:round;stroke-miterlimit:2;">
    <g id="car-with-bike" transform="matrix(0.887102,-2.76521e-17,-2.76521e-17,1,-18.5809,-240)">
        <g transform="matrix(1.12727,3.11713e-17,3.11713e-17,1,24.6182,240)">
            <path d="M37.392,39.425L37.002,42.239L36.98,36.123L37.387,38.999L37.386,38.956L38.298,39.081L38.298,39.324L37.393,39.522L37.392,39.425ZM34.539,36.866L34.752,36.848L34.907,32.625L36.055,32.264L36.102,32.264L36.085,30.973L36.077,30.965L36.077,30.347L36.076,30.282L35.754,30.282L34.788,31.243L34.636,31.396L34.635,31.395L34.631,31.399L34.405,35.991L34.446,35.985L34.539,36.866ZM35.341,39.012L35.635,38.959L36.01,36.315L36.008,34.722L36.132,34.593L36.12,33.679L35.77,33.679L35.895,32.974L35.642,33.093L35.341,39.012ZM37.906,27.012L38.708,28.603L39.105,28.54L39.147,28.239L39.416,28.233L39.395,24.601L37.985,23.141L37.906,27.012ZM33.249,28.346L34.143,28.487L34.583,27.009L34.6,27.006L34.401,23.457L32.939,25.033L33.034,28.122L33.213,28.144L33.249,28.346ZM37.092,26.56L37.383,26.508L37.382,26.507L37.092,26.56ZM36.799,34.543L36.971,34.676L37.007,43.838L36.741,44.251L36.293,44.251L36.018,43.884L36.016,41.784L36.014,42.238L35.638,39.521L34.666,39.371L34.666,39.135L34.668,39.135L34.729,37.488L34.717,37.696L34.629,37.708L34.665,38.051L34.401,38.952L33.902,38.985L33.449,38.015L33.456,37.865L32.34,38.014L32.55,37.034L33.498,36.954L33.536,36.122L33.56,36.118L33.463,30.771L33.882,29.365L31.194,29.107L31.323,28.043L31.796,28.117L31.822,27.97L32.392,28.041L32.276,24.684L34.217,22.511L35.57,22.249L34.942,21.621L34.935,21.152L34.233,20.675L34.533,20.053L34.559,20.033L33.95,19.237L35.926,17.205L36.704,17.159L38.483,18.877L38.478,18.884L38.508,18.877L38.022,19.985L37.999,19.991L38.041,20.029L38.554,20.915L37.545,21.335L37.564,21.621L36.952,22.2L38.166,22.328L40.077,24.302L39.996,28.221L40.573,28.209L40.566,28.31L41.355,28.186L41.484,29.25L39.147,29.474L39.182,29.543L39.661,36.31L39.657,36.31L39.793,36.73L40.813,36.777L40.939,37.587L40.067,37.577L40.221,38.051L39.791,38.767L39.206,38.815L38.777,38.187L38.785,37.563L38.171,37.556L38.124,36.652L38.797,36.683L38.801,36.358L39.034,36.337L38.814,36.347L37.915,30.867L37.37,30.283L36.755,30.283L36.756,30.329L36.775,31.668L36.769,31.662L36.775,32.258L36.83,32.258L37.886,32.597L38.25,39.072L37.642,38.99L37.202,33.075L37.035,32.987L37.121,33.679L36.79,33.679L36.799,34.543Z"/>
        </g>
        <g transform="matrix(1,-2.55736e-18,-2.55736e-18,1.01044,-6.52877,-3.21792)">
            <path d="M36.688,265.987L39.053,261.816L57.144,261.774L59.895,266.001L36.688,265.987ZM31.156,271.231L36.994,271.223L36.784,274.126L31.307,274.132L31.652,280.519L31.668,280.519L31.989,284.25L35.858,284.242L35.907,284L36.982,280.533L58.715,280.59L59.809,284.119L59.834,284.242L63.704,284.242L64.27,280.603L64.208,280.603L64.724,274.123L59.231,274.126L59.021,271.223L64.947,271.231L64.965,271.097L57.857,260.498L38.382,260.498L31.147,271.181" style="fill-rule:nonzero;"/>
        </g>
    </g>
</svg>
