<?xml version="1.0" standalone="no"?>
<!DOCTYPE svg PUBLIC "-//W3C//DTD SVG 1.1//EN" "http://www.w3.org/Graphics/SVG/1.1/DTD/svg11.dtd">
<svg width="48px" height="48px" version="1.1" xmlns="http://www.w3.org/2000/svg" xmlns:xlink="http://www.w3.org/1999/xlink" xml:space="preserve" style="fill-rule:evenodd;clip-rule:evenodd;stroke-linejoin:round;stroke-miterlimit:1.41421;">
    <g>
        <g id="fence">
            <g>
                <g>
                    <path d="M25.5,42.9917L30.5358,48.0015L31.9538,48.0015L25.5,41.5977L25.5,42.9917ZM42.2406,41.6745L35.8854,48.0014L34.3794,48.0014L41.4968,40.9331L33.2751,32.7377L25.5,40.4761L25.5,38.9411L32.5159,31.981L25.5,24.9875L25.5,23.5995L33.2218,31.2808L41.4377,23.1302L33.2298,14.9614L25.5,22.6184L25.5,21.0814L32.489,14.2241L32.2638,14L34.2004,14L33.9334,14.2644L42.1554,22.4182L48.0003,16.6198L48.0003,18.0818L42.9008,23.1573L47.9998,28.214L47.9998,29.661L42.1829,23.8718L33.9805,32.0355L42.2115,40.2234L48.0004,34.4744L48.0004,35.9404L42.9552,40.9631L48,45.9815L48,47.4155L42.2406,41.6745Z" style="fill:black;"/>
                </g>
                <g>
                    <path d="M22.5004,42.9917L17.4646,48.0015L16.0466,48.0015L22.5004,41.5977L22.5004,42.9917ZM5.7598,41.6745L12.115,48.0014L13.621,48.0014L6.5036,40.9331L14.7253,32.7377L22.5004,40.4761L22.5004,38.9411L15.4845,31.981L22.5004,24.9875L22.5004,23.5995L14.7786,31.2808L6.56269,23.1302L14.7706,14.9614L22.5004,22.6184L22.5004,21.0814L15.5114,14.2241L15.7366,14L13.8,14L14.067,14.2644L5.84496,22.4182L0.0001,16.6198L0.0001,18.0818L5.09963,23.1573L0.0006,28.214L0.0006,29.661L5.81752,23.8718L14.0199,32.0355L5.7889,40.2234L0,34.4744L0,35.9404L5.04522,40.9631L0.0004,45.9815L0.0004,47.4155L5.7598,41.6745Z" style="fill:black;"/>
                </g>
                <g>
                    <path d="M42.0973,6.06855L38.1184,10L36.5814,10L41.3506,5.32445L39.2307,3.212L40.6607,3.212L42.0723,4.61696L43.5054,3.212L44.9884,3.212L42.8166,5.35783L47.4807,10L46.0427,10L42.0973,6.06855Z" style="fill:black;"/>
                </g>
                <g>
                    <path d="M6.29712,6.06855L2.31817,10L0.78117,10L5.55039,5.32445L3.43047,3.212L4.86047,3.212L6.27206,4.61696L7.70517,3.212L9.18817,3.212L7.01642,5.35783L11.6805,10L10.2425,10L6.29712,6.06855Z" style="fill:black;"/>
                </g>
                <g>
                    <path d="M23.9699,7.76946L22.036,10L20.419,10L23.1436,6.95322L20.079,3.926L20.079,3.212L20.768,3.212L23.813,6.20459L26.489,3.212L27.921,3.212L24.6302,7.00775L27.675,10L26.228,10L23.9699,7.76946Z" style="fill:black;"/>
                </g>
            </g>
            <g>
                <rect x="0.0003" y="10" width="47.9997" height="4" style="fill:black;"/>
            </g>
            <g>
                <path d="M22.5,48L22.5,14L25.5,14L25.5,48L22.5,48Z" style="fill:black;"/>
            </g>
        </g>
    </g>
</svg>
