<?xml version="1.0" encoding="UTF-8" standalone="no"?><!DOCTYPE svg PUBLIC "-//W3C//DTD SVG 1.1//EN" "http://www.w3.org/Graphics/SVG/1.1/DTD/svg11.dtd"><svg width="100%" height="100%" viewBox="0 0 36 36" version="1.1" xmlns="http://www.w3.org/2000/svg" xmlns:xlink="http://www.w3.org/1999/xlink" xml:space="preserve" xmlns:serif="http://www.serif.com/" style="fill-rule:evenodd;clip-rule:evenodd;stroke-linejoin:round;stroke-miterlimit:2;"><g id="jasmine"><path d="M2.919,36l0.033,-0.046l0,0l0.768,-1.104l4.755,-2.44l0,-0.001l-0.188,-0.374l0.471,-0.256l-6.188,-8.741l-0.501,-4.214l1.058,-2.171l1.355,-0.817l0,0l0.316,-1.78l0.753,-0.187l-0.001,0l0.88,-2.839l4.361,-2.282l4.361,2.282l0.881,2.839l-0.001,0l0.753,0.187l0.316,1.781l0.001,0l1.356,0.816l1.057,2.172l-0.502,4.213l-3.665,5.178l0,2.269l2.121,2.121l2.281,-2.28l4.159,-5.75l0,2.96l7.522,-3.747l4,2.387l-2.08,5.48l-1.36,-2.28l-3.84,0.16l-2.613,6.464l-22.619,0Zm8.687,-20.979l-0.817,0.816l-0.343,-0.344l0,-0.002l-0.47,-0.469l-1.041,1.872l-3.27,2.167l0,0l-0.001,0l0.111,1.527l-0.904,0.366l0,0.001l0,0l-0.145,1.379l0.674,1.061l0.589,0.129l0.126,1.722l3.202,3.235l0.001,0.001l0.471,0.475l2.004,0l0.472,-0.476l0.001,0l3.203,-3.235l0.126,-1.722l0.588,-0.129l0.674,-1.061l-0.145,-1.379l-0.904,-0.367l0.111,-1.527l-3.272,-2.167l-1.04,-1.873l-0.001,0l0,0Z" style="fill-rule:nonzero;"/></g></svg>