<?xml version="1.0" standalone="no"?>
<!DOCTYPE svg PUBLIC "-//W3C//DTD SVG 1.1//EN" "http://www.w3.org/Graphics/SVG/1.1/DTD/svg11.dtd">
<svg width="100%" height="100%" viewBox="0 0 48 48" version="1.1" xmlns="http://www.w3.org/2000/svg" xmlns:xlink="http://www.w3.org/1999/xlink" xml:space="preserve" style="fill-rule:evenodd;clip-rule:evenodd;stroke-linejoin:round;stroke-miterlimit:1.41421;">
    <g id="rainbow">
        <path d="M31,45.039L45.039,30.9579L45.039,45.039L31,45.039Z" style="fill:rgb(50,49,86);"/>
        <path d="M16,45.039L45.039,16.9572L45.039,30.9579L31,45.039L16,45.039Z" style="fill:rgb(54,99,135);"/>
        <path d="M45.039,16.9572L16,45.039L8,45.039L3.039,45.0366L3.039,44.9564L45,3.039L45.039,3.039L45.039,16.9572Z" style="fill:rgb(103,154,69);"/>
        <path d="M3.039,44.9564L3.039,30.9557L31,3.039L45,3.039L3.039,44.9564Z" style="fill:rgb(255,232,118);"/>
        <path d="M3.039,30.9557L3.039,16.955L17,3.039L31,3.039L3.039,30.9557Z" style="fill:rgb(241,158,117);"/>
        <path d="M17,3.039L3.039,16.955L3.039,3.039L17,3.039Z" style="fill:rgb(174,32,37);"/>
    </g>
</svg>
