<?xml version="1.0" standalone="no"?>
<!DOCTYPE svg PUBLIC "-//W3C//DTD SVG 1.1//EN" "http://www.w3.org/Graphics/SVG/1.1/DTD/svg11.dtd">
<svg width="100%" height="100%" viewBox="0 0 48 48" version="1.1" xmlns="http://www.w3.org/2000/svg" xmlns:xlink="http://www.w3.org/1999/xlink" xml:space="preserve" style="fill-rule:evenodd;clip-rule:evenodd;stroke-linejoin:round;stroke-miterlimit:1.41421;">
    <g id="sharrow">
        <g transform="matrix(0.48,0,0,0.48,1.99968,1)">
            <path d="M0,33.334L45.834,16.667L91.668,33.334L91.668,41.667L45.834,25.001L0,41.667L0,33.334Z" style="fill:rgb(1,1,1);fill-rule:nonzero;"/>
        </g>
        <g transform="matrix(0.48,0,0,0.48,1.99968,1)">
            <path d="M0,16.667L45.834,0L91.668,16.667L91.668,25.001L45.834,8.333L0,25.001L0,16.667Z" style="fill:rgb(1,1,1);fill-rule:nonzero;"/>
        </g>
        <g transform="matrix(0.48,0,0,0.48,1.99968,-1)">
            <path d="M16.667,66.667C7.462,66.667 0,74.129 0,83.335C0,92.539 7.462,100 16.667,100C25.871,100 33.334,92.539 33.334,83.335C33.333,74.129 25.871,66.667 16.667,66.667ZM16.667,95.836C9.763,95.836 4.167,90.239 4.167,83.335C4.167,76.432 9.764,70.835 16.667,70.835C23.57,70.835 29.167,76.432 29.167,83.335C29.167,90.239 23.571,95.836 16.667,95.836Z" style="fill:rgb(1,1,1);fill-rule:nonzero;"/>
        </g>
        <g transform="matrix(0.48,0,0,0.48,1.99968,-1)">
            <path d="M75.001,66.667C65.795,66.667 58.334,74.129 58.334,83.335C58.334,92.539 65.795,100 75.001,100C84.205,100 91.668,92.539 91.668,83.335C91.668,74.129 84.205,66.667 75.001,66.667ZM75.001,95.836C68.098,95.836 62.501,90.239 62.501,83.335C62.501,76.432 68.098,70.835 75.001,70.835C81.905,70.835 87.502,76.432 87.502,83.335C87.502,90.239 81.905,95.836 75.001,95.836Z" style="fill:rgb(1,1,1);fill-rule:nonzero;"/>
        </g>
        <g transform="matrix(0.48,0,0,0.48,1.99968,-1)">
            <path d="M76.801,84.366C76.833,84.309 76.866,84.254 76.896,84.192C76.922,84.131 76.942,84.065 76.965,84.003C76.986,83.941 77.008,83.876 77.025,83.812C77.039,83.75 77.046,83.687 77.055,83.623C77.066,83.548 77.075,83.476 77.078,83.398C77.078,83.377 77.083,83.357 77.083,83.336C77.083,83.295 77.074,83.258 77.072,83.216C77.067,83.139 77.061,83.066 77.049,82.988C77.038,82.923 77.021,82.859 77.005,82.794C76.986,82.73 76.969,82.666 76.943,82.602C76.917,82.531 76.884,82.462 76.85,82.395C76.83,82.359 76.82,82.322 76.8,82.288L62.83,58.334L67.079,51.051C67.659,50.057 67.322,48.781 66.328,48.201C65.893,47.948 65.406,47.879 64.946,47.954C64.828,47.933 64.708,47.918 64.585,47.918L56.25,47.918C55.1,47.918 54.168,48.851 54.168,50.001C54.168,51.151 55.1,52.084 56.25,52.084L61.652,52.084L59.22,56.25L34.877,56.25L39.74,47.918L41.668,47.918C42.817,47.918 43.75,46.985 43.75,45.834C43.75,44.684 42.817,43.751 41.668,43.751L31.25,43.751C30.101,43.751 29.168,44.684 29.168,45.834C29.168,46.985 30.101,47.918 31.25,47.918L34.915,47.918L14.868,82.286C14.288,83.278 14.624,84.555 15.618,85.135C15.948,85.326 16.309,85.419 16.665,85.419C17.381,85.419 18.08,85.049 18.466,84.385L31.25,62.47L44.035,84.385C44.049,84.409 44.067,84.431 44.083,84.456C44.101,84.484 44.119,84.512 44.139,84.538C44.153,84.558 44.164,84.578 44.18,84.598C44.232,84.667 44.287,84.729 44.347,84.789C44.352,84.796 44.36,84.805 44.367,84.812C44.385,84.83 44.405,84.846 44.425,84.864C44.443,84.882 44.463,84.896 44.482,84.914C44.534,84.957 44.587,85.002 44.645,85.041C44.666,85.058 44.689,85.07 44.713,85.086C44.731,85.097 44.747,85.107 44.765,85.118C44.772,85.124 44.78,85.129 44.786,85.133C44.79,85.137 44.791,85.137 44.795,85.14C44.852,85.172 44.911,85.2 44.97,85.226C44.977,85.23 44.984,85.234 44.991,85.237C45.004,85.243 45.018,85.252 45.032,85.257C45.036,85.259 45.041,85.263 45.047,85.263C45.09,85.281 45.136,85.295 45.181,85.31C45.222,85.324 45.263,85.34 45.306,85.351C45.315,85.353 45.324,85.354 45.331,85.356C45.347,85.36 45.361,85.362 45.377,85.365C45.404,85.371 45.431,85.376 45.458,85.382C45.583,85.405 45.707,85.421 45.832,85.421L45.836,85.421C45.839,85.421 45.841,85.419 45.843,85.419L74.996,85.419C74.999,85.419 75.001,85.421 75.003,85.421C75.128,85.421 75.252,85.405 75.377,85.382C75.404,85.376 75.431,85.371 75.459,85.365C75.576,85.339 75.69,85.306 75.805,85.258C75.818,85.253 75.83,85.244 75.845,85.238C75.914,85.206 75.985,85.174 76.052,85.134C76.071,85.123 76.084,85.109 76.103,85.098C76.167,85.057 76.226,85.012 76.287,84.966C76.336,84.926 76.388,84.887 76.433,84.844C76.483,84.797 76.526,84.745 76.571,84.694C76.614,84.644 76.661,84.593 76.698,84.54C76.734,84.484 76.767,84.426 76.801,84.366ZM71.374,81.251L49.461,81.251L60.417,62.47L71.374,81.251ZM45.834,79.199L34.877,60.418L56.789,60.418L45.834,79.199Z" style="fill:rgb(1,1,1);fill-rule:nonzero;"/>
        </g>
    </g>
</svg>
