<?xml version="1.0" standalone="no"?>
<!DOCTYPE svg PUBLIC "-//W3C//DTD SVG 1.1//EN" "http://www.w3.org/Graphics/SVG/1.1/DTD/svg11.dtd">
<svg width="48px" height="48px" version="1.1" xmlns="http://www.w3.org/2000/svg" xmlns:xlink="http://www.w3.org/1999/xlink" xml:space="preserve" style="fill-rule:evenodd;clip-rule:evenodd;stroke-linejoin:round;stroke-miterlimit:1.41421;">
    <g>
        <g id="sidewalk-density-dense">
            <g>
                <path d="M31.4256,41.6264L31.8652,44.9449L32.318,37.821L31.4256,41.6264ZM17.273,43.809L17.7688,41.1234L16.884,34.753L17.273,43.809ZM19.7991,42.7184L19.9317,43.7193L20.068,41.572L19.7991,42.7184ZM29.4026,40.7085L29.4275,40.5733L29.383,40.253L29.4026,40.7085ZM6.811,48.001L7.569,36.072L4.77,48.001L2.983,48.001L5.673,33.434L8.475,31.723L8.512,31.761L9.836,30.879L10.31,29.533L8.324,27.225L8.312,26.366L7.163,26.321L7.109,25.321L5.863,25.48L6.142,21.57L9.701,19.791L9.712,19.751L16.343,20.392L16.896,25.108L16.222,25.149L16.264,26.032L14.967,25.965L15.049,27.225L13.374,29.379L13.834,30.507L15.398,31.29L14.916,32.07L15.461,31.229L18.449,32.528L19.2135,38.2986L20.975,37.223L21.012,37.261L22.335,36.379L22.81,35.033L20.824,32.725L20.812,31.866L19.663,31.821L19.609,30.821L18.363,30.98L18.642,27.07L22.201,25.291L22.212,25.251L28.843,25.892L29.397,30.609L28.722,30.65L28.763,31.532L27.466,31.465L27.549,32.725L25.874,34.879L26.334,36.007L27.898,36.791L27.416,37.57L27.96,36.729L29.9757,37.605L30.423,35.183L33.225,33.473L33.261,33.51L34.586,32.628L35.06,31.283L33.074,28.975L33.062,28.115L31.914,28.071L31.859,27.07L30.613,27.229L30.892,23.32L34.451,21.541L34.462,21.5L41.093,22.142L41.646,26.858L40.972,26.899L41.014,27.782L39.717,27.715L39.799,28.975L38.124,31.128L38.584,32.257L40.148,33.04L39.666,33.82L40.211,32.978L43.199,34.277L45.017,48L43.231,48L41.634,36.502L42.128,48L32.2699,48L32.27,48.001L30.46,48.001L30.263,46.5841L29.931,48L29.716,48L29.716,48.001L18.724,48.001L18.663,47.5619L18.56,48.001L6.811,48.001Z" style="fill:black;"/>
            </g>
        </g>
    </g>
</svg>
