<?xml version="1.0" standalone="no"?>
<!DOCTYPE svg PUBLIC "-//W3C//DTD SVG 1.1//EN" "http://www.w3.org/Graphics/SVG/1.1/DTD/svg11.dtd">
<svg width="48px" height="48px" version="1.1" xmlns="http://www.w3.org/2000/svg" xmlns:xlink="http://www.w3.org/1999/xlink" xml:space="preserve" style="fill-rule:evenodd;clip-rule:evenodd;stroke-linejoin:round;stroke-miterlimit:1.41421;">
    <g>
        <g id="tree">
            <g>
                <path d="M8.422,0.001L9.666,1.674L7.427,3.061L11.965,3.849L11.639,5.72L8.853,5.967L8.546,7.853L10.377,8.77L9.986,9.506L7.746,14.72L10.524,15.059L10.453,16.087L11.662,15.993L10.057,18.06L8.493,18.741L9.986,22.794L7.693,23.247L7.747,24.181L10.057,24.583L10.173,25.887L11.866,25.74L12.751,27.411L9.187,29.514L9.346,31.273L12.707,32.873L11.8,33.567L15.32,35.274L18.158,33.316L23.669,40.377L23.709,42.945L23.65,45.197L23.646,45.202L23.603,47.012L23.577,48.002L25.351,48.002L25.178,43.701L25.18,43.688L25.178,43.69L25.178,43.688L30.06,38.802L32.374,29.557L38.773,29.76L36.612,26.975L37.506,27.033L37.218,26.169L40.573,25.76L38.333,20.547L37.945,19.807L39.773,18.893L39.613,17.567L36.679,16.76L36.344,14.826L36.937,13.774L40.573,13.141L38.333,11.754L37.774,8.927L39.827,7.7L37.814,6.827L38.093,5.188L40.252,4.64L38.306,2.848L38.484,0.001ZM20.788,0.914L20.819,0.913L20.811,0.926ZM18.706,3.113L18.743,3.126L18.673,3.148ZM25.659,30.209L25.652,29.49L25.658,29.361L30.973,27.271L31.6,28.84L29.013,38.248L25.087,41.441L25.055,40.635L25.111,39.59L25.112,39.592ZM23.029,36.365L20.069,31.999L22.515,30.311L23.503,30.342L23.604,37.207Z" style="fill:black;fill-rule:nonzero;"/>
            </g>
        </g>
    </g>
</svg>
