<?xml version="1.0" standalone="no"?>
<!DOCTYPE svg PUBLIC "-//W3C//DTD SVG 1.1//EN" "http://www.w3.org/Graphics/SVG/1.1/DTD/svg11.dtd">
<svg width="48px" height="48px" version="1.1" xmlns="http://www.w3.org/2000/svg" xmlns:xlink="http://www.w3.org/1999/xlink" xml:space="preserve" style="fill-rule:evenodd;clip-rule:evenodd;stroke-linejoin:round;stroke-miterlimit:1.41421;">
    <g>
        <g id="turn-lane-shared">
            <g>
                <path d="M25.6857,48L19.1002,48C19.1066,47.823 19.1132,47.6401 19.12,47.4511C19.247,43.8751 19.48,38.8561 19.812,36.8711C20.35,33.6541 21.98,25.9571 33.313,25.7061L33.313,18.7571L47.934,30.1021L33.313,40.0341L33.313,32.3061C29.594,32.4011 27.36,31.7641 26.325,37.9591C25.9507,40.1948 25.7677,44.5969 25.6857,48Z" style="fill:black;"/>
            </g>
            <g>
                <path d="M28.9458,0C28.9359,0.279035 28.9253,0.573635 28.914,0.8849C28.787,4.4609 28.554,9.4799 28.222,11.4649C27.684,14.6819 26.054,22.3789 14.721,22.6299L14.721,29.5789L0.1,18.2339L14.721,8.3019L14.721,16.0299C18.44,15.9349 20.674,16.5719 21.709,10.3769C22.0957,8.0669 22.2783,3.44403 22.3562,0L28.9458,0Z" style="fill:black;"/>
            </g>
        </g>
    </g>
</svg>
