<?xml version="1.0" encoding="UTF-8" standalone="no"?>
<!DOCTYPE svg PUBLIC "-//W3C//DTD SVG 1.1//EN" "http://www.w3.org/Graphics/SVG/1.1/DTD/svg11.dtd">
<svg width="100%" height="100%" viewBox="0 0 48 48" version="1.1" xmlns="http://www.w3.org/2000/svg" xmlns:xlink="http://www.w3.org/1999/xlink" xml:space="preserve" xmlns:serif="http://www.serif.com/" style="fill-rule:evenodd;clip-rule:evenodd;stroke-linejoin:round;stroke-miterlimit:2;">
    <g transform="matrix(1.01734,0,0,1.01734,-0.416057,-0.416057)">
        <g id="vendor-table">
            <path d="M25.178,41.524L25.353,44.38L26.538,44.38L26.734,43.823L26.385,41.521L25.178,41.524ZM23.154,41.838L22.814,44.308L24.517,44.265L24.537,41.838L23.154,41.838ZM24.032,9.694L23.123,9.659L22.63,8.743L23.005,4.818L24.933,3.62L24.93,3.654L26.895,4.618L27.447,8.837L26.784,9.8L26.11,9.774L26.261,10.204L26.846,10.594L26.865,10.558L28.328,11.563L28.303,11.597L29.374,21.197L29.369,21.199L29.604,22.448L29.201,24.435L28.475,24.028L28.621,22.834L27.961,22.67L28.505,21.458L27.341,13.059L27.224,18.331L27.291,18.754L27.306,18.754L27.357,19.036L27.365,19.036L27.416,19.36L27.447,19.53L27.443,19.53L28.236,24.576L28.28,24.662L28.867,24.662L29.095,25.118L29.175,24.956L29.91,24.956L30.35,24.075L31.51,24.075L31.803,24.662L32.097,24.662L32.398,25.264L32.699,24.662L33.859,24.662L34.401,25.747L37.919,25.747L37.919,28.067L36.759,28.067L36.759,44.305L34.439,44.305L34.439,28.067L28.786,28.067L29.257,31.064L28.303,31.071L27.599,31.077L26.385,41.52L25.178,41.51L25.139,31.096L25.077,31.097L24.537,41.838L23.154,41.838L22.691,31.115L20.839,31.13L20.865,30.962L21.301,28.067L13.561,28.067L13.561,44.305L11.241,44.305L11.241,28.067L10.081,28.067L10.081,25.747L13.892,25.747L14.141,25.25L15.301,25.25L15.455,25.558L15.617,25.235L14.736,25.235L15.316,24.075L16.475,24.075L16.754,24.633L17.033,24.075L18.193,24.075L18.487,24.662L19.074,24.662L19.496,25.507L20.498,23.503L21.989,23.503L22.641,19.177L22.674,19.176L22.782,18.472L22.412,12.163L21.581,10.984L23.189,10.321L23.198,10.343L23.913,9.986L24.032,9.694ZM17.349,25.235L17.489,25.514L17.628,25.235L17.349,25.235ZM30.475,25.235L30.563,25.411L30.651,25.235L30.475,25.235ZM28.621,22.834L28.683,22.319L28.635,22.837L28.621,22.834ZM21.327,16.621L21.57,10.999L22.399,12.153L22.223,16.839L22.223,16.839L19.545,20.309L19.352,20.18L19.352,20.18L19.545,20.309L18.773,20.892L17.802,20.196L17.041,20.196L17.621,19.036L18.781,19.036L19.167,19.809L21.327,16.621Z" style="fill-rule:nonzero;"/>
        </g>
    </g>
</svg>
