<svg clip-rule="evenodd" fill-rule="evenodd" stroke-linejoin="round" stroke-miterlimit="2" viewBox="0 0 768 732" xmlns="http://www.w3.org/2000/svg" xmlns:xlink="http://www.w3.org/1999/xlink"><clipPath id="a"><path clip-rule="evenodd" d="m462.973 545.211-11.335.108.019 174.02 11.307.325z"/></clipPath><clipPath id="b"><path clip-rule="nonzero" d="m502.663 318.946-29.26.229-.2-64.854 29.46-.121zm-33.46.062-30.566.145v-64.953l30.666-.079zm33.228-68.771-29.328.002.1-66.207 29.256.626zm-33.128.062-30.7-.083.034-66.205 30.666.21z"/></clipPath><clipPath id="c"><path clip-rule="nonzero" d="m502.663 318.946-29.26.229-.2-64.854 29.46-.121zm-33.46.062-30.566.145v-64.953l30.666-.079zm33.228-68.771-29.328.002.1-66.207 29.256.626zm-33.128.062-30.7-.083.034-66.205 30.666.21z"/></clipPath><clipPath id="d"><path clip-rule="nonzero" d="m502.663 318.946-29.26.229-.2-64.854 29.46-.121zm-33.46.062-30.566.145v-64.953l30.666-.079zm33.228-68.771-29.328.002.1-66.207 29.256.626zm-33.128.062-30.7-.083.034-66.205 30.666.21z"/></clipPath><g transform="matrix(-1 0 0 1 768.186 0)"><path d="m0 126.681h741.312v247.192h-741.312z" fill="#e1cfa8" transform="matrix(1 0 0 1.03169 0 -4.01457)"/><path d="m0 384.373h494.72v336.181h-494.72z" fill="#cfae80"/><path d="m53.734 583.957h60.314v136.597h-60.314z" fill="#978a74"/><path d="m114.079 588.892-.031-4.935h-60.314v136.597h5.586v-131.662z" fill="#2a2a29" fill-opacity=".12" transform="matrix(-1 0 0 1 167.813 0)"/><path d="m507.207 402.652v317.348l-77.684.554v-128.233c0-61.917-40.622-83.786-69.711-91.507-16.224-4.307-28.861-4.211-28.861-4.211s-97.089-.164-97.089 95.718v127.672h-40.192v-127.545c0-96.45-98.574-95.718-98.574-95.718s-44.346-.066-73.096 29.488v-120.276z" fill="#2a2a29" fill-opacity=".08"/><path d="m451.638 552.919h11.335v167.081h-11.335z" fill="#f6f1e2" transform="matrix(26.3911 0 0 1.04201 -11766.67 -30.248)"/><g transform="matrix(-25.2406 0 0 .922309 11844.71 49.447)"><path d="m462.973 545.211-11.335.108.019 174.02 11.307.325z" fill="#313156"/><g clip-path="url(#a)" fill-rule="nonzero"><path d="m669.433 913.975 98.816-93.505v-69.395l-89.366.564-162.485 162.336z" fill="#0a1723" fill-opacity=".3" transform="matrix(.0396188 0 0 1.08424 432.536 -271.3)"/><path d="m517.503 913.975 162.388-162.9h-6.023l-162.692 162.9z" fill="#494a72" transform="matrix(.0396188 0 0 1.08424 432.536 -271.3)"/><path d="m568.789 633.949-106.432 106.082.069-106.078z" fill="#0a1723" fill-opacity=".3" transform="matrix(.0396188 0 0 1.08424 432.922 -149.729)"/></g></g><path d="m158.172 583.609h286.914v6h-286.914z" fill="#f6f1e2" transform="matrix(1.00379 0 0 1 -.35 0)"/><path d="m384 559.3h6.867v152.315h-6.867z" fill="#f6f1e2" transform="matrix(1 0 0 1.07396 0 -50.365)"/><path d="m-.001 384.372v336.182h37.619v-190.377c0-61.917 40.76-83.786 69.947-91.508 16.28-4.306 28.959-4.211 28.959-4.211s97.418-.164 97.418 95.719v190.377h40.329v-190.25c0-96.451 98.908-95.719 98.908-95.719s97.418-.164 97.418 95.719v190.25h37.183v-192.328c0-96.451 98.907-95.719 98.907-95.719s97.419-.164 97.419 95.719v192.328h37.206v-336.182z" fill="#e1cfa8"/><path d="m10.3 19.652 19.522-.012 1.629-3.324-23.151.031 2 3.304z" fill="#f6f3ea" fill-rule="nonzero" transform="matrix(2.26609 0 0 2.26609 208.993 487.747)"/><path d="m234.255 532.28h39.537v7.221h-39.537z" fill="#a98b7e" transform="matrix(1.08759 0 0 1 -22.2489 0)"/><path d="m10.3 19.652 19.522-.012 1.629-3.324-23.151.031 2 3.304z" fill="#f6f3ea" fill-rule="nonzero" transform="matrix(2.13651044162 0 0 2.26609 446.568362274 487.747)"/><path d="m234.255 532.28h39.537v7.221h-39.537z" fill="#a98b7e" transform="matrix(1.02539942862 0 0 1 228.5493365998 0)"/><path d="m10.3 19.652 19.522-.012 1.629-3.324-23.151.031 2 3.304z" fill="#f6f3ea" fill-rule="nonzero" transform="matrix(2.13651044162 0 0 2.26609 679.818362274 487.747)"/><path d="m234.255 532.28h39.537v7.221h-39.537z" fill="#a98b7e" transform="matrix(1.02539942862 0 0 1 461.7993365998 0)"/><path d="m12.211 19.651 17.611-.011 1.629-3.324-19.24.031z" fill="#f6f3ea" fill-rule="nonzero" transform="matrix(2.26609 0 0 2.26609 -27.674 487.747)"/><path d="m234.255 532.28h39.537v7.221h-39.537z" fill="#a98b7e" transform="matrix(.982796 0 0 1 -230.22522 0)"/><g transform="matrix(1.12862 0 0 .634824 -252.81 -388.652)"><path d="m-.001 384.372h741.313v7.768h-741.313z" fill="#a98b7e" transform="matrix(.887681 0 0 1.57524 223.999 618.521)"/><path d="m224 1203h665.228l-7.181 21h-658.047z" fill="#f6f3ea" fill-rule="nonzero"/></g><path d="m516.286 1027.88-14.276 14.12h289.41l14.927-14.12z" fill="#0a1723" fill-opacity=".12" fill-rule="nonzero" transform="matrix(-.5 0 0 .5 937.892 -185.391)"/><path d="m140.388 539.055-71.633.141-.044-137.651 71.768-.064z" fill="#d9d4cb" fill-rule="nonzero" transform="matrix(1.04384 0 0 1.05463 498.51181 -237.747)"/><g fill-rule="nonzero" transform="matrix(-1 0 0 1 1078.123 7)"><path d="m502.663 318.946-29.26.229-.2-64.854 29.46-.121zm-33.46.062-30.566.145v-64.953l30.666-.079zm33.228-68.771-29.328.002.1-66.207 29.256.626zm-33.128.062-30.7-.083.034-66.205 30.666.21z" fill="#313156"/><g clip-path="url(#b)"><path d="m195.579 522.475.034-109.996-115.615 110.402z" fill="#0a1723" fill-opacity=".3" transform="translate(358.639 -198.596)"/><path d="m85.288 523.512 110.32-110.617.015.017.016-5.453-.579-.011-115.876 116.043z" fill="#494a72" transform="translate(354.194 -193.565)"/><path d="m73.951 442.975v-36.148l35.75.382" fill="#0a1723" fill-opacity=".3" transform="matrix(1.37892 0 0 1.37892 336.664 -376.97)"/></g></g><path d="m147.812 535.555-.872 3.797-9.462 9.451h-88.417l22.374-22.375z" fill="#2a2a29" fill-opacity=".12" fill-rule="nonzero" transform="matrix(-1 0 0 1 714.249 -191.818)"/><path d="m146.747 539.221h-80.321l-6.305-17.002h93.115z" fill="#f6f3ea" fill-rule="nonzero" transform="translate(500.524 -191.818)"/><path d="m153.236 392.553-3.748 8.992h-86.115l-3.748-8.992z" fill="#f6f3ea" fill-rule="nonzero" transform="translate(501.524 -215.815)"/><path d="m738 876h70v153h-70z" fill="#564139" transform="matrix(.5 0 0 .917459 276.054 -615.516)"/><path d="m580.568 892.532-3.852-7.871-47-.111-5.183 8.544z" fill="#745b4e" fill-rule="nonzero" transform="matrix(.5 0 0 .5 386.27875 -244.62634)"/><path d="m580.568 1021.93-3.852-7.87-47-.11-5.183 8.54z" fill="#745b4e" fill-rule="nonzero" transform="matrix(.5 0 0 .5 386.27875 -192.62634)"/><path d="m580.568 996.05-3.852-7.871-47-.111-5.183 8.544z" fill="#745b4e" fill-rule="nonzero" transform="matrix(.5 0 0 .5 386.27875 -196.35734)"/><path d="m580.568 970.17-3.852-7.871-47-.111-5.183 8.544z" fill="#745b4e" fill-rule="nonzero" transform="matrix(.5 0 0 .5 386.27875 -216.76034)"/><path d="m580.568 944.291-3.852-7.871-47-.111-5.183 8.544z" fill="#745b4e" fill-rule="nonzero" transform="matrix(.5 0 0 .5 386.27875 -220.49234)"/><path d="m580.568 918.412-3.852-7.871-47-.111-5.183 8.544z" fill="#745b4e" fill-rule="nonzero" transform="matrix(.5 0 0 .5 386.27875 -240.89434)"/><path d="m580.568 918.412-3.852-7.871-47-.111-5.183 8.544z" fill="#745b4e" fill-rule="nonzero" transform="matrix(.5 0 0 .5 386.27875 -224.22334)"/><path d="m580.568 918.412-3.852-7.871-47-.111-5.183 8.544z" fill="#745b4e" fill-rule="nonzero" transform="matrix(.5 0 0 .5 386.27875 -174.21034)"/><path d="m518 876h70v153h-70z" fill="#564139" transform="matrix(.5 0 0 .917459 276.05414 -615.51534)"/><g fill-rule="nonzero"><path d="m580.568 892.532-3.852-7.871-47-.111-5.183 8.544z" fill="#745b4e" transform="matrix(.5 0 0 .5 276.278757 -244.62634)"/><path d="m580.568 1021.93-3.852-7.87-47-.11-5.183 8.54z" fill="#745b4e" transform="matrix(.5 0 0 .5 276.278757 -192.62634)"/><path d="m580.568 996.05-3.852-7.871-47-.111-5.183 8.544z" fill="#745b4e" transform="matrix(.5 0 0 .5 276.278757 -196.35734)"/><path d="m580.568 970.17-3.852-7.871-47-.111-5.183 8.544z" fill="#745b4e" transform="matrix(.5 0 0 .5 276.278757 -216.76034)"/><path d="m580.568 944.291-3.852-7.871-47-.111-5.183 8.544z" fill="#745b4e" transform="matrix(.5 0 0 .5 276.278757 -220.49234)"/><path d="m580.568 918.412-3.852-7.871-47-.111-5.183 8.544z" fill="#745b4e" transform="matrix(.5 0 0 .5 276.278757 -240.89434)"/><path d="m580.568 918.412-3.852-7.871-47-.111-5.183 8.544z" fill="#745b4e" transform="matrix(.5 0 0 .5 276.278757 -224.22334)"/><path d="m580.568 918.412-3.852-7.871-47-.111-5.183 8.544z" fill="#745b4e" transform="matrix(.5 0 0 .5 276.278757 -174.21034)"/><path d="m516.286 1027.88-14.276 14.12h289.41l14.927-14.12z" fill="#0a1723" fill-opacity=".12" transform="matrix(-.5 0 0 .5 700.596 -185.391)"/><path d="m140.388 539.055-71.633.141-.044-137.651 71.768-.064z" fill="#d9d4cb" transform="matrix(1.04384 0 0 1.05463 261.21581 -237.747)"/><g transform="matrix(-1 0 0 1 840.827 7)"><path d="m502.663 318.946-29.26.229-.2-64.854 29.46-.121zm-33.46.062-30.566.145v-64.953l30.666-.079zm33.228-68.771-29.328.002.1-66.207 29.256.626zm-33.128.062-30.7-.083.034-66.205 30.666.21z" fill="#313156"/><g clip-path="url(#c)"><path d="m195.579 522.475.034-109.996-115.615 110.402z" fill="#0a1723" fill-opacity=".3" transform="translate(358.639 -198.596)"/><path d="m85.288 523.512 110.32-110.617.015.017.016-5.453-.579-.011-115.876 116.043z" fill="#494a72" transform="translate(354.194 -193.565)"/><path d="m73.951 442.975v-36.148l35.75.382" fill="#0a1723" fill-opacity=".3" transform="matrix(1.37892 0 0 1.37892 336.664 -376.97)"/></g></g><path d="m147.812 535.555-.872 3.797-9.462 9.451h-88.417l22.374-22.375z" fill="#2a2a29" fill-opacity=".12" transform="matrix(-1 0 0 1 476.953 -191.818)"/><path d="m146.747 539.221h-80.321l-6.305-17.002h93.115z" fill="#f6f3ea" transform="translate(263.228 -191.818)"/><path d="m153.236 392.553-3.748 8.992h-86.115l-3.748-8.992z" fill="#f6f3ea" transform="translate(264.228 -215.815)"/></g><path d="m738 876h70v153h-70z" fill="#564139" transform="matrix(.5 0 0 .917459 38.758 -615.516)"/><path d="m580.568 892.532-3.852-7.871-47-.111-5.183 8.544z" fill="#745b4e" fill-rule="nonzero" transform="matrix(.5 0 0 .5 148.98275 -244.62634)"/><path d="m580.568 1021.93-3.852-7.87-47-.11-5.183 8.54z" fill="#745b4e" fill-rule="nonzero" transform="matrix(.5 0 0 .5 148.98275 -192.62634)"/><path d="m580.568 996.05-3.852-7.871-47-.111-5.183 8.544z" fill="#745b4e" fill-rule="nonzero" transform="matrix(.5 0 0 .5 148.98275 -196.35734)"/><path d="m580.568 970.17-3.852-7.871-47-.111-5.183 8.544z" fill="#745b4e" fill-rule="nonzero" transform="matrix(.5 0 0 .5 148.98275 -216.76034)"/><path d="m580.568 944.291-3.852-7.871-47-.111-5.183 8.544z" fill="#745b4e" fill-rule="nonzero" transform="matrix(.5 0 0 .5 148.98275 -220.49234)"/><path d="m580.568 918.412-3.852-7.871-47-.111-5.183 8.544z" fill="#745b4e" fill-rule="nonzero" transform="matrix(.5 0 0 .5 148.98275 -240.89434)"/><path d="m580.568 918.412-3.852-7.871-47-.111-5.183 8.544z" fill="#745b4e" fill-rule="nonzero" transform="matrix(.5 0 0 .5 148.98275 -224.22334)"/><path d="m580.568 918.412-3.852-7.871-47-.111-5.183 8.544z" fill="#745b4e" fill-rule="nonzero" transform="matrix(.5 0 0 .5 148.98275 -174.21034)"/><path d="m518 876h70v153h-70z" fill="#564139" transform="matrix(.5 0 0 .917459 38.75814 -615.51534)"/><path d="m580.568 892.532-3.852-7.871-47-.111-5.183 8.544z" fill="#745b4e" fill-rule="nonzero" transform="matrix(.5 0 0 .5 38.982757 -244.62634)"/><path d="m580.568 1021.93-3.852-7.87-47-.11-5.183 8.54z" fill="#745b4e" fill-rule="nonzero" transform="matrix(.5 0 0 .5 38.982757 -192.62634)"/><path d="m580.568 996.05-3.852-7.871-47-.111-5.183 8.544z" fill="#745b4e" fill-rule="nonzero" transform="matrix(.5 0 0 .5 38.982757 -196.35734)"/><path d="m580.568 970.17-3.852-7.871-47-.111-5.183 8.544z" fill="#745b4e" fill-rule="nonzero" transform="matrix(.5 0 0 .5 38.982757 -216.76034)"/><path d="m580.568 944.291-3.852-7.871-47-.111-5.183 8.544z" fill="#745b4e" fill-rule="nonzero" transform="matrix(.5 0 0 .5 38.982757 -220.49234)"/><path d="m580.568 918.412-3.852-7.871-47-.111-5.183 8.544z" fill="#745b4e" fill-rule="nonzero" transform="matrix(.5 0 0 .5 38.982757 -240.89434)"/><path d="m580.568 918.412-3.852-7.871-47-.111-5.183 8.544z" fill="#745b4e" fill-rule="nonzero" transform="matrix(.5 0 0 .5 38.982757 -224.22334)"/><path d="m580.568 918.412-3.852-7.871-47-.111-5.183 8.544z" fill="#745b4e" fill-rule="nonzero" transform="matrix(.5 0 0 .5 38.982757 -174.21034)"/><path d="m516.286 1027.88-14.276 14.12h289.41l14.927-14.12z" fill="#0a1723" fill-opacity=".12" fill-rule="nonzero" transform="matrix(-.5 0 0 .5 463.6254 -185.391)"/><path d="m140.388 539.055-71.633.141-.044-137.651 71.768-.064z" fill="#d9d4cb" fill-rule="nonzero" transform="matrix(1.04384 0 0 1.05463 24.24521 -237.747)"/><g fill-rule="nonzero" transform="matrix(-1 0 0 1 603.8564 7)"><path d="m502.663 318.946-29.26.229-.2-64.854 29.46-.121zm-33.46.062-30.566.145v-64.953l30.666-.079zm33.228-68.771-29.328.002.1-66.207 29.256.626zm-33.128.062-30.7-.083.034-66.205 30.666.21z" fill="#313156"/><g clip-path="url(#d)"><path d="m195.579 522.475.034-109.996-115.615 110.402z" fill="#0a1723" fill-opacity=".3" transform="translate(358.639 -198.596)"/><path d="m85.288 523.512 110.32-110.617.015.017.016-5.453-.579-.011-115.876 116.043z" fill="#494a72" transform="translate(354.194 -193.565)"/><path d="m73.951 442.975v-36.148l35.75.382" fill="#0a1723" fill-opacity=".3" transform="matrix(1.37892 0 0 1.37892 336.664 -376.97)"/></g></g><path d="m147.812 535.555-.872 3.797-9.462 9.451h-88.417l22.374-22.375z" fill="#2a2a29" fill-opacity=".12" fill-rule="nonzero" transform="matrix(-1 0 0 1 239.9824 -191.818)"/><path d="m146.747 539.221h-80.321l-6.305-17.002h93.115z" fill="#f6f3ea" fill-rule="nonzero" transform="translate(26.2574 -191.818)"/><path d="m153.236 392.553-3.748 8.992h-86.115l-3.748-8.992z" fill="#f6f3ea" fill-rule="nonzero" transform="translate(27.2574 -215.815)"/><path d="m738 876h70v153h-70z" fill="#564139" transform="matrix(.5 0 0 .917459 -198.2126 -615.516)"/><path d="m580.568 892.532-3.852-7.871-47-.111-5.183 8.544z" fill="#745b4e" fill-rule="nonzero" transform="matrix(.5 0 0 .5 -87.98785 -244.62634)"/><path d="m580.568 1021.93-3.852-7.87-47-.11-5.183 8.54z" fill="#745b4e" fill-rule="nonzero" transform="matrix(.5 0 0 .5 -87.98785 -192.62634)"/><path d="m580.568 996.05-3.852-7.871-47-.111-5.183 8.544z" fill="#745b4e" fill-rule="nonzero" transform="matrix(.5 0 0 .5 -87.98785 -196.35734)"/><path d="m580.568 970.17-3.852-7.871-47-.111-5.183 8.544z" fill="#745b4e" fill-rule="nonzero" transform="matrix(.5 0 0 .5 -87.98785 -216.76034)"/><path d="m580.568 944.291-3.852-7.871-47-.111-5.183 8.544z" fill="#745b4e" fill-rule="nonzero" transform="matrix(.5 0 0 .5 -87.98785 -220.49234)"/><path d="m580.568 918.412-3.852-7.871-47-.111-5.183 8.544z" fill="#745b4e" fill-rule="nonzero" transform="matrix(.5 0 0 .5 -87.98785 -240.89434)"/><path d="m580.568 918.412-3.852-7.871-47-.111-5.183 8.544z" fill="#745b4e" fill-rule="nonzero" transform="matrix(.5 0 0 .5 -87.98785 -224.22334)"/><path d="m580.568 918.412-3.852-7.871-47-.111-5.183 8.544z" fill="#745b4e" fill-rule="nonzero" transform="matrix(.5 0 0 .5 -87.98785 -174.21034)"/><path d="m518 876h70v153h-70z" fill="#564139" transform="matrix(.5 0 0 .917459 -198.21246 -615.51534)"/><path d="m580.568 892.532-3.852-7.871-47-.111-5.183 8.544z" fill="#745b4e" fill-rule="nonzero" transform="matrix(.5 0 0 .5 -197.987843 -244.62634)"/><path d="m580.568 1021.93-3.852-7.87-47-.11-5.183 8.54z" fill="#745b4e" fill-rule="nonzero" transform="matrix(.5 0 0 .5 -197.987843 -192.62634)"/><path d="m580.568 996.05-3.852-7.871-47-.111-5.183 8.544z" fill="#745b4e" fill-rule="nonzero" transform="matrix(.5 0 0 .5 -197.987843 -196.35734)"/><path d="m580.568 970.17-3.852-7.871-47-.111-5.183 8.544z" fill="#745b4e" fill-rule="nonzero" transform="matrix(.5 0 0 .5 -197.987843 -216.76034)"/><path d="m580.568 944.291-3.852-7.871-47-.111-5.183 8.544z" fill="#745b4e" fill-rule="nonzero" transform="matrix(.5 0 0 .5 -197.987843 -220.49234)"/><path d="m580.568 918.412-3.852-7.871-47-.111-5.183 8.544z" fill="#745b4e" fill-rule="nonzero" transform="matrix(.5 0 0 .5 -197.987843 -240.89434)"/><path d="m580.568 918.412-3.852-7.871-47-.111-5.183 8.544z" fill="#745b4e" fill-rule="nonzero" transform="matrix(.5 0 0 .5 -197.987843 -224.22334)"/><path d="m580.568 918.412-3.852-7.871-47-.111-5.183 8.544z" fill="#745b4e" fill-rule="nonzero" transform="matrix(.5 0 0 .5 -197.987843 -174.21034)"/><path d="m224.009 1896h1456v24h-1456z" fill="#352d27" transform="matrix(.509615 0 0 .5 -114.158 -228)"/><g transform="matrix(.974418 0 0 .64633 -218.27 -346.252)"><path d="m224 710.359 776.59 3.61-125.892-149.874-650.698-1z" fill="#745b4e" fill-rule="nonzero"/><path d="m0 126.681h741.312v24.114h-741.312z" fill="#2a2a29" fill-opacity=".12" transform="matrix(1.02625 0 0 1.79654 224 504.132)"/><g fill-rule="nonzero"><path d="m166.751 330.156 3.127 9.402-18.691.036 3.043-9.479z" fill="#e7e5dd" transform="matrix(-1.02625 0 0 -1.5472 401.60820625 1258.0937552)"/><path d="m166.751 330.156 3.127 9.402-18.691.036 3.043-9.479z" fill="#e7e5dd" transform="matrix(-1.02625 0 0 -1.5472 656.97204625 1258.0937552)"/><path d="m166.751 330.156 3.127 9.402-18.691.036 3.043-9.479z" fill="#e7e5dd" transform="matrix(-1.02625 0 0 -1.5472 911.73860875 1258.0937552)"/><path d="m166.751 330.156 3.127 9.402-18.691.036 3.043-9.479z" fill="#e7e5dd" transform="matrix(-1.02625 0 0 -1.5472 529.22444625 1258.0937552)"/><path d="m166.751 330.156 3.127 9.402-18.691.036 3.043-9.479z" fill="#e7e5dd" transform="matrix(-1.02625 0 0 -1.5472 784.58828625 1258.0937552)"/><path d="m166.751 330.156 3.127 9.402-18.691.036 3.043-9.479z" fill="#e7e5dd" transform="matrix(-1.02625 0 0 -1.5472 1039.35484875 1258.0937552)"/><path d="m166.751 330.156 3.127 9.402-18.691.036 3.043-9.479z" fill="#e7e5dd" transform="matrix(-1.02625 0 0 -1.5472 465.44916625 1258.0937552)"/><path d="m166.751 330.156 3.127 9.402-18.691.036 3.043-9.479z" fill="#e7e5dd" transform="matrix(-1.02625 0 0 -1.5472 720.81300625 1258.0937552)"/><path d="m166.751 330.156 3.127 9.402-18.691.036 3.043-9.479z" fill="#e7e5dd" transform="matrix(-1.02625 0 0 -1.5472 975.57956875 1258.0937552)"/><path d="m166.751 330.156 3.127 9.402-18.691.036 3.043-9.479z" fill="#e7e5dd" transform="matrix(-1.02625 0 0 -1.5472 593.06540625 1258.0937552)"/><path d="m166.751 330.156 3.127 9.402-18.691.036 3.043-9.479z" fill="#e7e5dd" transform="matrix(-1.02625 0 0 -1.5472 848.42924625 1258.0937552)"/><path d="m166.751 330.156 3.127 9.402-18.691.036 3.043-9.479z" fill="#e7e5dd" transform="matrix(-1.02625 0 0 -1.5472 1103.19580875 1258.0937552)"/><path d="m166.751 330.156 3.127 9.402-18.691.036 3.043-9.479z" fill="#e7e5dd" transform="matrix(-1.02625 0 0 -1.5472 433.52868625 1258.0937552)"/><path d="m166.751 330.156 3.127 9.402-18.691.036 3.043-9.479z" fill="#e7e5dd" transform="matrix(-1.02625 0 0 -1.5472 688.89252625 1258.0937552)"/><path d="m166.751 330.156 3.127 9.402-18.691.036 3.043-9.479z" fill="#e7e5dd" transform="matrix(-1.02625 0 0 -1.5472 943.65908875 1258.0937552)"/><path d="m166.751 330.156 3.127 9.402-18.691.036 3.043-9.479z" fill="#e7e5dd" transform="matrix(-1.02625 0 0 -1.5472 561.14492625 1258.0937552)"/><path d="m166.751 330.156 3.127 9.402-18.691.036 3.043-9.479z" fill="#e7e5dd" transform="matrix(-1.02625 0 0 -1.5472 816.50876625 1258.0937552)"/><path d="m166.751 330.156 3.127 9.402-18.691.036 3.043-9.479z" fill="#e7e5dd" transform="matrix(-1.02625 0 0 -1.5472 1071.27532875 1258.0937552)"/><path d="m166.751 330.156 3.127 9.402-18.691.036 3.043-9.479z" fill="#e7e5dd" transform="matrix(-1.02625 0 0 -1.5472 497.36964625 1258.0937552)"/><path d="m166.751 330.156 3.127 9.402-18.691.036 3.043-9.479z" fill="#e7e5dd" transform="matrix(-1.02625 0 0 -1.5472 752.73348625 1258.0937552)"/><path d="m166.751 330.156 3.127 9.402-18.691.036 3.043-9.479z" fill="#e7e5dd" transform="matrix(-1.02625 0 0 -1.5472 1007.50004875 1258.0937552)"/><path d="m166.751 330.156 3.127 9.402-18.691.036 3.043-9.479z" fill="#e7e5dd" transform="matrix(-1.02625 0 0 -1.5472 624.98588625 1258.0937552)"/><path d="m166.751 330.156 3.127 9.402-18.691.036 3.043-9.479z" fill="#e7e5dd" transform="matrix(-1.02625 0 0 -1.5472 880.34972625 1258.0937552)"/><path d="m166.751 330.156 3.127 9.402-18.691.036 3.043-9.479z" fill="#e7e5dd" transform="matrix(-1.02625 0 0 -1.5472 1135.11628875 1258.0937552)"/><path d="m741.312 137.862v-11.181h15.406l-5.242 10.938z" fill="#d9d4cb" transform="matrix(1.02625 0 0 1.5472 224 535.72)"/><path d="m0 112.875h768.187l-4.942 13.801-763.245.621z" fill="#f6f3ea" transform="matrix(1.02625 0 0 1.5472 224 537.267)"/></g></g></g></svg>