<?xml version="1.0" encoding="UTF-8" standalone="no"?>
<!DOCTYPE svg PUBLIC "-//W3C//DTD SVG 1.1//EN" "http://www.w3.org/Graphics/SVG/1.1/DTD/svg11.dtd">
<svg width="100%" height="100%" viewBox="0 0 150 220" version="1.1" xmlns="http://www.w3.org/2000/svg" xmlns:xlink="http://www.w3.org/1999/xlink" xml:space="preserve" xmlns:serif="http://www.serif.com/" style="fill-rule:evenodd;clip-rule:evenodd;stroke-linejoin:round;stroke-miterlimit:2;">
    <g id="compound-wall-right" transform="matrix(1,0,0,1,0,-580)">
        <g transform="matrix(1,0,0,1,-73.3955,0)">
            <g transform="matrix(-1.27,0,0,1.27,2255.57,67.4005)">
                <rect x="1599.75" y="406.85" width="118.5" height="158" style="fill:rgb(244,242,237);"/>
            </g>
            <g transform="matrix(-1.27,0,0,1.27,2285.67,-118.21)">
                <rect x="1623.45" y="556.95" width="94.8" height="3.95" style="fill:rgb(193,190,187);"/>
            </g>
            <g transform="matrix(0.909924,0.885967,0.885967,-0.909924,172.447,615.102)">
                <path d="M-53.174,-23.216L-47.66,-23.216L57.124,-130.834L54.294,-133.589L-53.174,-23.216Z" style="fill:rgb(215,211,204);fill-rule:nonzero;"/>
            </g>
            <g transform="matrix(-1.27,0,0,1.27,2290.69,77.4335)">
                <rect x="1627.4" y="406.85" width="90.85" height="150.1" style="fill:rgb(229,227,222);"/>
            </g>
        </g>
        <g transform="matrix(0.375,0,0,1.27,-636.719,-369.511)">
            <path d="M1697.92,920.875L2097.92,920.875L2097.92,908.875L1697.92,908.875L1697.92,920.875Z" style="fill:rgb(53,45,39);fill-rule:nonzero;"/>
        </g>
    </g>
</svg>
