<svg clip-rule="evenodd" fill-rule="evenodd" stroke-linejoin="round" stroke-miterlimit="2" viewBox="0 0 160 240" xmlns="http://www.w3.org/2000/svg"><path d="m1757.75 406.85h118.5v158h-118.5z" fill="#f4f2ed" transform="matrix(1.35021 0 0 1.32911 -2373.33 -525.99)"/><path d="m1757.75 406.85h90.85v150.1h-90.85z" fill="#e5e3de" transform="matrix(1.2975 0 0 1.27 -2281.17 -482.567)"/><path d="m1757.75 556.95h94.8v3.95h-94.8z" fill="#c1bebb" transform="matrix(1.31109 0 0 1.77467 -2305.06 -961.282)"/><g fill-rule="nonzero"><path d="m-55.912-129.762 7.865-.119 29.617 31.21 72.89 74.202-4.116 4.008z" fill="#d7d3cc" transform="matrix(-.946835 .921905 .921811 .946738 190.49 201.68)"/><path d="m1697.92 920.875h400v-12h-400z" fill="#352d27" transform="matrix(.4 0 0 1.27 -679.167 -929.511)"/></g></svg>