<?xml version="1.0" encoding="UTF-8" standalone="no"?>
<!DOCTYPE svg PUBLIC "-//W3C//DTD SVG 1.1//EN" "http://www.w3.org/Graphics/SVG/1.1/DTD/svg11.dtd">
<svg width="100%" height="100%" viewBox="0 0 96 192" version="1.1" xmlns="http://www.w3.org/2000/svg" xmlns:xlink="http://www.w3.org/1999/xlink" xml:space="preserve" style="fill-rule:evenodd;clip-rule:evenodd;stroke-linejoin:round;stroke-miterlimit:1.41421;">
    <g id="fenced-lot-right" transform="matrix(0.5,0,0,0.5,-2651.36,-259.75)">
        <g id="grass" transform="matrix(2.0004,0,0,2.0004,-5307.84,-863.845)">
            <path d="M5343.06,853.109L5329.26,833.209L5331.87,828.634L5344.7,851.797L5343.06,853.109Z" style="fill:rgb(102,156,70);fill-rule:nonzero;"/>
            <path d="M5363.7,825.534L5364.08,831.252L5372.2,823.574L5378.7,840.025L5383.61,853.939L5388.19,854.13L5373.2,819L5363.7,825.534Z" style="fill:rgb(137,187,107);fill-rule:nonzero;"/>
            <path d="M5389.86,851.107L5384.19,812.003L5391.61,832.825" style="fill:rgb(102,156,70);fill-rule:nonzero;"/>
            <path d="M5372.26,842.525L5355.59,845.596L5348.59,846.619L5339.76,841.91L5328.42,843.139L5309.92,844.981L5309.59,858.292L5400.09,856.249L5400.09,846.409L5390.42,846.211L5380.26,841.5L5372.26,842.525Z" style="fill:rgb(137,187,107);fill-rule:nonzero;"/>
            <path d="M5339.64,853.838L5336.86,810.672L5342.75,817.089L5342.26,830.505L5339.64,853.838Z" style="fill:rgb(102,156,70);fill-rule:nonzero;"/>
            <path d="M5349.99,809.796L5352.12,813.734L5348.52,829.775L5342.95,842.171L5338.04,852.817L5333.46,852.962L5341.97,835.025L5349.99,809.796Z" style="fill:rgb(137,187,107);fill-rule:nonzero;"/>
            <path d="M5392.02,855.006L5393.97,831.875L5398.97,827.375L5398.22,821.625L5391.34,829.5L5388.84,850L5392.02,855.006Z" style="fill:rgb(102,156,70);fill-rule:nonzero;"/>
            <path d="M5319.14,847.664L5325.26,827.157L5325.19,824.946L5320.11,831.962L5319.14,847.664Z" style="fill:rgb(137,187,107);fill-rule:nonzero;"/>
            <path d="M5307.69,858.741L5307.32,850.285L5313.31,848.922L5316.6,851.104L5317.83,847.83L5321.61,848.649L5322.84,845.375L5329.89,848.038L5331.36,848.311L5345.31,845.375C5345.31,845.375 5353.74,851.792 5354.35,852.065C5354.96,852.338 5375.12,848.792 5375.12,848.792L5379.15,845.375L5388.31,849.61L5401.4,851.687L5400.04,857.924L5307.69,858.741Z" style="fill:rgb(102,156,70);fill-rule:nonzero;"/>
            <path d="M5319.1,848.606L5313.42,809.502L5320.84,830.324" style="fill:rgb(102,156,70);fill-rule:nonzero;"/>
        </g>
        <g id="ground" transform="matrix(2.0004,0,0,2.0004,-5307.84,-863.845)">
            <path d="M5304.13,856.833L5304.12,863.5L5400.59,863.5L5400.57,856.286L5304.13,856.833Z" style="fill:rgb(124,113,91);fill-rule:nonzero;"/>
            <path d="M5311.14,863.363L5374.46,856.56L5400.66,863.5L5311.14,863.363Z" style="fill:rgb(151,138,117);fill-rule:nonzero;"/>
        </g>
        <g id="fence" transform="matrix(2.0004,0,0,2.0004,-5307.84,-863.845)">
            <clipPath id="_clip1">
                <rect x="5304.34" y="706" width="95.749" height="157.5"/>
            </clipPath>
            <g clip-path="url(#_clip1)">
                <g transform="matrix(1,0,0,1,5304.34,671.5)">
                    <g transform="matrix(1,0,0,1,-5304.34,-671.5)">
                        <path d="M5386.22,862.219L5386.04,864.892L5316.95,933.616L5313.67,934.172L5386.22,862.219Z" style="fill:rgb(230,229,222);fill-rule:nonzero;"/>
                    </g>
                    <g transform="matrix(1,0,0,1,-5304.34,-671.5)">
                        <path d="M5302.81,828.878L5303.01,831.552L5372.8,900.982L5376.1,901.57L5302.81,828.878Z" style="fill:rgb(194,191,188);fill-rule:nonzero;"/>
                    </g>
                    <g transform="matrix(1,0,0,1,-5304.34,-671.5)">
                        <path d="M5303.91,863.647L5309.86,863.647L5310.03,784.879L5303.91,863.647Z" style="fill:rgb(230,229,222);fill-rule:nonzero;"/>
                    </g>
                    <g transform="matrix(1,0,0,1,-5304.34,-671.5)">
                        <path d="M5310.03,801.861L5310.12,742.809L5303.7,739.141L5303.91,863.646L5310.03,801.861Z" style="fill:rgb(230,229,222);fill-rule:nonzero;"/>
                    </g>
                    <g transform="matrix(1,0,0,1,-5304.34,-671.5)">
                        <path d="M5391.41,720.681L5390.96,723.626L5308.56,805.67L5304.89,806.595L5391.41,720.681Z" style="fill:rgb(230,229,222);fill-rule:nonzero;"/>
                    </g>
                    <g transform="matrix(1,0,0,1,-5304.34,-671.5)">
                        <path d="M5389.79,690.551L5389.37,693.469L5308.4,774.072L5304.78,774.964L5389.79,690.551Z" style="fill:rgb(230,229,222);fill-rule:nonzero;"/>
                    </g>
                    <g transform="matrix(1,0,0,1,-5304.34,-671.5)">
                        <path d="M5397.97,650.625L5397.38,653.701L5308.51,742.219L5304.66,743.326L5397.97,650.625Z" style="fill:rgb(230,229,222);fill-rule:nonzero;"/>
                    </g>
                    <g transform="matrix(1,0,0,1,-5304.34,-671.5)">
                        <path d="M5376.74,638.163L5376.57,641.009L5304.23,721.672L5300.77,722.64L5376.74,638.163Z" style="fill:rgb(230,229,222);fill-rule:nonzero;"/>
                    </g>
                    <g transform="matrix(1,0,0,1,-5304.34,-671.5)">
                        <path d="M5441.34,703.505L5439.9,707.433L5310,836.98L5305.01,839.234L5441.34,703.505Z" style="fill:rgb(230,229,222);fill-rule:nonzero;"/>
                    </g>
                    <g transform="matrix(1,0,0,1,-5304.34,-671.5)">
                        <path d="M5458.35,718.241L5456.58,722.503L5310.56,868.168L5305.12,870.866L5458.35,718.241Z" style="fill:rgb(230,229,222);fill-rule:nonzero;"/>
                    </g>
                    <g transform="matrix(1,0,0,1,-5304.34,-671.5)">
                        <path d="M5427.73,780.616L5426.57,784.27L5309.86,900.617L5305.24,902.504L5427.73,780.616Z" style="fill:rgb(230,229,222);fill-rule:nonzero;"/>
                    </g>
                    <g transform="matrix(1,0,0,1,-5304.34,-671.5)">
                        <path d="M5435.65,810.789L5434.46,814.477L5316.32,932.248L5311.66,934.172L5435.65,810.789Z" style="fill:rgb(230,229,222);fill-rule:nonzero;"/>
                    </g>
                    <g transform="matrix(1,0,0,1,-5304.34,-671.5)">
                        <path d="M5302.58,766.608L5303.65,770.146L5415.24,881.377L5419.7,883.132L5302.58,766.608Z" style="fill:rgb(194,191,188);fill-rule:nonzero;"/>
                    </g>
                    <g transform="matrix(1,0,0,1,-5304.34,-671.5)">
                        <path d="M5304.74,736.762L5306.03,740.521L5428.31,862.445L5433.07,864.501L5304.74,736.762Z" style="fill:rgb(194,191,188);fill-rule:nonzero;"/>
                    </g>
                    <g transform="matrix(1,0,0,1,-5304.34,-671.5)">
                        <path d="M5290.92,691.419L5292.16,695.132L5412.31,814.919L5417,816.912L5290.92,691.419Z" style="fill:rgb(194,191,188);fill-rule:nonzero;"/>
                    </g>
                    <g transform="matrix(1,0,0,1,-5304.34,-671.5)">
                        <path d="M5302.24,671.216L5303.66,675.113L5432.68,803.774L5437.63,806.016L5302.24,671.216Z" style="fill:rgb(194,191,188);fill-rule:nonzero;"/>
                    </g>
                    <g transform="matrix(1,0,0,1,-5304.34,-671.5)">
                        <path d="M5302.12,639.583L5303.01,642.937L5405.73,745.306L5409.95,746.815L5302.12,639.583Z" style="fill:rgb(194,191,188);fill-rule:nonzero;"/>
                    </g>
                    <g transform="matrix(1,0,0,1,-5304.34,-671.5)">
                        <path d="M5302.7,798.243L5302.9,800.917L5372.69,870.347L5375.98,870.935L5302.7,798.243Z" style="fill:rgb(194,191,188);fill-rule:nonzero;"/>
                    </g>
                    <g transform="matrix(1,0,0,1,-5304.34,-671.5)">
                        <path d="M5300.92,862.928L5301.12,865.602L5370.9,935.032L5374.2,935.621L5300.92,862.928Z" style="fill:rgb(194,191,188);fill-rule:nonzero;"/>
                    </g>
                    <g transform="matrix(1,0,0,1,-5304.34,-671.5)">
                        <path d="M5303.91,863.961L5309.86,863.961L5310.03,784.88L5303.91,863.961Z" style="fill:rgb(230,229,222);fill-rule:nonzero;"/>
                    </g>
                    <g transform="matrix(1,0,0,1,-5304.34,-671.5)">
                        <path d="M5310.03,792.544L5310.12,724.587L5303.7,720.366L5303.91,863.647L5310.03,792.544Z" style="fill:rgb(230,229,222);fill-rule:nonzero;"/>
                    </g>
                    <g transform="matrix(1,0,0,1,-5304.34,-671.5)">
                        <path d="M5356.56,726.315L5406.8,726.403L5409.92,720.015L5303.99,720.232L5356.56,726.315Z" style="fill:rgb(230,229,222);fill-rule:nonzero;"/>
                    </g>
                    <g transform="matrix(1,0,0,1,-5304.34,-671.5)">
                        <path d="M5303.99,720.353L5303.99,726.262L5409.65,725.934L5303.99,720.353Z" style="fill:rgb(194,191,188);fill-rule:nonzero;"/>
                    </g>
                </g>
            </g>
        </g>
        <g id="dirt" transform="matrix(1.96642,-1.63185e-17,-1.65972e-17,2.06776,5305.95,515.513)">
            <rect x="-1.639" y="168.292" width="97.639" height="19.345" style="fill:rgb(53,45,38);"/>
        </g>
    </g>
</svg>
