<?xml version="1.0" standalone="no"?><!DOCTYPE svg PUBLIC "-//W3C//DTD SVG 1.1//EN" "http://www.w3.org/Graphics/SVG/1.1/DTD/svg11.dtd"><svg width="864px" height="672px" version="1.1" xmlns="http://www.w3.org/2000/svg" xmlns:xlink="http://www.w3.org/1999/xlink" xml:space="preserve" style="fill-rule:evenodd;clip-rule:evenodd;stroke-linejoin:round;stroke-miterlimit:1.41421;"><g><g id="parking-lot-right" transform="matrix(0.5,0,0,0.5,0,-288)"><g id="parking-sign"><path d="M134.461,1894.96l45.379,0l-22.227,-930.162l-18.281,9.262l-4.871,920.9Z" style="fill:#5d5f60;fill-rule:nonzero;"/><path d="M179.844,1894.96l-45.387,0l36.813,-352.777l8.574,352.777Z" style="fill:#2a2b2a;fill-rule:nonzero;"/><path d="M138.039,1223.8l19.566,-258.996l-18.277,9.292l-1.289,249.704Z" style="fill:#2a2b2a;fill-rule:nonzero;"/><path d="M73.8906,784.803l154.441,0l3.645,85.947l-11.633,102.918l-144.949,0l-25.149,-102.918l23.645,-85.947Z" style="fill:#49799d;fill-rule:nonzero;"/><path d="M220.473,957.935l-144.703,0l-10.254,-99.259l9.98,-73.998l145.2,0l9.984,74.062l-10.207,99.195ZM56.6247,765.721l-9.992,93.018l10.27,117.996l182.488,0l10.219,-117.871l-9.996,-93.143l-182.989,0Z" style="fill:#f3f2ed;fill-rule:nonzero;"/><path d="M169.57,865.52l0,-0.006l-44.75,0l0,-37.832l44.75,0l0,-0.006l11.125,11.125l0,15.594l-11.125,11.125ZM199.566,831.012l-0.035,0.012l0.019,-0.051l-22.164,-22.167l-71.433,-0.027l-0.043,123.733l18.91,0.063l0,-48.192l52.566,0.007l22.164,-22.167l-0.003,-0.013l0.019,-0.01l0,-31.188Z" style="fill:#f3f2ed;fill-rule:nonzero;"/></g><g id="ground"><rect x="0" y="1896" width="1728" height="24" style="fill:#5d5e5f;fill-rule:nonzero;"/></g><g id="sideways-car"><path d="M199.096,1851.45l21.67,-54.006l69.83,0l22.826,52.672" style="fill:#5c5f60;fill-rule:nonzero;"/><path d="M582.096,1851.45l21.67,-54.006l69.83,0l22.826,52.672" style="fill:#5c5f60;fill-rule:nonzero;"/><path d="M199.096,1854.45l21.67,-54.006l69.83,0l22.826,52.672" style="fill:#5c5f60;fill-rule:nonzero;"/><path d="M582.096,1854.45l21.67,-54.006l69.83,0l22.826,52.672" style="fill:#5c5f60;fill-rule:nonzero;"/><path d="M171.041,1862.71l-18.75,-102.76l151.021,-24.5l130.665,-75.17l314.541,0l53.273,85.17l-18.75,117.155l-85.305,0.015l-22.445,-51.545l-69.25,0l-21.082,51.711l-269,-0.002l-22.5,-51.334l-69.668,-0.5l-21.336,51.668l-31.414,0.092Z" style="fill:#e4e2dc;fill-rule:nonzero;"/><path d="M206.088,1854.43l-34.961,7.113l0.25,1.188l31.549,0.017" style="fill:#f3f2ec;fill-rule:nonzero;"/><path d="M783.322,1862.59l-85.313,0.02l-22.343,-51.489l-69.664,-0.123l-16.836,51.633l-273.754,0.061l-22.16,-51.28l-69.334,-0.496l-21.502,52.502l-31.166,-0.166l-18.334,-103.506l151.25,-24.75l71.672,-0.25l412.234,98.625l-4.75,29.219Z" style="fill:#f3f2ec;fill-rule:nonzero;"/><path d="M802.064,1745.23l-4.469,28.781l-43.867,0.028l-10.852,-29.059l59.188,0.25Z" style="fill:#ad2125;fill-rule:nonzero;"/><path d="M219.283,1768.72l-2.166,28.916l-57.647,0.027l-5.25,-29.021l65.063,0.078Z" style="fill:#f6f1e1;fill-rule:nonzero;"/><path d="M802.127,1745.1l-1.24,8.053l-55.01,-0.084l-3.031,-8.125l59.281,0.156Z" style="fill:#fec;fill-rule:nonzero;"/><path d="M324.117,1734.95l113.502,-67.006l228.283,0l38.694,65.674l-380.479,1.332Z" style="fill:#313156;fill-rule:nonzero;"/><path d="M753.592,1667.95l-34.188,-0.004l73.528,62.75l-39.34,-62.746Z" style="fill:#313156;fill-rule:nonzero;"/><path d="M521.012,1663.2l7.557,2.344l-15.161,89.338l-8.011,-1.668l15.615,-90.014Z" style="fill:#e4e2dc;fill-rule:nonzero;"/><path d="M375.096,1726.2l0.793,8.584l10.041,-0.041l-1.002,-9.955l-9.832,1.412Z" style="fill:#c0bdba;fill-rule:nonzero;"/><path d="M375.096,1726.2l-1.5,-15.75l29.5,-5.5l3.75,21.5l-31.75,-0.25Z" style="fill:#e4e2dc;fill-rule:nonzero;"/><path d="M285.932,1860.03c0,15.602 -12.648,28.25 -28.25,28.25c-15.602,0 -28.25,-12.648 -28.25,-28.25c0,-15.602 12.648,-28.25 28.25,-28.25c15.602,0 28.25,12.648 28.25,28.25" style="fill:#e3e1db;fill-rule:nonzero;"/><path d="M258.766,1885.17c-14.041,0 -25.424,-11.383 -25.424,-25.422c0,-14.041 11.383,-25.424 25.424,-25.424c14.041,0 25.424,11.383 25.424,25.424c0,14.039 -11.383,25.422 -25.424,25.422M258.766,1818.75c-22.645,0 -41,18.358 -41,41c0,22.643 18.355,41 41,41c22.645,0 41,-18.357 41,-41c0,-22.642 -18.355,-41 -41,-41" style="fill:#2a2b2a;fill-rule:nonzero;"/><path d="M669.262,1860.03c0,15.602 -12.648,28.25 -28.25,28.25c-15.602,0 -28.25,-12.648 -28.25,-28.25c0,-15.602 12.648,-28.25 28.25,-28.25c15.602,0 28.25,12.648 28.25,28.25" style="fill:#e3e1db;fill-rule:nonzero;"/><path d="M642.096,1885.17c-14.041,0 -25.424,-11.383 -25.424,-25.422c0,-14.041 11.383,-25.424 25.424,-25.424c14.041,0 25.424,11.383 25.424,25.424c0,14.039 -11.383,25.422 -25.424,25.422M642.096,1818.75c-22.645,0 -41,18.358 -41,41c0,22.643 18.355,41 41,41c22.645,0 41,-18.357 41,-41c0,-22.642 -18.355,-41 -41,-41" style="fill:#2a2b2a;fill-rule:nonzero;"/></g><g id="car-inbound" transform="matrix(2,0,0,2,938.158,1509.49)"><g transform="matrix(1,0,0,1,0,-10.3296)"><path d="M127.589,121.742l13.651,-2.45l2.8,-7.279l-15.261,-2.662l-1.259,6.721l-2.321,2.339Z" style="fill:#e4e2dc;fill-rule:nonzero;"/></g><g transform="matrix(1,0,0,1,0,-10.3296)"><path d="M127.604,121.746l-2.327,-3.494l2.259,-2.185l1.269,-6.697l1.297,0.208l6.621,10.502Z" style="fill:#c1bebb;fill-rule:nonzero;"/></g><g transform="matrix(1,0,0,1,0,-10.3296)"><path d="M0,111.919l2.8,7.279l13.651,2.45l2.39,-3.331l-2.321,-2.339l-1.26,-6.72Z" style="fill:#e4e2dc;fill-rule:nonzero;"/></g><g transform="matrix(1,0,0,1,0,-10.3296)"><path d="M16.4668,121.646l2.327,-3.494l-2.259,-2.185l-1.269,-6.697l-1.297,0.208l-6.641,10.531Z" style="fill:#c1bebb;fill-rule:nonzero;"/></g><path d="M3.8898,173.884l1.68,19.532l19.321,0l3.991,-19.742Z" style="fill:#5c5e5f;fill-rule:nonzero;"/><path d="M24.0516,173.674l0.84,19.742l5.992,-19.742Z" style="fill:#2a2b2a;fill-rule:nonzero;"/><path d="M117.358,193.416l19.35,0l1.68,-19.321l-24.993,-0.211Z" style="fill:#5c5e5f;fill-rule:nonzero;"/><path d="M111.394,173.884l5.964,19.532l0.869,-19.532Z" style="fill:#2a2b2a;fill-rule:nonzero;"/><g transform="matrix(1,-3.22153e-17,-3.22153e-17,1.13153,0,-22.926)"><path d="M29.4678,85.9277l-28.118,49.341l2.519,38.615l1.89,0.006l132.637,0.414l3.796,-38.796l-27.505,-49.58Z" style="fill:#e4e2dc;fill-rule:nonzero;"/></g><g transform="matrix(1,-8.52366e-17,-8.52366e-17,1.348,1.39815e-14,-42.2467)"><path d="M32.958,89.498l-15.6294,22.2696l107.925,1.7053e-13l-13.6694,-22.2696Z" style="fill:#313156;fill-rule:nonzero;"/></g><g transform="matrix(1.35601,0,0,1.35601,-9.08601,-43.1939)"><path d="M31.0322,89.668l-11.5526,22.1381l20.6308,5.68434e-14l22.0581,-22.1381Z" style="fill:#0f2342;fill-opacity:0.300003;fill-rule:nonzero;"/></g><path d="M111.625,78.397l-3.65614,5.72697e-12l-30.219,30.0195l47.5041,3.09797e-12l-13.629,-30.0195Z" style="fill:#0a1723;fill-opacity:0.300003;fill-rule:nonzero;"/><g transform="matrix(1.34973,0,0,1.34973,-25.576,-42.4401)"><path d="M76.9538,111.768l21.9876,-22.241l-6.14,2.84217e-14l-21.571,22.241Z" style="fill:#494a72;fill-rule:nonzero;"/></g><g transform="matrix(1,0,0,1,-199.295,-4.4702)"><path d="M200.645,135.387l0.86688,14.5l28.1193,-0.028l1.051,-14.511Z" style="fill:#f6f1e1;fill-rule:nonzero;"/></g><g transform="matrix(1,0,0,1,-199.295,-4.4702)"><path d="M230.683,135.348l7.571,12.829l-8.623,1.682Z" style="fill:#ef9c74;fill-rule:nonzero;"/></g><g transform="matrix(1,0,0,1,-199.295,-4.4702)"><path d="M341.445,135.387l-1.26346,14.458l-27.344,0.014l-1.052,-14.511l29.6594,0.039Z" style="fill:#f6f1e1;fill-rule:nonzero;"/></g><g transform="matrix(1,0,0,1,-199.295,-4.4702)"><path d="M311.786,135.348l-5.818,12.829l6.87,1.682Z" style="fill:#ef9c74;fill-rule:nonzero;"/></g><g transform="matrix(1,0,0,1,-199.295,-4.4702)"><path d="M311.753,135.388l-81.06,-0.043l7.604,12.831l67.715,0Z" style="fill:#2a2b2a;fill-rule:nonzero;"/></g><g transform="matrix(1,0,0,1,-199.295,-4.4702)"><path d="M306.083,139.461l-1.926,3.936l-64.038,0.055l-2.592,-4.272Z" style="fill:#5c5e5f;fill-rule:nonzero;"/></g></g><g id="parking-stops"><path d="M138.473,1869.12l9.098,27.356l-54.383,0.102l8.853,-27.577l36.432,0.119Z" style="fill:#e4e2dc;fill-rule:nonzero;"/><path d="M1210.87,1869.12l9.098,27.356l-280,0.102l8.853,-27.577l262.049,0.119Z" style="fill:#e4e2dc;fill-rule:nonzero;"/><path d="M1642.87,1869.12l9.098,27.356l-280,0.102l8.853,-27.577l262.049,0.119Z" style="fill:#e4e2dc;fill-rule:nonzero;"/></g></g></g></svg>