<?xml version="1.0" standalone="no"?><!DOCTYPE svg PUBLIC "-//W3C//DTD SVG 1.1//EN" "http://www.w3.org/Graphics/SVG/1.1/DTD/svg11.dtd"><svg width="480px" height="240px" version="1.1" xmlns="http://www.w3.org/2000/svg" xmlns:xlink="http://www.w3.org/1999/xlink" xml:space="preserve" style="fill-rule:evenodd;clip-rule:evenodd;stroke-linejoin:round;stroke-miterlimit:1.41421;"><g><g id="waterfront-right-repeat" transform="matrix(0.5,0,0,0.5,0,0)"><g id="water-repeat"><path d="M918.269,291l-118.906,-10.372l-5.677,9.372l-121.354,-13.049l-9.291,14.189l-98.985,-11.016l-4.381,7.394l-80.675,-11.297l0,203.779l482,0l0,-203.475l-35.054,-4.897l-7.677,19.372Z" style="fill:#366387;fill-rule:nonzero;"/><path d="M894.48,361.832l49.082,-7.361l17.438,1.538l0,-5.797l-21.119,-3.718l-45.401,15.338Z" style="fill:#4f83a3;fill-rule:nonzero;"/><path d="M932.703,422.778l-64.264,-15.338l-33.49,15.338l36.205,-7.362l61.549,7.362Z" style="fill:#4f83a3;fill-rule:nonzero;"/><path d="M888.622,334.838l-87.118,-15.338l-45.401,15.338l49.081,-7.362l83.438,7.362Z" style="fill:#4f83a3;fill-rule:nonzero;"/><path d="M781.324,406.784l-64.264,-15.338l-33.489,15.338l36.205,-7.362l61.548,7.362Z" style="fill:#4f83a3;fill-rule:nonzero;"/><path d="M714.385,349.562l-87.119,-15.338l-45.401,15.338l49.082,-7.362l83.438,7.362Z" style="fill:#4f83a3;fill-rule:nonzero;"/><path d="M607.087,416.508l-64.264,-15.338l-33.489,15.338l36.205,-7.362l61.548,7.362Z" style="fill:#4f83a3;fill-rule:nonzero;"/><path d="M479,355.833l68,5.999l-68,-11.972l0,5.973Z" style="fill:#4f83a3;fill-rule:nonzero;"/></g></g><g id="waterfront-right" transform="matrix(0.5,0,0,0.5,0,0)"><g id="water"><path d="M440.269,291l-118.906,-10.372l-5.676,9.372l-121.355,-13.049l-9.291,14.189l-98.986,-11.016l-4.38,7.394l-81.675,-11.437l0,203.919l482,0l0,-203.614l-34.054,-4.758l-7.677,19.372Z" style="fill:#366387;fill-rule:nonzero;"/><path d="M413,361.832l69,-6.087l0,-6.061l-69,12.148Z" style="fill:#4f83a3;fill-rule:nonzero;"/></g><g id="rocks"><path d="M47.9997,288.952l19.897,191.048l391.217,0l-39.113,-69l-39.001,-15.935l-39.599,-35.75l-33.305,-40.565l-49.096,-30.749l-33.873,0l-72.642,-0.373l-104.485,1.324Z" style="fill:#645849;fill-rule:nonzero;"/><path d="M48.3768,281.918l-0.377,2.137l0,37.903l46.75,20.941l53.962,-6.007l27.824,-25.295l-17.706,-29.679l-59.02,-26.918l-51.433,26.918Z" style="fill:#645849;fill-rule:nonzero;"/><path d="M135.535,288.282l41.619,-21.781l47.76,21.781l14.328,24.017l-22.516,20.468l-43.666,4.861l-42.845,-19.192l5.32,-30.154Z" style="fill:#7c705a;fill-rule:nonzero;"/><path d="M173.59,295.695l60.568,-25.636l69.502,25.636l20.851,28.267l-32.766,24.091l-63.545,5.722l-62.352,-22.589l7.742,-35.491Z" style="fill:#645849;fill-rule:nonzero;"/><path d="M68.6123,329.839l51.433,-26.918l59.021,26.918l17.705,29.679l-27.824,25.295l-53.961,6.006l-52.949,-23.716l6.575,-37.264Z" style="fill:#645849;fill-rule:nonzero;"/><path d="M120.467,366.537l51.433,-26.917l59.02,26.917l17.707,29.68l-27.824,25.295l-53.963,6.007l-52.948,-23.717l6.575,-37.265Z" style="fill:#645849;fill-rule:nonzero;"/><path d="M206.279,332.23l39.836,-20.849l45.711,20.849l13.713,22.986l-21.549,19.591l-41.795,4.653l-41.008,-18.37l5.092,-28.86Z" style="fill:#7c705a;fill-rule:nonzero;"/><path d="M288.222,322.505l57.573,-7.436l46.043,33.046l6.33,33.976l-34.863,14.091l-52.703,-13.055l-41.455,-27.942l19.075,-32.68Z" style="fill:#988a74;fill-rule:nonzero;"/><path d="M122.996,365.272l51.433,-26.918l59.02,26.918l17.707,29.68l-27.824,25.295l-53.963,6.006l-52.947,-23.717l6.574,-37.264Z" style="fill:#988a74;fill-rule:nonzero;"/><path d="M74.5039,322.173l23.777,-12.444l27.286,12.444l8.185,13.722l-12.863,11.694l-24.946,2.776l-24.478,-10.963l3.039,-17.229Z" style="fill:#988a74;fill-rule:nonzero;"/><path d="M90.252,417.415l-8.189,46.417l36.096,16.168l103.555,0l28.176,-25.616l-22.054,-36.969l-73.518,-33.53l-64.066,33.53Z" style="fill:#7c705a;fill-rule:nonzero;"/><path d="M48.654,363.769l-0.654,3.709l0,28.535l38.179,17.102l43.667,-4.861l22.515,-20.469l-14.329,-24.016l-47.758,-21.781l-41.62,21.781Z" style="fill:#7c705a;fill-rule:nonzero;"/><path d="M360.707,411.585l31.178,-16.316l35.778,16.316l10.733,17.993l-16.867,15.333l-32.711,3.641l-32.096,-14.377l3.985,-22.59Z" style="fill:#988a74;fill-rule:nonzero;"/><path d="M256.78,426.802l-7.561,42.863l23.074,10.335l110.928,0l20.968,-19.061l-20.365,-34.137l-67.885,-25.9l-59.159,25.9Z" style="fill:#7c705a;fill-rule:nonzero;"/><path d="M161.761,442.887l-5.727,29.306l16.607,7.807l76.297,0l13.518,-11.843l-13.543,-23.674l-46.181,-22.093l-40.971,20.497Z" style="fill:#645849;fill-rule:nonzero;"/><path d="M52.2342,407.816l-4.235,29.627l0,0.628l29.871,19.766l30.978,-4.314l16.302,-20.255l-9.693,-24.294l-33.383,-22.484l-29.84,21.326Z" style="fill:#645849;fill-rule:nonzero;"/><path d="M107.366,398.182l22.989,-4.482l19.72,17.209l3.427,13.517l-13.674,6.575l-21.557,-3.897l-17.742,-15.271l6.837,-13.651Z" style="fill:#988a74;fill-rule:nonzero;"/></g><g id="fish"><path d="M461.861,189.804l-5.742,11.71l-13.436,3.505l11.168,3.906l-1.199,10.418l6.825,-13.453l15.607,-3.877l0.46,-14.154l-13.683,1.945Z" style="fill:#ef9c74;fill-rule:nonzero;"/><path d="M427.914,289l12.092,-20.861l-12.006,10.461l0,-13.698l-5.116,12.07l-8.9,-4.48l3.783,16.508l10.147,0Z" style="fill:#4f83a3;fill-rule:nonzero;"/></g><g id="wall"><path d="M18,113l-2.333,19l53.333,0l-2,-19l-49,0Z" style="fill:#ecdbb1;fill-rule:nonzero;"/><path d="M9.1656,125l-9.166,150.999l0,204.001l96.207,0l-20.04,-355l-67.001,0Z" style="fill:#cead80;fill-rule:nonzero;"/><path d="M10,115l65,0l-0.666,-8l-63.334,0l-1,8Z" style="fill:#cead80;fill-rule:nonzero;"/></g></g></g></svg>