<?xml version="1.0" standalone="no"?><!DOCTYPE svg PUBLIC "-//W3C//DTD SVG 1.1//EN" "http://www.w3.org/Graphics/SVG/1.1/DTD/svg11.dtd"><svg width="480px" height="240px" version="1.1" xmlns="http://www.w3.org/2000/svg" xmlns:xlink="http://www.w3.org/1999/xlink" xml:space="preserve" style="fill-rule:evenodd;clip-rule:evenodd;stroke-linejoin:round;stroke-miterlimit:1.41421;"><g><g id="waterfront-left" transform="matrix(0.5,0,0,0.5,-240,0)"><g id="water"><path d="M958,276.386l0,203.614l482,0l0,-203.919l-81.675,11.437l-4.38,-7.393l-98.985,11.016l-9.292,-14.19l-121.354,13.05l-5.677,-9.373l-118.906,10.372l-7.677,-19.372l-34.054,4.758Z" style="fill:#366387;fill-rule:nonzero;"/><path d="M958,355.744l69,6.087l-69,-12.147l0,6.06Z" style="fill:#4f83a3;fill-rule:nonzero;"/></g><g id="rocks"><path d="M1214.87,288l-33.873,0l-49.096,30.749l-33.305,40.565l-39.599,35.75l-39,15.935l-39.113,69.001l391.217,0l19.896,-191.049l-104.484,-1.324l-72.643,0.373Z" style="fill:#645849;fill-rule:nonzero;"/><path d="M1281.17,281.918l-17.706,29.679l27.825,25.295l53.961,6.007l46.75,-20.941l0,-37.903l-0.377,-2.137l-51.433,-26.918l-59.02,26.918Z" style="fill:#645849;fill-rule:nonzero;"/><path d="M1304.46,288.282l-41.619,-21.781l-47.76,21.781l-14.328,24.017l22.516,20.468l43.666,4.861l42.845,-19.192l-5.32,-30.154Z" style="fill:#7c705a;fill-rule:nonzero;"/><path d="M1266.41,295.695l-60.568,-25.636l-69.502,25.636l-20.851,28.267l32.766,24.091l63.545,5.722l62.352,-22.589l-7.742,-35.491Z" style="fill:#645849;fill-rule:nonzero;"/><path d="M1371.39,329.839l-51.433,-26.918l-59.021,26.918l-17.705,29.679l27.824,25.295l53.961,6.006l52.949,-23.716l-6.575,-37.264Z" style="fill:#645849;fill-rule:nonzero;"/><path d="M1319.53,366.537l-51.433,-26.917l-59.02,26.917l-17.707,29.68l27.824,25.295l53.963,6.007l52.948,-23.717l-6.575,-37.265Z" style="fill:#645849;fill-rule:nonzero;"/><path d="M1233.72,332.23l-39.836,-20.849l-45.711,20.849l-13.713,22.986l21.549,19.591l41.795,4.653l41.008,-18.37l-5.092,-28.86Z" style="fill:#7c705a;fill-rule:nonzero;"/><path d="M1151.78,322.505l-57.573,-7.436l-46.043,33.046l-6.33,33.976l34.863,14.091l52.703,-13.055l41.455,-27.942l-19.075,-32.68Z" style="fill:#988a74;fill-rule:nonzero;"/><path d="M1317,365.272l-51.433,-26.918l-59.02,26.918l-17.707,29.68l27.824,25.295l53.963,6.006l52.947,-23.717l-6.574,-37.264Z" style="fill:#988a74;fill-rule:nonzero;"/><path d="M1365.5,322.173l-23.777,-12.444l-27.286,12.444l-8.185,13.722l12.863,11.694l24.946,2.776l24.478,-10.963l-3.039,-17.229Z" style="fill:#988a74;fill-rule:nonzero;"/><path d="M1212.16,417.415l-22.054,36.969l28.176,25.616l103.555,0l36.096,-16.168l-8.189,-46.417l-64.067,-33.53l-73.517,33.53Z" style="fill:#7c705a;fill-rule:nonzero;"/><path d="M1301.97,363.769l-14.329,24.016l22.515,20.469l43.667,4.861l38.179,-17.102l0,-28.535l-0.654,-3.709l-41.62,-21.781l-47.758,21.781Z" style="fill:#7c705a;fill-rule:nonzero;"/><path d="M1079.29,411.585l-31.178,-16.316l-35.778,16.316l-10.733,17.993l16.867,15.333l32.711,3.641l32.096,-14.377l-3.985,-22.59Z" style="fill:#988a74;fill-rule:nonzero;"/><path d="M1056.18,426.802l-20.365,34.137l20.967,19.061l110.929,0l23.074,-10.335l-7.561,-42.863l-59.159,-25.9l-67.885,25.9Z" style="fill:#7c705a;fill-rule:nonzero;"/><path d="M1191.09,444.482l-13.542,23.674l13.517,11.844l76.297,0l16.607,-7.808l-5.727,-29.306l-40.97,-20.497l-46.182,22.093Z" style="fill:#645849;fill-rule:nonzero;"/><path d="M1324.54,408.975l-9.693,24.294l16.303,20.255l30.977,4.314l29.871,-19.767l0,-0.627l-4.235,-29.627l-29.84,-21.327l-33.383,22.485Z" style="fill:#645849;fill-rule:nonzero;"/><path d="M1332.63,398.182l-22.989,-4.482l-19.72,17.209l-3.427,13.517l13.674,6.575l21.557,-3.897l17.742,-15.271l-6.837,-13.651Z" style="fill:#988a74;fill-rule:nonzero;"/></g><g id="wall"><path d="M1422,113l2.333,19l-53.333,0l2,-19l49,0Z" style="fill:#ecdbb1;fill-rule:nonzero;"/><path d="M1363.83,125l-20.04,355l96.206,0l0,-204.001l-9.166,-150.999l-67,0Z" style="fill:#cead80;fill-rule:nonzero;"/><path d="M1430,115l-65,0l0.666,-8l63.334,0l1,8Z" style="fill:#cead80;fill-rule:nonzero;"/></g></g><g id="waterfront-left-repeat" transform="matrix(0.5,0,0,0.5,-240,0)"><g id="water-repeat"><g transform="matrix(-1,0,0,1,1440,0)"><path d="M918.269,291l-118.906,-10.372l-5.677,9.372l-121.354,-13.049l-9.291,14.189l-98.985,-11.016l-4.381,7.394l-80.675,-11.297l0,203.779l482,0l0,-203.475l-35.054,-4.897l-7.677,19.372Z" style="fill:#366387;fill-rule:nonzero;"/></g><path d="M894.48,361.832l49.082,-7.361l17.438,1.538l0,-5.797l-21.119,-3.718l-45.401,15.338Z" style="fill:#4f83a3;fill-rule:nonzero;"/><path d="M932.703,422.778l-64.264,-15.338l-33.49,15.338l36.205,-7.362l61.549,7.362Z" style="fill:#4f83a3;fill-rule:nonzero;"/><path d="M888.622,334.838l-87.118,-15.338l-45.401,15.338l49.081,-7.362l83.438,7.362Z" style="fill:#4f83a3;fill-rule:nonzero;"/><path d="M781.324,406.784l-64.264,-15.338l-33.489,15.338l36.205,-7.362l61.548,7.362Z" style="fill:#4f83a3;fill-rule:nonzero;"/><path d="M714.385,349.562l-87.119,-15.338l-45.401,15.338l49.082,-7.362l83.438,7.362Z" style="fill:#4f83a3;fill-rule:nonzero;"/><path d="M607.087,416.508l-64.264,-15.338l-33.489,15.338l36.205,-7.362l61.548,7.362Z" style="fill:#4f83a3;fill-rule:nonzero;"/><path d="M479,355.833l68,5.999l-68,-11.972l0,5.973Z" style="fill:#4f83a3;fill-rule:nonzero;"/></g></g></g></svg>