<svg clip-rule="evenodd" fill-rule="evenodd" stroke-linejoin="round" stroke-miterlimit="2" viewBox="0 0 350 110" xmlns="http://www.w3.org/2000/svg" xmlns:xlink="http://www.w3.org/1999/xlink"><clipPath id="a"><path clip-rule="evenodd" d="m347 273.279h12.564v61.595h-12.564z"/></clipPath><clipPath id="b"><path clip-rule="evenodd" d="m1413.2 644h-57l-43.1 30h71z"/></clipPath><clipPath id="c"><path clip-rule="evenodd" d="m1411.2 644h-57l-41.1 30h71z"/></clipPath><clipPath id="d"><path clip-rule="evenodd" d="m1561.1 681.5-48-41h-158l-56.3 37-58.4 12.3-2 7 8.7 42.7h106.2l7.7-24.5h25l7.1 24.5h96.7l7.2-23.5h24l7.3 23.5h29.8l7-43z"/></clipPath><clipPath id="e"><path clip-rule="evenodd" d="m1561.1 681.5-48-41h-158l-56.3 37-58.4 12.3-2 7 8.7 42.7h106.2l7.7-24.5h25l7.1 24.5h96.7l7.2-23.5h24l7.3 23.5h29.8l7-43z"/></clipPath><clipPath id="f"><path clip-rule="evenodd" d="m1561.1 681.5-48-41h-158l-56.3 37-58.4 12.3-2 7 8.7 42.7h106.2l7.7-24.5h25l7.1 24.5h96.7l7.2-23.5h24l7.3 23.5h29.8l7-43z"/></clipPath><clipPath id="g"><path clip-rule="evenodd" d="m1561.1 681.5-48-41h-158l-56.3 37-58.4 12.3-2 7 8.7 42.7h106.2l7.7-24.5h25l7.1 24.5h96.7l7.2-23.5h24l7.3 23.5h29.8l7-43z"/></clipPath><clipPath id="h"><path clip-rule="evenodd" d="m1561.1 681.5-48-41h-158l-56.3 37-58.4 12.3-2 7 8.7 42.7h106.2l7.7-24.5h25l7.1 24.5h96.7l7.2-23.5h24l7.3 23.5h29.8l7-43z"/></clipPath><clipPath id="i"><path clip-rule="evenodd" d="m1561.1 681.5-48-41h-158l-56.3 37-58.4 12.3-2 7 8.7 42.7h106.2l7.7-24.5h25l7.1 24.5h96.7l7.2-23.5h24l7.3 23.5h29.8l7-43z"/></clipPath><clipPath id="j"><path clip-rule="evenodd" d="m1561.1 681.5-48-41h-158l-56.3 37-58.4 12.3-2 7 8.7 42.7h106.2l7.7-24.5h25l7.1 24.5h96.7l7.2-23.5h24l7.3 23.5h29.8l7-43z"/></clipPath><clipPath id="k"><path clip-rule="evenodd" d="m1561.1 681.5-48-41h-158l-56.3 37-58.4 12.3-2 7 8.7 42.7h106.2l7.7-24.5h25l7.1 24.5h96.7l7.2-23.5h24l7.3 23.5h29.8l7-43z"/></clipPath><path d="m182.75 161.186 2.214 1.774-4.359 7.423h-98.627l7.815-9.346" fill="#352d27" fill-opacity=".2" fill-rule="nonzero" transform="matrix(3.0452 0 0 3.25952 -240.456 -447.939)"/><path d="m206.598 40.436 2.383-.253-.008 30.824h-4.659z" fill="#679a45" fill-rule="nonzero" transform="translate(86.7226 -20.895)"/><path d="m201.594 41.07-3.127-9.402 18.691-.036-3.043 9.479z" fill="#ae2025" fill-rule="nonzero" transform="translate(86.7226 -20.895)"/><path d="m207.324 48.118-11.852-5.456-3.207 1.495 1.637-4.758 12.418 5.421" fill="#679a45" fill-rule="nonzero" transform="translate(86.7226 -20.895)"/><path d="m205.372 59.502 10.627-11.778 8.474 5.146-7.683-1.683-8.424 8.757z" fill="#679a45" fill-rule="nonzero" transform="translate(86.7226 -20.895)"/><path d="m361.169 300h47.136l-8.39 44-30.854.041z" fill="#ef9c74" transform="matrix(.682112 0 0 .682112 31.4356 -161.5216)"/><g transform="matrix(.571677 -.277934 .437239 .899346 -103.486 -117.898)"><path d="m391.74435 268.77028h16.512v62.459h-16.512z" fill="#fcd157"/><g fill="#f8bb1c"><path d="m391.744 273.279h16.512v6.976h-16.512z"/><path d="m391.744 309.311h16.512v17.664h-16.512z"/></g></g><path d="m209.039 14.28698h14.5v57.199h-14.5z" fill="#366387"/><path d="m359.686 286.083h14.377v6.502h-14.377z" fill="#e0cea8" transform="matrix(1.00853 0 0 1 -153.7149 -263.388)"/><path d="m359.686 286.083h14.377v6.502h-14.377z" fill="#e0cea8" transform="matrix(1.00853 0 0 .464567 -153.7149 -68.738)"/><path d="m224.303 268.175h14.5v57.199h-14.5z" fill="#e7673c" transform="matrix(.320196 0 0 1.2048 151.719 -320.524)"/><path d="m224.303 268.175h14.5v57.199h-14.5z" fill="#679a45" transform="matrix(.303247 0 0 1.2048 165.806 -320.5245)"/><path d="m374.892 276.355h2.97v52.224h-2.97z" fill="#35813f" transform="matrix(.889655 0 0 .368627 -98.8223 -81.358)"/><path d="m224.303 268.175h14.5v57.199h-14.5z" fill="#109ba8" transform="matrix(.389161 0 0 1.2048 140.892 -320.5245)"/><path d="m228.182 15.6806h5.643v1.331h-5.643z" fill="#366387"/><path d="m228.182 30.1974h5.643v1.331h-5.643z" fill="#366387"/><path d="m228.182 45.8102h5.643v1.331h-5.643z" fill="#366387"/><path d="m228.182 62.375h5.643v1.331h-5.643z" fill="#366387"/><path d="m196.476 9.891h12.564v61.595h-12.564z" fill="#720e1a"/><path d="m359.686 286.083h14.377v6.502h-14.377z" fill="#ae2025" transform="matrix(.873856 0 0 .547244 -117.838 -138.115)"/><path d="m359.686 286.083h14.377v6.502h-14.377z" fill="#ae2025" transform="matrix(.873856 0 0 .547244 -117.838 -95.9486)"/><path d="m359.686 286.083h14.377v6.502h-14.377z" fill="#ae2025" transform="matrix(.873856 0 0 3.50984 -117.838 -974.665)"/><path d="m347 273.279h12.564v61.595h-12.564z" fill="#234c6b" transform="matrix(.679076 0 0 1.05923 -47.6113 -283.221)"/><g transform="matrix(.332682 0 0 .97818 68.4077 -256.255)"><path d="m347 273.279h12.564v61.595h-12.564z" fill="#988a74"/><g clip-path="url(#a)"><path d="m338.552 269.631h8.532v19.52h-8.532z" fill="#366387" transform="matrix(3.00587 0 0 1.02231 -658.08 -6.78299)"/></g></g><path d="m347 273.279h12.564v61.595h-12.564z" fill="#5c5e5f" transform="matrix(1.03566 0 0 .98909 -188.453 -259.90851)"/><path d="m174.5239 16.501h6.336v36.832h-6.336z" fill="#c1bebb"/><path d="m338.552 269.631h9.28v28.864h-9.28z" fill="#4f83a3" transform="matrix(.919367 0 0 .71286 -123.225 -179.278)"/><path d="m82.170050331 60.6837900183h39.4250784928v6.2721715784h-39.4250784928z" fill="#5b5e5e" stroke-width=".2240061278"/><g transform="matrix(.2240061278 0 0 .2240061278 -220.82063813128 -98.68872969693)"><g><path d="m1486.5 718c-8.2 0-13.6 9.2-11.9 20.5s9.7 20.5 17.9 20.5h13c.5-2.6-.7-17.4-1.1-20.5-1.6-11.3-9.6-20.5-17.9-20.5z" fill="#2a2b2a" fill-rule="nonzero"/><path d="m1496.8 718c-8.2 0-15.6 9.2-16.6 20.5-.9 11.3 5 20.5 13.3 20.5h13c1.1-2.6 3.3-17.4 3.5-20.5 1-11.3-4.9-20.5-13.2-20.5z" fill="#5b5e5e" fill-rule="nonzero"/><g transform="matrix(.1526 -.9883 .9883 .1526 548.693 2116.78)"><ellipse cx="1508.7" cy="738.4" fill="#2a2b2a" rx="20.6" ry="14.4"/><ellipse cx="1508.7" cy="738.4" fill="#f3f1ed" rx="13.1" ry="9.2"/></g></g><g><path d="m1350.5 718c-8.2 0-13.6 9.2-11.9 20.5s9.7 20.5 17.9 20.5h13c.5-2.6-.7-17.4-1.1-20.5-1.6-11.3-9.6-20.5-17.9-20.5z" fill="#2a2b2a" fill-rule="nonzero"/><path d="m1360.8 718c-8.2 0-15.6 9.2-16.6 20.5-.9 11.3 5 20.5 13.3 20.5h13c1.1-2.6 3.3-17.4 3.5-20.5 1-11.3-4.9-20.5-13.2-20.5z" fill="#5b5e5e" fill-rule="nonzero"/><g transform="matrix(.1526 -.9883 .9883 .1526 433.446 1982.37)"><ellipse cx="1372.7" cy="738.4" fill="#2a2b2a" rx="20.6" ry="14.4"/><ellipse cx="1372.7" cy="738.4" fill="#f3f1ed" rx="13.1" ry="9.2"/></g></g><path d="m1415.9 718c-9.4 0-17 9.2-17.1 20.5 0 11.3 7.6 20.5 17.1 20.5h14.9c1-2.6 2.1-17.4 2.1-20.5.1-11.3-7.6-20.5-17-20.5z" fill="#5b5e5e" fill-rule="nonzero"/><path d="m1432.7 718c-9.1 0-17.2 9.2-18.2 20.5s5.5 20.5 14.6 20.5 17.2-9.2 18.2-20.5-5.5-20.5-14.6-20.5z" fill="#2a2b2a" fill-rule="nonzero"/><path d="m1282.7 718c-9.1 0-17.2 9.2-18.2 20.5s5.5 20.5 14.6 20.5h14.3c1.2-2.6 3.6-17.4 3.9-20.5 1-11.3-5.5-20.5-14.6-20.5z" fill="#5b5e5e" fill-rule="nonzero"/><path d="m1296.7 718c-9.1 0-17.2 9.2-18.2 20.5s5.5 20.5 14.6 20.5 17.2-9.2 18.2-20.5-5.5-20.5-14.6-20.5z" fill="#2a2b2a" fill-rule="nonzero"/><path d="m1561.1 681.5-48-41h-158l-56.3 37-58.4 12.3-2 7 8.7 42.7h106.2l7.7-24.5h25l7.1 24.5h96.7l7.2-23.5h24l7.3 23.5h29.8l7-43z" fill="#234c6b" fill-rule="nonzero"/><path d="m1558.1 739.5 2.3-14-156.4-50.5-10 2h-9l-50 12 4 9 3.3 41.5h11l7.7-24.5h25l7.1 24.5h96.7l7.2-23.5h24l7.3 23.5z" fill="#366387" fill-rule="nonzero"/><g><g fill="#0d2241" fill-rule="nonzero"><path d="m1456.4 677h-64l27-33h30z"/><path d="m1460.4 677h65l-25-33h-48z"/><path d="m1307.4 674h75.6l26.4-30h-57z"/></g><g clip-path="url(#b)"><path d="m1415 639-68 37h-7.4l64.3-36z" fill="#484a71" fill-rule="nonzero"/></g><g clip-path="url(#c)"><path d="m1324.6 675.3 66.6-36.8 14.6 1.3-75.3 42.2z" fill="#313155" fill-rule="nonzero"/></g></g><path d="m1513 646 31.5 21.3-25-21.3z" fill="#0d2241" fill-rule="nonzero"/><g clip-path="url(#d)"><path d="m1264 708h50l3-12h-58z" fill="#2a2b2a" fill-rule="nonzero"/></g><g clip-path="url(#e)"><path d="m1549 691h18.4l-.7 5h-16.6z" fill="#ffedcc" fill-rule="nonzero"/></g><g clip-path="url(#f)"><path d="m1550 696h20.2l-2 14h-15.2z" fill="#ad2024" fill-rule="nonzero"/></g><g clip-path="url(#g)"><path d="m1320 710h38l1-14h-42z" fill="#ffedcc" fill-rule="nonzero"/></g><g clip-path="url(#h)"><path d="m1260 710 5-2-6-12z" fill="#ee9b74" fill-rule="nonzero"/></g><g clip-path="url(#i)"><path d="m1320 710-6-2 3-12z" fill="#ee9b74" fill-rule="nonzero"/></g><g clip-path="url(#j)"><path d="m1222 710h38l-1-14h-40z" fill="#ffedcc" fill-rule="nonzero"/></g><g clip-path="url(#k)"><path d="m1312 699.6h-47l1.8 4.4h44.1z" fill="#5b5e5e" fill-rule="nonzero"/></g><path d="m1410 677-5-12 11-3 10 3s0 8-3 8h-11l1 4z" fill="#4f83a3" fill-rule="nonzero"/><path d="m1408 673h4l-3.9-8.7-3.1.7z" fill="#234c6b" fill-rule="nonzero"/></g><path d="m121.53562550732 65.32549169429h49.38499212062v5.87499906264h-49.38499212062z" fill="#d8d3cb" stroke-width=".99999984045"/><path d="m337.345 320.332h11.428v4.125h-11.428z" fill="#ef9c74" transform="matrix(.99999984045 0 0 1.34753815235 -211.4746875412 -366.22903371)"/><path d="m337.345 320.332h11.428v4.125h-11.428z" fill="#ef9c74" transform="matrix(.27419357121 0 0 1.34753815235 73.9019926838 -366.22903371)"/><path d="m335.202 327.582h49.385v5.875h-49.385z" fill="#ae2025" transform="matrix(.99999984045 0 0 .70212892334 -213.6663210112 -168.8045445)"/><path d="m128.86948083541 61.19991194103h11.42799817666v4.12499934186h-11.42799817666z" fill="#e7e6de" stroke-width=".99999984045"/><path d="m335.202 327.582h49.385v5.875h-49.385z" fill="#d8d3cb" transform="matrix(.99999984045 0 0 .70212892334 -213.6663210112 -172.92916292)"/><path d="m125.87025863541 57.07529352103h11.42799817666v4.12499934186h-11.42799817666z" fill="#988a74" stroke-width=".99999984045"/><path d="m337.345 320.332h11.428v4.125h-11.428z" fill="#988a74" transform="matrix(.27419357121 0 0 .99999984045 73.9019926838 -263.25665537)"/><path d="m335.202 327.582h49.385v5.875h-49.385z" fill="#679a45" transform="matrix(.90831398216 0 0 .70212892334 -178.40520264402 -177.05515713)"/><path d="m337.345 320.332h11.428v4.125h-11.428z" fill="#35813f" transform="matrix(.23003319711 0 0 .99999984045 51.93254765803 -267.38127379)"/><path d="m337.345 320.332h11.428v4.125h-11.428z" fill="#35813f" transform="matrix(.23757609967 0 0 .99999984045 83.30369800561 -267.38127379)"/><path d="m335.202 327.582h49.385v5.875h-49.385z" fill="#fcd157" transform="matrix(.81494533228 0 0 .70212892334 -142.49657531713 -181.17977555)"/><path d="m335.202 327.582h49.385v5.875h-49.385z" fill="#f8bb1c" transform="matrix(.12256289941 0 0 .70212892334 120.80144085583 -181.17977555)"/><path d="m11.697 13.26-3.043 9.48 18.69-.036-3.124-9.404-12.52-.04z" fill="#352d27" fill-rule="nonzero" transform="matrix(1 0 0 -1 56.4716 106.457)"/><path d="m11.697 13.26-3.043 9.48 18.69-.036-3.124-9.404-12.52-.04z" fill="#352d27" fill-rule="nonzero" transform="matrix(1 0 0 -1 257.5306 105.76)"/><path d="m10.3 19.652 71.912-.043 1.488-3.042-75.4-.22 2 3.304z" fill="#645849" fill-rule="nonzero" transform="matrix(3.92034 0 0 -3.92034 -5.3357 148.013)"/></svg>