<svg clip-rule="evenodd" fill-rule="evenodd" stroke-linejoin="round" stroke-miterlimit="2" viewBox="0 0 180 90" xmlns="http://www.w3.org/2000/svg" xmlns:xlink="http://www.w3.org/1999/xlink"><clipPath id="a"><path clip-rule="evenodd" d="m347 273.279h12.564v61.595h-12.564z"/></clipPath><g fill-rule="nonzero"><path d="m206.598 40.436 2.383-.253-.008 30.824h-4.659z" fill="#679a45" transform="translate(-61.288 -23.395)"/><path d="m201.594 41.07-3.127-9.402 18.691-.036-3.043 9.479z" fill="#ae2025" transform="translate(-61.288 -23.395)"/><path d="m207.324 48.118-11.852-5.456-3.207 1.495 1.637-4.758 12.418 5.421" fill="#679a45" transform="translate(-61.288 -20.395)"/><path d="m205.372 59.502 10.627-11.778 8.474 5.146-7.683-1.683-8.424 8.757z" fill="#679a45" transform="translate(-61.288 -23.395)"/></g><path d="m361.169 300h47.136l-8.39 44-30.854.041z" fill="#ef9c74" transform="matrix(.682112 0 0 .682112 -116.575 -164.0216)"/><g transform="matrix(.571677 -.277934 .437239 .899346 -251.497 -120.398)"><path d="m391.74435 268.77028h16.512v62.459h-16.512z" fill="#fcd157"/><g fill="#f8bb1c"><path d="m391.744 273.279h16.512v6.976h-16.512z"/><path d="m391.744 309.311h16.512v17.664h-16.512z"/></g></g><path d="m61.029 11.78698h14.5v57.199h-14.5z" fill="#366387"/><path d="m359.686 286.083h14.377v6.502h-14.377z" fill="#e0cea8" transform="matrix(1.00853 0 0 1 -301.7249 -265.888)"/><path d="m359.686 286.083h14.377v6.502h-14.377z" fill="#e0cea8" transform="matrix(1.00853 0 0 .464567 -301.7249 -73.238)"/><path d="m224.303 268.175h14.5v57.199h-14.5z" fill="#e7673c" transform="matrix(.320196 0 0 1.2048 3.708 -323.024)"/><path d="m224.303 268.175h14.5v57.199h-14.5z" fill="#679a45" transform="matrix(.303247 0 0 1.2048 17.796 -323.0245)"/><path d="m374.892 276.355h2.97v52.224h-2.97z" fill="#35813f" transform="matrix(.889655 0 0 .368627 -246.8323 -83.858)"/><path d="m224.303 268.175h14.5v57.199h-14.5z" fill="#109ba8" transform="matrix(.389161 0 0 1.2048 -7.118 -323.0245)"/><path d="m80.172 13.1806h5.643v1.331h-5.643z" fill="#366387"/><path d="m80.172 27.6974h5.643v1.331h-5.643z" fill="#366387"/><path d="m80.172 43.3102h5.643v1.331h-5.643z" fill="#366387"/><path d="m80.172 59.875h5.643v1.331h-5.643z" fill="#366387"/><path d="m48.466 7.391h12.564v61.595h-12.564z" fill="#720e1a"/><path d="m359.686 286.083h14.377v6.502h-14.377z" fill="#ae2025" transform="matrix(.873856 0 0 .547244 -265.848 -140.615)"/><path d="m359.686 286.083h14.377v6.502h-14.377z" fill="#ae2025" transform="matrix(.873856 0 0 .547244 -265.848 -98.4486)"/><path d="m359.686 286.083h14.377v6.502h-14.377z" fill="#ae2025" transform="matrix(.873856 0 0 3.50984 -265.848 -977.165)"/><path d="m347 273.279h12.564v61.595h-12.564z" fill="#234c6b" transform="matrix(.679076 0 0 1.05923 -195.622 -285.721)"/><g transform="matrix(.332682 0 0 .97818 -79.6029 -258.755)"><path d="m347 273.279h12.564v61.595h-12.564z" fill="#988a74"/><g clip-path="url(#a)"><path d="m338.552 269.631h8.532v19.52h-8.532z" fill="#366387" transform="matrix(3.00587 0 0 1.02231 -658.08 -6.78299)"/></g></g><path d="m347 273.279h12.564v61.595h-12.564z" fill="#5c5e5f" transform="matrix(1.03566 0 0 .98909 -336.463 -262.40851)"/><path d="m26.5139 14.001h6.336v36.832h-6.336z" fill="#c1bebb"/><path d="m338.552 269.631h9.28v28.864h-9.28z" fill="#4f83a3" transform="matrix(.919367 0 0 .71286 -271.236 -181.778)"/><path d="m11.697 13.26-3.043 9.48 18.69-.036-3.124-9.404-12.52-.04z" fill="#352d27" fill-rule="nonzero" transform="matrix(1 0 0 -1 12.297 103.26)"/><path d="m11.697 13.26-3.043 9.48 18.69-.036-3.124-9.404-12.52-.04z" fill="#352d27" fill-rule="nonzero" transform="matrix(1 0 0 -1 131.706 103.26)"/><path d="m41.824 19.652 40.388-.043 1.488-3.042-43.687-.166 1.811 3.25z" fill="#645849" fill-rule="nonzero" transform="matrix(3.92034 0 0 -3.92034 -152.128 145.513)"/></svg>