<svg viewBox="0 0 360 192" xmlns="http://www.w3.org/2000/svg" fill-rule="evenodd" clip-rule="evenodd" stroke-miterlimit="10"><g><path d="M4.765 25.246v6.44H221.98l2.982-6.503-220.197.063z" fill="#cead80" fill-rule="nonzero"/><path d="M223.48 8.08l.01 7.856-218.725-.424v9.895l220.207-.063 3.097-9.405V8.08h-4.59z" fill="#f6f1e1" fill-rule="nonzero"/><path d="M4.765 31.664v153.862h217.222V31.646l-217.222.018z" fill="#cead80" fill-rule="nonzero"/><path d="M4.765 31.664v153.862h217.21l.004-153.838-106.455-.034-110.76.01z" fill="#ecdbb1" fill-rule="nonzero"/><path d="M19.256 124.438l33.918.04.022-40.005-33.986-.018.046 39.983z" fill="#f6f1e1" fill-rule="nonzero"/><path d="M22.984 120.686l26.412.085V88.603l-26.412-.028v32.112z" fill="#313156" fill-rule="nonzero"/><path d="M133.228 74.575l-43.802-.04.063 95.242 47.723.098v-.09l43.803.09.03-95.296-47.818-.045v.04z" fill="#f6f1e1" fill-rule="nonzero"/><path d="M137.15 166.15l40.256.107v-41.71L137 124.51l.15 41.64zM136.98 78.676l.014 30.35.006 11.842 40.43-.04-.024-42.593-40.427.44zM93.2 166.15l40.086.107.32-41.71-40.407-.037v41.64zM93.18 78.676l.02 42.19 40.427-.037-.006-11.69-.016-30.905-40.425.44z" fill="#313156" fill-rule="nonzero"/><path fill="#f6f1e1" fill-rule="nonzero" d="M92.81 120.858h40.962v3.553H92.81z"/><g opacity=".3"><clipPath id="_clip1"><path d="M25.615 96.954h23.77v23.78h-23.77z"/></clipPath><g clip-path="url(#_clip1)"><path d="M49.37 96.954l-23.754 23.732 23.77.05-.016-23.782z" fill="#0a1723" fill-rule="nonzero"/></g></g><path d="M59.033 78.277l-2.595 6.225H15.592l-2.595-6.225h46.036zM83.53 68.352l2.594 6.227h98.62l2.593-6.228H83.53z" fill="#cead80" fill-rule="nonzero"/><path d="M4.765 25.375v6.3l7.54-.013-1.046-6.308-6.495.02zM40.213 25.376l-.964 6.3 8.794-.015-1.046-6.306-6.785.022zM75.52 25.376l-.963 6.3 8.795-.015-1.046-6.306-6.786.022zM111.26 25.376l-.962 6.3 8.793-.015-1.044-6.306-6.786.022zM146.915 25.376l-.963 6.3 8.795-.015-1.048-6.306-6.785.022zM182.654 25.376l-.963 6.3 8.796-.015-1.046-6.306-6.786.022zM217.904 25.376l-.963 6.3 9.056-.015-1.045-6.306-7.046.022z" fill="#f6f1e1" fill-rule="nonzero"/><path fill="#cead80" fill-rule="nonzero" d="M4.764 31.69H227.09v3.634H4.764z"/><path d="M4.765 31.683l9.533-.018-2.165-6.51-7.368-.024v6.553zM47.96 25.156l2.164 6.51-12.94.023 2.107-6.564 8.67.03zM83.18 25.156l2.166 6.51-12.94.023 2.106-6.564 8.67.03zM118.92 25.156l2.167 6.51-12.94.023 2.105-6.564 8.67.03zM154.575 25.156l2.165 6.51-12.94.023 2.107-6.564 8.668.03zM224.93 25.156l2.165 6.51-12.94.023 2.107-6.564 8.67.03zM190.315 25.156l2.165 6.51-12.94.023 2.106-6.564 8.67.03z" fill="#f6f1e1" fill-rule="nonzero"/><path d="M177.504 158.53l.022-76.152-80.04 76.433 80.018-.28z" fill="#0a1723" fill-rule="nonzero" opacity=".3"/><path d="M101.148 159.248l76.376-76.58.01.01.01-3.775-.4-.008-80.223 80.337 4.228.016z" fill="#494a72" fill-rule="nonzero"/><g opacity=".3"><clipPath id="_clip2"><path d="M93.3 78.465h24.75v25.026H93.3z"/></clipPath><g clip-path="url(#_clip2)"><path d="M93.3 103.49V78.467l24.75.264" fill="#0a1723" fill-rule="nonzero"/></g></g><path fill="#f6f1e1" fill-rule="nonzero" d="M133.486 77.873h3.75v76.154h-3.75z"/><path fill="#f6f1e1" fill-rule="nonzero" d="M92.928 120.736h84.607v3.75H92.928z"/><path d="M182.9 167.355l-.292 2.56-6.616 6.612h-99.52l15.49-15.49" fill="#e0cea8" fill-rule="nonzero"/><path d="M88.448 169.892h94.3l4.365-11.77H83.956l4.492 11.77z" fill="#cead80" fill-rule="nonzero"/><path d="M91.4 158.114l6.057-2.914 9.566-1.205 4.128-2.304 2.23 2.24 1.385-1.382 8.935-1.076 1.97 1.955.805-2.268 2.498.567.805-2.265 4.655 1.842.967.19 10.292-2.26 4.877 4.86 13.698-2.268 4.61-3.894 4.092 4.462 6.448 1.32 1.29 4.433-89.308-.033z" fill="#679a45" fill-rule="nonzero"/><path d="M136 158.126l.473-1.242 8.753-.39.894-1.385 3.03 3.013-13.15.003zM161.722 158.205l.482-1.32 6.85-2.34 1.27 1.674 4.557 1.903-13.158.082zM108.166 158.13l2.424-2.71 3.06.708 7.78-.197 2.79 2.184-6.822.016h-9.232z" fill="#35813f" fill-rule="nonzero"/><path d="M155.533 145.458h1.594l.293 10.124-3.082.478 1.195-10.602zM143.95 129.51l1.647-.16.066 21.008-3.085.726 1.37-21.573zM165.266 134.202l1.65-.175-.002 18.57-3.088.806 1.44-19.2z" fill="#679a45" fill-rule="nonzero"/><path d="M161.802 134.64l-2.165-6.51 12.94-.023-2.106 6.562-8.668-.03zM140.34 129.45l-2.166-6.51 12.94-.024-2.106 6.56-8.67-.027zM151.936 145.546l-2.165-6.51 12.94-.025-2.106 6.563-8.668-.027z" fill="#ae2025" fill-rule="nonzero"/><path d="M101.015 142.69h1.594l.29 13.264-3.08.625 1.195-13.89z" fill="#679a45" fill-rule="nonzero"/><path d="M97.417 142.777l-2.165-6.51 12.94-.024-2.106 6.56-8.67-.026z" fill="#ae2025" fill-rule="nonzero"/><path d="M128.187 146.843h1.594l.294 10.124-3.083.477 1.197-10.6zM116.6 136.607l1.65-.16.066 16.59-3.085.728 1.37-17.158z" fill="#679a45" fill-rule="nonzero"/><path d="M112.994 136.545l-2.165-6.51 12.94-.024-2.108 6.564-8.668-.03zM124.59 146.93l-2.164-6.51 12.94-.025-2.107 6.563-8.67-.03z" fill="#ae2025" fill-rule="nonzero"/><path d="M306.82 45.316l-15.155-.787-.15 5.544-2.997-.448.015-9.402 18.436 1.946-.15 3.146z" fill="#2a2b2a" fill-rule="nonzero"/><path d="M286.27 49.176l.598 22.933 10.642 1.5 1.95-22.335-13.19-2.1z" fill="#2a2b2a" fill-rule="nonzero"/><path d="M308.065 185.08h13.79l2.847-13.94-17.837.152 1.2 13.79z" fill="#5c5e5f" fill-rule="nonzero"/><path d="M321.255 170.99l.6 14.09 4.267-14.09h-4.867z" fill="#2a2b2a" fill-rule="nonzero"/><path d="M303.483 40.88l3.29 130.402h48.463V40.447l-51.753.432z" fill="#e4e2dc" fill-rule="nonzero"/><path d="M321.658 15.16l-18.295 11.392v14.99l51.872-.024V15.16h-33.577z" fill="#e4e2dc" fill-rule="nonzero"/><path d="M317.93 40.908l37.305-.083v-17.36L317.9 23.41l.03 17.496z" fill="#2a2b2a" fill-rule="nonzero"/><path d="M308.776 118.296l46.46-.104V47.075l-47.81-.263 1.35 71.484z" fill="#313156" fill-rule="nonzero"/><g opacity=".3"><clipPath id="_clip3"><path d="M307.426 46.81h51.143v50.436h-51.144z"/></clipPath><g clip-path="url(#_clip3)"><path d="M307.426 46.81l.985 50.436 50.16-50.116-51.144-.32z" fill="#0a1723" fill-rule="nonzero"/></g></g><path d="M321.473 27.12l.02 5.864 5.77.075.02 4.87 2.153-.02V27.14h-2.23l-.017 3.75h-3.636v-3.75l-2.08-.018z" fill="#ef9c74" fill-rule="nonzero"/><g opacity=".3"><clipPath id="_clip4"><path d="M286.27 49.25h13.19v5.395h-13.19z"/></clipPath><g clip-path="url(#_clip4)"><path d="M286.27 49.25l.15 5.32 12.74.076.3-3.372-13.19-2.024z" fill="#5c5e5f" fill-rule="nonzero"/></g></g><path d="M347.627 153.813l2.217 6.666-13.25.024 2.156-6.72 8.877.03z" fill="#c1bebb" fill-rule="nonzero"/><path d="M334.803 160.475l2.217-6.666-13.25-.025 2.156 6.72 8.877-.03z" fill="#f6f1e1" fill-rule="nonzero"/><path d="M317.433 153.695l2.217 6.666-13.25.025-.16-6.705 11.193.015z" fill="#ef9c74" fill-rule="nonzero"/><path d="M113.476 140.524c0 6.627-5.373 12-12 12s-12-5.373-12-12 5.373-12 12-12 12 5.373 12 12zM89.476 28.524c0 6.627-5.373 12-12 12s-12-5.373-12-12 5.373-12 12-12 12 5.373 12 12zM324.09 156.444c0 6.627-5.373 12-12 12-6.628 0-12-5.373-12-12s5.372-12 12-12c6.627 0 12 5.373 12 12z" fill="none" stroke="#db00e9" stroke-width="2"/></g></svg>