<svg viewBox="0 0 360 300" xmlns="http://www.w3.org/2000/svg" fill-rule="evenodd" clip-rule="evenodd" stroke-linejoin="round" stroke-miterlimit="1.414"><path d="M57.667 224.504l1.368 9.973-9.721-.25-.749-10.716 9.102.993zM41.904 237.903l-2 13.15 1.124 3.177h7.663l1.964-14.491-8.75-1.836z" fill="#2a2b2a" fill-rule="nonzero"/><path d="M37.1 71.197l4.114-2.74 2.99-8.475 6.907 1.968 2.193 5.383 4.736 2.368L47.727 86.34 37.101 71.197z" fill="#ceab97" fill-rule="nonzero"/><path d="M44.059 66.023h6.22l6.702-8.616-1.197-18.424-11.952-1.998-7.425 2.955.238 17.467 7.414 8.616z" fill="#e1c5b5" fill-rule="nonzero"/><path d="M40.217 37.295l.624-2.491 20.056 1.939 1.67 14.266-6.21.373-4.86-9.912-9.036-1.308-2.244-2.867z" fill="#543e36" fill-rule="nonzero"/><path d="M56.231 46.596l4.098.068.323 7.135-4.18-.216-.241-6.987z" fill="#e1c5b5" fill-rule="nonzero"/><path d="M42.522 40.164l-5.048 2.056-.933 8.973-7.337.935.845-11.818 10.887-5.443 1.586 5.297z" fill="#543e36" fill-rule="nonzero"/><path d="M36.944 47.57l-4.134 1.123.323 5.985 3.655.141.156-7.25z" fill="#e1c5b5" fill-rule="nonzero"/><path d="M64.434 126.539l-6.767 97.963h-7.852l-1.744-83.256 4.055 38.406-1.563 60.181-8.598-1.87-4.491-57.954-5.855-52.724 32.815-.746z" fill="#5c5e5f" fill-rule="nonzero"/><path d="M48.86 141.102l3.947 41.525-1.86 41.888 7.717-14.616 3.739-55.434-13.543-13.363z" fill="#2a2b2a" fill-rule="nonzero"/><path d="M21.013 120.675l-3.41 8.371.653 11.602 3.853-1.478.786-9.796-.319 2.955 3.482.152-1.264-8.052-3.781-3.754zM73.42 121.075l2.58 6.502-.228 10.71-4.21-.555-.854-9.789.337 2.948-3.619.5 1.215-8.116 4.78-2.2z" fill="#e1c5b5" fill-rule="nonzero"/><path d="M58.228 69.517l9.034 3.925 6.473 48.858-5.233.871-5.974-43 1.993 46.366-32.902.748 2.74-43.122-9.471 40.379-4.801-2.119 8.54-46.24 8.474-5.174 12.152 12.34 8.975-13.832z" fill="#f4f2ed" fill-rule="nonzero"/><g><path d="M117.959 144.683c0 61.419 49.788 111.209 111.209 111.209 61.419 0 111.209-49.79 111.209-111.21 0-61.418-49.79-111.209-111.21-111.209-61.42 0-111.208 49.79-111.208 111.21z" fill="#fff" fill-opacity=".3"/></g><g transform="translate(-448.222 -239.872) scale(2.24665)"><clipPath id="a"><path d="M252.011 171.168c0 27.338 22.161 49.5 49.5 49.5 27.338 0 49.5-22.162 49.5-49.5s-22.162-49.5-49.5-49.5c-27.339 0-49.5 22.162-49.5 49.5z"/></clipPath><g clip-path="url(#a)" fill-rule="nonzero"><path d="M332.222 149.165L321.27 307.743h-12.713l-2.821-134.773 6.567 62.17-2.533 97.418-13.92-3.028-7.267-93.812-9.479-85.348 53.118-1.205z" fill="#5c5e5f"/><path d="M307.013 172.733l6.39 67.219-3.01 67.809 12.492-23.665 6.053-89.732-21.925-21.631z" fill="#2a2b2a"/><path d="M261.934 139.669l-5.521 13.551 1.06 18.779 6.237-2.391 1.271-15.855-.515 4.781 5.636.248-2.047-13.038-6.121-6.075zM346.771 140.321l4.174 10.521-.366 17.338-6.816-.896-1.382-15.849.547 4.775-5.86.81 1.966-13.144 7.737-3.555z" fill="#e1c5b5"/><path d="M322.179 56.856l14.625 6.355 10.477 79.09-8.473 1.409-9.669-69.606 3.228 75.055-53.263 1.211 4.437-69.805-15.331 65.365-7.771-3.428L274.26 67.65l13.719-8.375 19.67 19.976 14.53-22.395z" fill="#f4f2ed"/></g></g></svg>