<svg viewBox="0 0 360 192" xmlns="http://www.w3.org/2000/svg" fill-rule="evenodd" clip-rule="evenodd" stroke-miterlimit="10"><g><path d="M115.893 122.28l10.565-1.896 2.167-5.633-11.81-2.06-.976 5.202-1.797 1.81 1.85 2.578z" fill="#e4e2dc" fill-rule="nonzero"/><path d="M115.904 122.283l-1.8-2.704 1.747-1.692.983-5.183 1.004.16 5.125 8.13-7.058 1.288z" fill="#c1bebb" fill-rule="nonzero"/><path d="M17.144 114.678l2.167 5.633 10.567 1.898 1.85-2.578-1.797-1.81-.975-5.202-11.81 2.06z" fill="#e4e2dc" fill-rule="nonzero"/><path d="M29.89 122.206l1.8-2.704-1.75-1.69-.98-5.184-1.005.16-5.14 8.15 7.074 1.268z" fill="#c1bebb" fill-rule="nonzero"/><path d="M20.155 170.63l1.3 15.117H36.41l3.087-15.28-19.342.164z" fill="#5c5e5f" fill-rule="nonzero"/><path d="M35.76 170.468l.65 15.28 4.637-15.28H35.76z" fill="#2a2b2a" fill-rule="nonzero"/><path d="M107.974 185.747h14.976l1.3-14.953-19.343-.164 3.067 15.117z" fill="#5c5e5f" fill-rule="nonzero"/><path d="M103.358 170.63l4.616 15.117.672-15.116h-5.288z" fill="#2a2b2a" fill-rule="nonzero"/><path d="M39.95 93.56l-21.76 43.21 1.95 33.817 1.46.006 102.656.362 2.938-33.975-21.287-43.42H39.95z" fill="#e4e2dc" fill-rule="nonzero"/><path d="M42.652 96.728l-12.096 23.234h83.53l-10.58-23.234H42.65z" fill="#313156" fill-rule="nonzero"/><path d="M42.68 96.728l-12.124 23.234h21.652l23.15-23.234H42.68z" fill="#0f2342" fill-rule="nonzero" opacity=".3"/><path d="M103.537 96.728h-2.83L77.32 119.962h36.765l-10.548-23.234z" fill="#0a1723" fill-rule="nonzero" opacity=".3"/><path d="M77.738 119.962l22.97-23.234h-6.415L71.76 119.962h5.978z" fill="#494a72" fill-rule="nonzero"/><path d="M18.19 137.376l.67 11.222 21.763-.022.813-11.23-23.247.03z" fill="#f6f1e1" fill-rule="nonzero"/><path d="M41.437 137.345l5.86 9.93-6.675 1.3.815-11.23z" fill="#ef9c74" fill-rule="nonzero"/><path d="M127.162 137.376l-.978 11.19-21.163.01-.813-11.23 22.955.03z" fill="#f6f1e1" fill-rule="nonzero"/><path d="M104.207 137.345l-4.503 9.93 5.317 1.3-.813-11.23z" fill="#ef9c74" fill-rule="nonzero"/><path d="M104.18 137.376l-62.735-.033 5.885 9.93h52.408l4.443-9.897z" fill="#2a2b2a" fill-rule="nonzero"/><path d="M99.793 140.53l-1.49 3.045-49.563.043-2.006-3.307 53.06.22z" fill="#5c5e5f" fill-rule="nonzero"/><path d="M200.554 101.937l-.393 84.676h154.534v-84.677h-154.14z" fill="#f5f3e9" fill-rule="nonzero"/><path fill="#e7e6de" fill-rule="nonzero" d="M200.167 102.022h154.527v84.59H200.167z"/><path d="M200.26 117.873l-.085 54.46h102.45l-.05-54.47-102.316.01z" fill="#c1bebb" fill-rule="nonzero"/><path d="M270.31 119.27l.03 50.735h-38.202l.154-50.635 38.02-.1zM229.807 119.27v50.735h-27.25V119.37l27.25-.1zM300.15 119.27v50.735h-27.252V119.37l27.25-.1z" fill="#313156" fill-rule="nonzero"/><path d="M195.872 101.857l-6.1 17.52h115.44l-.54-17.52h-108.8z" fill="#679a45" fill-rule="nonzero"/><path d="M194.907 104.625l-.25.754h74.585l3.494-3.504-75.102-.02-2.727 2.77zM288.136 105.185l16.66.102-.14-3.383-13.186-.035-3.334 3.315z" fill="#35813f" fill-rule="nonzero"/><path d="M200.51 17.122l154.184-.012v-3.305l-155.757-.045 1.572 3.362z" fill="#e7e6de" fill-rule="nonzero"/><path d="M197.51 5.387l.005 3.647 1.42 4.727 155.76.045V8.638l-154.8.385V5.387h-2.385z" fill="#fff" fill-rule="nonzero"/><path d="M200.515 17.113l-.008 9.85.006 74.892h154.18V17.093l-99.858-.008-54.32.028z" fill="#f5f3e9" fill-rule="nonzero"/><path fill="#e7e6de" fill-rule="nonzero" d="M269.458 17.123h25.295v84.736h-25.295z"/><path d="M237.138 35.49l.016 48.727 24.402-.05.033-48.7-24.452.023z" fill="#c1bebb" fill-rule="nonzero"/><path d="M239 61.04v21.326l20.66-.056V61.02l-20.66.02zM238.987 59.14l20.672.017.01-21.574L239 37.36l-.013 21.78z" fill="#313156" fill-rule="nonzero"/><path d="M207.654 35.49l.016 48.727 24.404-.05.03-48.7-24.45.023z" fill="#c1bebb" fill-rule="nonzero"/><path d="M209.517 61.04v21.326l20.66-.056V61.02l-20.66.02zM209.505 59.14l20.67.017.012-21.574-20.67-.223-.012 21.78z" fill="#313156" fill-rule="nonzero"/><path d="M311.434 40.252l.016 37.04 35.27-.05.03-37.014-35.316.024z" fill="#c1bebb" fill-rule="nonzero"/><path d="M313.296 60.174V75.44l31.527-.054v-15.23l-31.527.018zM313.285 58.273l31.538.02.01-15.946-31.537-.226-.01 16.153z" fill="#313156" fill-rule="nonzero"/><path fill="#c1bebb" fill-rule="nonzero" d="M238.914 59.212h20.946v1.817h-20.946z"/><path d="M304.657 101.873l.138 3.41 49.9.18v-3.59h-50.038z" fill="#dcdcd7" fill-rule="nonzero"/><path d="M270.58 94.383h-71.164v1.77h71.17l-.005-1.77z" fill="#c1bebb" fill-rule="nonzero"/><path d="M270.592 96.16h-71.176l-1.772 5.71h75.074l-2.126-5.71z" fill="#fff" fill-rule="nonzero"/><path d="M270.58 24.587h-71.164v-1.77h71.17l-.005 1.77z" fill="#c1bebb" fill-rule="nonzero"/><path d="M270.592 22.81h-71.176l-1.772-5.71h75.074l-2.126 5.71z" fill="#fff" fill-rule="nonzero"/><path fill="#c1bebb" fill-rule="nonzero" d="M293.253 94.384h61.44v1.77h-61.44z"/><path d="M293.252 96.16l-1.772 5.71h63.214v-5.71h-61.442z" fill="#fff" fill-rule="nonzero"/><path fill="#c1bebb" fill-rule="nonzero" d="M293.253 22.817h61.44v1.77h-61.44z"/><path d="M291.48 17.1l1.772 5.71h61.442V17.1H291.48z" fill="#fff" fill-rule="nonzero"/><g opacity=".3"><clipPath id="_clip1"><path d="M262.456 119.377h37.688v37.563h-37.688z"/></clipPath><g clip-path="url(#_clip1)"><path d="M262.456 119.377l37.688 37.563-.025-37.562h-37.664z" fill="#0a1723" fill-rule="nonzero"/></g></g><g opacity=".3"><clipPath id="_clip2"><path d="M244.11 37.41h15.548V52.91h-15.55z"/></clipPath><g clip-path="url(#_clip2)"><path d="M244.108 37.41l15.55 15.498-.01-15.336-15.54-.162z" fill="#0a1723" fill-rule="nonzero"/></g></g><g opacity=".3"><clipPath id="_clip3"><path d="M318.04 42.146h26.79v26.7h-26.79z"/></clipPath><g clip-path="url(#_clip3)"><path d="M318.04 42.146l26.776 26.7.013-26.503-26.79-.197z" fill="#0a1723" fill-rule="nonzero"/></g></g><g opacity=".3"><clipPath id="_clip4"><path d="M202.55 133.882h35.852v36.132h-35.85z"/></clipPath><g clip-path="url(#_clip4)"><path d="M202.562 170.004l-.01-36.122 35.407 33.812.442 2.32-35.84-.01z" fill="#0a1723" fill-rule="nonzero"/></g></g><path d="M238.4 170.006l-35.85-35.977-.004.006-.007-2.14 38.062 38.116-2.2-.006z" fill="#494a72" fill-rule="nonzero"/><g opacity=".3"><clipPath id="_clip5"><path d="M209.5 46.265h20.706v36.128H209.5z"/></clipPath><g clip-path="url(#_clip5)"><path d="M209.51 82.387l-.01-36.122 20.706 19.77-.003 16.358-20.692-.006z" fill="#0a1723" fill-rule="nonzero"/></g></g><path d="M230.195 67.18L209.5 46.413l-.004.007-.008-2.14 20.706 20.733v2.168z" fill="#494a72" fill-rule="nonzero"/><g opacity=".3"><clipPath id="_clip6"><path d="M238.982 74.352h6.435v7.993h-6.435z"/></clipPath><g clip-path="url(#_clip6)"><path d="M239.033 74.352l5.942 5.674.442 2.32-6.436-.002.053-7.992z" fill="#0a1723" fill-rule="nonzero"/></g></g><path d="M245.417 82.338l-6.42-6.443.008-2.178 8.613 8.626-2.2-.005z" fill="#494a72" fill-rule="nonzero"/><path d="M272.887 169.81h-2.565v-50.422h2.565v50.42zM229.81 158.858h2.356v12h-2.357zM209.435 59.182h20.945V61h-20.945zM313.158 58.305h32.232v1.884h-32.232z" fill="#c1bebb" fill-rule="nonzero"/><path fill="none" stroke="#db00e9" stroke-width="2" d="M42.41 137.042h62.07v10.03H42.41zM192.17 91.095h83.5v8.5h-83.5zM240.037 174.204l-43.78-41.223 5.828-6.188 43.78 41.224-5.828 6.188z"/></g></svg>