<svg viewBox="0 0 288 264" xmlns="http://www.w3.org/2000/svg" fill-rule="evenodd" clip-rule="evenodd" stroke-linejoin="round" stroke-miterlimit="1.414"><path d="M240.285 66.853l21.377-1.11.21 7.822 4.23-.633-.023-13.26-26.005 2.744.21 4.437z" fill="#2a2b2a" fill-rule="nonzero"/><path d="M269.273 72.297l-.846 32.35-15.01 2.114-2.75-31.502 18.606-2.96z" fill="#2a2b2a" fill-rule="nonzero"/><path d="M269.273 72.403l-.21 7.505-17.974.105-.423-4.756 18.606-2.854z" fill="#5c5e5f" fill-rule="nonzero" opacity=".3"/><path d="M47.716 66.853l-21.376-1.11-.21 7.822-4.23-.633.022-13.26 26.004 2.744-.21 4.437z" fill="#2a2b2a" fill-rule="nonzero"/><path d="M18.728 72.297l.846 32.35 15.01 2.114 2.75-31.502-18.606-2.96z" fill="#2a2b2a" fill-rule="nonzero"/><path d="M47.78 244.55L49.47 264h19.453l4.018-19.66-25.16.21z" fill="#5c5e5f" fill-rule="nonzero"/><path d="M68.078 244.126L68.923 264l6.02-19.874h-6.865z" fill="#2a2b2a" fill-rule="nonzero"/><path d="M217.063 264h19.45l1.693-19.45-25.16-.21 4.017 19.66z" fill="#5c5e5f" fill-rule="nonzero"/><path d="M211.043 244.34l6.02 19.45.845-19.45h-6.865z" fill="#2a2b2a" fill-rule="nonzero"/><path d="M47.65 244.537h190.715l7.188-185.633-202.544 1.69 4.64 183.943z" fill="#e5e3dd" fill-rule="nonzero"/><path d="M42.84 61.53V40.384l25.808-16.068h159.196L245.8 40.383l-.458 21.056-202.502.09z" fill="#e5e3dd" fill-rule="nonzero"/><path d="M63.346 35.957l.042 24.68 164.13-.367-.32-24.084-163.852-.23z" fill="#2a2b2a" fill-rule="nonzero"/><path d="M48.572 68.963l1.904 100.833 186.03-.417 3.598-99.363-191.532-1.054z" fill="#313156" fill-rule="nonzero"/><path d="M236.226 169.213L225.19 70.33l-104.915 99.29 115.95-.407zM48.572 68.963l1.39 71.14 70.75-70.69-72.14-.45z" fill="#0a1724" fill-rule="nonzero" opacity=".3"/><path d="M68.386 41.186l.028 8.27 8.14.107.026 6.872 3.038-.027V41.21h-3.144L76.45 46.5h-5.13V41.21l-2.934-.024z" fill="#f19e75" fill-rule="nonzero"/><path d="M18.728 72.403l.212 7.505 17.972.105.422-4.756-18.606-2.854z" fill="#5c5e5f" fill-rule="nonzero" opacity=".3"/><path d="M126.15 169.647l99.567-99.713h-5.98l-99.69 99.692 6.104.02z" fill="#494a73" fill-rule="nonzero"/><path d="M142.65 169.796h4.863l.845-100.63-5.502-.003-.205 100.633z" fill="#dcdbd8" fill-rule="nonzero"/><path d="M105.278 219.898l3.127 9.402-18.692.036 3.044-9.48 12.52.042z" fill="#c2bfbc" fill-rule="nonzero"/><path d="M87.19 229.294l3.126-9.402-18.69-.036 3.042 9.48 12.52-.042zM210.28 229.294l3.128-9.402-18.69-.036 3.042 9.48 12.52-.042z" fill="#f9f5e3" fill-rule="nonzero"/><path d="M192.193 219.898l3.127 9.402-18.692.036 3.043-9.48 12.523.042z" fill="#c2bfbc" fill-rule="nonzero"/><path d="M239.237 219.71l-.327 9.59-18.693.035 3.043-9.48 15.977-.145zM62.69 219.73l3.126 9.403-18.692.036-.226-9.46 15.79.02z" fill="#f19e75" fill-rule="nonzero"/></svg>