<?xml version="1.0" encoding="UTF-8" standalone="no"?>
<!DOCTYPE svg PUBLIC "-//W3C//DTD SVG 1.1//EN" "http://www.w3.org/Graphics/SVG/1.1/DTD/svg11.dtd">
<svg width="100%" height="100%" viewBox="0 0 880 175" version="1.1" xmlns="http://www.w3.org/2000/svg" xmlns:xlink="http://www.w3.org/1999/xlink" xml:space="preserve" xmlns:serif="http://www.serif.com/" style="fill-rule:evenodd;clip-rule:evenodd;stroke-linejoin:round;stroke-miterlimit:2;">
    <g transform="matrix(1,0,0,1,-87.386,32.5167)">
        <g>
            <g transform="matrix(0.731354,0.681998,-0.681998,0.731354,255.352,-611.9)">
                <rect x="916.34" y="23.66" width="16.9" height="92.67" style="fill:rgb(53,67,119);"/>
            </g>
            <g transform="matrix(-0.731354,0.681998,-0.681998,-0.731354,1608.04,-509.52)">
                <rect x="916.34" y="23.66" width="16.9" height="92.67" style="fill:rgb(53,67,119);"/>
            </g>
            <g transform="matrix(0.648603,0,0,0.648603,199.933,13.2498)">
                <path d="M230.913,145.86C265.043,145.86 289.038,127.657 298.553,98.697L270.215,90.837C264.63,108.833 251.598,119.382 230.913,119.382C202.574,119.382 188.301,99.318 188.301,68.29C188.301,37.262 202.574,17.197 230.913,17.197C251.598,17.197 264.63,27.747 270.215,45.743L298.553,37.883C289.038,8.923 265.043,-9.28 230.913,-9.28C186.232,-9.28 158.721,21.955 158.721,68.29C158.721,114.625 186.232,145.86 230.913,145.86Z" style="fill:rgb(53,67,119);fill-rule:nonzero;"/>
            </g>
            <g transform="matrix(0.648603,0,0,0.648603,195.933,13.2498)">
                <path d="M371.572,145.86C337.855,145.86 315.102,121.451 315.102,86.907C315.102,51.949 338.476,27.954 371.572,27.954C405.289,27.954 428.25,52.362 428.25,86.907C428.25,121.658 405.083,145.86 371.572,145.86ZM371.572,119.589C389.569,119.589 398.463,106.144 398.463,86.907C398.463,67.049 389.362,54.224 371.572,54.224C353.163,54.224 344.888,67.462 344.888,86.907C344.888,106.971 353.99,119.589 371.572,119.589Z" style="fill:rgb(53,67,119);"/>
            </g>
            <g transform="matrix(0.648603,0,0,0.648603,193.933,13.2498)">
                <path d="M540.157,48.225C544.501,56.499 544.708,64.36 544.708,74.495L544.708,142.757L520.093,142.757L520.093,129.105C510.164,140.895 499.201,145.86 482.032,145.86C458.037,145.86 444.798,130.553 444.798,111.936C444.798,96.422 451.211,84.838 469.207,78.219C479.963,74.289 495.994,71.91 516.99,68.807C515.852,58.361 509.75,53.603 496.511,53.603C488.237,53.603 477.688,57.12 474.171,67.256L448.728,59.188C454.313,40.778 469.621,27.954 496.511,27.954C516.162,27.954 532.297,33.332 540.157,48.225ZM513.887,108.833C516.266,103.972 516.68,96.939 516.783,91.561C497.959,94.767 490.306,96.318 483.893,98.697C475.619,102.007 472.31,105.937 472.31,111.522C472.31,119.176 478.308,123.726 488.03,123.726C503.544,123.726 511.612,113.591 513.887,108.833Z" style="fill:rgb(53,67,119);"/>
            </g>
            <g transform="matrix(0.648603,0,0,0.648603,191.933,13.2498)">
                <path d="M615.245,145.86C644.411,145.86 661.994,132.001 661.994,109.04C661.994,91.664 652.272,82.563 626.829,75.943C600.765,69.324 597.042,67.462 597.042,61.671C597.042,55.258 603.868,51.535 614.211,52.155C624.76,52.983 631.173,57.947 632.207,66.221L660.959,61.05C658.063,40.778 639.86,27.954 613.59,27.954C586.492,27.954 569.117,41.606 569.117,63.119C569.117,80.287 579.046,88.975 606.35,96.008C630.552,102.421 633.241,103.869 633.241,110.488C633.241,117.521 627.449,121.658 617.313,121.658C604.902,121.658 596.421,115.452 594.146,104.903L565.393,109.247C569.117,132.621 587.113,145.86 615.245,145.86Z" style="fill:rgb(53,67,119);fill-rule:nonzero;"/>
            </g>
            <g transform="matrix(0.648603,0,0,0.648603,191.933,13.2498)">
                <path d="M719.499,52.776L751.768,52.776L751.768,31.056L719.499,31.056L719.499,0.028L691.367,0.028L691.367,31.056L672.336,31.056L672.336,52.776L691.367,52.776L691.367,95.388C691.367,108.833 690.332,118.762 695.917,128.898C705.019,145.239 728.6,147.101 751.768,142.757L751.768,119.382C738.529,121.244 726.738,121.658 721.774,113.797C719.085,109.66 719.499,102.421 719.499,93.733L719.499,52.776Z" style="fill:rgb(53,67,119);fill-rule:nonzero;"/>
            </g>
            <g transform="matrix(1,0,0,1,-40.828,0)">
                <path d="M842.13,62L842.13,106.46L823.49,106.46L823.49,63.37C823.49,58.1 822.49,54.86 819.97,52.02C817.542,49.52 814.202,48.108 810.717,48.108C807.165,48.108 803.766,49.575 801.33,52.16C798.49,55.4 798,58.64 798,62.29L798,106.48L779.3,106.48L779.3,63.37C779.3,58.1 778.36,54.86 775.79,52.02C773.36,49.52 770.018,48.108 766.532,48.108C762.979,48.108 759.578,49.575 757.14,52.16C754.3,55.4 753.76,58.64 753.76,62.29L753.76,106.48L735.25,106.48L735.25,33.48L751.47,33.48L751.47,41.32C756.754,35.2 764.464,31.692 772.55,31.73C778.63,31.73 786.33,33.62 790.92,38.48C792.218,39.85 793.353,41.367 794.3,43C799.562,35.911 807.902,31.743 816.73,31.79C822.81,31.79 830.51,33.68 835.11,38.54C841.46,45.13 842.13,52.7 842.13,62Z" style="fill:rgb(53,67,119);fill-rule:nonzero;"/>
            </g>
            <g transform="matrix(1,0,0,1,-40.828,0)">
                <rect x="857" y="33.51" width="18.41" height="73" style="fill:rgb(53,67,119);fill-rule:nonzero;"/>
            </g>
            <g transform="matrix(1,0,0,1,-40.828,0)">
                <circle cx="866.22" cy="11.99" r="11.67" style="fill:rgb(53,67,119);"/>
            </g>
        </g>
    </g>
    <g transform="matrix(0.142974,0,0,0.142974,0,0)">
        <g>
            <clipPath id="_clip1">
                <path d="M1224,122.4L1224,1101.6C1224,1169.15 1169.15,1224 1101.6,1224L122.4,1224C54.846,1224 -0,1169.15 -0,1101.6L-0,122.4C-0,54.846 54.846,0 122.4,0L1101.6,0C1169.15,0 1224,54.846 1224,122.4Z"/>
            </clipPath>
            <g clip-path="url(#_clip1)">
                <g>
                    <g transform="matrix(0.999999,0,0,0.999999,-0.000251311,-1.38191e-12)">
                        <rect x="0" y="0" width="1224" height="1224" style="fill:rgb(53,67,119);"/>
                    </g>
                    <g transform="matrix(0.999999,0,0,0.999999,1705.33,37.6468)">
                        <path d="M0,776.185L-90.729,765.823C-69.425,579.29 -142.029,392.614 -284.949,266.455C-424.093,143.639 -612.031,95.742 -787.747,138.395C-1000.76,190.092 -1124.99,355.48 -1224.82,488.373C-1347.68,651.952 -1418.78,736.653 -1568.78,722.661L-1571.3,722.357C-1717.65,700.438 -1791.2,574.92 -1799.18,460.255L-1708.09,453.924C-1702.66,531.856 -1654.46,616.896 -1559,631.851C-1464.18,640.43 -1421.94,598.766 -1297.83,433.529C-1189.24,288.972 -1054.11,109.074 -809.283,49.646C-604.629,0 -386.023,55.424 -224.514,198.002C-59.245,343.888 24.685,560.027 0,776.185" style="fill:rgb(193,235,247);fill-rule:nonzero;"/>
                    </g>
                    <g transform="matrix(0.999999,0,0,0.999999,169.175,449.175)">
                        <path d="M0,705.369C-24.89,705.369 -50.582,704.032 -76.367,701.392L-83.707,700.527C-397.621,657.739 -632.136,400.961 -654.751,75.98L-563.657,69.648C-544.073,350.986 -341.947,573.163 -72.118,609.949L-66.299,610.636C-44.366,612.874 -21.799,614.051 -0.004,614.051C284.713,614.034 433.074,416.532 552.282,257.831C650.975,126.454 716.686,44.661 819.48,19.709C900.77,0 985.422,22.268 1051.78,80.849C1120.93,141.891 1156.16,231.336 1146.02,320.104L1055.29,309.741C1062.05,250.598 1038.14,190.618 991.344,149.302C947.678,110.75 892.9,95.848 841.017,108.458C768.498,126.053 711.798,197.529 625.292,312.675C500.813,478.394 330.332,705.351 0,705.369" style="fill:rgb(193,235,247);fill-rule:nonzero;"/>
                    </g>
                    <g transform="matrix(0.999999,0,0,0.999999,168.091,264.862)">
                        <path d="M0,692.394C-15.985,692.394 -32.702,691.591 -49.69,690.013L-62.968,688.399C-254.353,659.96 -410.677,503.48 -451.961,299.013C-453.223,292.771 -454.615,286.555 -456.001,280.33C-458.088,270.967 -460.17,261.594 -461.918,252.133L-372.125,235.528C-370.578,243.893 -368.719,252.177 -366.873,260.462C-365.352,267.275 -363.836,274.088 -362.454,280.937C-328.228,450.437 -205.403,574.92 -49.543,598.08L-41.125,599.096C-27.043,600.407 -13.171,601.076 0,601.076C187.295,601.076 283.848,472.526 395.646,323.671C490.196,197.814 597.321,55.219 774.049,12.325C807.736,4.147 842.551,0 877.526,0C1011.31,0 1139.61,60.864 1229.52,166.977C1316.5,269.621 1354.28,401.184 1333.19,527.933L1243.11,512.951C1259.79,412.724 1229.44,308.136 1159.85,226.013C1087.32,140.411 984.419,91.318 877.526,91.318C849.801,91.318 822.236,94.6 795.59,101.065C650.671,136.237 562.279,253.898 468.696,378.471C352.765,532.828 232.918,692.394 0,692.394" style="fill:rgb(193,235,247);fill-rule:nonzero;"/>
                    </g>
                </g>
            </g>
        </g>
    </g>
</svg>
