<?xml version="1.0" encoding="UTF-8" standalone="no"?><!DOCTYPE svg PUBLIC "-//W3C//DTD SVG 1.1//EN" "http://www.w3.org/Graphics/SVG/1.1/DTD/svg11.dtd"><svg width="100%" height="100%" viewBox="0 0 120 192" version="1.1" xmlns="http://www.w3.org/2000/svg" xmlns:xlink="http://www.w3.org/1999/xlink" xml:space="preserve" xmlns:serif="http://www.serif.com/" style="fill-rule:evenodd;clip-rule:evenodd;stroke-linejoin:round;stroke-miterlimit:2;"><g id="johnny2"><g><path d="M72.147,103.531l-4.661,67.489l-5.41,0l-1.201,-57.358l2.794,26.46l-1.078,41.46l-5.923,-1.288l-3.094,-39.927l-4.033,-36.322l22.606,-0.514Z" style="fill:#224d6c;fill-rule:nonzero;"/><path d="M61.303,191.5l-5.28,0l-0.773,-2.189l1.377,-9.058l6.029,1.266l-1.353,9.981Z" style="fill:#2a2a29;fill-rule:nonzero;"/><path d="M62.878,170.547l4.608,0.473l0,0.001l0.943,6.871l-5.773,-0.146l0.222,-7.199Z" style="fill:#2a2a29;fill-rule:nonzero;"/><path d="M61.419,113.563l2.72,28.607l-1.282,28.859l5.426,-11.54l2.522,-36.516l-9.386,-9.411Z" style="fill:#171817;fill-opacity:0.5;fill-rule:nonzero;"/></g><path d="M42.233,100.49l-2.349,5.768l0.451,7.992l2.654,-1.018l0.541,-6.748l-0.22,2.034l2.4,0.107l-0.872,-5.549l-2.605,-2.586Z" style="fill:#e1c5b5;fill-rule:nonzero;"/><path d="M78.34,100.768l1.776,4.479l-0.157,7.378l-2.899,-0.381l-0.588,-6.746l0.232,2.033l-2.494,0.344l0.837,-5.593l3.293,-1.514Z" style="fill:#e1c5b5;fill-rule:nonzero;"/><path d="M52.926,65.553l3.464,-1.624l1.832,-5.716l4.292,1.223l1.074,4.09l2.841,1.165l0.027,9.481l-12.954,-0.193l-0.576,-8.426Z" style="fill:#ceab97;fill-rule:nonzero;"/><g><path d="M66.071,50.736l1.523,-0.019l0.037,2.7l-1.985,1.12l0.425,-3.801Z" style="fill:#e1c5b5;"/><path d="M54.208,50.736l-1.523,-0.019l-0.037,2.7l1.984,1.12l-0.424,-3.801Z" style="fill:#e1c5b5;"/><path d="M54.62,43.159l-0.576,8.501l0.815,6.843l3.25,4.125l3.421,0.039l3.587,-3.804l1.152,-8.083l-0.336,-8.167l-4.965,-0.909l-6.348,1.455Z" style="fill:#e1c5b5;"/><path d="M54.305,45.634l5.932,1.784l5.981,-2.123l-0.251,-3.078l-3.204,-0.829l-5.357,0.389l-2.971,1.235l-0.13,2.622Z" style="fill:#cfae80;"/></g><path d="M54.964,50.001l10.278,-0.218l1.017,-0.192l0.021,1.112l-1.437,2.458l-3.167,0.093l-0.828,-0.696l-1.312,0l-0.745,0.706l-3.155,0.01l-1.56,-2.617l0.098,-0.95l0.79,0.294Z" style="fill:#2a2a29;"/><g><path d="M56.819,62.59l1.295,2.705l3.662,-0.049l1.501,-2.906l0.371,1.211l2.781,1.14l0.115,1.437l-4.058,8.518l-5.061,0.113l-4.499,-5.965l0,-3.241l3.477,-1.665l0.416,-1.298Z" style="fill:#e4e2dc;"/><path d="M58.114,65.295l3.662,-0.049l-0.977,2.673l1.195,6.738l-0.606,5.436l-3.212,0.216l-0.751,-5.55l1.559,-6.864l-0.87,-2.6Z" style="fill:#ef9d75;"/><path d="M53.989,65.034l6.011,13.504l6.429,-13.847l4.825,4.024l0.881,35.001l-22.594,0.558l0.961,-37.6l3.487,-1.64Z" style="fill:#386489;"/></g><path d="M54.879,104.539l11.826,-0.117l0.33,-1.309l-12.451,0.308l0.295,1.118Z" style="fill:#564139;"/><path d="M44.965,69.122l9.387,-4.252l2.477,11.806l-1.017,32.213l-7.075,1.127l-0.211,-29.864l-3.167,23.409l-3.778,-1.884l3.384,-32.555Z" style="fill:#224d6c;"/><path d="M66.063,64.502l10.08,4.445l2.573,32.769l-4.117,1.627l-2.452,-24.588l0.341,31.444l-6.303,-1.759l-2.474,-32.145l2.352,-11.793Z" style="fill:#224d6c;"/><path d="M66.131,79.39l4.34,0.446l-1.282,-2.679l-3.058,2.233Z" style="fill:#ebdab1;"/></g></svg>