<?xml version="1.0" encoding="UTF-8" standalone="no"?><!DOCTYPE svg PUBLIC "-//W3C//DTD SVG 1.1//EN" "http://www.w3.org/Graphics/SVG/1.1/DTD/svg11.dtd"><svg width="100%" height="100%" viewBox="0 0 120 192" version="1.1" xmlns="http://www.w3.org/2000/svg" xmlns:xlink="http://www.w3.org/1999/xlink" xml:space="preserve" xmlns:serif="http://www.serif.com/" style="fill-rule:evenodd;clip-rule:evenodd;stroke-linejoin:round;stroke-miterlimit:2;"><g id="junebug"><path d="M53.284,65.553l3.464,-1.624l1.832,-5.716l4.292,1.223l1.075,4.09l2.84,1.165l0.027,9.481l-12.954,-0.193l-0.576,-8.426Z" style="fill:#ceab97;fill-rule:nonzero;"/><g><path d="M66.402,50.74l1.515,-0.019l0.037,2.686l-1.975,1.115l0.423,-3.782Z" style="fill:#e1c5b5;"/><path d="M55.56,44.222l-1.027,9.88l0.714,4.366l3.234,4.103l3.403,0.039l3.569,-3.785l1.146,-8.041l-0.335,-8.126l-4.671,-2.055l-6.033,3.619Z" style="fill:#e1c5b5;"/><path d="M60.543,38.6l-5.832,2.612l-1.793,13.977l0.631,8.671l3.134,-11.268l7.075,-8.585l3.649,-2.446l-6.864,-2.961Z" style="fill:#109ba8;"/></g><g><path d="M66.943,173.034l0.853,6.195l-6.039,-0.155l-0.465,-6.658l5.672,0.299l-0.021,0.319Z" style="fill:#2a2b2a;fill-rule:nonzero;"/><path d="M61.448,135.563l0.929,46.916l-5.188,-1.083l-4.159,-45.978" style="fill:#5d6061;fill-rule:nonzero;"/><path d="M55.911,189.525l0.697,1.975l4.761,0l1.218,-9.001l-5.436,-1.141l-1.24,8.167Z" style="fill:#2a2b2a;fill-rule:nonzero;"/><path d="M61.291,118.994l0.156,19.819l0.477,33.831l5.018,0.39l2.324,-34.433l-7.975,-19.607Z" style="fill:#5d6061;fill-rule:nonzero;"/></g><g><path d="M71.749,108.451l-4.291,56.948l-5.419,0.611l-1.164,-52.348l2.264,27.712l-1.025,28.072l-6.025,0.884l-3.06,-34.922l-3.242,-27.056l0.043,-0.371l21.888,0.192l0.031,0.278Z" style="fill:#2a2a29;fill-rule:nonzero;"/><path d="M61.419,113.563l1.7,27.568l-0.742,24.841l5.936,-11.925l2.361,-31.335l-9.255,-9.149Z" style="fill:#171817;fill-opacity:0.5;fill-rule:nonzero;"/></g><g><path d="M42.988,102.852l-1.037,5.519l1.428,7.046l2.572,-1.444l-0.736,-6.06l0.17,1.837l2.392,-0.594l-2.019,-4.489l-2.77,-1.815Z" style="fill:#e1c5b5;fill-rule:nonzero;"/><path d="M47.246,96.391l-1.438,8.687l-3.05,-1.145l1.229,-9.392l3.259,1.85Z" style="fill:#e1c5b5;fill-rule:nonzero;"/></g><g><path d="M74.53,96.04l0.36,8.092l3.288,-0.238l-0.454,-9.031l-3.194,1.177Z" style="fill:#e1c5b5;fill-rule:nonzero;"/><path d="M78.188,103.799l0.295,4.335l-2.928,6.144l-2.4,-1.423l2.129,-5.506l-0.358,1.809l-2.021,-1.636l2.008,-3.432l3.275,-0.291Z" style="fill:#e1c5b5;fill-rule:nonzero;"/></g><g><path d="M49.787,108.352l21.962,0.099l-1.802,-16.156l0.81,-19.136l-10.553,0.351l-8.42,-0.346l-0.192,19.358l-1.805,15.83Z" style="fill:#4a4b73;"/><path d="M54.348,86.571l11.545,-10.54l-0.101,9.657l-11.15,7.577l-0.294,-6.694Z" style="fill:#720f1b;fill-opacity:0.35;"/><path d="M49.787,108.352l21.962,0.099l-1.802,-16.156l0.13,-3.066l-19.652,13.528l-0.638,5.595Z" style="fill:#720f1b;fill-opacity:0.35;"/><path d="M45.428,69.515l7.856,-3.962l3.236,10.713l-0.206,13.786l-1.766,12.264l-5.946,3.454l1.653,-15.525l0.421,-13.655l-3.66,21.195l-3.229,-1.716l1.641,-26.554Z" style="fill:#2a2a29;"/><path d="M66.787,64.691l9.72,4.825l1.267,26.323l-3.201,1.161l-2.835,-22.595l-0.526,15.664l1.081,15.701l-6.048,-3.224l-1.73,-13.478l-0.165,-12.683l2.437,-11.694Z" style="fill:#2a2a29;"/></g></g></svg>