<?xml version="1.0" encoding="UTF-8" standalone="no"?><!DOCTYPE svg PUBLIC "-//W3C//DTD SVG 1.1//EN" "http://www.w3.org/Graphics/SVG/1.1/DTD/svg11.dtd"><svg width="100%" height="100%" viewBox="0 0 120 192" version="1.1" xmlns="http://www.w3.org/2000/svg" xmlns:xlink="http://www.w3.org/1999/xlink" xml:space="preserve" xmlns:serif="http://www.serif.com/" style="fill-rule:evenodd;clip-rule:evenodd;stroke-linejoin:round;stroke-miterlimit:2;"><g id="junebug2"><path d="M53.284,65.553l3.464,-1.624l1.832,-5.716l4.292,1.223l1.075,4.09l2.84,1.165l0.027,9.481l-12.954,-0.193l-0.576,-8.426Z" style="fill:#ceab97;fill-rule:nonzero;"/><g><path d="M66.402,50.74l1.515,-0.019l0.037,2.686l-1.975,1.115l0.423,-3.782Z" style="fill:#e1c5b5;"/><path d="M55.56,44.222l-1.027,9.88l0.714,4.366l3.234,4.103l3.403,0.039l3.569,-3.785l1.146,-8.041l-0.335,-8.126l-4.671,-2.055l-6.033,3.619Z" style="fill:#e1c5b5;"/><path d="M60.543,38.6l-5.832,2.612l-1.793,13.977l0.631,8.671l3.134,-11.268l7.075,-8.585l3.649,-2.446l-6.864,-2.961Z" style="fill:#ecdbb1;"/></g><g><path d="M66.943,173.034l0.853,6.195l-6.039,-0.155l-0.465,-6.658l5.672,0.299l-0.021,0.319Z" style="fill:#2a2b2a;fill-rule:nonzero;"/><path d="M61.448,135.563l0.929,46.916l-5.188,-1.083l-4.159,-45.978" style="fill:#c2beba;fill-rule:nonzero;"/><path d="M55.911,189.525l0.697,1.975l4.761,0l1.218,-9.001l-5.436,-1.141l-1.24,8.167Z" style="fill:#2a2b2a;fill-rule:nonzero;"/><path d="M61.291,118.994l0.156,19.819l0.477,33.831l5.018,0.39l2.324,-34.433l-7.975,-19.607Z" style="fill:#c2beba;fill-rule:nonzero;"/></g><g><path d="M71.749,108.451l-4.291,56.948l-5.419,0.611l-1.164,-52.348l2.264,27.712l-1.025,28.072l-6.025,0.884l-3.06,-34.922l-3.242,-27.056l0.043,-0.371l21.888,0.192l0.031,0.278Z" style="fill:#c2beba;fill-rule:nonzero;"/><path d="M56.323,142.614l1.812,-3.38l2.143,3.412l-1.699,3.51l-2.256,-3.542Z" style="fill:#49799e;"/><path d="M64.481,141.409l1.44,-3.435l1.993,3.157l-1.635,3.5l-1.798,-3.222Z" style="fill:#49799e;"/><path d="M61.419,113.563l1.7,27.568l-0.742,24.841l5.936,-11.925l2.361,-31.335l-9.255,-9.149Z" style="fill:#171817;fill-opacity:0.5;fill-rule:nonzero;"/></g><path d="M68.996,92.459l0.027,-0.294l-16.279,0.07l0.013,0.257l-14.995,33.803l43.574,1.231l-12.34,-35.067Z" style="fill:#2a2a29;fill-rule:nonzero;"/><path d="M45.628,126.517l12.483,-25.497l-3.826,25.742l-8.657,-0.245Z" style="fill-opacity:0.5;"/><g><path d="M78.188,103.799l0.295,4.335l-2.928,6.144l-2.4,-1.423l2.129,-5.506l-0.358,1.809l-2.021,-1.636l2.008,-3.432l3.275,-0.291Z" style="fill:#e1c5b5;fill-rule:nonzero;"/></g><g><path d="M42.988,102.852l-1.037,5.519l1.428,7.046l2.572,-1.444l-0.736,-6.06l0.17,1.837l2.392,-0.594l-2.019,-4.489l-2.77,-1.815Z" style="fill:#e1c5b5;fill-rule:nonzero;"/></g><g><path d="M57.176,62.595l3.06,3.924l3.417,-4.11l0.301,1.12l2.86,1.176l-1.071,4.997l-11.281,-0.251l-1.178,-3.898l3.464,-1.624l0.428,-1.334Z" style="fill:#e4e2dc;"/><path d="M60.236,66.519l3.559,4.483l-6.912,-0.132l3.353,-4.351Z" style="fill:#2a2a29;"/><path d="M60.459,70.224l6.328,-5.533l9.72,4.825l1.681,34.283l-3.275,0.291l-3.258,-30.747l-2.659,19.116l-16.239,0.033l-1.954,-19.264l-4.958,31.631l-3.053,-0.913l0.995,-13.626l1.641,-20.805l8.54,-4.283l6.491,4.992Z" style="fill:#89bb6a;"/><path d="M76.507,69.516l2.259,24.839l-2.655,2.901l-3.428,-2.159l-1.028,-21.754l4.852,-3.827Z" style="fill:#89bb6a;"/><path d="M45.428,69.516l5.375,3.712l-2.275,21.879l-3.039,2.149l-2.888,-3.024l2.827,-24.716Z" style="fill:#89bb6a;"/></g><path d="M60.683,126.943l7.362,-24.074l3.257,24.374l-10.619,-0.3Z" style="fill-opacity:0.5;"/></g></svg>