<?xml version="1.0" standalone="no"?><!DOCTYPE svg PUBLIC "-//W3C//DTD SVG 1.1//EN" "http://www.w3.org/Graphics/SVG/1.1/DTD/svg11.dtd"><svg width="120px" height="192px" version="1.1" xmlns="http://www.w3.org/2000/svg" xmlns:xlink="http://www.w3.org/1999/xlink" xml:space="preserve" style="fill-rule:evenodd;clip-rule:evenodd;stroke-linejoin:round;stroke-miterlimit:1.41421;"><g><g id="people-28" transform="matrix(1,0,0,1,-1037.94,-48)"><g transform="matrix(1,0,0,1,0,-12)"><path d="M1128.56,239.218l0.657,4.066l-3.979,-0.005l-0.411,-4.379l3.733,0.318Z" style="fill:#fec;fill-rule:nonzero;"/></g><g transform="matrix(1,0,0,1,0,-12)"><path d="M1129.12,156.005l-3.825,-3.076l-5.239,0.233l-1.009,-0.084l-4.497,3.61l1.499,15.695l2.993,-0.454l0.363,-0.711l2.039,-0.889l3.692,0.446l2.014,1.037l2.537,-0.215l-0.567,-15.592Z" style="fill:#553f37;fill-rule:nonzero;"/></g><g transform="matrix(1,0,0,1,0,-12)"><path d="M1118.45,168.693l1.656,-1.162l1.142,-3.496l2.845,0.738l0.949,2.181l1.96,0.922l0.776,10.853l-4.427,12.936l-4.901,-22.972Z" style="fill:#735a4c;fill-rule:nonzero;"/></g><g transform="matrix(1,0,0,1,0,-12)"><path d="M1121.25,166.508l2.546,-0.061l2.656,-3.59l-0.644,-6.488l-4.911,-0.699l-3.008,1.281l0.244,6.106l3.117,3.451Z" style="fill:#aa8b7e;fill-rule:nonzero;"/></g><g transform="matrix(1,0,0,1,0,-12)"><path d="M1125.68,158.449l1.676,-0.012l0.203,2.916l-1.712,-0.048l-0.167,-2.856Z" style="fill:#aa8b7e;fill-rule:nonzero;"/></g><g transform="matrix(1,0,0,1,0,-12)"><path d="M1118.2,159.026l-1.68,0.501l0.192,2.444l1.497,0.023l-0.009,-2.968Z" style="fill:#aa8b7e;fill-rule:nonzero;"/></g><g transform="matrix(1,0,0,1,0,-12)"><path d="M1130.3,196.07l-1.735,43.147l-3.213,0.078l-1.603,-37.048l2.109,18.676l0.95,24.612l-5.537,-0.632l-1.406,-23.691l-2.983,-24.515l13.418,-0.627Z" style="fill:#ae2025;fill-rule:nonzero;"/></g><g transform="matrix(1,0,0,1,0,-12)"><path d="M1124.07,202.18l2.094,19.952l0.4,15.799l2.264,-4.698l0.914,-25.718l-5.672,-5.335Z" style="fill:#720e1a;fill-rule:nonzero;"/></g><g transform="matrix(1,0,0,1,0,-12)"><path d="M1109.15,175.562l-2.229,-2.238l-4.455,-1.663l-0.08,1.685l3.541,1.908l-3.86,-1.004l-0.313,3.187l5.563,1l1.833,-2.875Z" style="fill:#aa8b7e;fill-rule:nonzero;"/></g><g transform="matrix(1,0,0,1,0,-12)"><path d="M1133.92,193.747l1.118,2.634l0.011,4.385l-1.727,-0.186l-0.445,-3.998l0.166,1.205l-1.476,0.239l0.417,-3.333l1.936,-0.946Z" style="fill:#aa8b7e;fill-rule:nonzero;"/></g><g transform="matrix(1,0,0,1,0,-12)"><path d="M1127.08,167.798l4.513,1.657l3.246,24.93l-2.91,0.267l-2.986,-22.537l1.39,23.954l-13.453,0.628l0.514,-20.948l-2.361,-4.932l3.417,-2.201l1.768,1.94l5.251,-0.043l1.611,-2.715Z" style="fill:#c1beba;fill-rule:nonzero;"/></g><g transform="matrix(1,0,0,1,0,-12)"><path d="M1115.06,170.844l-2.063,10.344l-3.874,-5.625l-1.875,2.812l5.437,8.416l2.416,-0.042l2.417,-11.125" style="fill:#c1beba;fill-rule:nonzero;"/></g><g transform="matrix(1,0,0,1,0,-12)"><path d="M1073.6,140.25l4.799,-1.888l10.424,-0.406l-1.975,-8.332l-12.687,-0.233l-0.561,10.859Z" style="fill:#e4e2dc;fill-rule:nonzero;"/></g><g transform="matrix(1,0,0,1,0,-12)"><path d="M1074.54,138.305l2.553,-1.703l1.857,-5.265l4.293,1.223l1.361,3.346l2.942,1.47l-1.858,6.116l-8.748,0.233l-2.4,-5.42Z" style="fill:#ceab97;fill-rule:nonzero;"/></g><g transform="matrix(1,0,0,1,0,-12)"><path d="M1088.32,233.534l0.852,6.195l-7.038,-0.155l-0.466,-6.658l6.652,0.618Z" style="fill:#2a2b2a;fill-rule:nonzero;"/></g><g transform="matrix(1,0,0,1,0,-12)"><path d="M1081.82,196.062l0.93,46.917l-7.19,-1.083l-4.568,-45.989" style="fill:#e1c5b5;fill-rule:nonzero;"/></g><g transform="matrix(1,0,0,1,0,-12)"><path d="M1081.66,179.494l0.156,19.819l0.737,33.835l5.759,0.386l2.325,-34.433l-8.977,-19.607Z" style="fill:#ceab97;fill-rule:nonzero;"/></g><g transform="matrix(1,0,0,1,0,-12)"><path d="M1096.28,139.698l-8.703,-2.352l-2.274,5.603l-8.052,0.233l-2.709,-4.994l-8.192,3.563l4.211,6.999l-0.293,12l-4.205,48.158l29.846,0.232l-3.885,-47.89l0.703,-12.833l3.553,-8.719Z" style="fill:#49799e;fill-rule:nonzero;"/></g><g transform="matrix(1,0,0,1,0,-12)"><path d="M1093.31,146.812l8.756,23.845l4.067,-1.381l-9.874,-29.557l-2.949,7.093Z" style="fill:#e1c5b5;fill-rule:nonzero;"/></g><g transform="matrix(1,0,0,1,0,-12)"><path d="M1106.12,169.181l1.449,4.097l-1.169,6.704l-2.694,-0.725l0.57,-5.875l0.142,1.838l-2.387,-1.033l0.044,-3.562l4.045,-1.444Z" style="fill:#e1c5b5;fill-rule:nonzero;"/></g><g transform="matrix(1,0,0,1,0,-12)"><path d="M1074.37,250.025l2.614,1.975l4.761,0l1.219,-9.001l-7.354,-1.141l-1.24,8.167Z" style="fill:#2a2b2a;fill-rule:nonzero;"/></g><g transform="matrix(1,0,0,1,0,-12)"><path d="M1078.86,135.089l3.865,0l4.162,-5.351l-0.744,-11.446l-7.424,-1.24l-4.613,1.835l0.149,10.851l4.605,5.351Z" style="fill:#e1c5b5;fill-rule:nonzero;"/></g><g transform="matrix(1,0,0,1,0,-12)"><path d="M1061.81,169.936l-0.984,5.412l1.427,7.047l2.573,-1.444l-0.737,-6.061l0.17,1.838l2.393,-0.595l-0.967,-4.113l-3.875,-2.084Z" style="fill:#e1c5b5;fill-rule:nonzero;"/></g><g transform="matrix(1,0,0,1,0,-12)"><path d="M1070.5,148.375l-4.814,23.682l-4.051,-1.145l4.74,-29.037l4.125,6.5Z" style="fill:#e1c5b5;fill-rule:nonzero;"/></g><g transform="matrix(1,0,0,1,0,-12)"><path d="M1079.98,113.667l8.582,2.708l4.707,23.208l-4.85,5.167l0.059,-5.574l-0.31,-1.646l-1.491,-7.529l-1.865,-9.501l-5.102,-2.083l0.27,-4.75Z" style="fill:#e4e2dc;fill-rule:nonzero;"/></g><g transform="matrix(1,0,0,1,0,-12)"><path d="M1079.8,118.417l-5.023,1.887l-0.588,22.196l-4.248,-0.749l0.832,-23.918l9.334,-4.25l-0.307,4.834Z" style="fill:#e4e2dc;fill-rule:nonzero;"/></g><g transform="matrix(1,0,0,1,0,-12)"><path d="M1120.55,250.214l1.492,1.327l3.136,-0.073l0.682,-6.207l-4.621,-0.445l-0.689,5.398Z" style="fill:#fec;fill-rule:nonzero;"/></g></g></g></svg>