<?xml version="1.0" standalone="no"?><!DOCTYPE svg PUBLIC "-//W3C//DTD SVG 1.1//EN" "http://www.w3.org/Graphics/SVG/1.1/DTD/svg11.dtd"><svg width="120px" height="192px" version="1.1" xmlns="http://www.w3.org/2000/svg" xmlns:xlink="http://www.w3.org/1999/xlink" xml:space="preserve" style="fill-rule:evenodd;clip-rule:evenodd;stroke-linejoin:round;stroke-miterlimit:1.41421;"><g><g id="people-11" transform="matrix(1,0,0,1,-1889,-48)"><g transform="matrix(1,0,0,1,0,-12)"><path d="M1941.51,231.02l-0.943,6.871l6.697,-0.172l0.516,-7.384l-6.27,0.685Z" style="fill:#2a2b2a;fill-rule:nonzero;"/></g><g transform="matrix(1,0,0,1,0,-12)"><path d="M1946.34,241.519l1.353,9.981l5.28,0l0.773,-2.189l-1.377,-9.057l-6.029,1.265Z" style="fill:#2a2b2a;fill-rule:nonzero;"/></g><g transform="matrix(1,0,0,1,0,-12)"><path d="M1950.89,114.329l-4.286,0l-4.616,-5.935l0.824,-12.694l8.234,-1.375l5.115,2.034l-0.163,12.035l-5.108,5.935Z" style="fill:#e1c5b5;fill-rule:nonzero;"/></g><g transform="matrix(1,0,0,1,0,-12)"><path d="M1955.68,117.896l-2.834,-1.889l-2.061,-5.839l-4.757,1.357l-1.51,3.709l-3.262,1.632l7.103,11.462l7.321,-10.432Z" style="fill:#e1c5b5;fill-rule:nonzero;"/></g><g transform="matrix(1,0,0,1,0,-12)"><path d="M1942.5,100.946l-2.822,0.047l-0.223,4.916l2.879,-0.15l0.166,-4.813Z" style="fill:#e1c5b5;fill-rule:nonzero;"/></g><g transform="matrix(1,0,0,1,0,-12)"><path d="M1955.79,101.615l2.848,0.775l-0.223,4.122l-2.518,0.098l-0.107,-4.995Z" style="fill:#e1c5b5;fill-rule:nonzero;"/></g><g transform="matrix(1,0,0,1,0,-12)"><path d="M1936.85,156.022l4.661,74.999l5.41,0l1.201,-64.868l-2.794,28.965l1.078,46.465l5.923,-1.289l3.094,-44.931l4.033,-38.827l-22.606,-0.514Z" style="fill:#313156;fill-rule:nonzero;"/></g><g transform="matrix(1,0,0,1,0,-12)"><path d="M1947.58,166.053l-2.72,31.112l1.282,33.865l-5.317,-10.072l-2.576,-45.699l9.331,-9.206Z" style="fill:#171817;fill-opacity:0.5;fill-rule:nonzero;"/></g><g transform="matrix(1,0,0,1,0,-12)"><path d="M1966.76,151.981l2.349,5.768l-0.451,7.992l-2.655,-1.018l-0.54,-6.748l0.22,2.034l-2.4,0.107l0.871,-5.549l-6,-25.23l4.693,-0.784l3.913,23.428Z" style="fill:#e1c5b5;fill-rule:nonzero;"/></g><g transform="matrix(1,0,0,1,0,-12)"><path d="M1930.66,152.008l-1.775,4.729l0.156,7.378l2.899,-0.381l0.587,-6.746l-0.232,2.033l2.495,0.344l-0.837,-5.843l3.696,-25.741l-3.753,-0.745l-3.236,24.972Z" style="fill:#e1c5b5;fill-rule:nonzero;"/></g><g transform="matrix(1,0,0,1,0,-12)"><path d="M1943.62,115.736l-8.725,3.705l-1.173,8.886l3.81,0.225l0.625,-1.975l-1.373,29.442l22.668,0.516l-1.889,-29.709l0.59,2.511l4.694,-0.785l-1.333,-7.222l-8.339,-5.065l-9.555,-0.529Z" style="fill:#694;fill-rule:nonzero;"/></g></g></g></svg>