<?xml version="1.0" standalone="no"?><!DOCTYPE svg PUBLIC "-//W3C//DTD SVG 1.1//EN" "http://www.w3.org/Graphics/SVG/1.1/DTD/svg11.dtd"><svg width="120px" height="192px" version="1.1" xmlns="http://www.w3.org/2000/svg" xmlns:xlink="http://www.w3.org/1999/xlink" xml:space="preserve" style="fill-rule:evenodd;clip-rule:evenodd;stroke-linejoin:round;stroke-miterlimit:1.41421;"><g><g id="people-13" transform="matrix(1,0,0,1,-1999,-48)"><g transform="matrix(1,0,0,1,0,-12)"><path d="M2066.48,231.02l0.943,6.871l-6.697,-0.172l-0.516,-7.384l6.27,0.685Z" style="fill:#ceab97;fill-rule:nonzero;"/></g><g transform="matrix(1,0,0,1,0,-12)"><path d="M2069.46,104.669l-4.381,-4.424l-9.435,-0.913l-0.022,0.086l-5.398,2.699l-2.016,2.508l-0.082,26.893l5.056,-0.645l0.641,-1.182l3.467,-1.412l6.194,0.897l3.349,1.827l4.277,-0.258l-1.65,-26.076Z" style="fill:#f5f3e9;fill-rule:nonzero;"/></g><g transform="matrix(1,0,0,1,0,-12)"><path d="M2054.25,249.311l0.773,2.189l5.28,0l1.353,-9.981l-6.029,-1.266l-1.377,9.058Z" style="fill:#ceab97;fill-rule:nonzero;"/></g><g transform="matrix(1,0,0,1,0,-12)"><path d="M2052.32,125.405l2.834,-1.889l2.061,-5.839l4.757,1.357l1.51,3.709l3.262,1.632l0.869,18.297l-7.972,13.165l-7.321,-30.432Z" style="fill:#ceab97;fill-rule:nonzero;"/></g><g transform="matrix(1,0,0,1,0,-12)"><path d="M2057.11,121.839l4.286,0l4.616,-5.935l-0.824,-10.944l-8.234,-1.375l-5.116,2.034l0.164,10.285l5.108,5.935Z" style="fill:#e1c5b5;fill-rule:nonzero;"/></g><g transform="matrix(1,0,0,1,0,-12)"><path d="M2063.5,108.456l2.822,0.047l0.223,4.916l-2.879,-0.15l-0.166,-4.813Z" style="fill:#e1c5b5;fill-rule:nonzero;"/></g><g transform="matrix(1,0,0,1,0,-12)"><path d="M2053.96,109.125l-2.848,0.775l0.224,4.122l2.518,0.098l0.106,-4.995Z" style="fill:#e1c5b5;fill-rule:nonzero;"/></g><g transform="matrix(1,0,0,1,0,-12)"><path d="M2071.15,163.531l-4.661,67.489l-5.41,0l-1.201,-57.358l2.794,26.46l-1.078,41.46l-5.923,-1.288l-3.094,-39.927l-4.033,-36.322l22.606,-0.514Z" style="fill:#5c5e5f;fill-rule:nonzero;"/></g><g transform="matrix(1,0,0,1,0,-12)"><path d="M2060.42,173.562l2.72,28.607l-1.282,28.86l5.317,-10.071l2.576,-38.19l-9.331,-9.206Z" style="fill:#171817;fill-opacity:0.25;fill-rule:nonzero;"/></g><g transform="matrix(1,0,0,1,0,-12)"><path d="M2041.23,159.49l-2.349,5.768l0.451,7.992l2.654,-1.018l0.541,-6.748l-0.22,2.034l2.4,0.107l-0.872,-5.549l-2.605,-2.586Z" style="fill:#ceab97;fill-rule:nonzero;"/></g><g transform="matrix(1,0,0,1,0,-12)"><path d="M2077.34,159.768l1.776,4.479l-0.157,7.378l-2.899,-0.381l-0.588,-6.746l0.232,2.033l-2.494,0.344l0.837,-5.593l3.293,-1.514Z" style="fill:#ceab97;fill-rule:nonzero;"/></g><g transform="matrix(1,0,0,1,0,-12)"><path d="M2066.87,124.246l6.225,2.705l4.459,33.659l-3.606,0.601l-4.115,-29.624l1.373,31.942l-22.668,0.516l1.889,-29.709l-6.526,27.819l-3.306,-1.459l5.88,-31.856l5.84,-3.565l2.546,8.6l10.825,-0.098l1.184,-9.531Z" style="fill:#2a2b2a;fill-rule:nonzero;"/></g></g></g></svg>