<?xml version="1.0" standalone="no"?><!DOCTYPE svg PUBLIC "-//W3C//DTD SVG 1.1//EN" "http://www.w3.org/Graphics/SVG/1.1/DTD/svg11.dtd"><svg width="120px" height="192px" version="1.1" xmlns="http://www.w3.org/2000/svg" xmlns:xlink="http://www.w3.org/1999/xlink" xml:space="preserve" style="fill-rule:evenodd;clip-rule:evenodd;stroke-linejoin:round;stroke-miterlimit:1.41421;"><g><g id="people-20" transform="matrix(1,0,0,1,-385.043,-48)"><g transform="matrix(1,0,0,1,0,-12)"><path d="M438.041,175.75l4.799,-1.888l10.424,-0.406l-2.475,-20.082l-12.688,-0.233l-0.06,22.609Z" style="fill:#ecdbb1;fill-rule:nonzero;"/></g><g transform="matrix(1,0,0,1,0,-12)"><path d="M444.417,149.167l8.583,2.708l4.707,23.208l-4.851,5.167l0.059,-5.574l-0.31,-1.646l-1.491,-7.529l-1.864,-9.501l-5.103,-2.083l0.27,-4.75Z" style="fill:#ecdbb1;fill-rule:nonzero;"/></g><g transform="matrix(1,0,0,1,0,-12)"><path d="M444.233,153.917l-5.022,1.887l-0.588,22.196l-4.248,-0.749l0.832,-23.918l9.334,-4.25l-0.308,4.834Z" style="fill:#ecdbb1;fill-rule:nonzero;"/></g><g transform="matrix(1,0,0,1,0,-12)"><path d="M436.581,205.249l-0.58,29.062l5.187,1.084l2.868,-30.575" style="fill:#ceab97;fill-rule:nonzero;"/></g><g transform="matrix(1,0,0,1,0,-12)"><path d="M446.598,204.881l3.729,29.809l4.761,0.385l-0.672,-30.406l-7.818,0.212Z" style="fill:#ceab97;fill-rule:nonzero;"/></g><g transform="matrix(1,0,0,1,0,-12)"><path d="M463.269,222.258l1.396,-9.402l-38.828,-0.036l1.499,9.479l35.933,-0.041Z" style="fill:#c1beba;fill-rule:nonzero;"/></g><g transform="matrix(1,0,0,1,0,-12)"><path d="M463.269,222.227l1.396,-9.402l-38.828,-0.036l1.499,9.479l35.933,-0.041Z" style="fill:#171817;fill-opacity:0.25;fill-rule:nonzero;"/></g><g transform="matrix(1,0,0,1,0,-12)"><path d="M427.186,244.198l0,-4.2l17.147,-0.056l0.719,4.273l-17.866,-0.017Z" style="fill:#c1beba;fill-rule:nonzero;"/></g><g transform="matrix(1,0,0,1,0,-12)"><path d="M464.718,244.198l0,-4.2l-17.147,-0.056l-0.719,4.273l17.866,-0.017Z" style="fill:#c1beba;fill-rule:nonzero;"/></g><g transform="matrix(1,0,0,1,0,-12)"><path d="M463.06,213.028l4.399,-42.402l-44.834,-0.036l4.502,42.479l35.933,-0.041Z" style="fill:#d8d3cb;fill-rule:nonzero;"/></g><g transform="matrix(1,0,0,1,0,-12)"><path d="M463.496,202.866l-1.244,1.289l0.046,46.008l1.381,1.837l2.252,0l1.334,-2.07l-0.183,-46.008l-1.38,-1.056l-2.206,0Z" style="fill:#2a2b2a;fill-rule:nonzero;"/></g><g transform="matrix(1,0,0,1,0,-12)"><path d="M424.002,202.866l-1.243,1.289l0.046,46.008l1.38,1.837l2.252,0l1.335,-2.07l-0.183,-46.008l-1.381,-1.056l-2.206,0Z" style="fill:#2a2b2a;fill-rule:nonzero;"/></g><g transform="matrix(1,0,0,1,0,-12)"><path d="M435.963,234.273l-1.715,5.726l8.543,0l-1.5,-5.708l-5.328,-0.018Z" style="fill:#f4f2ed;fill-rule:nonzero;"/></g><g transform="matrix(1,0,0,1,0,-12)"><path d="M450.172,234.607l-1.715,5.726l8.543,0l-1.5,-5.708l-5.328,-0.018Z" style="fill:#f4f2ed;fill-rule:nonzero;"/></g></g></g></svg>