<?xml version="1.0" standalone="no"?><!DOCTYPE svg PUBLIC "-//W3C//DTD SVG 1.1//EN" "http://www.w3.org/Graphics/SVG/1.1/DTD/svg11.dtd"><svg width="120px" height="192px" version="1.1" xmlns="http://www.w3.org/2000/svg" xmlns:xlink="http://www.w3.org/1999/xlink" xml:space="preserve" style="fill-rule:evenodd;clip-rule:evenodd;stroke-linejoin:round;stroke-miterlimit:1.41421;"><g><g id="people-23" transform="matrix(1,0,0,1,-581.06,-48)"><g transform="matrix(1,0,0,1,0,-12)"><path d="M660.987,209.8l-3.961,1.396l-15.004,-36.722l3.79,-2.099l15.175,37.425Z" style="fill:#c1beba;fill-rule:nonzero;"/></g><g transform="matrix(1,0,0,1,0,-12)"><path d="M611.173,169.83l-1.037,5.519l1.428,7.046l2.572,-1.444l-0.736,-6.06l0.17,1.837l2.392,-0.594l-2.019,-4.489l-2.77,-1.815Z" style="fill:#e1c5b5;fill-rule:nonzero;"/></g><g transform="matrix(1,0,0,1,0,-12)"><path d="M618.904,137.247l4.798,-1.888l10.425,-0.406l-1.975,-8.332l-12.688,-0.233l-0.56,10.859Z" style="fill:#543e36;fill-rule:nonzero;"/></g><g transform="matrix(1,0,0,1,0,-12)"><path d="M632.616,233.534l0.853,6.195l-6.039,-0.155l-0.465,-6.658l5.651,0.618Z" style="fill:#988a74;fill-rule:nonzero;"/></g><g transform="matrix(1,0,0,1,0,-12)"><path d="M621.584,250.025l0.697,1.975l4.761,0l1.218,-9.001l-5.436,-1.141l-1.24,8.167Z" style="fill:#988a74;fill-rule:nonzero;"/></g><g transform="matrix(1,0,0,1,0,-12)"><path d="M619.843,135.302l2.554,-1.703l1.857,-5.265l4.292,1.223l1.361,3.346l2.942,1.47l-1.858,6.116l-8.748,0.233l-2.4,-5.42Z" style="fill:#ceab97;fill-rule:nonzero;"/></g><g transform="matrix(1,0,0,1,0,-12)"><path d="M624.164,132.086l3.864,0l4.162,-5.351l-0.744,-11.446l-7.423,-1.24l-4.614,1.835l0.149,10.851l4.606,5.351Z" style="fill:#e1c5b5;fill-rule:nonzero;"/></g><g transform="matrix(1,0,0,1,0,-12)"><path d="M618.257,143.295l-4.264,28.762l-3.05,-1.145l3.803,-32.068l3.511,4.451Z" style="fill:#e1c5b5;fill-rule:nonzero;"/></g><g transform="matrix(1,0,0,1,0,-12)"><path d="M625.28,110.664l8.583,2.708l4.72,23.372l-4.864,5.003l0.059,-5.574l-0.31,-1.646l-1.491,-7.529l-1.864,-9.501l-5.103,-2.083l0.27,-4.75Z" style="fill:#543e36;fill-rule:nonzero;"/></g><g transform="matrix(1,0,0,1,0,-12)"><path d="M625.097,115.414l-5.022,1.887l-0.588,22.196l-4.248,-0.749l0.832,-23.918l9.334,-4.25l-0.308,4.834Z" style="fill:#543e36;fill-rule:nonzero;"/></g><g transform="matrix(1,0,0,1,0,-12)"><path d="M627.121,196.062l0.929,46.917l-5.188,-1.083l-4.568,-45.989" style="fill:#e1c5b5;fill-rule:nonzero;"/></g><g transform="matrix(1,0,0,1,0,-12)"><path d="M626.965,179.494l0.156,19.819l0.736,33.835l4.759,0.386l2.324,-34.433l-7.975,-19.607Z" style="fill:#ceab97;fill-rule:nonzero;"/></g><g transform="matrix(1,0,0,1,0,-12)"><path d="M638.579,136.695l-5.701,-2.352l-2.274,5.603l-8.052,0.233l-2.709,-4.994l-5.189,3.563l3.485,4.605l1.434,17.397l-8.209,40.15l29.847,0.233l-7.89,-39.883l2.315,-20.374l2.943,-4.181Z" style="fill:#fec;fill-rule:nonzero;"/></g><g transform="matrix(1,0,0,1,0,-12)"><path d="M636.188,140.099l7.047,30.662l3.171,-0.902l-7.874,-33.155l-2.344,3.395Z" style="fill:#e1c5b5;fill-rule:nonzero;"/></g><g transform="matrix(1,0,0,1,0,-12)"><path d="M646.394,169.763l4.569,6.795l-1.953,3.734l-2.214,-5.479l-2.521,-0.983l-0.732,4.344l-2.312,-1.19l2.034,-6.265l3.129,-0.956Z" style="fill:#e1c5b5;fill-rule:nonzero;"/></g><g transform="matrix(1,0,0,1,0,-12)"><path d="M643.312,226.625l0.354,22.084l3.662,-0.006l0.296,-16.078l-4.312,-6Z" style="fill:#2a2b2a;fill-rule:nonzero;"/></g><g transform="matrix(1,0,0,1,0,-12)"><path d="M645.5,229.812l-0.25,10.125l-1.703,1.656l0.109,7.156l3.766,0l0.245,-17.352l-2.167,-1.585Z" style="fill:#f4f2ed;fill-rule:nonzero;"/></g><g transform="matrix(1,0,0,1,0,-12)"><path d="M657.625,233.75l-0.266,15l-4.109,0l0.063,-14.375l4.312,-0.625Z" style="fill:#f4f2ed;fill-rule:nonzero;"/></g><g transform="matrix(1,0,0,1,0,-12)"><path d="M646.813,215.375l-3.5,11.25l5.25,9.875l1.125,15.5l4.124,0l0.75,-16.252l4.833,0l0.5,16.252l3.917,0l3.126,-40.626l-12.25,-0.25l-7.875,4.251Z" style="fill:#2a2b2a;fill-rule:nonzero;"/></g><g transform="matrix(1,0,0,1,0,-12)"><path d="M654.625,211.125l-0.156,13.375l5.968,5.937l5.469,-5.281l1.094,-13.781l-12.375,-0.25Z" style="fill:#f4f2ed;fill-rule:nonzero;"/></g><g transform="matrix(1,0,0,1,0,-12)"><path d="M666.797,206.109l1.789,-2.846l3.398,0.815l-1.218,-3.719l-7.219,0l3.25,5.75Z" style="fill:#2a2b2a;fill-rule:nonzero;"/></g><g transform="matrix(1,0,0,1,0,-12)"><path d="M655.25,206.438l-2.242,-3.158l-3.399,0.814l1.297,-3.687l7.141,-0.031l-2.797,6.062Z" style="fill:#2a2b2a;fill-rule:nonzero;"/></g><g transform="matrix(1,0,0,1,0,-12)"><path d="M657.937,200.375l-4.812,9.531l5.624,5.657l5.125,0l5.376,-5.438l-5.626,-9.75l-5.687,0Z" style="fill:#2a2b2a;fill-rule:nonzero;"/></g></g></g></svg>