<?xml version="1.0" standalone="no"?><!DOCTYPE svg PUBLIC "-//W3C//DTD SVG 1.1//EN" "http://www.w3.org/Graphics/SVG/1.1/DTD/svg11.dtd"><svg width="120px" height="192px" version="1.1" xmlns="http://www.w3.org/2000/svg" xmlns:xlink="http://www.w3.org/1999/xlink" xml:space="preserve" style="fill-rule:evenodd;clip-rule:evenodd;stroke-linejoin:round;stroke-miterlimit:1.41421;"><g><g id="people-27" transform="matrix(1,0,0,1,-949.959,-48)"><g transform="matrix(1,0,0,1,0,-12)"><path d="M1030,238.5l-4.234,0l-7.682,-57.418l3.348,-6.879l8.568,64.297Z" style="fill:#f4f2ed;fill-rule:nonzero;"/></g><g transform="matrix(1,0,0,1,0,-12)"><path d="M1023.3,220.141l4.203,-0.5l2.5,18.859l-4.234,0l-2.469,-18.359Z" style="fill:#ae2025;fill-rule:nonzero;"/></g><g transform="matrix(1,0,0,1,0,-12)"><path d="M1011.98,139.326l-2.834,-1.889l-2.061,-5.839l-4.757,1.357l-1.51,3.709l-3.262,1.632l6.906,15.085l7.518,-14.055Z" style="fill:#72594b;fill-rule:nonzero;"/></g><g transform="matrix(1,0,0,1,0,-12)"><path d="M1021.74,174.976l1.325,5.457l-1.056,7.112l-2.645,-1.307l0.418,-6.091l-0.074,1.844l-2.42,-0.468l1.78,-4.589l2.672,-1.958Z" style="fill:#72594b;fill-rule:nonzero;"/></g><g transform="matrix(1,0,0,1,0,-12)"><path d="M998.514,233.034l-0.853,6.195l6.039,-0.155l0.465,-6.658l-5.651,0.618Z" style="fill:#f4f2ed;fill-rule:nonzero;"/></g><g transform="matrix(1,0,0,1,0,-12)"><path d="M1002.87,242.499l1.219,9.001l4.762,0l0.697,-1.975l-1.24,-8.166l-5.438,1.14Z" style="fill:#f4f2ed;fill-rule:nonzero;"/></g><g transform="matrix(1,0,0,1,0,-12)"><path d="M1012.95,146.787l6.085,30.561l2.986,-1.304l-5.584,-33.819l-3.487,4.562Z" style="fill:#72594b;fill-rule:nonzero;"/></g><g transform="matrix(1,0,0,1,0,-12)"><path d="M1004.01,201.568l-0.929,40.911l5.187,-1.083l4.569,-39.983" style="fill:#72594b;fill-rule:nonzero;"/></g><g transform="matrix(1,0,0,1,0,-12)"><path d="M1004.16,185l-0.156,13.813l-0.736,33.835l-4.759,0.386l-2.324,-34.432l7.975,-13.602Z" style="fill:#553f37;fill-rule:nonzero;"/></g><g transform="matrix(1,0,0,1,0,-12)"><path d="M995.459,144.292l-1.292,33.291l-3.288,-0.237l1.705,-37.096l2.875,4.042Z" style="fill:#72594b;fill-rule:nonzero;"/></g><g transform="matrix(1,0,0,1,0,-12)"><path d="M990.942,176.283l-0.295,4.335l2.928,6.144l2.4,-1.423l-2.129,-5.506l0.358,1.809l2.021,-1.636l-2.037,-3.326l-3.246,-0.397Z" style="fill:#72594b;fill-rule:nonzero;"/></g><g transform="matrix(1,0,0,1,0,-12)"><path d="M992.55,140.204l5.702,-2.352l2.275,5.603l8.051,0.233l2.625,-4.876l5.273,3.445l-3.485,4.605l0.072,22.45l3.396,36.088l-22.833,0.233l2.687,-36.383l-0.819,-24.865l-2.944,-4.181Z" style="fill:#fec;fill-rule:nonzero;"/></g><g transform="matrix(1,0,0,1,0,-12)"><path d="M1013.35,132.589l-1.957,-14.958l-6.967,-3.421l0.008,-0.121l-6.834,4.25l-1.332,13.918l1.748,3.249l12.982,0.5l2.352,-3.417Z" style="fill:#2a2b2a;fill-rule:nonzero;"/></g><g transform="matrix(1,0,0,1,0,-12)"><path d="M1013.06,168.756l6.708,60.668l-29.847,0.232l6.389,-60.4l16.75,-0.5Z" style="fill:#313156;fill-rule:nonzero;"/></g><g transform="matrix(1,0,0,1,0,-12)"><path d="M1013.25,170.506l-17.094,0.01l0.11,-2.76l16.812,0l0.172,2.75Z" style="fill:#2a2b2a;fill-rule:nonzero;"/></g></g></g></svg>