<?xml version="1.0" standalone="no"?><!DOCTYPE svg PUBLIC "-//W3C//DTD SVG 1.1//EN" "http://www.w3.org/Graphics/SVG/1.1/DTD/svg11.dtd"><svg width="120px" height="192px" version="1.1" xmlns="http://www.w3.org/2000/svg" xmlns:xlink="http://www.w3.org/1999/xlink" xml:space="preserve" style="fill-rule:evenodd;clip-rule:evenodd;stroke-linejoin:round;stroke-miterlimit:1.41421;"><g><g id="people-26" transform="matrix(1,0,0,1,-853.137,-48)"><g transform="matrix(1,0,0,1,0,-12)"><path d="M883.206,168.33l-1.037,5.519l1.428,7.046l2.572,-1.444l-0.736,-6.06l0.17,1.837l2.392,-0.594l-2.019,-4.489l-2.77,-1.815Z" style="fill:#e1c5b5;fill-rule:nonzero;"/></g><g transform="matrix(1,0,0,1,0,-12)"><path d="M890.937,138.75l4.798,-1.888l10.425,-0.406l-1.975,-8.332l-12.688,-0.233l-0.56,10.859Z" style="fill:#543e36;fill-rule:nonzero;"/></g><g transform="matrix(1,0,0,1,0,-12)"><path d="M904.649,232.034l0.853,6.195l-6.039,-0.155l-0.465,-6.658l5.651,0.618Z" style="fill:#2a2b2a;fill-rule:nonzero;"/></g><g transform="matrix(1,0,0,1,0,-12)"><path d="M894.857,240.358l-1.24,8.167l0.697,1.975l4.761,0l1.219,-9.001l-5.437,-1.141Z" style="fill:#2a2b2a;fill-rule:nonzero;"/></g><g transform="matrix(1,0,0,1,0,-12)"><path d="M891.876,136.805l2.554,-1.703l1.857,-5.265l4.292,1.223l1.361,3.346l2.942,1.47l-1.858,6.116l-8.748,0.233l-2.4,-5.42Z" style="fill:#ceab97;fill-rule:nonzero;"/></g><g transform="matrix(1,0,0,1,0,-12)"><path d="M896.197,133.589l3.864,0l4.162,-5.351l-0.744,-11.446l-7.423,-1.24l-4.614,1.835l0.149,10.851l4.606,5.351Z" style="fill:#e1c5b5;fill-rule:nonzero;"/></g><g transform="matrix(1,0,0,1,0,-12)"><path d="M890.29,144.798l-4.264,25.759l-3.05,-1.145l3.803,-29.065l3.511,4.451Z" style="fill:#e1c5b5;fill-rule:nonzero;"/></g><g transform="matrix(1,0,0,1,0,-12)"><path d="M897.313,112.167l8.583,2.708l4.707,23.208l-4.851,5.167l0.059,-5.574l-0.31,-1.646l-1.491,-7.529l-1.864,-9.501l-5.103,-2.083l0.27,-4.75Z" style="fill:#543e36;fill-rule:nonzero;"/></g><g transform="matrix(1,0,0,1,0,-12)"><path d="M897.13,116.917l-5.022,1.887l-0.588,22.196l-4.248,-0.749l0.832,-23.918l9.334,-4.25l-0.308,4.834Z" style="fill:#543e36;fill-rule:nonzero;"/></g><g transform="matrix(1,0,0,1,0,-12)"><path d="M899.154,194.562l0.929,46.917l-5.188,-1.083l-4.568,-45.989" style="fill:#e1c5b5;fill-rule:nonzero;"/></g><g transform="matrix(1,0,0,1,0,-12)"><path d="M898.998,177.994l0.156,19.819l0.736,33.835l4.759,0.386l2.324,-34.433l-7.975,-19.607Z" style="fill:#ceab97;fill-rule:nonzero;"/></g><g transform="matrix(1,0,0,1,0,-12)"><path d="M910.612,138.198l-5.701,-2.352l-2.274,5.603l-8.052,0.233l-2.709,-4.994l-5.189,3.563l3.485,4.605l0.433,14.394l-7.208,48.158l29.847,0.232l-6.889,-47.89l1.314,-17.371l2.943,-4.181Z" style="fill:#5c5e5f;fill-rule:nonzero;"/></g><g transform="matrix(1,0,0,1,0,-12)"><path d="M907.709,142.344l1.214,27.267l3.288,-0.238l-1.564,-31.123l-2.938,4.094Z" style="fill:#e1c5b5;fill-rule:nonzero;"/></g><g transform="matrix(1,0,0,1,0,-12)"><path d="M912.221,169.277l0.295,4.335l-2.928,6.144l-2.4,-1.423l2.129,-5.506l-0.358,1.809l-2.021,-1.636l2.037,-3.326l3.246,-0.397Z" style="fill:#e1c5b5;fill-rule:nonzero;"/></g><g transform="matrix(1,0,0,1,0,-12)"><path d="M932.234,165.318l-2.735,-2.53l2.922,-2.17l2.663,4.694l-2.85,0.006Z" style="fill:#ae2025;fill-rule:nonzero;"/></g><g transform="matrix(1,0,0,1,0,-12)"><path d="M938.691,168.434l-3.659,-3.137l-6.341,-0.03l-4.583,4.53l1.123,14.698l3.003,-0.383l0.381,-0.702l2.059,-0.839l3.68,0.533l1.989,1.085l2.541,-0.153l-0.193,-15.602Z" style="fill:#2a2b2a;fill-rule:nonzero;"/></g><g transform="matrix(1,0,0,1,0,-12)"><path d="M927.721,180.863l1.684,-1.122l1.224,-3.468l2.826,0.806l0.897,2.203l1.937,0.969l0.517,10.869l-4.735,7.82l-4.35,-18.077Z" style="fill:#ceab97;fill-rule:nonzero;"/></g><g transform="matrix(1,0,0,1,0,-12)"><path d="M930.568,178.745l2.546,0l2.742,-3.525l-1.168,-7.298l-4.213,-0.021l-3.039,3.255l0.098,4.064l3.034,3.525Z" style="fill:#e1c5b5;fill-rule:nonzero;"/></g><g transform="matrix(1,0,0,1,0,-12)"><path d="M935.079,170.812l1.792,0.011l0.133,2.92l-1.71,-0.089l-0.215,-2.842Z" style="fill:#e1c5b5;fill-rule:nonzero;"/></g><g transform="matrix(1,0,0,1,0,-12)"><path d="M927.695,171.192l-1.616,0.011l0.062,2.968l1.492,-0.011l0.062,-2.968Z" style="fill:#e1c5b5;fill-rule:nonzero;"/></g><g transform="matrix(1,0,0,1,0,-12)"><path d="M928.302,238.081l-0.596,4.334l4.224,-0.108l0.326,-4.659l-3.954,0.433Z" style="fill:#2a2b2a;fill-rule:nonzero;"/></g><g transform="matrix(1,0,0,1,0,-12)"><path d="M935.153,243.904l0.867,5.714l-0.488,1.382l-3.331,0l-0.853,-6.297l3.805,-0.799Z" style="fill:#2a2b2a;fill-rule:nonzero;"/></g><g transform="matrix(1,0,0,1,0,-12)"><path d="M943.372,203.63l0.733,3.904l-1.009,4.987l-1.821,-1.022l0.521,-4.289l-0.121,1.301l-1.692,-0.421l1.428,-3.176l1.961,-1.284Z" style="fill:#e1c5b5;fill-rule:nonzero;"/></g><g transform="matrix(1,0,0,1,0,-12)"><path d="M938.359,186.98l3.017,18.226l2.158,-0.81l-2.691,-20.565l-2.484,3.149Z" style="fill:#e1c5b5;fill-rule:nonzero;"/></g><g transform="matrix(1,0,0,1,0,-12)"><path d="M921.218,202.255l-0.733,3.904l1.009,4.987l1.821,-1.022l-0.521,-4.289l0.121,1.301l1.692,-0.421l-1.428,-3.176l-1.961,-1.284Z" style="fill:#e1c5b5;fill-rule:nonzero;"/></g><g transform="matrix(1,0,0,1,0,-12)"><path d="M926.231,185.605l-3.017,18.226l-2.158,-0.81l2.691,-20.565l2.484,3.149Z" style="fill:#e1c5b5;fill-rule:nonzero;"/></g><g transform="matrix(1,0,0,1,0,-12)"><path d="M932.146,211.865l-0.649,32.824l3.628,-0.758l3.197,-32.175" style="fill:#e1c5b5;fill-rule:nonzero;"/></g><g transform="matrix(1,0,0,1,0,-12)"><path d="M932.256,200.273l-0.109,13.866l-0.515,23.671l-3.33,0.271l-1.625,-24.09l5.579,-13.718Z" style="fill:#ceab97;fill-rule:nonzero;"/></g><g transform="matrix(1,0,0,1,0,-12)"><path d="M923.775,182.403l4.054,-1.673l1.616,3.984l5.54,-0.027l1.187,-4.437l4.613,3.612l-2.478,3.273l-1.308,10.234l3.122,32.098l-16.214,0.165l3.896,-31.909l-1.935,-12.348l-2.093,-2.972Z" style="fill:#ae2025;fill-rule:nonzero;"/></g><g transform="matrix(1,0,0,1,0,-12)"><path d="M937.112,167.124l3.793,-0.242l-0.876,-3.534l-5.039,1.933" style="fill:#ae2025;fill-rule:nonzero;"/></g></g></g></svg>