<?xml version="1.0" standalone="no"?><!DOCTYPE svg PUBLIC "-//W3C//DTD SVG 1.1//EN" "http://www.w3.org/Graphics/SVG/1.1/DTD/svg11.dtd"><svg width="120px" height="192px" version="1.1" xmlns="http://www.w3.org/2000/svg" xmlns:xlink="http://www.w3.org/1999/xlink" xml:space="preserve" style="fill-rule:evenodd;clip-rule:evenodd;stroke-linejoin:round;stroke-miterlimit:1.41421;"><g><g id="people-31" transform="matrix(1,0,0,1,-317.089,-48)"><g transform="matrix(1,0,0,1,0,-12)"><path d="M369.506,231.914l-0.944,6.753l5.738,-0.145l-0.203,-7.1l-4.591,0.492Z" style="fill:#553f37;fill-rule:nonzero;"/></g><g transform="matrix(1,0,0,1,0,-12)"><path d="M374.335,242.231l1.347,9.769l5.301,0l0.757,-2.111l-1.376,-8.902l-6.029,1.244Z" style="fill:#553f37;fill-rule:nonzero;"/></g><g transform="matrix(1,0,0,1,0,-12)"><path d="M383.674,136.123l-2.834,-1.855l-2.062,-5.738l-4.757,1.332l-1.511,3.645l-3.261,1.604l7.104,11.264l7.321,-10.252Z" style="fill:#cdaa97;fill-rule:nonzero;"/></g><g transform="matrix(1,0,0,1,0,-12)"><path d="M378.88,132.618l-4.285,0l-4.618,-5.831l0.825,-11.984l7.734,-1.843l5.117,2l0.335,11.827l-5.108,5.831Z" style="fill:#cdaa97;fill-rule:nonzero;"/></g><g transform="matrix(1,0,0,1,0,-12)"><path d="M370.492,119.467l-2.821,0.046l-0.223,4.831l2.878,-0.146l0.166,-4.731Z" style="fill:#cdaa97;fill-rule:nonzero;"/></g><g transform="matrix(1,0,0,1,0,-12)"><path d="M383.782,120.125l2.848,0.762l-0.223,4.05l-2.518,0.096l-0.107,-4.908Z" style="fill:#cdaa97;fill-rule:nonzero;"/></g><g transform="matrix(1,0,0,1,0,-12)"><path d="M364.75,177.583l4.756,57.334l5.409,0l1.201,-44.362l-2.796,13.998l1.079,37.741l5.924,-1.267l3.094,-36.233l4.033,-26.693l-22.7,-0.518Z" style="fill:#c1beba;fill-rule:nonzero;"/></g><g transform="matrix(1,0,0,1,0,-12)"><path d="M375.572,187.453l-2.72,19.112l1.282,25.359l-5.317,-6.896l-2.255,-25.903l9.01,-11.672Z" style="fill:#171818;fill-opacity:0.25;fill-rule:nonzero;"/></g><g transform="matrix(1,0,0,1,0,-12)"><path d="M394.953,169.797l2.349,5.668l-0.451,7.854l-2.653,-1l-0.541,-6.631l0.219,1.998l-2.399,0.105l0.632,-5.588l2.844,-2.406Z" style="fill:#cdaa97;fill-rule:nonzero;"/></g><g transform="matrix(1,0,0,1,0,-12)"><path d="M358.651,169.893l-1.776,4.401l0.157,7.252l2.9,-0.377l0.588,-6.627l-0.232,1.997l2.494,0.339l-0.751,-5.581l-3.38,-1.404Z" style="fill:#cdaa97;fill-rule:nonzero;"/></g><g transform="matrix(1,0,0,1,0,-12)"><path d="M391.282,147.745l-4.652,1.632l5.457,22.861l3.305,-1.433l-4.11,-23.06Z" style="fill:#cdaa97;fill-rule:nonzero;"/></g><g transform="matrix(1,0,0,1,0,-12)"><path d="M365.372,147.745l-4.228,-0.831l-2.709,23.807l3.605,0.59l3.332,-23.566Z" style="fill:#cdaa97;fill-rule:nonzero;"/></g><g transform="matrix(1,0,0,1,0,-12)"><path d="M369.118,134.985l-7.226,3.149l-3.057,24.785l4.915,1.018l2.405,-21.739l-1.373,35.395l22.668,0.507l-1.889,-33.2l4.661,21.356l4.653,-1.631l-5.362,-25.126l-5.839,-3.503l-7.872,3.933l-6.684,-4.944Z" style="fill:#ae1f25;fill-rule:nonzero;"/></g><g transform="matrix(1,0,0,1,0,-12)"><path d="M382.434,128.783l-4.554,11.217l-2.892,0l-3.455,-11.16l0.797,-0.38l2.743,1.54l2.915,0l3.538,-1.485l0.908,0.268Z" style="fill:#e4e2dc;fill-rule:nonzero;"/></g></g></g></svg>