<?xml version="1.0" standalone="no"?><!DOCTYPE svg PUBLIC "-//W3C//DTD SVG 1.1//EN" "http://www.w3.org/Graphics/SVG/1.1/DTD/svg11.dtd"><svg width="120px" height="192px" version="1.1" xmlns="http://www.w3.org/2000/svg" xmlns:xlink="http://www.w3.org/1999/xlink" xml:space="preserve" style="fill-rule:evenodd;clip-rule:evenodd;stroke-linejoin:round;stroke-miterlimit:1.41421;"><g><g id="people-29" transform="matrix(1,0,0,1,-1156.34,-48)"><g transform="matrix(1,0,0,1,0,-12)"><path d="M1199.15,145.5l6.024,26.479l3.905,-1.791l-7.179,-31.188l-2.75,6.5Z" style="fill:#72594b;fill-rule:nonzero;"/></g><g transform="matrix(1,0,0,1,0,-12)"><path d="M1208.46,170.017l4.797,1.093l0.812,5.344l-8.085,0.646l-0.034,-5.902l0.329,1.814l-3.729,0.645l-0.322,-3.547l6.232,-0.093Z" style="fill:#72594b;fill-rule:nonzero;"/></g><g transform="matrix(1,0,0,1,0,-12)"><path d="M1245.22,230.52l0.943,6.871l-9.701,-0.172l-0.515,-7.384l9.273,0.685Z" style="fill:#2a2b2a;fill-rule:nonzero;"/></g><g transform="matrix(1,0,0,1,0,-12)"><path d="M1228.35,239.753l-1.377,9.058l0.773,2.189l8.284,0l1.351,-9.981l-9.031,-1.266Z" style="fill:#2a2b2a;fill-rule:nonzero;"/></g><g transform="matrix(1,0,0,1,0,-12)"><path d="M1228.04,124.905l1.291,-1.889l2.061,-5.839l7.5,1.489l1.509,3.709l2.063,1.5l-7.102,11.462l-7.322,-10.432Z" style="fill:#ceab97;fill-rule:nonzero;"/></g><g transform="matrix(1,0,0,1,0,-12)"><path d="M1232.84,121.339l4.287,0l4.615,-5.935l-0.824,-12.694l-8.234,-1.375l-5.115,2.034l0.164,12.035l5.107,5.935Z" style="fill:#e1c5b5;fill-rule:nonzero;"/></g><g transform="matrix(1,0,0,1,0,-12)"><path d="M1230.19,101.55l0.43,-1.718l13.816,1.337l1.15,9.826l-4.277,0.258l-3.348,-6.827l-6.224,-0.901l-1.547,-1.975Z" style="fill:#e4e2dc;fill-rule:nonzero;"/></g><g transform="matrix(1,0,0,1,0,-12)"><path d="M1241.22,107.956l2.822,0.047l0.223,4.916l-2.879,-0.15l-0.166,-4.813Z" style="fill:#e1c5b5;fill-rule:nonzero;"/></g><g transform="matrix(1,0,0,1,0,-12)"><path d="M1231.78,103.524l-3.479,1.417l-0.64,6.182l-5.057,0.644l0.582,-8.142l7.5,-3.75l1.094,3.649Z" style="fill:#e4e2dc;fill-rule:nonzero;"/></g><g transform="matrix(1,0,0,1,0,-12)"><path d="M1227.94,108.625l-2.848,0.775l0.223,4.122l2.518,0.098l0.107,-4.995Z" style="fill:#e1c5b5;fill-rule:nonzero;"/></g><g transform="matrix(1,0,0,1,0,-12)"><path d="M1255.88,169.037l-10.666,61.483l-8.414,0l-1.201,-57.358l2.795,26.46l-1.078,41.46l-8.926,-1.288l-4.096,-39.927l-7.035,-30.867l23.426,-2.438l15.195,2.475Z" style="fill:#5c5e5f;fill-rule:nonzero;"/></g><g transform="matrix(1,0,0,1,0,-12)"><path d="M1236.15,173.062l4.166,27.896l-2.729,29.571l9.229,-9.113l5.583,-32.25l-16.249,-16.104Z" style="fill:#171817;fill-opacity:0.5;fill-rule:nonzero;"/></g><g transform="matrix(1,0,0,1,0,-12)"><path d="M1207.13,164.573l-2.349,5.768l0.451,7.992l5.479,-1.596l0.541,-6.748l-0.219,2.034l2.399,0.107l-0.871,-5.549l-5.431,-2.008Z" style="fill:#e1c5b5;fill-rule:nonzero;"/></g><g transform="matrix(1,0,0,1,0,-12)"><path d="M1264.4,165.273l1.775,4.479l-0.156,7.378l-5.221,-0.381l-0.587,-6.746l0.232,2.033l-2.494,0.344l0.838,-5.593l5.613,-1.514Z" style="fill:#e1c5b5;fill-rule:nonzero;"/></g><g transform="matrix(1,0,0,1,0,-12)"><path d="M1242.6,123.746l10.229,2.705l11.901,39.665l-6.042,0.601l-10.121,-32.627l7.379,34.945l-38.684,-0.035l5.893,-32.161l-10.53,29.821l-5.728,-1.459l12.307,-36.861l8.841,-3.565l8.371,8.502l6.184,-9.531Z" style="fill:#313156;fill-rule:nonzero;"/></g><g transform="matrix(1,0,0,1,0,-12)"><path d="M1179.28,139.584l4.798,-1.888l10.425,-0.406l-1.975,-8.332l-12.688,-0.233l-0.56,10.859Z" style="fill:#e4e2dc;fill-rule:nonzero;"/></g><g transform="matrix(1,0,0,1,0,-12)"><path d="M1180.22,137.639l2.554,-1.703l1.857,-5.265l4.292,1.223l1.361,3.346l2.942,1.47l-1.858,6.116l-8.748,0.233l-2.4,-5.42Z" style="fill:#553f37;fill-rule:nonzero;"/></g><g transform="matrix(1,0,0,1,0,-12)"><path d="M1193.99,232.868l0.853,6.195l-7.039,-0.155l-0.465,-6.658l6.651,0.618Z" style="fill:#2a2b2a;fill-rule:nonzero;"/></g><g transform="matrix(1,0,0,1,0,-12)"><path d="M1187.49,195.397l0.929,46.917l-7.19,-1.083l-4.568,-45.989" style="fill:#72594b;fill-rule:nonzero;"/></g><g transform="matrix(1,0,0,1,0,-12)"><path d="M1187.34,178.828l0.156,19.819l0.736,33.835l5.76,0.386l2.324,-34.433l-8.976,-19.607Z" style="fill:#553f37;fill-rule:nonzero;"/></g><g transform="matrix(1,0,0,1,0,-12)"><path d="M1201.96,139.032l-8.704,-2.352l-2.274,5.603l-8.052,0.233l-2.709,-4.994l-8.192,3.563l4.211,6.999l-0.293,12l-4.205,67.9l29.847,0.233l-3.886,-67.633l0.704,-12.833l3.553,-8.719Z" style="fill:#694;fill-rule:nonzero;"/></g><g transform="matrix(1,0,0,1,0,-12)"><path d="M1180.04,249.359l2.614,1.975l4.761,0l1.218,-9.001l-7.353,-1.141l-1.24,8.167Z" style="fill:#2a2b2a;fill-rule:nonzero;"/></g><g transform="matrix(1,0,0,1,0,-12)"><path d="M1184.54,134.423l3.864,0l4.162,-5.351l-0.744,-11.446l-7.423,-1.24l-4.614,1.835l0.149,10.851l4.606,5.351Z" style="fill:#72594b;fill-rule:nonzero;"/></g><g transform="matrix(1,0,0,1,0,-12)"><path d="M1167.49,169.27l-0.985,5.412l1.427,7.047l2.573,-1.444l-0.737,-6.061l0.171,1.838l2.392,-0.595l-0.966,-4.113l-3.875,-2.084Z" style="fill:#72594b;fill-rule:nonzero;"/></g><g transform="matrix(1,0,0,1,0,-12)"><path d="M1176.24,147.958l-4.878,23.433l-4.052,-1.145l4.741,-29.037l4.189,6.749Z" style="fill:#72594b;fill-rule:nonzero;"/></g><g transform="matrix(1,0,0,1,0,-12)"><path d="M1185.65,113.001l8.583,2.708l4.707,23.208l-4.851,5.167l0.059,-5.574l-0.31,-1.646l-1.491,-7.529l-1.864,-9.501l-5.103,-2.083l0.27,-4.75Z" style="fill:#e4e2dc;fill-rule:nonzero;"/></g><g transform="matrix(1,0,0,1,0,-12)"><path d="M1185.47,117.751l-5.022,1.887l-0.588,22.196l-4.248,-0.749l0.832,-23.918l9.334,-4.25l-0.308,4.834Z" style="fill:#e4e2dc;fill-rule:nonzero;"/></g></g></g></svg>