<?xml version="1.0" standalone="no"?><!DOCTYPE svg PUBLIC "-//W3C//DTD SVG 1.1//EN" "http://www.w3.org/Graphics/SVG/1.1/DTD/svg11.dtd"><svg width="120px" height="192px" version="1.1" xmlns="http://www.w3.org/2000/svg" xmlns:xlink="http://www.w3.org/1999/xlink" xml:space="preserve" style="fill-rule:evenodd;clip-rule:evenodd;stroke-linejoin:round;stroke-miterlimit:1.41421;"><g><g id="people-09" transform="matrix(1,0,0,1,-1774,-48)"><g transform="matrix(1,0,0,1,0,-12)"><path d="M1843.49,231.02l0.943,6.871l-8.699,-0.172l-0.515,-7.384l8.271,0.685Z" style="fill:#ceab97;fill-rule:nonzero;"/></g><g transform="matrix(1,0,0,1,0,-12)"><path d="M1827.25,249.311l0.774,2.189l7.282,0l1.353,-9.981l-8.032,-1.266l-1.377,9.058Z" style="fill:#ceab97;fill-rule:nonzero;"/></g><g transform="matrix(1,0,0,1,0,-12)"><path d="M1827.32,125.405l2.834,-1.889l2.061,-5.839l4.757,1.357l1.51,3.709l3.262,1.632l-7.103,11.462l-7.321,-10.432Z" style="fill:#72594b;fill-rule:nonzero;"/></g><g transform="matrix(1,0,0,1,0,-12)"><path d="M1832.11,121.839l4.286,0l4.616,-5.935l-0.824,-12.694l-8.234,-1.375l-5.116,2.034l0.164,12.035l5.108,5.935Z" style="fill:#ceab97;fill-rule:nonzero;"/></g><g transform="matrix(1,0,0,1,0,-12)"><path d="M1829.46,102.05l0.43,-1.718l13.816,1.337l1.15,9.826l-4.277,0.258l-3.348,-6.827l-6.224,-0.901l-1.547,-1.975Z" style="fill:#2a2b2a;fill-rule:nonzero;"/></g><g transform="matrix(1,0,0,1,0,-12)"><path d="M1840.5,108.456l2.822,0.047l0.223,4.916l-2.879,-0.15l-0.166,-4.813Z" style="fill:#ceab97;fill-rule:nonzero;"/></g><g transform="matrix(1,0,0,1,0,-12)"><path d="M1831.05,104.024l-3.479,1.417l-0.641,6.182l-5.056,0.644l0.582,-8.142l7.5,-3.75l1.094,3.649Z" style="fill:#2a2b2a;fill-rule:nonzero;"/></g><g transform="matrix(1,0,0,1,0,-12)"><path d="M1827.21,109.125l-2.849,0.775l0.224,4.122l2.518,0.098l0.107,-4.995Z" style="fill:#ceab97;fill-rule:nonzero;"/></g><g transform="matrix(1,0,0,1,0,-12)"><path d="M1848.15,163.531l-4.661,67.489l-7.412,0l-1.201,-57.358l2.795,26.46l-1.079,41.46l-7.925,-1.288l-3.094,-39.927l-4.033,-36.322l26.61,-0.514Z" style="fill:#c1beba;fill-rule:nonzero;"/></g><g transform="matrix(1,0,0,1,0,-12)"><path d="M1835.62,172.625l2.512,29.545l-1.282,28.859l7.124,-7.237l2.709,-40.104l-11.063,-11.063Z" style="fill:#171817;fill-opacity:0.25;fill-rule:nonzero;"/></g><g transform="matrix(1,0,0,1,0,-12)"><path d="M1814.23,159.49l-2.349,5.768l0.451,7.992l2.654,-1.018l0.541,-6.748l-0.22,2.034l2.4,0.107l-0.872,-5.549l-2.605,-2.586Z" style="fill:#ceab97;fill-rule:nonzero;"/></g><g transform="matrix(1,0,0,1,0,-12)"><path d="M1854.34,159.768l1.776,4.479l-0.157,7.378l-2.899,-0.381l-0.588,-6.746l0.232,2.033l-2.494,0.344l0.837,-5.593l3.293,-1.514Z" style="fill:#ceab97;fill-rule:nonzero;"/></g><g transform="matrix(1,0,0,1,0,-12)"><path d="M1841.87,124.246l8.227,2.705l4.459,33.659l-3.606,0.601l-4.115,-29.624l1.373,31.942l-26.672,0.516l1.889,-29.709l-6.526,27.819l-3.306,-1.459l5.881,-31.856l7.841,-3.565l8.371,8.502l6.184,-9.531Z" style="fill:#ef9b75;fill-rule:nonzero;"/></g></g></g></svg>