<?xml version="1.0" standalone="no"?><!DOCTYPE svg PUBLIC "-//W3C//DTD SVG 1.1//EN" "http://www.w3.org/Graphics/SVG/1.1/DTD/svg11.dtd"><svg width="120px" height="192px" version="1.1" xmlns="http://www.w3.org/2000/svg" xmlns:xlink="http://www.w3.org/1999/xlink" xml:space="preserve" style="fill-rule:evenodd;clip-rule:evenodd;stroke-linejoin:round;stroke-miterlimit:1.41421;"><g><g id="people-03" transform="matrix(1,0,0,1,-1444.89,-48)"><g transform="matrix(1,0,0,1,0,-12)"><path d="M1519.4,157.318l1.037,5.519l-1.428,7.046l-2.572,-1.444l0.736,-6.06l-0.17,1.837l-2.392,-0.594l2.018,-4.489l2.771,-1.815Z" style="fill:#e1c5b5;fill-rule:nonzero;"/></g><g transform="matrix(1,0,0,1,0,-12)"><path d="M1497.95,233.034l-0.853,6.195l6.039,-0.155l0.465,-6.658l-5.651,0.618Z" style="fill:#2a2b2a;fill-rule:nonzero;"/></g><g transform="matrix(1,0,0,1,0,-12)"><path d="M1502.31,242.499l1.219,9.001l4.761,0l0.697,-1.975l-1.24,-8.166l-5.437,1.14Z" style="fill:#2a2b2a;fill-rule:nonzero;"/></g><g transform="matrix(1,0,0,1,0,-12)"><path d="M1512.31,133.786l4.264,25.759l3.049,-1.145l-3.802,-29.065l-3.511,4.451Z" style="fill:#e1c5b5;fill-rule:nonzero;"/></g><g transform="matrix(1,0,0,1,0,-12)"><path d="M1503.45,183.551l-0.929,58.929l5.187,-1.083l4.569,-58.001" style="fill:#e1c5b5;fill-rule:nonzero;"/></g><g transform="matrix(1,0,0,1,0,-12)"><path d="M1503.6,166.982l-0.156,19.819l-0.736,45.847l-4.759,0.386l-2.324,-46.445l7.975,-19.607Z" style="fill:#ceab97;fill-rule:nonzero;"/></g><g transform="matrix(1,0,0,1,0,-12)"><path d="M1494.89,131.332l-1.214,27.267l-3.288,-0.238l1.564,-31.123l2.938,4.094Z" style="fill:#e1c5b5;fill-rule:nonzero;"/></g><g transform="matrix(1,0,0,1,0,-12)"><path d="M1490.38,158.266l-0.295,4.335l2.928,6.144l2.4,-1.423l-2.129,-5.506l0.358,1.809l2.021,-1.636l-2.037,-3.326l-3.246,-0.397Z" style="fill:#e1c5b5;fill-rule:nonzero;"/></g><g transform="matrix(1,0,0,1,0,-12)"><path d="M1491.99,127.186l5.702,-2.352l2.274,5.603l8.052,0.233l2.708,-4.994l5.19,3.563l-3.485,4.605l-0.433,14.394l7.208,57.162l-29.847,0.232l6.889,-56.894l-1.314,-17.371l-2.944,-4.181Z" style="fill:#fec;fill-rule:nonzero;"/></g><g transform="matrix(1,0,0,1,0,-12)"><path d="M1515.29,142.071l-2.957,-37.458l-8.467,-3.421l0.008,-0.121l-9.334,4.25l-1.332,36.418l4.248,3.249l14.233,0.5l3.601,-3.417Z" style="fill:#543e36;fill-rule:nonzero;"/></g></g></g></svg>