<?xml version="1.0" standalone="no"?><!DOCTYPE svg PUBLIC "-//W3C//DTD SVG 1.1//EN" "http://www.w3.org/Graphics/SVG/1.1/DTD/svg11.dtd"><svg width="120px" height="192px" version="1.1" xmlns="http://www.w3.org/2000/svg" xmlns:xlink="http://www.w3.org/1999/xlink" xml:space="preserve" style="fill-rule:evenodd;clip-rule:evenodd;stroke-linejoin:round;stroke-miterlimit:1.41421;"><g><g id="people-22" transform="matrix(1,0,0,1,-497.832,-48)"><g transform="matrix(1,0,0,1,0,-12)"><path d="M562.279,239.835l0.56,4.081l-3.978,-0.102l-0.307,-4.386l3.725,0.407Z" style="fill:#fec;fill-rule:nonzero;"/></g><g transform="matrix(1,0,0,1,0,-12)"><path d="M564.833,164.667l-3.75,-3.167l-5.244,0.108l-1.006,-0.108l-4.583,3.5l1.123,15.728l3.003,-0.383l0.381,-0.702l2.059,-0.839l3.68,0.533l1.989,1.085l2.541,-0.153l-0.193,-15.602Z" style="fill:#2a2b2a;fill-rule:nonzero;"/></g><g transform="matrix(1,0,0,1,0,-12)"><path d="M554.009,250.637l1.461,1.363l3.136,0l0.831,-6.187l-4.609,-0.555l-0.819,5.379Z" style="fill:#fec;fill-rule:nonzero;"/></g><g transform="matrix(1,0,0,1,0,-12)"><path d="M553.862,177.097l1.684,-1.122l1.224,-3.468l2.826,0.806l0.897,2.203l1.937,0.969l0.517,10.869l-4.735,7.82l-4.35,-18.077Z" style="fill:#553f37;fill-rule:nonzero;"/></g><g transform="matrix(1,0,0,1,0,-12)"><path d="M556.71,174.978l2.546,0l2.742,-3.525l-0.489,-6.501l-4.892,-0.818l-3.039,1.209l0.098,6.11l3.034,3.525Z" style="fill:#72594b;fill-rule:nonzero;"/></g><g transform="matrix(1,0,0,1,0,-12)"><path d="M561.337,167.028l1.676,0.028l0.133,2.92l-1.71,-0.089l-0.099,-2.859Z" style="fill:#72594b;fill-rule:nonzero;"/></g><g transform="matrix(1,0,0,1,0,-12)"><path d="M553.837,167.426l-1.691,0.461l0.132,2.448l1.497,0.059l0.062,-2.968Z" style="fill:#72594b;fill-rule:nonzero;"/></g><g transform="matrix(1,0,0,1,0,-12)"><path d="M564.047,199.744l0.584,6.046l-2.352,34.045l-3.213,0l-0.714,-34.072l1.66,15.717l0.36,24.628l-5.52,-0.764l-0.837,-23.718l-1.73,-15.582l0.335,-5.994l11.427,-0.306Z" style="fill:#c1beba;fill-rule:nonzero;"/></g><g transform="matrix(1,0,0,1,0,-12)"><path d="M558.675,205.703l1.615,16.993l0.023,15.804l2.375,-4.643l1.53,-22.685l-5.543,-5.469Z" style="fill:#171817;fill-opacity:0.25;fill-rule:nonzero;"/></g><g transform="matrix(1,0,0,1,0,-12)"><path d="M547.278,197.344l-1.396,3.427l0.268,4.747l1.576,-0.605l0.323,-4.008l-0.131,1.209l1.424,0.062l-0.516,-3.296l-1.548,-1.536Z" style="fill:#553f37;fill-rule:nonzero;"/></g><g transform="matrix(1,0,0,1,0,-12)"><path d="M568.727,197.509l1.055,2.66l-0.094,4.384l-1.722,-0.228l-0.349,-4.006l0.137,1.208l-1.481,0.204l0.497,-3.323l1.957,-0.899Z" style="fill:#553f37;fill-rule:nonzero;"/></g><g transform="matrix(1,0,0,1,0,-12)"><path d="M562.509,176.408l4.472,1.765l2.648,19.995l-2.916,0.198l-2.444,-17.598l0.376,24.981l-12.375,0.306l0.47,-23.654l-3.876,16.526l-2.697,-1.26l4.227,-18.53l3.469,-2.118l1.72,1.981l5.25,0.083l1.676,-2.675Z" style="fill:#694;fill-rule:nonzero;"/></g></g></g></svg>