<?xml version="1.0" standalone="no"?><!DOCTYPE svg PUBLIC "-//W3C//DTD SVG 1.1//EN" "http://www.w3.org/Graphics/SVG/1.1/DTD/svg11.dtd"><svg width="120px" height="192px" version="1.1" xmlns="http://www.w3.org/2000/svg" xmlns:xlink="http://www.w3.org/1999/xlink" xml:space="preserve" style="fill-rule:evenodd;clip-rule:evenodd;stroke-linejoin:round;stroke-miterlimit:1.41421;"><g><g id="people-06" transform="matrix(1,0,0,1,-1607.51,-48)"><g transform="matrix(1,0,0,1,0,-12)"><path d="M1660.03,231.02l-0.943,6.871l6.697,-0.172l0.516,-7.384l-6.27,0.685Z" style="fill:#2a2b2a;fill-rule:nonzero;"/></g><g transform="matrix(1,0,0,1,0,-12)"><path d="M1664.86,241.519l1.353,9.981l5.28,0l0.774,-2.189l-1.377,-9.057l-6.03,1.265Z" style="fill:#2a2b2a;fill-rule:nonzero;"/></g><g transform="matrix(1,0,0,1,0,-12)"><path d="M1674.19,120.405l-2.834,-1.889l-2.061,-5.839l-4.757,1.357l-1.51,3.709l-3.262,1.632l7.103,11.462l7.321,-10.432Z" style="fill:#553f37;fill-rule:nonzero;"/></g><g transform="matrix(1,0,0,1,0,-12)"><path d="M1669.4,116.839l-4.286,0l-4.616,-5.935l0.824,-12.694l1.762,-1.462l8.722,0.087l2.867,2.034l-0.166,12.035l-5.107,5.935Z" style="fill:#72594b;fill-rule:nonzero;"/></g><g transform="matrix(1,0,0,1,0,-12)"><path d="M1661.01,103.456l-2.822,0.047l-0.223,4.916l2.879,-0.15l0.166,-4.813Z" style="fill:#72594b;fill-rule:nonzero;"/></g><g transform="matrix(1,0,0,1,0,-12)"><path d="M1674.3,104.125l2.848,0.775l-0.224,4.122l-2.518,0.098l-0.106,-4.995Z" style="fill:#72594b;fill-rule:nonzero;"/></g><g transform="matrix(1,0,0,1,0,-12)"><path d="M1655.36,161.031l4.661,69.989l5.41,0l1.201,-59.858l-2.794,28.96l1.078,41.46l5.923,-1.288l3.094,-39.927l4.033,-38.822l-22.606,-0.514Z" style="fill:#5c5e5f;fill-rule:nonzero;"/></g><g transform="matrix(1,0,0,1,0,-12)"><path d="M1666.09,171.062l-2.719,31.107l1.282,28.86l-5.317,-10.071l-2.576,-40.69l9.33,-9.206Z" style="fill:#171817;fill-opacity:0.5;fill-rule:nonzero;"/></g><g transform="matrix(1,0,0,1,0,-12)"><path d="M1685.28,156.99l2.349,5.768l-0.452,7.992l-2.653,-1.018l-0.541,-6.748l0.22,2.034l-2.4,0.107l0.873,-5.549l2.604,-2.586Z" style="fill:#72594b;fill-rule:nonzero;"/></g><g transform="matrix(1,0,0,1,0,-12)"><path d="M1649.17,157.268l-1.776,4.479l0.157,7.378l2.899,-0.381l0.588,-6.746l-0.233,2.033l2.495,0.344l-0.837,-5.593l-3.293,-1.514Z" style="fill:#72594b;fill-rule:nonzero;"/></g><g transform="matrix(1,0,0,1,0,-12)"><path d="M1659.64,119.246l-6.225,2.705l-4.459,36.159l3.606,0.601l4.115,-32.124l-1.373,34.442l22.668,0.516l-1.889,-32.209l6.526,30.319l3.306,-1.459l-5.881,-34.356l-5.839,-3.565l-8.371,-0.498l-6.184,-0.531Z" style="fill:#ebdab0;fill-rule:nonzero;"/></g><g transform="matrix(1,0,0,1,0,-12)"><path d="M1676.31,134.312l1.658,27.232l-22.668,-0.515l0.198,-5.967" style="fill:#e0cea8;fill-rule:nonzero;"/></g></g></g></svg>