<?xml version="1.0" standalone="no"?><!DOCTYPE svg PUBLIC "-//W3C//DTD SVG 1.1//EN" "http://www.w3.org/Graphics/SVG/1.1/DTD/svg11.dtd"><svg width="120px" height="192px" version="1.1" xmlns="http://www.w3.org/2000/svg" xmlns:xlink="http://www.w3.org/1999/xlink" xml:space="preserve" style="fill-rule:evenodd;clip-rule:evenodd;stroke-linejoin:round;stroke-miterlimit:1.41421;"><g><g id="people-25" transform="matrix(1,0,0,1,-774.599,-48)"><g transform="matrix(1,0,0,1,0,-12)"><path d="M823.021,196.188l3.438,-0.062l-0.424,-14.507l-4.201,-0.056l1.187,14.625Z" style="fill:#72594b;fill-rule:nonzero;"/></g><g transform="matrix(1,0,0,1,0,-12)"><path d="M849.021,196.188l-3.438,-0.062l0.547,-14.547l4.078,-0.016l-1.187,14.625Z" style="fill:#72594b;fill-rule:nonzero;"/></g><g transform="matrix(1,0,0,1,0,-12)"><path d="M847.568,224.156l0.766,4.406l-5.438,0l0.438,-4.422l4.234,0.016Z" style="fill:#ef9c74;fill-rule:nonzero;"/></g><g transform="matrix(1,0,0,1,0,-12)"><path d="M842.018,157.493l-3.75,-3.167l-5.244,0.108l-1.006,-0.108l-4.583,3.5l1.123,15.728l3.003,-0.383l0.381,-0.702l2.059,-0.839l3.68,0.533l1.989,1.085l2.541,-0.153l-0.193,-15.602Z" style="fill:#2a2b2a;fill-rule:nonzero;"/></g><g transform="matrix(1,0,0,1,0,-12)"><path d="M830.812,238l-0.166,5.917l2.008,0.909l5.325,-0.326l-0.333,-6.667l-6.834,0.167Z" style="fill:#ef9c74;fill-rule:nonzero;"/></g><g transform="matrix(1,0,0,1,0,-12)"><path d="M831.047,169.923l1.684,-1.122l1.224,-3.468l2.826,0.806l0.897,2.203l1.937,0.969l0.517,10.869l-4.735,7.82l-4.35,-18.077Z" style="fill:#553f37;fill-rule:nonzero;"/></g><g transform="matrix(1,0,0,1,0,-12)"><path d="M833.894,167.805l2.546,0l2.742,-3.525l-0.489,-6.501l-4.892,-0.818l-3.039,1.209l0.098,6.11l3.034,3.525Z" style="fill:#72594b;fill-rule:nonzero;"/></g><g transform="matrix(1,0,0,1,0,-12)"><path d="M838.521,159.855l1.676,0.028l0.133,2.92l-1.71,-0.089l-0.099,-2.859Z" style="fill:#72594b;fill-rule:nonzero;"/></g><g transform="matrix(1,0,0,1,0,-12)"><path d="M831.021,160.252l-1.691,0.461l0.132,2.448l1.497,0.059l0.062,-2.968Z" style="fill:#72594b;fill-rule:nonzero;"/></g><g transform="matrix(1,0,0,1,0,-12)"><path d="M842.232,192.57l5.444,20.627l-0.108,10.975l-4.234,0.031l-0.854,-10.703l-5.417,-12.583l0.75,13.5l-0.167,23.5l-7,0.253l0.083,-23.502l-1.926,-21.792l13.429,-0.306Z" style="fill:#5c5e5f;fill-rule:nonzero;"/></g><g transform="matrix(1,0,0,1,0,-12)"><path d="M842.442,213.529l0.892,10.689l4.234,-0.062l0.141,-10.672l-5.267,0.045Z" style="fill:#171817;fill-rule:nonzero;"/></g><g transform="matrix(1,0,0,1,0,-12)"><path d="M839.693,169.234l4.472,1.765l6.106,10.563l-4.174,0.038l-4.599,-8.093l0.77,19.062l-13.465,0.307l1.121,-17.649l-3.778,6.523l-4.375,-0.125l5.807,-9.662l3.469,-2.118l1.72,1.981l5.25,0.083l1.676,-2.675Z" style="fill:#fec;fill-rule:nonzero;"/></g><g transform="matrix(1,0,0,1,0,-12)"><path d="M832.79,244.334l-0.299,-38.665l3.413,0.009l0.23,38.476l-3.344,0.18Z" style="fill:#f4f2ed;fill-rule:nonzero;"/></g><g transform="matrix(1,0,0,1,0,-12)"><path d="M833.395,241.944l-1.243,1.289l0.046,6.429l1.38,1.837l2.252,0l1.334,-2.07l-0.183,-6.429l-1.38,-1.056l-2.206,0Z" style="fill:#694;fill-rule:nonzero;"/></g><g transform="matrix(1,0,0,1,0,-12)"><path d="M835.997,212.688l-3.5,-3.531l0,-7.473l3.407,0.063l0.093,10.941Z" style="fill:#c1bebb;fill-rule:nonzero;"/></g><g transform="matrix(1,0,0,1,0,-12)"><path d="M828.353,198.417l11.372,-0.07l-0.002,3.414l-11.317,0l-0.053,-3.344Z" style="fill:#f4f2ed;fill-rule:nonzero;"/></g><g transform="matrix(1,0,0,1,0,-12)"><path d="M838.958,197.859l0.246,4.452l13.491,-1.481l-0.643,-5.347l-13.094,2.376Z" style="fill:#694;fill-rule:nonzero;"/></g><g transform="matrix(1,0,0,1,0,-12)"><path d="M830.238,197.971l-0.248,4.455l-13.488,-1.484l0.64,-5.347l13.096,2.376Z" style="fill:#694;fill-rule:nonzero;"/></g><g transform="matrix(1,0,0,1,0,-12)"><path d="M843.275,195.751l-0.402,2.891l7.334,0.233l0.23,-3.277l-7.162,0.153Z" style="fill:#72594b;fill-rule:nonzero;"/></g><g transform="matrix(1,0,0,1,0,-12)"><path d="M821.088,195.501l-0.402,2.891l7.334,0.233l0.23,-3.277l-7.162,0.153Z" style="fill:#72594b;fill-rule:nonzero;"/></g><g transform="matrix(1,0,0,1,0,-12)"><path d="M827.125,159.293l8.513,-1.63l5.982,0.181l2.113,-3.747l-7.394,-5.329l-4.754,0.038l-7.663,7.709l3.203,2.778Z" style="fill:#36823f;fill-rule:nonzero;"/></g><g transform="matrix(1,0,0,1,0,-12)"><path d="M827.125,159.293l8.513,-1.63l6.34,0.249l1.755,-3.8l-9.501,-0.218l-10.243,2.688l3.136,2.711Z" style="fill:#669b45;fill-rule:nonzero;"/></g></g></g></svg>