<?xml version="1.0" standalone="no"?><!DOCTYPE svg PUBLIC "-//W3C//DTD SVG 1.1//EN" "http://www.w3.org/Graphics/SVG/1.1/DTD/svg11.dtd"><svg width="120px" height="192px" version="1.1" xmlns="http://www.w3.org/2000/svg" xmlns:xlink="http://www.w3.org/1999/xlink" xml:space="preserve" style="fill-rule:evenodd;clip-rule:evenodd;stroke-linejoin:round;stroke-miterlimit:1.41421;"><g><g id="people-15" transform="matrix(1,0,0,1,-2116.99,-48)"><g transform="matrix(1,0,0,1,0,-12)"><path d="M2169.51,231.914l-0.944,6.753l5.738,-0.145l-0.203,-7.1l-4.591,0.492Z" style="fill:#553f37;fill-rule:nonzero;"/></g><g transform="matrix(1,0,0,1,0,-12)"><path d="M2174.34,242.231l1.346,9.769l5.301,0l0.758,-2.111l-1.376,-8.902l-6.029,1.244Z" style="fill:#553f37;fill-rule:nonzero;"/></g><g transform="matrix(1,0,0,1,0,-12)"><path d="M2183.67,128.123l-2.834,-1.855l-2.062,-5.738l-4.757,1.332l-1.511,3.645l-3.261,1.604l7.104,11.264l7.321,-10.252Z" style="fill:#cdaa97;fill-rule:nonzero;"/></g><g transform="matrix(1,0,0,1,0,-12)"><path d="M2178.88,124.618l-4.285,0l-4.618,-5.831l0.825,-11.984l7.734,-1.843l5.117,2l0.335,11.827l-5.108,5.831Z" style="fill:#cdaa97;fill-rule:nonzero;"/></g><g transform="matrix(1,0,0,1,0,-12)"><path d="M2170.49,111.467l-2.821,0.046l-0.223,4.831l2.878,-0.146l0.166,-4.731Z" style="fill:#cdaa97;fill-rule:nonzero;"/></g><g transform="matrix(1,0,0,1,0,-12)"><path d="M2183.78,112.125l2.848,0.762l-0.223,4.05l-2.518,0.096l-0.107,-4.908Z" style="fill:#cdaa97;fill-rule:nonzero;"/></g><g transform="matrix(1,0,0,1,0,-12)"><path d="M2164.84,165.592l4.661,66.322l5.409,0l1.201,-56.366l-2.795,26.002l1.079,40.744l5.924,-1.266l3.093,-39.237l4.033,-35.694l-22.605,-0.505Z" style="fill:#c1beba;fill-rule:nonzero;"/></g><g transform="matrix(1,0,0,1,0,-12)"><path d="M2175.57,175.449l-2.72,28.113l1.282,28.362l-5.317,-9.899l-2.577,-37.529l9.332,-9.047Z" style="fill:#171818;fill-opacity:0.25;fill-rule:nonzero;"/></g><g transform="matrix(1,0,0,1,0,-12)"><path d="M2194.76,161.62l2.349,5.668l-0.451,7.854l-2.653,-1l-0.541,-6.631l0.219,1.998l-2.399,0.105l0.872,-5.452l2.604,-2.542Z" style="fill:#cdaa97;fill-rule:nonzero;"/></g><g transform="matrix(1,0,0,1,0,-12)"><path d="M2158.65,161.893l-1.776,4.401l0.157,7.252l2.9,-0.377l0.588,-6.627l-0.232,1.997l2.494,0.339l-0.838,-5.497l-3.293,-1.488Z" style="fill:#cdaa97;fill-rule:nonzero;"/></g><g transform="matrix(1,0,0,1,0,-12)"><path d="M2169.12,126.985l-7.226,3.149l-0.748,8.78l4.228,0.831l0.783,-5.547l-1.373,31.391l22.668,0.507l-1.889,-29.196l1.069,4.477l4.652,-1.632l-1.769,-8.246l-5.839,-3.503l-7.872,3.933l-6.684,-4.944Z" style="fill:#494a72;fill-rule:nonzero;"/></g><g transform="matrix(1,0,0,1,0,-12)"><path d="M2191.28,139.745l-4.652,1.632l5.457,22.861l3.305,-1.433l-4.11,-23.06Z" style="fill:#cdaa97;fill-rule:nonzero;"/></g><g transform="matrix(1,0,0,1,0,-12)"><path d="M2182.43,120.783l-4.554,5.217l-2.892,0l-3.455,-5.16l0.797,-0.38l2.743,1.54l2.915,0l3.538,-1.485l0.908,0.268Z" style="fill:#2a2b2a;fill-rule:nonzero;"/></g><g transform="matrix(1,0,0,1,0,-12)"><path d="M2165.37,139.745l-4.228,-0.831l-2.709,23.807l3.605,0.59l3.332,-23.566Z" style="fill:#cdaa97;fill-rule:nonzero;"/></g></g></g></svg>