<?xml version="1.0" standalone="no"?><!DOCTYPE svg PUBLIC "-//W3C//DTD SVG 1.1//EN" "http://www.w3.org/Graphics/SVG/1.1/DTD/svg11.dtd"><svg width="120px" height="192px" version="1.1" xmlns="http://www.w3.org/2000/svg" xmlns:xlink="http://www.w3.org/1999/xlink" xml:space="preserve" style="fill-rule:evenodd;clip-rule:evenodd;stroke-linejoin:round;stroke-miterlimit:1.41421;"><g><g id="people-21" transform="matrix(1,0,0,1,-454.247,-48)"><g transform="matrix(1,0,0,1,0,-12)"><path d="M510.254,239.081l-0.596,4.334l4.224,-0.108l0.326,-4.659l-3.954,0.433Z" style="fill:#fec;fill-rule:nonzero;"/></g><g transform="matrix(1,0,0,1,0,-12)"><path d="M513.301,245.703l0.852,6.297l3.332,0l0.488,-1.381l-0.867,-5.714l-3.805,0.798Z" style="fill:#fec;fill-rule:nonzero;"/></g><g transform="matrix(1,0,0,1,0,-12)"><path d="M525.324,204.63l0.733,3.904l-1.009,4.987l-1.821,-1.022l0.521,-4.289l-0.121,1.301l-1.692,-0.421l1.428,-3.176l1.961,-1.284Z" style="fill:#e1c5b5;fill-rule:nonzero;"/></g><g transform="matrix(1,0,0,1,0,-12)"><path d="M520.311,187.98l3.017,18.226l2.158,-0.81l-2.691,-20.565l-2.484,3.149Z" style="fill:#e1c5b5;fill-rule:nonzero;"/></g><g transform="matrix(1,0,0,1,0,-12)"><path d="M503.17,203.255l-0.733,3.904l1.009,4.987l1.821,-1.022l-0.521,-4.289l0.121,1.301l1.692,-0.421l-1.428,-3.176l-1.961,-1.284Z" style="fill:#e1c5b5;fill-rule:nonzero;"/></g><g transform="matrix(1,0,0,1,0,-12)"><path d="M508.183,186.605l-3.017,18.226l-2.158,-0.81l2.691,-20.565l2.484,3.149Z" style="fill:#e1c5b5;fill-rule:nonzero;"/></g><g transform="matrix(1,0,0,1,0,-12)"><path d="M514.099,212.865l-0.649,32.824l3.628,-0.758l3.197,-32.175" style="fill:#e1c5b5;fill-rule:nonzero;"/></g><g transform="matrix(1,0,0,1,0,-12)"><path d="M514.208,201.273l-0.109,13.866l-0.515,23.671l-3.33,0.271l-1.625,-24.09l5.579,-13.718Z" style="fill:#ceab97;fill-rule:nonzero;"/></g><g transform="matrix(1,0,0,1,0,-12)"><path d="M505.727,183.403l4.054,-1.673l1.616,3.984l5.726,0.167l1.924,-3.552l3.69,2.533l-2.478,3.273l-0.307,10.234l5.124,32.098l-21.219,0.165l4.897,-31.909l-0.934,-12.348l-2.093,-2.972Z" style="fill:#fec;fill-rule:nonzero;"/></g><g transform="matrix(1,0,0,1,0,-12)"><path d="M521.778,191.072l-1.884,-23.864l-5.394,-2.18l0.004,-0.078l-5.947,2.708l-0.848,23.203l2.707,2.07l9.067,0.319l2.295,-2.178Z" style="fill:#543e36;fill-rule:nonzero;"/></g></g></g></svg>