<?xml version="1.0" encoding="UTF-8" standalone="no"?>
<!DOCTYPE svg PUBLIC "-//W3C//DTD SVG 1.1//EN" "http://www.w3.org/Graphics/SVG/1.1/DTD/svg11.dtd">
<svg width="100%" height="100%" viewBox="0 0 240 240" version="1.1" xmlns="http://www.w3.org/2000/svg" xmlns:xlink="http://www.w3.org/1999/xlink" xml:space="preserve" xmlns:serif="http://www.serif.com/" style="fill-rule:evenodd;clip-rule:evenodd;stroke-linejoin:round;stroke-miterlimit:2;">
    <g id="parklet-02-right" transform="matrix(1.27,0,0,1.27,-1.92,-3.84)">
        <g transform="matrix(1,0,0,1,-38.7048,-52.412)">
            <path d="M76.084,143.255L78.465,143.023L78.56,166.989L74.104,168.04L76.084,143.255Z" style="fill:rgb(102,153,68);fill-rule:nonzero;"/>
        </g>
        <g transform="matrix(1,0,0,1,-38.7048,-52.412)">
            <path d="M70.871,143.167L67.744,133.765L86.435,133.729L83.392,143.208L70.871,143.167Z" style="fill:rgb(173,33,37);fill-rule:nonzero;"/>
        </g>
        <g transform="matrix(1,0,0,1,-38.7048,-52.412)">
            <path d="M144.135,150.926L123.55,134.205L139.75,114.121L149.837,112.673L138.997,106.532L116.042,134.194L137.002,155.697" style="fill:rgb(103,154,69);fill-rule:nonzero;"/>
        </g>
        <g transform="matrix(1,0,0,1,-38.7048,-52.412)">
            <path d="M103.257,134.378L85.917,122.887L72.57,132.408L87.094,128.629L110.32,150.162L103.257,134.378Z" style="fill:rgb(103,154,69);fill-rule:nonzero;"/>
        </g>
        <g transform="matrix(1,0,0,1,-38.7048,-52.412)">
            <path d="M139.22,146.823L141.802,121.227L116.19,114.953L98.765,120.725L89.635,107.059L77.077,115.969L88.657,113.459L99.257,145.068L90.571,155.287L109.54,155.104L139.22,146.823Z" style="fill:rgb(53,129,63);fill-rule:nonzero;"/>
        </g>
        <g transform="matrix(1,0,0,1,-38.7048,-52.412)">
            <path d="M115.516,156.735L98.217,120.534L114.514,113.447L116.319,107.677L123.674,114.077L105.485,122.046L129.613,153.176" style="fill:rgb(103,154,69);fill-rule:nonzero;"/>
        </g>
        <g transform="matrix(1,0,0,1,-38.7048,-52.412)">
            <path d="M129.073,146.444L151.768,118.001L165.321,126.162L152.944,124.197L137.914,148.256L129.073,146.444Z" style="fill:rgb(103,154,69);fill-rule:nonzero;"/>
        </g>
        <g transform="matrix(1,0,0,1,-38.7048,-52.412)">
            <path d="M114.931,131.659L122.695,100.608L131.662,100.161L126.756,104.671L119.847,136.605L114.931,131.659Z" style="fill:rgb(103,154,69);fill-rule:nonzero;"/>
        </g>
        <g transform="matrix(1,0,0,1,-38.7048,-52.412)">
            <path d="M131.577,151.214L118.998,148.706L104.802,130.638L146.174,127.16" style="fill:rgb(103,154,69);fill-rule:nonzero;"/>
        </g>
        <g transform="matrix(1,0,0,1,-38.7048,-52.412)">
            <path d="M121.57,143.913L142.07,133.288L156.012,143.32L141.57,139.288L130.57,150.038L121.57,143.913Z" style="fill:rgb(53,129,63);fill-rule:nonzero;"/>
        </g>
        <g transform="matrix(1,0,0,1,-38.7048,-52.412)">
            <path d="M166.49,142.287L168.871,142.054L168.967,172.398L164.51,173.448L166.49,142.287Z" style="fill:rgb(102,153,68);fill-rule:nonzero;"/>
        </g>
        <g transform="matrix(1,0,0,1,-38.7048,-52.412)">
            <path d="M161.277,142.198L158.15,132.796L176.841,132.76L173.798,142.239L161.277,142.198Z" style="fill:rgb(173,33,37);fill-rule:nonzero;"/>
        </g>
        <g transform="matrix(1,0,0,1,-38.7048,-52.412)">
            <path d="M174.885,160.832L170.073,156.082L152.225,154.848L148.666,151.332L143.041,154.759L138.635,153.082L128.434,151.847L126.334,153.342L123.834,150.884L120.52,151.574L119.356,148.3L111.235,151.236L96.696,148.037L90.584,155.219L69.537,151.717L63.916,146.135L56.967,152.535L47.653,154.444L45.791,160.849L174.885,160.832Z" style="fill:rgb(102,153,68);fill-rule:nonzero;"/>
        </g>
        <g transform="matrix(1,0,0,1,-38.7048,-52.412)">
            <path d="M88.916,160.864L86.79,158.01L73.166,157.301L63.666,150.426L61.893,158.051L56.748,160.843L88.916,160.864Z" style="fill:rgb(54,128,63);fill-rule:nonzero;"/>
        </g>
        <g transform="matrix(1,0,0,1,-38.7048,-52.412)">
            <path d="M95.951,160.314L97.987,148.245L124.654,148.078L136.32,144.911L153.389,147.813L158.111,150.476L174.373,147.486L179.418,152.503L187.691,155.998L190.16,160.362L95.951,160.314Z" style="fill:rgb(102,153,68);fill-rule:nonzero;"/>
        </g>
        <g transform="matrix(1,0,0,1,-38.7048,-52.412)">
            <path d="M162.465,160.443L163.162,158.535L173.057,155.159L174.889,157.576L181.473,160.325L162.465,160.443Z" style="fill:rgb(54,128,63);fill-rule:nonzero;"/>
        </g>
        <g transform="matrix(1,0,0,1,-38.7048,-52.412)">
            <path d="M128.816,160.336L132.316,156.419L136.74,157.443L147.972,157.158L152.003,160.315L142.149,160.336L128.816,160.336Z" style="fill:rgb(54,128,63);fill-rule:nonzero;"/>
        </g>
        <g transform="matrix(1,0,0,1,-38.7048,-52.412)">
            <path d="M118.166,160.885L115.436,159.053L114.666,155.468L99.291,156.759L97.125,160.843L118.166,160.885Z" style="fill:rgb(54,128,63);fill-rule:nonzero;"/>
        </g>
        <g transform="matrix(1,0,0,1,-38.7048,-52.412)">
            <path d="M198.91,160.412L41.217,160.412L40.217,172.412L199.91,172.412L198.91,160.412Z" style="fill:rgb(173,33,37);fill-rule:nonzero;"/>
        </g>
        <g transform="matrix(1,0,0,1,-38.7048,-52.412)">
            <path d="M226.693,235.412L40.217,235.412L40.717,222.412L229.193,222.412L226.693,235.412Z" style="fill:rgb(173,33,37);fill-rule:nonzero;"/>
        </g>
        <g transform="matrix(1,0,0,1,-38.7048,-52.412)">
            <path d="M225.91,224.412L44.91,224.412L45.91,166.412L199.41,166.412L201.91,195.246L225.424,196.154L225.91,224.412Z" style="fill:rgb(173,33,37);fill-rule:nonzero;"/>
        </g>
        <g transform="matrix(1,0,0,1,-38.7048,-52.412)">
            <rect x="46" y="183.412" width="8" height="61" style="fill:rgb(173,33,37);fill-rule:nonzero;"/>
        </g>
        <g transform="matrix(1,0,0,1,-38.7048,-52.412)">
            <rect x="96" y="172.412" width="8" height="12" style="fill:rgb(173,33,37);fill-rule:nonzero;"/>
        </g>
        <g transform="matrix(1,0,0,1,-38.7048,-52.412)">
            <rect x="166" y="172.412" width="8" height="12" style="fill:rgb(173,33,37);fill-rule:nonzero;"/>
        </g>
        <g transform="matrix(1,0,0,1,-38.7048,-52.412)">
            <rect x="218" y="208.412" width="8" height="36" style="fill:rgb(173,33,37);fill-rule:nonzero;"/>
        </g>
        <g transform="matrix(1,0,0,1,-38.7048,-52.412)">
            <path d="M107,172.079L107,213.829L164,184.079L164,171.912L107,172.079Z" style="fill:rgb(107,21,28);fill-rule:nonzero;"/>
        </g>
        <g transform="matrix(1,0,0,1,-38.7048,-52.412)">
            <path d="M54,172.079L54,208.829L93,189.192L93,171.912L54,172.079Z" style="fill:rgb(107,21,28);fill-rule:nonzero;"/>
        </g>
        <g transform="matrix(1,0,0,1,-38.7048,-52.412)">
            <path d="M192,172.079L193.437,188.037L176.823,199.396L176.687,171.912L192,172.079Z" style="fill:rgb(107,21,28);fill-rule:nonzero;"/>
        </g>
        <g transform="matrix(1,0,0,1,-38.7048,-52.412)">
            <path d="M214.91,234.412L218,244.079L218,234.412L214.91,234.412Z" style="fill:rgb(107,21,28);fill-rule:nonzero;"/>
        </g>
        <g transform="matrix(1,0,0,1,-38.7048,-52.412)">
            <path d="M54,234.412L54,244.079L56.821,234.412L54,234.412Z" style="fill:rgb(107,21,28);fill-rule:nonzero;"/>
        </g>
        <g transform="matrix(1,0,0,1,-38.7048,-52.412)">
            <path d="M53,222.412L92.41,222.412L92.354,218.412L53,218.412L53,222.412Z" style="fill:rgb(107,21,28);fill-rule:nonzero;"/>
        </g>
        <g transform="matrix(1,0,0,1,-38.7048,-52.412)">
            <path d="M177,222.412L217.41,222.412L217.352,218.412L177,218.412L177,222.412Z" style="fill:rgb(107,21,28);fill-rule:nonzero;"/>
        </g>
        <g transform="matrix(1,0,0,1,-38.7048,-52.412)">
            <path d="M107,222.412L163.443,222.412L163.359,218.412L107,218.412L107,222.412Z" style="fill:rgb(107,21,28);fill-rule:nonzero;"/>
        </g>
        <g transform="matrix(1,0,0,1,-38.7048,-52.412)">
            <path d="M47.428,168.711L45.676,163.445L56.144,163.426L54.44,168.733L47.428,168.711Z" style="fill:rgb(192,189,187);fill-rule:nonzero;"/>
        </g>
        <g transform="matrix(1,0,0,1,-38.7048,-52.412)">
            <path d="M195.061,158.412L198.956,198.496L229.193,198.079L229.193,193.579L205.075,191.621L200.576,158.412L195.061,158.412Z" style="fill:rgb(85,63,55);fill-rule:nonzero;"/>
        </g>
    </g>
</svg>
