<?xml version="1.0" encoding="UTF-8" standalone="no"?>
<!DOCTYPE svg PUBLIC "-//W3C//DTD SVG 1.1//EN" "http://www.w3.org/Graphics/SVG/1.1/DTD/svg11.dtd">
<svg width="100%" height="100%" viewBox="0 0 240 240" version="1.1" xmlns="http://www.w3.org/2000/svg" xmlns:xlink="http://www.w3.org/1999/xlink" xml:space="preserve" xmlns:serif="http://www.serif.com/" style="fill-rule:evenodd;clip-rule:evenodd;stroke-linejoin:round;stroke-miterlimit:2;">
    <g id="parklet-02-left" transform="matrix(1.27,0,0,1.27,-0.65,-70.4032)">
        <g transform="matrix(1,0,0,1,-279.91,0)">
            <path d="M433.736,143.255L431.355,143.023L431.26,166.989L435.716,168.04L433.736,143.255Z" style="fill:rgb(102,153,68);fill-rule:nonzero;"/>
        </g>
        <g transform="matrix(1,0,0,1,-279.91,0)">
            <path d="M438.949,143.167L442.076,133.765L423.385,133.729L426.428,143.208L438.949,143.167Z" style="fill:rgb(173,33,37);fill-rule:nonzero;"/>
        </g>
        <g transform="matrix(1,0,0,1,-279.91,0)">
            <path d="M365.685,150.926L386.27,134.205L370.07,114.121L359.983,112.673L370.823,106.532L393.778,134.194L372.818,155.697" style="fill:rgb(103,154,69);fill-rule:nonzero;"/>
        </g>
        <g transform="matrix(1,0,0,1,-279.91,0)">
            <path d="M406.563,134.378L423.903,122.887L437.25,132.408L422.726,128.629L399.5,150.162L406.563,134.378Z" style="fill:rgb(103,154,69);fill-rule:nonzero;"/>
        </g>
        <g transform="matrix(1,0,0,1,-279.91,0)">
            <path d="M370.601,146.823L368.019,121.227L393.631,114.953L411.056,120.725L420.186,107.059L432.744,115.969L421.164,113.459L410.564,145.068L419.25,155.287L400.281,155.104L370.601,146.823Z" style="fill:rgb(53,129,63);fill-rule:nonzero;"/>
        </g>
        <g transform="matrix(1,0,0,1,-279.91,0)">
            <path d="M394.305,156.735L411.604,120.534L395.307,113.447L393.502,107.677L386.147,114.077L404.336,122.046L380.208,153.176" style="fill:rgb(103,154,69);fill-rule:nonzero;"/>
        </g>
        <g transform="matrix(1,0,0,1,-279.91,0)">
            <path d="M380.748,146.444L358.053,118.001L344.5,126.162L356.877,124.197L371.907,148.256L380.748,146.444Z" style="fill:rgb(103,154,69);fill-rule:nonzero;"/>
        </g>
        <g transform="matrix(1,0,0,1,-279.91,0)">
            <path d="M394.89,131.659L387.126,100.608L378.159,100.161L383.065,104.671L389.974,136.605L394.89,131.659Z" style="fill:rgb(103,154,69);fill-rule:nonzero;"/>
        </g>
        <g transform="matrix(1,0,0,1,-279.91,0)">
            <path d="M378.244,151.214L390.823,148.706L405.019,130.638L363.647,127.16" style="fill:rgb(103,154,69);fill-rule:nonzero;"/>
        </g>
        <g transform="matrix(1,0,0,1,-279.91,0)">
            <path d="M388.25,143.913L367.75,133.288L353.808,143.32L368.25,139.288L379.25,150.038L388.25,143.913Z" style="fill:rgb(53,129,63);fill-rule:nonzero;"/>
        </g>
        <g transform="matrix(1,0,0,1,-279.91,0)">
            <path d="M343.33,142.287L340.949,142.054L340.853,172.398L345.31,173.448L343.33,142.287Z" style="fill:rgb(102,153,68);fill-rule:nonzero;"/>
        </g>
        <g transform="matrix(1,0,0,1,-279.91,0)">
            <path d="M348.543,142.198L351.67,132.796L332.979,132.76L336.022,142.239L348.543,142.198Z" style="fill:rgb(173,33,37);fill-rule:nonzero;"/>
        </g>
        <g transform="matrix(1,0,0,1,-279.91,0)">
            <path d="M334.935,160.832L339.747,156.082L357.595,154.848L361.154,151.332L366.779,154.759L371.185,153.082L381.386,151.847L383.486,153.342L385.986,150.884L389.3,151.574L390.464,148.3L398.585,151.236L413.124,148.037L419.236,155.219L440.283,151.717L445.904,146.135L452.853,152.535L462.167,154.444L464.029,160.849L334.935,160.832Z" style="fill:rgb(102,153,68);fill-rule:nonzero;"/>
        </g>
        <g transform="matrix(1,0,0,1,-279.91,0)">
            <path d="M420.904,160.864L423.03,158.01L436.654,157.301L446.154,150.426L447.927,158.051L453.072,160.843L420.904,160.864Z" style="fill:rgb(54,128,63);fill-rule:nonzero;"/>
        </g>
        <g transform="matrix(1,0,0,1,-279.91,0)">
            <path d="M413.869,160.314L411.833,148.245L385.166,148.078L373.5,144.911L356.431,147.813L351.709,150.476L335.447,147.486L330.402,152.503L322.129,155.998L319.66,160.362L413.869,160.314Z" style="fill:rgb(102,153,68);fill-rule:nonzero;"/>
        </g>
        <g transform="matrix(1,0,0,1,-279.91,0)">
            <path d="M347.356,160.443L346.659,158.535L336.764,155.159L334.932,157.576L328.348,160.325L347.356,160.443Z" style="fill:rgb(54,128,63);fill-rule:nonzero;"/>
        </g>
        <g transform="matrix(1,0,0,1,-279.91,0)">
            <path d="M381.004,160.336L377.504,156.419L373.08,157.443L361.848,157.158L357.817,160.315L367.671,160.336L381.004,160.336Z" style="fill:rgb(54,128,63);fill-rule:nonzero;"/>
        </g>
        <g transform="matrix(1,0,0,1,-279.91,0)">
            <path d="M391.654,160.885L394.384,159.053L395.154,155.468L410.529,156.759L412.695,160.843L391.654,160.885Z" style="fill:rgb(54,128,63);fill-rule:nonzero;"/>
        </g>
        <g transform="matrix(1,0,0,1,-279.91,0)">
            <path d="M310.91,160.412L468.398,160.412L469.398,172.412L309.91,172.412L310.91,160.412Z" style="fill:rgb(173,33,37);fill-rule:nonzero;"/>
        </g>
        <g transform="matrix(1,0,0,1,-279.91,0)">
            <path d="M281.422,234.412L468.398,234.412L469.398,222.412L280.422,222.412L281.422,234.412Z" style="fill:rgb(173,33,37);fill-rule:nonzero;"/>
        </g>
        <g transform="matrix(1,0,0,1,-279.91,0)">
            <path d="M283.91,224.412L464.91,224.412L463.91,166.412L310.41,166.412L307.91,195.246L284.396,196.154L283.91,224.412Z" style="fill:rgb(173,33,37);fill-rule:nonzero;"/>
        </g>
        <g transform="matrix(1,0,0,1,-279.91,0)">
            <rect x="456" y="183.412" width="8" height="61" style="fill:rgb(173,33,37);fill-rule:nonzero;"/>
        </g>
        <g transform="matrix(1,0,0,1,-279.91,0)">
            <rect x="406" y="172.412" width="8" height="12" style="fill:rgb(173,33,37);fill-rule:nonzero;"/>
        </g>
        <g transform="matrix(1,0,0,1,-279.91,0)">
            <rect x="336" y="172.412" width="8" height="12" style="fill:rgb(173,33,37);fill-rule:nonzero;"/>
        </g>
        <g transform="matrix(1,0,0,1,-279.91,0)">
            <rect x="284" y="208.412" width="7.999" height="36" style="fill:rgb(173,33,37);fill-rule:nonzero;"/>
        </g>
        <g transform="matrix(1,0,0,1,-279.91,0)">
            <path d="M346,172.079L346,213.829L403,184.079L403,171.912L346,172.079Z" style="fill:rgb(107,21,28);fill-rule:nonzero;"/>
        </g>
        <g transform="matrix(1,0,0,1,-279.91,0)">
            <path d="M417,172.079L417,208.829L456,189.192L456,171.912L417,172.079Z" style="fill:rgb(107,21,28);fill-rule:nonzero;"/>
        </g>
        <g transform="matrix(1,0,0,1,-279.91,0)">
            <path d="M333,172.079L333,187.579L315.556,199.396L317.941,171.912L333,172.079Z" style="fill:rgb(107,21,28);fill-rule:nonzero;"/>
        </g>
        <g transform="matrix(1,0,0,1,-279.91,0)">
            <path d="M292,234.412L292,244.079L294.911,234.412L292,234.412Z" style="fill:rgb(107,21,28);fill-rule:nonzero;"/>
        </g>
        <g transform="matrix(1,0,0,1,-279.91,0)">
            <path d="M453,234.412L456.001,244.079L456.001,234.412L453,234.412Z" style="fill:rgb(107,21,28);fill-rule:nonzero;"/>
        </g>
        <g transform="matrix(1,0,0,1,-279.91,0)">
            <path d="M457,222.412L417.41,222.412L417.467,218.412L457,218.412L457,222.412Z" style="fill:rgb(107,21,28);fill-rule:nonzero;"/>
        </g>
        <g transform="matrix(1,0,0,1,-279.91,0)">
            <path d="M333,222.412L292.41,222.412L292.469,218.412L333,218.412L333,222.412Z" style="fill:rgb(107,21,28);fill-rule:nonzero;"/>
        </g>
        <g transform="matrix(1,0,0,1,-279.91,0)">
            <path d="M403,222.412L346.377,222.412L346.461,218.412L403,218.412L403,222.412Z" style="fill:rgb(107,21,28);fill-rule:nonzero;"/>
        </g>
        <g transform="matrix(1,0,0,1,-279.91,0)">
            <path d="M462.393,168.711L464.145,163.445L453.677,163.426L455.381,168.733L462.393,168.711Z" style="fill:rgb(192,189,187);fill-rule:nonzero;"/>
        </g>
        <g transform="matrix(1,0,0,1,-279.91,0)">
            <path d="M314.76,158.412L310.955,198.496L280.422,198.501L280.422,194.001L304.836,191.621L309.244,158.412L314.76,158.412Z" style="fill:rgb(85,63,55);fill-rule:nonzero;"/>
        </g>
    </g>
</svg>
