<?xml version="1.0" encoding="UTF-8" standalone="no"?>
<!DOCTYPE svg PUBLIC "-//W3C//DTD SVG 1.1//EN" "http://www.w3.org/Graphics/SVG/1.1/DTD/svg11.dtd">
<svg width="100%" height="100%" viewBox="0 0 240 240" version="1.1" xmlns="http://www.w3.org/2000/svg" xmlns:xlink="http://www.w3.org/1999/xlink" xml:space="preserve" xmlns:serif="http://www.serif.com/" style="fill-rule:evenodd;clip-rule:evenodd;stroke-linejoin:round;stroke-miterlimit:2;">
    <g id="parklet-right" transform="matrix(0.635,0,0,0.635,-62.245,-64.8)">
        <g id="shrub-bg">
            <path d="M221.375,241.926L227.854,249.862L221.594,266.788L236.887,275.016L234.982,264.258L246.991,263.671L249.381,271.383L261.846,273.668L271.666,263.334L279,252.252L291,260.403L301.334,249.801L299.667,245.506L304,240L309,240L318.31,245.506L326.667,235L345.667,231.256L337.974,219L352,208.505L344.334,197.128L346,185L337,185L341.786,171L325.667,157.667L318.31,171.334L305.591,172.334L292.334,171L294,167.667L305.591,164.334L301.334,146.759L296.334,144.334L294.334,133.334L285,126.667L278,140.334L270.334,142.667L258.334,128L247.208,138.334L245.433,148.667L237.855,158L224,148L221.375,166.27L211.428,163.989L208,157.334L195.012,160.667L191.93,171.334L200.842,177.667L189.334,182.334L175,179.667L182.211,193.667L173,205L186.334,222.667L193.667,210L200.842,226.667L208,222.667L211.428,233L203.334,237.549L211.428,240L221.375,241.926Z" style="fill:rgb(53,129,63);fill-rule:nonzero;"/>
        </g>
        <g id="shrub-stem">
            <path d="M255.813,299.567L248.333,261.608L219.235,230.752L216,188.404L223.395,183.755L227.856,227.752L255.813,256.252L261.848,296.525L255.813,299.567Z" style="fill:rgb(100,88,73);fill-rule:nonzero;"/>
            <path d="M255.813,286.693L282.405,259.643L285.334,220.722L309.334,190.502L302.188,188.404L278.405,217.752L273.5,255.752L251.61,278.238L255.813,286.693Z" style="fill:rgb(100,88,73);fill-rule:nonzero;"/>
            <path d="M282,238.5L301.985,234.074L324.01,197.692L335.032,196.006L306.017,241.34L282,245.506L282,238.5Z" style="fill:rgb(100,88,73);fill-rule:nonzero;"/>
            <path d="M260.848,191.502L268.333,194.252L265,235.475L244.189,250.762L238.312,243.006L256.813,230.914" style="fill:rgb(100,88,73);fill-rule:nonzero;"/>
            <path d="M243.512,206.667L236.924,187.252L244.512,184.756L249.61,204.211L261.848,212.667L260.309,220.6L243.512,206.667Z" style="fill:rgb(100,88,73);fill-rule:nonzero;"/>
        </g>
        <g id="shrub">
            <path d="M239.92,181L253.546,203.424L235.454,210.804L225.436,194.316L239.92,181Z" style="fill:rgb(105,155,72);fill-rule:nonzero;"/>
            <path d="M253.942,248.438L238.165,218.666L261.912,210.569L273.512,232.458L253.942,248.438Z" style="fill:rgb(105,155,72);fill-rule:nonzero;"/>
            <path d="M283.162,158.869L263.839,166.789L260.289,151.649L274.497,145.825L283.162,158.869Z" style="fill:rgb(105,155,72);fill-rule:nonzero;"/>
            <path d="M297.033,190.497L274.587,185.879L280.623,169.918L297.127,173.313L297.033,190.497Z" style="fill:rgb(105,155,72);fill-rule:nonzero;"/>
            <path d="M320.02,173.867L331.27,202.123L309.169,207.071L300.897,186.294L320.02,173.867Z" style="fill:rgb(105,155,72);fill-rule:nonzero;"/>
            <path d="M298.205,153.771L312.111,172.009L297.065,180.089L286.84,166.679L298.205,153.771Z" style="fill:rgb(105,155,72);fill-rule:nonzero;"/>
            <path d="M309.794,228.328L321.214,202.864L338.594,214.257L330.196,232.98L309.794,228.328Z" style="fill:rgb(105,155,72);fill-rule:nonzero;"/>
            <path d="M297.053,194.156L319.254,214.37L301.78,228.316L285.455,213.454L297.053,194.156Z" style="fill:rgb(105,155,72);fill-rule:nonzero;"/>
            <path d="M271.023,217.135L296.609,219.01L292.22,237.602L273.407,236.223L271.023,217.135Z" style="fill:rgb(105,155,72);fill-rule:nonzero;"/>
            <path d="M282.42,180.166L278.658,212.252L255.509,205.712L258.274,182.12L282.42,180.166Z" style="fill:rgb(105,155,72);fill-rule:nonzero;"/>
            <path d="M310.297,229.441L313.538,249.894L298.117,249.872L295.734,234.833L310.297,229.441Z" style="fill:rgb(105,155,72);fill-rule:nonzero;"/>
            <path d="M275.206,262.873L256.802,251.576L267.273,239.373L280.807,247.68L275.206,262.873Z" style="fill:rgb(105,155,72);fill-rule:nonzero;"/>
            <path d="M251.764,239.886L229.867,259.374L218.114,240.982L234.214,226.652L251.764,239.886Z" style="fill:rgb(105,155,72);fill-rule:nonzero;"/>
            <path d="M273.43,178.778L246.076,183.899L245.53,163.184L265.642,159.419L273.43,178.778Z" style="fill:rgb(105,155,72);fill-rule:nonzero;"/>
            <path d="M215.328,182.073L219.417,211.725L197.133,211.244L194.127,189.441L215.328,182.073Z" style="fill:rgb(105,155,72);fill-rule:nonzero;"/>
            <path d="M235.87,209.84L230.812,233.393L214.088,226.902L217.808,209.584L235.87,209.84Z" style="fill:rgb(105,155,72);fill-rule:nonzero;"/>
            <path d="M208.832,170.99L239.853,158.631L245.292,182.895L222.482,191.983L208.832,170.99Z" style="fill:rgb(105,155,72);fill-rule:nonzero;"/>
        </g>
        <g id="plants">
            <path d="M327.438,278.109L332.043,278.109L332.887,307.355L323.983,308.736L327.438,278.109Z" style="fill:rgb(103,154,69);fill-rule:nonzero;"/>
            <path d="M373.68,253.381L378.442,252.914L378.631,313.604L369.719,315.703L373.68,253.381Z" style="fill:rgb(103,154,69);fill-rule:nonzero;"/>
            <path d="M363.254,253.203L357,234.398L394.383,234.328L388.297,253.285L363.254,253.203Z" style="fill:rgb(174,32,37);fill-rule:nonzero;"/>
            <path d="M317.046,278.361L310.792,259.556L348.175,259.486L342.089,278.443L317.046,278.361Z" style="fill:rgb(174,32,37);fill-rule:nonzero;"/>
            <path d="M192.794,276.145L197.399,276.145L198.243,314.463L189.339,316.273L192.794,276.145Z" style="fill:rgb(103,154,69);fill-rule:nonzero;"/>
            <path d="M182.401,276.398L176.147,257.593L213.53,257.523L207.444,276.48L182.401,276.398Z" style="fill:rgb(174,32,37);fill-rule:nonzero;"/>
            <path d="M147.356,262.347L152.118,261.88L152.307,309.816L143.395,311.915L147.356,262.347Z" style="fill:rgb(103,154,69);fill-rule:nonzero;"/>
            <path d="M136.93,262.169L130.676,243.364L168.059,243.294L161.973,262.251L136.93,262.169Z" style="fill:rgb(174,32,37);fill-rule:nonzero;"/>
            <path d="M366.949,313.506L357.324,304.006L321.629,301.537L314.511,294.506L303.261,301.36L294.449,298.006L274.047,295.535L269.847,298.526L264.847,293.61L258.217,294.99L255.888,288.442L239.648,294.315L212.513,288.195L198.347,302.279L156.252,295.276L145.012,284.111L131.113,296.912L112.486,300.731L108.762,313.539L366.949,313.506Z" style="fill:rgb(103,154,69);fill-rule:nonzero;"/>
            <path d="M195.012,313.57L190.76,307.861L163.51,306.443L144.51,292.693L140.965,307.945L130.676,313.529L195.012,313.57Z" style="fill:rgb(53,129,63);fill-rule:nonzero;"/>
            <path d="M209.083,312.471L226.583,304.053L254.216,300.565L266.146,293.909L272.583,300.387L276.583,296.387L302.396,293.284L308.083,298.928L310.411,292.379L317.628,294.018L323.956,287.469L333.403,292.795L336.196,293.342L365.927,286.815L376.017,296.85L392.561,303.839L397.5,312.567L209.083,312.471Z" style="fill:rgb(103,154,69);fill-rule:nonzero;"/>
            <path d="M342.108,312.729L343.503,308.913L363.292,302.161L366.958,306.995L380.124,312.493L342.108,312.729Z" style="fill:rgb(53,129,63);fill-rule:nonzero;"/>
            <path d="M274.813,312.514L281.813,304.68L290.659,306.729L313.126,306.159L321.188,312.471L301.479,312.514L274.813,312.514Z" style="fill:rgb(53,129,63);fill-rule:nonzero;"/>
            <path d="M253.512,313.611L248.049,309.947L246.512,302.777L215.762,305.359L211.428,313.527L253.512,313.611Z" style="fill:rgb(53,129,63);fill-rule:nonzero;"/>
        </g>
        <g id="parklet-with-seat">
            <path d="M415,312L100.024,312L98.024,336L417,336L415,312Z" style="fill:rgb(174,32,37);fill-rule:nonzero;"/>
            <path d="M473.976,460L100.024,460L98.024,436L475.976,436L473.976,460Z" style="fill:rgb(174,32,37);fill-rule:nonzero;"/>
            <path d="M469,440L107,440L109,324L416,324L421,382L468.027,383.649L469,440Z" style="fill:rgb(174,32,37);fill-rule:nonzero;"/>
            <rect x="208" y="359" width="16" height="121" style="fill:rgb(174,32,37);fill-rule:nonzero;"/>
            <rect x="208" y="336" width="16" height="24" style="fill:rgb(174,32,37);fill-rule:nonzero;"/>
            <rect x="349" y="336" width="16" height="24" style="fill:rgb(174,32,37);fill-rule:nonzero;"/>
            <rect x="349" y="359" width="16" height="121" style="fill:rgb(174,32,37);fill-rule:nonzero;"/>
            <path d="M230,336L230,419.5L344,360L344,335.667L230,336Z" style="fill:rgb(107,21,27);fill-rule:nonzero;"/>
            <path d="M124,336L124,409.5L202,370.227L202,335.667L124,336Z" style="fill:rgb(107,21,27);fill-rule:nonzero;"/>
            <path d="M370,336L370,409.5L401.3,390.635L396.32,335.667L370,336Z" style="fill:rgb(107,21,27);fill-rule:nonzero;"/>
            <path d="M224,460L224,480L230.469,460L224,460Z" style="fill:rgb(107,21,27);fill-rule:nonzero;"/>
            <path d="M365,460L365,480L371.469,460L365,460Z" style="fill:rgb(107,21,27);fill-rule:nonzero;"/>
            <path d="M123,437L202,437L201.887,429L123,429L123,437Z" style="fill:rgb(107,21,27);fill-rule:nonzero;"/>
            <path d="M370,437L452,437L451.883,429L370,429L370,437Z" style="fill:rgb(107,21,27);fill-rule:nonzero;"/>
            <path d="M230,437L344.066,437L343.897,429L230,429L230,437Z" style="fill:rgb(107,21,27);fill-rule:nonzero;"/>
            <path d="M112.035,329.263L108.533,318.732L129.467,318.693L126.058,329.309L112.035,329.263Z" style="fill:rgb(193,190,187);fill-rule:nonzero;"/>
            <path d="M407.3,309L415,389L475.976,388L475.976,379L427.241,375.25L418.333,309L407.3,309Z" style="fill:rgb(84,62,54);fill-rule:nonzero;"/>
        </g>
    </g>
</svg>
