<?xml version="1.0" encoding="UTF-8" standalone="no"?>
<!DOCTYPE svg PUBLIC "-//W3C//DTD SVG 1.1//EN" "http://www.w3.org/Graphics/SVG/1.1/DTD/svg11.dtd">
<svg width="100%" height="100%" viewBox="0 0 1830 500" version="1.1" xmlns="http://www.w3.org/2000/svg" xmlns:xlink="http://www.w3.org/1999/xlink" xml:space="preserve" xmlns:serif="http://www.serif.com/" style="fill-rule:evenodd;clip-rule:evenodd;">
    <g id="dock-right" transform="matrix(0.635,0,0,0.635,0.4,195.2)">
        <g id="water-repeat">
            <g transform="matrix(1.57317,0,0,1.5748,-0.629921,7.55906)">
                <rect x="0" y="197.323" width="610.635" height="102.677" style="fill:rgb(54,99,135);"/>
            </g>
            <g>
                <path d="M894.48,361.832L943.562,354.471L961,356.009L961,350.212L939.881,346.494L894.48,361.832Z" style="fill:rgb(79,131,163);fill-rule:nonzero;"/>
                <path d="M932.703,422.778L868.439,407.44L834.949,422.778L871.154,415.416L932.703,422.778Z" style="fill:rgb(79,131,163);fill-rule:nonzero;"/>
                <path d="M888.622,334.838L801.504,319.5L756.103,334.838L805.184,327.476L888.622,334.838Z" style="fill:rgb(79,131,163);fill-rule:nonzero;"/>
                <path d="M781.324,406.784L717.06,391.446L683.571,406.784L719.776,399.422L781.324,406.784Z" style="fill:rgb(79,131,163);fill-rule:nonzero;"/>
                <path d="M714.385,349.563L627.266,334.224L581.865,349.563L630.947,342.2L714.385,349.563Z" style="fill:rgb(79,131,163);fill-rule:nonzero;"/>
                <path d="M607.087,416.508L542.823,401.17L509.334,416.508L545.539,409.146L607.087,416.508Z" style="fill:rgb(79,131,163);fill-rule:nonzero;"/>
                <path d="M479,355.833L547,361.832L479,349.86L479,355.833Z" style="fill:rgb(79,131,163);fill-rule:nonzero;"/>
            </g>
            <g transform="matrix(1,0,0,1,-479.63,0)">
                <path d="M894.48,361.832L943.562,354.471L961,356.009L961,350.212L939.881,346.494L894.48,361.832Z" style="fill:rgb(79,131,163);fill-rule:nonzero;"/>
                <path d="M932.703,422.778L868.439,407.44L834.949,422.778L871.154,415.416L932.703,422.778Z" style="fill:rgb(79,131,163);fill-rule:nonzero;"/>
                <path d="M888.622,334.838L801.504,319.5L756.103,334.838L805.184,327.476L888.622,334.838Z" style="fill:rgb(79,131,163);fill-rule:nonzero;"/>
                <path d="M781.324,406.784L717.06,391.446L683.571,406.784L719.776,399.422L781.324,406.784Z" style="fill:rgb(79,131,163);fill-rule:nonzero;"/>
                <path d="M714.385,349.563L627.266,334.224L581.865,349.563L630.947,342.2L714.385,349.563Z" style="fill:rgb(79,131,163);fill-rule:nonzero;"/>
            </g>
        </g>
        <g transform="matrix(1.5693,0,0,1.5748,304.708,268.697)">
            <path d="M390.436,12.301L314.93,5.715L311.326,11.666L234.266,3.38L228.366,12.39L165.511,5.395L162.729,10.09L111.5,3.093L111.5,31.5L417.57,31.5L417.57,3.11L395.311,0L390.436,12.301Z" style="fill:rgb(54,99,135);fill-rule:nonzero;"/>
        </g>
        <g transform="matrix(1.5693,0,0,1.5748,-175.607,268.697)">
            <path d="M390.436,12.301L314.93,5.715L311.326,11.666L234.266,3.38L228.366,12.39L165.511,5.395L162.729,10.09L111.5,3.093L111.5,31.5L417.57,31.5L417.57,3.11L395.311,0L390.436,12.301Z" style="fill:rgb(54,99,135);fill-rule:nonzero;"/>
        </g>
        <g transform="matrix(1.5693,0,0,1.5748,785.023,268.697)">
            <path d="M390.436,12.301L314.93,5.715L311.326,11.666L234.266,3.38L228.366,12.39L165.511,5.395L162.729,10.09L111.5,3.093L111.5,31.5L417.57,31.5L417.57,3.11L395.311,0L390.436,12.301Z" style="fill:rgb(54,99,135);fill-rule:nonzero;"/>
        </g>
        <g transform="matrix(1.5693,0,0,1.5748,1265.34,268.697)">
            <path d="M390.436,12.301L314.93,5.715L311.326,11.666L234.266,3.38L228.366,12.39L165.511,5.395L162.729,10.09L111.5,3.093L111.5,31.5L417.57,31.5L417.57,3.11L395.311,0L390.436,12.301Z" style="fill:rgb(54,99,135);fill-rule:nonzero;"/>
        </g>
        <g transform="matrix(1,0,0,1,960.63,-98.2422)">
            <g transform="matrix(1.5748,0,0,1.5748,-0.629921,369.871)">
                <path d="M278.936,12.301L203.43,5.715L199.826,11.666L122.766,3.38L116.866,12.39L54.011,5.395L51.229,10.09L0,3.103L0,132.316L306.07,132.316L306.07,3.11L283.811,0L278.936,12.301Z" style="fill:rgb(54,99,135);fill-rule:nonzero;"/>
            </g>
            <g transform="matrix(1.5748,0,0,1.5748,-0.629921,369.871)">
                <path d="M263.83,57.28L294.997,52.605L306.07,53.582L306.07,49.901L292.66,47.54L263.83,57.28Z" style="fill:rgb(79,131,163);fill-rule:nonzero;"/>
            </g>
            <g transform="matrix(1.5748,0,0,1.5748,-0.629921,369.871)">
                <path d="M288.102,95.98L247.294,86.241L226.028,95.98L249.018,91.305L288.102,95.98Z" style="fill:rgb(79,131,163);fill-rule:nonzero;"/>
            </g>
            <g transform="matrix(1.5748,0,0,1.5748,-0.629921,369.871)">
                <path d="M260.11,40.138L204.79,30.399L175.96,40.138L207.127,35.464L260.11,40.138Z" style="fill:rgb(79,131,163);fill-rule:nonzero;"/>
            </g>
            <g transform="matrix(1.5748,0,0,1.5748,-0.629921,369.871)">
                <path d="M191.976,85.824L151.168,76.085L129.903,85.824L152.893,81.149L191.976,85.824Z" style="fill:rgb(79,131,163);fill-rule:nonzero;"/>
            </g>
            <g transform="matrix(1.5748,0,0,1.5748,-0.629921,369.871)">
                <path d="M149.47,49.489L94.149,39.749L65.319,49.489L96.486,44.813L149.47,49.489Z" style="fill:rgb(79,131,163);fill-rule:nonzero;"/>
            </g>
            <g transform="matrix(1.5748,0,0,1.5748,-0.629921,369.871)">
                <path d="M81.335,91.999L40.528,82.259L19.262,91.999L42.252,87.324L81.335,91.999Z" style="fill:rgb(79,131,163);fill-rule:nonzero;"/>
            </g>
            <g transform="matrix(1.5748,0,0,1.5748,-0.629921,369.871)">
                <path d="M0,53.47L43.18,57.28L0,49.677L0,53.47Z" style="fill:rgb(79,131,163);fill-rule:nonzero;"/>
            </g>
        </g>
        <g transform="matrix(1,0,0,1,1439.26,-98.2422)">
            <g transform="matrix(1.5748,0,0,1.5748,-0.629921,369.871)">
                <path d="M278.936,12.301L203.43,5.715L199.826,11.666L122.766,3.38L116.866,12.39L54.011,5.395L51.229,10.09L0,3.103L0,132.316L306.07,132.316L306.07,3.11L283.811,0L278.936,12.301Z" style="fill:rgb(54,99,135);fill-rule:nonzero;"/>
            </g>
            <g transform="matrix(1.5748,0,0,1.5748,-0.629921,369.871)">
                <path d="M263.83,57.28L294.997,52.605L306.07,53.582L306.07,49.901L292.66,47.54L263.83,57.28Z" style="fill:rgb(79,131,163);fill-rule:nonzero;"/>
            </g>
            <g transform="matrix(1.5748,0,0,1.5748,-0.629921,369.871)">
                <path d="M288.102,95.98L247.294,86.241L226.028,95.98L249.018,91.305L288.102,95.98Z" style="fill:rgb(79,131,163);fill-rule:nonzero;"/>
            </g>
            <g transform="matrix(1.5748,0,0,1.5748,-0.629921,369.871)">
                <path d="M260.11,40.138L204.79,30.399L175.96,40.138L207.127,35.464L260.11,40.138Z" style="fill:rgb(79,131,163);fill-rule:nonzero;"/>
            </g>
            <g transform="matrix(1.5748,0,0,1.5748,-0.629921,369.871)">
                <path d="M191.976,85.824L151.168,76.085L129.903,85.824L152.893,81.149L191.976,85.824Z" style="fill:rgb(79,131,163);fill-rule:nonzero;"/>
            </g>
            <g transform="matrix(1.5748,0,0,1.5748,-0.629921,369.871)">
                <path d="M149.47,49.489L94.149,39.749L65.319,49.489L96.486,44.813L149.47,49.489Z" style="fill:rgb(79,131,163);fill-rule:nonzero;"/>
            </g>
            <g transform="matrix(1.5748,0,0,1.5748,-0.629921,369.871)">
                <path d="M81.335,91.999L40.528,82.259L19.262,91.999L42.252,87.324L81.335,91.999Z" style="fill:rgb(79,131,163);fill-rule:nonzero;"/>
            </g>
            <g transform="matrix(1.5748,0,0,1.5748,-0.629921,369.871)">
                <path d="M0,53.47L43.18,57.28L0,49.677L0,53.47Z" style="fill:rgb(79,131,163);fill-rule:nonzero;"/>
            </g>
        </g>
        <g transform="matrix(1,0,0,1,1921.26,-98.2422)">
            <g transform="matrix(1.5748,0,0,1.5748,-0.629921,369.871)">
                <path d="M278.936,12.301L203.43,5.715L199.826,11.666L122.766,3.38L116.866,12.39L54.011,5.395L51.229,10.09L0,3.103L0,132.316L306.07,132.316L306.07,3.11L283.811,0L278.936,12.301Z" style="fill:rgb(54,99,135);fill-rule:nonzero;"/>
            </g>
            <g transform="matrix(1.5748,0,0,1.5748,-0.629921,369.871)">
                <path d="M263.83,57.28L294.997,52.605L306.07,53.582L306.07,49.901L292.66,47.54L263.83,57.28Z" style="fill:rgb(79,131,163);fill-rule:nonzero;"/>
            </g>
            <g transform="matrix(1.5748,0,0,1.5748,-0.629921,369.871)">
                <path d="M288.102,95.98L247.294,86.241L226.028,95.98L249.018,91.305L288.102,95.98Z" style="fill:rgb(79,131,163);fill-rule:nonzero;"/>
            </g>
            <g transform="matrix(1.5748,0,0,1.5748,-0.629921,369.871)">
                <path d="M260.11,40.138L204.79,30.399L175.96,40.138L207.127,35.464L260.11,40.138Z" style="fill:rgb(79,131,163);fill-rule:nonzero;"/>
            </g>
            <g transform="matrix(1.5748,0,0,1.5748,-0.629921,369.871)">
                <path d="M191.976,85.824L151.168,76.085L129.903,85.824L152.893,81.149L191.976,85.824Z" style="fill:rgb(79,131,163);fill-rule:nonzero;"/>
            </g>
            <g transform="matrix(1.5748,0,0,1.5748,-0.629921,369.871)">
                <path d="M149.47,49.489L94.149,39.749L65.319,49.489L96.486,44.813L149.47,49.489Z" style="fill:rgb(79,131,163);fill-rule:nonzero;"/>
            </g>
            <g transform="matrix(1.5748,0,0,1.5748,-0.629921,369.871)">
                <path d="M81.335,91.999L40.528,82.259L19.262,91.999L42.252,87.324L81.335,91.999Z" style="fill:rgb(79,131,163);fill-rule:nonzero;"/>
            </g>
            <g transform="matrix(1.5748,0,0,1.5748,-0.629921,369.871)">
                <path d="M0,53.47L43.18,57.28L0,49.677L0,53.47Z" style="fill:rgb(79,131,163);fill-rule:nonzero;"/>
            </g>
        </g>
        <g transform="matrix(1,0,0,1,2401.57,-98.2422)">
            <g transform="matrix(1.5748,0,0,1.5748,-0.629921,369.871)">
                <path d="M278.936,12.301L203.43,5.715L199.826,11.666L122.766,3.38L116.866,12.39L54.011,5.395L51.229,10.09L0,3.103L0,132.316L306.07,132.316L306.07,3.11L283.811,0L278.936,12.301Z" style="fill:rgb(54,99,135);fill-rule:nonzero;"/>
            </g>
            <g transform="matrix(1.5748,0,0,1.5748,-0.629921,369.871)">
                <path d="M263.83,57.28L294.997,52.605L306.07,53.582L306.07,49.901L292.66,47.54L263.83,57.28Z" style="fill:rgb(79,131,163);fill-rule:nonzero;"/>
            </g>
            <g transform="matrix(1.5748,0,0,1.5748,-0.629921,369.871)">
                <path d="M288.102,95.98L247.294,86.241L226.028,95.98L249.018,91.305L288.102,95.98Z" style="fill:rgb(79,131,163);fill-rule:nonzero;"/>
            </g>
            <g transform="matrix(1.5748,0,0,1.5748,-0.629921,369.871)">
                <path d="M260.11,40.138L204.79,30.399L175.96,40.138L207.127,35.464L260.11,40.138Z" style="fill:rgb(79,131,163);fill-rule:nonzero;"/>
            </g>
            <g transform="matrix(1.5748,0,0,1.5748,-0.629921,369.871)">
                <path d="M191.976,85.824L151.168,76.085L129.903,85.824L152.893,81.149L191.976,85.824Z" style="fill:rgb(79,131,163);fill-rule:nonzero;"/>
            </g>
            <g transform="matrix(1.5748,0,0,1.5748,-0.629921,369.871)">
                <path d="M149.47,49.489L94.149,39.749L65.319,49.489L96.486,44.813L149.47,49.489Z" style="fill:rgb(79,131,163);fill-rule:nonzero;"/>
            </g>
            <g transform="matrix(1.5748,0,0,1.5748,-0.629921,369.871)">
                <path d="M81.335,91.999L40.528,82.259L19.262,91.999L42.252,87.324L81.335,91.999Z" style="fill:rgb(79,131,163);fill-rule:nonzero;"/>
            </g>
            <g transform="matrix(1.5748,0,0,1.5748,-0.629921,369.871)">
                <path d="M0,53.47L43.18,57.28L0,49.677L0,53.47Z" style="fill:rgb(79,131,163);fill-rule:nonzero;"/>
            </g>
        </g>
        <g>
            <g transform="matrix(1.37767,0,0,1.5748,-0.629921,-307.402)">
                <rect x="0" y="268.621" width="915" height="22.165" style="fill:rgb(53,45,39);"/>
            </g>
            <g transform="matrix(1.5748,0,0,1.5748,1003.52,-191.364)">
                <g>
                    <path d="M135.5,1L260.5,137" style="fill:none;fill-rule:nonzero;stroke:rgb(245,243,233);stroke-width:1px;"/>
                    <g transform="matrix(0.870015,0.493025,-0.493025,0.870015,36.9217,-47.0664)">
                        <rect x="107.721" y="46.488" width="3" height="40" style="fill:rgb(42,43,42);"/>
                    </g>
                    <g transform="matrix(0.870015,0.493025,-0.493025,0.870015,17.5759,-66.6644)">
                        <rect x="135.215" y="0" width="1" height="54" style="fill:rgb(42,43,42);"/>
                    </g>
                </g>
                <g transform="matrix(-3.29412,0,0,2.97952,3919.47,187.933)">
                    <g transform="matrix(0.372734,0,0,0.372734,1156.58,-53.9035)">
                        <path d="M35.813,146.348L34.917,103.792L34.417,76.459L48.26,79.053L44.25,104.959L43.417,145.792L35.813,146.348Z" style="fill:rgb(35,76,107);fill-rule:nonzero;"/>
                    </g>
                    <g transform="matrix(0.372734,0,0,0.372734,1156.58,-53.9035)">
                        <path d="M28.901,68.915L20.418,102.625L20.1,148.401L28.167,147.21L30.25,103.459L48.25,79.126L49.802,66.318L28.901,68.915Z" style="fill:rgb(54,99,135);fill-rule:nonzero;"/>
                    </g>
                    <g transform="matrix(0.372734,0,0,0.372734,1156.58,-53.9035)">
                        <path d="M43.499,145.73L41.885,151.952L25.392,152.424L23.675,147.882L35.833,145.294L43.499,145.73Z" style="fill:rgb(102,90,75);fill-rule:nonzero;"/>
                    </g>
                    <g transform="matrix(0.372734,0,0,0.372734,1156.58,-53.9035)">
                        <path d="M8.42,149.084L10.136,153.625L26.629,153.155L28.243,146.932L20.184,146.496L8.42,149.084Z" style="fill:rgb(152,138,116);fill-rule:nonzero;"/>
                    </g>
                </g>
                <g>
                    <path d="M52.768,51.906L52.051,44.593L44.928,43.418L43.082,51.489L52.768,51.906Z" style="fill:rgb(85,63,55);fill-rule:nonzero;"/>
                    <path d="M43.143,51.409L48.433,106.949L75.162,106.845L65.688,61.903L53.253,51.772L43.143,51.409Z" style="fill:rgb(224,206,168);fill-rule:nonzero;"/>
                    <path d="M72.34,76.385L92.557,63.052L96.902,65.312L72.905,84.014L49.129,65.184L53.579,58.956L72.34,76.385Z" style="fill:rgb(115,90,76);fill-rule:nonzero;"/>
                    <path d="M43.49,55.822L51.161,69.083L59.393,62.488L53.929,56.502" style="fill:rgb(206,173,128);fill-rule:nonzero;"/>
                    <path d="M53.753,59.616L65.7,61.973L57.862,51.256L43.216,51.4L43.545,55.671L53.753,59.616Z" style="fill:rgb(206,173,128);fill-rule:nonzero;"/>
                    <path d="M51.911,45.761L58.76,47.044L60.148,39.894L62.642,39.719L60.562,29.058L41.759,32.679L44.859,44.577" style="fill:rgb(115,90,76);fill-rule:nonzero;"/>
                    <path d="M90.702,64.201L100.904,56.663L106.319,57.915L102.927,65.346L95.047,66.461L90.702,64.201Z" style="fill:rgb(115,90,76);fill-rule:nonzero;"/>
                    <path d="M92.096,63.453L97.827,59.029L95.359,57.515L92.096,63.453Z" style="fill:rgb(115,90,76);fill-rule:nonzero;"/>
                    <path d="M49.621,35.127L46.453,34.525L47.423,40.439L49.775,40.283L49.621,35.127Z" style="fill:rgb(115,90,76);fill-rule:nonzero;"/>
                    <path d="M44.666,44.745L41.682,33.193L49.771,31.801L50.328,35.036L46.532,34.586L47.697,40.333L51.208,40.244L52.347,46.353L44.666,44.745Z" style="fill:rgb(85,63,55);fill-rule:nonzero;"/>
                    <path d="M58.926,25.241L71.144,26.916L68.378,31.151L56.081,29.989L58.926,25.241Z" style="fill:rgb(245,243,233);fill-rule:nonzero;"/>
                    <path d="M43.009,23.319L41.664,33.051L59.602,29.971L61.227,25.81L55.803,21.614L43.009,23.319Z" style="fill:rgb(245,243,233);fill-rule:nonzero;"/>
                    <path d="M43.01,23.318L41.52,33.014L49.683,31.668L43.01,23.318Z" style="fill:rgb(216,211,203);fill-rule:nonzero;"/>
                    <path d="M56.63,48.727L50.879,31.315L41.519,33.014L38.279,51.069L56.63,48.727Z" style="fill:rgb(216,211,203);fill-rule:nonzero;"/>
                </g>
                <g>
                    <path d="M256.896,139.37L245.125,131.442L241.667,119.888L244.649,109.482L254.305,114.374L260.755,124.623L259.224,138.355L266.141,139.691L267.362,144.305L260.693,144.443L256.055,149.238L253.504,145.205L256.896,139.37Z" style="fill:rgb(252,209,87);fill-rule:nonzero;"/>
                    <path d="M254.684,128.855L256.088,117.555L260.755,124.623L259.224,138.355L266.141,139.691L267.362,144.305L260.693,144.443L256.388,149.093L256.896,139.37L248.571,133.898L254.684,128.855Z" style="fill:rgb(248,187,28);fill-rule:nonzero;"/>
                </g>
            </g>
            <g transform="matrix(1.5748,0,0,2.07891,-0.629921,-83.9721)">
                <rect x="74.542" y="44.029" width="26.109" height="137.544" style="fill:rgb(100,88,73);"/>
            </g>
            <g transform="matrix(1.5748,0,0,2.07891,259.274,-83.9721)">
                <rect x="74.542" y="44.029" width="26.109" height="137.544" style="fill:rgb(100,88,73);"/>
            </g>
            <g transform="matrix(1.5748,0,0,2.07891,779.081,-83.9721)">
                <rect x="74.542" y="44.029" width="26.109" height="137.544" style="fill:rgb(100,88,73);"/>
            </g>
            <g transform="matrix(1.5748,0,0,2.07891,519.177,-83.9721)">
                <rect x="74.542" y="44.029" width="26.109" height="137.544" style="fill:rgb(100,88,73);"/>
            </g>
            <g transform="matrix(1.5748,0,0,2.07891,1038.98,-83.9721)">
                <rect x="74.542" y="44.029" width="26.109" height="137.544" style="fill:rgb(100,88,73);"/>
            </g>
            <g>
                <g transform="matrix(0.635966,0,0,1.25272,976.042,-71.5431)">
                    <path d="M51.18,150L99.773,106L135.5,106L123.5,150L51.18,150Z" style="fill:rgb(103,154,69);fill-rule:nonzero;"/>
                </g>
                <g transform="matrix(0.635966,0,0,1.25272,976.042,-71.5431)">
                    <path d="M51.18,150L99.861,106L2.5,106L14.5,150L51.18,150Z" style="fill:rgb(137,186,106);fill-rule:nonzero;"/>
                </g>
                <g transform="matrix(0.635966,0,0,1.25272,976.042,-71.5431)">
                    <path d="M2,102L136,102L138,108L0,108L2,102Z" style="fill:rgb(245,243,233);fill-rule:nonzero;"/>
                </g>
            </g>
        </g>
    </g>
</svg>
