<?xml version="1.0" encoding="UTF-8" standalone="no"?>
<!DOCTYPE svg PUBLIC "-//W3C//DTD SVG 1.1//EN" "http://www.w3.org/Graphics/SVG/1.1/DTD/svg11.dtd">
<svg width="100%" height="100%" viewBox="0 0 1830 500" version="1.1" xmlns="http://www.w3.org/2000/svg" xmlns:xlink="http://www.w3.org/1999/xlink" xml:space="preserve" xmlns:serif="http://www.serif.com/" style="fill-rule:evenodd;clip-rule:evenodd;">
    <g id="fishing-boat-left" transform="matrix(0.635,0,0,0.635,0.4,195.2)">
        <g id="fishing-boat" transform="matrix(-1.5748,0,0,1.5748,2079.39,59.1963)">
            <path d="M135.5,1L260.5,137" style="fill:none;fill-rule:nonzero;stroke:rgb(245,243,233);stroke-width:1px;"/>
            <g transform="matrix(0.870015,0.493025,-0.493025,0.870015,36.9217,-47.0664)">
                <rect x="107.721" y="46.488" width="3" height="40" style="fill:rgb(42,43,42);"/>
            </g>
            <g transform="matrix(0.870015,0.493025,-0.493025,0.870015,17.5759,-66.6644)">
                <rect x="135.215" y="0" width="1" height="54" style="fill:rgb(42,43,42);"/>
            </g>
            <path d="M52.768,51.906L52.051,44.593L44.928,43.418L43.082,51.489L52.768,51.906Z" style="fill:rgb(85,63,55);fill-rule:nonzero;"/>
            <path d="M43.143,51.409L48.433,106.949L75.162,106.845L65.688,61.903L53.253,51.772L43.143,51.409Z" style="fill:rgb(224,206,168);fill-rule:nonzero;"/>
            <path d="M72.34,76.385L92.557,63.052L96.902,65.312L72.905,84.014L49.129,65.184L53.579,58.956L72.34,76.385Z" style="fill:rgb(115,90,76);fill-rule:nonzero;"/>
            <path d="M43.49,55.822L51.161,69.083L59.393,62.488L53.929,56.502" style="fill:rgb(206,173,128);fill-rule:nonzero;"/>
            <path d="M53.753,59.616L65.7,61.973L57.862,51.256L43.216,51.4L43.545,55.671L53.753,59.616Z" style="fill:rgb(206,173,128);fill-rule:nonzero;"/>
            <path d="M51.911,45.761L58.76,47.044L60.148,39.894L62.642,39.719L60.562,29.058L41.759,32.679L44.859,44.577" style="fill:rgb(115,90,76);fill-rule:nonzero;"/>
            <path d="M90.702,64.201L100.904,56.663L106.319,57.915L102.927,65.346L95.047,66.461L90.702,64.201Z" style="fill:rgb(115,90,76);fill-rule:nonzero;"/>
            <path d="M92.096,63.453L97.827,59.029L95.359,57.515L92.096,63.453Z" style="fill:rgb(115,90,76);fill-rule:nonzero;"/>
            <path d="M49.621,35.127L46.453,34.525L47.423,40.439L49.775,40.283L49.621,35.127Z" style="fill:rgb(115,90,76);fill-rule:nonzero;"/>
            <path d="M44.666,44.745L41.682,33.193L49.771,31.801L50.328,35.036L46.532,34.586L47.697,40.333L51.208,40.244L52.347,46.353L44.666,44.745Z" style="fill:rgb(85,63,55);fill-rule:nonzero;"/>
            <path d="M58.926,25.241L71.144,26.916L68.378,31.151L56.081,29.989L58.926,25.241Z" style="fill:rgb(245,243,233);fill-rule:nonzero;"/>
            <path d="M43.009,23.319L41.664,33.051L59.602,29.971L61.227,25.81L55.803,21.614L43.009,23.319Z" style="fill:rgb(245,243,233);fill-rule:nonzero;"/>
            <path d="M43.01,23.318L41.52,33.014L49.683,31.668L43.01,23.318Z" style="fill:rgb(216,211,203);fill-rule:nonzero;"/>
            <path d="M56.63,48.727L50.879,31.315L41.519,33.014L38.279,51.069L56.63,48.727Z" style="fill:rgb(216,211,203);fill-rule:nonzero;"/>
            <path d="M69,150L69,106L135.5,106L123.5,150L69,150Z" style="fill:rgb(103,154,69);fill-rule:nonzero;"/>
            <path d="M69,150L69,106L2.5,106L14.5,150L69,150Z" style="fill:rgb(137,186,106);fill-rule:nonzero;"/>
            <path d="M2,102L136,102L138,108L0,108L2,102Z" style="fill:rgb(245,243,233);fill-rule:nonzero;"/>
            <path d="M256.896,139.37L245.125,131.442L241.667,119.888L244.649,109.482L254.305,114.374L260.755,124.623L259.224,138.355L266.141,139.691L267.362,144.305L260.693,144.443L256.055,149.238L253.504,145.205L256.896,139.37Z" style="fill:rgb(252,209,87);fill-rule:nonzero;"/>
            <path d="M254.684,128.855L256.088,117.555L260.755,124.623L259.224,138.355L266.141,139.691L267.362,144.305L260.693,144.443L256.388,149.093L256.896,139.37L248.571,133.898L254.684,128.855Z" style="fill:rgb(248,187,28);fill-rule:nonzero;"/>
            <path d="M271,131L273,144L276,134L284.5,127L271,131Z" style="fill:rgb(54,99,135);fill-rule:nonzero;"/>
            <path d="M237.73,130.004L231.502,134.303L237.432,133.346L243.19,135.989L237.73,130.004Z" style="fill:rgb(54,99,135);fill-rule:nonzero;"/>
            <path d="M276.192,138.632L275.28,143.833L277.869,140.743L282.929,139.844L276.192,138.632Z" style="fill:rgb(54,99,135);fill-rule:nonzero;"/>
        </g>
        <g id="water" transform="matrix(-1,0,0,1,2880.63,0)">
            <g id="water-repeat">
                <g id="water1" serif:id="water" transform="matrix(0.996504,0,0,1,2401.57,-98.2422)">
                    <g transform="matrix(1.5748,0,0,1.5748,-0.629921,369.871)">
                        <path d="M278.936,12.301L203.43,5.715L199.826,11.666L122.766,3.38L116.866,12.39L54.011,5.395L51.229,10.09L0,3.103L0,132.316L306.07,132.316L306.07,3.11L283.811,0L278.936,12.301Z" style="fill:rgb(54,99,135);fill-rule:nonzero;"/>
                    </g>
                    <g>
                        <g transform="matrix(1.5748,0,0,1.5748,-0.629921,369.871)">
                            <path d="M263.83,57.28L294.997,52.605L306.07,53.616L306.07,49.916L292.66,47.54L263.83,57.28Z" style="fill:rgb(79,131,163);fill-rule:nonzero;"/>
                        </g>
                        <g transform="matrix(1.5748,0,0,1.5748,-0.629921,369.871)">
                            <path d="M288.102,95.98L247.294,86.241L226.028,95.98L249.018,91.305L288.102,95.98Z" style="fill:rgb(79,131,163);fill-rule:nonzero;"/>
                        </g>
                        <g transform="matrix(1.5748,0,0,1.5748,-0.629921,369.871)">
                            <path d="M260.11,40.138L204.79,30.399L175.96,40.138L207.127,35.464L260.11,40.138Z" style="fill:rgb(79,131,163);fill-rule:nonzero;"/>
                        </g>
                        <g transform="matrix(1.5748,0,0,1.5748,-0.629921,369.871)">
                            <path d="M191.976,85.824L151.168,76.085L129.903,85.824L152.893,81.149L191.976,85.824Z" style="fill:rgb(79,131,163);fill-rule:nonzero;"/>
                        </g>
                        <g transform="matrix(1.5748,0,0,1.5748,-0.629921,369.871)">
                            <path d="M149.47,49.489L94.149,39.749L65.319,49.489L96.486,44.813L149.47,49.489Z" style="fill:rgb(79,131,163);fill-rule:nonzero;"/>
                        </g>
                        <g transform="matrix(1.5748,0,0,1.5748,-0.629921,369.871)">
                            <path d="M81.335,91.999L40.528,82.259L19.262,91.999L42.252,87.324L81.335,91.999Z" style="fill:rgb(79,131,163);fill-rule:nonzero;"/>
                        </g>
                        <g transform="matrix(1.5748,0,0,1.5748,-0.629921,370.246)">
                            <path d="M0,53.377L43.18,57.28L0,49.677L0,53.377Z" style="fill:rgb(79,131,163);fill-rule:nonzero;"/>
                        </g>
                    </g>
                </g>
                <g id="water2" serif:id="water" transform="matrix(0.996504,0,0,1,1921.26,-98.2422)">
                    <g transform="matrix(1.5748,0,0,1.5748,-0.629921,369.871)">
                        <path d="M278.936,12.301L203.43,5.715L199.826,11.666L122.766,3.38L116.866,12.39L54.011,5.395L51.229,10.09L0,3.103L0,132.316L306.07,132.316L306.07,3.11L283.811,0L278.936,12.301Z" style="fill:rgb(54,99,135);fill-rule:nonzero;"/>
                    </g>
                    <g>
                        <g transform="matrix(1.5748,0,0,1.5748,-0.629921,369.871)">
                            <path d="M263.83,57.28L294.997,52.605L306.07,53.616L306.07,49.916L292.66,47.54L263.83,57.28Z" style="fill:rgb(79,131,163);fill-rule:nonzero;"/>
                        </g>
                        <g transform="matrix(1.5748,0,0,1.5748,-0.629921,369.871)">
                            <path d="M288.102,95.98L247.294,86.241L226.028,95.98L249.018,91.305L288.102,95.98Z" style="fill:rgb(79,131,163);fill-rule:nonzero;"/>
                        </g>
                        <g transform="matrix(1.5748,0,0,1.5748,-0.629921,369.871)">
                            <path d="M260.11,40.138L204.79,30.399L175.96,40.138L207.127,35.464L260.11,40.138Z" style="fill:rgb(79,131,163);fill-rule:nonzero;"/>
                        </g>
                        <g transform="matrix(1.5748,0,0,1.5748,-0.629921,369.871)">
                            <path d="M191.976,85.824L151.168,76.085L129.903,85.824L152.893,81.149L191.976,85.824Z" style="fill:rgb(79,131,163);fill-rule:nonzero;"/>
                        </g>
                        <g transform="matrix(1.5748,0,0,1.5748,-0.629921,369.871)">
                            <path d="M149.47,49.489L94.149,39.749L65.319,49.489L96.486,44.813L149.47,49.489Z" style="fill:rgb(79,131,163);fill-rule:nonzero;"/>
                        </g>
                        <g transform="matrix(1.5748,0,0,1.5748,-0.629921,369.871)">
                            <path d="M81.335,91.999L40.528,82.259L19.262,91.999L42.252,87.324L81.335,91.999Z" style="fill:rgb(79,131,163);fill-rule:nonzero;"/>
                        </g>
                        <g transform="matrix(1.5748,0,0,1.5748,-0.629921,370.246)">
                            <path d="M0,53.377L43.18,57.28L0,49.677L0,53.377Z" style="fill:rgb(79,131,163);fill-rule:nonzero;"/>
                        </g>
                    </g>
                </g>
                <g id="water3" serif:id="water" transform="matrix(0.996504,0,0,1,1440.94,-98.2422)">
                    <g transform="matrix(1.5748,0,0,1.5748,-0.629921,369.871)">
                        <path d="M278.936,12.301L203.43,5.715L199.826,11.666L122.766,3.38L116.866,12.39L54.011,5.395L51.229,10.09L0,3.103L0,132.316L306.07,132.316L306.07,3.11L283.811,0L278.936,12.301Z" style="fill:rgb(54,99,135);fill-rule:nonzero;"/>
                    </g>
                    <g>
                        <g transform="matrix(1.5748,0,0,1.5748,-0.629921,369.871)">
                            <path d="M263.83,57.28L294.997,52.605L306.07,53.616L306.07,49.916L292.66,47.54L263.83,57.28Z" style="fill:rgb(79,131,163);fill-rule:nonzero;"/>
                        </g>
                        <g transform="matrix(1.5748,0,0,1.5748,-0.629921,369.871)">
                            <path d="M288.102,95.98L247.294,86.241L226.028,95.98L249.018,91.305L288.102,95.98Z" style="fill:rgb(79,131,163);fill-rule:nonzero;"/>
                        </g>
                        <g transform="matrix(1.5748,0,0,1.5748,-0.629921,369.871)">
                            <path d="M260.11,40.138L204.79,30.399L175.96,40.138L207.127,35.464L260.11,40.138Z" style="fill:rgb(79,131,163);fill-rule:nonzero;"/>
                        </g>
                        <g transform="matrix(1.5748,0,0,1.5748,-0.629921,369.871)">
                            <path d="M191.976,85.824L151.168,76.085L129.903,85.824L152.893,81.149L191.976,85.824Z" style="fill:rgb(79,131,163);fill-rule:nonzero;"/>
                        </g>
                        <g transform="matrix(1.5748,0,0,1.5748,-0.629921,369.871)">
                            <path d="M149.47,49.489L94.149,39.749L65.319,49.489L96.486,44.813L149.47,49.489Z" style="fill:rgb(79,131,163);fill-rule:nonzero;"/>
                        </g>
                        <g transform="matrix(1.5748,0,0,1.5748,-0.629921,369.871)">
                            <path d="M81.335,91.999L40.528,82.259L19.262,91.999L42.252,87.324L81.335,91.999Z" style="fill:rgb(79,131,163);fill-rule:nonzero;"/>
                        </g>
                        <g transform="matrix(1.5748,0,0,1.5748,-0.629921,370.246)">
                            <path d="M0,53.377L43.18,57.28L0,49.677L0,53.377Z" style="fill:rgb(79,131,163);fill-rule:nonzero;"/>
                        </g>
                    </g>
                </g>
                <g id="water4" serif:id="water" transform="matrix(0.996504,0,0,1,960.628,-98.2422)">
                    <g transform="matrix(1.5748,0,0,1.5748,-0.629921,369.871)">
                        <path d="M278.936,12.301L203.43,5.715L199.826,11.666L122.766,3.38L116.866,12.39L54.011,5.395L51.229,10.09L0,3.103L0,132.316L306.07,132.316L306.07,3.11L283.811,0L278.936,12.301Z" style="fill:rgb(54,99,135);fill-rule:nonzero;"/>
                    </g>
                    <g>
                        <g transform="matrix(1.5748,0,0,1.5748,-0.629921,369.871)">
                            <path d="M263.83,57.28L294.997,52.605L306.07,53.616L306.07,49.916L292.66,47.54L263.83,57.28Z" style="fill:rgb(79,131,163);fill-rule:nonzero;"/>
                        </g>
                        <g transform="matrix(1.5748,0,0,1.5748,-0.629921,369.871)">
                            <path d="M288.102,95.98L247.294,86.241L226.028,95.98L249.018,91.305L288.102,95.98Z" style="fill:rgb(79,131,163);fill-rule:nonzero;"/>
                        </g>
                        <g transform="matrix(1.5748,0,0,1.5748,-0.629921,369.871)">
                            <path d="M260.11,40.138L204.79,30.399L175.96,40.138L207.127,35.464L260.11,40.138Z" style="fill:rgb(79,131,163);fill-rule:nonzero;"/>
                        </g>
                        <g transform="matrix(1.5748,0,0,1.5748,-0.629921,369.871)">
                            <path d="M191.976,85.824L151.168,76.085L129.903,85.824L152.893,81.149L191.976,85.824Z" style="fill:rgb(79,131,163);fill-rule:nonzero;"/>
                        </g>
                        <g transform="matrix(1.5748,0,0,1.5748,-0.629921,369.871)">
                            <path d="M149.47,49.489L94.149,39.749L65.319,49.489L96.486,44.813L149.47,49.489Z" style="fill:rgb(79,131,163);fill-rule:nonzero;"/>
                        </g>
                        <g transform="matrix(1.5748,0,0,1.5748,-0.629921,369.871)">
                            <path d="M81.335,91.999L40.528,82.259L19.262,91.999L42.252,87.324L81.335,91.999Z" style="fill:rgb(79,131,163);fill-rule:nonzero;"/>
                        </g>
                        <g transform="matrix(1.5748,0,0,1.5748,-0.629921,370.246)">
                            <path d="M0,53.377L43.18,57.28L0,49.677L0,53.377Z" style="fill:rgb(79,131,163);fill-rule:nonzero;"/>
                        </g>
                    </g>
                </g>
                <g id="water5" serif:id="water" transform="matrix(0.996504,0,0,1,480.313,-98.2422)">
                    <g transform="matrix(1.5748,0,0,1.5748,-0.629921,369.871)">
                        <path d="M278.936,12.301L203.43,5.715L199.826,11.666L122.766,3.38L116.866,12.39L54.011,5.395L51.229,10.09L0,3.103L0,132.316L306.07,132.316L306.07,3.11L283.811,0L278.936,12.301Z" style="fill:rgb(54,99,135);fill-rule:nonzero;"/>
                    </g>
                    <g>
                        <g transform="matrix(1.5748,0,0,1.5748,-0.629921,369.871)">
                            <path d="M263.83,57.28L294.997,52.605L306.07,53.616L306.07,49.916L292.66,47.54L263.83,57.28Z" style="fill:rgb(79,131,163);fill-rule:nonzero;"/>
                        </g>
                        <g transform="matrix(1.5748,0,0,1.5748,-0.629921,369.871)">
                            <path d="M288.102,95.98L247.294,86.241L226.028,95.98L249.018,91.305L288.102,95.98Z" style="fill:rgb(79,131,163);fill-rule:nonzero;"/>
                        </g>
                        <g transform="matrix(1.5748,0,0,1.5748,-0.629921,369.871)">
                            <path d="M260.11,40.138L204.79,30.399L175.96,40.138L207.127,35.464L260.11,40.138Z" style="fill:rgb(79,131,163);fill-rule:nonzero;"/>
                        </g>
                        <g transform="matrix(1.5748,0,0,1.5748,-0.629921,369.871)">
                            <path d="M191.976,85.824L151.168,76.085L129.903,85.824L152.893,81.149L191.976,85.824Z" style="fill:rgb(79,131,163);fill-rule:nonzero;"/>
                        </g>
                        <g transform="matrix(1.5748,0,0,1.5748,-0.629921,369.871)">
                            <path d="M149.47,49.489L94.149,39.749L65.319,49.489L96.486,44.813L149.47,49.489Z" style="fill:rgb(79,131,163);fill-rule:nonzero;"/>
                        </g>
                        <g transform="matrix(1.5748,0,0,1.5748,-0.629921,369.871)">
                            <path d="M81.335,91.999L40.528,82.259L19.262,91.999L42.252,87.324L81.335,91.999Z" style="fill:rgb(79,131,163);fill-rule:nonzero;"/>
                        </g>
                        <g transform="matrix(1.5748,0,0,1.5748,-0.629921,370.246)">
                            <path d="M0,53.377L43.18,57.28L0,49.677L0,53.377Z" style="fill:rgb(79,131,163);fill-rule:nonzero;"/>
                        </g>
                    </g>
                </g>
            </g>
            <g id="water-edge" transform="matrix(-1,0,0,1,6242.83,7.95808e-13)">
                <g transform="matrix(-1.5693,0,0,1.5748,6243.46,271.628)">
                    <path d="M278.936,12.301L203.43,5.715L199.826,11.666L122.766,3.38L116.866,12.39L54.011,5.395L51.229,10.09L0,3.103L0,132.316L306.07,132.316L306.07,3.11L283.811,0L278.936,12.301Z" style="fill:rgb(54,99,135);fill-rule:nonzero;"/>
                </g>
                <g transform="matrix(-0.996504,0,0,1,6242.84,-98.2422)">
                    <g transform="matrix(1.5748,0,0,1.5748,-0.629921,369.871)">
                        <path d="M263.83,57.28L294.997,52.605L306.07,53.616L306.07,49.916L292.66,47.54L263.83,57.28Z" style="fill:rgb(79,131,163);fill-rule:nonzero;"/>
                    </g>
                    <g transform="matrix(1.5748,0,0,1.5748,-0.629921,369.871)">
                        <path d="M288.102,95.98L247.294,86.241L226.028,95.98L249.018,91.305L288.102,95.98Z" style="fill:rgb(79,131,163);fill-rule:nonzero;"/>
                    </g>
                    <g transform="matrix(1.5748,0,0,1.5748,-0.629921,369.871)">
                        <path d="M260.11,40.138L204.79,30.399L175.96,40.138L207.127,35.464L260.11,40.138Z" style="fill:rgb(79,131,163);fill-rule:nonzero;"/>
                    </g>
                    <g transform="matrix(1.5748,0,0,1.5748,-0.629921,369.871)">
                        <path d="M191.976,85.824L151.168,76.085L129.903,85.824L152.893,81.149L191.976,85.824Z" style="fill:rgb(79,131,163);fill-rule:nonzero;"/>
                    </g>
                    <g transform="matrix(1.5748,0,0,1.5748,-0.629921,369.871)">
                        <path d="M149.47,49.489L94.149,39.749L65.319,49.489L96.486,44.813L149.47,49.489Z" style="fill:rgb(79,131,163);fill-rule:nonzero;"/>
                    </g>
                </g>
            </g>
        </g>
    </g>
</svg>
