<?xml version="1.0" encoding="UTF-8" standalone="no"?>
<!DOCTYPE svg PUBLIC "-//W3C//DTD SVG 1.1//EN" "http://www.w3.org/Graphics/SVG/1.1/DTD/svg11.dtd">
<svg width="100%" height="100%" viewBox="0 0 1100 400" version="1.1" xmlns="http://www.w3.org/2000/svg" xmlns:xlink="http://www.w3.org/1999/xlink" xml:space="preserve" xmlns:serif="http://www.serif.com/" style="fill-rule:evenodd;clip-rule:evenodd;stroke-linejoin:round;stroke-miterlimit:2;">
    <g id="marsh-right" transform="matrix(0.370697,-1.06339e-18,-5.20597e-19,0.761536,720.007,160.769)">
        <g transform="matrix(2.69762,3.76688e-18,1.84413e-18,1.31314,-387.031,127.741)">
            <g transform="matrix(1,0,0,1,-23.5,-33)">
                <clipPath id="_clip1">
                    <rect x="0" y="0" width="47" height="66"/>
                </clipPath>
                <g clip-path="url(#_clip1)">
                    <path d="M6,21.569L6,64L12.067,64L15.101,9.5L22,8L33.5,0L12.067,2.5L6,21.569Z" style="fill:rgb(103,154,69);fill-rule:nonzero;"/>
                    <path d="M3,16L0,64L6.069,64L11,14.5L24.5,2.5L15,5.5L3,16Z" style="fill:rgb(137,186,106);fill-rule:nonzero;"/>
                    <path d="M18,25.702L18,65L24,65L27.5,23.224L34.5,17L46.5,13L30.5,14.5L18,25.702Z" style="fill:rgb(137,186,106);fill-rule:nonzero;"/>
                    <path d="M12,20L12,65L22,65L16,24.5L27,12.5L42.5,5L22,11L12,20Z" style="fill:rgb(246,241,225);fill-rule:nonzero;"/>
                    <path d="M6.5,38L9.458,66L14.398,65.29L12.916,36.548L23,25L34.5,18.5L15.5,24L6.5,38Z" style="fill:rgb(246,241,225);fill-rule:nonzero;"/>
                </g>
            </g>
        </g>
        <g transform="matrix(2.69762,3.76688e-18,1.84413e-18,1.31314,118.731,127.741)">
            <g transform="matrix(1,0,0,1,-23.5,-33)">
                <path d="M6,21.569L6,64L12.067,64L15.101,9.5L22,8L33.5,0L12.067,2.5L6,21.569Z" style="fill:rgb(103,154,69);fill-rule:nonzero;"/>
                <path d="M3,16L0,64L6.069,64L11,14.5L24.5,2.5L15,5.5L3,16Z" style="fill:rgb(137,186,106);fill-rule:nonzero;"/>
                <path d="M18,25.702L18,65L24,65L27.5,23.224L34.5,17L46.5,13L30.5,14.5L18,25.702Z" style="fill:rgb(137,186,106);fill-rule:nonzero;"/>
                <path d="M12,20L12,65L22,65L16,24.5L27,12.5L42.5,5L22,11L12,20Z" style="fill:rgb(246,241,225);fill-rule:nonzero;"/>
                <path d="M6.5,38L9.458,66L14.398,65.29L12.916,36.548L23,25L34.5,18.5L15.5,24L6.5,38Z" style="fill:rgb(246,241,225);fill-rule:nonzero;"/>
            </g>
        </g>
        <g transform="matrix(2.69762,3.76688e-18,1.84413e-18,1.31314,529.519,105.418)">
            <g transform="matrix(1,0,0,1,-46,-51)">
                <clipPath id="_clip2">
                    <rect x="0" y="0" width="92" height="102"/>
                </clipPath>
                <g clip-path="url(#_clip2)">
                    <path d="M0,56.5L9,95.5L58.5,95.5L53.5,56.5L68,17L38,24.5L48.5,1L18,17L0,56.5Z" style="fill:rgb(137,186,106);fill-rule:nonzero;"/>
                    <path d="M50,57L53.5,95L58.5,94L57,53.5L74,29.5L91.5,17.5L66,29.5L50,57Z" style="fill:rgb(224,206,168);fill-rule:nonzero;"/>
                    <path d="M31,35L31,95L37,95L40,21.5L73.5,9.5L75.5,4.5L40,7L31,35Z" style="fill:rgb(103,154,69);fill-rule:nonzero;"/>
                    <path d="M0,38L0,98L6,98L9,20L27.5,6.5L31.5,0L6,14.5L0,38Z" style="fill:rgb(103,154,69);fill-rule:nonzero;"/>
                    <path d="M35,39.5L39.5,95L49.5,95L40.5,38.5L54.5,14L89.5,2.5L46,12.5L35,39.5Z" style="fill:rgb(246,241,225);fill-rule:nonzero;"/>
                    <path d="M4,41.5L4,97L10,97L13.5,38L32.5,18.5L48,16.5L26,16.5L4,41.5Z" style="fill:rgb(246,241,225);fill-rule:nonzero;"/>
                    <path d="M4,75L4,94.5L11,94.5L8.5,78.5L22,47.5L39.5,33.5L18,46L4,75Z" style="fill:rgb(224,206,168);fill-rule:nonzero;"/>
                    <path d="M7,74L9.958,102L14.898,101.29L13.416,72.548L23.5,61L35,54.5L16,60L7,74Z" style="fill:rgb(246,241,225);fill-rule:nonzero;"/>
                </g>
            </g>
        </g>
        <g transform="matrix(2.69762,3.76688e-18,1.84413e-18,1.31314,-174.728,105.418)">
            <g transform="matrix(1,0,0,1,-46,-51)">
                <path d="M0,56.5L9,95.5L58.5,95.5L53.5,56.5L68,17L38,24.5L48.5,1L18,17L0,56.5Z" style="fill:rgb(137,186,106);fill-rule:nonzero;"/>
                <path d="M50,57L53.5,95L58.5,94L57,53.5L74,29.5L91.5,17.5L66,29.5L50,57Z" style="fill:rgb(224,206,168);fill-rule:nonzero;"/>
                <path d="M31,35L31,95L37,95L40,21.5L73.5,9.5L75.5,4.5L40,7L31,35Z" style="fill:rgb(103,154,69);fill-rule:nonzero;"/>
                <path d="M0,38L0,98L6,98L9,20L27.5,6.5L31.5,0L6,14.5L0,38Z" style="fill:rgb(103,154,69);fill-rule:nonzero;"/>
                <path d="M35,39.5L39.5,95L49.5,95L40.5,38.5L54.5,14L89.5,2.5L46,12.5L35,39.5Z" style="fill:rgb(246,241,225);fill-rule:nonzero;"/>
                <path d="M4,41.5L4,97L10,97L13.5,38L32.5,18.5L48,16.5L26,16.5L4,41.5Z" style="fill:rgb(246,241,225);fill-rule:nonzero;"/>
                <path d="M4,75L4,94.5L11,94.5L8.5,78.5L22,47.5L39.5,33.5L18,46L4,75Z" style="fill:rgb(224,206,168);fill-rule:nonzero;"/>
                <path d="M7,74L9.958,102L14.898,101.29L13.416,72.548L23.5,61L35,54.5L16,60L7,74Z" style="fill:rgb(246,241,225);fill-rule:nonzero;"/>
            </g>
        </g>
        <g transform="matrix(2.69762,3.76688e-18,1.84413e-18,1.31314,15.9924,104.761)">
            <g transform="matrix(1,0,0,1,-31,-50.5)">
                <clipPath id="_clip3">
                    <rect x="0" y="0" width="62" height="101"/>
                </clipPath>
                <g clip-path="url(#_clip3)">
                    <path d="M6,37.5L6,97.5L12,97.5L15,24L48.5,12L50.5,7L15,9.5L6,37.5Z" style="fill:rgb(224,206,168);fill-rule:nonzero;"/>
                    <path d="M1.5,26L0,97.5L6,97.5L10.5,23.5L43.5,0L26,4L1.5,26Z" style="fill:rgb(137,186,106);fill-rule:nonzero;"/>
                    <path d="M18,43L18,98.5L24,98.5L27.5,39.5L46.5,20L62,18L40,18L18,43Z" style="fill:rgb(137,186,106);fill-rule:nonzero;"/>
                    <path d="M11.5,39.5L11.5,98.5L21.5,98.5L18,39.5L38,17.5L61.5,6L30.5,15.5L11.5,39.5Z" style="fill:rgb(103,154,69);fill-rule:nonzero;"/>
                    <path d="M5.5,62.5L9,100.5L14,99.5L12.5,59L29.5,35L47,23L21.5,35L5.5,62.5Z" style="fill:rgb(224,206,168);fill-rule:nonzero;"/>
                </g>
            </g>
        </g>
        <g transform="matrix(2.69762,3.76688e-18,1.84413e-18,1.31314,801.411,104.761)">
            <g transform="matrix(1,0,0,1,-31,-50.5)">
                <path d="M6,37.5L6,97.5L12,97.5L15,24L48.5,12L50.5,7L15,9.5L6,37.5Z" style="fill:rgb(224,206,168);fill-rule:nonzero;"/>
                <path d="M1.5,26L0,97.5L6,97.5L10.5,23.5L43.5,0L26,4L1.5,26Z" style="fill:rgb(137,186,106);fill-rule:nonzero;"/>
                <path d="M18,43L18,98.5L24,98.5L27.5,39.5L46.5,20L62,18L40,18L18,43Z" style="fill:rgb(137,186,106);fill-rule:nonzero;"/>
                <path d="M11.5,39.5L11.5,98.5L21.5,98.5L18,39.5L38,17.5L61.5,6L30.5,15.5L11.5,39.5Z" style="fill:rgb(103,154,69);fill-rule:nonzero;"/>
                <path d="M5.5,62.5L9,100.5L14,99.5L12.5,59L29.5,35L47,23L21.5,35L5.5,62.5Z" style="fill:rgb(224,206,168);fill-rule:nonzero;"/>
            </g>
        </g>
        <g transform="matrix(2.69762,3.76688e-18,1.84413e-18,1.31314,-270.842,124.458)">
            <g transform="matrix(1,0,0,1,-31,-35.5)">
                <path d="M6,26.569L6,69L12.067,69L15.101,14.5L48.978,8.536L51,5L15.101,3.5L6,26.569Z" style="fill:rgb(103,154,69);fill-rule:nonzero;"/>
                <path d="M3,21L0,69L6.069,69L11,19.5L44,0L26.299,2.831L3,21Z" style="fill:rgb(224,206,168);fill-rule:nonzero;"/>
                <path d="M18,30.702L18,70L24,70L27.5,28.224L46.5,14.416L62,13L40,13L18,30.702Z" style="fill:rgb(137,186,106);fill-rule:nonzero;"/>
                <path d="M12,25L12,70L22,70L18.5,27.903L38.5,12.205L62,4L31,10.778L12,25Z" style="fill:rgb(246,241,225);fill-rule:nonzero;"/>
                <path d="M6.5,43L9.458,71L14.398,70.29L12.916,41.548L29.711,24.516L47,16L21.807,24.516L6.5,43Z" style="fill:rgb(137,186,106);fill-rule:nonzero;"/>
            </g>
        </g>
        <g transform="matrix(2.69762,3.76688e-18,1.84413e-18,1.31314,613.145,124.458)">
            <g transform="matrix(1,0,0,1,-31,-35.5)">
                <path d="M6,26.569L6,69L12.067,69L15.101,14.5L48.978,8.536L51,5L15.101,3.5L6,26.569Z" style="fill:rgb(103,154,69);fill-rule:nonzero;"/>
                <path d="M3,21L0,69L6.069,69L11,19.5L44,0L26.299,2.831L3,21Z" style="fill:rgb(224,206,168);fill-rule:nonzero;"/>
                <path d="M18,30.702L18,70L24,70L27.5,28.224L46.5,14.416L62,13L40,13L18,30.702Z" style="fill:rgb(137,186,106);fill-rule:nonzero;"/>
                <path d="M12,25L12,70L22,70L18.5,27.903L38.5,12.205L62,4L31,10.778L12,25Z" style="fill:rgb(246,241,225);fill-rule:nonzero;"/>
                <path d="M6.5,43L9.458,71L14.398,70.29L12.916,41.548L29.711,24.516L47,16L21.807,24.516L6.5,43Z" style="fill:rgb(137,186,106);fill-rule:nonzero;"/>
            </g>
        </g>
        <g transform="matrix(2.69762,3.76688e-18,1.84413e-18,1.31314,-458.615,104.105)">
            <g transform="matrix(1,0,0,1,-46,-51)">
                <path d="M8,66.286L14.882,96L52.735,96L57,48L40.5,59.5L26.5,49.5L37.059,29.5L11,38.5L8,66.286Z" style="fill:rgb(103,154,69);fill-rule:nonzero;"/>
                <path d="M39,38.569L39,81L45.067,81L48.101,26.5L55,25L66.5,17L45.067,19.5L39,38.569Z" style="fill:rgb(103,154,69);fill-rule:nonzero;"/>
                <path d="M50,57L53.5,95L58.5,94L57,53.5L74,29.5L91.5,17.5L66,29.5L50,57Z" style="fill:rgb(246,241,225);fill-rule:nonzero;"/>
                <path d="M31,35L31,95L37,95L40,21.5L73.5,9.5L75.5,4.5L40,7L31,35Z" style="fill:rgb(137,186,106);fill-rule:nonzero;"/>
                <path d="M0,38L0,98L6,98L9,20L27.5,6.5L31.5,0L6,14.5L0,38Z" style="fill:rgb(224,206,168);fill-rule:nonzero;"/>
                <path d="M35,39.5L39.5,95L49.5,95L40.5,38.5L54.5,14L89.5,2.5L46,12.5L35,39.5Z" style="fill:rgb(224,206,168);fill-rule:nonzero;"/>
                <path d="M4,41.5L4,97L10,97L13.5,38L32.5,18.5L48,16.5L26,16.5L4,41.5Z" style="fill:rgb(137,186,106);fill-rule:nonzero;"/>
                <path d="M4,75L4,94.5L11,94.5L8.5,78.5L22,47.5L39.5,33.5L18,46L4,75Z" style="fill:rgb(246,241,225);fill-rule:nonzero;"/>
                <path d="M7,74L9.958,102L14.898,101.29L13.416,72.548L23.5,61L35,54.5L16,60L7,74Z" style="fill:rgb(224,206,168);fill-rule:nonzero;"/>
            </g>
        </g>
        <g transform="matrix(2.69762,3.76688e-18,1.84413e-18,1.31314,1025.08,104.105)">
            <g transform="matrix(1,0,0,1,-46,-51)">
                <path d="M8,66.286L14.882,96L52.735,96L57,48L40.5,59.5L26.5,49.5L37.059,29.5L11,38.5L8,66.286Z" style="fill:rgb(103,154,69);fill-rule:nonzero;"/>
                <path d="M39,38.569L39,81L45.067,81L48.101,26.5L55,25L66.5,17L45.067,19.5L39,38.569Z" style="fill:rgb(103,154,69);fill-rule:nonzero;"/>
                <path d="M31,35L31,95L37,95L40,21.5L73.5,9.5L75.5,4.5L40,7L31,35Z" style="fill:rgb(137,186,106);fill-rule:nonzero;"/>
                <path d="M0,38L0,98L6,98L9,20L27.5,6.5L31.5,0L6,14.5L0,38Z" style="fill:rgb(224,206,168);fill-rule:nonzero;"/>
                <path d="M35,39.5L39.5,95L49.5,95L40.5,38.5L54.5,14L89.5,2.5L46,12.5L35,39.5Z" style="fill:rgb(224,206,168);fill-rule:nonzero;"/>
                <path d="M4,41.5L4,97L10,97L13.5,38L32.5,18.5L48,16.5L26,16.5L4,41.5Z" style="fill:rgb(137,186,106);fill-rule:nonzero;"/>
                <path d="M4,75L4,94.5L11,94.5L8.5,78.5L22,47.5L39.5,33.5L18,46L4,75Z" style="fill:rgb(246,241,225);fill-rule:nonzero;"/>
                <path d="M7,74L9.958,102L14.898,101.29L13.416,72.548L23.5,61L35,54.5L16,60L7,74Z" style="fill:rgb(224,206,168);fill-rule:nonzero;"/>
            </g>
        </g>
        <g transform="matrix(2.69762,3.76688e-18,1.84413e-18,1.31314,306.215,104.105)">
            <g transform="matrix(1,0,0,1,-46,-51)">
                <path d="M8,66.286L14.882,96L52.735,96L57,48L40.5,59.5L26.5,49.5L37.059,29.5L11,38.5L8,66.286Z" style="fill:rgb(103,154,69);fill-rule:nonzero;"/>
                <path d="M39,38.569L39,81L45.067,81L48.101,26.5L55,25L66.5,17L45.067,19.5L39,38.569Z" style="fill:rgb(103,154,69);fill-rule:nonzero;"/>
                <path d="M50,57L53.5,95L58.5,94L57,53.5L74,29.5L91.5,17.5L66,29.5L50,57Z" style="fill:rgb(246,241,225);fill-rule:nonzero;"/>
                <path d="M31,35L31,95L37,95L40,21.5L73.5,9.5L75.5,4.5L40,7L31,35Z" style="fill:rgb(137,186,106);fill-rule:nonzero;"/>
                <path d="M0,38L0,98L6,98L9,20L27.5,6.5L31.5,0L6,14.5L0,38Z" style="fill:rgb(224,206,168);fill-rule:nonzero;"/>
                <path d="M35,39.5L39.5,95L49.5,95L40.5,38.5L54.5,14L89.5,2.5L46,12.5L35,39.5Z" style="fill:rgb(224,206,168);fill-rule:nonzero;"/>
                <path d="M4,41.5L4,97L10,97L13.5,38L32.5,18.5L48,16.5L26,16.5L4,41.5Z" style="fill:rgb(137,186,106);fill-rule:nonzero;"/>
                <path d="M4,75L4,94.5L11,94.5L8.5,78.5L22,47.5L39.5,33.5L18,46L4,75Z" style="fill:rgb(246,241,225);fill-rule:nonzero;"/>
                <path d="M7,74L9.958,102L14.898,101.29L13.416,72.548L23.5,61L35,54.5L16,60L7,74Z" style="fill:rgb(224,206,168);fill-rule:nonzero;"/>
            </g>
        </g>
        <g transform="matrix(2.69762,3.76688e-18,1.84413e-18,1.31314,357.923,127.085)">
            <g transform="matrix(1,0,0,1,-23,-33.5)">
                <path d="M4.5,21L8.5,66.5L14.567,66.5L10.5,17L24.5,5L36,2.5L15.5,0L4.5,21Z" style="fill:rgb(224,206,168);fill-rule:nonzero;"/>
                <path d="M0,34L6.5,65L12.569,65L6.5,29L31,3.5L24.5,0L0,34Z" style="fill:rgb(103,154,69);fill-rule:nonzero;"/>
                <path d="M17.5,27.202L17.5,66.5L23.5,66.5L27,24.724L34,18.5L46,14.5L30,16L17.5,27.202Z" style="fill:rgb(137,186,106);fill-rule:nonzero;"/>
                <path d="M12.5,21.5L12.5,66.5L22.5,66.5L16.5,26L27.5,14L43,6.5L22.5,12.5L12.5,21.5Z" style="fill:rgb(246,241,225);fill-rule:nonzero;"/>
                <path d="M13,39L15.958,67L20.898,66.29L19.416,37.548L29.5,26L41,19.5L22,25L13,39Z" style="fill:rgb(103,154,69);fill-rule:nonzero;"/>
            </g>
        </g>
        <g transform="matrix(2.69762,3.76688e-18,1.84413e-18,1.31314,886.581,127.085)">
            <g transform="matrix(1,0,0,1,-23,-33.5)">
                <clipPath id="_clip4">
                    <rect x="0" y="0" width="46" height="67"/>
                </clipPath>
                <g clip-path="url(#_clip4)">
                    <path d="M4.5,21L8.5,66.5L14.567,66.5L10.5,17L24.5,5L36,2.5L15.5,0L4.5,21Z" style="fill:rgb(224,206,168);fill-rule:nonzero;"/>
                    <path d="M0,34L6.5,65L12.569,65L6.5,29L31,3.5L24.5,0L0,34Z" style="fill:rgb(103,154,69);fill-rule:nonzero;"/>
                    <path d="M17.5,27.202L17.5,66.5L23.5,66.5L27,24.724L34,18.5L46,14.5L30,16L17.5,27.202Z" style="fill:rgb(137,186,106);fill-rule:nonzero;"/>
                    <path d="M12.5,21.5L12.5,66.5L22.5,66.5L16.5,26L27.5,14L43,6.5L22.5,12.5L12.5,21.5Z" style="fill:rgb(246,241,225);fill-rule:nonzero;"/>
                    <path d="M13,39L15.958,67L20.898,66.29L19.416,37.548L29.5,26L41,19.5L22,25L13,39Z" style="fill:rgb(103,154,69);fill-rule:nonzero;"/>
                </g>
            </g>
        </g>
        <g transform="matrix(2.69762,3.76688e-18,1.84413e-18,1.31314,-680.014,104.761)">
            <g transform="matrix(1,0,0,1,-31,-50.5)">
                <clipPath id="_clip5">
                    <rect x="0" y="0" width="62" height="101"/>
                </clipPath>
                <g clip-path="url(#_clip5)">
                    <path d="M6,37.5L6,97.5L12,97.5L15,24L48.5,12L50.5,7L15,9.5L6,37.5Z" style="fill:rgb(224,206,168);fill-rule:nonzero;"/>
                    <path d="M1.5,26L0,97.5L6,97.5L10.5,23.5L43.5,0L26,4L1.5,26Z" style="fill:rgb(137,186,106);fill-rule:nonzero;"/>
                    <path d="M18,43L18,98.5L24,98.5L27.5,39.5L46.5,20L62,18L40,18L18,43Z" style="fill:rgb(137,186,106);fill-rule:nonzero;"/>
                    <path d="M11.5,39.5L11.5,98.5L21.5,98.5L18,39.5L38,17.5L61.5,6L30.5,15.5L11.5,39.5Z" style="fill:rgb(103,154,69);fill-rule:nonzero;"/>
                    <path d="M5.5,62.5L9,100.5L14,99.5L12.5,59L29.5,35L47,23L21.5,35L5.5,62.5Z" style="fill:rgb(224,206,168);fill-rule:nonzero;"/>
                </g>
            </g>
        </g>
        <g transform="matrix(2.69762,3.76688e-18,1.84413e-18,1.31314,-763.345,127.741)">
            <g transform="matrix(1,0,0,1,-23.5,-33)">
                <path d="M6,21.569L6,64L12.067,64L15.101,9.5L22,8L33.5,0L12.067,2.5L6,21.569Z" style="fill:rgb(103,154,69);fill-rule:nonzero;"/>
                <path d="M3,16L0,64L6.069,64L11,14.5L24.5,2.5L15,5.5L3,16Z" style="fill:rgb(137,186,106);fill-rule:nonzero;"/>
                <path d="M18,25.702L18,65L24,65L27.5,23.224L34.5,17L46.5,13L30.5,14.5L18,25.702Z" style="fill:rgb(137,186,106);fill-rule:nonzero;"/>
                <path d="M12,20L12,65L22,65L16,24.5L27,12.5L42.5,5L22,11L12,20Z" style="fill:rgb(246,241,225);fill-rule:nonzero;"/>
                <path d="M6.5,38L9.458,66L14.398,65.29L12.916,36.548L23,25L34.5,18.5L15.5,24L6.5,38Z" style="fill:rgb(246,241,225);fill-rule:nonzero;"/>
            </g>
        </g>
        <g transform="matrix(2.69762,3.76688e-18,1.84413e-18,1.31314,-880.433,105.418)">
            <g transform="matrix(1,0,0,1,-46,-51)">
                <clipPath id="_clip6">
                    <rect x="0" y="0" width="92" height="102"/>
                </clipPath>
                <g clip-path="url(#_clip6)">
                    <path d="M0,56.5L9,95.5L58.5,95.5L53.5,56.5L68,17L38,24.5L48.5,1L18,17L0,56.5Z" style="fill:rgb(137,186,106);fill-rule:nonzero;"/>
                    <path d="M50,57L53.5,95L58.5,94L57,53.5L74,29.5L91.5,17.5L66,29.5L50,57Z" style="fill:rgb(224,206,168);fill-rule:nonzero;"/>
                    <path d="M31,35L31,95L37,95L40,21.5L73.5,9.5L75.5,4.5L40,7L31,35Z" style="fill:rgb(103,154,69);fill-rule:nonzero;"/>
                    <path d="M0,38L0,98L6,98L9,20L27.5,6.5L31.5,0L6,14.5L0,38Z" style="fill:rgb(103,154,69);fill-rule:nonzero;"/>
                    <path d="M35,39.5L39.5,95L49.5,95L40.5,38.5L54.5,14L89.5,2.5L46,12.5L35,39.5Z" style="fill:rgb(246,241,225);fill-rule:nonzero;"/>
                    <path d="M4,41.5L4,97L10,97L13.5,38L32.5,18.5L48,16.5L26,16.5L4,41.5Z" style="fill:rgb(246,241,225);fill-rule:nonzero;"/>
                    <path d="M4,75L4,94.5L11,94.5L8.5,78.5L22,47.5L39.5,33.5L18,46L4,75Z" style="fill:rgb(224,206,168);fill-rule:nonzero;"/>
                    <path d="M7,74L9.958,102L14.898,101.29L13.416,72.548L23.5,61L35,54.5L16,60L7,74Z" style="fill:rgb(246,241,225);fill-rule:nonzero;"/>
                </g>
            </g>
        </g>
        <g transform="matrix(2.69762,3.76688e-18,1.84413e-18,1.31314,-1674.99,104.761)">
            <g transform="matrix(1,0,0,1,-31,-50.5)">
                <clipPath id="_clip7">
                    <rect x="0" y="0" width="62" height="101"/>
                </clipPath>
                <g clip-path="url(#_clip7)">
                    <path d="M6,37.5L6,97.5L12,97.5L15,24L48.5,12L50.5,7L15,9.5L6,37.5Z" style="fill:rgb(224,206,168);fill-rule:nonzero;"/>
                    <path d="M1.5,26L0,97.5L6,97.5L10.5,23.5L43.5,0L26,4L1.5,26Z" style="fill:rgb(137,186,106);fill-rule:nonzero;"/>
                    <path d="M18,43L18,98.5L24,98.5L27.5,39.5L46.5,20L62,18L40,18L18,43Z" style="fill:rgb(137,186,106);fill-rule:nonzero;"/>
                    <path d="M11.5,39.5L11.5,98.5L21.5,98.5L18,39.5L38,17.5L61.5,6L30.5,15.5L11.5,39.5Z" style="fill:rgb(103,154,69);fill-rule:nonzero;"/>
                    <path d="M5.5,62.5L9,100.5L14,99.5L12.5,59L29.5,35L47,23L21.5,35L5.5,62.5Z" style="fill:rgb(224,206,168);fill-rule:nonzero;"/>
                </g>
            </g>
        </g>
        <g transform="matrix(2.69762,3.76688e-18,1.84413e-18,1.31314,-1130.86,104.761)">
            <g transform="matrix(1,0,0,1,-31,-50.5)">
                <path d="M6,37.5L6,97.5L12,97.5L15,24L48.5,12L50.5,7L15,9.5L6,37.5Z" style="fill:rgb(224,206,168);fill-rule:nonzero;"/>
                <path d="M1.5,26L0,97.5L6,97.5L10.5,23.5L43.5,0L26,4L1.5,26Z" style="fill:rgb(137,186,106);fill-rule:nonzero;"/>
                <path d="M18,43L18,98.5L24,98.5L27.5,39.5L46.5,20L62,18L40,18L18,43Z" style="fill:rgb(137,186,106);fill-rule:nonzero;"/>
                <path d="M11.5,39.5L11.5,98.5L21.5,98.5L18,39.5L38,17.5L61.5,6L30.5,15.5L11.5,39.5Z" style="fill:rgb(103,154,69);fill-rule:nonzero;"/>
                <path d="M5.5,62.5L9,100.5L14,99.5L12.5,59L29.5,35L47,23L21.5,35L5.5,62.5Z" style="fill:rgb(224,206,168);fill-rule:nonzero;"/>
            </g>
        </g>
        <g transform="matrix(2.69762,3.76688e-18,1.84413e-18,1.31314,-1077.11,124.458)">
            <g transform="matrix(1,0,0,1,-31,-35.5)">
                <path d="M6,26.569L6,69L12.067,69L15.101,14.5L48.978,8.536L51,5L15.101,3.5L6,26.569Z" style="fill:rgb(103,154,69);fill-rule:nonzero;"/>
                <path d="M3,21L0,69L6.069,69L11,19.5L44,0L26.299,2.831L3,21Z" style="fill:rgb(224,206,168);fill-rule:nonzero;"/>
                <path d="M18,30.702L18,70L24,70L27.5,28.224L46.5,14.416L62,13L40,13L18,30.702Z" style="fill:rgb(137,186,106);fill-rule:nonzero;"/>
                <path d="M12,25L12,70L22,70L18.5,27.903L38.5,12.205L62,4L31,10.778L12,25Z" style="fill:rgb(246,241,225);fill-rule:nonzero;"/>
                <path d="M6.5,43L9.458,71L14.398,70.29L12.916,41.548L29.711,24.516L47,16L21.807,24.516L6.5,43Z" style="fill:rgb(137,186,106);fill-rule:nonzero;"/>
            </g>
        </g>
        <g transform="matrix(2.69762,3.76688e-18,1.84413e-18,1.31314,-1521.32,124.458)">
            <g transform="matrix(1,0,0,1,-31,-35.5)">
                <path d="M6,26.569L6,69L12.067,69L15.101,14.5L48.978,8.536L51,5L15.101,3.5L6,26.569Z" style="fill:rgb(103,154,69);fill-rule:nonzero;"/>
                <path d="M3,21L0,69L6.069,69L11,19.5L44,0L26.299,2.831L3,21Z" style="fill:rgb(224,206,168);fill-rule:nonzero;"/>
                <path d="M18,30.702L18,70L24,70L27.5,28.224L46.5,14.416L62,13L40,13L18,30.702Z" style="fill:rgb(137,186,106);fill-rule:nonzero;"/>
                <path d="M12,25L12,70L22,70L18.5,27.903L38.5,12.205L62,4L31,10.778L12,25Z" style="fill:rgb(246,241,225);fill-rule:nonzero;"/>
                <path d="M6.5,43L9.458,71L14.398,70.29L12.916,41.548L29.711,24.516L47,16L21.807,24.516L6.5,43Z" style="fill:rgb(137,186,106);fill-rule:nonzero;"/>
            </g>
        </g>
        <g transform="matrix(2.69762,3.76688e-18,1.84413e-18,1.31314,-582.455,124.458)">
            <g transform="matrix(1,0,0,1,-31,-35.5)">
                <path d="M6,26.569L6,69L12.067,69L15.101,14.5L48.978,8.536L51,5L15.101,3.5L6,26.569Z" style="fill:rgb(103,154,69);fill-rule:nonzero;"/>
                <path d="M3,21L0,69L6.069,69L11,19.5L44,0L26.299,2.831L3,21Z" style="fill:rgb(224,206,168);fill-rule:nonzero;"/>
                <path d="M18,30.702L18,70L24,70L27.5,28.224L46.5,14.416L62,13L40,13L18,30.702Z" style="fill:rgb(137,186,106);fill-rule:nonzero;"/>
                <path d="M12,25L12,70L22,70L18.5,27.903L38.5,12.205L62,4L31,10.778L12,25Z" style="fill:rgb(246,241,225);fill-rule:nonzero;"/>
                <path d="M6.5,43L9.458,71L14.398,70.29L12.916,41.548L29.711,24.516L47,16L21.807,24.516L6.5,43Z" style="fill:rgb(137,186,106);fill-rule:nonzero;"/>
            </g>
        </g>
        <g transform="matrix(2.69762,3.76688e-18,1.84413e-18,1.31314,-1328.57,104.105)">
            <g transform="matrix(1,0,0,1,-46,-51)">
                <clipPath id="_clip8">
                    <rect x="0" y="0" width="92" height="102"/>
                </clipPath>
                <g clip-path="url(#_clip8)">
                    <path d="M8,66.286L14.882,96L52.735,96L57,48L40.5,59.5L26.5,49.5L37.059,29.5L11,38.5L8,66.286Z" style="fill:rgb(103,154,69);fill-rule:nonzero;"/>
                    <path d="M39,38.569L39,81L45.067,81L48.101,26.5L55,25L66.5,17L45.067,19.5L39,38.569Z" style="fill:rgb(103,154,69);fill-rule:nonzero;"/>
                    <path d="M50,57L53.5,95L58.5,94L57,53.5L74,29.5L91.5,17.5L66,29.5L50,57Z" style="fill:rgb(246,241,225);fill-rule:nonzero;"/>
                    <path d="M31,35L31,95L37,95L40,21.5L73.5,9.5L75.5,4.5L40,7L31,35Z" style="fill:rgb(137,186,106);fill-rule:nonzero;"/>
                    <path d="M0,38L0,98L6,98L9,20L27.5,6.5L31.5,0L6,14.5L0,38Z" style="fill:rgb(224,206,168);fill-rule:nonzero;"/>
                    <path d="M35,39.5L39.5,95L49.5,95L40.5,38.5L54.5,14L89.5,2.5L46,12.5L35,39.5Z" style="fill:rgb(224,206,168);fill-rule:nonzero;"/>
                    <path d="M4,41.5L4,97L10,97L13.5,38L32.5,18.5L48,16.5L26,16.5L4,41.5Z" style="fill:rgb(137,186,106);fill-rule:nonzero;"/>
                    <path d="M4,75L4,94.5L11,94.5L8.5,78.5L22,47.5L39.5,33.5L18,46L4,75Z" style="fill:rgb(246,241,225);fill-rule:nonzero;"/>
                    <path d="M7,74L9.958,102L14.898,101.29L13.416,72.548L23.5,61L35,54.5L16,60L7,74Z" style="fill:rgb(224,206,168);fill-rule:nonzero;"/>
                </g>
            </g>
        </g>
        <g transform="matrix(2.69762,3.76688e-18,1.84413e-18,1.31314,-1447.93,127.085)">
            <g transform="matrix(1,0,0,1,-23,-33.5)">
                <path d="M4.5,21L8.5,66.5L14.567,66.5L10.5,17L24.5,5L36,2.5L15.5,0L4.5,21Z" style="fill:rgb(224,206,168);fill-rule:nonzero;"/>
                <path d="M0,34L6.5,65L12.569,65L6.5,29L31,3.5L24.5,0L0,34Z" style="fill:rgb(103,154,69);fill-rule:nonzero;"/>
                <path d="M17.5,27.202L17.5,66.5L23.5,66.5L27,24.724L34,18.5L46,14.5L30,16L17.5,27.202Z" style="fill:rgb(137,186,106);fill-rule:nonzero;"/>
                <path d="M12.5,21.5L12.5,66.5L22.5,66.5L16.5,26L27.5,14L43,6.5L22.5,12.5L12.5,21.5Z" style="fill:rgb(246,241,225);fill-rule:nonzero;"/>
                <path d="M13,39L15.958,67L20.898,66.29L19.416,37.548L29.5,26L41,19.5L22,25L13,39Z" style="fill:rgb(103,154,69);fill-rule:nonzero;"/>
            </g>
        </g>
        <g transform="matrix(2.69762,3.76688e-18,1.84413e-18,1.31314,-1880.26,127.085)">
            <g transform="matrix(1,0,0,1,-23,-33.5)">
                <path d="M4.5,21L8.5,66.5L14.567,66.5L10.5,17L24.5,5L36,2.5L15.5,0L4.5,21Z" style="fill:rgb(224,206,168);fill-rule:nonzero;"/>
                <path d="M0,34L6.5,65L12.569,65L6.5,29L31,3.5L24.5,0L0,34Z" style="fill:rgb(103,154,69);fill-rule:nonzero;"/>
                <path d="M17.5,27.202L17.5,66.5L23.5,66.5L27,24.724L34,18.5L46,14.5L30,16L17.5,27.202Z" style="fill:rgb(137,186,106);fill-rule:nonzero;"/>
                <path d="M12.5,21.5L12.5,66.5L22.5,66.5L16.5,26L27.5,14L43,6.5L22.5,12.5L12.5,21.5Z" style="fill:rgb(246,241,225);fill-rule:nonzero;"/>
                <path d="M13,39L15.958,67L20.898,66.29L19.416,37.548L29.5,26L41,19.5L22,25L13,39Z" style="fill:rgb(103,154,69);fill-rule:nonzero;"/>
            </g>
        </g>
        <g transform="matrix(2.69762,3.76688e-18,1.84413e-18,1.31314,-1771.98,127.085)">
            <g transform="matrix(1,0,0,1,-23,-33.5)">
                <path d="M4.5,21L8.5,66.5L14.567,66.5L10.5,17L24.5,5L36,2.5L15.5,0L4.5,21Z" style="fill:rgb(224,206,168);fill-rule:nonzero;"/>
                <path d="M0,34L6.5,65L12.569,65L6.5,29L31,3.5L24.5,0L0,34Z" style="fill:rgb(103,154,69);fill-rule:nonzero;"/>
                <path d="M17.5,27.202L17.5,66.5L23.5,66.5L27,24.724L34,18.5L46,14.5L30,16L17.5,27.202Z" style="fill:rgb(137,186,106);fill-rule:nonzero;"/>
                <path d="M12.5,21.5L12.5,66.5L22.5,66.5L16.5,26L27.5,14L43,6.5L22.5,12.5L12.5,21.5Z" style="fill:rgb(246,241,225);fill-rule:nonzero;"/>
                <path d="M13,39L15.958,67L20.898,66.29L19.416,37.548L29.5,26L41,19.5L22,25L13,39Z" style="fill:rgb(103,154,69);fill-rule:nonzero;"/>
            </g>
        </g>
        <g transform="matrix(2.69762,3.76688e-18,1.84413e-18,1.31314,-1215.34,127.085)">
            <g transform="matrix(1,0,0,1,-23,-33.5)">
                <clipPath id="_clip9">
                    <rect x="0" y="0" width="46" height="67"/>
                </clipPath>
                <g clip-path="url(#_clip9)">
                    <path d="M4.5,21L8.5,66.5L14.567,66.5L10.5,17L24.5,5L36,2.5L15.5,0L4.5,21Z" style="fill:rgb(224,206,168);fill-rule:nonzero;"/>
                    <path d="M0,34L6.5,65L12.569,65L6.5,29L31,3.5L24.5,0L0,34Z" style="fill:rgb(103,154,69);fill-rule:nonzero;"/>
                    <path d="M17.5,27.202L17.5,66.5L23.5,66.5L27,24.724L34,18.5L46,14.5L30,16L17.5,27.202Z" style="fill:rgb(137,186,106);fill-rule:nonzero;"/>
                    <path d="M12.5,21.5L12.5,66.5L22.5,66.5L16.5,26L27.5,14L43,6.5L22.5,12.5L12.5,21.5Z" style="fill:rgb(246,241,225);fill-rule:nonzero;"/>
                    <path d="M13,39L15.958,67L20.898,66.29L19.416,37.548L29.5,26L41,19.5L22,25L13,39Z" style="fill:rgb(103,154,69);fill-rule:nonzero;"/>
                </g>
            </g>
        </g>
        <g transform="matrix(2.69762,3.76688e-18,1.84413e-18,1.31314,-46.0529,127.085)">
            <g transform="matrix(1,0,0,1,-23,-33.5)">
                <path d="M4.5,21L8.5,66.5L14.567,66.5L10.5,17L24.5,5L36,2.5L15.5,0L4.5,21Z" style="fill:rgb(224,206,168);fill-rule:nonzero;"/>
                <path d="M0,34L6.5,65L12.569,65L6.5,29L31,3.5L24.5,0L0,34Z" style="fill:rgb(103,154,69);fill-rule:nonzero;"/>
                <path d="M17.5,27.202L17.5,66.5L23.5,66.5L27,24.724L34,18.5L46,14.5L30,16L17.5,27.202Z" style="fill:rgb(137,186,106);fill-rule:nonzero;"/>
                <path d="M12.5,21.5L12.5,66.5L22.5,66.5L16.5,26L27.5,14L43,6.5L22.5,12.5L12.5,21.5Z" style="fill:rgb(246,241,225);fill-rule:nonzero;"/>
                <path d="M13,39L15.958,67L20.898,66.29L19.416,37.548L29.5,26L41,19.5L22,25L13,39Z" style="fill:rgb(103,154,69);fill-rule:nonzero;"/>
            </g>
        </g>
        <g transform="matrix(12.2936,1.54498e-17,-1.55383e-17,1.22936,-1936.55,168.982)">
            <rect x="-0.468" y="0.582" width="241.376" height="117.496" style="fill:rgb(236,219,177);"/>
        </g>
        <g transform="matrix(2.72809,3.80943e-18,1.84413e-18,1.31314,-1942.94,157.879)">
            <path d="M1087.94,18L0,18L0,4L56.5,0L64,4L120.5,0L128,4L184.5,0L192,4L248.5,0L256,4L312.5,0L320,4L376.5,0L384,4L440.5,0L448,4L504.5,0L512,4L568.5,0L576,4L632.5,0L640,4L696.5,0L704,4L760.5,0L768,4L824.5,0L832,4L888.5,0L896,4L952.5,0L960,4L1016.5,0L1023.99,3.997L1080.44,0L1087.94,4L1087.94,18Z" style="fill:rgb(236,219,177);"/>
        </g>
    </g>
</svg>
