<?xml version="1.0" encoding="UTF-8" standalone="no"?>
<!DOCTYPE svg PUBLIC "-//W3C//DTD SVG 1.1//EN" "http://www.w3.org/Graphics/SVG/1.1/DTD/svg11.dtd">
<svg width="100%" height="100%" viewBox="0 0 610 300" version="1.1" xmlns="http://www.w3.org/2000/svg" xmlns:xlink="http://www.w3.org/1999/xlink" xml:space="preserve" xmlns:serif="http://www.serif.com/" style="fill-rule:evenodd;clip-rule:evenodd;stroke-linejoin:round;stroke-miterlimit:2;">
    <g id="water-left" transform="matrix(0.635,0,0,0.635,-304.4,-4.8)">
        <g transform="matrix(1,0,0,1,480,-98.2422)">
            <g transform="matrix(1.5748,0,0,1.5748,-0.629921,369.871)">
                <path d="M278.936,12.301L203.43,5.715L199.826,11.666L122.766,3.38L116.866,12.39L54.011,5.395L51.229,10.09L0,3.103L0,132.316L306.07,132.316L306.07,3.11L283.811,0L278.936,12.301Z" style="fill:rgb(54,99,135);fill-rule:nonzero;"/>
            </g>
            <g transform="matrix(1.5748,0,0,1.5748,-0.629921,369.871)">
                <path d="M263.83,57.28L294.997,52.605L306.07,53.582L306.07,49.901L292.66,47.54L263.83,57.28Z" style="fill:rgb(79,131,163);fill-rule:nonzero;"/>
            </g>
            <g transform="matrix(1.5748,0,0,1.5748,-0.629921,369.871)">
                <path d="M288.102,95.98L247.294,86.241L226.028,95.98L249.018,91.305L288.102,95.98Z" style="fill:rgb(79,131,163);fill-rule:nonzero;"/>
            </g>
            <g transform="matrix(1.5748,0,0,1.5748,-0.629921,369.871)">
                <path d="M260.11,40.138L204.79,30.399L175.96,40.138L207.127,35.464L260.11,40.138Z" style="fill:rgb(79,131,163);fill-rule:nonzero;"/>
            </g>
            <g transform="matrix(1.5748,0,0,1.5748,-0.629921,369.871)">
                <path d="M191.976,85.824L151.168,76.085L129.903,85.824L152.893,81.149L191.976,85.824Z" style="fill:rgb(79,131,163);fill-rule:nonzero;"/>
            </g>
            <g transform="matrix(1.5748,0,0,1.5748,-0.629921,369.871)">
                <path d="M149.47,49.489L94.149,39.749L65.319,49.489L96.486,44.813L149.47,49.489Z" style="fill:rgb(79,131,163);fill-rule:nonzero;"/>
            </g>
            <g transform="matrix(1.5748,0,0,1.5748,-0.629921,369.871)">
                <path d="M81.335,91.999L40.528,82.259L19.262,91.999L42.252,87.324L81.335,91.999Z" style="fill:rgb(79,131,163);fill-rule:nonzero;"/>
            </g>
            <g transform="matrix(1.5748,0,0,1.5748,-0.629921,369.871)">
                <path d="M0,53.47L43.18,57.28L0,49.677L0,53.47Z" style="fill:rgb(79,131,163);fill-rule:nonzero;"/>
            </g>
        </g>
        <g transform="matrix(1,0,0,1,960.315,-98.2422)">
            <g transform="matrix(1.5748,0,0,1.5748,-0.629921,369.871)">
                <path d="M278.936,12.301L203.43,5.715L199.826,11.666L122.766,3.38L116.866,12.39L54.011,5.395L51.229,10.09L0,3.103L0,132.316L306.07,132.316L306.07,3.11L283.811,0L278.936,12.301Z" style="fill:rgb(54,99,135);fill-rule:nonzero;"/>
            </g>
            <g transform="matrix(1.5748,0,0,1.5748,-0.629921,369.871)">
                <path d="M263.83,57.28L294.997,52.605L306.07,53.582L306.07,49.901L292.66,47.54L263.83,57.28Z" style="fill:rgb(79,131,163);fill-rule:nonzero;"/>
            </g>
            <g transform="matrix(1.5748,0,0,1.5748,-0.629921,369.871)">
                <path d="M288.102,95.98L247.294,86.241L226.028,95.98L249.018,91.305L288.102,95.98Z" style="fill:rgb(79,131,163);fill-rule:nonzero;"/>
            </g>
            <g transform="matrix(1.5748,0,0,1.5748,-0.629921,369.871)">
                <path d="M260.11,40.138L204.79,30.399L175.96,40.138L207.127,35.464L260.11,40.138Z" style="fill:rgb(79,131,163);fill-rule:nonzero;"/>
            </g>
            <g transform="matrix(1.5748,0,0,1.5748,-0.629921,369.871)">
                <path d="M191.976,85.824L151.168,76.085L129.903,85.824L152.893,81.149L191.976,85.824Z" style="fill:rgb(79,131,163);fill-rule:nonzero;"/>
            </g>
            <g transform="matrix(1.5748,0,0,1.5748,-0.629921,369.871)">
                <path d="M149.47,49.489L94.149,39.749L65.319,49.489L96.486,44.813L149.47,49.489Z" style="fill:rgb(79,131,163);fill-rule:nonzero;"/>
            </g>
            <g transform="matrix(1.5748,0,0,1.5748,-0.629921,369.871)">
                <path d="M81.335,91.999L40.528,82.259L19.262,91.999L42.252,87.324L81.335,91.999Z" style="fill:rgb(79,131,163);fill-rule:nonzero;"/>
            </g>
            <g transform="matrix(1.5748,0,0,1.5748,-0.629921,369.871)">
                <path d="M0,53.47L43.18,57.28L0,49.677L0,53.47Z" style="fill:rgb(79,131,163);fill-rule:nonzero;"/>
            </g>
        </g>
    </g>
</svg>
