<?xml version="1.0" encoding="UTF-8" standalone="no"?>
<!DOCTYPE svg PUBLIC "-//W3C//DTD SVG 1.1//EN" "http://www.w3.org/Graphics/SVG/1.1/DTD/svg11.dtd">
<svg width="100%" height="100%" viewBox="0 0 1220 300" version="1.1" xmlns="http://www.w3.org/2000/svg" xmlns:xlink="http://www.w3.org/1999/xlink" xml:space="preserve" xmlns:serif="http://www.serif.com/" style="fill-rule:evenodd;clip-rule:evenodd;stroke-linejoin:round;stroke-miterlimit:2;">
    <g id="water-left" transform="matrix(0.635,0,0,0.635,-304.4,-4.8)">
        <g id="fish" transform="matrix(1,0,0,1,1141.07,0)">
            <path d="M461.861,189.804L456.119,201.514L442.683,205.019L453.851,208.925L452.652,219.343L459.477,205.89L475.084,202.013L475.544,187.859L461.861,189.804Z" style="fill:rgb(239,156,116);fill-rule:nonzero;"/>
            <path d="M427.914,289L440.006,268.139L428,278.6L428,264.902L422.884,276.972L413.984,272.492L417.767,289L427.914,289Z" style="fill:rgb(79,131,163);fill-rule:nonzero;"/>
        </g>
        <g transform="matrix(1,0,0,1,480,-98.2422)">
            <g transform="matrix(1.5748,0,0,1.5748,-0.629921,369.871)">
                <path d="M278.936,12.301L203.43,5.715L199.826,11.666L122.766,3.38L116.866,12.39L54.011,5.395L51.229,10.09L0,3.103L0,132.316L306.07,132.316L306.07,3.11L283.811,0L278.936,12.301Z" style="fill:rgb(54,99,135);fill-rule:nonzero;"/>
            </g>
            <g transform="matrix(1.5748,0,0,1.5748,-0.629921,369.871)">
                <path d="M263.83,57.28L294.997,52.605L306.07,53.582L306.07,49.901L292.66,47.54L263.83,57.28Z" style="fill:rgb(79,131,163);fill-rule:nonzero;"/>
            </g>
            <g transform="matrix(1.5748,0,0,1.5748,-0.629921,369.871)">
                <path d="M288.102,95.98L247.294,86.241L226.028,95.98L249.018,91.305L288.102,95.98Z" style="fill:rgb(79,131,163);fill-rule:nonzero;"/>
            </g>
            <g transform="matrix(1.5748,0,0,1.5748,-0.629921,369.871)">
                <path d="M260.11,40.138L204.79,30.399L175.96,40.138L207.127,35.464L260.11,40.138Z" style="fill:rgb(79,131,163);fill-rule:nonzero;"/>
            </g>
            <g transform="matrix(1.5748,0,0,1.5748,-0.629921,369.871)">
                <path d="M191.976,85.824L151.168,76.085L129.903,85.824L152.893,81.149L191.976,85.824Z" style="fill:rgb(79,131,163);fill-rule:nonzero;"/>
            </g>
            <g transform="matrix(1.5748,0,0,1.5748,-0.629921,369.871)">
                <path d="M149.47,49.489L94.149,39.749L65.319,49.489L96.486,44.813L149.47,49.489Z" style="fill:rgb(79,131,163);fill-rule:nonzero;"/>
            </g>
            <g transform="matrix(1.5748,0,0,1.5748,-0.629921,369.871)">
                <path d="M81.335,91.999L40.528,82.259L19.262,91.999L42.252,87.324L81.335,91.999Z" style="fill:rgb(79,131,163);fill-rule:nonzero;"/>
            </g>
            <g transform="matrix(1.5748,0,0,1.5748,-0.629921,369.871)">
                <path d="M0,53.47L43.18,57.28L0,49.677L0,53.47Z" style="fill:rgb(79,131,163);fill-rule:nonzero;"/>
            </g>
        </g>
        <g transform="matrix(1,0,0,1,1440.63,-98.2422)">
            <g transform="matrix(1.5748,0,0,1.5748,-0.629921,369.871)">
                <path d="M278.936,12.301L203.43,5.715L199.826,11.666L122.766,3.38L116.866,12.39L54.011,5.395L51.229,10.09L0,3.103L0,132.316L306.07,132.316L306.07,3.11L283.811,0L278.936,12.301Z" style="fill:rgb(54,99,135);fill-rule:nonzero;"/>
            </g>
            <g transform="matrix(1.5748,0,0,1.5748,-0.629921,369.871)">
                <path d="M263.83,57.28L294.997,52.605L306.07,53.582L306.07,49.901L292.66,47.54L263.83,57.28Z" style="fill:rgb(79,131,163);fill-rule:nonzero;"/>
            </g>
            <g transform="matrix(1.5748,0,0,1.5748,-0.629921,369.871)">
                <path d="M288.102,95.98L247.294,86.241L226.028,95.98L249.018,91.305L288.102,95.98Z" style="fill:rgb(79,131,163);fill-rule:nonzero;"/>
            </g>
            <g transform="matrix(1.5748,0,0,1.5748,-0.629921,369.871)">
                <path d="M260.11,40.138L204.79,30.399L175.96,40.138L207.127,35.464L260.11,40.138Z" style="fill:rgb(79,131,163);fill-rule:nonzero;"/>
            </g>
            <g transform="matrix(1.5748,0,0,1.5748,-0.629921,369.871)">
                <path d="M191.976,85.824L151.168,76.085L129.903,85.824L152.893,81.149L191.976,85.824Z" style="fill:rgb(79,131,163);fill-rule:nonzero;"/>
            </g>
            <g transform="matrix(1.5748,0,0,1.5748,-0.629921,369.871)">
                <path d="M149.47,49.489L94.149,39.749L65.319,49.489L96.486,44.813L149.47,49.489Z" style="fill:rgb(79,131,163);fill-rule:nonzero;"/>
            </g>
            <g transform="matrix(1.5748,0,0,1.5748,-0.629921,369.871)">
                <path d="M81.335,91.999L40.528,82.259L19.262,91.999L42.252,87.324L81.335,91.999Z" style="fill:rgb(79,131,163);fill-rule:nonzero;"/>
            </g>
            <g transform="matrix(1.5748,0,0,1.5748,-0.629921,369.871)">
                <path d="M0,53.47L43.18,57.28L0,49.677L0,53.47Z" style="fill:rgb(79,131,163);fill-rule:nonzero;"/>
            </g>
        </g>
        <g transform="matrix(1,0,0,1,960.315,-98.2422)">
            <g transform="matrix(1.5748,0,0,1.5748,-0.629921,369.871)">
                <path d="M278.936,12.301L203.43,5.715L199.826,11.666L122.766,3.38L116.866,12.39L54.011,5.395L51.229,10.09L0,3.103L0,132.316L306.07,132.316L306.07,3.11L283.811,0L278.936,12.301Z" style="fill:rgb(54,99,135);fill-rule:nonzero;"/>
            </g>
            <g transform="matrix(1.5748,0,0,1.5748,-0.629921,369.871)">
                <path d="M263.83,57.28L294.997,52.605L306.07,53.582L306.07,49.901L292.66,47.54L263.83,57.28Z" style="fill:rgb(79,131,163);fill-rule:nonzero;"/>
            </g>
            <g transform="matrix(1.5748,0,0,1.5748,-0.629921,369.871)">
                <path d="M288.102,95.98L247.294,86.241L226.028,95.98L249.018,91.305L288.102,95.98Z" style="fill:rgb(79,131,163);fill-rule:nonzero;"/>
            </g>
            <g transform="matrix(1.5748,0,0,1.5748,-0.629921,369.871)">
                <path d="M260.11,40.138L204.79,30.399L175.96,40.138L207.127,35.464L260.11,40.138Z" style="fill:rgb(79,131,163);fill-rule:nonzero;"/>
            </g>
            <g transform="matrix(1.5748,0,0,1.5748,-0.629921,369.871)">
                <path d="M191.976,85.824L151.168,76.085L129.903,85.824L152.893,81.149L191.976,85.824Z" style="fill:rgb(79,131,163);fill-rule:nonzero;"/>
            </g>
            <g transform="matrix(1.5748,0,0,1.5748,-0.629921,369.871)">
                <path d="M149.47,49.489L94.149,39.749L65.319,49.489L96.486,44.813L149.47,49.489Z" style="fill:rgb(79,131,163);fill-rule:nonzero;"/>
            </g>
            <g transform="matrix(1.5748,0,0,1.5748,-0.629921,369.871)">
                <path d="M81.335,91.999L40.528,82.259L19.262,91.999L42.252,87.324L81.335,91.999Z" style="fill:rgb(79,131,163);fill-rule:nonzero;"/>
            </g>
            <g transform="matrix(1.5748,0,0,1.5748,-0.629921,369.871)">
                <path d="M0,53.47L43.18,57.28L0,49.677L0,53.47Z" style="fill:rgb(79,131,163);fill-rule:nonzero;"/>
            </g>
        </g>
        <g id="water-repeat" transform="matrix(-1,0,0,1,2401,0)">
            <g transform="matrix(1.57317,0,0,1.5748,-0.629921,7.55906)">
                <rect x="0" y="197.323" width="610.635" height="102.677" style="fill:rgb(54,99,135);"/>
            </g>
            <g>
                <path d="M894.48,361.832L943.562,354.471L961,356.009L961,350.212L939.881,346.494L894.48,361.832Z" style="fill:rgb(79,131,163);fill-rule:nonzero;"/>
                <path d="M932.703,422.778L868.439,407.44L834.949,422.778L871.154,415.416L932.703,422.778Z" style="fill:rgb(79,131,163);fill-rule:nonzero;"/>
                <path d="M888.622,334.838L801.504,319.5L756.103,334.838L805.184,327.476L888.622,334.838Z" style="fill:rgb(79,131,163);fill-rule:nonzero;"/>
                <path d="M781.324,406.784L717.06,391.446L683.571,406.784L719.776,399.422L781.324,406.784Z" style="fill:rgb(79,131,163);fill-rule:nonzero;"/>
                <path d="M714.385,349.563L627.266,334.224L581.865,349.563L630.947,342.2L714.385,349.563Z" style="fill:rgb(79,131,163);fill-rule:nonzero;"/>
                <path d="M607.087,416.508L542.823,401.17L509.334,416.508L545.539,409.146L607.087,416.508Z" style="fill:rgb(79,131,163);fill-rule:nonzero;"/>
                <path d="M479,355.833L547,361.832L479,349.86L479,355.833Z" style="fill:rgb(79,131,163);fill-rule:nonzero;"/>
            </g>
            <g transform="matrix(1,0,0,1,-479.63,0)">
                <path d="M894.48,361.832L943.562,354.471L961,356.009L961,350.212L939.881,346.494L894.48,361.832Z" style="fill:rgb(79,131,163);fill-rule:nonzero;"/>
                <path d="M932.703,422.778L868.439,407.44L834.949,422.778L871.154,415.416L932.703,422.778Z" style="fill:rgb(79,131,163);fill-rule:nonzero;"/>
                <path d="M888.622,334.838L801.504,319.5L756.103,334.838L805.184,327.476L888.622,334.838Z" style="fill:rgb(79,131,163);fill-rule:nonzero;"/>
                <path d="M781.324,406.784L717.06,391.446L683.571,406.784L719.776,399.422L781.324,406.784Z" style="fill:rgb(79,131,163);fill-rule:nonzero;"/>
                <path d="M714.385,349.563L627.266,334.224L581.865,349.563L630.947,342.2L714.385,349.563Z" style="fill:rgb(79,131,163);fill-rule:nonzero;"/>
            </g>
        </g>
        <g transform="matrix(1.5693,0,0,1.5748,1745.34,268.697)">
            <path d="M390.436,12.301L314.93,5.715L311.326,11.666L234.266,3.38L228.366,12.39L165.511,5.395L162.729,10.09L111.5,3.093L111.5,31.5L417.57,31.5L417.57,3.11L395.311,0L390.436,12.301Z" style="fill:rgb(54,99,135);fill-rule:nonzero;"/>
        </g>
    </g>
</svg>
