<?xml version="1.0" encoding="UTF-8" standalone="no"?>
<!DOCTYPE svg PUBLIC "-//W3C//DTD SVG 1.1//EN" "http://www.w3.org/Graphics/SVG/1.1/DTD/svg11.dtd">
<svg width="100%" height="100%" viewBox="0 0 610 300" version="1.1" xmlns="http://www.w3.org/2000/svg" xmlns:xlink="http://www.w3.org/1999/xlink" xml:space="preserve" xmlns:serif="http://www.serif.com/" style="fill-rule:evenodd;clip-rule:evenodd;stroke-linejoin:round;stroke-miterlimit:2;">
    <g id="waterfront-left" transform="matrix(0.635,0,0,0.635,-304.4,-4.8)">
        <g id="water-repeat">
            <g transform="matrix(-1,0,0,1,1440,0)">
                <path d="M918.269,291L799.363,280.628L793.686,290L672.332,276.951L663.041,291.14L564.056,280.124L559.675,287.518L479,276.221L479,480L961,480L961,276.525L925.946,271.628L918.269,291Z" style="fill:rgb(54,99,135);fill-rule:nonzero;"/>
            </g>
            <path d="M894.48,361.832L943.562,354.471L961,356.009L961,350.212L939.881,346.494L894.48,361.832Z" style="fill:rgb(79,131,163);fill-rule:nonzero;"/>
            <path d="M932.703,422.778L868.439,407.44L834.949,422.778L871.154,415.416L932.703,422.778Z" style="fill:rgb(79,131,163);fill-rule:nonzero;"/>
            <path d="M888.622,334.838L801.504,319.5L756.103,334.838L805.184,327.476L888.622,334.838Z" style="fill:rgb(79,131,163);fill-rule:nonzero;"/>
            <path d="M781.324,406.784L717.06,391.446L683.571,406.784L719.776,399.422L781.324,406.784Z" style="fill:rgb(79,131,163);fill-rule:nonzero;"/>
            <path d="M714.385,349.563L627.266,334.224L581.865,349.563L630.947,342.2L714.385,349.563Z" style="fill:rgb(79,131,163);fill-rule:nonzero;"/>
            <path d="M607.087,416.508L542.823,401.17L509.334,416.508L545.539,409.146L607.087,416.508Z" style="fill:rgb(79,131,163);fill-rule:nonzero;"/>
            <path d="M479,355.833L547,361.832L479,349.86L479,355.833Z" style="fill:rgb(79,131,163);fill-rule:nonzero;"/>
        </g>
        <g id="water">
            <path d="M958,276.386L958,480L1440,480L1440,276.081L1358.33,287.518L1353.94,280.125L1254.96,291.141L1245.67,276.951L1124.31,290.001L1118.64,280.628L999.731,291L992.054,271.628L958,276.386Z" style="fill:rgb(54,99,135);fill-rule:nonzero;"/>
            <path d="M958,355.744L1027,361.831L958,349.684L958,355.744Z" style="fill:rgb(79,131,163);fill-rule:nonzero;"/>
        </g>
        <g id="rocks">
            <path d="M1214.87,288L1181,288L1131.9,318.749L1098.6,359.314L1059,395.064L1020,410.999L980.887,480L1372.1,480L1392,288.951L1287.52,287.627L1214.87,288Z" style="fill:rgb(100,88,73);fill-rule:nonzero;"/>
            <path d="M1281.17,281.918L1263.46,311.597L1291.29,336.892L1345.25,342.899L1392,321.958L1392,284.055L1391.62,281.918L1340.19,255L1281.17,281.918Z" style="fill:rgb(100,88,73);fill-rule:nonzero;"/>
            <path d="M1304.46,288.282L1262.85,266.501L1215.09,288.282L1200.76,312.299L1223.27,332.767L1266.94,337.628L1309.79,318.436L1304.46,288.282Z" style="fill:rgb(124,112,90);fill-rule:nonzero;"/>
            <path d="M1266.41,295.695L1205.84,270.059L1136.34,295.695L1115.49,323.962L1148.26,348.053L1211.8,353.775L1274.15,331.186L1266.41,295.695Z" style="fill:rgb(100,88,73);fill-rule:nonzero;"/>
            <path d="M1371.39,329.839L1319.95,302.921L1260.93,329.839L1243.23,359.518L1271.05,384.813L1325.01,390.819L1377.96,367.103L1371.39,329.839Z" style="fill:rgb(100,88,73);fill-rule:nonzero;"/>
            <path d="M1319.53,366.537L1268.1,339.62L1209.08,366.537L1191.37,396.217L1219.2,421.512L1273.16,427.519L1326.11,403.802L1319.53,366.537Z" style="fill:rgb(100,88,73);fill-rule:nonzero;"/>
            <path d="M1233.72,332.23L1193.88,311.381L1148.17,332.23L1134.46,355.216L1156.01,374.807L1197.81,379.46L1238.81,361.09L1233.72,332.23Z" style="fill:rgb(124,112,90);fill-rule:nonzero;"/>
            <path d="M1151.78,322.505L1094.2,315.069L1048.16,348.115L1041.83,382.091L1076.69,396.182L1129.4,383.127L1170.85,355.185L1151.78,322.505Z" style="fill:rgb(152,138,116);fill-rule:nonzero;"/>
            <path d="M1317,365.273L1265.57,338.354L1206.55,365.273L1188.84,394.953L1216.67,420.248L1270.63,426.253L1323.58,402.537L1317,365.273Z" style="fill:rgb(152,138,116);fill-rule:nonzero;"/>
            <path d="M1365.5,322.173L1341.72,309.729L1314.43,322.173L1306.25,335.895L1319.11,347.589L1344.06,350.365L1368.54,339.402L1365.5,322.173Z" style="fill:rgb(152,138,116);fill-rule:nonzero;"/>
            <path d="M1212.16,417.415L1190.11,454.384L1218.29,480L1321.84,480L1357.94,463.832L1349.75,417.415L1285.68,383.885L1212.16,417.415Z" style="fill:rgb(124,112,90);fill-rule:nonzero;"/>
            <path d="M1301.97,363.77L1287.64,387.786L1310.15,408.255L1353.82,413.116L1392,396.014L1392,367.479L1391.35,363.77L1349.73,341.989L1301.97,363.77Z" style="fill:rgb(124,112,90);fill-rule:nonzero;"/>
            <path d="M1079.29,411.585L1048.12,395.269L1012.34,411.585L1001.6,429.578L1018.47,444.911L1051.18,448.552L1083.28,434.175L1079.29,411.585Z" style="fill:rgb(152,138,116);fill-rule:nonzero;"/>
            <path d="M1056.18,426.802L1035.81,460.939L1056.78,480L1167.71,480L1190.78,469.665L1183.22,426.802L1124.06,400.902L1056.18,426.802Z" style="fill:rgb(124,112,90);fill-rule:nonzero;"/>
            <path d="M1191.09,444.482L1177.54,468.156L1191.06,480L1267.36,480L1283.96,472.192L1278.24,442.886L1237.27,422.389L1191.09,444.482Z" style="fill:rgb(100,88,73);fill-rule:nonzero;"/>
            <path d="M1324.54,408.975L1314.85,433.269L1331.15,453.524L1362.13,457.838L1392,438.071L1392,437.444L1387.77,407.817L1357.93,386.49L1324.54,408.975Z" style="fill:rgb(100,88,73);fill-rule:nonzero;"/>
            <path d="M1332.63,398.182L1309.64,393.7L1289.92,410.909L1286.5,424.426L1300.17,431.001L1321.73,427.104L1339.47,411.833L1332.63,398.182Z" style="fill:rgb(152,138,116);fill-rule:nonzero;"/>
        </g>
        <g id="wall">
            <path d="M1422,113L1424.33,132L1371,132L1373,113L1422,113Z" style="fill:rgb(236,219,177);fill-rule:nonzero;"/>
            <path d="M1363.83,125L1343.79,480L1440,480L1440,275.999L1430.83,125L1363.83,125Z" style="fill:rgb(206,173,128);fill-rule:nonzero;"/>
            <path d="M1430,115L1365,115L1365.67,107L1429,107L1430,115Z" style="fill:rgb(206,173,128);fill-rule:nonzero;"/>
        </g>
    </g>
</svg>
