<?xml version="1.0" encoding="UTF-8" standalone="no"?>
<!DOCTYPE svg PUBLIC "-//W3C//DTD SVG 1.1//EN" "http://www.w3.org/Graphics/SVG/1.1/DTD/svg11.dtd">
<svg width="100%" height="100%" viewBox="0 0 610 300" version="1.1" xmlns="http://www.w3.org/2000/svg" xmlns:xlink="http://www.w3.org/1999/xlink" xml:space="preserve" xmlns:serif="http://www.serif.com/" style="fill-rule:evenodd;clip-rule:evenodd;stroke-linejoin:round;stroke-miterlimit:2;">
    <g id="water-right" transform="matrix(0.635,0,0,0.635,0.4,-4.8)">
        <g transform="matrix(1,0,0,1,0,-98.2422)">
            <g transform="matrix(1.5748,0,0,1.5748,-0.629921,369.871)">
                <path d="M278.936,12.301L203.43,5.715L199.826,11.666L122.766,3.38L116.866,12.39L54.011,5.395L51.229,10.09L0,3.103L0,132.316L306.07,132.316L306.07,3.11L283.811,0L278.936,12.301Z" style="fill:rgb(54,99,135);fill-rule:nonzero;"/>
            </g>
            <g transform="matrix(1.5748,0,0,1.5748,-0.629921,369.871)">
                <path d="M263.83,57.28L294.997,52.605L306.07,53.582L306.07,49.901L292.66,47.54L263.83,57.28Z" style="fill:rgb(79,131,163);fill-rule:nonzero;"/>
            </g>
            <g transform="matrix(1.5748,0,0,1.5748,-0.629921,369.871)">
                <path d="M288.102,95.98L247.294,86.241L226.028,95.98L249.018,91.305L288.102,95.98Z" style="fill:rgb(79,131,163);fill-rule:nonzero;"/>
            </g>
            <g transform="matrix(1.5748,0,0,1.5748,-0.629921,369.871)">
                <path d="M260.11,40.138L204.79,30.399L175.96,40.138L207.127,35.464L260.11,40.138Z" style="fill:rgb(79,131,163);fill-rule:nonzero;"/>
            </g>
            <g transform="matrix(1.5748,0,0,1.5748,-0.629921,369.871)">
                <path d="M191.976,85.824L151.168,76.085L129.903,85.824L152.893,81.149L191.976,85.824Z" style="fill:rgb(79,131,163);fill-rule:nonzero;"/>
            </g>
            <g transform="matrix(1.5748,0,0,1.5748,-0.629921,369.871)">
                <path d="M149.47,49.489L94.149,39.749L65.319,49.489L96.486,44.813L149.47,49.489Z" style="fill:rgb(79,131,163);fill-rule:nonzero;"/>
            </g>
            <g transform="matrix(1.5748,0,0,1.5748,-0.629921,369.871)">
                <path d="M81.335,91.999L40.528,82.259L19.262,91.999L42.252,87.324L81.335,91.999Z" style="fill:rgb(79,131,163);fill-rule:nonzero;"/>
            </g>
            <g transform="matrix(1.5748,0,0,1.5748,-0.629921,369.871)">
                <path d="M0,53.47L43.18,57.28L0,49.677L0,53.47Z" style="fill:rgb(79,131,163);fill-rule:nonzero;"/>
            </g>
        </g>
        <g transform="matrix(1,0,0,1,480.315,-98.2422)">
            <g transform="matrix(1.5748,0,0,1.5748,-0.629921,369.871)">
                <path d="M278.936,12.301L203.43,5.715L199.826,11.666L122.766,3.38L116.866,12.39L54.011,5.395L51.229,10.09L0,3.103L0,132.316L306.07,132.316L306.07,3.11L283.811,0L278.936,12.301Z" style="fill:rgb(54,99,135);fill-rule:nonzero;"/>
            </g>
            <g transform="matrix(1.5748,0,0,1.5748,-0.629921,369.871)">
                <path d="M263.83,57.28L294.997,52.605L306.07,53.582L306.07,49.901L292.66,47.54L263.83,57.28Z" style="fill:rgb(79,131,163);fill-rule:nonzero;"/>
            </g>
            <g transform="matrix(1.5748,0,0,1.5748,-0.629921,369.871)">
                <path d="M288.102,95.98L247.294,86.241L226.028,95.98L249.018,91.305L288.102,95.98Z" style="fill:rgb(79,131,163);fill-rule:nonzero;"/>
            </g>
            <g transform="matrix(1.5748,0,0,1.5748,-0.629921,369.871)">
                <path d="M260.11,40.138L204.79,30.399L175.96,40.138L207.127,35.464L260.11,40.138Z" style="fill:rgb(79,131,163);fill-rule:nonzero;"/>
            </g>
            <g transform="matrix(1.5748,0,0,1.5748,-0.629921,369.871)">
                <path d="M191.976,85.824L151.168,76.085L129.903,85.824L152.893,81.149L191.976,85.824Z" style="fill:rgb(79,131,163);fill-rule:nonzero;"/>
            </g>
            <g transform="matrix(1.5748,0,0,1.5748,-0.629921,369.871)">
                <path d="M149.47,49.489L94.149,39.749L65.319,49.489L96.486,44.813L149.47,49.489Z" style="fill:rgb(79,131,163);fill-rule:nonzero;"/>
            </g>
            <g transform="matrix(1.5748,0,0,1.5748,-0.629921,369.871)">
                <path d="M81.335,91.999L40.528,82.259L19.262,91.999L42.252,87.324L81.335,91.999Z" style="fill:rgb(79,131,163);fill-rule:nonzero;"/>
            </g>
            <g transform="matrix(1.5748,0,0,1.5748,-0.629921,369.871)">
                <path d="M0,53.47L43.18,57.28L0,49.677L0,53.47Z" style="fill:rgb(79,131,163);fill-rule:nonzero;"/>
            </g>
        </g>
        <g transform="matrix(1.5748,0,0,1.5748,325.354,232.779)">
            <g transform="matrix(1,0,0,1,-92,-44.5)">
                <g transform="matrix(0.979248,-0.202664,0.202664,0.979248,-9.80579,9.15702)">
                    <rect x="39.812" y="52.461" width="109" height="3" style="fill:rgb(53,45,39);"/>
                </g>
                <path d="M182.095,29.42L178.905,34.907L154.113,39.342L149.78,33.787L141.485,35.504L140.472,30.607L148.766,28.891L150.539,22.072L175.055,16.302L180.16,20.073L182.095,29.42Z" style="fill:rgb(244,242,237);fill-rule:nonzero;"/>
                <path d="M0.958,57.16L4.147,51.672L28.94,47.238L33.273,52.793L41.568,51.076L42.581,55.972L34.286,57.689L32.514,64.508L7.998,70.278L2.893,66.507L0.958,57.16Z" style="fill:rgb(244,242,237);fill-rule:nonzero;"/>
                <path d="M95.401,27.314L89.952,27.314L84.098,19.776L85.139,3.655L95.591,1.909L102.094,4.492L101.89,19.776L95.401,27.314Z" style="fill:rgb(170,139,126);fill-rule:nonzero;"/>
                <path d="M101.483,31.843L97.889,29.444L95.273,22.028L89.228,23.752L87.31,28.462L83.17,30.535L92.187,45.091L101.483,31.843Z" style="fill:rgb(170,139,126);fill-rule:nonzero;"/>
                <path d="M84.745,10.318L81.163,10.377L80.871,16.621L84.529,16.43L84.745,10.318Z" style="fill:rgb(170,139,126);fill-rule:nonzero;"/>
                <path d="M101.623,11.167L105.243,12.151L104.95,17.386L101.75,17.511L101.623,11.167Z" style="fill:rgb(170,139,126);fill-rule:nonzero;"/>
                <path d="M115.5,36L119.5,47L112.5,47L111,37L115.5,36Z" style="fill:rgb(114,89,75);fill-rule:nonzero;"/>
                <path d="M63.765,50.62L60.265,46.12L77.602,36.39L83.264,43.62L63.765,50.62Z" style="fill:rgb(170,139,126);fill-rule:nonzero;"/>
                <path d="M119.703,46.934L118.55,52.517L99.897,45.639L101.723,36.639L119.703,46.934Z" style="fill:rgb(170,139,126);fill-rule:nonzero;"/>
                <path d="M86.174,29.101L77.5,31.443L77.5,44.443L75,70.099L108,70.099L105.5,44.943L106.291,31.443L98.315,29.773L86.174,29.101Z" style="fill:rgb(248,187,28);fill-rule:nonzero;"/>
                <path d="M103.21,4.5L98.231,0.109L88.681,0L83.842,4.873L82.699,10.367L84.63,14.505L101.978,14.34L103.629,11.666L103.21,4.5Z" style="fill:rgb(42,43,42);fill-rule:nonzero;"/>
                <path d="M57,70.973L92,60.443L92,88.443L57,81.296L57,70.973Z" style="fill:rgb(174,32,37);fill-rule:nonzero;"/>
                <path d="M127,70.973L92,60.443L92,88.443L127,81.296L127,70.973Z" style="fill:rgb(114,14,26);fill-rule:nonzero;"/>
                <path d="M54,69.11L92,57.443L92,60.777L54,72.443L54,69.11Z" style="fill:rgb(239,156,116);fill-rule:nonzero;"/>
                <path d="M130,69.11L92,57.443L92,60.777L130,72.443L130,69.11Z" style="fill:rgb(174,32,37);fill-rule:nonzero;"/>
            </g>
        </g>
    </g>
</svg>
