<?xml version="1.0" encoding="UTF-8" standalone="no"?><!DOCTYPE svg PUBLIC "-//W3C//DTD SVG 1.1//EN" "http://www.w3.org/Graphics/SVG/1.1/DTD/svg11.dtd"><svg width="100%" height="100%" viewBox="0 0 35 47" version="1.1" xmlns="http://www.w3.org/2000/svg" xmlns:xlink="http://www.w3.org/1999/xlink" xml:space="preserve" xmlns:serif="http://www.serif.com/" style="fill-rule:evenodd;clip-rule:evenodd;stroke-linejoin:round;stroke-miterlimit:2;"><g id="krz-motorbike"><g><g><path d="M6.431,41.32l17.002,-0.101l0.002,-3.978l-0.707,1.089l0.011,2.36l-15.497,0.023l-0.038,-2.888l-0.802,-1.237l0.029,4.732Z" style="fill:#5d6061;"/><path d="M7.093,39.484l1.276,1.437l0.851,-0.077l-2.121,-2.412l-0.006,1.052Z" style="fill:#5d6061;"/><path d="M22.799,39.484l-1.276,1.437l-0.851,-0.077l2.121,-2.412l0.006,1.052Z" style="fill:#5d6061;"/></g><g><g id="johnny"><path d="M13.324,28.615l0.785,-0.369l0.416,-1.296l0.974,0.277l0.244,0.928l0.644,0.264l0.006,2.151l-2.939,-0.043l-0.13,-1.912Z" style="fill:#ceab97;fill-rule:nonzero;"/><g><path d="M16.385,25.27l0.346,0.006l-0.009,0.612l-0.457,0.242l0.12,-0.86Z" style="fill:#e1c5b5;"/><path d="M13.695,25.196l-0.345,-0.014l-0.026,0.612l0.443,0.266l-0.072,-0.864Z" style="fill:#e1c5b5;"/><path d="M13.836,23.48l-0.184,1.924l0.142,1.557l0.711,0.956l0.775,0.031l0.838,-0.841l0.312,-1.825l-0.025,-1.855l-1.12,-0.237l-1.449,0.29Z" style="fill:#e1c5b5;"/><path d="M13.749,24.039l2.704,-0.002l-0.038,-0.699l-0.721,-0.208l-1.217,0.054l-0.682,0.261l-0.046,0.594Z" style="fill:#cfae80;"/><path d="M13.749,24.039l1.334,0.442l1.37,-0.444l-0.038,-0.699l-0.721,-0.208l-1.217,0.054l-0.682,0.261l-0.046,0.594Z" style="fill:#cfae80;"/></g><path d="M13.938,25.029l2.33,0.092l0.233,-0.029l-0.01,0.252l-0.36,0.537l-0.718,-0.023l-0.178,-0.169l-0.297,-0.018l-0.179,0.15l-0.714,-0.042l-0.317,-0.614l0.035,-0.214l0.175,0.078Z" style="fill:#2a2a29;"/><g><path d="M14.207,27.943l0.294,0.613l0.83,-0.011l0.341,-0.659l0.084,0.275l0.631,0.258l0.026,0.326l-0.921,1.933l-1.148,0.026l-1.02,-1.354l0,-0.735l0.788,-0.378l0.095,-0.294Z" style="fill:#e4e2dc;"/><path d="M14.501,28.556l0.83,-0.011l-0.221,0.607l0.271,1.528l-0.138,1.234l-0.728,0.049l-0.171,-1.259l0.354,-1.558l-0.197,-0.59Z" style="fill:#49799e;"/><path d="M13.565,28.497l1.364,1.814l1.458,-1.892l1.095,0.913l0.199,7.941l-5.125,0.126l0.218,-8.53l0.791,-0.372Z" style="fill:#ef9d75;"/></g><path d="M11.372,29.399l2.275,-0.939l0.12,2.855l0.596,7.154l-1.99,0.233l-0.008,-1.119l-0.101,-4.981l-1.749,1.748l-1.503,-0.823l2.36,-4.128Z" style="fill:#564139;"/><path d="M16.304,28.376l2.287,1.009l1.356,3.829l-0.159,0.996l-2.393,-0.36l0.289,4.852l-1.916,-0.347l0.543,-6.964l-0.007,-3.015Z" style="fill:#564139;"/><path d="M11.375,32.82l0.295,-1.457l1.303,0.132l0.277,1.518l-1.875,-0.193Z" style="fill:#cfae80;"/></g></g><g><path d="M11.626,40.946l0.011,-1.462l0.79,0l-0.045,1.462l-0.756,0Z" style="fill:#5d6061;"/><path d="M16.943,40.946l0,-1.462l0.616,0l0.076,1.462l-0.692,0Z" style="fill:#5d6061;"/><path d="M9.336,35.185l1.584,-2.928l7.141,-0.05l1.596,2.709l-1.751,5.017l-6.634,-0.024l-1.936,-4.724Z" style="fill:#2a2a29;"/><path d="M9.336,35.185l10.321,-0.269l-1.751,5.017l-0.925,-0.003l-7.645,-4.745Z" style="fill-opacity:0.5;"/></g><g><path d="M4.76,31.625l-0.56,0.379l0.022,13.536l0.62,0.54l1.014,0l0.6,-0.609l-0.082,-13.536l-0.621,-0.31l-0.993,0Z" style="fill:#292b29;fill-rule:nonzero;"/><path d="M4.623,30.949l-0.45,0.688l-0.044,10.038l0.292,0.264l1.791,0.019l0.329,-0.293l-0.011,-10.083l-0.368,-0.616l-1.539,-0.017Z" style="fill:#c2beba;"/></g></g><g><g><path d="M22.765,35.765l0.094,-5.256l1.961,-3.36l2.077,-0.499l0.711,2.189l1.021,7.142l1.05,-0.092l0.148,-7.291l-1.453,-4.759l-5.112,-0.004l-2.27,5.898l0.646,6.202l1.127,-0.17Z" style="fill:#2a2a29;"/><path d="M28.03,31.79l1.283,-4.875l-0.702,-2.301l-2.885,-0.339l-2.925,0.757l-0.724,1.883l0.782,3.594l1.961,-3.36l2.077,-0.499l0.711,2.189l0.422,2.951Z" style="fill-opacity:0.5;"/><path d="M23.75,18.728l1.809,-0.647l0.964,-0.03l1.272,0.436l0.288,1.337l-1.063,0.617l-2.818,-0.008l-0.452,-1.705Z" style="fill:#cead99;"/><path d="M24.14,20.024l1.717,0.151l1.845,-0.254l0.666,4.693l-5.096,0l0.868,-4.59Z" style="fill:#4a4b73;"/><path d="M23.272,24.614l5.151,0.19l-0.329,-1.72l-4.643,0.581l-0.179,0.949Z" style="fill:#720f1b;fill-opacity:0.35;"/><path d="M23.644,23.084l4.031,-0.816l0.374,-1.431l-4.151,1.228l-0.254,1.019Z" style="fill:#720f1b;fill-opacity:0.35;"/><path d="M19.974,23.6l1.018,0.235l0.967,-1.86l1.477,-1.332l-0.65,4.13l1.441,-0.31l0.765,-3.551l-1.014,-2.302l-1.501,0.656l-1.391,2.137l-1.112,2.197Z" style="fill:#2a2a29;"/><path d="M31.474,23.835l-0.813,-2.959l-1.732,-1.951l-1.256,-0.489l-0.863,2.426l0.817,3.714l1.251,0.038l-0.465,-3.943l1.404,1.411l0.637,1.915l1.02,-0.162Z" style="fill:#2a2a29;"/><g><path d="M27.248,16.976l0.374,-0.004l0.009,0.571l-0.487,0.237l0.104,-0.804Z" style="fill:#e1c5b5;"/><path d="M24.571,15.59l-0.253,2.101l0.176,0.928l0.798,0.872l0.841,0.008l0.881,-0.804l0.283,-1.71l-0.083,-1.727l-1.153,-0.437l-1.49,0.769Z" style="fill:#e1c5b5;"/><path d="M25.802,14.395l-1.44,0.556l-0.443,2.971l0.156,1.843l0.774,-2.395l1.746,-1.825l0.901,-0.52l-1.694,-0.63Z" style="fill:#109ba8;"/></g></g><g><path d="M23.511,37.953l-2.946,0.396l0.26,-1.216l2.912,-0.233l-0.226,1.053Z" style="fill:#373837;fill-rule:nonzero;"/><path d="M27.164,37.779l3.431,0.039l-0.154,-1.004l-3.335,-0.154l0.058,1.119Z" style="fill:#373837;fill-rule:nonzero;"/><path d="M24.352,41.861l-0.929,-1.036l-0.136,-9.443l1.131,-1.634l2.59,-0.015l1.157,1.841l-0.009,9.171l-0.986,1.161l-2.818,-0.045Z" style="fill:#c2beba;"/><path d="M25.146,31.625l-0.559,0.379l0.021,13.536l0.621,0.54l1.014,0l0.599,-0.609l-0.082,-13.536l-0.62,-0.31l-0.994,0Z" style="fill:#292b29;fill-rule:nonzero;"/><path d="M24.952,30.966l-0.45,0.688l-0.013,1.434l2.382,-0.009l-0.012,-1.48l-0.368,-0.616l-1.539,-0.017Z" style="fill:#e4e2dc;"/></g><g><path d="M25.281,29.776l-0.085,-1.648l0.974,0.001l0.065,1.635l-0.954,0.012Z" style="fill:#5d6061;fill-rule:nonzero;"/><path d="M25.443,26.148l-0.101,-1.55l0.828,0.001l-0.078,1.534l-0.649,0.015Z" style="fill:#5d6061;fill-rule:nonzero;"/><path d="M25.354,24.076l0.875,-0.01l2.042,0.463l-0.126,0.503l-1.939,-0.319l-0.863,-0.01l-2.03,0.28l-0.124,-0.555l2.165,-0.352Z" style="fill:#5d6061;fill-rule:nonzero;"/><path d="M23.525,24.954l0.208,4.098l1.532,0.201l0.95,-0.002l1.749,0.037l0.191,-4.263l-0.541,-0.165l-0.229,3.777l-3.08,-0.105l-0.168,-3.735l-0.612,0.157Z" style="fill:#5d6061;"/><path d="M23.535,24.952l0.605,-0.083l0.165,3.663l-0.77,-3.58Z" style="fill-opacity:0.5;"/><path d="M25.349,24.703l0.815,0.009l-0.068,1.346l-0.747,-1.355Z" style="fill-opacity:0.5;"/><path d="M27.608,24.943l0.547,0.089l-0.171,3.807l-0.376,-3.896Z" style="fill-opacity:0.5;"/><path d="M28.046,25.356l0.07,-1.081l4.422,0.361l-0.184,1.297l-4.308,-0.577Z" style="fill:#2a2a29;fill-rule:nonzero;"/><path d="M23.644,25.248l-0.071,-1.081l-4.421,0.361l0.183,1.296l4.309,-0.576Z" style="fill:#2a2a29;fill-rule:nonzero;"/><path d="M24.629,23.733l-0.041,0.569l0.897,-0.143l-0.244,-0.48l-0.612,0.054Z" style="fill:#2a2a29;"/><path d="M26.271,24.171l0.884,0.202l-0.132,-0.674l-0.426,-0.095l-0.326,0.567Z" style="fill:#2a2a29;"/><path d="M23.947,26.908l0.557,-1.333l1.25,-0.462l1.321,0.516l0.489,1.24l-0.457,1.18l-1.299,0.668l-1.308,-0.655l-0.553,-1.154Z" style="fill:#ffefce;"/></g><path d="M19.864,24.005l0.29,0.908l1.466,0.367l-0.173,-0.927l0.5,-0.039l-0.018,-0.27l-1.988,-0.444l-0.077,0.405Z" style="fill:#dfc3b5;fill-rule:nonzero;"/><path d="M31.398,24.672l-0.174,0.309l-1.467,0.366l0.174,-0.926l-0.498,-0.032l0.015,-0.277l2.026,-0.232l-0.076,0.792Z" style="fill:#dfc3b5;fill-rule:nonzero;"/><g><path d="M21.638,35.935l-0.108,2.346l0.562,1.203l0.618,-0.039l0.328,-1.119l-0.273,-2.561l-1.127,0.17Z" style="fill:#2a2a29;fill-rule:nonzero;"/><path d="M29.679,35.889l0.71,2.191l-0.535,0.889l-0.724,0.058l-0.532,-0.777l0.031,-2.269" style="fill:#2a2a29;fill-rule:nonzero;"/><path d="M22.765,35.765l-1.127,0.17l-0.257,-2.47l1.431,-0.326l-0.047,2.626Z" style="fill:#5d6061;"/><path d="M29.679,35.889l-1.05,0.092l-0.356,-2.494l1.455,-0.022l-0.049,2.424Z" style="fill:#5d6061;"/></g></g></g></svg>