<?xml version="1.0" encoding="UTF-8" standalone="no"?>
<!DOCTYPE svg PUBLIC "-//W3C//DTD SVG 1.1//EN" "http://www.w3.org/Graphics/SVG/1.1/DTD/svg11.dtd">
<svg width="100%" height="100%" viewBox="0 0 120 120" version="1.1" xmlns="http://www.w3.org/2000/svg" xmlns:xlink="http://www.w3.org/1999/xlink" xml:space="preserve" xmlns:serif="http://www.serif.com/" style="fill-rule:evenodd;clip-rule:evenodd;stroke-linejoin:round;stroke-miterlimit:2;">
    <g id="sharrow-outbound" transform="matrix(1.27,0,0,1.27,-0.96,-0.96)">
        <g>
            <path d="M78.4,32.4L78.4,28.7L48,14.7L17.6,28.7L17.6,32.4L48,18.3L78.4,32.4Z" style="fill:white;fill-rule:nonzero;"/>
            <path d="M78.4,39.4L78.4,35.7L48,21.7L17.6,35.7L17.6,39.4L48,25.3L78.4,39.4Z" style="fill:white;fill-rule:nonzero;"/>
            <path d="M66.4,54.9C65.3,54.9 64.1,55.1 63,55.4L60.3,48.1L62.5,42.9L67.2,42.9L67.2,39.5L53.2,40.6L53.2,43L58,43L56.6,46.1L37.6,46.1L38.6,43.1L41,43.1L41,40.5L34.8,40.5L29.7,54.9L29.6,54.9C22.8,54.9 17.3,60.4 17.3,67.2C17.3,74 22.8,79.5 29.6,79.5C36.4,79.5 41.9,74 41.9,67.2C41.9,62.2 38.9,57.7 34.3,55.8L35.8,51.8L45.6,64.8L45.6,68.5L54.2,68.5C54.9,75.3 61,80.2 67.8,79.5C74.6,78.8 79.5,72.7 78.8,65.9C78,59.6 72.7,54.9 66.4,54.9ZM37.9,67.2C37.9,71.8 34.2,75.5 29.6,75.5C25,75.5 21.3,71.8 21.3,67.2C21.3,63.2 24.2,59.7 28.2,59L24.8,68.5L29.6,68.5L32.9,59.6C35.9,60.9 37.9,63.9 37.9,67.2ZM38.3,50.2L54.6,50.2L48.8,62.9L38.3,50.2ZM57.7,53.9L59.1,57.3C56.6,59.2 54.9,61.9 54.4,65L52.4,65L57.7,53.9ZM62.1,65L58.5,65C58.9,63.6 59.6,62.3 60.6,61.3L62.1,65ZM66.4,75.4C62.4,75.4 58.9,72.5 58.2,68.5L66.5,68.5L66.5,64.8L64.4,59.2C68.8,58.1 73.3,60.8 74.4,65.2C75.5,69.6 72.8,74.1 68.4,75.2C67.8,75.4 67.1,75.5 66.4,75.4Z" style="fill:white;fill-rule:nonzero;"/>
        </g>
    </g>
</svg>
