<?xml version="1.0" encoding="UTF-8" standalone="no"?>
<!DOCTYPE svg PUBLIC "-//W3C//DTD SVG 1.1//EN" "http://www.w3.org/Graphics/SVG/1.1/DTD/svg11.dtd">
<svg width="100%" height="100%" viewBox="0 0 48 48" version="1.1" xmlns="http://www.w3.org/2000/svg" xmlns:xlink="http://www.w3.org/1999/xlink" xml:space="preserve" style="fill-rule:evenodd;clip-rule:evenodd;stroke-linejoin:round;stroke-miterlimit:1.41421;">
    <g transform="matrix(0.325987,-4.71378e-19,-4.71378e-19,0.327912,-0.477246,-9.27782)">
        <path d="M13.997,105.78C8.503,105.822 3.849,102.548 2.133,97.438C2.067,97.24 2.01,97.048 1.955,96.855C0.085,90.311 3.711,83.465 10.21,81.273L114.45,46.35C115.717,45.987 116.993,45.802 118.257,45.794C123.897,45.75 128.679,49.096 130.437,54.314L130.593,54.818C132.543,61.634 127.698,67.718 121.893,69.668C121.889,69.671 120.833,70.028 18.231,105.059C16.844,105.53 15.421,105.768 13.997,105.78Z" style="fill:rgb(112,202,219);fill-rule:nonzero;"/>
        <path d="M31.372,157.045C25.835,157.085 21.165,153.857 19.469,148.82C19.405,148.628 19.344,148.435 19.289,148.241C17.393,141.619 21.015,134.701 27.536,132.506L131.78,97.263C133.127,96.813 134.518,96.583 135.917,96.57C141.469,96.528 146.347,99.92 148.068,105.014L148.228,105.544C149.235,109.065 148.64,113.022 146.638,116.145C145.146,118.467 140.44,120.511 140.44,120.511L35.8,156.29C34.342,156.777 32.855,157.034 31.372,157.047L31.372,157.045L31.372,157.045Z" style="fill:rgb(224,23,101);fill-rule:nonzero;"/>
        <path d="M118.148,157.268C112.588,157.311 107.665,153.803 105.893,148.545L71.103,45.205L70.929,44.625C69.044,38.035 72.669,31.161 79.166,28.971C80.466,28.534 81.81,28.306 83.163,28.294C85.173,28.279 87.118,28.732 88.95,29.637C92.013,31.162 94.304,33.787 95.399,37.029L130.186,140.36L130.287,140.692C132.241,147.534 128.624,154.412 122.127,156.602C120.84,157.031 119.5,157.256 118.148,157.268Z" style="fill:rgb(232,167,35);fill-rule:nonzero;"/>
        <path d="M66.435,174.674C60.875,174.717 55.948,171.209 54.175,165.944L19.394,62.608C19.334,62.418 19.274,62.228 19.216,62.033C17.336,55.445 20.95,48.57 27.445,46.378C28.74,45.948 30.079,45.721 31.43,45.71C36.991,45.666 41.915,49.173 43.687,54.433L78.469,157.773C78.534,157.953 78.593,158.152 78.646,158.342C80.53,164.935 76.914,171.814 70.409,174.006C69.117,174.437 67.78,174.662 66.431,174.673L66.435,174.673L66.435,174.674Z" style="fill:rgb(62,184,144);fill-rule:nonzero;"/>
        <path d="M100.997,133.996L125.255,125.702L117.325,102.152L93.039,110.359L100.997,133.996Z" style="fill:rgb(204,32,39);fill-rule:nonzero;"/>
        <path d="M49.364,151.65L73.62,143.357L65.63,119.627L41.35,127.837L49.364,151.65Z" style="fill:rgb(54,18,56);fill-rule:nonzero;"/>
        <path d="M83.727,82.7L107.987,74.417L100.15,51.142L75.845,59.285L83.727,82.7Z" style="fill:rgb(101,134,58);fill-rule:nonzero;"/>
        <path d="M32.088,100.33L56.348,92.047L48.415,68.475L24.11,76.617L32.088,100.33Z" style="fill:rgb(26,147,125);fill-rule:nonzero;"/>
    </g>
</svg>
