<?xml version="1.0" encoding="UTF-8" standalone="no"?>
<!DOCTYPE svg PUBLIC "-//W3C//DTD SVG 1.1//EN" "http://www.w3.org/Graphics/SVG/1.1/DTD/svg11.dtd">
<svg width="100%" height="100%" viewBox="0 0 48 48" version="1.1" xmlns="http://www.w3.org/2000/svg" xmlns:xlink="http://www.w3.org/1999/xlink" xml:space="preserve" style="fill-rule:evenodd;clip-rule:evenodd;stroke-linejoin:round;stroke-miterlimit:1.41421;">
    <g transform="matrix(0.571429,0,0,0.571429,-4.57143,-4.57143)">
        <path d="M35.031,13C31.131,13 28,16.131 28,20.031L28,23L62.969,23C69.01,23 74,27.99 74,34.031L74,61.969C74,63.445 73.695,64.863 73.156,66.156L82,75L82,57L84.969,57C88.869,57 92,53.869 92,49.969L92,20.031C92,16.131 88.869,13 84.969,13L35.031,13Z" style="fill:rgb(220,220,220);"/>
    </g>
    <g transform="matrix(0.571429,0,0,0.571429,-4.57143,-4.57143)">
        <path d="M15.031,27C11.131,27 8,30.131 8,34.031L8,61.969C8,65.869 11.131,69 15.031,69L18,69L18,87L36,69L62.969,69C66.869,69 70,65.869 70,61.969L70,34.031C70,30.131 66.869,27 62.969,27L15.031,27Z" style="fill:rgb(92,158,188);"/>
    </g>
    <g transform="matrix(0.571429,0,0,0.571429,-4.57143,-4.57143)">
        <path d="M25,44C27.209,44 29,45.791 29,48C29,50.209 27.209,52 25,52C22.791,52 21,50.209 21,48C21,45.791 22.791,44 25,44Z" style="fill:white;"/>
    </g>
    <g transform="matrix(0.571429,0,0,0.571429,-4.57143,-4.57143)">
        <path d="M39,44C41.209,44 43,45.791 43,48C43,50.209 41.209,52 39,52C36.791,52 35,50.209 35,48C35,45.791 36.791,44 39,44Z" style="fill:white;"/>
    </g>
    <g transform="matrix(0.571429,0,0,0.571429,-4.57143,-4.57143)">
        <path d="M53,44C55.209,44 57,45.791 57,48C57,50.209 55.209,52 53,52C50.791,52 49,50.209 49,48C49,45.791 50.791,44 53,44Z" style="fill:white;"/>
    </g>
</svg>
