<svg clip-rule="evenodd" fill-rule="evenodd" stroke-linejoin="round" stroke-miterlimit="2" viewBox="0 0 512 512" xmlns="http://www.w3.org/2000/svg"><g fill-rule="nonzero"><path d="m82.7 5h-65.4c-4.5 0-8.1 3.6-8.1 8.1v53.1c0 2.8 1.4 5.4 3.8 6.9l32.7 20.7c2.7 1.7 6 1.7 8.7 0l32.6-20.7c2.4-1.5 3.8-4.1 3.8-6.9v-53.1c0-4.5-3.6-8.1-8.1-8.1z" fill="#109ba8" transform="matrix(5.68416 0 0 5.68416 -28.2084 -28.4212)"/><path d="m416 208h-144v-144c0-17.67-14.33-32-32-32h-32c-17.67 0-32 14.33-32 32v144h-144c-17.67 0-32 14.33-32 32v32c0 17.67 14.33 32 32 32h144v144c0 17.67 14.33 32 32 32h32c17.67 0 32-14.33 32-32v-144h144c17.67 0 32-14.33 32-32v-32c0-17.67-14.33-32-32-32z" fill="#fff" transform="matrix(.586652 0 0 .586652 124.589 89.1538)"/></g></svg>