<?xml version="1.0" encoding="UTF-8" standalone="no"?>
<!DOCTYPE svg PUBLIC "-//W3C//DTD SVG 1.1//EN" "http://www.w3.org/Graphics/SVG/1.1/DTD/svg11.dtd">
<svg width="100%" height="100%" viewBox="0 0 60 80" version="1.1" xmlns="http://www.w3.org/2000/svg" xmlns:xlink="http://www.w3.org/1999/xlink" xml:space="preserve" xmlns:serif="http://www.serif.com/" style="fill-rule:evenodd;clip-rule:evenodd;stroke-linejoin:round;stroke-miterlimit:2;">
    <g id="drainage-channel">
        <g transform="matrix(0.759494,0,0,0.759494,-8.21565e-15,75.8544)">
            <path d="M0,-39.5L7.9,-39.5L31.6,-7.9L47.4,-7.9L71.1,-39.5L79,-39.5L79,5.458L0,5.458L0,-39.5Z" style="fill:rgb(216,211,203);fill-rule:nonzero;"/>
        </g>
        <g transform="matrix(0.759494,0,0,0.759494,24,45.8544)">
            <path d="M0,35.55L-27.65,0L-23.7,0" style="fill:rgb(193,190,187);fill-rule:nonzero;"/>
        </g>
        <g transform="matrix(0.759494,0,0,0.759494,6,72.8544)">
            <path d="M0,-35.55L23.7,-3.95L23.7,0" style="fill:rgb(231,230,222);fill-rule:nonzero;"/>
        </g>
        <g transform="matrix(0.759494,0,0,0.759494,-480,-203.146)">
            <rect x="663.6" y="359.45" width="15.8" height="3.95" style="fill:rgb(231,230,222);"/>
        </g>
        <g transform="matrix(0.759494,0,0,0.759494,57,72.8544)">
            <path d="M0,-35.55L-27.65,0L-27.65,-3.95" style="fill:rgb(231,230,222);fill-rule:nonzero;"/>
        </g>
        <g transform="matrix(0.759494,0,0,0.759494,36,45.8544)">
            <path d="M0,31.6L23.7,0L27.65,0" style="fill:rgb(245,243,233);fill-rule:nonzero;"/>
        </g>
    </g>
</svg>
