<?xml version="1.0" encoding="UTF-8" standalone="no"?>
<!DOCTYPE svg PUBLIC "-//W3C//DTD SVG 1.1//EN" "http://www.w3.org/Graphics/SVG/1.1/DTD/svg11.dtd">
<svg width="100%" height="100%" viewBox="0 0 60 80" version="1.1" xmlns="http://www.w3.org/2000/svg" xmlns:xlink="http://www.w3.org/1999/xlink" xml:space="preserve" xmlns:serif="http://www.serif.com/" style="fill-rule:evenodd;clip-rule:evenodd;stroke-linejoin:round;stroke-miterlimit:2;">
    <g id="street-vendor">
        <g transform="matrix(0.248575,-9.48079e-20,-3.49091e-19,0.0678962,0.116218,71.9829)">
            <rect x="-0.468" y="0.582" width="241.376" height="117.496" style="fill:rgb(216,211,203);"/>
        </g>
        <g transform="matrix(0.351303,0,0,0.351303,5.4088,-5.12563)">
            <g id="vendor-table">
                <g transform="matrix(1.27,0,0,1.27,83.2375,82.2068)">
                    <path d="M0,-6.076L-2.722,-7.89L-4.701,-13.498L-9.27,-12.195L-10.72,-8.633L-13.853,-7.065L-7.22,7.422L0,-6.076Z" style="fill:rgb(201,172,154);fill-rule:nonzero;"/>
                </g>
                <g transform="matrix(1.27,0,0,1.27,92.9707,133.737)">
                    <path d="M0,-12.067L0.996,-6.767L-0.376,0L-2.846,-1.386L-2.139,-7.206L-2.302,-5.442L-4.599,-6.013L-2.661,-10.324L0,-12.067Z" style="fill:rgb(201,172,154);fill-rule:nonzero;"/>
                </g>
                <g transform="matrix(-0.173302,1.25812,1.25812,0.173302,74.1956,212.841)">
                    <path d="M-2.15,-6.539L6.343,-6.539L5.405,-0.814L-2.793,-1.875L-2.15,-6.539Z" style="fill:rgb(113,150,79);fill-rule:nonzero;"/>
                </g>
                <g transform="matrix(1.27,0,0,1.27,75.0959,219.985)">
                    <path d="M0,-9.715L0.595,0.012L4.63,0.012L5.299,-1.885L4.108,-9.727L0,-9.715Z" style="fill:rgb(113,150,79);fill-rule:nonzero;"/>
                </g>
                <g transform="matrix(0.174381,1.25797,1.25797,-0.174381,104.062,93.0347)">
                    <path d="M-9.484,-14.377L20.339,-14.377L19.652,-11.325L-13.256,-10.45L-9.484,-14.377Z" style="fill:rgb(201,172,154);fill-rule:nonzero;"/>
                </g>
                <g transform="matrix(1.27,0,0,1.27,74.8791,207.631)">
                    <path d="M0,-45.243L0.171,-0.035L4.279,0L9.54,-45.243" style="fill:rgb(201,172,154);fill-rule:nonzero;"/>
                </g>
                <g transform="matrix(1.27,0,0,1.27,73.6994,209.002)">
                    <path d="M0,-62.05L1.1,-43.434L-1.085,0L-5.794,0L-7.659,-43.22L0,-62.05Z" style="fill:rgb(165,140,128);fill-rule:nonzero;"/>
                </g>
                <g transform="matrix(1.27,0,0,1.27,58.2676,75.6242)">
                    <path d="M0,22.275L0.964,0L3.786,3.932L3.186,19.89" style="fill:rgb(201,172,154);fill-rule:nonzero;"/>
                </g>
                <g transform="matrix(1.27,0,0,1.27,59.5386,159.822)">
                    <path d="M0,-66.347L5.476,-68.606L7.661,-63.225L15.393,-63.001L17.994,-67.797L22.978,-64.375L19.631,-59.953L19.216,-41.327L26.138,2.035L-2.527,2.259L4.089,-40.847L2.828,-62.332L0,-66.347Z" style="fill:rgb(113,151,79);fill-rule:nonzero;"/>
                </g>
                <g transform="matrix(1.27,0,0,1.27,84.9084,47.8773)">
                    <path d="M0,14.485L-1.88,0.119L-8.571,-3.166L-8.563,-3.282L-15.126,0.799L-16.405,14.166L-14.727,17.286L-2.259,17.767L0,14.485Z" style="fill:rgb(85,67,59);fill-rule:nonzero;"/>
                </g>
                <g transform="matrix(0.19731,1.25458,1.25458,-0.19731,101.925,142.374)">
                    <path d="M-27.007,-9.598L14.458,-9.598L10.225,-37.95L-29.032,-25.564L-27.007,-9.598Z" style="fill:rgb(229,227,222);fill-rule:nonzero;"/>
                </g>
                <g transform="matrix(-1.27,0,0,1.27,63.9928,109.166)">
                    <path d="M-16.469,2.641L0,2.641L-0.48,0L-15.989,0L-16.469,2.641Z" style="fill:rgb(85,67,59);fill-rule:nonzero;"/>
                </g>
                <g transform="matrix(1.27,0,0,1.27,72.8209,51.0683)">
                    <path d="M0,15.254L3.268,15.254L6.788,10.729L6.159,1.048L-0.119,0L-4.021,1.552L-3.895,10.729L0,15.254Z" style="fill:rgb(201,172,154);fill-rule:nonzero;"/>
                </g>
                <g transform="matrix(1.27,0,0,1.27,58.6335,115.891)">
                    <path d="M0,-12.784L-7.9,-1.126L-6.221,0L2.898,-11.816" style="fill:rgb(201,172,154);fill-rule:nonzero;"/>
                </g>
                <g transform="matrix(-1.01373,0.76502,0.76502,1.01373,43.2141,118.39)">
                    <path d="M-5.91,1.996L-2.617,1.996L-1.168,-2.642L-2.622,-2.991L-5.248,0.086" style="fill:rgb(201,172,154);fill-rule:nonzero;"/>
                </g>
                <g transform="matrix(0.567961,-1.13592,-1.13592,-0.567961,44.9175,118.503)">
                    <path d="M0.417,4.625L4.833,4.625L6.6,1.092L3.95,-2.441L0.417,4.625Z" style="fill:rgb(160,46,44);fill-rule:nonzero;"/>
                </g>
                <g transform="matrix(0.567961,-1.13592,-1.13592,-0.567961,42.3775,140.296)">
                    <path d="M0.417,4.625L4.833,4.625L6.6,1.092L3.95,-2.441L0.417,4.625Z" style="fill:rgb(228,159,123);fill-rule:nonzero;"/>
                </g>
                <g transform="matrix(0.567961,-1.13592,-1.13592,-0.567961,79.652,145.376)">
                    <path d="M0.417,4.625L4.833,4.625L6.6,1.092L3.95,-2.441L0.417,4.625Z" style="fill:rgb(75,128,70);fill-rule:nonzero;"/>
                </g>
                <g transform="matrix(-0.567961,1.13592,1.13592,0.567961,66.6021,132.476)">
                    <path d="M2.184,-9.249L11.016,-9.249L3.95,4.882L-1.349,-2.184L2.184,-9.249Z" style="fill:rgb(252,232,135);fill-rule:nonzero;"/>
                </g>
                <g transform="matrix(0.567961,-1.13592,-1.13592,-0.567961,84.732,140.296)">
                    <path d="M0.417,4.625L4.833,4.625L6.6,1.092L3.95,-2.441L0.417,4.625Z" style="fill:rgb(147,184,115);fill-rule:nonzero;"/>
                </g>
                <g transform="matrix(0.567961,-1.13592,-1.13592,-0.567961,99.972,140.296)">
                    <path d="M0.417,4.625L4.833,4.625L6.6,1.092L3.95,-2.441L0.417,4.625Z" style="fill:rgb(147,184,115);fill-rule:nonzero;"/>
                </g>
                <g transform="matrix(0.567961,-1.13592,-1.13592,-0.567961,88.542,142.836)">
                    <path d="M0.417,4.625L4.833,4.625L6.6,1.092L3.95,-2.441L0.417,4.625Z" style="fill:rgb(75,128,70);fill-rule:nonzero;"/>
                </g>
                <g transform="matrix(0.567961,-1.13592,-1.13592,-0.567961,94.892,144.106)">
                    <path d="M0.417,4.625L4.833,4.625L6.6,1.092L3.95,-2.441L0.417,4.625Z" style="fill:rgb(113,151,79);fill-rule:nonzero;"/>
                </g>
                <g transform="matrix(0.567961,-1.13592,-1.13592,-0.567961,102.512,142.836)">
                    <path d="M0.417,4.625L4.833,4.625L6.6,1.092L3.95,-2.441L0.417,4.625Z" style="fill:rgb(75,128,70);fill-rule:nonzero;"/>
                </g>
                <g transform="matrix(0.567961,-1.13592,-1.13592,-0.567961,34.948,140.296)">
                    <path d="M0.417,4.625L4.833,4.625L6.6,1.092L3.95,-2.441L0.417,4.625Z" style="fill:rgb(228,159,123);fill-rule:nonzero;"/>
                </g>
                <g transform="matrix(0.567961,-1.13592,-1.13592,-0.567961,29.868,145.376)">
                    <path d="M0.417,4.625L4.833,4.625L6.6,1.092L3.95,-2.441L0.417,4.625Z" style="fill:rgb(160,46,44);fill-rule:nonzero;"/>
                </g>
                <g transform="matrix(0.567961,-1.13592,-1.13592,-0.567961,37.488,142.836)">
                    <path d="M0.417,4.625L4.833,4.625L6.6,1.092L3.95,-2.441L0.417,4.625Z" style="fill:rgb(119,39,44);fill-rule:nonzero;"/>
                </g>
                <g transform="matrix(0.567961,-1.13592,-1.13592,-0.567961,46.1875,142.836)">
                    <path d="M0.417,4.625L4.833,4.625L6.6,1.092L3.95,-2.441L0.417,4.625Z" style="fill:rgb(160,46,44);fill-rule:nonzero;"/>
                </g>
                <g transform="matrix(0.567961,-1.13592,-1.13592,-0.567961,110.132,142.836)">
                    <path d="M0.417,4.625L4.833,4.625L6.6,1.092L3.95,-2.441L0.417,4.625Z" style="fill:rgb(147,184,115);fill-rule:nonzero;"/>
                </g>
                <g transform="matrix(1.27,0,0,1.27,14.8185,219.676)">
                    <path d="M0,-55.3L7.9,-55.3L7.9,0L0,-55.3Z" style="fill:rgb(122,112,93);fill-rule:nonzero;"/>
                </g>
                <g transform="matrix(1.27,0,0,1.27,14.8185,219.676)">
                    <path d="M0,-55.3L7.9,0L0,0L0,-55.3Z" style="fill:rgb(148,137,118);fill-rule:nonzero;"/>
                </g>
                <g transform="matrix(1.27,0,0,1.27,115.148,219.676)">
                    <path d="M0,-55.3L7.9,-55.3L7.9,0L0,-55.3Z" style="fill:rgb(122,112,93);fill-rule:nonzero;"/>
                </g>
                <g transform="matrix(1.27,0,0,1.27,115.148,219.676)">
                    <path d="M0,-55.3L7.9,0L0,0L0,-55.3Z" style="fill:rgb(148,137,118);fill-rule:nonzero;"/>
                </g>
                <g transform="matrix(-1.27,0,0,1.27,1534.82,-447.842)">
                    <rect x="1106" y="462.405" width="94.8" height="7.9" style="fill:rgb(148,137,118);"/>
                </g>
            </g>
        </g>
    </g>
</svg>
