<?xml version="1.0" encoding="UTF-8" standalone="no"?>
<!DOCTYPE svg PUBLIC "-//W3C//DTD SVG 1.1//EN" "http://www.w3.org/Graphics/SVG/1.1/DTD/svg11.dtd">
<svg width="100%" height="100%" viewBox="0 0 60 80" version="1.1" xmlns="http://www.w3.org/2000/svg" xmlns:xlink="http://www.w3.org/1999/xlink" xml:space="preserve" xmlns:serif="http://www.serif.com/" style="fill-rule:evenodd;clip-rule:evenodd;stroke-linejoin:round;stroke-miterlimit:2;">
    <g id="temporary">
        <g transform="matrix(0.248575,-9.50748e-20,-3.49091e-19,0.0680873,0.116218,71.9604)">
            <rect x="-0.468" y="0.582" width="241.376" height="117.496" style="fill:rgb(41,43,41);"/>
        </g>
        <g transform="matrix(0.842105,0,0,0.842105,19.8946,31.5791)">
            <g transform="matrix(0.620845,0,0,0.798298,-21.756,-85.3156)">
                <path d="M71.5,161L38.16,161L35.043,167L73.7,167L71.5,161Z" style="fill:rgb(168,109,81);fill-rule:nonzero;"/>
            </g>
            <g transform="matrix(0.620845,0,0,0.798298,-21.756,-85.3156)">
                <path d="M51.11,120.547L41.662,160.999L67.5,160.999L58.421,119.398L51.11,120.547Z" style="fill:rgb(239,156,116);fill-rule:nonzero;"/>
            </g>
            <g transform="matrix(1,0,0,1,0,-120)">
                <path d="M8.3,140.142L16.316,140.611L17.954,150.267L6.291,151.203L8.3,140.142Z" style="fill:rgb(244,242,237);"/>
            </g>
        </g>
    </g>
</svg>
