<?xml version="1.0" encoding="UTF-8" standalone="no"?>
<!DOCTYPE svg PUBLIC "-//W3C//DTD SVG 1.1//EN" "http://www.w3.org/Graphics/SVG/1.1/DTD/svg11.dtd">
<svg width="100%" height="100%" viewBox="0 0 288 312" version="1.1" xmlns="http://www.w3.org/2000/svg" xmlns:xlink="http://www.w3.org/1999/xlink" xml:space="preserve" xmlns:serif="http://www.serif.com/" style="fill-rule:evenodd;clip-rule:evenodd;stroke-linejoin:round;stroke-miterlimit:2;">
    <g id="brt-bus-outbound">
        <g transform="matrix(0.459284,0,0,0.459284,21.3343,42.4)">
            <path d="M26.56,224.93L0,215.8L0,80.43L26.56,71.51L26.56,224.93Z" style="fill:rgb(30,30,28);fill-rule:nonzero;"/>
        </g>
        <g transform="matrix(0.459284,0,0,0.459284,21.3343,42.4)">
            <path d="M26.56,83.41L48.24,82.13L48.45,134.83L54.61,137L53.12,71.51L26.56,71.51L26.56,83.41Z" style="fill:rgb(30,30,28);fill-rule:nonzero;"/>
        </g>
        <g transform="matrix(0.459284,0,0,0.459284,21.3343,42.4)">
            <path d="M507.6,71.51L534.16,80.43L534.16,215.8L507.6,224.93L507.6,71.51Z" style="fill:rgb(30,30,28);fill-rule:nonzero;"/>
        </g>
        <g transform="matrix(0.459284,0,0,0.459284,21.3343,42.4)">
            <path d="M507.6,71.51L481,71.51L479.55,137L485.71,134.87L485.92,82.17L507.6,83.45L507.6,71.51Z" style="fill:rgb(30,30,28);fill-rule:nonzero;"/>
        </g>
        <g transform="matrix(0.459284,0,0,0.459284,21.3343,42.4)">
            <path d="M114.51,587L168.06,471.83L124.28,429.33" style="fill:rgb(43,43,43);fill-rule:nonzero;"/>
        </g>
        <g transform="matrix(0.459284,0,0,0.459284,21.3343,42.4)">
            <path d="M54.79,429.36L67.76,587L114.51,587L124.28,429.33L54.79,429.36Z" style="fill:rgb(93,96,97);fill-rule:nonzero;"/>
        </g>
        <g transform="matrix(0.459284,0,0,0.459284,21.3343,42.4)">
            <path d="M419.44,587L365.89,471.86L409.67,429.36" style="fill:rgb(43,43,43);fill-rule:nonzero;"/>
        </g>
        <g transform="matrix(0.459284,0,0,0.459284,21.3343,42.4)">
            <path d="M479.16,429.36L466.19,587L419.44,587L409.67,429.33L479.16,429.36Z" style="fill:rgb(93,96,97);fill-rule:nonzero;"/>
        </g>
        <g transform="matrix(0.459284,0,0,0.459284,21.3343,42.4)">
            <path d="M486,53.23L466.41,24.55L67.54,24.55L48,53.23L36.73,480.15L57.34,540.28L476.82,540.28L497.43,480.15L486,53.23Z" style="fill:rgb(249,188,39);fill-rule:nonzero;"/>
        </g>
        <g transform="matrix(0.459284,0,0,0.459284,21.3343,42.4)">
            <path d="M101.12,24.65L105.37,12.32L428.58,12.32L432.83,24.65L101.12,24.65Z" style="fill:rgb(116,91,77);fill-rule:nonzero;"/>
        </g>
        <g transform="matrix(0.459284,0,0,0.459284,21.3343,42.4)">
            <path d="M241.58,12.32L245.83,0L288.12,0L292.37,12.32L241.58,12.32Z" style="fill:rgb(54,46,40);fill-rule:nonzero;"/>
        </g>
        <g transform="matrix(0.459284,0,0,0.459284,21.3343,42.4)">
            <path d="M391.82,50.9L142.34,50.9L141.49,92.12L392.67,92.12L391.82,50.9Z" style="fill:rgb(36,35,56);fill-rule:nonzero;"/>
        </g>
        <g transform="matrix(0.459284,0,0,0.459284,21.3343,42.4)">
            <path d="M159.84,87.82L159.62,55.2L166.3,55.2L166.3,81.35L177.15,81.4L177.15,87.82L159.84,87.82Z" style="fill:rgb(249,188,39);fill-rule:nonzero;"/>
        </g>
        <g transform="matrix(0.459284,0,0,0.459284,21.3343,42.4)">
            <path d="M184.45,55.41L184.51,73L201.8,73.23L201.86,87.83L208.31,87.77L208.31,55.47L201.63,55.47L201.63,66.7L190.73,66.7L190.73,55.47L184.45,55.41Z" style="fill:rgb(249,188,39);fill-rule:nonzero;"/>
        </g>
        <g transform="matrix(0.459284,0,0,0.459284,21.3343,42.4)">
            <path d="M477.56,199.22L460.77,248.3L73.39,248.3L65.34,224.75L56.6,199.22L59.36,101.25L475.01,101.25L475.29,112.01L477.56,199.22Z" style="fill:rgb(74,75,115);fill-rule:nonzero;"/>
        </g>
        <g transform="matrix(0.459284,0,0,0.459284,21.3343,42.4)">
            <path d="M460.2,101.25L313.15,248.3L73.39,248.3L65.34,224.75L188.84,101.25L460.2,101.25Z" style="fill-opacity:0.1;fill-rule:nonzero;"/>
        </g>
        <g transform="matrix(0.459284,0,0,0.459284,21.3343,42.4)">
            <path d="M475.19,112.01L338.89,248.3L313.35,248.3L460.39,101.25L474.9,101.25L475.19,112.01Z" style="fill-opacity:0.2;fill-rule:nonzero;"/>
        </g>
        <g transform="matrix(0.459284,0,0,0.459284,21.3343,42.4)">
            <path d="M406.27,271.79L403.93,283.06L130,283.06L127.87,271.79L406.27,271.79Z" style="fill:rgb(116,91,77);fill-rule:nonzero;"/>
        </g>
        <g transform="matrix(0.459284,0,0,0.459284,21.3343,42.4)">
            <path d="M406.27,304.31L403.93,315.57L130,315.57L127.87,304.31L406.27,304.31Z" style="fill:rgb(116,91,77);fill-rule:nonzero;"/>
        </g>
        <g transform="matrix(0.459284,0,0,0.459284,21.3343,42.4)">
            <path d="M406.27,336.82L403.93,348.08L130,348.08L127.87,336.82L406.27,336.82Z" style="fill:rgb(116,91,77);fill-rule:nonzero;"/>
        </g>
        <g transform="matrix(0.459284,0,0,0.459284,21.3343,42.4)">
            <path d="M467.26,506.28L461.31,523.71L398.41,523.71L392.41,506.28L467.26,506.28Z" style="fill:rgb(228,226,220);fill-rule:nonzero;"/>
        </g>
        <g transform="matrix(0.459284,0,0,0.459284,21.3343,42.4)">
            <path d="M141.49,506.28L135.49,523.71L72.86,523.71L66.86,506.28L141.49,506.28Z" style="fill:rgb(228,226,220);fill-rule:nonzero;"/>
        </g>
        <g transform="matrix(0.459284,0,0,0.459284,21.3343,42.4)">
            <path d="M217.36,480.36L216.93,523.71L317.23,523.71L317.23,480.36L217.36,480.36Z" style="fill:rgb(247,245,240);fill-rule:nonzero;"/>
        </g>
        <g transform="matrix(0.459284,0,0,0.459284,21.3343,42.4)">
            <path d="M79.76,427C79.76,435.163 73.043,441.88 64.88,441.88C56.717,441.88 50,435.163 50,427C50,418.837 56.717,412.12 64.88,412.12C64.883,412.12 64.887,412.12 64.89,412.12C73.041,412.147 79.738,418.849 79.76,427" style="fill:rgb(177,33,39);fill-rule:nonzero;"/>
        </g>
        <g transform="matrix(0.459284,0,0,0.459284,21.3343,42.4)">
            <path d="M79.76,389.78C79.76,389.783 79.76,389.787 79.76,389.79C79.76,397.953 73.043,404.67 64.88,404.67C56.717,404.67 50,397.953 50,389.79C50,381.627 56.717,374.91 64.88,374.91C64.883,374.91 64.887,374.91 64.89,374.91C73.037,374.937 79.733,381.633 79.76,389.78" style="fill:rgb(177,33,39);fill-rule:nonzero;"/>
        </g>
        <g transform="matrix(0.459284,0,0,0.459284,21.3343,42.4)">
            <path d="M79.76,351.53C79.76,351.533 79.76,351.537 79.76,351.54C79.76,359.703 73.043,366.42 64.88,366.42C56.717,366.42 50,359.703 50,351.54C50,343.377 56.717,336.66 64.88,336.66C64.883,336.66 64.887,336.66 64.89,336.66C73.037,336.687 79.733,343.383 79.76,351.53" style="fill:rgb(177,33,39);fill-rule:nonzero;"/>
        </g>
        <g transform="matrix(0.459284,0,0,0.459284,21.3343,42.4)">
            <path d="M484.15,427C484.15,435.163 477.433,441.88 469.27,441.88C461.107,441.88 454.39,435.163 454.39,427C454.39,418.837 461.107,412.12 469.27,412.12C477.425,412.142 484.128,418.845 484.15,427" style="fill:rgb(177,33,39);fill-rule:nonzero;"/>
        </g>
        <g transform="matrix(0.459284,0,0,0.459284,21.3343,42.4)">
            <path d="M484.15,389.78C484.15,389.783 484.15,389.787 484.15,389.79C484.15,397.953 477.433,404.67 469.27,404.67C461.107,404.67 454.39,397.953 454.39,389.79C454.39,381.627 461.107,374.91 469.27,374.91C477.421,374.932 484.123,381.629 484.15,389.78" style="fill:rgb(177,33,39);fill-rule:nonzero;"/>
        </g>
        <g transform="matrix(0.459284,0,0,0.459284,21.3343,42.4)">
            <path d="M484.15,351.53C484.15,351.533 484.15,351.537 484.15,351.54C484.15,359.703 477.433,366.42 469.27,366.42C461.107,366.42 454.39,359.703 454.39,351.54C454.39,343.377 461.107,336.66 469.27,336.66C477.421,336.682 484.123,343.379 484.15,351.53" style="fill:rgb(177,33,39);fill-rule:nonzero;"/>
        </g>
    </g>
</svg>
