<?xml version="1.0" encoding="UTF-8" standalone="no"?>
<!DOCTYPE svg PUBLIC "-//W3C//DTD SVG 1.1//EN" "http://www.w3.org/Graphics/SVG/1.1/DTD/svg11.dtd">
<svg width="100%" height="100%" viewBox="0 0 312 288" version="1.1" xmlns="http://www.w3.org/2000/svg" xmlns:xlink="http://www.w3.org/1999/xlink" xml:space="preserve" xmlns:serif="http://www.serif.com/" style="fill-rule:evenodd;clip-rule:evenodd;stroke-linejoin:round;stroke-miterlimit:2;">
    <g id="brt-station-center" transform="matrix(0.631257,0,0,0.631257,10.65,9.3)">
        <path d="M46.6,18.7L61.5,372.6L398.1,372.6L413.9,18.7L46.6,18.7Z" style="fill:rgb(228,226,220);fill-rule:nonzero;"/>
        <path d="M28.096,9.35L46.4,441.5L413.9,441.5L432.7,9.35L28.096,9.35ZM398.1,372.6L62.4,372.6L47.004,9.35L413.702,9.35L398.1,372.6Z" style="fill:rgb(42,43,42);fill-rule:nonzero;"/>
        <path d="M60.4,372.6L60.4,391.3L6.5,391.3L0,372.6L60.4,372.6Z" style="fill:rgb(42,43,42);fill-rule:nonzero;"/>
        <path d="M390.6,372.6L390.6,391.3L444.5,391.3L451,372.6L390.6,372.6Z" style="fill:rgb(42,43,42);fill-rule:nonzero;"/>
        <path d="M44.274,391.3L46.6,441.4L413.9,441.4L416.084,391.3L44.274,391.3Z" style="fill:rgb(29,29,27);fill-rule:nonzero;"/>
        <g transform="matrix(1.58414,0,0,1.58414,-16.8711,-14.7325)">
            <path d="M301.218,9.3L297.241,21.105L14.753,21.105L10.65,9.3L301.218,9.3Z" style="fill:rgb(248,187,30);fill-rule:nonzero;"/>
        </g>
        <g transform="matrix(-1,0,0,1,560.656,0.484141)">
            <g id="person-large-light-left" transform="matrix(0.889472,0,0,0.889472,25.9188,54.1587)">
                <g id="Layer-1">
                    <path d="M172,147L189.9,159.2L185.5,162.7L170.6,152.2L172,147Z" style="fill:rgb(255,238,205);fill-opacity:0.7;fill-rule:nonzero;"/>
                    <path d="M173.2,142.4L194.3,155.7L189.9,159.2L171.9,147L173.2,142.4Z" style="fill:rgb(255,238,205);fill-opacity:0.3;fill-rule:nonzero;"/>
                    <path d="M170.6,152.2L186.6,163.4L183.9,166.3L167.9,156.3L170.6,152.2Z" style="fill:rgb(1,1,1);fill-rule:nonzero;"/>
                    <path d="M244.9,344.2L246.3,271.8L253.4,225.9L228.8,221.3L229.8,269.8L231.4,345.2L244.9,344.2Z" style="fill:rgb(207,175,129);fill-rule:nonzero;"/>
                    <path d="M240.5,127.5L240.2,117.2L249.9,114.3L253.9,125.2L240.5,127.5Z" style="fill:rgb(85,63,55);fill-rule:nonzero;"/>
                    <path d="M256.2,203.4L253.5,226.1L221.7,269.2L218.1,346.7L203.8,348.8L204.4,267.7L219.4,208L256.2,203.4Z" style="fill:rgb(224,206,168);fill-rule:nonzero;"/>
                    <path d="M253.8,125.1L256.3,203.3L219.1,207.9L224.3,143.7L239.8,127.4L253.8,125.1Z" style="fill:rgb(136,187,106);fill-rule:nonzero;"/>
                    <path d="M225.3,173.9L192.2,166.3L187.6,171.4L228.3,184.2L250.3,147.8L241.4,141.8L225.3,173.9Z" style="fill:rgb(115,90,76);fill-rule:nonzero;"/>
                    <path d="M254.1,131.3L249.7,150.9L238,147.1L239.7,134.1" style="fill:rgb(103,154,68);fill-rule:nonzero;"/>
                    <path d="M240.5,138.4L224.3,143.8L233.3,127.5L253.7,125.1L254,131.1L240.5,138.4Z" style="fill:rgb(103,154,68);fill-rule:nonzero;"/>
                    <path d="M240.6,118.8L231.3,121.8L228.1,112.1L224.6,112.3L225.6,97.1L252.4,98.8L250.2,115.9" style="fill:rgb(115,90,76);fill-rule:nonzero;"/>
                    <path d="M195.2,166.9L178.1,162L171.6,166.3L179.7,174.4L190.6,172L195.2,166.9Z" style="fill:rgb(115,90,76);fill-rule:nonzero;"/>
                    <path d="M193,166.6L183.3,163.6L185.8,160.4L193,166.6Z" style="fill:rgb(115,90,76);fill-rule:nonzero;"/>
                    <path d="M241.9,103.6L246.2,102.2L245.9,110.6L242.6,110.8L241.9,103.6Z" style="fill:rgb(115,90,76);fill-rule:nonzero;"/>
                    <path d="M250.5,116.1L252.6,99.5L241.1,99L240.9,103.6L246.1,102.3L245.5,110.5L240.6,111L240.1,119.7L250.5,116.1Z" style="fill:rgb(85,63,55);fill-rule:nonzero;"/>
                    <path d="M231.8,125.1L230.4,118.4L241.8,114L245.9,115.9L231.8,125.1Z" style="fill:rgb(42,43,43);fill-rule:nonzero;"/>
                    <path d="M231.4,343.4L209.9,348L212.9,356.1L242,355.3L244.9,344.2L231.4,343.4Z" style="fill:rgb(103,91,76);fill-rule:nonzero;"/>
                    <path d="M203.7,345.5L218,346.3L215.1,357.4L185.8,358.2L182.8,350.1L203.7,345.5Z" style="fill:rgb(152,138,116);fill-rule:nonzero;"/>
                    <path d="M227.2,91.5L210.5,96L215.1,101.4L232,97.6L227.2,91.5Z" style="fill:rgb(104,154,66);fill-rule:nonzero;"/>
                    <path d="M249,86L252.6,99.3L227.1,98.2L224.1,92.7L230.9,85.9L249,86Z" style="fill:rgb(104,154,66);fill-rule:nonzero;"/>
                    <path d="M249,86L252.6,99.3L241.2,98.8L249,86Z" style="fill:rgb(59,132,63);fill-rule:nonzero;"/>
                </g>
            </g>
            <g id="people-26" transform="matrix(0.892625,0,0,0.892625,26.1565,52.678)">
                <path d="M389,199.9L391.1,210.5L388.4,224.1L383.5,221.2L384.9,209.5L384.6,213L380,212L384,203.3L389,199.9Z" style="fill:rgb(206,172,152);fill-rule:nonzero;"/>
                <path d="M374.1,142.7L364.8,139.1L344.7,138.3L348.5,122.1L373.1,121.6L374.1,142.7Z" style="fill:rgb(85,63,55);fill-rule:nonzero;"/>
                <path d="M347.6,323L346,335L357.7,334.7L358.7,321.9L347.6,323Z" style="fill:rgb(42,43,43);fill-rule:nonzero;"/>
                <path d="M366.5,339L368.9,354.8L367.6,358.6L358.4,358.6L356,341.2L366.5,339Z" style="fill:rgb(42,43,43);fill-rule:nonzero;"/>
                <path d="M372.4,138.9L367.5,135.6L363.9,125.5L355.7,127.9L353,134.4L347.3,137.3L350.9,149.2L367.8,149.7L372.4,138.9Z" style="fill:rgb(169,138,126);fill-rule:nonzero;"/>
                <path d="M364,132.8L356.6,132.8L348.5,122.5L349.9,100.3L364.2,97.9L373.1,101.4L372.8,122.3L364,132.8Z" style="fill:rgb(206,172,152);fill-rule:nonzero;"/>
                <path d="M375.4,154.5L383.6,204.2L389.5,202L382.2,145.9L375.4,154.5Z" style="fill:rgb(206,172,152);fill-rule:nonzero;"/>
                <path d="M361.7,91.4L345.1,96.6L335.9,141.4L345.2,151.4L345,140.6L345.6,137.4L348.5,122.8L352.1,104.4L361.9,100.4L361.7,91.4Z" style="fill:rgb(85,63,55);fill-rule:nonzero;"/>
                <path d="M362.1,100.4L371.8,104L372.9,146.9L381.1,145.5L379.5,99.2L361.4,91L362.1,100.4Z" style="fill:rgb(85,63,55);fill-rule:nonzero;"/>
                <path d="M358.3,250.6L356.6,341.2L366.6,339.1L375.5,250.2" style="fill:rgb(206,172,152);fill-rule:nonzero;"/>
                <path d="M358.6,218.5L358.3,256.8L356.9,322.2L347.7,323L343.3,256.5L358.6,218.5Z" style="fill:rgb(169,138,126);fill-rule:nonzero;"/>
                <path d="M336.1,141.6L347.2,137L351.6,147.8L367.1,148.3L372.3,138.6L382.3,145.4L375.5,154.3L374.7,182.2L388.6,275.2L330.9,275.7L344.2,183.2L341.7,149.6L336.1,141.6Z" style="fill:rgb(42,43,42);fill-rule:nonzero;"/>
                <path d="M341.6,149.7L339.2,202.4L332.9,201.9L335.9,141.7L341.6,149.7Z" style="fill:rgb(206,172,152);fill-rule:nonzero;"/>
                <path d="M332.9,201.7L332.3,210.1L338,222L342.6,219.3L338.5,208.7L339.1,212.2L343.1,209L339.1,202.5L332.9,201.7Z" style="fill:rgb(206,172,152);fill-rule:nonzero;"/>
                <path d="M294.3,194.1L299.5,189.2L293.8,185.1L288.7,194.3L294.3,194.1Z" style="fill:rgb(174,32,37);fill-rule:nonzero;"/>
                <path d="M281.9,200.1L289,194.1L301.2,194.1L310.1,202.8L307.9,231.2L302,230.4L301.2,229L297.2,227.4L290.1,228.4L286.3,230.5L281.4,230.2L281.9,200.1Z" style="fill:rgb(42,43,43);fill-rule:nonzero;"/>
                <path d="M303,224L299.7,221.8L297.3,215.1L291.8,216.7L290,221L286.2,222.9L285.2,244L294.4,259L303,224Z" style="fill:rgb(169,138,126);fill-rule:nonzero;"/>
                <path d="M297.4,220L292.5,220L287.3,213.2L289.5,199.1L297.6,199.1L303.5,205.4L303.3,213.3L297.4,220Z" style="fill:rgb(206,172,152);fill-rule:nonzero;"/>
                <path d="M288.9,204.7L285.4,204.7L285.1,210.4L288.4,210.2L288.9,204.7Z" style="fill:rgb(206,172,152);fill-rule:nonzero;"/>
                <path d="M303.1,205.5L306.3,205.5L306.1,211.2L303.2,211.2L303.1,205.5Z" style="fill:rgb(206,172,152);fill-rule:nonzero;"/>
                <path d="M301.9,334.6L303,343L294.8,342.8L294.2,333.8L301.9,334.6Z" style="fill:rgb(42,43,43);fill-rule:nonzero;"/>
                <path d="M288.7,345.8L287.1,356.9L288.1,359.6L294.6,359.6L296.2,347.4L288.7,345.8Z" style="fill:rgb(42,43,43);fill-rule:nonzero;"/>
                <path d="M272.7,268L271.3,275.6L273.2,285.3L276.7,283.4L275.7,275.2L275.9,277.7L279.2,276.9L276.5,270.7L272.7,268Z" style="fill:rgb(206,172,152);fill-rule:nonzero;"/>
                <path d="M282.5,235.9L276.6,271.1L272.5,269.5L277.7,229.7L282.5,235.9Z" style="fill:rgb(206,172,152);fill-rule:nonzero;"/>
                <path d="M315.6,265.3L317,272.9L315.1,282.6L311.6,280.7L312.6,272.5L312.4,275L309.1,274.2L311.8,268L315.6,265.3Z" style="fill:rgb(206,172,152);fill-rule:nonzero;"/>
                <path d="M306,233.2L311.9,268.4L316,266.8L310.9,227L306,233.2Z" style="fill:rgb(206,172,152);fill-rule:nonzero;"/>
                <path d="M294.4,284L295.7,347.4L288.7,346L282.5,283.9" style="fill:rgb(206,172,152);fill-rule:nonzero;"/>
                <path d="M294.3,261.5L294.5,288.3L295.5,334.1L302,334.6L305,288L294.3,261.5Z" style="fill:rgb(169,138,126);fill-rule:nonzero;"/>
                <path d="M310.6,227L302.8,223.8L299.6,231.6L288.8,231.6L286.6,223L277.7,230L282.5,236.3L285,256.1L279,318.2L310.4,318.5L303,256.9L306.8,233L310.6,227Z" style="fill:rgb(103,154,68);fill-rule:nonzero;"/>
                <path d="M284.9,197.5L277.6,197L279.2,190.2L289,194" style="fill:rgb(174,32,37);fill-rule:nonzero;"/>
            </g>
            <g transform="matrix(0.860062,0,0,0.860062,58.4622,67.2063)">
                <path d="M423.4,342.7L422,270.5L422.8,224.7L439.4,220.1L438.4,268.4L436.8,343.6L423.4,342.7Z" style="fill:rgb(115,90,76);fill-rule:nonzero;"/>
                <g transform="matrix(1,0,0,1,1.64309,0)">
                    <path d="M432.3,126.3L432.6,116L422.9,113.1L418.9,124L432.3,126.3Z" style="fill:rgb(115,90,76);fill-rule:nonzero;"/>
                </g>
                <path d="M425.6,204.9L418.9,224.7L444.6,261.9L454.6,345.1L468.9,347.2L461.2,259.7L440.4,208.9L425.6,204.9Z" style="fill:rgb(169,138,126);fill-rule:nonzero;"/>
                <path d="M451,201.7L452.6,148.6L432.8,126.3L418.9,123.9L422.2,196.9L409.8,277.4L468.6,277.9L451,201.7Z" style="fill:rgb(253,209,88);fill-rule:nonzero;"/>
                <path d="M428.795,176.15L428.396,212.059L424.152,215.648L420.123,180.694L422.2,146.4L431.1,140.4L428.795,176.15Z" style="fill:rgb(169,138,126);fill-rule:nonzero;"/>
                <path d="M418.5,130.1L422.9,149.7L431.352,150.864L432.8,132.9" style="fill:rgb(248,187,30);fill-rule:nonzero;"/>
                <path d="M432.1,137.2L452.7,148.8L439.2,126.5L418.8,124.1L418.5,130.1L432.1,137.2Z" style="fill:rgb(248,187,30);fill-rule:nonzero;"/>
                <g transform="matrix(0.97357,-0.22839,0.22839,0.97357,-13.7043,99.3951)">
                    <path d="M431.9,117.7L441.2,120.7L444.4,111L447.9,111.2L446.9,96L420.1,97.8L422.3,114.9" style="fill:rgb(169,138,126);fill-rule:nonzero;"/>
                </g>
                <g transform="matrix(0.174323,1.42117,-1.42117,0.174323,579.686,-496.819)">
                    <path d="M478.408,165.101L494.565,165.768L491.886,169.29L485.769,169.661L480.573,168.354L478.408,165.101Z" style="fill:rgb(169,138,126);fill-rule:nonzero;"/>
                </g>
                <g transform="matrix(-1.66644,0,0,1.66644,658.397,-201.479)">
                    <path d="M137.989,248.037L136.397,253.785L137.916,256.284L137.989,248.037Z" style="fill:rgb(169,138,126);"/>
                </g>
                <path d="M430.7,102.3L426.4,101L426.7,109.4L430,109.6L430.7,102.3Z" style="fill:rgb(169,138,126);fill-rule:nonzero;"/>
                <g transform="matrix(0.97357,-0.22839,0.22839,0.97357,-13.7043,99.3951)">
                    <path d="M421.9,115L419.8,98.4L431.2,97.9L431.4,102.5L426.3,101.2L426.9,109.4L431.8,109.9L432.3,118.5L421.9,115Z" style="fill:rgb(115,90,76);fill-rule:nonzero;"/>
                </g>
                <path d="M436.8,341.5L458.3,346.1L455.3,354.2L426.2,353.4L423.3,342.5L436.8,341.5Z" style="fill:rgb(207,175,129);fill-rule:nonzero;"/>
                <g transform="matrix(0.97357,-0.22839,0.22839,0.97357,-13.7043,99.3951)">
                    <path d="M436.9,97.1L431.5,102.6L427.5,101.6L428.1,126.5L418,152.6L407.9,150.4L406.9,117.8L418.5,84.7L447.5,87.4L446.9,96L436.9,97.1Z" style="fill:rgb(42,43,43);fill-rule:nonzero;"/>
                </g>
                <path d="M468.9,343.5L489.7,348.1L486.7,356.2L457.6,355.4L454.7,344.5L468.9,343.5Z" style="fill:rgb(255,239,206);fill-rule:nonzero;"/>
            </g>
        </g>
    </g>
</svg>
