<?xml version="1.0" encoding="UTF-8" standalone="no"?>
<!DOCTYPE svg PUBLIC "-//W3C//DTD SVG 1.1//EN" "http://www.w3.org/Graphics/SVG/1.1/DTD/svg11.dtd">
<svg width="100%" height="100%" viewBox="0 0 312 288" version="1.1" xmlns="http://www.w3.org/2000/svg" xmlns:xlink="http://www.w3.org/1999/xlink" xml:space="preserve" xmlns:serif="http://www.serif.com/" style="fill-rule:evenodd;clip-rule:evenodd;stroke-linejoin:round;stroke-miterlimit:2;">
    <g id="brt-station-left" transform="matrix(0.675667,0,0,0.675667,9.68207,9.3)">
        <g transform="matrix(0.583012,0,0,0.583012,-71.0609,-142.838)">
            <path d="M166.3,245L196.3,952.5L785.2,952.5L815.4,245L166.3,245ZM225.2,922.5L223.2,872.2L758.6,872.2L756.6,922.5L225.2,922.5ZM759.8,842L221.9,842L197.7,275L784.1,275L759.8,842Z" style="fill:rgb(42,43,42);fill-rule:nonzero;"/>
        </g>
        <g transform="matrix(0.583012,0,0,0.583012,-71.0609,-142.838)">
            <path d="M192.9,872L196.5,952.5L785.2,952.5L788.8,872L192.9,872Z" style="fill:rgb(29,29,27);fill-rule:nonzero;"/>
        </g>
        <g transform="matrix(0.583012,0,0,0.583012,-71.0609,-142.838)">
            <path d="M220.3,842L220.3,872.7L132.5,872.7L121.8,842L220.3,842Z" style="fill:rgb(42,43,42);fill-rule:nonzero;"/>
        </g>
        <g transform="matrix(0.583012,0,0,0.583012,-71.0609,-142.838)">
            <path d="M196.5,275L221.9,842L759.8,842L785.1,275L196.5,275Z" style="fill:rgb(228,226,220);fill-rule:nonzero;"/>
        </g>
        <g transform="matrix(0.583012,0,0,0.583012,-71.0609,-142.838)">
            <path d="M218.6,245L218.6,275L132.3,275L121.9,245L218.6,245Z" style="fill:rgb(248,187,30);fill-rule:nonzero;"/>
        </g>
        <g transform="matrix(0.583012,0,0,0.583012,-71.0609,-142.838)">
            <path d="M763.1,245L763.1,275L849.4,275L859.6,245L763.1,245Z" style="fill:rgb(248,187,30);fill-rule:nonzero;"/>
        </g>
        <g transform="matrix(0.583012,0,0,0.583012,-71.0609,-142.838)">
            <rect x="159.2" y="245" width="687.9" height="30.2" style="fill:rgb(248,187,30);"/>
        </g>
        <g id="person-large-light-left" transform="matrix(0.518573,0,0,0.518573,-55.9499,-111.263)">
            <g id="Layer-1">
                <path d="M263.9,548.8L292.6,568.3L285.5,573.9L261.6,557.1L263.9,548.8Z" style="fill:rgb(255,238,205);fill-opacity:0.7;fill-rule:nonzero;"/>
                <path d="M265.7,541.5L299.5,562.8L292.4,568.4L263.7,548.9L265.7,541.5Z" style="fill:rgb(255,238,205);fill-opacity:0.3;fill-rule:nonzero;"/>
                <path d="M261.6,557.2L287.2,575.2L282.9,579.8L257.3,563.8L261.6,557.2Z" style="fill:rgb(1,1,1);fill-rule:nonzero;"/>
                <path d="M380.7,864.9L383,748.9L394.4,675.3L355.1,667.9L356.6,745.6L359.1,866.4L380.7,864.9Z" style="fill:rgb(207,175,129);fill-rule:nonzero;"/>
                <path d="M373.6,517.6L373.1,501.1L388.6,496.5L394.9,514L373.6,517.6Z" style="fill:rgb(85,63,55);fill-rule:nonzero;"/>
                <path d="M398.7,639.2L394.4,675.5L343.4,744.5L337.6,868.6L314.8,871.9L315.8,741.9L339.9,646.2L398.7,639.2Z" style="fill:rgb(224,206,168);fill-rule:nonzero;"/>
                <path d="M394.9,513.8L399,639.2L339.3,646.6L347.7,543.8L372.6,517.7L394.9,513.8Z" style="fill:rgb(136,187,106);fill-rule:nonzero;"/>
                <path d="M349.2,592L296.1,579.8L288.7,587.9L353.9,608.5L389.2,550.1L375,540.5L349.2,592Z" style="fill:rgb(115,90,76);fill-rule:nonzero;"/>
                <path d="M395.4,523.7L388.3,555.2L369.5,549.1L372.3,528.3" style="fill:rgb(103,154,68);fill-rule:nonzero;"/>
                <path d="M373.6,535.1L347.7,543.7L362.2,517.6L394.9,513.8L395.4,523.4L373.6,535.1Z" style="fill:rgb(103,154,68);fill-rule:nonzero;"/>
                <path d="M373.8,503.7L358.8,508.5L353.7,493L348.1,493.3L349.6,468.9L392.5,471.7L388.9,499.1" style="fill:rgb(115,90,76);fill-rule:nonzero;"/>
                <path d="M301,580.8L273.6,572.9L263.2,579.8L276.1,592.7L293.6,588.9L301,580.8Z" style="fill:rgb(115,90,76);fill-rule:nonzero;"/>
                <path d="M297.4,580.3L281.9,575.5L286,570.4L297.4,580.3Z" style="fill:rgb(115,90,76);fill-rule:nonzero;"/>
                <path d="M375.8,479.3L382.7,477L382.2,490.5L376.9,490.8L375.8,479.3Z" style="fill:rgb(115,90,76);fill-rule:nonzero;"/>
                <path d="M389.6,499.3L392.9,472.6L374.6,471.8L374.3,479.2L382.7,477.2L381.7,490.4L373.8,491.2L373,505.2L389.6,499.3Z" style="fill:rgb(85,63,55);fill-rule:nonzero;"/>
                <path d="M359.6,513.8L357.3,503.1L375.6,496L382.2,499L359.6,513.8Z" style="fill:rgb(42,43,43);fill-rule:nonzero;"/>
                <path d="M359.1,863.6L324.6,871L329.4,883.9L376.1,882.6L380.7,864.8L359.1,863.6Z" style="fill:rgb(103,91,76);fill-rule:nonzero;"/>
                <path d="M314.7,866.9L337.5,868.2L332.9,886L285.9,887.3L281.1,874.4L314.7,866.9Z" style="fill:rgb(152,138,116);fill-rule:nonzero;"/>
                <path d="M352.2,460L325.5,467.1L332.9,475.7L360.1,469.6L352.2,460Z" style="fill:rgb(104,154,66);fill-rule:nonzero;"/>
                <path d="M387.3,451.1L393.1,472.4L352.2,470.6L347.4,461.7L358.3,450.8L387.3,451.1Z" style="fill:rgb(104,154,66);fill-rule:nonzero;"/>
                <path d="M387.3,451.1L393.1,472.4L374.8,471.6L387.3,451.1Z" style="fill:rgb(59,132,63);fill-rule:nonzero;"/>
            </g>
        </g>
        <g transform="matrix(0.510561,0,0,0.510561,-48.0866,-107.38)">
            <path d="M654.9,585.2L629.3,569.2L633.6,562.9L659,580.9L654.9,585.2Z" style="fill:rgb(42,43,42);fill-rule:nonzero;"/>
            <path d="M737.9,871.5L735.4,750.9L733.9,673.5L760.6,680.9L761.9,754.3L759.5,870L737.9,871.5Z" style="fill:rgb(115,90,76);fill-rule:nonzero;"/>
            <path d="M766.6,519.7L760.3,502.2L744.8,506.8L745.3,523.3L766.6,519.7Z" style="fill:rgb(115,90,76);fill-rule:nonzero;"/>
            <path d="M732,655.7L698.7,737.2L686.3,877.3L709.1,874L725.1,740.7L766.2,681L755.5,649.3L732,655.7Z" style="fill:rgb(169,138,126);fill-rule:nonzero;"/>
            <path d="M686.9,766.1L781.1,765.3L761.3,636.3L766.6,519.3L744.3,523.1L712.5,559L715,644L686.9,766.1Z" style="fill:rgb(253,209,88);fill-rule:nonzero;"/>
            <path d="M747,545.8L761.2,555.4L726,613.8L660.8,593.5L668.2,585.4L721.3,597.6L747,545.8Z" style="fill:rgb(169,138,126);fill-rule:nonzero;"/>
            <path d="M744.2,533.9L741.4,554.7L759.9,560.8L767,529.3" style="fill:rgb(248,187,30);fill-rule:nonzero;"/>
            <path d="M767.1,529.3L766.6,519.7L733.9,523.5L712.3,559.3L745.3,540.8L767.1,529.3Z" style="fill:rgb(248,187,30);fill-rule:nonzero;"/>
            <path d="M761,504.9L764.6,477.5L721.7,474.7L720.2,499.1L725.8,498.8L730.9,514.3L745.9,509.5" style="fill:rgb(169,138,126);fill-rule:nonzero;"/>
            <path d="M665.8,594.5L648.3,598.3L635.4,585.4L645.8,578.5L673,586.4L665.8,594.5Z" style="fill:rgb(169,138,126);fill-rule:nonzero;"/>
            <path d="M748.8,496.6L754.1,496.3L754.6,482.8L747.7,484.8L748.8,496.6Z" style="fill:rgb(169,138,126);fill-rule:nonzero;"/>
            <path d="M745,510.8L745.8,497.1L753.7,496.3L754.7,483.1L746.6,485.1L746.9,477.7L765.2,478.5L761.9,505.2L745,510.8Z" style="fill:rgb(115,90,76);fill-rule:nonzero;"/>
            <path d="M759.5,869.7L754.9,887.2L708.2,888.5L703.4,875.6L737.9,868.2L759.5,869.7Z" style="fill:rgb(207,175,129);fill-rule:nonzero;"/>
            <path d="M721.6,474.7L720.6,461L767.1,456.7L785.6,509.8L784.1,562.1L767.9,565.7L751.7,523.8L752.7,483.9L746.4,485.4L737.8,476.5L721.6,474.7Z" style="fill:rgb(42,43,43);fill-rule:nonzero;"/>
            <path d="M709.2,873L704.6,890.5L657.9,891.8L653.1,878.9L686.4,871.5L709.2,873Z" style="fill:rgb(255,239,206);fill-rule:nonzero;"/>
        </g>
        <g id="people-26" transform="matrix(0.520411,0,0,0.520411,-55.8113,-112.126)">
            <path d="M611.8,631.6L615.1,648.6L610.8,670.4L602.9,665.8L605.2,647L604.7,652.6L597.3,650.8L603.6,636.8L611.8,631.6Z" style="fill:rgb(206,172,152);fill-rule:nonzero;"/>
            <path d="M587.9,539.9L572.9,534.1L540.7,532.8L546.8,506.9L586.1,506.1L587.9,539.9Z" style="fill:rgb(85,63,55);fill-rule:nonzero;"/>
            <path d="M545.5,828.8L543,848.1L561.8,847.6L563.3,827L545.5,828.8Z" style="fill:rgb(42,43,43);fill-rule:nonzero;"/>
            <path d="M575.7,854.4L579.5,879.8L577.5,885.9L562.8,885.9L559,858L575.7,854.4Z" style="fill:rgb(42,43,43);fill-rule:nonzero;"/>
            <path d="M585.1,533.8L577.2,528.5L571.4,512.3L558.2,516.1L553.9,526.5L544.8,531.1L550.6,550.1L577.8,550.9L585.1,533.8Z" style="fill:rgb(169,138,126);fill-rule:nonzero;"/>
            <path d="M571.7,523.9L559.8,523.9L546.9,507.4L549.2,471.9L572,468.1L586.2,473.7L585.7,507.2L571.7,523.9Z" style="fill:rgb(206,172,152);fill-rule:nonzero;"/>
            <path d="M589.9,558.7L603.1,638.4L612.5,634.8L600.8,545L589.9,558.7Z" style="fill:rgb(206,172,152);fill-rule:nonzero;"/>
            <path d="M568.1,457.7L541.4,466.1L526.7,537.9L541.7,553.9L541.4,536.6L542.4,531.5L547,508.1L552.8,478.7L568.5,472.4L568.1,457.7Z" style="fill:rgb(85,63,55);fill-rule:nonzero;"/>
            <path d="M568.6,472.2L584.1,478L585.9,546.8L599.1,544.5L596.6,470.4L567.7,457.2L568.6,472.2Z" style="fill:rgb(85,63,55);fill-rule:nonzero;"/>
            <path d="M562.5,712.8L559.7,858L575.7,854.7L589.9,712.3" style="fill:rgb(206,172,152);fill-rule:nonzero;"/>
            <path d="M563,661.3L562.5,722.7L560.2,827.5L545.5,828.8L538.4,722.2L563,661.3Z" style="fill:rgb(169,138,126);fill-rule:nonzero;"/>
            <path d="M527,538.2L544.8,530.8L551.9,548.1L576.8,548.9L585.2,533.4L601.2,544.3L590.3,558.5L589,603.2L611.3,752.2L518.9,753L540.2,604.8L536.1,551L527,538.2Z" style="fill:rgb(42,43,42);fill-rule:nonzero;"/>
            <path d="M535.9,551.1L532.1,635.6L521.9,634.8L526.7,538.3L535.9,551.1Z" style="fill:rgb(206,172,152);fill-rule:nonzero;"/>
            <path d="M521.9,634.4L520.9,647.9L530,666.9L537.4,662.6L530.8,645.6L531.8,651.2L538.1,646.1L531.8,635.7L521.9,634.4Z" style="fill:rgb(206,172,152);fill-rule:nonzero;"/>
            <path d="M460,622.2L468.4,614.3L459.3,607.7L451.2,622.4L460,622.2Z" style="fill:rgb(174,32,37);fill-rule:nonzero;"/>
            <path d="M440.2,631.8L451.6,622.2L471.1,622.2L485.3,636.2L481.7,681.6L472.3,680.3L471,678L464.7,675.5L453.3,677L447.2,680.3L439.3,679.8L440.2,631.8Z" style="fill:rgb(42,43,43);fill-rule:nonzero;"/>
            <path d="M473.9,670.2L468.6,666.6L464.8,655.9L455.9,658.4L453.1,665.3L447,668.3L445.5,702.1L460.2,726.2L473.9,670.2Z" style="fill:rgb(169,138,126);fill-rule:nonzero;"/>
            <path d="M465,663.8L457.1,663.8L448.7,652.9L452.3,630.3L465.2,630.3L474.6,640.5L474.3,653.2L465,663.8Z" style="fill:rgb(206,172,152);fill-rule:nonzero;"/>
            <path d="M451.3,639.2L445.7,639.2L445.2,648.3L450.5,648L451.3,639.2Z" style="fill:rgb(206,172,152);fill-rule:nonzero;"/>
            <path d="M474.2,640.5L479.3,640.5L479,649.6L474.4,649.6L474.2,640.5Z" style="fill:rgb(206,172,152);fill-rule:nonzero;"/>
            <path d="M472.1,847.3L473.9,860.8L460.7,860.5L459.7,846L472.1,847.3Z" style="fill:rgb(42,43,43);fill-rule:nonzero;"/>
            <path d="M451.1,865.4L448.6,883.2L450.1,887.5L460.5,887.5L463,868L451.1,865.4Z" style="fill:rgb(42,43,43);fill-rule:nonzero;"/>
            <path d="M425.4,740.7L423.1,752.9L426.1,768.4L431.7,765.4L430.2,752.2L430.5,756.3L435.8,755L431.5,745.1L425.4,740.7Z" style="fill:rgb(206,172,152);fill-rule:nonzero;"/>
            <path d="M441.2,689.2L431.8,745.6L425.2,743.1L433.6,679.4L441.2,689.2Z" style="fill:rgb(206,172,152);fill-rule:nonzero;"/>
            <path d="M494.2,736.4L496.5,748.6L493.5,764.1L487.9,761.1L489.4,747.9L489.1,752L483.8,750.7L488.1,740.8L494.2,736.4Z" style="fill:rgb(206,172,152);fill-rule:nonzero;"/>
            <path d="M478.7,684.9L488.1,741.3L494.7,738.8L486.6,675.1L478.7,684.9Z" style="fill:rgb(206,172,152);fill-rule:nonzero;"/>
            <path d="M460.2,766.4L462.2,867.9L451,865.6L441.1,766.1" style="fill:rgb(206,172,152);fill-rule:nonzero;"/>
            <path d="M460,730.3L460.3,773.2L461.8,846.6L472.2,847.4L477.3,772.8L460,730.3Z" style="fill:rgb(169,138,126);fill-rule:nonzero;"/>
            <path d="M486.1,675L473.7,669.9L468.6,682.3L451.3,682.3L447.7,668.6L433.5,679.8L441.1,690L445.2,721.7L435.6,821.2L485.9,821.7L473.9,723L480,684.7L486.1,675Z" style="fill:rgb(103,154,68);fill-rule:nonzero;"/>
            <path d="M445,627.8L433.3,627L435.8,616.1L451.5,622.2" style="fill:rgb(174,32,37);fill-rule:nonzero;"/>
        </g>
    </g>
</svg>
