<?xml version="1.0" encoding="UTF-8" standalone="no"?>
<!DOCTYPE svg PUBLIC "-//W3C//DTD SVG 1.1//EN" "http://www.w3.org/Graphics/SVG/1.1/DTD/svg11.dtd">
<svg width="100%" height="100%" viewBox="0 0 288 312" version="1.1" xmlns="http://www.w3.org/2000/svg" xmlns:xlink="http://www.w3.org/1999/xlink" xml:space="preserve" xmlns:serif="http://www.serif.com/" style="fill-rule:evenodd;clip-rule:evenodd;stroke-linejoin:round;stroke-miterlimit:2;">
    <g id="brt-bus-outbound" transform="matrix(1,0,0,1,-31.5,-2.6)">
        <path d="M288.3,144.2L300.8,139.9L300.8,76.2L288.3,72L288.3,144.2Z" style="fill:rgb(29,29,27);fill-rule:nonzero;"/>
        <path d="M288.3,77.6L278,77L278,101.8L275.1,102.8L275.7,72L288.3,72L288.3,77.6Z" style="fill:rgb(29,29,27);fill-rule:nonzero;"/>
        <path d="M62.7,186.7L50.2,190.9L50.2,217.6L62.7,221.8L62.7,186.7Z" style="fill:rgb(29,29,27);fill-rule:nonzero;"/>
        <path d="M66.6,234.8L62.7,232.4L62.7,221.8L57.9,220.2L60.1,233.5L66.4,240.4L66.6,234.8Z" style="fill:rgb(29,29,27);fill-rule:nonzero;"/>
        <path d="M102.4,314.6L127.6,260.4L107,240.4" style="fill:rgb(43,43,42);fill-rule:nonzero;"/>
        <path d="M74.3,240.4L80.4,314.6L102.4,314.6L107,240.4L74.3,240.4Z" style="fill:rgb(92,95,96);fill-rule:nonzero;"/>
        <path d="M245.9,314.6L220.7,260.4L241.3,240.4" style="fill:rgb(43,43,42);fill-rule:nonzero;"/>
        <path d="M274,240.4L267.9,314.6L245.9,314.6L241.3,240.4L274,240.4Z" style="fill:rgb(92,95,96);fill-rule:nonzero;"/>
        <path d="M277.2,45.2L268,31.7L80.4,31.7L71.2,45.2L65.9,264.3L75.6,292.6L273,292.6L282.7,264.3L277.2,45.2Z" style="fill:rgb(249,187,36);fill-rule:nonzero;"/>
        <path d="M268.4,276.6L265.6,284.8L236,284.8L233.2,276.6L268.4,276.6Z" style="fill:rgb(228,226,220);fill-rule:nonzero;"/>
        <path d="M115.1,276.6L112.3,284.8L82.8,284.8L80,276.6L115.1,276.6Z" style="fill:rgb(228,226,220);fill-rule:nonzero;"/>
        <path d="M232.9,43.9L115.5,43.9L115.1,63.3L233.3,63.3L232.9,43.9Z" style="fill:rgb(36,35,56);fill-rule:nonzero;"/>
        <path d="M273.2,114.4L265.3,137.5L83,137.5L75.1,114.4L76.4,68.3L272,68.3L273.2,114.4Z" style="fill:rgb(73,74,114);fill-rule:nonzero;"/>
        <g transform="matrix(1,0,0,1,64.0781,-0.374223)">
            <path d="M59.657,61.648L59.551,46.3L62.695,46.3L62.695,58.605L67.8,58.628L67.8,61.648L59.657,61.648Z" style="fill:rgb(249,187,36);fill-rule:nonzero;"/>
        </g>
        <g transform="matrix(1.00003,0,0,1.00003,-590.916,-594.685)">
            <path d="M726.207,640.692L726.235,648.963L734.374,649.069L734.401,655.94L737.439,655.913L737.438,640.717L734.295,640.717L734.27,646.004L729.142,646.004L729.142,640.717L726.207,640.692Z" style="fill:rgb(249,187,36);fill-rule:nonzero;"/>
        </g>
        <path d="M96.1,31.7L98.1,25.9L250.3,25.9L252.3,31.7L96.1,31.7Z" style="fill:rgb(115,90,76);fill-rule:nonzero;"/>
        <path d="M162.2,25.9L164.2,20.1L184.1,20.1L186.1,25.9L162.2,25.9Z" style="fill:rgb(53,45,39);fill-rule:nonzero;"/>
        <g>
            <g>
                <clipPath id="_clip1">
                    <path d="M273.3,114.4L265.4,137.5L83,137.5L75.1,114.4L76.4,68.3L272.1,68.3L273.3,114.4Z"/>
                </clipPath>
                <g clip-path="url(#_clip1)">
                    <g transform="matrix(0.7071,-0.7071,0.7071,0.7071,-50.729,136.857)">
                        <rect x="-32" y="84.5" width="343.6" height="90.3" style="fill:white;fill-opacity:0.1;"/>
                    </g>
                    <g transform="matrix(0.7071,-0.7071,0.7071,0.7071,-53.9948,176.466)">
                        <rect x="14.2" y="149.2" width="343.6" height="8.5" style="fill:white;fill-opacity:0.2;"/>
                    </g>
                </g>
            </g>
        </g>
        <path d="M239.7,145.4L238.6,150.7L109.7,150.7L108.7,145.4L239.7,145.4Z" style="fill:rgb(115,90,76);fill-rule:nonzero;"/>
        <path d="M239.7,160.7L238.6,166L109.7,166L108.7,160.7L239.7,160.7Z" style="fill:rgb(115,90,76);fill-rule:nonzero;"/>
        <path d="M239.7,176L238.6,181.3L109.7,181.3L108.7,176L239.7,176Z" style="fill:rgb(115,90,76);fill-rule:nonzero;"/>
        <path d="M150.8,264.4L150.6,284.8L197.8,284.8L197.8,264.4L150.8,264.4Z" style="fill:rgb(247,245,240);fill-rule:nonzero;"/>
        <path d="M86,225.3C86,229.1 82.9,232.3 79,232.3C75.2,232.3 72,229.2 72,225.3C72,221.4 75.1,218.3 79,218.3C82.9,218.4 86,221.5 86,225.3" style="fill:rgb(176,32,38);fill-rule:nonzero;"/>
        <path d="M86,207.8C86,211.6 82.9,214.8 79,214.8C75.2,214.8 72,211.7 72,207.8C72,203.9 75.1,200.8 79,200.8C82.9,200.8 86,203.9 86,207.8" style="fill:rgb(176,32,38);fill-rule:nonzero;"/>
        <path d="M86,189.8C86,193.6 82.9,196.8 79,196.8C75.2,196.8 72,193.7 72,189.8C72,185.9 75.1,182.8 79,182.8C82.9,182.8 86,186 86,189.8" style="fill:rgb(176,32,38);fill-rule:nonzero;"/>
        <path d="M276.3,225.3C276.3,229.1 273.2,232.3 269.3,232.3C265.4,232.3 262.3,229.2 262.3,225.3C262.3,221.5 265.4,218.3 269.3,218.3C273.2,218.4 276.3,221.5 276.3,225.3" style="fill:rgb(176,32,38);fill-rule:nonzero;"/>
        <path d="M276.3,207.8C276.3,211.6 273.2,214.8 269.3,214.8C265.4,214.8 262.3,211.7 262.3,207.8C262.3,203.9 265.4,200.8 269.3,200.8C273.2,200.8 276.3,203.9 276.3,207.8" style="fill:rgb(176,32,38);fill-rule:nonzero;"/>
        <path d="M276.3,189.8C276.3,193.6 273.2,196.8 269.3,196.8C265.4,196.8 262.3,193.7 262.3,189.8C262.3,185.9 265.4,182.8 269.3,182.8C273.2,182.8 276.3,186 276.3,189.8" style="fill:rgb(176,32,38);fill-rule:nonzero;"/>
    </g>
</svg>
