<?xml version="1.0" standalone="no"?><!DOCTYPE svg PUBLIC "-//W3C//DTD SVG 1.1//EN" "http://www.w3.org/Graphics/SVG/1.1/DTD/svg11.dtd"><svg width="288px" height="264px" version="1.1" xmlns="http://www.w3.org/2000/svg" xmlns:xlink="http://www.w3.org/1999/xlink" xml:space="preserve" style="fill-rule:evenodd;clip-rule:evenodd;stroke-linejoin:round;stroke-miterlimit:1.41421;"><g><g id="bus-inbound" transform="matrix(0.5,0,0,0.5,-405.276,-249.794)"><g transform="matrix(2.00006,0,0,2.00006,-505.134,-699.462)"><path d="M898.101,666.358l21.376,-1.109l0.211,7.821l4.228,-0.633l-0.022,-13.261l-26.003,2.745l0.21,4.437Z" style="fill:#2a2b2a;fill-rule:nonzero;"/></g><g transform="matrix(2.00006,0,0,2.00006,-505.134,-699.462)"><path d="M927.088,671.802l-0.846,32.348l-15.01,2.115l-2.749,-31.502l18.605,-2.961Z" style="fill:#2a2b2a;fill-rule:nonzero;"/></g><g transform="matrix(2.00006,0,0,2.00006,-505.134,-699.462)"><g opacity="0.300003"><path d="M927.088,671.908l-0.211,7.505l-17.972,0.105l-0.422,-4.756l18.605,-2.854Z" style="fill:#5c5e5f;fill-rule:nonzero;"/></g></g><g transform="matrix(2.00006,0,0,2.00006,-505.134,-699.462)"><path d="M705.538,666.358l-21.376,-1.109l-0.211,7.821l-4.228,-0.633l0.022,-13.261l26.003,2.745l-0.21,4.437Z" style="fill:#2a2b2a;fill-rule:nonzero;"/></g><g transform="matrix(2.00006,0,0,2.00006,-505.134,-699.462)"><path d="M676.551,671.802l0.846,32.348l15.01,2.115l2.749,-31.502l-18.605,-2.961Z" style="fill:#2a2b2a;fill-rule:nonzero;"/></g><g transform="matrix(2.00006,0,0,2.00006,-505.134,-699.462)"><path d="M705.603,844.051l1.69,19.449l19.451,0l4.018,-19.661l-25.159,0.212Z" style="fill:#5c5e5f;fill-rule:nonzero;"/></g><g transform="matrix(2.00006,0,0,2.00006,-505.134,-699.462)"><path d="M725.899,843.626l0.845,19.874l6.02,-19.874l-6.865,0Z" style="fill:#2a2b2a;fill-rule:nonzero;"/></g><g transform="matrix(2.00006,0,0,2.00006,-505.134,-699.462)"><path d="M874.88,863.5l19.45,0l1.692,-19.45l-25.16,-0.211l4.018,19.661Z" style="fill:#5c5e5f;fill-rule:nonzero;"/></g><g transform="matrix(2.00006,0,0,2.00006,-505.134,-699.462)"><path d="M868.86,843.839l6.02,19.449l0.845,-19.449l-6.865,0Z" style="fill:#2a2b2a;fill-rule:nonzero;"/></g><g transform="matrix(2.00006,0,0,2.00006,-505.134,-699.462)"><path d="M705.473,844.037l190.708,0l7.188,-185.628l-202.538,1.691l4.642,183.937Z" style="fill:#e5e3dd;fill-rule:nonzero;"/></g><g transform="matrix(2.00006,0,0,2.00006,-505.134,-699.462)"><path d="M700.662,661.034l0,-21.143l25.807,-16.068l159.191,0l17.956,16.066l-0.458,21.055l-202.496,0.09Z" style="fill:#e5e3dd;fill-rule:nonzero;"/></g><g transform="matrix(2.00006,0,0,2.00006,-505.134,-699.462)"><path d="M721.167,635.463l0.042,24.679l164.124,-0.367l-0.32,-24.083l-163.846,-0.229Z" style="fill:#2a2b2a;fill-rule:nonzero;"/></g><g transform="matrix(2.00006,0,0,2.00006,-505.134,-699.462)"><path d="M706.394,668.468l1.904,100.83l186.025,-0.417l3.597,-99.359l-191.526,-1.054Z" style="fill:#313156;fill-rule:nonzero;"/></g><g transform="matrix(2.00006,0,0,2.00006,-505.134,-699.462)"><g opacity="0.300003"><path d="M894.042,768.715l-11.034,-98.881l-104.913,99.287l115.947,-0.406Z" style="fill:#0a1724;fill-rule:nonzero;"/></g></g><g transform="matrix(2.00006,0,0,2.00006,-505.134,-699.462)"><g opacity="0.300003"><path d="M706.394,668.468l1.389,71.139l70.75,-70.688l-72.139,-0.451Z" style="fill:#0a1724;fill-rule:nonzero;"/></g></g><g transform="matrix(2.00006,0,0,2.00006,-505.134,-699.462)"><path d="M726.207,640.692l0.028,8.271l8.139,0.106l0.027,6.871l3.038,-0.027l-0.001,-15.196l-3.143,0l-0.025,5.287l-5.128,0l0,-5.287l-2.935,-0.025Z" style="fill:#f19e75;fill-rule:nonzero;"/></g><g transform="matrix(2.00006,0,0,2.00006,-505.134,-699.462)"><g opacity="0.300003"><path d="M676.551,671.908l0.212,7.505l17.971,0.105l0.422,-4.756l-18.605,-2.854Z" style="fill:#5c5e5f;fill-rule:nonzero;"/></g></g><g transform="matrix(2.00006,0,0,2.00006,-505.134,-699.462)"><path d="M783.97,769.149l99.563,-99.71l-5.979,0l-99.688,99.689l6.104,0.021Z" style="fill:#494a73;fill-rule:nonzero;"/></g><g transform="matrix(2.00006,0,0,2.00006,-505.134,-699.462)"><path d="M800.47,769.298l4.862,0l0.845,-100.626l-5.502,-0.004l-0.205,100.63Z" style="fill:#dcdbd8;fill-rule:nonzero;"/></g><g transform="matrix(2.00006,0,0,2.00006,-505.134,-699.462)"><path d="M763.098,819.398l3.127,9.402l-18.691,0.036l3.043,-9.479l12.521,0.041Z" style="fill:#c2bfbc;fill-rule:nonzero;"/></g><g transform="matrix(2.00006,0,0,2.00006,-505.134,-699.462)"><path d="M745.01,828.794l3.127,-9.402l-18.691,-0.036l3.043,9.479l12.521,-0.041Z" style="fill:#f9f5e3;fill-rule:nonzero;"/></g><g transform="matrix(2.00006,0,0,2.00006,-505.134,-699.462)"><path d="M868.098,828.794l3.127,-9.402l-18.691,-0.036l3.043,9.479l12.521,-0.041Z" style="fill:#f9f5e3;fill-rule:nonzero;"/></g><g transform="matrix(2.00006,0,0,2.00006,-505.134,-699.462)"><path d="M850.01,819.398l3.127,9.402l-18.691,0.036l3.043,-9.479l12.521,0.041Z" style="fill:#c2bfbc;fill-rule:nonzero;"/></g><g transform="matrix(2.00006,0,0,2.00006,-505.134,-699.462)"><path d="M897.053,819.21l-0.327,9.59l-18.692,0.035l3.043,-9.479l15.976,-0.146Z" style="fill:#f19e75;fill-rule:nonzero;"/></g><g transform="matrix(2.00006,0,0,2.00006,-505.134,-699.462)"><path d="M720.51,819.231l3.127,9.402l-18.691,0.036l-0.226,-9.459l15.79,0.021Z" style="fill:#f19e75;fill-rule:nonzero;"/></g></g></g></svg>