<?xml version="1.0" standalone="no"?><!DOCTYPE svg PUBLIC "-//W3C//DTD SVG 1.1//EN" "http://www.w3.org/Graphics/SVG/1.1/DTD/svg11.dtd"><svg width="288px" height="264px" version="1.1" xmlns="http://www.w3.org/2000/svg" xmlns:xlink="http://www.w3.org/1999/xlink" xml:space="preserve" style="fill-rule:evenodd;clip-rule:evenodd;stroke-linejoin:round;stroke-miterlimit:1.41421;"><g><g id="bus-outbound" transform="matrix(0.5,0,0,0.5,-129.649,-249.794)"><g transform="matrix(2.00006,0,0,2.00006,-505.134,-699.462)"><path d="M623.511,666.356l21.376,-1.11l0.211,7.823l4.228,-0.635l-0.023,-13.259l-26.004,2.742l0.212,4.439Z" style="fill:#2a2b2a;fill-rule:nonzero;"/></g><g transform="matrix(2.00006,0,0,2.00006,-505.134,-699.462)"><path d="M652.498,671.8l-0.847,32.349l-15.01,2.113l-2.748,-31.501l18.605,-2.961Z" style="fill:#2a2b2a;fill-rule:nonzero;"/></g><g transform="matrix(2.00006,0,0,2.00006,-505.134,-699.462)"><path d="M648.509,701.378l-8.524,1.213l-2.334,-24.807l11.191,-1.906l-0.333,25.5Z" style="fill:#f7f5f0;fill-rule:nonzero;"/></g><g transform="matrix(2.00006,0,0,2.00006,-505.134,-699.462)"><path d="M428.891,666.356l-21.376,-1.11l-0.21,7.823l-4.229,-0.635l0.022,-13.259l26.005,2.742l-0.212,4.439Z" style="fill:#2a2b2a;fill-rule:nonzero;"/></g><g transform="matrix(2.00006,0,0,2.00006,-505.134,-699.462)"><path d="M399.903,671.8l0.847,32.349l15.01,2.113l2.749,-31.501l-18.606,-2.961Z" style="fill:#2a2b2a;fill-rule:nonzero;"/></g><g transform="matrix(2.00006,0,0,2.00006,-505.134,-699.462)"><path d="M430.233,843.837l1.69,19.663l19.452,0l4.017,-19.874l-25.159,0.211Z" style="fill:#5c5e5f;fill-rule:nonzero;"/></g><g transform="matrix(2.00006,0,0,2.00006,-505.134,-699.462)"><path d="M450.53,843.626l0.845,19.45l6.018,-19.45l-6.863,0Z" style="fill:#2a2b2a;fill-rule:nonzero;"/></g><g transform="matrix(2.00006,0,0,2.00006,-505.134,-699.462)"><path d="M599.59,863.289l19.45,0.211l1.692,-19.452l-25.158,-0.211l4.016,19.452Z" style="fill:#5c5e5f;fill-rule:nonzero;"/></g><g transform="matrix(2.00006,0,0,2.00006,-505.134,-699.462)"><path d="M593.491,843.837l6.018,19.663l0.847,-19.663l-6.865,0Z" style="fill:#2a2b2a;fill-rule:nonzero;"/></g><g transform="matrix(2.00006,0,0,2.00006,-505.134,-699.462)"><path d="M430.103,844.034l190.71,0l7.188,-185.627l-202.539,1.69l4.641,183.937Z" style="fill:#e5e3dd;fill-rule:nonzero;"/></g><g transform="matrix(2.00006,0,0,2.00006,-505.134,-699.462)"><path d="M425.293,661.031l0,-21.144l25.807,-16.066l159.192,0l17.956,16.066l-0.459,21.055l-202.496,0.089Z" style="fill:#e5e3dd;fill-rule:nonzero;"/></g><g transform="matrix(2.00006,0,0,2.00006,-505.134,-699.462)"><path d="M458.685,731.876l2.328,-63.833l133.623,0.417l2.327,63.209l-138.278,0.207Z" style="fill:#2a2b2a;fill-rule:nonzero;"/></g><g transform="matrix(2.00006,0,0,2.00006,-505.134,-699.462)"><path d="M546.801,744.398l3.127,9.402l-18.691,0.036l3.043,-9.479l12.521,0.041Z" style="fill:#f19e75;fill-rule:nonzero;"/></g><g transform="matrix(2.00006,0,0,2.00006,-505.134,-699.462)"><path d="M519.046,744.398l3.127,9.402l-18.691,0.036l3.043,-9.479l12.521,0.041Z" style="fill:#f19e75;fill-rule:nonzero;"/></g><g transform="matrix(2.00006,0,0,2.00006,-505.134,-699.462)"><path d="M404.007,701.712l8.55,1.162l2.034,-25.078l-10.667,-1.834l0.083,25.75Z" style="fill:#f7f5f0;fill-rule:nonzero;"/></g><g transform="matrix(2.00006,0,0,2.00006,-505.134,-699.462)"><path d="M504.948,803.601l-0.211,19.162l44.398,0l0.001,-19.16l-44.188,-0.002Z" style="fill:#f7f5f0;fill-rule:nonzero;"/></g><g transform="matrix(2.00006,0,0,2.00006,-505.134,-699.462)"><path d="M615.091,816.196c0,3.618 -2.936,6.555 -6.554,6.555c-3.621,0 -6.554,-2.937 -6.554,-6.555c0,-3.621 2.933,-6.555 6.554,-6.555c3.618,0 6.554,2.934 6.554,6.555" style="fill:#c2bfbc;fill-rule:nonzero;"/></g><g transform="matrix(2.00006,0,0,2.00006,-505.134,-699.462)"><path d="M615.091,799.704c0,3.62 -2.936,6.555 -6.554,6.555c-3.621,0 -6.554,-2.935 -6.554,-6.555c0,-3.621 2.933,-6.555 6.554,-6.555c3.618,0 6.554,2.934 6.554,6.555" style="fill:#b01f25;fill-rule:nonzero;"/></g><g transform="matrix(2.00006,0,0,2.00006,-505.134,-699.462)"><path d="M615.091,782.787c0,3.62 -2.936,6.555 -6.554,6.555c-3.621,0 -6.554,-2.935 -6.554,-6.555c0,-3.62 2.933,-6.554 6.554,-6.554c3.618,0 6.554,2.934 6.554,6.554" style="fill:#f19e75;fill-rule:nonzero;"/></g><g transform="matrix(2.00006,0,0,2.00006,-505.134,-699.462)"><path d="M449.985,816.196c0,3.618 -2.934,6.555 -6.554,6.555c-3.618,0 -6.553,-2.937 -6.553,-6.555c0,-3.621 2.935,-6.555 6.553,-6.555c3.62,0 6.554,2.934 6.554,6.555" style="fill:#c2bfbc;fill-rule:nonzero;"/></g><g transform="matrix(2.00006,0,0,2.00006,-505.134,-699.462)"><path d="M449.985,799.704c0,3.62 -2.934,6.555 -6.554,6.555c-3.618,0 -6.553,-2.935 -6.553,-6.555c0,-3.621 2.935,-6.555 6.553,-6.555c3.62,0 6.554,2.934 6.554,6.555" style="fill:#b01f25;fill-rule:nonzero;"/></g><g transform="matrix(2.00006,0,0,2.00006,-505.134,-699.462)"><path d="M449.985,782.787c0,3.62 -2.934,6.555 -6.554,6.555c-3.618,0 -6.553,-2.935 -6.553,-6.555c0,-3.62 2.935,-6.554 6.553,-6.554c3.62,0 6.554,2.934 6.554,6.554" style="fill:#f19e75;fill-rule:nonzero;"/></g><g transform="matrix(2.00006,0,0,2.00006,-505.134,-699.462)"><path d="M473.172,716.13l-4.454,4.271l119.205,-0.105l-4.417,-4.166l-110.334,0Z" style="fill:#5c5e5f;fill-rule:nonzero;"/></g><g transform="matrix(2.00006,0,0,2.00006,-505.134,-699.462)"><path d="M473.172,698.632l-4.454,4.271l119.205,-0.105l-4.417,-4.166l-110.334,0Z" style="fill:#5c5e5f;fill-rule:nonzero;"/></g><g transform="matrix(2.00006,0,0,2.00006,-505.134,-699.462)"><path d="M473.172,679.797l-4.454,4.271l119.205,-0.105l-4.417,-4.166l-110.334,0Z" style="fill:#5c5e5f;fill-rule:nonzero;"/></g></g></g></svg>