<svg clip-rule="evenodd" fill-rule="evenodd" stroke-linejoin="round" stroke-miterlimit="2" viewBox="0 0 360 320" xmlns="http://www.w3.org/2000/svg"><g fill-rule="nonzero" transform="matrix(1.2700381 0 0 1.2700381 -488.29509 -776.67737)"><path d="m623.511 666.356 21.376-1.11.211 7.823 4.228-.635-.023-13.259-26.004 2.742z" fill="#292b29"/><path d="m652.498 671.8-.847 32.349-15.01 2.113-2.748-31.501z" fill="#292b29"/><path d="m648.509 701.378-8.524 1.213-2.334-24.807 11.191-1.906z" fill="#f5f5ef"/><path d="m428.891 666.356-21.376-1.11-.21 7.823-4.229-.635.022-13.259 26.005 2.742z" fill="#292b29"/><path d="m399.903 671.8.847 32.349 15.01 2.113 2.749-31.501z" fill="#292b29"/><path d="m430.233 843.837 1.69 19.663h19.452l4.017-19.874z" fill="#5b5d5e"/><path d="m450.53 843.626.845 19.45 6.018-19.45z" fill="#292b29"/><path d="m599.59 863.289 19.45.211 1.692-19.452-25.158-.211z" fill="#5b5d5e"/><path d="m593.491 843.837 6.018 19.663.847-19.663z" fill="#292b29"/><path d="m430.103 844.034h190.71l7.188-185.627-202.539 1.69z" fill="#d9d4cb"/><path d="m425.293 661.031v-21.144l25.807-16.066h159.192l17.956 16.066-.459 21.055z" fill="#d9d4cb"/><path d="m458.686 731.876 2.327-63.833 133.624.417 2.326 63.209z" fill="#292b29"/><path d="m546.801 744.398 3.127 9.402-18.691.036 3.043-9.479z" fill="#f09d74"/><path d="m519.046 744.398 3.127 9.402-18.691.036 3.043-9.479z" fill="#f09d74"/><path d="m404.007 701.712 8.55 1.162 2.034-25.078-10.667-1.834z" fill="#f5f5ef"/><path d="m504.948 803.601-.211 19.162h44.398l.001-19.16z" fill="#f5f5ef"/><path d="m615.091 816.196c0 3.618-2.936 6.555-6.554 6.555-3.621 0-6.554-2.937-6.554-6.555 0-3.621 2.933-6.555 6.554-6.555 3.618 0 6.554 2.934 6.554 6.555" fill="#c2bfbc"/><path d="m615.091 799.704c0 3.62-2.936 6.555-6.554 6.555-3.621 0-6.554-2.935-6.554-6.555 0-3.621 2.933-6.555 6.554-6.555 3.618 0 6.554 2.934 6.554 6.555" fill="#af1f25"/><path d="m615.091 782.787c0 3.62-2.936 6.555-6.554 6.555-3.621 0-6.554-2.935-6.554-6.555s2.933-6.554 6.554-6.554c3.618 0 6.554 2.934 6.554 6.554" fill="#f09d74"/><path d="m449.985 816.196c0 3.618-2.934 6.555-6.554 6.555-3.618 0-6.553-2.937-6.553-6.555 0-3.621 2.935-6.555 6.553-6.555 3.62 0 6.554 2.934 6.554 6.555" fill="#c2bfbc"/><path d="m449.985 799.704c0 3.62-2.934 6.555-6.554 6.555-3.618 0-6.553-2.935-6.553-6.555 0-3.621 2.935-6.555 6.553-6.555 3.62 0 6.554 2.934 6.554 6.555" fill="#af1f25"/><path d="m449.985 782.787c0 3.62-2.934 6.555-6.554 6.555-3.618 0-6.553-2.935-6.553-6.555s2.935-6.554 6.553-6.554c3.62 0 6.554 2.934 6.554 6.554" fill="#f09d74"/><g fill="#5b5d5e"><path d="m473.172 716.13-4.454 4.271 119.205-.105-4.417-4.166z"/><path d="m473.172 698.632-4.454 4.271 119.205-.105-4.417-4.166z"/><path d="m473.172 679.797-4.454 4.271 119.205-.105-4.417-4.166z"/></g></g></svg>