<?xml version="1.0" standalone="no"?><!DOCTYPE svg PUBLIC "-//W3C//DTD SVG 1.1//EN" "http://www.w3.org/Graphics/SVG/1.1/DTD/svg11.dtd"><svg width="288px" height="432px" version="1.1" xmlns="http://www.w3.org/2000/svg" xmlns:xlink="http://www.w3.org/1999/xlink" xml:space="preserve" style="fill-rule:evenodd;clip-rule:evenodd;stroke-linejoin:round;stroke-miterlimit:1.41421;"><g><g id="streetcar-outbound" transform="matrix(1,0,0,1,0,-168)"><g transform="matrix(1,0,0,1,-251.479,57.0752)"><path d="M353.09,230.668l33.084,65.334l5.25,0l-33,-65.334" style="fill:#2a2b2a;fill-rule:nonzero;"/></g><g transform="matrix(1,0,0,1,-251.479,57.0752)"><path d="M436.424,230.668l-33.084,65.334l-5.25,0l33,-65.334" style="fill:#2a2b2a;fill-rule:nonzero;"/></g><g transform="matrix(1,0,0,1,-251.479,57.0752)"><path d="M430.998,232.75l30.312,0.25l5.46,11.821l5.229,-0.633l-8.022,-16.26l-138.2,0l-8.022,16.26l5.228,0.633l5.461,-11.821l24.312,-0.25" style="fill:#2a2b2a;fill-rule:nonzero;"/></g><g transform="matrix(1,0,0,1,-251.479,57.0752)"><path d="M490.286,360.847l21.376,-1.11l0.211,7.823l4.228,-0.635l-0.023,-13.259l-26.004,2.742l0.212,4.439Z" style="fill:#f3f2ec;fill-rule:nonzero;"/></g><g transform="matrix(1,0,0,1,-251.479,57.0752)"><path d="M519.273,366.29l-0.847,21.338l-15.01,2.113l-2.748,-20.49l18.605,-2.961Z" style="fill:#f3f2ec;fill-rule:nonzero;"/></g><g transform="matrix(1,0,0,1,-251.479,57.0752)"><path d="M515.284,384.857l-8.524,1.213l-2.334,-13.796l11.191,-1.906l-0.333,14.489Z" style="fill:#c0bdba;fill-rule:nonzero;"/></g><g transform="matrix(1,0,0,1,-251.479,57.0752)"><path d="M300.671,360.847l-21.376,-1.11l-0.21,7.823l-4.229,-0.635l0.022,-13.259l26.005,2.742l-0.212,4.439Z" style="fill:#f3f2ec;fill-rule:nonzero;"/></g><g transform="matrix(1,0,0,1,-251.479,57.0752)"><path d="M271.684,366.29l0.847,21.338l15.01,2.113l2.749,-20.49l-18.606,-2.961Z" style="fill:#f3f2ec;fill-rule:nonzero;"/></g><g transform="matrix(1,0,0,1,-251.479,57.0752)"><path d="M275.787,385.191l8.55,1.162l2.034,-14.067l-10.667,-1.834l0.083,14.739Z" style="fill:#c0bdba;fill-rule:nonzero;"/></g><g transform="matrix(1,0,0,1,-251.479,57.0752)"><path d="M452.777,542.925l-11.451,0l0.233,-24.411l13.159,0.211l-1.941,24.2Z" style="fill:#5c5e5f;fill-rule:nonzero;"/></g><g transform="matrix(1,0,0,1,-251.479,57.0752)"><path d="M339.271,542.925l11.451,0l0.017,-22.161l-13.159,0.211l1.691,21.95Z" style="fill:#5c5e5f;fill-rule:nonzero;"/></g><g transform="matrix(1,0,0,1,-251.479,57.0752)"><path d="M304.037,517.525l0.539,11.79l182.478,0.23l0.638,-12.02l-90.991,-18.002l-92.664,18.002Z" style="fill:#2a2b2a;fill-rule:nonzero;"/></g><g transform="matrix(1,0,0,1,-251.479,57.0752)"><path d="M487.106,484.784l-3.526,3.041l-170.389,0.043l-4.743,-3.303l178.658,0.219Z" style="fill:#000;fill-rule:nonzero;"/></g><g transform="matrix(1,0,0,1,-251.479,57.0752)"><path d="M419.515,309.358l-5.674,-13.334l-37.953,0l-4.673,13.334l48.3,0Z" style="fill:#f3f2ec;fill-rule:nonzero;"/></g><g transform="matrix(1,0,0,1,-251.479,57.0752)"><path d="M295.534,329.69l5.139,91.417l190.026,-0.25l5.001,-91.333l-20.75,-21l-158.081,-0.334l-21.335,21.5Z" style="fill:#88ba6a;fill-rule:nonzero;"/></g><g transform="matrix(1,0,0,1,-251.479,57.0752)"><path d="M494.825,350.648l-198.375,-0.25l7.556,167.111l92.163,-14.002l91.492,14.002l7.164,-166.861Z" style="fill:#e3e1db;fill-rule:nonzero;"/></g><g transform="matrix(1,0,0,1,-251.479,57.0752)"><path d="M343.549,470.496l3.127,9.402l-18.691,0.036l3.043,-9.479l12.521,0.041Z" style="fill:#ad2125;fill-rule:nonzero;"/></g><g transform="matrix(1,0,0,1,-251.479,57.0752)"><path d="M457.547,470.496l3.127,9.402l-18.691,0.036l3.043,-9.479l12.521,0.041Z" style="fill:#ad2125;fill-rule:nonzero;"/></g><g transform="matrix(1,0,0,1,-251.479,57.0752)"><path d="M397.825,358.602l60.792,-0.079l6,54.307l-66.631,-0.14l-0.161,-54.088Z" style="fill:#313156;fill-rule:nonzero;"/></g><g transform="matrix(1,0,0,1,-251.479,57.0752)"><path d="M392.993,358.602l-61.043,-0.079l-6,54.307l66.882,-0.14l0.161,-54.088Z" style="fill:#313156;fill-rule:nonzero;"/></g><g transform="matrix(1,0,0,1,-251.479,57.0752)"><g opacity="0.300003"><path d="M387.984,358.64l-61.208,46.556l5.175,-46.755l56.033,0.199Z" style="fill:#0d1824;fill-rule:nonzero;"/></g></g><g transform="matrix(1,0,0,1,-251.479,57.0752)"><g opacity="0.300003"><path d="M392.891,397.012l-9.573,9.149l-1.248,6.551l10.769,0.021l0.052,-15.721Z" style="fill:#0d1824;fill-rule:nonzero;"/></g></g><g transform="matrix(1,0,0,1,-251.479,57.0752)"><g opacity="0.300003"><path d="M397.983,412.742l66.717,0.109l-6.016,-54.343l-25.484,0.046l-35.276,33.645l0.059,20.543Z" style="fill:#0d1824;fill-rule:nonzero;"/></g></g><g transform="matrix(1,0,0,1,-251.479,57.0752)"><path d="M392.903,395.63l-17.053,17.076l6.219,-0.015l10.779,-10.818l0.055,-6.243Z" style="fill:#494a72;fill-rule:nonzero;"/></g><g transform="matrix(1,0,0,1,-251.479,57.0752)"><path d="M397.917,396.787l38.104,-38.24l-6.098,0.012l-31.993,32.037l-0.013,6.191Z" style="fill:#494a72;fill-rule:nonzero;"/></g><g transform="matrix(1,0,0,1,-251.479,57.0752)"><path d="M408.033,449.351c0,6.996 -5.671,12.667 -12.667,12.667c-6.995,0 -12.666,-5.671 -12.666,-12.667c0,-6.995 5.671,-12.666 12.666,-12.666c6.996,0 12.667,5.671 12.667,12.666" style="fill:#2a2b2a;fill-rule:nonzero;"/></g><g transform="matrix(1,0,0,1,-251.479,57.0752)"><path d="M312.788,336.024c0,2.903 -2.354,5.256 -5.254,5.256c-2.903,0 -5.256,-2.353 -5.256,-5.256c0,-2.899 2.353,-5.254 5.256,-5.254c2.9,0 5.254,2.355 5.254,5.254" style="fill:#ad2125;fill-rule:nonzero;"/></g><g transform="matrix(1,0,0,1,-251.479,57.0752)"><path d="M488.788,336.024c0,2.903 -2.354,5.256 -5.254,5.256c-2.903,0 -5.256,-2.353 -5.256,-5.256c0,-2.899 2.353,-5.254 5.256,-5.254c2.9,0 5.254,2.355 5.254,5.254" style="fill:#ad2125;fill-rule:nonzero;"/></g></g></g></svg>