<?xml version="1.0" standalone="no"?><!DOCTYPE svg PUBLIC "-//W3C//DTD SVG 1.1//EN" "http://www.w3.org/Graphics/SVG/1.1/DTD/svg11.dtd"><svg width="216px" height="288px" version="1.1" xmlns="http://www.w3.org/2000/svg" xmlns:xlink="http://www.w3.org/1999/xlink" xml:space="preserve" style="fill-rule:evenodd;clip-rule:evenodd;stroke-linejoin:round;stroke-miterlimit:1.41421;"><g><g id="transit-shelter-01-left" transform="matrix(0.5,0,0,0.5,-18.8155,-48)"><g id="pole"><path d="M435.097,672l24.163,0l-2.809,-560.951l-12.539,-5.339l-8.815,566.29Z" style="fill:#e4e2dc;fill-rule:nonzero;"/><path d="M435.095,672l24.167,0l-20.225,-203.396l-3.942,203.396Z" style="fill:#c1bebb;fill-rule:nonzero;"/><path d="M457.195,255.035l-13.28,-149.325l12.537,5.357l0.743,143.968Z" style="fill:#c1bebb;fill-rule:nonzero;"/><path d="M441,234l-49,0l-2,-99l53,0l-2,99Z" style="fill:#d8d3cb;fill-rule:nonzero;"/><path d="M398.717,145.252l0.057,16.543l16.277,0.211l0.055,13.742l6.076,-0.055l-0.002,-30.39l-6.287,0l-0.051,10.574l-10.256,0l0,-10.574l-5.869,-0.051Z" style="fill:#313156;fill-rule:nonzero;"/><path d="M420.281,182.334l-14.375,0l-6.285,-0.012l-0.004,30.391l6.078,0.055l0.055,-13.743l10.433,-0.211l0.032,-5.918l-10.258,0l-0.02,-4.46l14.313,-0.184l0.031,-5.918Z" style="fill:#313156;fill-rule:nonzero;"/></g><g id="seat"><path d="M86.0058,616.559l-0.211,55.441l12.205,0l2.291,-46.083l45.293,-3.901l4.156,-10.512l-63.734,5.055Z" style="fill:#5c5e5f;fill-rule:nonzero;"/><path d="M189,611.508l-98.25,4.801l-1.125,-111.7l10.355,5.362l3.455,90.413l85.565,4.725l0,6.399Z" style="fill:#ae2025;fill-rule:nonzero;"/></g><g id="ad-panel"><path d="M54.9999,300l-4,372l21,0l0,-372l-17,0Z" style="fill:#5c5e5f;fill-rule:nonzero;"/><path d="M288,240l0,432l21,0l-4,-432l-17,0Z" style="fill:#5c5e5f;fill-rule:nonzero;"/><path d="M288,672l21,0l-2.633,-237l-18.367,237Z" style="fill:#2a2b2a;fill-rule:nonzero;"/><path d="M51.0003,672l21,0l0,-237l-21,237Z" style="fill:#2a2b2a;fill-rule:nonzero;"/><rect x="72" y="302" width="216" height="286" style="fill:#c1bebb;fill-rule:nonzero;"/><path d="M85.9883,318.602l0,250.834l187.051,0l0,-250.343l-187.051,-0.491Z" style="fill:#f5f3e9;fill-rule:nonzero;"/><path d="M270.101,318.947l-184.112,182.461l0,-182.806l184.112,0.345Z" style="fill:#e7e6de;fill-rule:nonzero;"/><path d="M273.039,569.437l0.01,-152.499l-157.549,152.106l157.539,0.393Z" style="fill:#e7e6de;fill-rule:nonzero;"/><path d="M121.111,569.478l103.005,-103.335l48.923,-48.922l0,-8.636l-160.734,160.86l8.806,0.033Z" style="fill:#d8d3cb;fill-rule:nonzero;"/></g><g id="roof"><path d="M51.6621,268l-3.662,32l24,0l293,-58.5l-1,-21.082l-312.338,47.582Z" style="fill:#ae2025;fill-rule:nonzero;"/></g></g></g></svg>