<?xml version="1.0" standalone="no"?><!DOCTYPE svg PUBLIC "-//W3C//DTD SVG 1.1//EN" "http://www.w3.org/Graphics/SVG/1.1/DTD/svg11.dtd"><svg width="216px" height="288px" version="1.1" xmlns="http://www.w3.org/2000/svg" xmlns:xlink="http://www.w3.org/1999/xlink" xml:space="preserve" style="fill-rule:evenodd;clip-rule:evenodd;stroke-linejoin:round;stroke-miterlimit:1.41421;"><g><g id="transit-shelter-01-right" transform="matrix(0.5,0,0,0.5,-5.18465,-48)"><g id="pole"><path d="M23.5485,111.049l-2.808,560.951l24.163,0l-8.815,-566.29l-12.54,5.339Z" style="fill:#e4e2dc;fill-rule:nonzero;"/><path d="M20.7387,672l24.167,0l-3.943,-203.396l-20.224,203.396Z" style="fill:#c1bebb;fill-rule:nonzero;"/><path d="M22.8047,255.035l13.28,-149.325l-12.537,5.357l-0.743,143.968Z" style="fill:#c1bebb;fill-rule:nonzero;"/><path d="M39,234l49,0l2,-99l-53,0l2,99Z" style="fill:#d8d3cb;fill-rule:nonzero;"/><path d="M81.332,181.998l-14.375,0l-6.285,-0.012l-0.004,30.391l6.078,0.055l0.055,-13.742l10.433,-0.212l0.032,-5.917l-10.258,0l-0.02,-4.461l14.313,-0.184l0.031,-5.918Z" style="fill:#313156;fill-rule:nonzero;"/><path d="M59.3535,145.252l0.057,16.543l16.277,0.211l0.055,13.742l6.076,-0.055l-0.002,-30.39l-6.287,0l-0.051,10.574l-10.256,0l0,-10.574l-5.869,-0.051Z" style="fill:#313156;fill-rule:nonzero;"/></g><g id="seat"><path d="M334.416,622.016l45.293,3.902l4.292,46.082l10.205,0l-0.212,-55.442l-63.734,-5.054l4.156,10.512Z" style="fill:#5c5e5f;fill-rule:nonzero;"/><path d="M291,611.508l98.25,4.801l1.125,-111.699l-10.355,5.361l-3.455,90.414l-85.565,4.725l0,6.398Z" style="fill:#ae2025;fill-rule:nonzero;"/></g><g id="ad-panel"><path d="M408,300l0,372l21.001,0l-4.001,-372l-17,0Z" style="fill:#5c5e5f;fill-rule:nonzero;"/><path d="M175,240l-4,432l21,0l0,-432l-17,0Z" style="fill:#5c5e5f;fill-rule:nonzero;"/><path d="M171,672l21,0l-18.368,-237l-2.632,237Z" style="fill:#2a2b2a;fill-rule:nonzero;"/><path d="M408,672l21.001,0l-21.001,-237l0,237Z" style="fill:#2a2b2a;fill-rule:nonzero;"/><rect x="192" y="302" width="216" height="286" style="fill:#c1bebb;fill-rule:nonzero;"/><path d="M205.988,318.602l0,250.835l187.051,0l0,-250.343l-187.051,-0.492Z" style="fill:#f5f3e9;fill-rule:nonzero;"/><path d="M390.101,318.947l-184.112,182.461l0,-182.807l184.112,0.346Z" style="fill:#e7e6de;fill-rule:nonzero;"/><path d="M393.039,569.437l0.01,-152.499l-157.549,152.106l157.539,0.393Z" style="fill:#e7e6de;fill-rule:nonzero;"/><path d="M241.111,569.478l103.005,-103.336l48.923,-48.922l0,-8.636l-160.734,160.861l8.806,0.033Z" style="fill:#d8d3cb;fill-rule:nonzero;"/></g><g id="roof"><path d="M428.338,268l3.662,32l-24,0l-293,-58.5l1,-21.082l312.338,47.582Z" style="fill:#ae2025;fill-rule:nonzero;"/></g></g></g></svg>