<?xml version="1.0" standalone="no"?><!DOCTYPE svg PUBLIC "-//W3C//DTD SVG 1.1//EN" "http://www.w3.org/Graphics/SVG/1.1/DTD/svg11.dtd"><svg width="144px" height="144px" version="1.1" xmlns="http://www.w3.org/2000/svg" xmlns:xlink="http://www.w3.org/1999/xlink" xml:space="preserve" style="fill-rule:evenodd;clip-rule:evenodd;stroke-linejoin:round;stroke-miterlimit:1.41421;"><g><g id="bike-rack-perpendicular-left" transform="matrix(0.5,0,0,0.5,-140.082,-156)"><g transform="matrix(1.99969,9.86076e-32,1.97215e-31,1.99969,9.99687e-05,-623.809)"><path d="M243.088,570.728l-1.905,2.396l11.826,11.887l2.666,-2.006l-12.587,-12.277Z" style="fill:#e4e2dc;fill-rule:nonzero;"/></g><g transform="matrix(1.99969,9.86076e-32,1.97215e-31,1.99969,9.99687e-05,-623.809)"><path d="M260.588,588.229l-1.905,2.396l11.826,11.887l2.666,-2.006l-12.587,-12.277Z" style="fill:#e4e2dc;fill-rule:nonzero;"/></g><g transform="matrix(1.99969,9.86076e-32,1.97215e-31,1.99969,9.99687e-05,-623.809)"><path d="M269.27,570.728l1.905,2.396l-11.826,11.887l-2.666,-2.006l12.587,-12.277Z" style="fill:#e4e2dc;fill-rule:nonzero;"/></g><g transform="matrix(1.99969,9.86076e-32,1.97215e-31,1.99969,9.99687e-05,-623.809)"><path d="M253.02,586.979l1.88,2.422l-13.018,13.078l-2.699,-1.973l13.837,-13.527Z" style="fill:#e4e2dc;fill-rule:nonzero;"/></g><g transform="matrix(1.99969,9.86076e-32,1.97215e-31,1.99969,9.99687e-05,-623.809)"><path d="M276.298,588.602l-0.348,-3.042l-16.767,-0.043l-0.467,3.304l17.582,-0.219Z" style="fill:#e4e2dc;fill-rule:nonzero;"/></g><g transform="matrix(1.99969,9.86076e-32,1.97215e-31,1.99969,9.99687e-05,-623.809)"><path d="M251.55,588.602l-0.348,-3.043l-16.767,-0.043l-0.467,3.305l17.582,-0.219Z" style="fill:#e4e2dc;fill-rule:nonzero;"/></g><g transform="matrix(1.99969,9.86076e-32,1.97215e-31,1.99969,9.99687e-05,-623.809)"><path d="M257.785,607.864l-3.041,-0.361l-0.043,-17.484l3.303,-0.486l-0.219,18.331Z" style="fill:#e4e2dc;fill-rule:nonzero;"/></g><g transform="matrix(1.99969,9.86076e-32,1.97215e-31,1.99969,9.99687e-05,-623.809)"><path d="M257.785,582.365l-3.041,-0.348l-0.043,-16.767l3.303,-0.467l-0.219,17.582Z" style="fill:#e4e2dc;fill-rule:nonzero;"/></g><g transform="matrix(1.99969,9.86076e-32,1.97215e-31,1.99969,9.99687e-05,-623.809)"><path d="M235.615,587.37c0,-11.046 8.954,-20 20,-20c11.046,0 20,8.954 20,20c0,11.046 -8.954,20 -20,20c-11.046,0 -20,-8.954 -20,-20M230.987,587.371c0,13.602 11.026,24.628 24.628,24.628c13.603,0 24.629,-11.026 24.629,-24.628c0,-13.603 -11.026,-24.629 -24.629,-24.629c-13.602,0 -24.628,11.026 -24.628,24.629" style="fill:#373837;fill-rule:nonzero;"/></g><g transform="matrix(1.99969,9.86076e-32,1.97215e-31,1.99969,9.99687e-05,-623.809)"><path d="M221.53,584.538l-32.294,-38.626l-2.595,2.218l32.081,38.266l2.808,-1.858Z" style="fill:#ecdbb1;fill-rule:nonzero;"/></g><g transform="matrix(1.99969,9.86076e-32,1.97215e-31,1.99969,9.99687e-05,-623.809)"><path d="M232.729,555.21l-42.622,-17.507l-1.261,3.172l42.297,17.301l1.586,-2.966Z" style="fill:#ecdbb1;fill-rule:nonzero;"/></g><g transform="matrix(1.99969,9.86076e-32,1.97215e-31,1.99969,9.99687e-05,-623.809)"><path d="M193.207,536.727l-8.768,-3.857l-1.273,3.167l8.721,3.763l1.32,-3.073Z" style="fill:#ecdbb1;fill-rule:nonzero;"/></g><g transform="matrix(1.99969,9.86076e-32,1.97215e-31,1.99969,9.99687e-05,-623.809)"><path d="M223.641,586.017l15.789,-46.584l-3.246,-1.058l-15.594,46.221l3.051,1.421Z" style="fill:#ecdbb1;fill-rule:nonzero;"/></g><g transform="matrix(1.99969,9.86076e-32,1.97215e-31,1.99969,9.99687e-05,-623.809)"><path d="M246.797,537.741l-0.579,4.002l-15.626,-0.001l-4.628,-4.001l20.833,0Z" style="fill:#c09e3e;fill-rule:nonzero;"/></g><g transform="matrix(1.99969,9.86076e-32,1.97215e-31,1.99969,9.99687e-05,-623.809)"><path d="M219.825,579.514l-0.521,1.564l-5.254,0.076l1.353,1.763l-4.147,2.67l1.563,1.404l-0.595,5.416l2.124,-0.188l2.869,3.576l1.602,-1.751l4.769,1.23l0.372,-1.938l3.614,-2.422l-1.862,-1.117l1.378,-3.465l-1.9,-0.931l-0.186,-3.317l-1.826,0.224l-3.353,-2.794Z" style="fill:#373837;fill-rule:nonzero;"/></g><g transform="matrix(1.99969,9.86076e-32,1.97215e-31,1.99969,9.99687e-05,-623.809)"><clipPath id="tag1"><rect x="183.698" y="532.87" width="9.726" height="5.706"/></clipPath><g clip-path="url(#tag1)"><g opacity="0.5"><path d="M184.44,532.87l-0.742,3.456l5.25,2.25l4.476,-2.01l-8.984,-3.696Z" style="fill:#171817;fill-rule:nonzero;"/></g></g></g><g transform="matrix(1.99969,9.86076e-32,1.97215e-31,1.99969,9.99687e-05,-623.809)"><path d="M181.053,537.41l3.331,0.083l1.418,-5.417l-6.333,-0.083l1.584,5.417Z" style="fill:#cead80;fill-rule:nonzero;"/></g><g transform="matrix(1.99969,9.86076e-32,1.97215e-31,1.99969,9.99687e-05,-623.809)"><path d="M156.088,570.728l-1.905,2.396l11.826,11.887l2.666,-2.006l-12.587,-12.277Z" style="fill:#e4e2dc;fill-rule:nonzero;"/></g><g transform="matrix(1.99969,9.86076e-32,1.97215e-31,1.99969,9.99687e-05,-623.809)"><path d="M173.588,588.229l-1.905,2.396l11.826,11.887l2.666,-2.006l-12.587,-12.277Z" style="fill:#e4e2dc;fill-rule:nonzero;"/></g><g transform="matrix(1.99969,9.86076e-32,1.97215e-31,1.99969,9.99687e-05,-623.809)"><path d="M182.27,570.728l1.905,2.396l-11.826,11.887l-2.666,-2.006l12.587,-12.277Z" style="fill:#e4e2dc;fill-rule:nonzero;"/></g><g transform="matrix(1.99969,9.86076e-32,1.97215e-31,1.99969,9.99687e-05,-623.809)"><path d="M166.02,586.979l1.88,2.422l-13.018,13.078l-2.699,-1.973l13.837,-13.527Z" style="fill:#e4e2dc;fill-rule:nonzero;"/></g><g transform="matrix(1.99969,9.86076e-32,1.97215e-31,1.99969,9.99687e-05,-623.809)"><path d="M189.298,588.602l-0.348,-3.042l-16.767,-0.043l-0.467,3.304l17.582,-0.219Z" style="fill:#e4e2dc;fill-rule:nonzero;"/></g><g transform="matrix(1.99969,9.86076e-32,1.97215e-31,1.99969,9.99687e-05,-623.809)"><path d="M164.55,588.602l-0.348,-3.043l-16.767,-0.043l-0.467,3.305l17.582,-0.219Z" style="fill:#e4e2dc;fill-rule:nonzero;"/></g><g transform="matrix(1.99969,9.86076e-32,1.97215e-31,1.99969,9.99687e-05,-623.809)"><path d="M170.785,607.864l-3.041,-0.361l-0.043,-17.484l3.303,-0.486l-0.219,18.331Z" style="fill:#e4e2dc;fill-rule:nonzero;"/></g><g transform="matrix(1.99969,9.86076e-32,1.97215e-31,1.99969,9.99687e-05,-623.809)"><path d="M170.785,582.365l-3.041,-0.348l-0.043,-16.767l3.303,-0.467l-0.219,17.582Z" style="fill:#e4e2dc;fill-rule:nonzero;"/></g><g transform="matrix(1.99969,9.86076e-32,1.97215e-31,1.99969,9.99687e-05,-623.809)"><path d="M257.137,579.327l5,6.75l-5.375,8l-8.125,-7l8.5,-7.75Z" style="fill:#373837;fill-rule:nonzero;"/></g><g transform="matrix(1.99969,9.86076e-32,1.97215e-31,1.99969,9.99687e-05,-623.809)"><path d="M167.885,579.701l8.917,6.208l-5.375,8l-8.125,-7l4.583,-7.208Z" style="fill:#373837;fill-rule:nonzero;"/></g><g transform="matrix(1.99969,9.86076e-32,1.97215e-31,1.99969,9.99687e-05,-623.809)"><path d="M256.333,585.615l-24.456,-27.629l-2.528,2.293l24.305,27.357l2.679,-2.021Z" style="fill:#ecdbb1;fill-rule:nonzero;"/></g><g transform="matrix(1.99969,9.86076e-32,1.97215e-31,1.99969,9.99687e-05,-623.809)"><path d="M148.615,587.37c0,-11.046 8.954,-20 20,-20c11.046,0 20,8.954 20,20c0,11.046 -8.954,20 -20,20c-11.046,0 -20,-8.954 -20,-20M143.987,587.371c0,13.602 11.026,24.628 24.628,24.628c13.603,0 24.629,-11.026 24.629,-24.628c0,-13.603 -11.026,-24.629 -24.629,-24.629c-13.602,0 -24.628,11.026 -24.628,24.629" style="fill:#373837;fill-rule:nonzero;"/></g><g transform="matrix(1.99969,9.86076e-32,1.97215e-31,1.99969,9.99687e-05,-623.809)"><path d="M172.336,586.932l21.088,-50.365l-3.166,-1.281l-20.848,49.974l2.926,1.672Z" style="fill:#ecdbb1;fill-rule:nonzero;"/></g><g transform="matrix(1.99969,9.86076e-32,1.97215e-31,1.99969,9.99687e-05,-623.809)"><path d="M217.377,588.464l-0.485,3.01l-10.054,-0.879l0.02,-3.315l10.519,1.184Z" style="fill:#e4e2dc;fill-rule:nonzero;"/></g><g transform="matrix(1.99969,9.86076e-32,1.97215e-31,1.99969,9.99687e-05,-623.809)"><path d="M206.757,585.076l0.667,5.666l-11.171,-0.5l-1.333,-6.333l11.837,1.167Z" style="fill:#373837;fill-rule:nonzero;"/></g><g transform="matrix(1.99969,9.86076e-32,1.97215e-31,1.99969,9.99687e-05,-623.809)"><clipPath id="tag2"><rect x="232.885" y="541.66" width="5.749" height="16.916"/></clipPath><g clip-path="url(#tag2)"><g opacity="0.5"><path d="M235.009,541.743l-2.124,16.833l5.749,-16.916l-3.625,0.083Z" style="fill:#171817;fill-rule:nonzero;"/></g></g></g><g transform="matrix(1.99969,9.86076e-32,1.97215e-31,1.99969,9.99687e-05,-623.809)"><path d="M172.38,612l0.001,-64.424l5.854,0.022l64.147,64.402l-7.456,0l-47.891,-47.893l-9.235,-9.365l-0.252,57.257l-5.168,0.001Z" style="fill:#7c705b;fill-rule:nonzero;"/></g></g></g></svg>