<?xml version="1.0" standalone="no"?><!DOCTYPE svg PUBLIC "-//W3C//DTD SVG 1.1//EN" "http://www.w3.org/Graphics/SVG/1.1/DTD/svg11.dtd"><svg width="96px" height="360px" version="1.1" xmlns="http://www.w3.org/2000/svg" xmlns:xlink="http://www.w3.org/1999/xlink" xml:space="preserve" style="fill-rule:evenodd;clip-rule:evenodd;stroke-linejoin:round;stroke-miterlimit:1.41421;"><g><g id="lamppost-both" transform="matrix(0.5,0,0,0.5,0,-24)"><g id="post"><path d="M82.9179,768l26.163,0l-3.831,-674.25l-17.75,-0.5l-4.582,674.75Z" style="fill:#5c5e5f;fill-rule:nonzero;"/><path d="M82.9179,768l26.163,0l-24.784,-203.396l-1.379,203.396Z" style="fill:#2a2b2a;fill-rule:nonzero;"/><path d="M87.5,92.25l-5.764,-17.409l14.771,-15.27l14.827,14.958l-6.084,18.221l-7.14,6.718l-10.61,-7.218Z" style="fill:#5c5e5f;fill-rule:nonzero;"/><path d="M106.124,242.075l-18.624,-149.825l17.75,0.5l0.874,149.325Z" style="fill:#2a2b2a;fill-rule:nonzero;"/></g><g id="lantern-right"><path d="M132.918,202.5l-20.918,-70l30.5,-20.25l17.75,0.5l30.75,19.584l-23.333,70.499" style="fill:#5c5e5f;fill-rule:nonzero;"/><path d="M191,133l-76.852,0l46.102,-19.75l30.75,19.75Z" style="fill:#2a2b2a;fill-rule:nonzero;"/><path d="M103.25,98.25l51.75,-2.5l2.931,17.884l-13.838,1.116l1.157,-10l-40,0.75" style="fill:#5c5e5f;fill-rule:nonzero;"/><path d="M127.148,137l12.842,55l21.344,0l14.726,-55l-48.912,0Z" style="fill:#f6f1e1;fill-rule:nonzero;"/><path d="M127.148,136.69l7.285,32.23l28.604,-32.26l-35.889,0.03Z" style="fill:#ecdbb1;fill-rule:nonzero;"/><path d="M139.99,192l-1.33,-4.133l34.075,-38.305l-11.401,42.438l-21.344,0Z" style="fill:#ecdbb1;fill-rule:nonzero;"/></g><g id="lantern-left"><path d="M59.082,202.5l20.918,-70l-30.5,-20.25l-17.75,0.5l-30.75,19.584l23.333,70.499" style="fill:#5c5e5f;fill-rule:nonzero;"/><path d="M80,132.5l-78.148,0.5l47.648,-20.75l30.5,20.25Z" style="fill:#2a2b2a;fill-rule:nonzero;"/><path d="M87.75,98.25l-50.75,-2.5l-2.931,17.884l12.838,0.116l-0.157,-9l41,0.75" style="fill:#5c5e5f;fill-rule:nonzero;"/><path d="M16.8516,138l13.842,54l21.344,0l14.726,-55l-49.912,1Z" style="fill:#f6f1e1;fill-rule:nonzero;"/><path d="M16.8516,137.69l7.926,31.23l28.963,-31.659l-36.889,0.429Z" style="fill:#ecdbb1;fill-rule:nonzero;"/><path d="M30.6934,192l-1.33,-4.133l34.075,-38.305l-11.401,42.438l-21.344,0Z" style="fill:#ecdbb1;fill-rule:nonzero;"/></g></g><g id="post-with-base" transform="matrix(0.5,0,0,0.5,0,-24)"><path id="shadow" d="M84.4238,688l24.148,0l-23.478,-134.802l-0.67,134.802Z" style="fill:#2a2b2a;fill-rule:nonzero;"/><g id="base"><path d="M78.6672,688l-4.5,79.922l-3.167,0.078l48,0l-6,-80l-34.333,0Z" style="fill:#5c5e5f;fill-rule:nonzero;"/><path d="M74.1728,768l44.816,0l-40.322,-79.666l-4.494,79.666Z" style="fill:#2a2b2a;fill-rule:nonzero;"/></g></g><g id="wyc" transform="matrix(0.5,0,0,0.5,0,-24)"><path d="M139,467l-87,-1l-2,-89l91,1l-2,89Z" style="fill:#313156;fill-rule:nonzero;"/><path d="M130,434l-68,1l-1,-49l70,1l-1,47Z" style="fill:#f5f3e9;fill-rule:nonzero;"/><path d="M63,447l-1,6l58,0l-7.332,6l6.332,1l12,-10.167l-11.332,-9.833l-6.668,0l7.001,7l-57.001,0Z" style="fill:#f5f3e9;fill-rule:nonzero;"/></g></g></svg>