<?xml version="1.0" standalone="no"?><!DOCTYPE svg PUBLIC "-//W3C//DTD SVG 1.1//EN" "http://www.w3.org/Graphics/SVG/1.1/DTD/svg11.dtd"><svg width="288px" height="744px" version="1.1" xmlns="http://www.w3.org/2000/svg" xmlns:xlink="http://www.w3.org/1999/xlink" xml:space="preserve" style="fill-rule:evenodd;clip-rule:evenodd;stroke-linejoin:round;stroke-miterlimit:1.41421;"><g><g id="lamp-modern-right" transform="matrix(1,0,0,1,-1093.55,-119.5)"><g id="lamp"><g transform="matrix(1,0,0,1,141.589,0)"><path d="M1102.8,158.45l-96.164,1.963l-39.503,33.587l-15.998,669.5l32.661,0l-3.507,-662.834l31.747,-31.666l227.933,-3.478l-21.496,-21.184l-115.673,14.112Z" style="fill:#e5e3dd;fill-rule:nonzero;"/></g><g transform="matrix(1,0,0,1,141.589,0)"><path d="M1231.1,165.667l-11.866,11.847l-33.284,0.549l-11.881,-11.828l57.031,-0.568Z" style="fill:#f9f5e3;fill-rule:nonzero;"/></g><g transform="matrix(1,0,0,1,141.589,0)"><path d="M1130.46,167l97.772,-13l11.73,11.521l-109.502,1.479Z" style="fill:#c2bfbc;fill-rule:nonzero;"/></g><g transform="matrix(1,0,0,1,141.589,0)"><path d="M951.127,863.5l32.667,0l-26.495,-253.918l-6.172,253.918Z" style="fill:#c2bfbc;fill-rule:nonzero;"/></g><g transform="matrix(1,0,0,1,141.589,0)"><path d="M981.216,380.416l-14.083,-186.416l44.75,-25l-31.595,31.687l0.928,179.729Z" style="fill:#c2bfbc;fill-rule:nonzero;"/></g></g></g></g></svg>