<?xml version="1.0" standalone="no"?><!DOCTYPE svg PUBLIC "-//W3C//DTD SVG 1.1//EN" "http://www.w3.org/Graphics/SVG/1.1/DTD/svg11.dtd"><svg width="96px" height="360px" version="1.1" xmlns="http://www.w3.org/2000/svg" xmlns:xlink="http://www.w3.org/1999/xlink" xml:space="preserve" style="fill-rule:evenodd;clip-rule:evenodd;stroke-linejoin:round;stroke-miterlimit:1.41421;"><g><g id="lamppost-left" transform="matrix(0.5,0,0,0.5,0,-24)"><g id="post"><path d="M82.9179,768l26.163,0l-3.831,-674.25l-17.75,-0.5l-4.582,674.75Z" style="fill:#5c5e5f;fill-rule:nonzero;"/><path d="M82.9179,768l26.163,0l-24.784,-203.396l-1.379,203.396Z" style="fill:#2a2b2a;fill-rule:nonzero;"/><path d="M87.5,92.25l-5.764,-17.409l14.771,-15.27l14.827,14.958l-6.084,18.221l-7.14,6.718l-10.61,-7.218Z" style="fill:#5c5e5f;fill-rule:nonzero;"/><path d="M106.124,242.075l-18.624,-149.825l17.75,0.5l0.874,149.325Z" style="fill:#2a2b2a;fill-rule:nonzero;"/></g><g id="lantern-left"><path d="M59.082,202.5l20.918,-70l-30.5,-20.25l-17.75,0.5l-30.75,19.584l23.333,70.499" style="fill:#5c5e5f;fill-rule:nonzero;"/><path d="M80,132.5l-78.148,0.5l47.648,-20.75l30.5,20.25Z" style="fill:#2a2b2a;fill-rule:nonzero;"/><path d="M87.75,98.25l-50.75,-2.5l-2.931,17.884l12.838,0.116l-0.157,-9l41,0.75" style="fill:#5c5e5f;fill-rule:nonzero;"/><path d="M16.8516,138l13.842,54l21.344,0l14.726,-55l-49.912,1Z" style="fill:#f6f1e1;fill-rule:nonzero;"/><path d="M16.8516,137.69l7.926,31.23l28.963,-31.659l-36.889,0.429Z" style="fill:#ecdbb1;fill-rule:nonzero;"/><path d="M30.6934,192l-1.33,-4.133l34.075,-38.305l-11.401,42.438l-21.344,0Z" style="fill:#ecdbb1;fill-rule:nonzero;"/></g></g></g></svg>