<?xml version="1.0" standalone="no"?><!DOCTYPE svg PUBLIC "-//W3C//DTD SVG 1.1//EN" "http://www.w3.org/Graphics/SVG/1.1/DTD/svg11.dtd"><svg width="384px" height="744px" version="1.1" xmlns="http://www.w3.org/2000/svg" xmlns:xlink="http://www.w3.org/1999/xlink" xml:space="preserve" style="fill-rule:evenodd;clip-rule:evenodd;stroke-linejoin:round;stroke-miterlimit:1.41421;"><g><g id="lamp-modern-both" transform="matrix(1,0,0,1,-1721.98,-119.5)"><g transform="matrix(1,0,0,1,141.589,0)"><path d="M1576.86,165.522l151.27,3.189l31.742,31.955l-3.507,662.834l32.661,0l-8.373,-467.625l34.125,-35.125l152.428,-3.562l-16.327,-21.183l-115.672,14.111l-27.908,1.964l-26.938,17.587l-7.332,-175.668l-39.501,-33.874l-19.999,-1.675l-115.674,-14.113l-20.995,21.185Z" style="fill:#e5e3dd;fill-rule:nonzero;"/></g><g transform="matrix(1,0,0,1,141.589,0)"><path d="M1585.44,165.667l11.645,11.847l33.284,0.549l12.071,-11.828l-57,-0.568Z" style="fill:#f9f5e3;fill-rule:nonzero;"/></g><g transform="matrix(1,0,0,1,141.589,0)"><path d="M1694.53,167.833l-106.001,-14.041l-11.687,11.677l117.688,2.364Z" style="fill:#c2bfbc;fill-rule:nonzero;"/></g><g transform="matrix(1,0,0,1,141.589,0)"><path d="M1756.36,863.5l32.667,0l-4.001,-225.334l-28.666,225.334Z" style="fill:#c2bfbc;fill-rule:nonzero;"/></g><g transform="matrix(1,0,0,1,141.589,0)"><path d="M1759.03,367.666l14.499,-172.666l-42.125,-22.625l28.5,28.979l-0.874,166.312Z" style="fill:#c2bfbc;fill-rule:nonzero;"/></g><g transform="matrix(1,0,0,1,141.589,0)"><path d="M1963.4,357.334l-11.758,11.846l-33.284,0.55l-11.831,-11.828l56.873,-0.568Z" style="fill:#f9f5e3;fill-rule:nonzero;"/></g><g transform="matrix(1,0,0,1,141.589,0)"><path d="M1854.15,359.875l104.136,-14.209l9.645,11.522l-113.781,2.687Z" style="fill:#c2bfbc;fill-rule:nonzero;"/></g></g></g></svg>