<?xml version="1.0" standalone="no"?>
<!DOCTYPE svg PUBLIC "-//W3C//DTD SVG 1.1//EN" "http://www.w3.org/Graphics/SVG/1.1/DTD/svg11.dtd">
<svg width="100%" height="100%" viewBox="0 0 96 144" version="1.1" xmlns="http://www.w3.org/2000/svg" xmlns:xlink="http://www.w3.org/1999/xlink" xml:space="preserve" style="fill-rule:evenodd;clip-rule:evenodd;stroke-linejoin:round;stroke-miterlimit:1.41421;">
    <g id="pride-banner">
        <path d="M80.732,2.467L91.3723,2.467L92.5541,140.554L81.9138,140.554L80.732,2.467Z" style="fill:rgb(174,32,37);"/>
        <path d="M71.091,2.467L81.732,2.467L82.9138,140.554L72.2728,140.554L71.091,2.467Z" style="fill:rgb(241,158,117);"/>
        <path d="M60.1074,2.467L72.091,2.467L73.2728,140.554L62.6319,140.554L60.1074,2.467Z" style="fill:rgb(255,232,118);"/>
        <path d="M50.1243,2.467L62.1074,2.467L63.6319,140.554L52.9916,140.554L50.1243,2.467Z" style="fill:rgb(103,154,69);"/>
        <path d="M40.4834,2.467L51.1243,2.467L53.9916,140.554L43.3506,140.554L40.4834,2.467Z" style="fill:rgb(54,99,135);"/>
        <path d="M32.3669,2.467L42.4834,2.467L44.3506,140.554L34.7096,140.554L32.3669,2.467Z" style="fill:rgb(50,49,86);"/>
        <path d="M93.6997,0L3.0715,0L4,4.496L93.0424,3.839L93.6997,0Z" style="fill:rgb(92,94,95);"/>
        <path d="M94.1631,139.609L0.65728,138.952L0,144L94.8204,144L94.1631,139.609Z" style="fill:rgb(92,94,95);"/>
    </g>
</svg>
