<?xml version="1.0" encoding="UTF-8" standalone="no"?>
<!DOCTYPE svg PUBLIC "-//W3C//DTD SVG 1.1//EN" "http://www.w3.org/Graphics/SVG/1.1/DTD/svg11.dtd">
<svg width="100%" height="100%" viewBox="0 0 420 620" version="1.1" xmlns="http://www.w3.org/2000/svg" xmlns:xlink="http://www.w3.org/1999/xlink" xml:space="preserve" xmlns:serif="http://www.serif.com/" style="fill-rule:evenodd;clip-rule:evenodd;stroke-linejoin:round;stroke-miterlimit:2;">
    <g id="palm-tree" transform="matrix(1.27,0,0,1.27,-3.36,-142)">
        <g transform="matrix(1,0,0,1,-1985.9,-263.5)">
            <path d="M2084.51,562.238L2083.98,570.16L2104.85,542.5L2091.35,548.5L2084.51,562.238Z" style="fill:rgb(140,173,67);fill-rule:nonzero;"/>
        </g>
        <g transform="matrix(1,0,0,1,-1985.9,-263.5)">
            <path d="M2151.19,495.166L2173.37,413.967L2197.93,384.259L2244.66,385.447L2245.85,390.2L2224.86,398.519L2221.69,395.35L2221.3,398.123L2195.55,420.303L2190.45,431.857L2184.2,436.033L2188.18,437.006L2159.68,496.553L2151.19,495.166Z" style="fill:rgb(102,156,70);fill-rule:nonzero;"/>
        </g>
        <g transform="matrix(1,0,0,1,-1985.9,-263.5)">
            <path d="M2246.72,560.027L2238.7,532.894L2248.66,550.533L2246.72,560.027Z" style="fill:rgb(138,187,106);fill-rule:nonzero;"/>
        </g>
        <g transform="matrix(1,0,0,1,-1985.9,-263.5)">
            <path d="M2146.8,501.531L2153.89,490.015L2179.61,460.416L2232.84,435.622L2267.84,441.052L2247.67,456.191L2240.8,454.818L2238.42,456.746L2240.1,460.932L2220.13,467.059L2208.1,463.478L2213.54,469.57L2188.68,479.047L2165.13,496.638L2161.08,496.225L2161.53,498.912L2152.7,504.748L2146.8,501.531Z" style="fill:rgb(102,156,70);fill-rule:nonzero;"/>
        </g>
        <g transform="matrix(1,0,0,1,-1985.9,-263.5)">
            <path d="M2159.9,493.186L2074.87,457.801L2034.21,458.857L2002.78,474.438L1991.96,485.527L2030.51,483.414L2035.26,481.039L2036.58,484.207L2087.55,480.51L2133.5,492.394L2159.9,493.186Z" style="fill:rgb(102,156,70);fill-rule:nonzero;"/>
        </g>
        <g transform="matrix(1,0,0,1,-1985.9,-263.5)">
            <path d="M2149.21,503.088L2144.54,646.875L2146.44,722.526L2140.98,816.25L2140.1,863.5L2169.41,863.5L2167.39,796.201L2160.85,708.084L2164.66,626.813L2157.92,497.938L2149.21,503.088Z" style="fill:rgb(124,112,90);fill-rule:nonzero;"/>
        </g>
        <g transform="matrix(1,0,0,1,-1985.9,-263.5)">
            <path d="M2155.28,501.107L2150.4,501.372L2143.53,481.698L2144.32,481.302L2139.43,478.662L2126.83,433.375L2137.85,429.75L2121.15,424.116L2117.92,417.134L2084.35,414.75L2111.97,400.101L2127.03,410.252L2142.08,427.945L2155.28,501.107Z" style="fill:rgb(54,130,63);fill-rule:nonzero;"/>
        </g>
        <g transform="matrix(1,0,0,1,-1985.9,-263.5)">
            <path d="M2158.27,500.992L2151.89,426.545L2139.8,402.066L2112.07,399.888L2090.09,412.174L2122.17,414.346L2126.35,421.5L2142.23,427.75L2128.99,428.693L2141.1,466.875L2146.8,471.721L2142.45,472.117L2151.56,501.422L2158.27,500.992Z" style="fill:rgb(138,187,106);fill-rule:nonzero;"/>
        </g>
        <g transform="matrix(1,0,0,1,-1985.9,-263.5)">
            <path d="M2067.88,536.097L2083.46,533.721L2150.4,501.372L2113.56,504.673L2067.88,536.097Z" style="fill:rgb(54,130,63);fill-rule:nonzero;"/>
        </g>
        <g transform="matrix(1,0,0,1,-1985.9,-263.5)">
            <path d="M2159.75,493.543L2146.44,491.205L2107.22,490.809L2053.35,514.179L2034.19,543.97L2058.9,538.927L2062.43,532.875L2065.45,532.371L2067.47,536.405L2085.3,525.534L2115.14,509.953L2143.93,504.012L2146.3,500.712L2148.02,502.824L2158.24,500.098L2159.75,493.543Z" style="fill:rgb(138,187,106);fill-rule:nonzero;"/>
        </g>
        <g transform="matrix(1,0,0,1,-1985.9,-263.5)">
            <path d="M2146.43,722.917L2141.1,816.75L2160.93,708.335" style="fill:rgb(99,88,73);fill-rule:nonzero;"/>
        </g>
        <g transform="matrix(1,0,0,1,-1985.9,-263.5)">
            <path d="M2164.66,626.813L2144.54,646.938L2159.23,523.188L2164.66,626.813Z" style="fill:rgb(153,139,116);fill-rule:nonzero;"/>
        </g>
        <g transform="matrix(1,0,0,1,-1985.9,-263.5)">
            <path d="M2160.83,491.998L2216.61,471.768L2243.48,473.512L2246.39,479.059L2236.88,476.945L2230.28,478.53L2216.81,478.794L2160.83,491.998Z" style="fill:rgb(0,112,66);fill-rule:nonzero;"/>
        </g>
        <g transform="matrix(1,0,0,1,-1985.9,-263.5)">
            <path d="M2151.06,491.998L2108.81,506.785L2084.51,562.238L2083.98,570.16L2099.83,550.619L2120.43,519.459L2151.36,502.098L2151.06,491.998Z" style="fill:rgb(102,156,70);fill-rule:nonzero;"/>
        </g>
        <g transform="matrix(1,0,0,1,-1985.9,-263.5)">
            <path d="M2135.21,510.481L2099.83,550.62L2120.43,519.46L2135.21,510.481Z" style="fill:rgb(54,130,63);fill-rule:nonzero;"/>
        </g>
        <g transform="matrix(1,0,0,1,-1985.9,-263.5)">
            <path d="M2151.17,502.692L2151.17,494.769L2231.33,509.161L2256.42,530.022L2253.51,556.693L2246.65,560.127L2247.18,549.828L2238.73,532.927L2239.26,526.326L2232.29,529.226L2213.9,518.668L2201.14,514.929L2196.48,509.5L2196.12,513.11L2151.17,502.692Z" style="fill:rgb(54,130,63);fill-rule:nonzero;"/>
        </g>
        <g transform="matrix(1,0,0,1,-1985.9,-263.5)">
            <path d="M2151.56,494.869L2231.47,509.227L2246.62,521.902L2233.81,519.144L2232.57,514.107L2230.41,517.246L2216.51,510.433L2215.22,508.565L2209.42,508.213L2151.56,494.869Z" style="fill:rgb(138,187,106);fill-rule:nonzero;"/>
        </g>
        <g transform="matrix(1,0,0,1,-1985.9,-263.5)">
            <path d="M2149.21,503.088L2154.93,493.978L2122.27,455.16L2095.14,446.05L2064.44,448.229L2051.77,462.885L2063.26,461.497L2069.79,452.387L2069.59,460.508L2091.38,459.716L2101.28,464.469L2107.02,465.063L2104.05,466.251L2127.22,481.897L2149.21,503.088Z" style="fill:rgb(54,130,63);fill-rule:nonzero;"/>
        </g>
        <g transform="matrix(1,0,0,1,-1985.9,-263.5)">
            <g opacity="0.5">
                <path d="M2141.85,494.5L2108.81,506.785L2120.43,519.459L2149.21,503.088L2141.85,494.5Z" style="fill:rgb(54,130,63);fill-rule:nonzero;"/>
            </g>
        </g>
        <g transform="matrix(1,0,0,1,-1985.9,-263.5)">
            <g opacity="0.4">
                <path d="M2154.43,493.978L2179.11,460.416L2213.04,469.571L2188.35,479L2175.85,488.75L2154.43,493.978Z" style="fill:rgb(54,130,63);fill-rule:nonzero;"/>
            </g>
        </g>
        <g transform="matrix(1,0,0,1,-1985.9,-263.5)">
            <path d="M2151.96,494.969L2216.61,471.768L2243.9,472.702L2257.3,497.073L2255.15,522.165L2239.96,493.821L2230.47,493.639L2220.09,483.026L2224.08,493.517L2171.73,499.657L2166.99,496.369L2168.42,500.502L2149.11,503.395L2151.96,494.969Z" style="fill:rgb(138,187,106);fill-rule:nonzero;"/>
        </g>
        <g transform="matrix(1,0,0,1,-1985.9,-263.5)">
            <path d="M2222.19,440.333L2267.84,441.053L2232.84,435.622L2222.19,440.333Z" style="fill:rgb(138,187,106);fill-rule:nonzero;"/>
        </g>
        <g transform="matrix(1,0,0,1,-1985.9,-263.5)">
            <path d="M2164.35,447L2152.1,491L2154.43,494.478L2165.85,478.75L2164.35,447Z" style="fill:rgb(54,130,63);fill-rule:nonzero;"/>
        </g>
        <g transform="matrix(1,0,0,1,-1985.9,-263.5)">
            <path d="M2196.35,479.25L2216.35,476.75L2243.48,473.512L2216.61,471.768L2196.35,479.25Z" style="fill:rgb(102,156,70);fill-rule:nonzero;"/>
        </g>
        <g transform="matrix(1,0,0,1,-1985.9,-263.5)">
            <g opacity="0.4">
                <path d="M2244.99,385.447L2246.18,390.2L2187.18,398.333L2198.26,384.259L2244.99,385.447Z" style="fill:rgb(138,187,106);fill-rule:nonzero;"/>
            </g>
        </g>
        <g transform="matrix(1,0,0,1,-1985.9,-263.5)">
            <path d="M2142.45,472.117L2145.85,483.334L2152.02,490.667L2156.18,476.417L2154.43,457.834L2146.6,471.667L2142.45,472.117Z" style="fill:rgb(102,156,70);fill-rule:nonzero;"/>
        </g>
        <g transform="matrix(1,0,0,1,-1985.9,-263.5)">
            <path d="M2019.85,466.25L2030.51,483.415L1991.96,485.527L2002.79,474.438L2019.85,466.25Z" style="fill:rgb(138,187,106);fill-rule:nonzero;"/>
        </g>
        <g transform="matrix(1,0,0,1,-1985.9,-263.5)">
            <path d="M2107.22,490.809L2053.35,514.179L2052.85,522.666L2107.22,490.809Z" style="fill:rgb(102,156,70);fill-rule:nonzero;"/>
        </g>
    </g>
</svg>
