<?xml version="1.0" encoding="UTF-8" standalone="no"?>
<!DOCTYPE svg PUBLIC "-//W3C//DTD SVG 1.1//EN" "http://www.w3.org/Graphics/SVG/1.1/DTD/svg11.dtd">
<svg width="100%" height="100%" viewBox="0 0 32 32" version="1.1" xmlns="http://www.w3.org/2000/svg" xmlns:xlink="http://www.w3.org/1999/xlink" xml:space="preserve" xmlns:serif="http://www.serif.com/" style="fill-rule:evenodd;clip-rule:evenodd;stroke-linejoin:round;stroke-miterlimit:2;">
    <g id="night">
        <g transform="matrix(0.520736,0,0,0.520736,-624.313,-553.662)">
            <path d="M1208.64,1108.3L1206.66,1106.17L1208.66,1104.08L1210.88,1106.05L1208.64,1108.3Z" style="fill:rgb(246,243,234);"/>
        </g>
        <g transform="matrix(0.520736,0,0,0.520736,-617.481,-601.041)">
            <path d="M1236.98,1203.82L1238.47,1201.87L1236.66,1200.1L1234.96,1201.93L1236.98,1203.82Z" style="fill:rgb(231,229,221);fill-opacity:0.75;"/>
        </g>
        <g transform="matrix(0.520736,0,0,0.520736,-645.025,-529.085)">
            <path d="M1268.49,1068.52L1266.52,1070.36L1265.08,1068.72L1266.42,1067.15L1268.49,1068.52Z" style="fill:rgb(246,241,226);"/>
        </g>
        <g transform="matrix(0.520736,0,0,0.520736,-706.324,-530.747)">
            <path d="M1375.21,1052.48L1372.89,1049.95L1370.63,1052.42L1372.8,1054.67L1375.21,1052.48Z" style="fill:rgb(246,243,234);fill-opacity:0.3;"/>
        </g>
        <g transform="matrix(0.520736,0,0,0.520736,-673.582,-614.772)">
            <path d="M1346.31,1192.61L1348.08,1190.66L1346.26,1188.69C1345.68,1189.23 1344.85,1190.13 1344.33,1190.7L1346.31,1192.61Z" style="fill:rgb(246,241,226);"/>
        </g>
        <g transform="matrix(0.520736,0,0,0.520736,-676.522,-590.154)">
            <path d="M1312.98,1145.08L1311.14,1143.11L1312.78,1141.67L1314.35,1143.01L1312.98,1145.08Z" style="fill:rgb(246,241,226);"/>
        </g>
        <g id="moon" transform="matrix(0.0720736,0,0,0.0720736,12.9179,5.28268)">
            <g transform="matrix(1,0,0,1,1.08976,-1.0909)">
                <circle cx="98.91" cy="101.091" r="94.147" style="fill:rgb(228,226,220);"/>
                <clipPath id="_clip1">
                    <circle cx="98.91" cy="101.091" r="94.147"/>
                </clipPath>
                <g clip-path="url(#_clip1)">
                    <g transform="matrix(2.12812,0.593656,-0.593656,2.12812,-124.085,-237.677)">
                        <path d="M152.504,47.906L183.365,57.934L202.438,84.185L202.438,116.635L183.365,142.886L152.504,152.914L121.643,142.886L102.57,116.635L102.57,84.185L121.643,57.934L152.504,47.906Z" style="fill:rgb(246,244,239);"/>
                    </g>
                </g>
            </g>
            <g transform="matrix(0.364411,0.312609,-0.312609,0.364411,157.442,134.055)">
                <path d="M3.043,-0L-0,9.479L18.691,9.444L15.564,0.041L3.043,-0Z" style="fill:rgb(228,226,220);fill-rule:nonzero;"/>
            </g>
            <g transform="matrix(0.595334,0.510706,-0.510706,0.595334,115.095,67.4836)">
                <path d="M3.043,-0L-0,9.479L18.691,9.444L15.564,0.041L3.043,-0Z" style="fill:rgb(228,226,220);fill-rule:nonzero;"/>
            </g>
            <g transform="matrix(0.406462,0.348683,-0.348683,0.406462,65.9015,118.462)">
                <path d="M3.043,-0L-0,9.479L18.691,9.444L15.564,0.041L3.043,-0Z" style="fill:rgb(228,226,220);fill-rule:nonzero;"/>
            </g>
            <g transform="matrix(-0.437685,-0.368541,0.368541,-0.437685,81.6181,38.1889)">
                <path d="M3.043,-0L-0,9.479L18.691,9.444L15.564,0.041L3.043,-0Z" style="fill:rgb(228,226,220);fill-rule:nonzero;"/>
            </g>
            <g transform="matrix(-0.471468,-0.396986,0.396986,-0.471468,144.901,149.481)">
                <path d="M3.043,-0L-0,9.479L18.691,9.444L15.564,0.041L3.043,-0Z" style="fill:rgb(228,226,220);fill-rule:nonzero;"/>
            </g>
            <g transform="matrix(0.731295,0.682062,-0.682062,0.731295,107.563,-83.5003)">
                <path d="M147.469,76.676L158.615,84.774L154.358,97.878L140.58,97.878L136.322,84.774L147.469,76.676Z" style="fill:rgb(228,226,220);"/>
            </g>
            <g transform="matrix(0.434754,1.52244,-1.48671,0.424551,133.554,-203.381)">
                <path d="M147.469,76.676L158.615,84.774L154.358,97.878L140.58,97.878L136.322,84.774L147.469,76.676Z" style="fill:rgb(228,226,220);"/>
            </g>
            <g transform="matrix(-1.43671,-1.2828,1.2828,-1.43671,204.869,424.923)">
                <path d="M147.469,76.676L158.615,84.774L154.358,97.878L140.58,97.878L136.322,84.774L147.469,76.676Z" style="fill:rgb(228,226,220);"/>
            </g>
            <g transform="matrix(-0.865764,-0.720217,0.703314,-0.845446,108.766,283.981)">
                <path d="M147.469,76.676L158.615,84.774L154.358,97.878L140.58,97.878L136.322,84.774L147.469,76.676Z" style="fill:rgb(228,226,220);"/>
            </g>
            <g transform="matrix(-1.45476,-0.153265,0.149668,-1.42062,307.658,312.415)">
                <path d="M147.469,76.676L158.615,84.774L154.358,97.878L140.58,97.878L136.322,84.774L147.469,76.676Z" style="fill:rgb(228,226,220);"/>
            </g>
        </g>
    </g>
</svg>
