<?xml version="1.0" encoding="UTF-8" standalone="no"?>
<!DOCTYPE svg PUBLIC "-//W3C//DTD SVG 1.1//EN" "http://www.w3.org/Graphics/SVG/1.1/DTD/svg11.dtd">
<svg width="100%" height="100%" viewBox="0 0 32 32" version="1.1" xmlns="http://www.w3.org/2000/svg" xmlns:xlink="http://www.w3.org/1999/xlink" xml:space="preserve" xmlns:serif="http://www.serif.com/" style="fill-rule:evenodd;clip-rule:evenodd;stroke-linejoin:round;stroke-miterlimit:2;">
    <g id="holodeck">
        <rect x="0" y="0" width="32" height="32" style="fill:none;"/>
        <clipPath id="_clip1">
            <rect x="0" y="0" width="32" height="32"/>
        </clipPath>
        <g clip-path="url(#_clip1)">
            <g transform="matrix(0.292989,0,0,0.5,5.625,0)">
                <rect x="0" y="0" width="2.56" height="64" style="fill:rgb(252,209,87);"/>
            </g>
            <g transform="matrix(0.292989,0,0,0.5,15.625,0)">
                <rect x="0" y="0" width="2.56" height="64" style="fill:rgb(252,209,87);"/>
            </g>
            <g transform="matrix(0.292989,0,0,0.5,25.625,0)">
                <rect x="0" y="0" width="2.56" height="64" style="fill:rgb(252,209,87);"/>
            </g>
            <g transform="matrix(1.79404e-17,0.292989,-0.5,3.06162e-17,32,5.625)">
                <rect x="0" y="0" width="2.56" height="64" style="fill:rgb(252,209,87);"/>
            </g>
            <g transform="matrix(1.79404e-17,0.292989,-0.5,3.06162e-17,32,15.625)">
                <rect x="0" y="0" width="2.56" height="64" style="fill:rgb(252,209,87);"/>
            </g>
            <g transform="matrix(1.79404e-17,0.292989,-0.5,3.06162e-17,32,25.625)">
                <rect x="0" y="0" width="2.56" height="64" style="fill:rgb(252,209,87);"/>
            </g>
        </g>
    </g>
</svg>
