<?xml version="1.0" encoding="UTF-8" standalone="no"?><!DOCTYPE svg PUBLIC "-//W3C//DTD SVG 1.1//EN" "http://www.w3.org/Graphics/SVG/1.1/DTD/svg11.dtd"><svg width="100%" height="100%" viewBox="0 0 36 36" version="1.1" xmlns="http://www.w3.org/2000/svg" xmlns:xlink="http://www.w3.org/1999/xlink" xml:space="preserve" xmlns:serif="http://www.serif.com/" style="fill-rule:evenodd;clip-rule:evenodd;stroke-linejoin:round;stroke-miterlimit:2;"><g id="aladdin-jasmine"><path d="M20.657,36l-20.657,0l0,-2.099l2.01,-2.442l0.343,-1l1.475,0l0.342,1l0,0.001l3.071,0l-0.104,-1.669l-6.532,-2.101l2.754,-10.309l0,0l-1.349,-1.349l-0.604,-3.994l4.514,-3.91l1.483,-0.364l-0.028,-0.11l0,-1.636l1.112,-1.112l1.971,0l1.113,1.112l0,1.636l-0.029,0.11l1.484,0.364l4.514,3.91l-0.604,3.994l-1.349,1.349l0,0l2.754,10.309l-6.532,2.101l-0.105,1.669l3.071,0l0.342,-1.002l1.476,0.001l0.342,1.001l0.001,0l0,0l3.721,4.54Zm-9.188,-20.672l-3.992,0l-3.144,1.156l0.605,8.99l3.206,2.216l2.658,0l3.206,-2.216l0.604,-8.99l-3.143,-1.156Z"/><path d="M18.851,36l0.032,-0.046l0.001,0l0.767,-1.104l4.755,-2.44l0,-0.001l-0.188,-0.374l0.472,-0.256l-6.188,-8.741l-0.502,-4.214l1.059,-2.171l1.354,-0.817l0.001,0l0.315,-1.78l0.753,-0.187l-0.001,0l0.88,-2.839l4.361,-2.282l4.362,2.282l0.88,2.839l0,0l0.752,0.187l0.316,1.781l0.001,0l1.356,0.816l1.057,2.172l-0.501,4.213l-3.666,5.178l0,2.269l2.121,2.121l2.6,-2.423l0,5.817l-17.149,0Zm8.686,-20.979l-0.816,0.816l-0.344,-0.344l0,-0.002l-0.47,-0.469l-1.04,1.872l-3.271,2.167l0,0l-0.001,0l0.111,1.527l-0.904,0.366l0,0.001l0,0l-0.145,1.379l0.674,1.061l0.589,0.129l0.126,1.722l3.203,3.235l0.001,0.001l0.47,0.475l2.004,0l0.473,-0.476l0,0l3.203,-3.235l0.126,-1.722l0.588,-0.129l0.674,-1.061l-0.144,-1.379l-0.905,-0.367l0.111,-1.527l-3.271,-2.167l-1.041,-1.873l0,0l-0.001,0Z" style="fill-rule:nonzero;"/></g></svg>