<?xml version="1.0" standalone="no"?>
<!DOCTYPE svg PUBLIC "-//W3C//DTD SVG 1.1//EN" "http://www.w3.org/Graphics/SVG/1.1/DTD/svg11.dtd">
<svg width="48px" height="48px" version="1.1" xmlns="http://www.w3.org/2000/svg" xmlns:xlink="http://www.w3.org/1999/xlink" xml:space="preserve" style="fill-rule:evenodd;clip-rule:evenodd;stroke-linejoin:round;stroke-miterlimit:1.41421;">
    <g>
        <g id="flowers">
            <g>
                <path d="M33.4526,39.4619C34.4067,39.2887 35.0247,39.1746 35.0247,39.1746L37.3287,37.1246L42.5667,39.6656L48,40.8116L48,48L0,48L0,39.2526L1.5717,40.5626L2.2697,38.5976L4.4357,39.0896L5.1337,37.1246L9.1677,38.7226L10.0057,38.8866L12.4213,38.3532L9.9785,27.0654L8.0245,25.2674L11.5955,25.4454L13.0073,31.0915L13.5488,22.5694L13.983,22.5266L10.4209,22.5147L8.5449,16.8737L19.7599,16.8527L17.9339,22.5397L14.9781,22.5299L14.9906,26.5086L19.5163,24.5889L20.4983,27.4429L18.5743,26.5459L14.9958,28.193L15.0259,37.7781L17.9857,37.1246C17.9857,37.1246 21.7686,40.1481 22.8718,40.9504L23.5803,34.6734L20.4707,34.6631L18.5947,29.0221L29.8107,29.0011L27.9837,34.6881L24.9734,34.6781L25.1535,40.9005C26.7205,40.6557 28.9487,40.2683 30.8919,39.9225L31.7046,29.0946L25.35,26.1694L23.424,27.0654L24.407,24.2114L31.8279,27.4507L31.9951,25.2234L29.0215,25.2139L27.1445,19.5719L38.3605,19.5509L36.5335,25.2379L33.4543,25.2281L33.4533,33.8727L37.6631,29.2065L42.7491,32.2935L38.1391,31.2845L33.453,36.1551L33.4526,39.4619Z" style="fill:black;"/>
            </g>
        </g>
    </g>
</svg>
