<svg xmlns="http://www.w3.org/2000/svg" fill="none" stroke="currentColor" stroke-linecap="round" stroke-linejoin="round" stroke-width="32" viewBox="0 0 512 512">
  <path d="m32,352c94.22,10.98,90.68,57.21,168.98,88.32,60.41,24,279.02,9.55,279.02,9.55"/>
  <g>
    <polyline points="240.08 404.65 272.08 340.65 400.08 340.65 431.92 404.65"/>
    <line x1="272.08" y1="340.65" x2="208.08" y2="276.65"/>
  </g>
  <line x1="192.13" y1="74.32" x2="195.25" y2="66.29"/>
  <path d="m193.74,202.98c22.05-16.26,55.13-3.49,59.67,23.13h0s0,0,0,0c22.36-57.68-3.61-129.44-61.28-151.79-57.68-22.36-125.22,13.16-147.58,70.84h0c22.8-14.65,56.66-3.05,59.67,23.13,29.02-25.71,92.83-2.67,89.51,34.7Z"/>
  <line x1="154.65" y1="171.02" x2="97.79" y2="317.71"/>
</svg>