<?xml version="1.0" encoding="UTF-8" standalone="no"?>
<!DOCTYPE svg PUBLIC "-//W3C//DTD SVG 1.1//EN" "http://www.w3.org/Graphics/SVG/1.1/DTD/svg11.dtd">
<svg width="100%" height="100%" viewBox="0 0 48 48" version="1.1" xmlns="http://www.w3.org/2000/svg" xmlns:xlink="http://www.w3.org/1999/xlink" xml:space="preserve" xmlns:serif="http://www.serif.com/" style="fill-rule:evenodd;clip-rule:evenodd;stroke-linejoin:round;stroke-miterlimit:2;">
    <g id="microvan" transform="matrix(0.22313,0,0,0.22313,-8.13075,-11.448)">
        <g transform="matrix(1,0,0,1,199.287,149.788)">
            <path d="M0,20.368L4.711,13.606L9.81,13.385L8.896,0L-1.164,0.166L0.083,13.052L-2.327,16.874L0,20.368Z" style="fill-rule:nonzero;"/>
        </g>
        <g transform="matrix(1,0,0,1,88.7131,149.788)">
            <path d="M0,20.368L-4.711,13.606L-9.81,13.385L-8.896,0L1.164,0.166L-0.083,13.052L2.327,16.874L0,20.368Z" style="fill-rule:nonzero;"/>
        </g>
        <g transform="matrix(-0.999995,-0.00305039,-0.00305039,0.999995,181.035,228.3)">
            <path d="M-15.455,19.785L-2.342,19.785L1.713,0.029L-17.078,0.181L-15.455,19.785Z" style="fill-rule:nonzero;"/>
        </g>
        <g transform="matrix(0.999995,-0.00305016,-0.00305016,-0.999995,90.6593,248.239)">
            <path d="M-0.03,0.024L13.084,0.024L17.139,19.78L-1.653,19.628L-0.03,0.024Z" style="fill-rule:nonzero;"/>
        </g>
        <g transform="matrix(4.48169,0,0,4.48169,36.4395,51.3063)">
            <path d="M14.84,15.112L11.688,25.709L10.743,28.77L10.694,36.397L11.46,39.569L36.343,39.578L37.06,36.372L37.102,28.823L36.14,25.362L32.731,15.112L14.84,15.112ZM15.619,32.908C15.619,33.715 14.964,34.37 14.157,34.37C13.349,34.37 12.694,33.715 12.694,32.908C12.694,32.1 13.349,31.445 14.157,31.445C14.964,31.445 15.619,32.1 15.619,32.908ZM32.399,32.908C32.399,33.715 33.054,34.37 33.862,34.37C34.67,34.37 35.324,33.715 35.324,32.908C35.324,32.1 34.67,31.445 33.862,31.445C33.054,31.445 32.399,32.1 32.399,32.908ZM14.973,18.19L12.87,25.565L35.112,25.58L32.719,18.171L14.973,18.19Z"/>
        </g>
    </g>
</svg>
