<?xml version="1.0" encoding="UTF-8" standalone="no"?><!DOCTYPE svg PUBLIC "-//W3C//DTD SVG 1.1//EN" "http://www.w3.org/Graphics/SVG/1.1/DTD/svg11.dtd"><svg width="100%" height="100%" viewBox="0 0 36 36" version="1.1" xmlns="http://www.w3.org/2000/svg" xmlns:xlink="http://www.w3.org/1999/xlink" xml:space="preserve" xmlns:serif="http://www.serif.com/" style="fill-rule:evenodd;clip-rule:evenodd;stroke-linejoin:round;stroke-miterlimit:2;"><g id="motorcycle-sidecar"><path d="M27.287,9.533l0.297,-0.515l0.454,0.102l0.12,0.611l1.032,0.234l0.015,-0.23l4.717,0.384l-0.195,1.384l-4.497,-0.601l-0.188,4.181l-1.866,-0.039l0,0l0.02,0.519l0.827,-0.005l1.234,1.965l-0.006,5.478l2.434,0.112l0.165,1.071l-2.6,-0.029l-0.003,3.153l-1.052,1.239l-0.373,-0.006l0.024,3.809l-0.64,0.65l-1.082,0l-0.662,-0.576l-0.007,-3.922l-0.267,-0.004l-0.98,-1.093l0,0.408l-18.024,0.107l0,0.369l-0.114,0.102l0.024,3.959l-0.64,0.65l-1.082,0l-0.662,-0.576l-0.007,-4.04l-0.093,-0.084l-0.032,-10.724l0.56,-0.72l1.642,0.018l0.393,0.657l0.006,5.561l0.712,1.1l0.011,0.786l2.015,2.292l2.695,-0.003l0.007,-0.85l-0.387,-0.002l-2.066,-5.04l1.691,-3.124l7.619,-0.053l1.703,2.89l-1.868,5.354l-0.346,-0.002l0.043,0.817l3.396,-0.005l2.052,-2.334l-0.001,-0.187l0.207,-0.318l-2.515,0.338l0.278,-1.298l2.713,-0.216l-0.086,-5.92l1.207,-1.743l0.919,-0.005l-0.028,-0.525l-1.622,-0.212l-0.206,-4.045l-4.487,0.6l-0.195,-1.383l4.717,-0.384l0.014,0.209l1.077,-0.175l0.036,-0.498l0.653,-0.057l0.214,0.422l0.84,-0.009l0.096,0.021Zm-20.354,17.74l1.004,-0.001l-1.02,-1.148l0.016,1.149Zm5.492,-0.008l4.858,-0.007l0,-0.82l-4.833,-0.018l-0.025,0.845Zm11.036,-1.224l-1.074,1.21l1.08,-0.002l-0.006,-1.208Zm4.667,-12.28l-0.983,0.506l0.003,0.078l1.276,0.044l0.1,-1.652l-0.396,1.024Zm-2.989,0.515l0.973,0.034l-0.008,-0.156l-0.758,-0.379l-0.254,-0.529l0.047,1.03Zm1.983,-4.075l-0.03,0.587l1.002,0.392l0.455,1.154l0.114,-1.886l-1.497,-0.246l-0.044,-0.001Zm-2.159,0.167l0.068,1.518l0.32,-0.765l0.939,-0.347l-0.038,-0.583l-0.007,0l-1.282,0.177Z"/></g></svg>