<?xml version="1.0" standalone="no"?>
<!DOCTYPE svg PUBLIC "-//W3C//DTD SVG 1.1//EN" "http://www.w3.org/Graphics/SVG/1.1/DTD/svg11.dtd">
<svg width="48px" height="48px" version="1.1" xmlns="http://www.w3.org/2000/svg" xmlns:xlink="http://www.w3.org/1999/xlink" xml:space="preserve" style="fill-rule:evenodd;clip-rule:evenodd;stroke-linejoin:round;stroke-miterlimit:1.41421;">
    <g>
        <g id="palm-tree">
            <path d="M34.9365,4.301L34.8845,4.3L30.9555,9.053L29.4675,14.5L28.2045,19.035L28.1675,18.646L27.5175,11.065L25.5845,7.149L21.1475,6.801L20.2505,7.303L16.7125,9.178L22.0825,9.561L22.6005,10.676L24.6115,11.355L23.8545,11.409L24.0375,11.984L23.5085,12.158L25.3195,18.662L22.7805,15.644L18.4385,14.186L13.5275,14.535L12.1335,16.147L8.6885,16.234L3.6615,18.729L1.9285,20.502L8.0975,20.164L8.8585,19.785L9.0695,20.291L17.2235,19.699L23.7265,21.381L20.3715,21.348L11.7525,25.086L8.6865,29.854L12.6395,29.046L13.2045,28.078L13.6885,27.998L14.0115,28.642L14.0975,28.59L16.5685,28.213L19.3185,26.885L16.7375,32.776L16.6525,34.043L19.1885,30.917L24.6605,24.71L27.0745,23.356L27.0735,23.361L27.0875,23.359L26.3425,46.318L26.3425,46.328L26.3835,47.979L29.3345,47.979L29.5625,43.108L28.5375,23.512L34.5945,24.916L34.6525,24.338L35.3995,25.207L37.4405,25.805L40.3815,27.494L41.4965,27.031L41.4125,28.086L41.4195,28.101L41.4085,28.081L42.6815,32.391L42.6805,32.438L43.7785,31.889L44.2435,27.621L41.8825,25.659L40.2515,24.294L40.2395,24.292L40.2295,24.285L31.3385,22.687L39.0695,21.781L38.4305,20.101L40.0915,21.801L41.6095,21.83L44.0405,26.365L44.3835,22.35L42.2395,18.451L37.8735,18.3L32.2725,20.31L33.4035,19.465L37.3835,17.949L36.5115,16.975L38.4365,17.547L41.6315,16.566L41.3625,15.897L41.7445,15.589L42.8435,15.808L46.0705,13.387L40.4695,12.518L38.7655,13.271L38.8485,13.272L31.9535,16.484L31.9375,16.502L31.8735,16.484L31.4335,17.082L31.0155,17.564L33.3245,12.739L32.6875,12.584L33.6885,11.916L34.5045,10.066L38.6235,6.518L38.6865,6.074L39.1935,6.581L42.5235,5.261L42.6055,5.25L42.4145,4.49L34.9385,4.3ZM25.8965,11.229L25.9725,11.259L25.9245,11.263ZM14.3825,15.2L14.3605,16.089L13.7345,16.105ZM16.0855,16.438L17.8365,16.374L19.4205,17.134L20.3395,17.23L19.8645,17.419L22.1445,18.96ZM26.2915,19.818L26.3075,19.826L26.3005,19.831ZM30.0075,22.45L29.9345,22.238L30.3205,22.507Z" style="fill:black;fill-rule:nonzero;"/>
        </g>
    </g>
</svg>
