<?xml version="1.0" standalone="no"?>
<!DOCTYPE svg PUBLIC "-//W3C//DTD SVG 1.1//EN" "http://www.w3.org/Graphics/SVG/1.1/DTD/svg11.dtd">
<svg width="48px" height="48px" version="1.1" xmlns="http://www.w3.org/2000/svg" xmlns:xlink="http://www.w3.org/1999/xlink" xml:space="preserve" style="fill-rule:evenodd;clip-rule:evenodd;stroke-linejoin:round;stroke-miterlimit:1.41421;">
    <g>
        <g id="planter-box">
            <g id="flowers">
                <g>
                    <path d="M24.6565,15.9188L24.8653,23.155L22.6388,23.5L23.4947,15.9149L20.9048,15.9065L19.3413,11.2055L28.6868,11.1875L27.1653,15.927L24.6565,15.9188ZM31.7222,17.1497L31.7218,21.0001L29.4918,21.5821L30.2654,11.2657L24.9688,8.82737L23.3653,9.57487L24.1838,7.19588L30.3682,9.89563L30.5074,8.03959L28.0298,8.03148L26.4663,3.33048L35.8118,3.31248L34.2903,8.05198L31.7232,8.04357L31.7224,15.2483L35.2323,11.3583L39.4693,13.9313L35.6278,13.0898L31.7222,17.1497ZM16.3418,10.5142L16.3743,20.8829L14.1463,21.4079L14.2767,19.3557L12.1603,9.57387L10.5313,8.07638L13.5093,8.22488L14.6851,12.9279L15.1363,5.82738L15.4914,5.79263L12.5298,5.78293L10.9663,1.08193L20.3118,1.06393L18.7903,5.80343L16.3271,5.79536L16.3374,9.11011L20.1083,7.51068L20.9268,9.88917L19.3233,9.14167L16.3418,10.5142Z" style="fill:black;"/>
                </g>
            </g>
            <g id="grass">
                <g>
                    <path d="M2.08824,25.2499L1.91374,21.0219L4.76574,20.3404L6.33674,21.4314L6.91924,19.7944L8.72373,20.2039L9.30573,18.5669L12.6672,19.8984L13.3657,20.0349L20.0147,18.5669C20.0147,18.5669 24.0292,21.7754 24.3207,21.9119C24.6117,22.0484 34.2147,20.2754 34.2147,20.2754L36.1352,18.5669L40.4992,20.6844L45.1562,21.6389L46.0867,24.8414Z" style="fill:black;"/>
                </g>
            </g>
            <g>
                <path d="M8.03039,47.8947L0,23.7496L48,23.6572L40.1853,48L8.03039,47.8947Z" style="fill:black;fill-rule:nonzero;"/>
            </g>
        </g>
    </g>
</svg>
