<?xml version="1.0" encoding="UTF-8" standalone="no"?>
<!DOCTYPE svg PUBLIC "-//W3C//DTD SVG 1.1//EN" "http://www.w3.org/Graphics/SVG/1.1/DTD/svg11.dtd">
<svg width="100%" height="100%" viewBox="0 0 48 48" version="1.1" xmlns="http://www.w3.org/2000/svg" xmlns:xlink="http://www.w3.org/1999/xlink" xml:space="preserve" style="fill-rule:evenodd;clip-rule:evenodd;stroke-linejoin:round;stroke-miterlimit:1.41421;">
    <g id="rideshare" transform="matrix(0.887102,-2.76521e-17,-2.76521e-17,1,-18.5809,-240)">
        <g transform="matrix(1,-2.55736e-18,-2.55736e-18,1.01044,-0.056,-3.21792)">
            <path d="M36.688,265.987L39.053,261.816L57.144,261.774L59.895,266.001L36.688,265.987ZM31.156,271.231L36.994,271.223L36.784,274.126L31.307,274.132L31.652,280.519L31.668,280.519L31.989,284.25L35.858,284.242L35.907,284L36.982,280.533L58.715,280.59L59.809,284.119L59.834,284.242L63.704,284.242L64.27,280.603L64.208,280.603L64.724,274.123L59.231,274.126L59.021,271.223L64.947,271.231L64.965,271.097L57.857,260.498L38.382,260.498L31.147,271.181" style="fill:black;fill-rule:nonzero;"/>
        </g>
        <g transform="matrix(0.925872,2.56024e-17,2.56024e-17,0.821343,30.4169,234.48)">
            <path d="M21.673,26.869C21.673,28.25 20.555,29.367 19.175,29.367C17.795,29.367 16.677,28.25 16.677,26.869C16.677,25.489 17.795,24.371 19.175,24.371C20.555,24.371 21.673,25.489 21.673,26.869" style="fill:black;fill-rule:nonzero;"/>
        </g>
        <g transform="matrix(0.925872,2.56024e-17,2.56024e-17,0.821343,30.4169,234.48)">
            <path d="M25.32,24.575C24.677,24.575 24.048,24.261 23.671,23.679C23.613,23.597 22.026,21.301 19.091,21.301C16.045,21.301 14.347,23.683 14.332,23.71C13.725,24.609 12.504,24.845 11.602,24.239C10.703,23.631 10.466,22.41 11.073,21.51C11.187,21.341 13.929,17.367 19.091,17.367C24.196,17.367 26.856,21.366 26.966,21.538C27.559,22.447 27.3,23.666 26.39,24.257C26.059,24.472 25.688,24.575 25.32,24.575" style="fill:black;fill-rule:nonzero;"/>
        </g>
        <g transform="matrix(0.925872,2.56024e-17,2.56024e-17,0.821343,30.4169,234.48)">
            <path d="M30.152,19.619C29.587,19.619 29.025,19.377 28.636,18.907C28.601,18.865 24.674,14.254 19.291,14.254L19.174,14.254C13.377,14.326 9.243,18.768 9.202,18.813C8.47,19.611 7.229,19.672 6.426,18.941C5.625,18.213 5.562,16.975 6.289,16.172C6.501,15.937 11.577,10.418 19.125,10.321C26.513,10.265 31.458,16.148 31.666,16.399C32.358,17.236 32.241,18.477 31.404,19.169C31.037,19.473 30.593,19.619 30.152,19.619" style="fill:black;fill-rule:nonzero;"/>
        </g>
    </g>
</svg>
