<?xml version="1.0" standalone="no"?>
<!DOCTYPE svg PUBLIC "-//W3C//DTD SVG 1.1//EN" "http://www.w3.org/Graphics/SVG/1.1/DTD/svg11.dtd">
<svg width="48px" height="48px" version="1.1" xmlns="http://www.w3.org/2000/svg" xmlns:xlink="http://www.w3.org/1999/xlink" xml:space="preserve" style="fill-rule:evenodd;clip-rule:evenodd;stroke-linejoin:round;stroke-miterlimit:1.41421;">
    <g>
        <g id="sidewalk-density-normal">
            <g>
                <path d="M22.644,48.001L20.428,32.048L21.114,48.001L7.875,48.001L8.784,33.698L5.429,48.001L3.164,48.001L6.414,30.4L9.917,28.262L9.963,28.309L11.617,27.206L12.21,25.524L9.728,22.639L9.713,21.566L8.277,21.509L8.209,20.258L6.652,20.457L7.002,15.571L11.45,13.347L11.463,13.295L19.753,14.098L20.444,19.994L19.602,20.044L19.653,21.147L18.033,21.064L18.134,22.639L16.041,25.331L16.615,26.742L18.572,27.721L17.969,28.695L18.65,27.644L22.385,29.267L24.6907,46.6704L26.932,34.533L30.434,32.395L30.481,32.442L32.135,31.34L32.728,29.658L30.245,26.772L30.231,25.699L28.795,25.642L28.727,24.391L27.17,24.59L27.519,19.705L31.967,17.48L31.98,17.429L40.27,18.231L40.961,24.126L40.12,24.178L40.17,25.281L38.55,25.197L38.652,26.772L36.558,29.464L37.132,30.876L39.089,31.855L38.486,32.829L39.168,31.777L42.902,33.4L44.836,48.001L42.588,48.001L40.945,36.182L41.453,48.001L28.655,48.001L29.301,37.831L26.916,48.001L22.644,48.001Z" style="fill:black;"/>
            </g>
        </g>
    </g>
</svg>
