<?xml version="1.0" encoding="UTF-8" standalone="no"?>
<!DOCTYPE svg PUBLIC "-//W3C//DTD SVG 1.1//EN" "http://www.w3.org/Graphics/SVG/1.1/DTD/svg11.dtd">
<svg width="100%" height="100%" viewBox="0 0 48 48" version="1.1" xmlns="http://www.w3.org/2000/svg" xmlns:xlink="http://www.w3.org/1999/xlink" xml:space="preserve" style="fill-rule:evenodd;clip-rule:evenodd;stroke-linejoin:round;stroke-miterlimit:1.41421;">
    <g id="taxi" transform="matrix(0.887102,-2.76521e-17,-2.76521e-17,1,-18.5809,-240)">
        <g transform="matrix(1,-2.55736e-18,-2.55736e-18,1.01044,-0.056,-3.21792)">
            <path d="M36.688,265.987L39.053,261.816L57.144,261.774L59.895,266.001L36.688,265.987ZM31.156,271.231L36.994,271.223L36.784,274.126L31.307,274.132L31.652,280.519L31.668,280.519L31.989,284.25L35.858,284.242L35.907,284L36.982,280.533L58.715,280.59L59.809,284.119L59.834,284.242L63.704,284.242L64.27,280.603L64.208,280.603L64.724,274.123L59.231,274.126L59.021,271.223L64.947,271.231L64.965,271.097L57.857,260.498L38.382,260.498L31.147,271.181" style="fill:black;fill-rule:nonzero;"/>
        </g>
        <g transform="matrix(0.428451,1.18476e-17,1.18476e-17,0.38008,-9.66602,257.26)">
            <path d="M121.669,7.312L147.515,7.312L145.515,0L124.588,0C124.588,0 121.628,7.368 121.669,7.312" style="fill:black;fill-rule:nonzero;"/>
        </g>
    </g>
</svg>
