<?xml version="1.0" encoding="UTF-8" standalone="no"?><!DOCTYPE svg PUBLIC "-//W3C//DTD SVG 1.1//EN" "http://www.w3.org/Graphics/SVG/1.1/DTD/svg11.dtd"><svg width="100%" height="100%" viewBox="0 0 36 36" version="1.1" xmlns="http://www.w3.org/2000/svg" xmlns:xlink="http://www.w3.org/1999/xlink" xml:space="preserve" xmlns:serif="http://www.serif.com/" style="fill-rule:evenodd;clip-rule:evenodd;stroke-linejoin:round;stroke-miterlimit:2;"><g id="turn-lane-left-right-straight"><path d="M20.277,11.992l0,8.604c1.438,-0.899 3.401,-1.521 6.098,-1.582l0,-5.211l9.465,7.759l-9.465,8.199l0,-5.796c-2.79,0.071 -4.466,-0.407 -5.242,4.239c-0.428,2.559 -0.522,5.149 -0.523,6.84l-5.213,0c-0.001,-1.691 -0.095,-4.281 -0.523,-6.84c-0.776,-4.646 -2.452,-4.168 -5.241,-4.239l0,5.796l-9.466,-8.199l9.466,-7.759l0,5.211c2.697,0.061 4.659,0.683 6.097,1.582l0,-8.604l-5.68,0l7.942,-10.512l7.965,10.512l-5.68,0Z" style="fill-rule:nonzero;"/></g></svg>