<?xml version="1.0" encoding="UTF-8" standalone="no"?>
<!DOCTYPE svg PUBLIC "-//W3C//DTD SVG 1.1//EN" "http://www.w3.org/Graphics/SVG/1.1/DTD/svg11.dtd">
<svg width="100%" height="100%" viewBox="0 0 48 48" version="1.1" xmlns="http://www.w3.org/2000/svg" xmlns:xlink="http://www.w3.org/1999/xlink" xml:space="preserve" xmlns:serif="http://www.serif.com/" style="fill-rule:evenodd;clip-rule:evenodd;stroke-linejoin:round;stroke-miterlimit:2;">
    <g id="vendor-tarp">
        <path d="M27.034,13.308L30.386,14.365L32.25,23.555L32.22,23.586L32.248,23.598L32.255,23.585L35.501,30.187L34.292,39.864L34.364,40.008L35.156,40.008L35.75,38.82L37.314,38.82L37.71,39.612L38.106,39.612L38.512,40.423L38.917,39.612L40.481,39.612L41.263,41.176L36.314,41.176L36.314,41.176L42.767,41.176L42.768,41.176L42.768,42.74L5.232,42.74L5.232,41.176L7.192,41.176L7.388,40.783L5.68,40.998L5.541,39.725L8.192,39.118L8.192,40.404L8.192,40.404L8.192,39.118L9.091,38.962L9.162,38.82L9.909,38.82L19.222,37.204L19.195,37.127L23.314,35.807L21.737,32.412L22.816,24.46L22.78,24.413L23.017,24.25L23.341,14.943L27.037,13.26L27.034,13.308ZM25.14,41.074L25.009,41.096L25.049,41.176L25.875,41.176L25.877,41.176L25.877,41.176L27.267,41.176L27.267,41.176L25.089,41.176L25.14,41.074ZM29.999,41.176L29.999,41.176L33.582,41.176L33.582,41.176L29.999,41.176ZM9.237,40.593L9.297,40.714L9.417,40.686L9.473,40.573L9.237,40.593ZM35.918,40.384L36.037,40.621L36.156,40.384L35.918,40.384ZM29.603,40.384L29.721,40.621L29.84,40.384L29.603,40.384ZM30.98,33.651L30.97,38.82L30.998,38.82L31.394,39.612L31.79,39.612L32.196,40.423L32.441,39.934L32.253,39.934L33.455,37.034L34.098,30.5L31.111,25.782L30.98,33.651ZM23.234,32.233L23.875,33.629L23.876,33.624L23.886,33.519L24.147,26.583L23.234,32.233Z" style="fill-rule:nonzero;"/>
    </g>
</svg>
