<?xml version="1.0" encoding="UTF-8" standalone="no"?>
<!DOCTYPE svg PUBLIC "-//W3C//DTD SVG 1.1//EN" "http://www.w3.org/Graphics/SVG/1.1/DTD/svg11.dtd">
<svg width="100%" height="100%" viewBox="0 0 48 48" version="1.1" xmlns="http://www.w3.org/2000/svg" xmlns:xlink="http://www.w3.org/1999/xlink" xml:space="preserve" xmlns:serif="http://www.serif.com/" style="fill-rule:evenodd;clip-rule:evenodd;stroke-linejoin:round;stroke-miterlimit:2;">
    <g id="vendor-handcart">
        <path d="M22.759,4.794L22.852,3.373L23.329,2.977L25.691,3.001L26.468,3.551L26.448,4.997L27.138,5.185L27.077,6.301L26.429,6.326L26.423,6.811L25.301,8.114L25.569,8.872L26.279,9.345L26.338,9.349L27.92,10.314L30.923,22.706C30.934,22.774 30.92,22.842 30.887,22.899C30.913,22.924 30.934,22.956 30.949,22.993L31.4,24.1C31.416,24.14 31.423,24.182 31.421,24.224L31.345,25.552L31.399,25.659L31.704,25.05L32.879,25.05L33.466,26.225L34.574,26.225L26.676,27.102L34.574,26.225L34.574,28.574L33.399,28.574L33.399,37.68L33.399,37.68L32.812,38.267L32.812,38.267L32.224,38.267L32.224,44.713C32.103,44.834 32.035,44.902 31.914,45.023L31.36,45.023C31.239,44.902 31.171,44.834 31.05,44.713L31.05,38.267L30.462,38.267L30.462,38.268L29.875,37.68L29.875,28.574L26.524,28.574L26.267,31.041L25.727,41.847L25.741,41.844L26.114,44.297L25.904,44.89L24.474,44.89L24.107,42.186L24.123,42.183L24.298,30.917L24.296,28.574L24.059,28.574L23.936,31.467L23.936,31.471L23.486,42.072L23.486,42.072L23.57,44.919L21.602,45.003L21.979,42.114L22.749,42.092L21.978,42.114L21.797,36.799L21.797,36.799L21.797,36.798L21.516,28.574L18.125,28.574L18.125,37.68L18.125,37.68L17.538,38.267L17.538,28.574L15.188,28.574L15.188,37.68L15.776,37.68L15.776,31.235L16.086,30.924L16.64,30.924L16.951,31.235L16.951,37.68L17.538,37.68L17.538,38.267L16.951,38.267L16.951,44.713C16.829,44.834 16.761,44.902 16.64,45.023L16.086,45.023C15.965,44.902 15.897,44.834 15.776,44.713L15.776,38.267L15.188,38.267L15.188,38.268L14.601,37.68L14.601,28.574L13.426,28.574L21.486,27.679L13.426,28.574L13.426,26.225L14.757,26.225L15.047,25.645L16.222,25.645L16.378,25.957L16.542,25.63L15.649,25.63L16.237,24.455L17.412,24.455L17.709,25.05L18.006,25.05L18.008,25.052L17.999,24.65L18.445,23.524L20.71,9.803L22.396,9.07L22.485,9.078L23.314,8.663L23.573,8.026L22.628,6.811L22.675,6.1L21.942,6.138L22.003,4.806L22.759,4.794ZM23.486,42.072L23.486,42.072L23.486,42.072L23.486,42.072ZM32.224,37.68L32.224,31.235L31.914,30.924L31.36,30.924L31.05,31.235L31.05,37.68L30.462,37.68L30.462,28.574L32.812,28.574L32.812,37.68L32.224,37.68ZM24.109,27.387L24.294,27.367L24.109,27.387ZM24.159,26.225L24.275,26.225L24.293,26.189L24.29,23.131L24.159,26.225ZM29.451,25.63L29.54,25.808L29.629,25.63L29.451,25.63ZM21.287,18.758L21.594,11.058L19.399,23.827L19.291,23.809L19.372,23.847L19.376,23.875L21.356,23.875L21.237,20.387L27.36,20.526L26.948,24.49L27.227,25.05L27.822,25.05L28.053,25.511L28.135,25.347L28.878,25.347L29.324,24.455L29.901,24.455L30.068,23.39C30.078,23.33 30.106,23.275 30.149,23.232L30.19,23.191C30.094,23.164 30.014,23.086 29.991,22.978L26.849,11.803L27.361,20.526L22.91,20.425L21.221,20.387L21.274,18.771L21.287,18.758ZM30.456,24.455L30.462,24.455L30.437,24.221L30.456,24.455Z" style="fill-rule:nonzero;"/>
    </g>
</svg>
