<?xml version="1.0" encoding="UTF-8" standalone="no"?>
<!DOCTYPE svg PUBLIC "-//W3C//DTD SVG 1.1//EN" "http://www.w3.org/Graphics/SVG/1.1/DTD/svg11.dtd">
<svg width="100%" height="100%" viewBox="0 0 48 48" version="1.1" xmlns="http://www.w3.org/2000/svg" xmlns:xlink="http://www.w3.org/1999/xlink" xml:space="preserve" xmlns:serif="http://www.serif.com/" style="fill-rule:evenodd;clip-rule:evenodd;stroke-linejoin:round;stroke-miterlimit:2;">
    <g id="vendor-platform">
        <path d="M25.28,8.627L24.304,8.589L23.774,7.605L24.178,3.387L26.249,2.099L26.246,2.135L28.357,3.172L28.951,7.705L28.238,8.741L27.514,8.713L27.677,9.174L28.305,9.593L28.325,9.555L29.898,10.635L29.87,10.672L31.021,20.988L31.016,20.99L31.268,22.332L30.836,24.468L30.056,24.03L30.212,22.746L29.503,22.57L30.088,21.268L28.837,12.243L28.711,17.908L28.783,18.363L28.799,18.363L28.854,18.666L28.863,18.666L28.917,19.012L28.951,19.196L28.946,19.196L30.896,31.591L29.878,31.599L29.114,31.605L28.974,32.806L29.577,32.806L29.893,33.437L30.208,33.437L30.532,34.084L30.855,33.437L32.102,33.437L32.26,33.752L32.843,33.752L33.317,32.806L34.563,32.806L34.879,33.437L35.194,33.437L35.518,34.084L35.841,33.437L37.088,33.437L37.711,34.683L33.766,34.683L38.957,34.683L38.957,45.901L9.043,45.901L9.043,34.683L10.605,34.683L10.912,34.068L12.159,34.068L12.325,34.399L12.498,34.052L11.551,34.052L12.175,32.806L13.421,32.806L13.721,33.405L14.021,32.806L15.267,32.806L15.583,33.437L15.898,32.806L17.145,32.806L17.46,33.437L18.359,33.437L18.375,33.468L19.014,32.19L21.507,32.19L22.754,34.683L12.467,34.683L22.919,34.683L23.282,33.957L23.94,33.957L23.84,31.646L21.85,31.662L21.876,31.493L23.786,18.817L23.821,18.816L23.937,18.06L23.54,11.28L22.647,10.013L24.375,9.3L24.385,9.324L25.153,8.94L25.28,8.627ZM26.25,34.683L26.482,34.683L26.25,34.683ZM28.781,34.683L31.589,34.683L28.781,34.683ZM14.36,34.052L14.51,34.352L14.66,34.052L14.36,34.052ZM16.521,34.052L16.663,34.336L16.805,34.052L16.521,34.052ZM33.451,34.052L33.545,34.242L33.64,34.052L33.451,34.052ZM26.404,31.626L26.312,33.437L26.477,33.437L26.47,31.626L26.404,31.626ZM30.212,22.746L30.279,22.194L30.227,22.75L30.212,22.746ZM22.374,16.071L22.636,10.029L23.526,11.269L23.337,16.305L23.336,16.306L20.459,20.034L20.252,19.894L20.252,19.895L20.459,20.034L19.63,20.66L18.586,19.912L17.768,19.912L18.391,18.666L19.637,18.666L20.053,19.496L22.374,16.071Z" style="fill-rule:nonzero;"/>
    </g>
</svg>
