<?xml version="1.0" encoding="UTF-8"?>
<svg id="Layer_1" data-name="Layer 1" xmlns="http://www.w3.org/2000/svg" viewBox="0 0 512 512">
  <defs>
    <style>
      .cls-1 {
        fill: none;
        stroke: #000;
        stroke-linecap: round;
        stroke-linejoin: round;
        stroke-width: 32px;
      }
    </style>
  </defs>
  <path class="cls-1" d="m479.99,305.49s-64,32-96,32-96-32-128-32-96,32-128,32-95.99-32-95.99-32"/>
  <path class="cls-1" d="m480,400.5s-64,32-96,32-96-32-128-32-96,32-128,32-95.99-32-95.99-32"/>
  <path class="cls-1" d="m32,64.08s448,0,448,0"/>
  <path class="cls-1" d="m32,160.08c3.98,0,448,0,448,0"/>
  <line class="cls-1" x1="96" y1="224.08" x2="96" y2="63.91"/>
  <line class="cls-1" x1="416.01" y1="224.09" x2="416" y2="64.08"/>
  <line class="cls-1" x1="256.01" y1="224.09" x2="255.99" y2="64.08"/>
</svg>