<svg xmlns="http://www.w3.org/2000/svg" viewBox="0 0 199 141"><path d="M.7 3.3h30.1V84c0 12.8 5.8 20.4 10.5 23.6-4.9 4.3-19.8 8.1-31-1.1C3.7 101.1.7 92.1.7 83.7V3.3zm187.9 67.1v-8.5h9.2V32.2h-10.1C183.8 14.3 167.9 1 148.9 1c-21.9 0-39.7 17.8-39.7 39.7V110c6.2.9 13.7-.1 20-5.4 6.6-5.4 9.6-14.4 9.6-22.8v-2.6h15V49.5h-15v-9c0-5.6 4.5-10.1 10.1-10.1S159 34.9 159 40.5v29.8c0 21.9 17.8 39.7 39.7 39.7V80.4c-5.6 0-10.1-4.5-10.1-10zM74.8 32.1v43.7c0 2.5-2.1 4.5-4.6 4.5s-4.6-2-4.6-4.5V32.1H35.9v51.3c0 9.2 3.1 20.9 17.4 24.7 14.3 3.8 22.5-4.1 22.5-4.1-.8 5.2-5.6 9-13.5 9.8-6 .6-13.6-1.4-17.4-3V138c9.7 2.9 19.9 3.8 30 1.8 18.2-3.5 29.7-18.7 29.7-39V31.9H74.8z" fill="#ff00bf"/></svg>