<?xml version="1.0" standalone="no"?><!DOCTYPE svg PUBLIC "-//W3C//DTD SVG 1.1//EN" "http://www.w3.org/Graphics/SVG/1.1/DTD/svg11.dtd"><svg width="192px" height="192px" version="1.1" xmlns="http://www.w3.org/2000/svg" xmlns:xlink="http://www.w3.org/1999/xlink" xml:space="preserve" style="fill-rule:evenodd;clip-rule:evenodd;stroke-linejoin:round;stroke-miterlimit:1.41421;"><g><g id="parklet-02-right"><g transform="matrix(1,0,0,1,-38.7048,-52.412)"><path d="M76.084,143.255l2.381,-0.232l0.095,23.966l-4.456,1.051l1.98,-24.785Z" style="fill:#694;fill-rule:nonzero;"/></g><g transform="matrix(1,0,0,1,-38.7048,-52.412)"><path d="M70.8711,143.167l-3.127,-9.402l18.691,-0.036l-3.043,9.479l-12.521,-0.041Z" style="fill:#ad2125;fill-rule:nonzero;"/></g><g transform="matrix(1,0,0,1,-38.7048,-52.412)"><path d="M144.135,150.926l-20.585,-16.721l16.2,-20.084l10.087,-1.448l-10.84,-6.141l-22.955,27.662l20.96,21.503" style="fill:#679a45;fill-rule:nonzero;"/></g><g transform="matrix(1,0,0,1,-38.7048,-52.412)"><path d="M103.257,134.378l-17.34,-11.491l-13.347,9.521l14.524,-3.779l23.226,21.533l-7.063,-15.784Z" style="fill:#679a45;fill-rule:nonzero;"/></g><g transform="matrix(1,0,0,1,-38.7048,-52.412)"><path d="M139.22,146.823l2.582,-25.596l-25.612,-6.274l-17.425,5.772l-9.13,-13.666l-12.558,8.91l11.58,-2.51l10.6,31.609l-8.686,10.219l18.969,-0.183l29.68,-8.281Z" style="fill:#35813f;fill-rule:nonzero;"/></g><g transform="matrix(1,0,0,1,-38.7048,-52.412)"><path d="M115.516,156.735l-17.299,-36.201l16.297,-7.087l1.805,-5.77l7.355,6.4l-18.189,7.969l24.128,31.13" style="fill:#679a45;fill-rule:nonzero;"/></g><g transform="matrix(1,0,0,1,-38.7048,-52.412)"><path d="M129.073,146.444l22.695,-28.443l13.553,8.161l-12.377,-1.965l-15.03,24.059l-8.841,-1.812Z" style="fill:#679a45;fill-rule:nonzero;"/></g><g transform="matrix(1,0,0,1,-38.7048,-52.412)"><path d="M114.931,131.659l7.764,-31.051l8.967,-0.447l-4.906,4.51l-6.909,31.934l-4.916,-4.946Z" style="fill:#679a45;fill-rule:nonzero;"/></g><g transform="matrix(1,0,0,1,-38.7048,-52.412)"><path d="M131.577,151.214l-12.579,-2.508l-14.196,-18.068l41.372,-3.478" style="fill:#679a45;fill-rule:nonzero;"/></g><g transform="matrix(1,0,0,1,-38.7048,-52.412)"><path d="M121.57,143.913l20.5,-10.625l13.942,10.032l-14.442,-4.032l-11,10.75l-9,-6.125Z" style="fill:#35813f;fill-rule:nonzero;"/></g><g transform="matrix(1,0,0,1,-38.7048,-52.412)"><path d="M166.49,142.287l2.381,-0.233l0.096,30.344l-4.457,1.05l1.98,-31.161Z" style="fill:#694;fill-rule:nonzero;"/></g><g transform="matrix(1,0,0,1,-38.7048,-52.412)"><path d="M161.277,142.198l-3.127,-9.402l18.691,-0.036l-3.043,9.479l-12.521,-0.041Z" style="fill:#ad2125;fill-rule:nonzero;"/></g><g transform="matrix(1,0,0,1,-38.7048,-52.412)"><path d="M174.885,160.832l-4.812,-4.75l-17.848,-1.234l-3.559,-3.516l-5.625,3.427l-4.406,-1.677l-10.201,-1.235l-2.1,1.495l-2.5,-2.458l-3.314,0.69l-1.164,-3.274l-8.121,2.936l-14.539,-3.199l-6.112,7.182l-21.047,-3.502l-5.621,-5.582l-6.949,6.4l-9.314,1.909l-1.862,6.405l129.094,-0.017Z" style="fill:#694;fill-rule:nonzero;"/></g><g transform="matrix(1,0,0,1,-38.7048,-52.412)"><path d="M88.916,160.864l-2.126,-2.854l-13.624,-0.709l-9.5,-6.875l-1.773,7.625l-5.145,2.792l32.168,0.021Z" style="fill:#36803f;fill-rule:nonzero;"/></g><g transform="matrix(1,0,0,1,-38.7048,-52.412)"><path d="M95.9512,160.314l2.036,-12.069l26.667,-0.167l11.666,-3.167l17.069,2.902l4.722,2.663l16.262,-2.99l5.045,5.017l8.273,3.495l2.469,4.364l-94.209,-0.048Z" style="fill:#694;fill-rule:nonzero;"/></g><g transform="matrix(1,0,0,1,-38.7048,-52.412)"><path d="M162.465,160.443l0.697,-1.908l9.895,-3.376l1.832,2.417l6.584,2.749l-19.008,0.118Z" style="fill:#36803f;fill-rule:nonzero;"/></g><g transform="matrix(1,0,0,1,-38.7048,-52.412)"><path d="M128.816,160.336l3.5,-3.917l4.424,1.024l11.232,-0.285l4.031,3.157l-9.854,0.021l-13.333,0Z" style="fill:#36803f;fill-rule:nonzero;"/></g><g transform="matrix(1,0,0,1,-38.7048,-52.412)"><path d="M118.166,160.885l-2.73,-1.832l-0.77,-3.585l-15.375,1.291l-2.166,4.084l21.041,0.042Z" style="fill:#36803f;fill-rule:nonzero;"/></g><g transform="matrix(1,0,0,1,-38.7048,-52.412)"><path d="M198.91,160.412l-158,0l-1,12l160,0l-1,-12Z" style="fill:#ad2125;fill-rule:nonzero;"/></g><g transform="matrix(1,0,0,1,-38.7048,-52.412)"><path d="M227.41,235.412l-188,0l0.5,-13l190,0l-2.5,13Z" style="fill:#ad2125;fill-rule:nonzero;"/></g><g transform="matrix(1,0,0,1,-38.7048,-52.412)"><path d="M225.91,224.412l-181,0l1,-58l153.5,0l2.5,28.834l23.514,0.908l0.486,28.258Z" style="fill:#ad2125;fill-rule:nonzero;"/></g><g transform="matrix(1,0,0,1,-38.7048,-52.412)"><rect x="46" y="183.412" width="8" height="61" style="fill:#ad2125;fill-rule:nonzero;"/></g><g transform="matrix(1,0,0,1,-38.7048,-52.412)"><rect x="96" y="172.412" width="8" height="12" style="fill:#ad2125;fill-rule:nonzero;"/></g><g transform="matrix(1,0,0,1,-38.7048,-52.412)"><rect x="166" y="172.412" width="8" height="12" style="fill:#ad2125;fill-rule:nonzero;"/></g><g transform="matrix(1,0,0,1,-38.7048,-52.412)"><rect x="218" y="208.412" width="8" height="36" style="fill:#ad2125;fill-rule:nonzero;"/></g><g transform="matrix(1,0,0,1,-38.7048,-52.412)"><path d="M107,172.079l0,41.75l57,-29.75l0,-12.167l-57,0.167Z" style="fill:#6b151c;fill-rule:nonzero;"/></g><g transform="matrix(1,0,0,1,-38.7048,-52.412)"><path d="M54,172.079l0,36.75l39,-19.637l0,-17.28l-39,0.167Z" style="fill:#6b151c;fill-rule:nonzero;"/></g><g transform="matrix(1,0,0,1,-38.7048,-52.412)"><path d="M192,172.079l1.437,15.958l-16.614,11.359l-0.136,-27.484l15.313,0.167Z" style="fill:#6b151c;fill-rule:nonzero;"/></g><g transform="matrix(1,0,0,1,-38.7048,-52.412)"><path d="M214.91,234.412l3.09,9.667l0,-9.667l-3.09,0Z" style="fill:#6b151c;fill-rule:nonzero;"/></g><g transform="matrix(1,0,0,1,-38.7048,-52.412)"><path d="M54,234.412l0,9.667l2.821,-9.667l-2.821,0Z" style="fill:#6b151c;fill-rule:nonzero;"/></g><g transform="matrix(1,0,0,1,-38.7048,-52.412)"><path d="M53,222.412l39.41,0l-0.056,-4l-39.354,0l0,4Z" style="fill:#6b151c;fill-rule:nonzero;"/></g><g transform="matrix(1,0,0,1,-38.7048,-52.412)"><path d="M177,222.412l40.41,0l-0.058,-4l-40.352,0l0,4Z" style="fill:#6b151c;fill-rule:nonzero;"/></g><g transform="matrix(1,0,0,1,-38.7048,-52.412)"><path d="M107,222.412l56.443,0l-0.084,-4l-56.359,0l0,4Z" style="fill:#6b151c;fill-rule:nonzero;"/></g><g transform="matrix(1,0,0,1,-38.7048,-52.412)"><path d="M47.4277,168.711l-1.752,-5.266l10.468,-0.019l-1.704,5.307l-7.012,-0.022Z" style="fill:#c0bdbb;fill-rule:nonzero;"/></g><g transform="matrix(1,0,0,1,-38.7048,-52.412)"><path d="M195.06,158.412l3.895,40.084l31.044,-0.417l0,-4.5l-24.925,-1.958l-4.498,-33.209l-5.516,0Z" style="fill:#553f37;fill-rule:nonzero;"/></g></g></g></svg>