<?xml version="1.0" standalone="no"?><!DOCTYPE svg PUBLIC "-//W3C//DTD SVG 1.1//EN" "http://www.w3.org/Graphics/SVG/1.1/DTD/svg11.dtd"><svg width="192px" height="192px" version="1.1" xmlns="http://www.w3.org/2000/svg" xmlns:xlink="http://www.w3.org/1999/xlink" xml:space="preserve" style="fill-rule:evenodd;clip-rule:evenodd;stroke-linejoin:round;stroke-miterlimit:1.41421;"><g><g id="parklet-right" transform="matrix(0.5,0,0,0.5,-47.5,-48)"><g id="shrub-bg"><path d="M221.375,241.926l6.479,7.936l-6.26,16.926l15.293,8.228l-1.905,-10.758l12.009,-0.587l2.39,7.712l12.465,2.285l9.82,-10.334l7.334,-11.082l12,8.151l10.334,-10.602l-1.667,-4.295l4.333,-5.506l5,0l9.31,5.506l8.357,-10.506l19,-3.744l-7.693,-12.256l14.026,-10.495l-7.666,-11.377l1.666,-12.128l-9,0l4.786,-14l-16.119,-13.333l-7.357,13.667l-12.719,1l-13.257,-1.334l1.666,-3.333l11.591,-3.333l-4.257,-17.575l-5,-2.425l-2,-11l-9.334,-6.667l-7,13.667l-7.666,2.333l-12,-14.667l-11.126,10.334l-1.775,10.333l-7.578,9.333l-13.855,-10l-2.625,18.27l-9.947,-2.281l-3.428,-6.655l-12.988,3.333l-3.082,10.667l8.912,6.333l-11.508,4.667l-14.334,-2.667l7.211,14l-9.211,11.333l13.334,17.667l7.333,-12.667l7.175,16.667l7.158,-4l3.428,10.333l-8.094,4.549l8.094,2.451l9.947,1.926Z" style="fill:#35813f;fill-rule:nonzero;"/></g><g id="shrub-stem"><path d="M255.812,299.567l-7.479,-37.959l-29.099,-30.856l-3.235,-42.348l7.395,-4.649l4.461,43.997l27.957,28.5l6.035,40.273l-6.035,3.042Z" style="fill:#645849;fill-rule:nonzero;"/><path d="M255.812,286.693l26.592,-27.05l2.929,-38.921l24,-30.22l-7.146,-2.098l-23.783,29.348l-4.905,38l-21.89,22.486l4.203,8.455Z" style="fill:#645849;fill-rule:nonzero;"/><path d="M282,238.5l19.985,-4.426l22.025,-36.382l11.022,-1.686l-29.015,45.334l-24.017,4.166l0,-7.006Z" style="fill:#645849;fill-rule:nonzero;"/><path d="M260.848,191.502l7.485,2.75l-3.333,41.223l-20.811,15.287l-5.877,-7.756l18.501,-12.092" style="fill:#645849;fill-rule:nonzero;"/><path d="M243.512,206.667l-6.588,-19.415l7.588,-2.496l5.098,19.455l12.238,8.456l-1.539,7.933l-16.797,-13.933Z" style="fill:#645849;fill-rule:nonzero;"/></g><g id="shrub"><path d="M239.92,181l13.626,22.424l-18.092,7.38l-10.018,-16.488l14.484,-13.316Z" style="fill:#699b48;fill-rule:nonzero;"/><path d="M253.942,248.438l-15.777,-29.771l23.747,-8.098l11.6,21.89l-19.57,15.979Z" style="fill:#699b48;fill-rule:nonzero;"/><path d="M283.162,158.869l-19.323,7.92l-3.55,-15.14l14.208,-5.824l8.665,13.044Z" style="fill:#699b48;fill-rule:nonzero;"/><path d="M297.033,190.497l-22.446,-4.618l6.036,-15.961l16.504,3.395l-0.094,17.184Z" style="fill:#699b48;fill-rule:nonzero;"/><path d="M320.019,173.867l11.25,28.256l-22.101,4.948l-8.272,-20.777l19.123,-12.427Z" style="fill:#699b48;fill-rule:nonzero;"/><path d="M298.205,153.771l13.906,18.238l-15.046,8.08l-10.225,-13.41l11.365,-12.908Z" style="fill:#699b48;fill-rule:nonzero;"/><path d="M309.794,228.328l11.42,-25.464l17.38,11.393l-8.398,18.723l-20.402,-4.652Z" style="fill:#699b48;fill-rule:nonzero;"/><path d="M297.053,194.156l22.201,20.214l-17.474,13.946l-16.325,-14.862l11.598,-19.298Z" style="fill:#699b48;fill-rule:nonzero;"/><path d="M271.022,217.135l25.586,1.875l-4.388,18.592l-18.813,-1.379l-2.385,-19.088Z" style="fill:#699b48;fill-rule:nonzero;"/><path d="M282.42,180.166l-3.762,32.086l-23.149,-6.54l2.765,-23.592l24.146,-1.954Z" style="fill:#699b48;fill-rule:nonzero;"/><path d="M310.297,229.441l3.241,20.453l-15.421,-0.022l-2.383,-15.039l14.563,-5.392Z" style="fill:#699b48;fill-rule:nonzero;"/><path d="M275.206,262.873l-18.404,-11.297l10.471,-12.203l13.534,8.307l-5.601,15.193Z" style="fill:#699b48;fill-rule:nonzero;"/><path d="M251.764,239.886l-21.897,19.488l-11.753,-18.392l16.1,-14.33l17.55,13.234Z" style="fill:#699b48;fill-rule:nonzero;"/><path d="M273.43,178.778l-27.354,5.121l-0.546,-20.715l20.112,-3.765l7.788,19.359Z" style="fill:#699b48;fill-rule:nonzero;"/><path d="M215.328,182.073l4.089,29.652l-22.284,-0.481l-3.006,-21.803l21.201,-7.368Z" style="fill:#699b48;fill-rule:nonzero;"/><path d="M235.87,209.84l-5.058,23.553l-16.724,-6.491l3.72,-17.318l18.062,0.256Z" style="fill:#699b48;fill-rule:nonzero;"/><path d="M208.832,170.99l31.021,-12.359l5.439,24.264l-22.81,9.088l-13.65,-20.993Z" style="fill:#699b48;fill-rule:nonzero;"/></g><g id="plants"><path d="M327.438,278.109l4.605,0l0.844,29.246l-8.904,1.381l3.455,-30.627Z" style="fill:#679a45;fill-rule:nonzero;"/><path d="M373.68,253.381l4.762,-0.467l0.189,60.69l-8.912,2.099l3.961,-62.322Z" style="fill:#679a45;fill-rule:nonzero;"/><path d="M363.254,253.203l-6.254,-18.805l37.383,-0.07l-6.086,18.957l-25.043,-0.082Z" style="fill:#ae2025;fill-rule:nonzero;"/><path d="M317.046,278.361l-6.254,-18.805l37.383,-0.07l-6.086,18.957l-25.043,-0.082Z" style="fill:#ae2025;fill-rule:nonzero;"/><path d="M192.794,276.145l4.605,0l0.844,38.318l-8.904,1.809l3.455,-40.127Z" style="fill:#679a45;fill-rule:nonzero;"/><path d="M182.401,276.398l-6.254,-18.805l37.383,-0.07l-6.086,18.957l-25.043,-0.082Z" style="fill:#ae2025;fill-rule:nonzero;"/><path d="M147.356,262.347l4.762,-0.467l0.189,47.936l-8.912,2.099l3.961,-49.568Z" style="fill:#679a45;fill-rule:nonzero;"/><path d="M136.93,262.169l-6.254,-18.805l37.383,-0.07l-6.086,18.957l-25.043,-0.082Z" style="fill:#ae2025;fill-rule:nonzero;"/><path d="M366.949,313.506l-9.625,-9.5l-35.695,-2.469l-7.118,-7.031l-11.25,6.854l-8.812,-3.354l-20.402,-2.471l-4.2,2.991l-5,-4.916l-6.63,1.38l-2.329,-6.548l-16.24,5.873l-27.135,-6.12l-14.166,14.084l-42.095,-7.003l-11.24,-11.165l-13.899,12.801l-18.627,3.819l-3.724,12.808l258.187,-0.033Z" style="fill:#679a45;fill-rule:nonzero;"/><path d="M195.012,313.57l-4.252,-5.709l-27.25,-1.418l-19,-13.75l-3.545,15.252l-10.289,5.584l64.336,0.041Z" style="fill:#35813f;fill-rule:nonzero;"/><path d="M209.083,312.471l17.5,-8.418l27.633,-3.488l11.93,-6.656l6.437,6.478l4,-4l25.813,-3.103l5.687,5.644l2.328,-6.549l7.217,1.639l6.328,-6.549l9.447,5.326l2.793,0.547l29.731,-6.527l10.09,10.035l16.544,6.989l4.939,8.728l-188.417,-0.096Z" style="fill:#679a45;fill-rule:nonzero;"/><path d="M342.108,312.729l1.395,-3.816l19.789,-6.752l3.666,4.834l13.166,5.498l-38.016,0.236Z" style="fill:#35813f;fill-rule:nonzero;"/><path d="M274.812,312.514l7,-7.834l8.846,2.049l22.467,-0.57l8.062,6.312l-19.709,0.043l-26.666,0Z" style="fill:#35813f;fill-rule:nonzero;"/><path d="M253.512,313.611l-5.463,-3.664l-1.537,-7.17l-30.75,2.582l-4.334,8.168l42.084,0.084Z" style="fill:#35813f;fill-rule:nonzero;"/></g><g id="parklet-with-seat"><path d="M415,312l-316,0l-2,24l320,0l-2,-24Z" style="fill:#ae2025;fill-rule:nonzero;"/><path d="M475,460l-376,0l-2,-24l380,0l-2,24Z" style="fill:#ae2025;fill-rule:nonzero;"/><path d="M469,440l-362,0l2,-116l307,0l5,58l47.027,1.649l0.973,56.351Z" style="fill:#ae2025;fill-rule:nonzero;"/><rect x="208" y="359" width="16" height="121" style="fill:#ae2025;fill-rule:nonzero;"/><rect x="208" y="336" width="16" height="24" style="fill:#ae2025;fill-rule:nonzero;"/><rect x="349" y="336" width="16" height="24" style="fill:#ae2025;fill-rule:nonzero;"/><rect x="349" y="359" width="16" height="121" style="fill:#ae2025;fill-rule:nonzero;"/><path d="M230,336l0,83.5l114,-59.5l0,-24.333l-114,0.333Z" style="fill:#6b151b;fill-rule:nonzero;"/><path d="M124,336l0,73.5l78,-39.273l0,-34.56l-78,0.333Z" style="fill:#6b151b;fill-rule:nonzero;"/><path d="M370,336l0,73.5l31.3,-18.865l-4.98,-54.968l-26.32,0.333Z" style="fill:#6b151b;fill-rule:nonzero;"/><path d="M224,460l0,20l6.469,-20l-6.469,0Z" style="fill:#6b151b;fill-rule:nonzero;"/><path d="M365,460l0,20l6.469,-20l-6.469,0Z" style="fill:#6b151b;fill-rule:nonzero;"/><path d="M123,437l79,0l-0.113,-8l-78.887,0l0,8Z" style="fill:#6b151b;fill-rule:nonzero;"/><path d="M370,437l82,0l-0.117,-8l-81.883,0l0,8Z" style="fill:#6b151b;fill-rule:nonzero;"/><path d="M230,437l114.066,0l-0.169,-8l-113.897,0l0,8Z" style="fill:#6b151b;fill-rule:nonzero;"/><path d="M112.035,329.263l-3.502,-10.531l20.934,-0.039l-3.409,10.616l-14.023,-0.046Z" style="fill:#c1bebb;fill-rule:nonzero;"/><path d="M407.3,309l7.7,80l62,-1l0,-9l-49.759,-3.75l-8.908,-66.25l-11.033,0Z" style="fill:#543e36;fill-rule:nonzero;"/></g></g></g></svg>