<?xml version="1.0" standalone="no"?><!DOCTYPE svg PUBLIC "-//W3C//DTD SVG 1.1//EN" "http://www.w3.org/Graphics/SVG/1.1/DTD/svg11.dtd"><svg width="192px" height="192px" version="1.1" xmlns="http://www.w3.org/2000/svg" xmlns:xlink="http://www.w3.org/1999/xlink" xml:space="preserve" style="fill-rule:evenodd;clip-rule:evenodd;stroke-linejoin:round;stroke-miterlimit:1.41421;"><g><g id="parklet-02-left" transform="matrix(1,0,0,1,1,-52.412)"><g transform="matrix(1,0,0,1,-279.91,0)"><path d="M433.736,143.255l-2.381,-0.232l-0.095,23.966l4.456,1.051l-1.98,-24.785Z" style="fill:#694;fill-rule:nonzero;"/></g><g transform="matrix(1,0,0,1,-279.91,0)"><path d="M438.949,143.167l3.127,-9.402l-18.691,-0.036l3.043,9.479l12.521,-0.041Z" style="fill:#ad2125;fill-rule:nonzero;"/></g><g transform="matrix(1,0,0,1,-279.91,0)"><path d="M365.685,150.926l20.585,-16.721l-16.2,-20.084l-10.087,-1.448l10.84,-6.141l22.955,27.662l-20.96,21.503" style="fill:#679a45;fill-rule:nonzero;"/></g><g transform="matrix(1,0,0,1,-279.91,0)"><path d="M406.563,134.378l17.34,-11.491l13.347,9.521l-14.524,-3.779l-23.226,21.533l7.063,-15.784Z" style="fill:#679a45;fill-rule:nonzero;"/></g><g transform="matrix(1,0,0,1,-279.91,0)"><path d="M370.601,146.823l-2.582,-25.596l25.612,-6.274l17.425,5.772l9.13,-13.666l12.558,8.91l-11.58,-2.51l-10.6,31.609l8.686,10.219l-18.969,-0.183l-29.68,-8.281Z" style="fill:#35813f;fill-rule:nonzero;"/></g><g transform="matrix(1,0,0,1,-279.91,0)"><path d="M394.305,156.735l17.299,-36.201l-16.297,-7.087l-1.805,-5.77l-7.355,6.4l18.189,7.969l-24.128,31.13" style="fill:#679a45;fill-rule:nonzero;"/></g><g transform="matrix(1,0,0,1,-279.91,0)"><path d="M380.748,146.444l-22.695,-28.443l-13.553,8.161l12.377,-1.965l15.03,24.059l8.841,-1.812Z" style="fill:#679a45;fill-rule:nonzero;"/></g><g transform="matrix(1,0,0,1,-279.91,0)"><path d="M394.89,131.659l-7.764,-31.051l-8.967,-0.447l4.906,4.51l6.909,31.934l4.916,-4.946Z" style="fill:#679a45;fill-rule:nonzero;"/></g><g transform="matrix(1,0,0,1,-279.91,0)"><path d="M378.244,151.214l12.579,-2.508l14.196,-18.068l-41.372,-3.478" style="fill:#679a45;fill-rule:nonzero;"/></g><g transform="matrix(1,0,0,1,-279.91,0)"><path d="M388.25,143.913l-20.5,-10.625l-13.942,10.032l14.442,-4.032l11,10.75l9,-6.125Z" style="fill:#35813f;fill-rule:nonzero;"/></g><g transform="matrix(1,0,0,1,-279.91,0)"><path d="M343.33,142.287l-2.381,-0.233l-0.096,30.344l4.457,1.05l-1.98,-31.161Z" style="fill:#694;fill-rule:nonzero;"/></g><g transform="matrix(1,0,0,1,-279.91,0)"><path d="M348.543,142.198l3.127,-9.402l-18.691,-0.036l3.043,9.479l12.521,-0.041Z" style="fill:#ad2125;fill-rule:nonzero;"/></g><g transform="matrix(1,0,0,1,-279.91,0)"><path d="M334.935,160.832l4.812,-4.75l17.848,-1.234l3.559,-3.516l5.625,3.427l4.406,-1.677l10.201,-1.235l2.1,1.495l2.5,-2.458l3.314,0.69l1.164,-3.274l8.121,2.936l14.539,-3.199l6.112,7.182l21.047,-3.502l5.621,-5.582l6.949,6.4l9.314,1.909l1.862,6.405l-129.094,-0.017Z" style="fill:#694;fill-rule:nonzero;"/></g><g transform="matrix(1,0,0,1,-279.91,0)"><path d="M420.904,160.864l2.126,-2.854l13.624,-0.709l9.5,-6.875l1.773,7.625l5.145,2.792l-32.168,0.021Z" style="fill:#36803f;fill-rule:nonzero;"/></g><g transform="matrix(1,0,0,1,-279.91,0)"><path d="M413.869,160.314l-2.036,-12.069l-26.667,-0.167l-11.666,-3.167l-17.069,2.902l-4.722,2.663l-16.262,-2.99l-5.045,5.017l-8.273,3.495l-2.469,4.364l94.209,-0.048Z" style="fill:#694;fill-rule:nonzero;"/></g><g transform="matrix(1,0,0,1,-279.91,0)"><path d="M347.356,160.443l-0.697,-1.908l-9.895,-3.376l-1.832,2.417l-6.584,2.749l19.008,0.118Z" style="fill:#36803f;fill-rule:nonzero;"/></g><g transform="matrix(1,0,0,1,-279.91,0)"><path d="M381.004,160.336l-3.5,-3.917l-4.424,1.024l-11.232,-0.285l-4.031,3.157l9.854,0.021l13.333,0Z" style="fill:#36803f;fill-rule:nonzero;"/></g><g transform="matrix(1,0,0,1,-279.91,0)"><path d="M391.654,160.885l2.73,-1.832l0.77,-3.585l15.375,1.291l2.166,4.084l-21.041,0.042Z" style="fill:#36803f;fill-rule:nonzero;"/></g><g transform="matrix(1,0,0,1,-279.91,0)"><path d="M310.91,160.412l158,0l1,12l-160,0l1,-12Z" style="fill:#ad2125;fill-rule:nonzero;"/></g><g transform="matrix(1,0,0,1,-279.91,0)"><path d="M280.91,234.412l188,0l1,-12l-190,0l1,12Z" style="fill:#ad2125;fill-rule:nonzero;"/></g><g transform="matrix(1,0,0,1,-279.91,0)"><path d="M283.91,224.412l181,0l-1,-58l-153.5,0l-2.5,28.834l-23.514,0.908l-0.486,28.258Z" style="fill:#ad2125;fill-rule:nonzero;"/></g><g transform="matrix(1,0,0,1,-279.91,0)"><rect x="456" y="183.412" width="8" height="61" style="fill:#ad2125;fill-rule:nonzero;"/></g><g transform="matrix(1,0,0,1,-279.91,0)"><rect x="406" y="172.412" width="8" height="12" style="fill:#ad2125;fill-rule:nonzero;"/></g><g transform="matrix(1,0,0,1,-279.91,0)"><rect x="336" y="172.412" width="8" height="12" style="fill:#ad2125;fill-rule:nonzero;"/></g><g transform="matrix(1,0,0,1,-279.91,0)"><rect x="284" y="208.412" width="7.999" height="36" style="fill:#ad2125;fill-rule:nonzero;"/></g><g transform="matrix(1,0,0,1,-279.91,0)"><path d="M346,172.079l0,41.75l57,-29.75l0,-12.167l-57,0.167Z" style="fill:#6b151c;fill-rule:nonzero;"/></g><g transform="matrix(1,0,0,1,-279.91,0)"><path d="M417,172.079l0,36.75l39,-19.637l0,-17.28l-39,0.167Z" style="fill:#6b151c;fill-rule:nonzero;"/></g><g transform="matrix(1,0,0,1,-279.91,0)"><path d="M333,172.079l0,15.5l-17.444,11.817l2.385,-27.484l15.059,0.167Z" style="fill:#6b151c;fill-rule:nonzero;"/></g><g transform="matrix(1,0,0,1,-279.91,0)"><path d="M292,234.412l0,9.667l2.911,-9.667l-2.911,0Z" style="fill:#6b151c;fill-rule:nonzero;"/></g><g transform="matrix(1,0,0,1,-279.91,0)"><path d="M453,234.412l3.001,9.667l0,-9.667l-3.001,0Z" style="fill:#6b151c;fill-rule:nonzero;"/></g><g transform="matrix(1,0,0,1,-279.91,0)"><path d="M457,222.412l-39.59,0l0.057,-4l39.533,0l0,4Z" style="fill:#6b151c;fill-rule:nonzero;"/></g><g transform="matrix(1,0,0,1,-279.91,0)"><path d="M333,222.412l-40.59,0l0.059,-4l40.531,0l0,4Z" style="fill:#6b151c;fill-rule:nonzero;"/></g><g transform="matrix(1,0,0,1,-279.91,0)"><path d="M403,222.412l-56.623,0l0.084,-4l56.539,0l0,4Z" style="fill:#6b151c;fill-rule:nonzero;"/></g><g transform="matrix(1,0,0,1,-279.91,0)"><path d="M462.393,168.711l1.752,-5.266l-10.468,-0.019l1.704,5.307l7.012,-0.022Z" style="fill:#c0bdbb;fill-rule:nonzero;"/></g><g transform="matrix(1,0,0,1,-279.91,0)"><path d="M314.76,158.412l-3.805,40.084l-30.955,-0.417l0,-4.5l24.836,-1.958l4.408,-33.209l5.516,0Z" style="fill:#553f37;fill-rule:nonzero;"/></g></g></g></svg>