<svg xmlns="http://www.w3.org/2000/svg" xml:space="preserve" fill-rule="evenodd" stroke-linejoin="round" stroke-miterlimit="2" clip-rule="evenodd" viewBox="0 0 250 250">
  <path fill="url(#sky-gradient-rear1)" fill-rule="nonzero" d="M0 0v104.6c9.2-1.9 18.7-2.9 28.5-2.9 54.1 0 101 30.3 124.9 74.9 19.4-10 41.3-15.6 64.6-15.6 19.3 0 37.7 3.9 54.5 10.9 16.7-23.5 44.1-38.9 75.2-38.9 24.8 0 47.4 9.8 63.9 25.8 21-28.3 52.3-47.7 88.4-54.2V0z" transform="scale(.5)"/>
  <path fill="url(#sky-gradient-rear2)" fill-rule="nonzero" d="M411.6 158.8c-16.6-16-39.1-25.8-63.9-25.8-31 0-58.5 15.4-75.2 38.9-16.8-7-35.2-10.9-54.5-10.9-23.3 0-45.3 5.6-64.6 15.6-23.8-44.6-70.8-74.9-124.9-74.9-9.8 0-19.3 1-28.5 2.9V240h500V104.6c-36.1 6.5-67.4 26-88.4 54.2" transform="scale(.5)"/>
  <path fill="url(#sky-gradient-rear3)" d="M0 240h500v260H0z" transform="scale(.5)"/>
  <defs>
    <linearGradient id="sky-gradient-rear1" x1="0" x2="1" y1="0" y2="0" gradientTransform="matrix(0 169.914 -169.914 0 250 2.909)" gradientUnits="userSpaceOnUse">
      <stop offset="0" stop-color="#7d9baa" stop-opacity="0"/>
      <stop offset=".08" stop-color="#7d9baa" stop-opacity="0"/>
      <stop offset="1" stop-color="#7d9baa" stop-opacity=".22"/>
    </linearGradient>
    <linearGradient id="sky-gradient-rear2" x1="0" x2="1" y1="0" y2="0" gradientTransform="rotate(-90 243.023 -6.978)scale(131.625)" gradientUnits="userSpaceOnUse">
      <stop offset="0" stop-color="#b3d2df" stop-opacity=".38"/>
      <stop offset=".8" stop-color="#d2edfa" stop-opacity=".41"/>
      <stop offset="1" stop-color="#d2edfa" stop-opacity=".41"/>
    </linearGradient>
    <linearGradient id="sky-gradient-rear3" x1="0" x2="1" y1="0" y2="0" gradientTransform="rotate(90 5 245)scale(260)" gradientUnits="userSpaceOnUse">
      <stop offset="0" stop-color="#b3d2df" stop-opacity=".38"/>
      <stop offset=".75" stop-color="#cce0e7" stop-opacity=".1"/>
      <stop offset="1" stop-color="#d0d0d0" stop-opacity="0"/>
    </linearGradient>
  </defs>
</svg>
