<?xml version="1.0" encoding="UTF-8" standalone="no"?>
<!DOCTYPE svg PUBLIC "-//W3C//DTD SVG 1.1//EN" "http://www.w3.org/Graphics/SVG/1.1/DTD/svg11.dtd">
<svg width="100%" height="100%" viewBox="0 0 980 800" version="1.1" xmlns="http://www.w3.org/2000/svg" xmlns:xlink="http://www.w3.org/1999/xlink" xml:space="preserve" xmlns:serif="http://www.serif.com/" style="fill-rule:evenodd;clip-rule:evenodd;stroke-linejoin:round;stroke-miterlimit:2;">
    <g id="apartments-wide-left" transform="matrix(1.27,0,0,1.27,0,38)">
        <g transform="matrix(1,0,0,1,-1369.57,-320.875)">
            <path d="M2097.92,672.482L2128.63,671.393L2107.97,586.623L2097.92,586.229L2097.92,672.482Z" style="fill:rgb(206,173,128);fill-rule:nonzero;"/>
        </g>
        <g transform="matrix(1.00045,0,0,1.11549,-0.594266,-427.223)">
            <path d="M0.594,920.875L728.614,920.875L728.594,908.875L0.594,908.875L0.594,920.875Z" style="fill:rgb(53,45,39);fill-rule:nonzero;"/>
        </g>
        <g transform="matrix(1.00048,0,0,1.00164,-0.627599,-322.965)">
            <path d="M0.627,342.875L0.627,908.856L728.617,908.875L728.627,342.875L0.627,342.875Z" style="fill:rgb(236,219,177);fill-rule:nonzero;"/>
        </g>
        <g>
            <g transform="matrix(1,0,0,1,0,-320.875)">
                <path d="M456.154,868.391L677.594,868.391L677.355,630.217L456.299,630.194L456.154,868.391Z" style="fill:rgb(246,241,225);fill-rule:nonzero;"/>
            </g>
            <g transform="matrix(2.04603,0,0,1,-483.623,-320.875)">
                <path d="M462.342,861.436L564.442,861.436L564.006,634.068L462.426,633.784L462.342,861.436Z" style="fill:rgb(49,49,86);fill-rule:nonzero;"/>
            </g>
            <g transform="matrix(1,0,0,1,0,-320.875)">
                <rect x="564.124" y="633.364" width="6.833" height="228.662" style="fill:rgb(246,241,225);fill-rule:nonzero;"/>
            </g>
            <g transform="matrix(1,0,0,1,0,-320.875)">
                <g opacity="0.3">
                    <path d="M671.186,861.316L671.217,759.305L571.221,854.793L571.03,861.343L671.186,861.316Z" style="fill:rgb(10,23,35);fill-rule:nonzero;"/>
                </g>
            </g>
            <g transform="matrix(1,0,0,1,0,-320.875)">
                <path d="M571.06,860.219L671.211,759.722L671.227,759.74L671.248,753.695L571.026,854.059L571.06,860.219Z" style="fill:rgb(73,74,114);fill-rule:nonzero;"/>
            </g>
            <g transform="matrix(1,0,0,1,0,-320.875)">
                <g opacity="0.3">
                    <path d="M568.789,633.949L462.357,740.031L462.426,633.953L568.789,633.949Z" style="fill:rgb(10,23,35);fill-rule:nonzero;"/>
                </g>
            </g>
        </g>
        <g transform="matrix(1,0,0,1,0,-320.875)">
            <path d="M0.653,741.031L456.185,740.03L456.273,633.486L0.627,633.424L0.653,741.031Z" style="fill:rgb(224,206,168);fill-rule:nonzero;"/>
        </g>
        <g>
            <g transform="matrix(1,0,0,1,0,-320.875)">
                <path d="M433.666,473.564L482.658,473.623L482.691,415.838L433.6,415.808L433.666,473.564Z" style="fill:rgb(246,241,225);fill-rule:nonzero;"/>
            </g>
            <g transform="matrix(1,0,0,1,0,-320.875)">
                <path d="M439.051,468.146L477.202,468.266L477.202,421.8L439.051,421.762L439.051,468.146Z" style="fill:rgb(49,49,86);fill-rule:nonzero;"/>
            </g>
            <g transform="matrix(1,0,0,1,0,-320.875)">
                <g opacity="0.3">
                    <path d="M477.162,433.865L442.849,468.146L477.185,468.217L477.162,433.865Z" style="fill:rgb(10,23,35);fill-rule:nonzero;"/>
                </g>
            </g>
            <g transform="matrix(1,0,0,1,0,-320.875)">
                <path d="M491.121,406.887L487.373,415.879L428.373,415.879L424.625,406.887L491.121,406.887Z" style="fill:rgb(206,173,128);fill-rule:nonzero;"/>
            </g>
        </g>
        <g>
            <g transform="matrix(1,0,0,1,0,-320.875)">
                <path d="M598.291,401.539L535.02,401.481L535.112,539.055L604.047,539.195L604.047,539.066L667.318,539.195L667.363,401.545L598.291,401.481L598.291,401.539Z" style="fill:rgb(246,241,225);fill-rule:nonzero;"/>
            </g>
            <g transform="matrix(1,0,0,1,0,-320.875)">
                <path d="M603.957,533.813L662.105,533.969L662.105,473.721L603.74,473.668L603.957,533.813Z" style="fill:rgb(49,49,86);fill-rule:nonzero;"/>
            </g>
            <g transform="matrix(1,0,0,1,0,-320.875)">
                <path d="M603.711,407.465L603.733,451.301L603.74,468.409L662.139,468.352L662.105,406.827L603.711,407.465Z" style="fill:rgb(49,49,86);fill-rule:nonzero;"/>
            </g>
            <g transform="matrix(1,0,0,1,0,-320.875)">
                <path d="M540.472,533.813L598.375,533.969L598.835,473.721L540.472,473.668L540.472,533.813Z" style="fill:rgb(49,49,86);fill-rule:nonzero;"/>
            </g>
            <g transform="matrix(1,0,0,1,0,-320.875)">
                <path d="M540.444,407.465L540.472,468.407L598.868,468.352L598.859,451.47L598.835,406.827L540.444,407.465Z" style="fill:rgb(49,49,86);fill-rule:nonzero;"/>
            </g>
            <g transform="matrix(1,0,0,1,0,-320.875)">
                <rect x="539.908" y="468.392" width="59.168" height="5.135" style="fill:rgb(246,241,225);fill-rule:nonzero;"/>
            </g>
            <g transform="matrix(1,0,0,1,0,-320.875)">
                <path d="M526.505,392.553L530.253,401.545L672.701,401.545L676.449,392.553L526.505,392.553Z" style="fill:rgb(206,173,128);fill-rule:nonzero;"/>
            </g>
            <g transform="matrix(1,0,0,1,0,-320.875)">
                <g opacity="0.3">
                    <path d="M662.245,522.807L662.279,412.811L546.664,523.213L662.245,522.807Z" style="fill:rgb(10,23,35);fill-rule:nonzero;"/>
                </g>
            </g>
            <g transform="matrix(1,0,0,1,0,-320.875)">
                <path d="M551.954,523.844L662.274,413.227L662.289,413.244L662.305,407.791L661.726,407.781L545.85,523.824L551.954,523.844Z" style="fill:rgb(73,74,114);fill-rule:nonzero;"/>
            </g>
            <g transform="matrix(1,0,0,1,0,-320.875)">
                <g opacity="0.3">
                    <path d="M540.617,443.307L540.617,407.159L576.367,407.541" style="fill:rgb(10,23,35);fill-rule:nonzero;"/>
                </g>
            </g>
            <g transform="matrix(1,0,0,1,0,-320.875)">
                <rect x="598.665" y="406.303" width="5.417" height="110" style="fill:rgb(246,241,225);fill-rule:nonzero;"/>
            </g>
            <g transform="matrix(1,0,0,1,0,-320.875)">
                <rect x="540.081" y="468.219" width="122.209" height="5.416" style="fill:rgb(246,241,225);fill-rule:nonzero;"/>
            </g>
            <g transform="matrix(1,0,0,1,0,-320.875)">
                <path d="M670.041,535.555L669.619,539.256L660.062,548.803L516.312,548.803L538.686,526.428" style="fill:rgb(224,206,168);fill-rule:nonzero;"/>
            </g>
            <g transform="matrix(1,0,0,1,0,-320.875)">
                <path d="M533.61,539.221L669.82,539.221L676.125,522.219L527.121,522.219L533.61,539.221Z" style="fill:rgb(206,173,128);fill-rule:nonzero;"/>
            </g>
            <g transform="matrix(1,0,0,1,0,-320.875)">
                <path d="M537.873,522.209L546.623,518L560.439,516.256L566.404,512.928L569.623,516.166L571.623,514.166L584.529,512.615L587.373,515.438L588.537,512.162L592.145,512.982L593.31,509.707L600.033,512.371L601.43,512.645L616.295,509.381L623.34,516.398L643.128,513.125L649.788,507.5L655.697,513.943L665.011,515.852L666.873,522.256L537.873,522.209Z" style="fill:rgb(103,154,69);fill-rule:nonzero;"/>
            </g>
            <g transform="matrix(1,0,0,1,0,-320.875)">
                <path d="M602.295,522.225L602.98,520.43L615.623,519.866L616.915,517.866L621.29,522.219L602.295,522.225Z" style="fill:rgb(53,129,63);fill-rule:nonzero;"/>
            </g>
            <g transform="matrix(1,0,0,1,0,-320.875)">
                <path d="M639.448,522.338L640.145,520.43L650.04,517.053L651.873,519.471L658.456,522.219L639.448,522.338Z" style="fill:rgb(53,129,63);fill-rule:nonzero;"/>
            </g>
            <g transform="matrix(1,0,0,1,0,-320.875)">
                <path d="M562.092,522.23L565.592,518.312L570.015,519.337L581.248,519.052L585.279,522.209L575.425,522.23L562.092,522.23Z" style="fill:rgb(53,129,63);fill-rule:nonzero;"/>
            </g>
            <g transform="matrix(1,0,0,1,0,-320.875)">
                <path d="M630.511,503.926L632.814,503.926L633.236,518.549L628.783,519.24L630.511,503.926Z" style="fill:rgb(103,154,69);fill-rule:nonzero;"/>
            </g>
            <g transform="matrix(1,0,0,1,0,-320.875)">
                <path d="M613.777,480.891L616.158,480.659L616.253,511.002L611.797,512.053L613.777,480.891Z" style="fill:rgb(103,154,69);fill-rule:nonzero;"/>
            </g>
            <g transform="matrix(1,0,0,1,0,-320.875)">
                <path d="M644.568,487.668L646.951,487.414L646.948,514.24L642.488,515.404L644.568,487.668Z" style="fill:rgb(103,154,69);fill-rule:nonzero;"/>
            </g>
            <g transform="matrix(1,0,0,1,0,-320.875)">
                <path d="M639.564,488.303L636.438,478.901L655.128,478.865L652.085,488.344L639.564,488.303Z" style="fill:rgb(174,32,37);fill-rule:nonzero;"/>
            </g>
            <g transform="matrix(1,0,0,1,0,-320.875)">
                <path d="M608.564,480.803L605.438,471.401L624.128,471.365L621.085,480.844L608.564,480.803Z" style="fill:rgb(174,32,37);fill-rule:nonzero;"/>
            </g>
            <g transform="matrix(1,0,0,1,0,-320.875)">
                <path d="M625.314,504.053L622.188,494.651L640.878,494.615L637.835,504.094L625.314,504.053Z" style="fill:rgb(174,32,37);fill-rule:nonzero;"/>
            </g>
            <g transform="matrix(1,0,0,1,0,-320.875)">
                <path d="M551.761,499.926L554.064,499.926L554.486,519.086L550.033,519.99L551.761,499.926Z" style="fill:rgb(103,154,69);fill-rule:nonzero;"/>
            </g>
            <g transform="matrix(1,0,0,1,0,-320.875)">
                <path d="M546.564,500.053L543.438,490.651L562.128,490.615L559.085,500.094L546.564,500.053Z" style="fill:rgb(174,32,37);fill-rule:nonzero;"/>
            </g>
            <g transform="matrix(1,0,0,1,0,-320.875)">
                <path d="M591.011,505.926L593.314,505.926L593.736,520.549L589.283,521.24L591.011,505.926Z" style="fill:rgb(103,154,69);fill-rule:nonzero;"/>
            </g>
            <g transform="matrix(1,0,0,1,0,-320.875)">
                <path d="M574.277,491.141L576.658,490.909L576.753,514.875L572.297,515.926L574.277,491.141Z" style="fill:rgb(103,154,69);fill-rule:nonzero;"/>
            </g>
            <g transform="matrix(1,0,0,1,0,-320.875)">
                <path d="M569.064,491.053L565.938,481.651L584.628,481.615L581.585,491.094L569.064,491.053Z" style="fill:rgb(174,32,37);fill-rule:nonzero;"/>
            </g>
            <g transform="matrix(1,0,0,1,0,-320.875)">
                <path d="M585.814,506.053L582.688,496.651L601.378,496.615L598.335,506.094L585.814,506.053Z" style="fill:rgb(174,32,37);fill-rule:nonzero;"/>
            </g>
        </g>
        <g>
            <g transform="matrix(1,0,0,1,0,-320.875)">
                <path d="M200.962,539.055L132.026,539.196L131.979,401.545L201.054,401.481L200.962,539.055Z" style="fill:rgb(246,241,225);fill-rule:nonzero;"/>
            </g>
            <g transform="matrix(1,0,0,1,0,-320.875)">
                <path d="M195.603,533.813L137.24,533.968L137.24,473.721L195.603,473.668L195.603,533.813Z" style="fill:rgb(49,49,86);fill-rule:nonzero;"/>
            </g>
            <g transform="matrix(1,0,0,1,0,-320.875)">
                <path d="M195.603,468.406L137.207,468.351L137.24,406.826L195.63,407.465L195.603,468.406Z" style="fill:rgb(49,49,86);fill-rule:nonzero;"/>
            </g>
            <g transform="matrix(1,0,0,1,0,-320.875)">
                <path d="M137.692,539.055L68.755,539.196L68.711,401.545L137.783,401.481L137.692,539.055Z" style="fill:rgb(246,241,225);fill-rule:nonzero;"/>
            </g>
            <g transform="matrix(1,0,0,1,0,-320.875)">
                <path d="M132.334,533.813L73.97,533.968L73.97,473.721L132.334,473.668L132.334,533.813Z" style="fill:rgb(49,49,86);fill-rule:nonzero;"/>
            </g>
            <g transform="matrix(1,0,0,1,0,-320.875)">
                <path d="M132.334,468.408L73.936,468.351L73.97,406.826L132.363,407.465L132.334,468.408Z" style="fill:rgb(49,49,86);fill-rule:nonzero;"/>
            </g>
            <g transform="matrix(1,0,0,1,0,-320.875)">
                <rect x="136.998" y="468.393" width="59.168" height="5.135" style="fill:rgb(246,241,225);fill-rule:nonzero;"/>
            </g>
            <g transform="matrix(1,0,0,1,0,-320.875)">
                <path d="M209.569,392.553L205.821,401.545L63.373,401.545L59.625,392.553L209.569,392.553Z" style="fill:rgb(206,173,128);fill-rule:nonzero;"/>
            </g>
            <g transform="matrix(1,0,0,1,0,-320.875)">
                <g opacity="0.3">
                    <path d="M195.579,522.475L195.613,412.479L79.998,522.881L195.579,522.475Z" style="fill:rgb(10,23,35);fill-rule:nonzero;"/>
                </g>
            </g>
            <g transform="matrix(1,0,0,1,0,-320.875)">
                <path d="M85.288,523.512L195.608,412.895L195.623,412.912L195.639,407.459L195.06,407.448L79.184,523.491L85.288,523.512Z" style="fill:rgb(73,74,114);fill-rule:nonzero;"/>
            </g>
            <g transform="matrix(1,0,0,1,0,-320.875)">
                <rect x="132.373" y="462.135" width="5.417" height="54.25" style="fill:rgb(246,241,225);fill-rule:nonzero;"/>
            </g>
            <g transform="matrix(1,0,0,1,0,-320.875)">
                <rect x="73.789" y="468.301" width="122.209" height="5.416" style="fill:rgb(246,241,225);fill-rule:nonzero;"/>
            </g>
            <g transform="matrix(1,0,0,1,0,-320.875)">
                <path d="M203.145,535.555L202.273,539.352L192.811,548.803L49.061,548.803L71.435,526.428" style="fill:rgb(224,206,168);fill-rule:nonzero;"/>
            </g>
            <g>
                <g transform="matrix(1,0,0,1,0,-320.875)">
                    <path d="M198.467,522.209L193.655,517.459L175.807,516.225L172.248,512.709L166.623,516.135L162.217,514.459L152.016,513.223L149.916,514.719L147.416,512.26L144.101,512.951L142.937,509.676L134.817,512.613L121.249,509.553L114.166,516.596L93.118,513.094L87.498,507.512L80.549,513.912L71.236,515.82L69.373,522.225L198.467,522.209Z" style="fill:rgb(103,154,69);fill-rule:nonzero;"/>
                </g>
                <g transform="matrix(1,0,0,1,0,-320.875)">
                    <path d="M141.748,522.262L139.017,520.43L138.248,516.844L122.873,518.135L120.706,522.219L141.748,522.262Z" style="fill:rgb(53,129,63);fill-rule:nonzero;"/>
                </g>
                <g transform="matrix(1,0,0,1,0,-320.875)">
                    <path d="M193.457,522.26L174.165,519.303L167.207,520.594L158.582,519.219L157.124,522.176L193.457,522.26Z" style="fill:rgb(53,129,63);fill-rule:nonzero;"/>
                </g>
                <g transform="matrix(1,0,0,1,0,-320.875)">
                    <path d="M103.498,515.553L103.748,496.053L88.123,485.553L81.873,487.803L86.623,479.553L108.123,493.553L108.873,516.803" style="fill:rgb(103,154,69);fill-rule:nonzero;"/>
                </g>
                <g transform="matrix(1,0,0,1,0,-320.875)">
                    <path d="M114.123,517.678L120.623,488.928L110.123,480.678L111.748,475.178L104.373,480.928L115.998,490.178L108.123,515.928" style="fill:rgb(103,154,69);fill-rule:nonzero;"/>
                </g>
                <g transform="matrix(1,0,0,1,0,-320.875)">
                    <path d="M105.248,514.303L92.498,494.928L83.873,501.678L91.748,500.053L99.623,515.803L105.248,514.303Z" style="fill:rgb(103,154,69);fill-rule:nonzero;"/>
                </g>
                <g transform="matrix(1,0,0,1,0,-320.875)">
                    <path d="M117.623,498.303L129.498,493.053L135.498,500.928L128.748,497.803L116.123,504.178L117.623,498.303Z" style="fill:rgb(103,154,69);fill-rule:nonzero;"/>
                </g>
                <g transform="matrix(1,0,0,1,0,-320.875)">
                    <path d="M120.499,522.24L118.373,519.386L104.748,513.677L102.248,509.802L95.476,519.427L88.331,522.22L120.499,522.24Z" style="fill:rgb(53,129,63);fill-rule:nonzero;"/>
                </g>
                <g transform="matrix(1,0,0,1,0,-320.875)">
                    <path d="M159.979,515.656L159.404,501.806L144.645,495.011L140.651,496.873L142.689,490.949L162.907,499.523L164.321,515.342" style="fill:rgb(103,154,69);fill-rule:nonzero;"/>
                </g>
                <g transform="matrix(1,0,0,1,0,-320.875)">
                    <path d="M153.697,496.795L151.733,485.211L164.967,470.543L175.52,476.951L165.952,474.856L155.461,485.762L158.509,498.262L153.697,496.795Z" style="fill:rgb(103,154,69);fill-rule:nonzero;"/>
                </g>
                <g transform="matrix(1,0,0,1,0,-320.875)">
                    <path d="M163.188,516.338L169.61,490.652L177.027,490.283L172.968,494.014L167.689,516.715L163.188,516.338Z" style="fill:rgb(103,154,69);fill-rule:nonzero;"/>
                </g>
            </g>
            <g transform="matrix(1,0,0,1,0,-320.875)">
                <path d="M202.636,539.221L66.426,539.221L60.121,522.219L209.125,522.219L202.636,539.221Z" style="fill:rgb(206,173,128);fill-rule:nonzero;"/>
            </g>
            <g transform="matrix(1,0,0,1,0,-320.875)">
                <g opacity="0.3">
                    <path d="M73.951,442.975L73.951,406.827L109.701,407.209" style="fill:rgb(10,23,35);fill-rule:nonzero;"/>
                </g>
            </g>
        </g>
        <g>
            <g transform="matrix(1,0,0,1,0,-320.875)">
                <path d="M302.408,473.565L253.416,473.624L253.384,415.837L302.473,415.809L302.408,473.565Z" style="fill:rgb(246,241,225);fill-rule:nonzero;"/>
            </g>
            <g transform="matrix(1,0,0,1,0,-320.875)">
                <path d="M297.023,468.147L258.873,468.266L258.873,421.801L297.023,421.762L297.023,468.147Z" style="fill:rgb(49,49,86);fill-rule:nonzero;"/>
            </g>
            <g transform="matrix(1,0,0,1,0,-320.875)">
                <g opacity="0.3">
                    <path d="M258.873,433.865L293.186,468.146L258.85,468.217L258.873,433.865Z" style="fill:rgb(10,23,35);fill-rule:nonzero;"/>
                </g>
            </g>
            <g transform="matrix(1,0,0,1,0,-320.875)">
                <path d="M244.953,406.887L248.701,415.879L307.701,415.879L311.449,406.887L244.953,406.887Z" style="fill:rgb(206,173,128);fill-rule:nonzero;"/>
            </g>
        </g>
        <g>
            <g transform="matrix(1,0,0,1,0,-320.875)">
                <path d="M207.84,690.032L204.092,699.024L102.09,699.024L98.342,690.032L207.84,690.032Z" style="fill:rgb(206,173,128);fill-rule:nonzero;"/>
            </g>
            <g transform="matrix(1,0,0,1,0,-320.875)">
                <path d="M204.239,776.961L203.367,780.758L193.905,790.209L87.887,790.209L110.261,767.834" style="fill:rgb(224,206,168);fill-rule:nonzero;"/>
            </g>
            <g transform="matrix(1,0,0,1,0,-320.875)">
                <path d="M198.006,769.716L108.172,769.774L108.107,699.028L198.137,698.996L198.006,769.716Z" style="fill:rgb(246,241,225);fill-rule:nonzero;"/>
            </g>
            <g transform="matrix(1,0,0,1,0,-320.875)">
                <path d="M192.325,764.297L113.895,764.416L113.895,704.787L192.325,704.746L192.325,764.297Z" style="fill:rgb(49,49,86);fill-rule:nonzero;"/>
            </g>
            <g transform="matrix(1,0,0,1,0,-320.875)">
                <path d="M203.335,780.78L102.776,780.78L98.122,763.778L208.126,763.778L203.335,780.78Z" style="fill:rgb(206,173,128);fill-rule:nonzero;"/>
            </g>
            <g transform="matrix(1,0,0,1,0,-320.875)">
                <g opacity="0.3">
                    <path d="M192.373,763.791L192.324,704.734L189.363,704.742L131.996,763.766L192.373,763.791Z" style="fill:rgb(10,23,35);fill-rule:nonzero;"/>
                </g>
            </g>
            <g transform="matrix(1,0,0,1,0,-320.875)">
                <path d="M131.963,763.783L190.888,704.735L184.858,704.753L125.881,763.795L131.963,763.783Z" style="fill:rgb(73,74,114);fill-rule:nonzero;"/>
            </g>
        </g>
        <g transform="matrix(1,0,0,1,0,-319.521)">
            <path d="M0,584.875L0.652,674.004L723.663,674.004L712.823,584.875L0,584.875Z" style="fill:rgb(206,173,128);fill-rule:nonzero;"/>
        </g>
        <g>
            <g transform="matrix(1.00086,0,0,1,-0.631445,-322.875)">
                <path d="M0.631,330.403L0.631,344.875L733.867,344.875L733.867,339.594L730.834,339.594L730.795,330.193L0.631,330.403Z" style="fill:rgb(206,173,128);fill-rule:nonzero;"/>
            </g>
            <g transform="matrix(1,0,0,1,0,-322.875)">
                <path d="M722.453,296.891L722.466,316.84L0,315.429L0,330.637L730.811,330.427L735.283,316.845L735.283,296.891L722.453,296.891Z" style="fill:rgb(246,241,225);fill-rule:nonzero;"/>
            </g>
            <g>
                <g transform="matrix(1,0,0,1,0,-322.875)">
                    <path d="M63.501,330.156L66.628,339.558L47.937,339.594L50.98,330.115L63.501,330.156Z" style="fill:rgb(246,241,225);fill-rule:nonzero;"/>
                </g>
                <g transform="matrix(1,0,0,1,0,-322.875)">
                    <path d="M114.876,330.156L118.003,339.558L99.312,339.594L102.355,330.115L114.876,330.156Z" style="fill:rgb(246,241,225);fill-rule:nonzero;"/>
                </g>
                <g transform="matrix(1,0,0,1,0,-322.875)">
                    <path d="M166.751,330.156L169.878,339.558L151.187,339.594L154.23,330.115L166.751,330.156Z" style="fill:rgb(246,241,225);fill-rule:nonzero;"/>
                </g>
                <g transform="matrix(1,0,0,1,0,-322.875)">
                    <path d="M217.876,330.156L221.003,339.558L202.312,339.594L205.355,330.115L217.876,330.156Z" style="fill:rgb(246,241,225);fill-rule:nonzero;"/>
                </g>
                <g transform="matrix(1,0,0,1,0,-322.875)">
                    <path d="M269.501,330.156L272.628,339.558L253.937,339.594L256.98,330.115L269.501,330.156Z" style="fill:rgb(246,241,225);fill-rule:nonzero;"/>
                </g>
                <g transform="matrix(1,0,0,1,0,-322.875)">
                    <path d="M320.876,330.156L324.003,339.558L305.312,339.594L308.355,330.115L320.876,330.156Z" style="fill:rgb(246,241,225);fill-rule:nonzero;"/>
                </g>
                <g transform="matrix(1,0,0,1,0,-322.875)">
                    <path d="M372.626,330.156L375.753,339.558L357.062,339.594L360.105,330.115L372.626,330.156Z" style="fill:rgb(246,241,225);fill-rule:nonzero;"/>
                </g>
                <g transform="matrix(1,0,0,1,0,-322.875)">
                    <path d="M423.376,330.156L426.503,339.558L407.812,339.594L410.855,330.115L423.376,330.156Z" style="fill:rgb(246,241,225);fill-rule:nonzero;"/>
                </g>
                <g transform="matrix(1,0,0,1,0,-322.875)">
                    <path d="M475.126,330.156L478.253,339.558L459.562,339.594L462.605,330.115L475.126,330.156Z" style="fill:rgb(246,241,225);fill-rule:nonzero;"/>
                </g>
                <g transform="matrix(1,0,0,1,0,-322.875)">
                    <path d="M526.001,330.156L529.128,339.558L510.437,339.594L513.48,330.115L526.001,330.156Z" style="fill:rgb(246,241,225);fill-rule:nonzero;"/>
                </g>
                <g transform="matrix(1,0,0,1,0,-322.875)">
                    <path d="M577.626,330.156L580.753,339.558L562.062,339.594L565.105,330.115L577.626,330.156Z" style="fill:rgb(246,241,225);fill-rule:nonzero;"/>
                </g>
                <g transform="matrix(1,0,0,1,0,-322.875)">
                    <path d="M629.126,330.156L632.253,339.558L613.562,339.594L616.605,330.115L629.126,330.156Z" style="fill:rgb(246,241,225);fill-rule:nonzero;"/>
                </g>
                <g transform="matrix(1,0,0,1,0,-322.875)">
                    <path d="M730.751,330.156L733.878,339.558L715.187,339.594L718.23,330.115L730.751,330.156Z" style="fill:rgb(246,241,225);fill-rule:nonzero;"/>
                </g>
                <g transform="matrix(1,0,0,1,0,-322.875)">
                    <path d="M680.751,330.156L683.878,339.558L665.187,339.594L668.23,330.115L680.751,330.156Z" style="fill:rgb(246,241,225);fill-rule:nonzero;"/>
                </g>
                <g transform="matrix(1,0,0,1,0,-322.875)">
                    <path d="M0,339.586L14.904,339.558L11.778,330.156L0,330.12L0,339.586Z" style="fill:rgb(246,241,225);fill-rule:nonzero;"/>
                </g>
            </g>
        </g>
    </g>
</svg>
