<?xml version="1.0" encoding="UTF-8" standalone="no"?>
<!DOCTYPE svg PUBLIC "-//W3C//DTD SVG 1.1//EN" "http://www.w3.org/Graphics/SVG/1.1/DTD/svg11.dtd">
<svg width="100%" height="100%" viewBox="0 0 980 800" version="1.1" xmlns="http://www.w3.org/2000/svg" xmlns:xlink="http://www.w3.org/1999/xlink" xml:space="preserve" xmlns:serif="http://www.serif.com/" style="fill-rule:evenodd;clip-rule:evenodd;stroke-linejoin:round;stroke-miterlimit:2;">
    <g id="apartments-wide-right" transform="matrix(1.27,0,0,1.27,-0.44,7.52)">
        <g transform="matrix(1,0,0,1,-760.778,-296.875)">
            <path d="M806.971,585.075L805.861,908.882L1532.35,908.882L1532.73,608.822L1532.73,585.073L806.971,585.075Z" style="fill:rgb(245,243,233);fill-rule:nonzero;"/>
        </g>
        <g transform="matrix(1,0,0,1,-760.778,-296.875)">
            <path d="M804.778,908.875L1532.78,908.882L1532.78,584.875L804.778,584.875L804.778,908.875Z" style="fill:rgb(231,230,222);fill-rule:nonzero;"/>
        </g>
        <g transform="matrix(1,0,0,1,-761.901,-296.875)">
            <path d="M806.139,630.081L805.901,857.542L1095.23,857.542L1095.09,630.058L806.139,630.081Z" style="fill:rgb(193,190,187);fill-rule:nonzero;"/>
        </g>
        <g transform="matrix(1,0,0,1,-761.901,-296.875)">
            <path d="M896.603,634.308L896.166,850.969L1004.05,850.969L1003.97,634.027L896.603,634.308Z" style="fill:rgb(49,49,86);fill-rule:nonzero;"/>
        </g>
        <g transform="matrix(1,0,0,1,-761.901,-296.875)">
            <path d="M812.629,634.308L812.629,850.969L889.584,850.969L889.584,634.027L812.629,634.308Z" style="fill:rgb(49,49,86);fill-rule:nonzero;"/>
        </g>
        <g transform="matrix(1,0,0,1,-761.901,-296.875)">
            <path d="M1011.28,634.308L1011.28,850.969L1088.23,850.969L1088.23,634.027L1011.28,634.308Z" style="fill:rgb(49,49,86);fill-rule:nonzero;"/>
        </g>
        <g transform="matrix(1,0,0,1,-760.778,-298.875)">
            <path d="M806.778,344.875L802.404,335.422L1532.78,335.631L1532.78,344.875L806.778,344.875Z" style="fill:rgb(231,230,222);fill-rule:nonzero;"/>
        </g>
        <g transform="matrix(1,0,0,1,-760.778,-298.875)">
            <path d="M802.403,335.422L798.386,322.073L798.376,310.662L805.107,310.662L805.109,322.043L1532.78,320.233L1532.78,335.631L802.403,335.422Z" style="fill:white;fill-rule:nonzero;"/>
        </g>
        <g transform="matrix(1,0,0,1,-760.778,-296.875)">
            <rect x="806.778" y="342.875" width="726" height="242" style="fill:rgb(245,243,233);fill-rule:nonzero;"/>
        </g>
        <g transform="matrix(1,0,0,1,-760.778,-296.875)">
            <rect x="1001.56" y="344.875" width="71.438" height="240" style="fill:rgb(231,230,222);fill-rule:nonzero;"/>
        </g>
        <g transform="matrix(10.1627,0,0,0.00833333,-10132.5,43.126)">
            <rect x="1001.56" y="344.875" width="71.438" height="480" style="fill:rgb(231,230,222);fill-rule:nonzero;"/>
        </g>
        <g transform="matrix(1,0,0,1,-760.778,-296.875)">
            <path d="M910.287,397.409L910.333,535.021L979.246,534.875L979.339,397.341L910.287,397.409Z" style="fill:rgb(193,190,187);fill-rule:nonzero;"/>
        </g>
        <g transform="matrix(1,0,0,1,-760.778,-296.875)">
            <path d="M915.543,469.564L915.543,529.792L973.891,529.635L973.891,469.511L915.543,469.564Z" style="fill:rgb(49,49,86);fill-rule:nonzero;"/>
        </g>
        <g transform="matrix(1,0,0,1,-760.778,-296.875)">
            <path d="M915.511,464.196L973.891,464.25L973.923,403.324L915.543,402.69L915.511,464.196Z" style="fill:rgb(49,49,86);fill-rule:nonzero;"/>
        </g>
        <g transform="matrix(1,0,0,1,-760.778,-296.875)">
            <path d="M827.024,397.409L827.069,535.021L895.985,534.875L896.073,397.341L827.024,397.409Z" style="fill:rgb(193,190,187);fill-rule:nonzero;"/>
        </g>
        <g transform="matrix(1,0,0,1,-760.778,-296.875)">
            <path d="M832.282,469.564L832.282,529.792L890.625,529.635L890.625,469.511L832.282,469.564Z" style="fill:rgb(49,49,86);fill-rule:nonzero;"/>
        </g>
        <g transform="matrix(1,0,0,1,-760.778,-296.875)">
            <path d="M832.25,464.196L890.626,464.25L890.656,402.891L832.282,402.69L832.25,464.196Z" style="fill:rgb(49,49,86);fill-rule:nonzero;"/>
        </g>
        <g transform="matrix(1,0,0,1,-760.778,-296.875)">
            <path d="M1120.11,410.859L1120.15,515.462L1219.76,515.319L1219.85,410.792L1120.11,410.859Z" style="fill:rgb(193,190,187);fill-rule:nonzero;"/>
        </g>
        <g transform="matrix(1,0,0,1,-760.778,-296.875)">
            <path d="M1125.37,467.121L1125.37,510.236L1214.4,510.08L1214.4,467.067L1125.37,467.121Z" style="fill:rgb(49,49,86);fill-rule:nonzero;"/>
        </g>
        <g transform="matrix(1,0,0,1,-760.778,-296.875)">
            <path d="M1125.33,461.753L1214.4,461.808L1214.43,416.251L1125.37,416.137L1125.33,461.753Z" style="fill:rgb(49,49,86);fill-rule:nonzero;"/>
        </g>
        <g transform="matrix(1,0,0,1,-760.778,-296.875)">
            <rect x="915.303" y="464.403" width="59.153" height="5.133" style="fill:rgb(193,190,187);fill-rule:nonzero;"/>
        </g>
        <g transform="matrix(1,0,0,1,-760.778,-296.875)">
            <rect x="1266.15" y="344.875" width="71.438" height="240" style="fill:rgb(231,230,222);fill-rule:nonzero;"/>
        </g>
        <g transform="matrix(1,0,0,1,-760.778,-296.875)">
            <path d="M1442.73,397.409L1442.78,535.021L1511.69,534.875L1511.78,397.341L1442.73,397.409Z" style="fill:rgb(193,190,187);fill-rule:nonzero;"/>
        </g>
        <g transform="matrix(1,0,0,1,-760.778,-296.875)">
            <path d="M1447.99,469.564L1447.99,529.792L1506.33,529.635L1506.33,469.511L1447.99,469.564Z" style="fill:rgb(49,49,86);fill-rule:nonzero;"/>
        </g>
        <g transform="matrix(1,0,0,1,-760.778,-296.875)">
            <path d="M1447.96,464.196L1506.33,464.25L1506.37,403.324L1447.99,402.69L1447.96,464.196Z" style="fill:rgb(49,49,86);fill-rule:nonzero;"/>
        </g>
        <g transform="matrix(1,0,0,1,-760.778,-296.875)">
            <path d="M1359.47,397.409L1359.51,535.021L1428.43,534.875L1428.52,397.341L1359.47,397.409Z" style="fill:rgb(193,190,187);fill-rule:nonzero;"/>
        </g>
        <g transform="matrix(1,0,0,1,-760.778,-296.875)">
            <path d="M1364.73,469.564L1364.73,529.792L1423.07,529.635L1423.07,469.511L1364.73,469.564Z" style="fill:rgb(49,49,86);fill-rule:nonzero;"/>
        </g>
        <g transform="matrix(1,0,0,1,-760.778,-296.875)">
            <path d="M1364.69,464.196L1423.07,464.25L1423.1,402.812L1364.72,402.69L1364.69,464.196Z" style="fill:rgb(49,49,86);fill-rule:nonzero;"/>
        </g>
        <g transform="matrix(1,0,0,1,-760.778,-296.875)">
            <path d="M1101.35,594.524L1532.78,596.088L1532.78,584.875L1100.96,584.875L1101.35,594.524Z" style="fill:rgb(220,220,215);fill-rule:nonzero;"/>
        </g>
        <g transform="matrix(1,0,0,1,-760.778,-296.875)">
            <path d="M1337.59,908.888L1266.15,908.888L1275.51,595.572L1264.43,595.846L1275.51,584.875L1330.01,584.875L1318.68,596.117L1330.01,596.376L1337.59,908.888Z" style="fill:rgb(231,230,222);fill-rule:nonzero;"/>
        </g>
        <g transform="matrix(1,0,0,1,-760.778,-296.875)">
            <path d="M1311.16,773.988L1360.15,774.045L1360.19,716.263L1311.1,716.233L1311.16,773.988Z" style="fill:rgb(92,94,95);fill-rule:nonzero;"/>
        </g>
        <g transform="matrix(1,0,0,1,-760.778,-296.875)">
            <path d="M1316.55,768.569L1354.7,768.69L1354.7,722.224L1316.55,722.183L1316.55,768.569Z" style="fill:rgb(49,49,86);fill-rule:nonzero;"/>
        </g>
        <g transform="matrix(1,0,0,1,-760.778,-296.875)">
            <path d="M1004.73,563.728L803.759,563.728L803.759,568.728L1004.75,568.728L1004.73,563.728Z" style="fill:rgb(193,190,187);fill-rule:nonzero;"/>
        </g>
        <g transform="matrix(1,0,0,1,-760.778,-296.875)">
            <path d="M1004.76,568.747L803.758,568.747L798.754,584.875L1010.77,584.875L1004.76,568.747Z" style="fill:white;fill-rule:nonzero;"/>
        </g>
        <g transform="matrix(1,0,0,1,-760.778,-294.852)">
            <path d="M1004.73,365.996L803.759,365.996L803.759,360.996L1004.75,360.996L1004.73,365.996Z" style="fill:rgb(193,190,187);fill-rule:nonzero;"/>
        </g>
        <g transform="matrix(1,0,0,1,-760.778,-294.852)">
            <path d="M1004.76,360.977L803.758,360.977L798.754,344.852L1010.77,344.852L1004.76,360.977Z" style="fill:white;fill-rule:nonzero;"/>
        </g>
        <g transform="matrix(1,0,0,1,-760.778,-296.875)">
            <path d="M1269.73,563.728L1068.76,563.728L1068.76,568.728L1269.75,568.728L1269.73,563.728Z" style="fill:rgb(193,190,187);fill-rule:nonzero;"/>
        </g>
        <g transform="matrix(1,0,0,1,-760.778,-296.875)">
            <path d="M1269.76,568.747L1068.76,568.747L1063.75,584.875L1275.77,584.875L1269.76,568.747Z" style="fill:white;fill-rule:nonzero;"/>
        </g>
        <g transform="matrix(1,0,0,1,-760.778,-295.477)">
            <path d="M1269.73,366.621L1068.76,366.621L1068.76,361.621L1269.75,361.621L1269.73,366.621Z" style="fill:rgb(193,190,187);fill-rule:nonzero;"/>
        </g>
        <g transform="matrix(1,0,0,1,-760.778,-295.477)">
            <path d="M1269.76,361.602L1068.76,361.602L1063.75,345.477L1275.77,345.477L1269.76,361.602Z" style="fill:white;fill-rule:nonzero;"/>
        </g>
        <g transform="matrix(1,0,0,1,-760.778,-296.875)">
            <rect x="1334.76" y="563.728" width="198.018" height="5" style="fill:rgb(193,190,187);fill-rule:nonzero;"/>
        </g>
        <g transform="matrix(1,0,0,1,-760.778,-296.875)">
            <path d="M1532.73,568.747L1334.76,568.747L1329.75,584.875L1532.78,584.875L1532.73,568.747Z" style="fill:white;fill-rule:nonzero;"/>
        </g>
        <g transform="matrix(1,0,0,1,-760.778,-295.477)">
            <path d="M1532.73,366.621L1334.76,366.621L1334.76,361.621L1532.75,361.621L1532.73,366.621Z" style="fill:rgb(193,190,187);fill-rule:nonzero;"/>
        </g>
        <g transform="matrix(1,0,0,1,-760.778,-295.477)">
            <path d="M1532.73,361.602L1334.76,361.602L1329.75,345.477L1532.73,345.477L1532.73,361.602Z" style="fill:white;fill-rule:nonzero;"/>
        </g>
        <g transform="matrix(1,0,0,1,-760.778,-296.875)">
            <g opacity="0.3">
                <path d="M876.106,402.844L832.278,446.603L832.293,402.688L876.106,402.844Z" style="fill:rgb(10,23,35);fill-rule:nonzero;"/>
            </g>
        </g>
        <g transform="matrix(1,0,0,1,-760.778,-296.875)">
            <g opacity="0.3">
                <path d="M1354.71,722.156L1316.6,760.14L1316.58,722.157L1354.71,722.156Z" style="fill:rgb(10,23,35);fill-rule:nonzero;"/>
            </g>
        </g>
        <g transform="matrix(1,0,0,1,-760.778,-296.875)">
            <path d="M1242.5,773.988L1291.49,774.045L1291.52,716.263L1242.43,716.233L1242.5,773.988Z" style="fill:rgb(92,94,95);fill-rule:nonzero;"/>
        </g>
        <g transform="matrix(1,0,0,1,-760.778,-296.875)">
            <path d="M1247.88,768.569L1286.03,768.69L1286.03,722.224L1247.88,722.183L1247.88,768.569Z" style="fill:rgb(49,49,86);fill-rule:nonzero;"/>
        </g>
        <g transform="matrix(1,0,0,1,-760.778,-296.875)">
            <g opacity="0.3">
                <path d="M1286.04,722.156L1247.93,760.14L1247.92,722.157L1286.04,722.156Z" style="fill:rgb(10,23,35);fill-rule:nonzero;"/>
            </g>
        </g>
        <g transform="matrix(1,0,0,1,-760.778,-296.875)">
            <g opacity="0.3">
                <path d="M1201.04,416.207L1125.42,491.607L1125.39,416.141L1201.04,416.207Z" style="fill:rgb(10,23,35);fill-rule:nonzero;"/>
            </g>
        </g>
        <g transform="matrix(1,0,0,1,-761.901,-296.875)">
            <g opacity="0.3">
                <path d="M1088.29,850.109L1088.28,690.505L921.938,850.959L1088.29,850.109Z" style="fill:rgb(10,23,35);fill-rule:nonzero;"/>
            </g>
        </g>
        <g transform="matrix(1,0,0,1,-761.901,-296.875)">
            <path d="M928.197,850.947L1088.3,690.512L1088.25,684.541L921.966,850.975L928.197,850.947Z" style="fill:rgb(73,74,114);fill-rule:nonzero;"/>
        </g>
        <g transform="matrix(1,0,0,1,-760.778,-296.875)">
            <g opacity="0.3">
                <path d="M973.902,529.649L973.916,427.779L915.581,483.473L915.588,529.665L973.902,529.649Z" style="fill:rgb(10,23,35);fill-rule:nonzero;"/>
            </g>
        </g>
        <g transform="matrix(1,0,0,1,-760.778,-296.875)">
            <path d="M915.565,486.75L973.849,428.257L973.894,428.242L973.899,422.216L915.568,480.627L915.565,486.75Z" style="fill:rgb(73,74,114);fill-rule:nonzero;"/>
        </g>
        <g transform="matrix(1,0,0,1,-760.778,-296.875)">
            <g opacity="0.3">
                <path d="M890.448,507.16L873.67,523.182L872.422,529.733L890.596,529.728L890.448,507.16Z" style="fill:rgb(10,23,35);fill-rule:nonzero;"/>
            </g>
        </g>
        <g transform="matrix(1,0,0,1,-760.778,-296.875)">
            <path d="M872.422,529.712L890.554,511.516L890.53,505.366L866.203,529.728L872.422,529.712Z" style="fill:rgb(73,74,114);fill-rule:nonzero;"/>
        </g>
        <g transform="matrix(1,0,0,1,-760.778,-296.875)">
            <g opacity="0.3">
                <path d="M1408.7,402.832L1364.79,446.603L1364.82,402.656L1408.7,402.832Z" style="fill:rgb(10,23,35);fill-rule:nonzero;"/>
            </g>
        </g>
        <g transform="matrix(1,0,0,1,-760.778,-296.875)">
            <g opacity="0.3">
                <path d="M1506.32,529.641L1506.34,427.939L1447.96,483.676L1447.97,529.75L1506.32,529.641Z" style="fill:rgb(10,23,35);fill-rule:nonzero;"/>
            </g>
        </g>
        <g transform="matrix(1,0,0,1,-760.778,-296.875)">
            <path d="M1447.99,486.908L1506.43,428.257L1506.35,428.371L1506.36,422.344L1448,480.785L1447.99,486.908Z" style="fill:rgb(73,74,114);fill-rule:nonzero;"/>
        </g>
        <g transform="matrix(1,0,0,1,-760.778,-296.875)">
            <g opacity="0.3">
                <path d="M1423.03,507.16L1406.26,523.182L1405,529.64L1423.06,529.64L1423.03,507.16Z" style="fill:rgb(10,23,35);fill-rule:nonzero;"/>
            </g>
        </g>
        <g transform="matrix(1,0,0,1,-760.778,-296.875)">
            <path d="M1405.05,529.674L1423.14,511.516L1423.12,505.366L1398.84,529.674L1405.05,529.674Z" style="fill:rgb(73,74,114);fill-rule:nonzero;"/>
        </g>
        <g transform="matrix(1,0,0,1,-760.778,-296.875)">
            <rect x="914.969" y="464.152" width="59.152" height="5.467" style="fill:rgb(193,190,187);fill-rule:nonzero;"/>
        </g>
        <g transform="matrix(1,0,0,1,-760.778,-296.875)">
            <rect x="1448.1" y="464.216" width="59.15" height="5.32" style="fill:rgb(193,190,187);fill-rule:nonzero;"/>
        </g>
        <g transform="matrix(1,0,0,1,-760.778,-296.875)">
            <rect x="1364.16" y="464.216" width="59.15" height="5.32" style="fill:rgb(193,190,187);fill-rule:nonzero;"/>
        </g>
        <g transform="matrix(1,0,0,1,-760.778,-296.875)">
            <rect x="1124.98" y="461.841" width="91.026" height="5.32" style="fill:rgb(193,190,187);fill-rule:nonzero;"/>
        </g>
        <g transform="matrix(1.00149,3.64403e-19,3.64403e-19,1,-763.058,-296.875)">
            <rect x="805.859" y="908.875" width="726.919" height="12" style="fill:rgb(53,45,39);fill-rule:nonzero;"/>
        </g>
        <g transform="matrix(1,0,0,1,-761.901,-296.875)">
            <g opacity="0.3">
                <path d="M919.076,634.35L812.644,740.432L812.713,634.354L919.076,634.35Z" style="fill:rgb(10,23,35);fill-rule:nonzero;"/>
            </g>
        </g>
        <g transform="matrix(1,0,0,1,-761.901,-296.875)">
            <path d="M1011.25,850.413L1004,850.413L1004,634.358L1011.25,634.356L1011.25,850.413Z" style="fill:rgb(193,190,187);fill-rule:nonzero;"/>
        </g>
        <g transform="matrix(1,0,0,1,-761.901,-296.875)">
            <rect x="889.59" y="634.313" width="7" height="218.403" style="fill:rgb(193,190,187);fill-rule:nonzero;"/>
        </g>
        <g transform="matrix(1,0,0,1,-760.778,-296.875)">
            <path d="M776.492,673.969L1102.51,673.725L1100.98,584.875L793.718,584.875L776.492,673.969Z" style="fill:rgb(103,154,69);fill-rule:nonzero;"/>
        </g>
        <g transform="matrix(1,0,0,1,-760.778,-296.875)">
            <path d="M1010.76,584.875L1000.92,594.814L791.79,594.814L792.515,591.147L798.697,584.875L1010.76,584.875Z" style="fill:rgb(53,129,63);fill-rule:nonzero;"/>
        </g>
        <g transform="matrix(1,0,0,1,-760.778,-296.875)">
            <path d="M1100.94,584.875L1101.33,594.55L1054.28,594.264L1063.69,584.898L1100.94,584.875Z" style="fill:rgb(53,129,63);fill-rule:nonzero;"/>
        </g>
    </g>
</svg>
