<?xml version="1.0" encoding="UTF-8" standalone="no"?>
<!DOCTYPE svg PUBLIC "-//W3C//DTD SVG 1.1//EN" "http://www.w3.org/Graphics/SVG/1.1/DTD/svg11.dtd">
<svg width="100%" height="100%" viewBox="0 0 980 930" version="1.1" xmlns="http://www.w3.org/2000/svg" xmlns:xlink="http://www.w3.org/1999/xlink" xml:space="preserve" xmlns:serif="http://www.serif.com/" style="fill-rule:evenodd;clip-rule:evenodd;stroke-linejoin:round;stroke-miterlimit:2;">
    <g id="arcade-right" transform="matrix(-1.27,0,0,1.27,980.237,0.36)">
        <g id="ground" transform="matrix(0.509432,0,0,0.557743,-113.931,-338.866)">
            <rect x="224.009" y="1896" width="1456" height="24" style="fill:rgb(53,45,39);"/>
        </g>
        <g id="upstairs-wall" serif:id="upstairs wall" transform="matrix(1.00057,0,0,1.03169,0.186267,-5.1671)">
            <rect x="0" y="126.681" width="741.312" height="247.192" style="fill:rgb(225,207,168);"/>
        </g>
        <g id="ground-floor-wall" serif:id="ground floor wall" transform="matrix(1,0,0,1,0,-1.15254)">
            <rect x="0" y="384.373" width="494.72" height="336.181" style="fill:rgb(207,174,128);"/>
        </g>
        <g id="door" transform="matrix(1,0,0,1,0,-1.15254)">
            <rect x="53.734" y="583.957" width="60.314" height="136.597" style="fill:rgb(151,138,116);"/>
            <g transform="matrix(-1,0,0,1,167.813,0)">
                <path d="M114.079,588.892L114.048,583.957L53.734,583.957L53.734,720.554L59.32,720.554L59.32,588.892L114.079,588.892Z" style="fill:rgb(42,42,41);fill-opacity:0.12;"/>
            </g>
        </g>
        <g id="shadow" transform="matrix(1,0,0,1,0,-1.15254)">
            <path d="M507.207,402.652L507.207,720L429.523,720.554L429.523,592.321C429.523,530.404 388.901,508.535 359.812,500.814C343.588,496.507 330.951,496.603 330.951,496.603C330.951,496.603 233.862,496.439 233.862,592.321L233.862,719.993L193.67,719.993L193.67,592.448C193.67,495.998 95.096,496.73 95.096,496.73C95.096,496.73 50.75,496.664 22,526.218L22,405.942L507.207,402.652Z" style="fill:rgb(42,42,41);fill-opacity:0.08;"/>
        </g>
        <g id="window" transform="matrix(1,0,0,1,2002.83,540.437)">
            <g transform="matrix(26.3911,0,0,1.04201,-13769.5,-571.837)">
                <rect x="451.638" y="552.919" width="11.335" height="167.081" style="fill:rgb(246,241,226);"/>
            </g>
            <g transform="matrix(-25.2406,0,0,0.922309,9841.88,-492.142)">
                <path d="M462.973,545.211L451.638,545.319L451.657,719.339L462.964,719.664L462.973,545.211Z" style="fill:rgb(49,49,86);"/>
                <clipPath id="_clip1">
                    <path d="M462.973,545.211L451.638,545.319L451.657,719.339L462.964,719.664L462.973,545.211Z"/>
                </clipPath>
                <g clip-path="url(#_clip1)">
                    <g transform="matrix(0.0396188,0,0,1.08424,432.536,-271.3)">
                        <path d="M669.433,913.975L768.249,820.47L768.249,751.075L678.883,751.639L516.398,913.975L669.433,913.975Z" style="fill:rgb(10,23,35);fill-opacity:0.3;fill-rule:nonzero;"/>
                    </g>
                    <g transform="matrix(0.0396188,0,0,1.08424,432.536,-271.3)">
                        <path d="M517.503,913.975L679.891,751.075L673.868,751.075L511.176,913.975L517.503,913.975Z" style="fill:rgb(73,74,114);fill-rule:nonzero;"/>
                    </g>
                    <g transform="matrix(0.0396188,0,0,1.08424,432.922,-149.729)">
                        <path d="M568.789,633.949L462.357,740.031L462.426,633.953L568.789,633.949Z" style="fill:rgb(10,23,35);fill-opacity:0.3;fill-rule:nonzero;"/>
                    </g>
                </g>
            </g>
            <g transform="matrix(1.00379,0,0,1,-2003.18,-541.589)">
                <rect x="158.172" y="583.609" width="286.914" height="6" style="fill:rgb(246,241,226);"/>
            </g>
            <g transform="matrix(1,0,0,1.07396,-2002.83,-591.954)">
                <rect x="384" y="559.3" width="6.867" height="152.315" style="fill:rgb(246,241,226);"/>
            </g>
        </g>
        <g id="arches" transform="matrix(1,0,0,1,0,-1.15254)">
            <path d="M-0.001,384.372L-0.001,720.554L37.618,720.554L37.618,530.177C37.618,468.26 78.378,446.391 107.565,438.669C123.845,434.363 136.524,434.458 136.524,434.458C136.524,434.458 233.942,434.294 233.942,530.177L233.942,720.554L274.271,720.554L274.271,530.304C274.271,433.853 373.179,434.585 373.179,434.585C373.179,434.585 470.597,434.421 470.597,530.304L470.597,720.554L507.78,720.554L507.78,528.226C507.78,431.775 606.687,432.507 606.687,432.507C606.687,432.507 704.106,432.343 704.106,528.226L704.106,720.554L741.919,720.554L741.919,384.372L-0.001,384.372Z" style="fill:rgb(225,207,168);"/>
            <g>
                <g transform="matrix(2.26609,0,0,2.26609,208.993,487.747)">
                    <path d="M10.3,19.652L29.822,19.64L31.451,16.316L8.3,16.347L10.3,19.651L10.3,19.652Z" style="fill:rgb(246,243,234);fill-rule:nonzero;"/>
                </g>
                <g transform="matrix(1.08759,0,0,1,-22.2489,0)">
                    <rect x="234.255" y="532.28" width="39.537" height="7.221" style="fill:rgb(169,139,126);"/>
                </g>
            </g>
            <g transform="matrix(0.942818,0,0,1,249.526,0)">
                <g transform="matrix(2.26609,0,0,2.26609,208.993,487.747)">
                    <path d="M10.3,19.652L29.822,19.64L31.451,16.316L8.3,16.347L10.3,19.651L10.3,19.652Z" style="fill:rgb(246,243,234);fill-rule:nonzero;"/>
                </g>
                <g transform="matrix(1.08759,0,0,1,-22.2489,0)">
                    <rect x="234.255" y="532.28" width="39.537" height="7.221" style="fill:rgb(169,139,126);"/>
                </g>
            </g>
            <g transform="matrix(0.942818,0,0,1,482.776,0)">
                <g transform="matrix(2.26609,0,0,2.26609,208.993,487.747)">
                    <path d="M10.3,19.652L30.191,19.64L31.82,16.316L8.3,16.347L10.3,19.651L10.3,19.652Z" style="fill:rgb(246,243,234);fill-rule:nonzero;"/>
                </g>
                <g transform="matrix(1.11988,0,0,1,-29.813,5.55112e-16)">
                    <rect x="234.255" y="532.28" width="39.537" height="7.221" style="fill:rgb(169,139,126);"/>
                </g>
            </g>
            <g transform="matrix(1,0,0,1,-236.667,0)">
                <g transform="matrix(2.26609,0,0,2.26609,208.993,487.747)">
                    <path d="M12.211,19.651L29.822,19.64L31.451,16.316L12.211,16.347L12.211,19.651Z" style="fill:rgb(246,243,234);fill-rule:nonzero;"/>
                </g>
                <g transform="matrix(0.982796,0,0,1,6.44178,0)">
                    <rect x="234.255" y="532.28" width="39.537" height="7.221" style="fill:rgb(169,139,126);"/>
                </g>
            </g>
        </g>
        <g id="floor-divider" serif:id="floor divider" transform="matrix(1.12862,0,0,0.634824,-252.81,-389.961)">
            <g transform="matrix(0.888406,0,0,1.57524,223.999,618.521)">
                <rect x="-0.001" y="384.372" width="741.313" height="7.768" style="fill:rgb(169,139,126);"/>
            </g>
            <path d="M224,1203L889.926,1203L882.745,1224L224,1224L224,1203Z" style="fill:rgb(246,243,234);fill-rule:nonzero;"/>
        </g>
        <g id="window1" serif:id="window" transform="matrix(1,0,0,1,501.524,133.157)">
            <g transform="matrix(-0.5,0,0,0.5,436.368,-319.701)">
                <path d="M516.286,1027.88L502.01,1042L791.42,1042L806.347,1027.88L516.286,1027.88Z" style="fill:rgb(10,23,35);fill-opacity:0.12;fill-rule:nonzero;"/>
            </g>
            <g transform="matrix(1.04384,0,0,1.05463,-3.01219,-372.057)">
                <path d="M140.388,539.055L68.755,539.196L68.711,401.545L140.479,401.481L140.388,539.055Z" style="fill:rgb(217,212,203);fill-rule:nonzero;"/>
            </g>
            <g transform="matrix(-1,0,0,1,576.599,-127.31)">
                <path d="M502.663,318.946L473.403,319.175L473.203,254.321L502.663,254.2L502.663,318.946ZM469.203,319.008L438.637,319.153L438.637,254.2L469.303,254.121L469.203,319.008ZM502.431,250.237L473.103,250.239L473.203,184.032L502.459,184.658L502.431,250.237ZM469.303,250.299L438.603,250.216L438.637,184.011L469.303,184.221L469.303,250.299Z" style="fill:rgb(49,49,86);fill-rule:nonzero;"/>
                <clipPath id="_clip2">
                    <path d="M502.663,318.946L473.403,319.175L473.203,254.321L502.663,254.2L502.663,318.946ZM469.203,319.008L438.637,319.153L438.637,254.2L469.303,254.121L469.203,319.008ZM502.431,250.237L473.103,250.239L473.203,184.032L502.459,184.658L502.431,250.237ZM469.303,250.299L438.603,250.216L438.637,184.011L469.303,184.221L469.303,250.299Z" clip-rule="nonzero"/>
                </clipPath>
                <g clip-path="url(#_clip2)">
                    <g transform="matrix(1,0,0,1,358.639,-198.596)">
                        <path d="M195.579,522.475L195.613,412.479L79.998,522.881L195.579,522.475Z" style="fill:rgb(10,23,35);fill-opacity:0.3;fill-rule:nonzero;"/>
                    </g>
                    <g transform="matrix(1,0,0,1,354.194,-193.565)">
                        <path d="M85.288,523.512L195.608,412.895L195.623,412.912L195.639,407.459L195.06,407.448L79.184,523.491L85.288,523.512Z" style="fill:rgb(73,74,114);fill-rule:nonzero;"/>
                    </g>
                    <g transform="matrix(1.37892,0,0,1.37892,336.664,-376.97)">
                        <path d="M73.951,442.975L73.951,406.827L109.701,407.209" style="fill:rgb(10,23,35);fill-opacity:0.3;fill-rule:nonzero;"/>
                    </g>
                </g>
            </g>
            <g transform="matrix(-1,0,0,1,212.725,-326.128)">
                <path d="M147.812,535.555L146.94,539.352L137.478,548.803L49.061,548.803L71.435,526.428L147.812,535.555Z" style="fill:rgb(42,42,41);fill-opacity:0.12;fill-rule:nonzero;"/>
            </g>
            <g transform="matrix(1,0,0,1,-1,-326.128)">
                <path d="M146.747,539.221L66.426,539.221L60.121,522.219L153.236,522.219L146.747,539.221Z" style="fill:rgb(246,243,234);fill-rule:nonzero;"/>
            </g>
            <g transform="matrix(1,0,0,1,0,-350.125)">
                <path d="M153.236,392.553L149.488,401.545L63.373,401.545L59.625,392.553L153.236,392.553Z" style="fill:rgb(246,243,234);fill-rule:nonzero;"/>
            </g>
            <g>
                <g transform="matrix(0.5,0,0,0.917459,-225.47,-749.826)">
                    <rect x="738" y="876" width="70" height="153" style="fill:rgb(86,65,57);"/>
                </g>
                <g transform="matrix(1,0,0,1,1.92575,8.66666)">
                    <g transform="matrix(0.5,0,0,0.5,-117.171,-387.603)">
                        <path d="M580.568,892.532L576.716,884.661L529.716,884.55L524.533,893.094L580.568,892.532Z" style="fill:rgb(116,91,78);fill-rule:nonzero;"/>
                    </g>
                    <g transform="matrix(0.5,0,0,0.5,-117.171,-335.603)">
                        <path d="M580.568,1021.93L576.716,1014.06L529.716,1013.95L524.533,1022.49L580.568,1021.93Z" style="fill:rgb(116,91,78);fill-rule:nonzero;"/>
                    </g>
                    <g transform="matrix(0.5,0,0,0.5,-117.171,-339.334)">
                        <path d="M580.568,996.05L576.716,988.179L529.716,988.068L524.533,996.612L580.568,996.05Z" style="fill:rgb(116,91,78);fill-rule:nonzero;"/>
                    </g>
                    <g transform="matrix(0.5,0,0,0.5,-117.171,-359.737)">
                        <path d="M580.568,970.17L576.716,962.299L529.716,962.188L524.533,970.732L580.568,970.17Z" style="fill:rgb(116,91,78);fill-rule:nonzero;"/>
                    </g>
                    <g transform="matrix(0.5,0,0,0.5,-117.171,-363.469)">
                        <path d="M580.568,944.291L576.716,936.42L529.716,936.309L524.533,944.853L580.568,944.291Z" style="fill:rgb(116,91,78);fill-rule:nonzero;"/>
                    </g>
                    <g transform="matrix(0.5,0,0,0.5,-117.171,-383.871)">
                        <path d="M580.568,918.412L576.716,910.541L529.716,910.43L524.533,918.974L580.568,918.412Z" style="fill:rgb(116,91,78);fill-rule:nonzero;"/>
                    </g>
                    <g transform="matrix(0.5,0,0,0.5,-117.171,-367.2)">
                        <path d="M580.568,918.412L576.716,910.541L529.716,910.43L524.533,918.974L580.568,918.412Z" style="fill:rgb(116,91,78);fill-rule:nonzero;"/>
                    </g>
                    <g transform="matrix(0.5,0,0,0.5,-117.171,-317.187)">
                        <path d="M580.568,918.412L576.716,910.541L529.716,910.43L524.533,918.974L580.568,918.412Z" style="fill:rgb(116,91,78);fill-rule:nonzero;"/>
                    </g>
                </g>
            </g>
            <g transform="matrix(1,0,0,1,1.57414,8.66666)">
                <g transform="matrix(0.5,0,0,0.917459,-227.044,-758.492)">
                    <rect x="518" y="876" width="70" height="153" style="fill:rgb(86,65,57);"/>
                </g>
                <g transform="matrix(1,0,0,1,0.351617,0)">
                    <g transform="matrix(0.5,0,0,0.5,-227.171,-387.603)">
                        <path d="M580.568,892.532L576.716,884.661L529.716,884.55L524.533,893.094L580.568,892.532Z" style="fill:rgb(116,91,78);fill-rule:nonzero;"/>
                    </g>
                    <g transform="matrix(0.5,0,0,0.5,-227.171,-335.603)">
                        <path d="M580.568,1021.93L576.716,1014.06L529.716,1013.95L524.533,1022.49L580.568,1021.93Z" style="fill:rgb(116,91,78);fill-rule:nonzero;"/>
                    </g>
                    <g transform="matrix(0.5,0,0,0.5,-227.171,-339.334)">
                        <path d="M580.568,996.05L576.716,988.179L529.716,988.068L524.533,996.612L580.568,996.05Z" style="fill:rgb(116,91,78);fill-rule:nonzero;"/>
                    </g>
                    <g transform="matrix(0.5,0,0,0.5,-227.171,-359.737)">
                        <path d="M580.568,970.17L576.716,962.299L529.716,962.188L524.533,970.732L580.568,970.17Z" style="fill:rgb(116,91,78);fill-rule:nonzero;"/>
                    </g>
                    <g transform="matrix(0.5,0,0,0.5,-227.171,-363.469)">
                        <path d="M580.568,944.291L576.716,936.42L529.716,936.309L524.533,944.853L580.568,944.291Z" style="fill:rgb(116,91,78);fill-rule:nonzero;"/>
                    </g>
                    <g transform="matrix(0.5,0,0,0.5,-227.171,-383.871)">
                        <path d="M580.568,918.412L576.716,910.541L529.716,910.43L524.533,918.974L580.568,918.412Z" style="fill:rgb(116,91,78);fill-rule:nonzero;"/>
                    </g>
                    <g transform="matrix(0.5,0,0,0.5,-227.171,-367.2)">
                        <path d="M580.568,918.412L576.716,910.541L529.716,910.43L524.533,918.974L580.568,918.412Z" style="fill:rgb(116,91,78);fill-rule:nonzero;"/>
                    </g>
                    <g transform="matrix(0.5,0,0,0.5,-227.171,-317.187)">
                        <path d="M580.568,918.412L576.716,910.541L529.716,910.43L524.533,918.974L580.568,918.412Z" style="fill:rgb(116,91,78);fill-rule:nonzero;"/>
                    </g>
                </g>
            </g>
        </g>
        <g id="window2" serif:id="window" transform="matrix(1,0,0,1,264.228,133.157)">
            <g transform="matrix(-0.5,0,0,0.5,436.368,-319.701)">
                <path d="M516.286,1027.88L502.01,1042L791.42,1042L806.347,1027.88L516.286,1027.88Z" style="fill:rgb(10,23,35);fill-opacity:0.12;fill-rule:nonzero;"/>
            </g>
            <g transform="matrix(1.04384,0,0,1.05463,-3.01219,-372.057)">
                <path d="M140.388,539.055L68.755,539.196L68.711,401.545L140.479,401.481L140.388,539.055Z" style="fill:rgb(217,212,203);fill-rule:nonzero;"/>
            </g>
            <g transform="matrix(-1,0,0,1,576.599,-127.31)">
                <path d="M502.663,318.946L473.403,319.175L473.203,254.321L502.663,254.2L502.663,318.946ZM469.203,319.008L438.637,319.153L438.637,254.2L469.303,254.121L469.203,319.008ZM502.431,250.237L473.103,250.239L473.203,184.032L502.459,184.658L502.431,250.237ZM469.303,250.299L438.603,250.216L438.637,184.011L469.303,184.221L469.303,250.299Z" style="fill:rgb(49,49,86);fill-rule:nonzero;"/>
                <clipPath id="_clip3">
                    <path d="M502.663,318.946L473.403,319.175L473.203,254.321L502.663,254.2L502.663,318.946ZM469.203,319.008L438.637,319.153L438.637,254.2L469.303,254.121L469.203,319.008ZM502.431,250.237L473.103,250.239L473.203,184.032L502.459,184.658L502.431,250.237ZM469.303,250.299L438.603,250.216L438.637,184.011L469.303,184.221L469.303,250.299Z" clip-rule="nonzero"/>
                </clipPath>
                <g clip-path="url(#_clip3)">
                    <g transform="matrix(1,0,0,1,358.639,-198.596)">
                        <path d="M195.579,522.475L195.613,412.479L79.998,522.881L195.579,522.475Z" style="fill:rgb(10,23,35);fill-opacity:0.3;fill-rule:nonzero;"/>
                    </g>
                    <g transform="matrix(1,0,0,1,354.194,-193.565)">
                        <path d="M85.288,523.512L195.608,412.895L195.623,412.912L195.639,407.459L195.06,407.448L79.184,523.491L85.288,523.512Z" style="fill:rgb(73,74,114);fill-rule:nonzero;"/>
                    </g>
                    <g transform="matrix(1.37892,0,0,1.37892,336.664,-376.97)">
                        <path d="M73.951,442.975L73.951,406.827L109.701,407.209" style="fill:rgb(10,23,35);fill-opacity:0.3;fill-rule:nonzero;"/>
                    </g>
                </g>
            </g>
            <g transform="matrix(-1,0,0,1,212.725,-326.128)">
                <path d="M147.812,535.555L146.94,539.352L137.478,548.803L49.061,548.803L71.435,526.428L147.812,535.555Z" style="fill:rgb(42,42,41);fill-opacity:0.12;fill-rule:nonzero;"/>
            </g>
            <g transform="matrix(1,0,0,1,-1,-326.128)">
                <path d="M146.747,539.221L66.426,539.221L60.121,522.219L153.236,522.219L146.747,539.221Z" style="fill:rgb(246,243,234);fill-rule:nonzero;"/>
            </g>
            <g transform="matrix(1,0,0,1,0,-350.125)">
                <path d="M153.236,392.553L149.488,401.545L63.373,401.545L59.625,392.553L153.236,392.553Z" style="fill:rgb(246,243,234);fill-rule:nonzero;"/>
            </g>
            <g>
                <g transform="matrix(0.5,0,0,0.917459,-225.47,-749.826)">
                    <rect x="738" y="876" width="70" height="153" style="fill:rgb(86,65,57);"/>
                </g>
                <g transform="matrix(1,0,0,1,1.92575,8.66666)">
                    <g transform="matrix(0.5,0,0,0.5,-117.171,-387.603)">
                        <path d="M580.568,892.532L576.716,884.661L529.716,884.55L524.533,893.094L580.568,892.532Z" style="fill:rgb(116,91,78);fill-rule:nonzero;"/>
                    </g>
                    <g transform="matrix(0.5,0,0,0.5,-117.171,-335.603)">
                        <path d="M580.568,1021.93L576.716,1014.06L529.716,1013.95L524.533,1022.49L580.568,1021.93Z" style="fill:rgb(116,91,78);fill-rule:nonzero;"/>
                    </g>
                    <g transform="matrix(0.5,0,0,0.5,-117.171,-339.334)">
                        <path d="M580.568,996.05L576.716,988.179L529.716,988.068L524.533,996.612L580.568,996.05Z" style="fill:rgb(116,91,78);fill-rule:nonzero;"/>
                    </g>
                    <g transform="matrix(0.5,0,0,0.5,-117.171,-359.737)">
                        <path d="M580.568,970.17L576.716,962.299L529.716,962.188L524.533,970.732L580.568,970.17Z" style="fill:rgb(116,91,78);fill-rule:nonzero;"/>
                    </g>
                    <g transform="matrix(0.5,0,0,0.5,-117.171,-363.469)">
                        <path d="M580.568,944.291L576.716,936.42L529.716,936.309L524.533,944.853L580.568,944.291Z" style="fill:rgb(116,91,78);fill-rule:nonzero;"/>
                    </g>
                    <g transform="matrix(0.5,0,0,0.5,-117.171,-383.871)">
                        <path d="M580.568,918.412L576.716,910.541L529.716,910.43L524.533,918.974L580.568,918.412Z" style="fill:rgb(116,91,78);fill-rule:nonzero;"/>
                    </g>
                    <g transform="matrix(0.5,0,0,0.5,-117.171,-367.2)">
                        <path d="M580.568,918.412L576.716,910.541L529.716,910.43L524.533,918.974L580.568,918.412Z" style="fill:rgb(116,91,78);fill-rule:nonzero;"/>
                    </g>
                    <g transform="matrix(0.5,0,0,0.5,-117.171,-317.187)">
                        <path d="M580.568,918.412L576.716,910.541L529.716,910.43L524.533,918.974L580.568,918.412Z" style="fill:rgb(116,91,78);fill-rule:nonzero;"/>
                    </g>
                </g>
            </g>
            <g transform="matrix(1,0,0,1,1.57414,8.66666)">
                <g transform="matrix(0.5,0,0,0.917459,-227.044,-758.492)">
                    <rect x="518" y="876" width="70" height="153" style="fill:rgb(86,65,57);"/>
                </g>
                <g transform="matrix(1,0,0,1,0.351617,0)">
                    <g transform="matrix(0.5,0,0,0.5,-227.171,-387.603)">
                        <path d="M580.568,892.532L576.716,884.661L529.716,884.55L524.533,893.094L580.568,892.532Z" style="fill:rgb(116,91,78);fill-rule:nonzero;"/>
                    </g>
                    <g transform="matrix(0.5,0,0,0.5,-227.171,-335.603)">
                        <path d="M580.568,1021.93L576.716,1014.06L529.716,1013.95L524.533,1022.49L580.568,1021.93Z" style="fill:rgb(116,91,78);fill-rule:nonzero;"/>
                    </g>
                    <g transform="matrix(0.5,0,0,0.5,-227.171,-339.334)">
                        <path d="M580.568,996.05L576.716,988.179L529.716,988.068L524.533,996.612L580.568,996.05Z" style="fill:rgb(116,91,78);fill-rule:nonzero;"/>
                    </g>
                    <g transform="matrix(0.5,0,0,0.5,-227.171,-359.737)">
                        <path d="M580.568,970.17L576.716,962.299L529.716,962.188L524.533,970.732L580.568,970.17Z" style="fill:rgb(116,91,78);fill-rule:nonzero;"/>
                    </g>
                    <g transform="matrix(0.5,0,0,0.5,-227.171,-363.469)">
                        <path d="M580.568,944.291L576.716,936.42L529.716,936.309L524.533,944.853L580.568,944.291Z" style="fill:rgb(116,91,78);fill-rule:nonzero;"/>
                    </g>
                    <g transform="matrix(0.5,0,0,0.5,-227.171,-383.871)">
                        <path d="M580.568,918.412L576.716,910.541L529.716,910.43L524.533,918.974L580.568,918.412Z" style="fill:rgb(116,91,78);fill-rule:nonzero;"/>
                    </g>
                    <g transform="matrix(0.5,0,0,0.5,-227.171,-367.2)">
                        <path d="M580.568,918.412L576.716,910.541L529.716,910.43L524.533,918.974L580.568,918.412Z" style="fill:rgb(116,91,78);fill-rule:nonzero;"/>
                    </g>
                    <g transform="matrix(0.5,0,0,0.5,-227.171,-317.187)">
                        <path d="M580.568,918.412L576.716,910.541L529.716,910.43L524.533,918.974L580.568,918.412Z" style="fill:rgb(116,91,78);fill-rule:nonzero;"/>
                    </g>
                </g>
            </g>
        </g>
        <g id="window3" serif:id="window" transform="matrix(1,0,0,1,27.2574,133.157)">
            <g transform="matrix(-0.5,0,0,0.5,436.368,-319.701)">
                <path d="M516.286,1027.88L502.01,1042L791.42,1042L806.347,1027.88L516.286,1027.88Z" style="fill:rgb(10,23,35);fill-opacity:0.12;fill-rule:nonzero;"/>
            </g>
            <g transform="matrix(1.04384,0,0,1.05463,-3.01219,-372.057)">
                <path d="M140.388,539.055L68.755,539.196L68.711,401.545L140.479,401.481L140.388,539.055Z" style="fill:rgb(217,212,203);fill-rule:nonzero;"/>
            </g>
            <g transform="matrix(-1,0,0,1,576.599,-127.31)">
                <path d="M502.663,318.946L473.403,319.175L473.203,254.321L502.663,254.2L502.663,318.946ZM469.203,319.008L438.637,319.153L438.637,254.2L469.303,254.121L469.203,319.008ZM502.431,250.237L473.103,250.239L473.203,184.032L502.459,184.658L502.431,250.237ZM469.303,250.299L438.603,250.216L438.637,184.011L469.303,184.221L469.303,250.299Z" style="fill:rgb(49,49,86);fill-rule:nonzero;"/>
                <clipPath id="_clip4">
                    <path d="M502.663,318.946L473.403,319.175L473.203,254.321L502.663,254.2L502.663,318.946ZM469.203,319.008L438.637,319.153L438.637,254.2L469.303,254.121L469.203,319.008ZM502.431,250.237L473.103,250.239L473.203,184.032L502.459,184.658L502.431,250.237ZM469.303,250.299L438.603,250.216L438.637,184.011L469.303,184.221L469.303,250.299Z" clip-rule="nonzero"/>
                </clipPath>
                <g clip-path="url(#_clip4)">
                    <g transform="matrix(1,0,0,1,358.639,-198.596)">
                        <path d="M195.579,522.475L195.613,412.479L79.998,522.881L195.579,522.475Z" style="fill:rgb(10,23,35);fill-opacity:0.3;fill-rule:nonzero;"/>
                    </g>
                    <g transform="matrix(1,0,0,1,354.194,-193.565)">
                        <path d="M85.288,523.512L195.608,412.895L195.623,412.912L195.639,407.459L195.06,407.448L79.184,523.491L85.288,523.512Z" style="fill:rgb(73,74,114);fill-rule:nonzero;"/>
                    </g>
                    <g transform="matrix(1.37892,0,0,1.37892,336.664,-376.97)">
                        <path d="M73.951,442.975L73.951,406.827L109.701,407.209" style="fill:rgb(10,23,35);fill-opacity:0.3;fill-rule:nonzero;"/>
                    </g>
                </g>
            </g>
            <g transform="matrix(-1,0,0,1,212.725,-326.128)">
                <path d="M147.812,535.555L146.94,539.352L137.478,548.803L49.061,548.803L71.435,526.428L147.812,535.555Z" style="fill:rgb(42,42,41);fill-opacity:0.12;fill-rule:nonzero;"/>
            </g>
            <g transform="matrix(1,0,0,1,-1,-326.128)">
                <path d="M146.747,539.221L66.426,539.221L60.121,522.219L153.236,522.219L146.747,539.221Z" style="fill:rgb(246,243,234);fill-rule:nonzero;"/>
            </g>
            <g transform="matrix(1,0,0,1,0,-350.125)">
                <path d="M153.236,392.553L149.488,401.545L63.373,401.545L59.625,392.553L153.236,392.553Z" style="fill:rgb(246,243,234);fill-rule:nonzero;"/>
            </g>
            <g>
                <g transform="matrix(0.5,0,0,0.917459,-225.47,-749.826)">
                    <rect x="738" y="876" width="70" height="153" style="fill:rgb(86,65,57);"/>
                </g>
                <g transform="matrix(1,0,0,1,1.92575,8.66666)">
                    <g transform="matrix(0.5,0,0,0.5,-117.171,-387.603)">
                        <path d="M580.568,892.532L576.716,884.661L529.716,884.55L524.533,893.094L580.568,892.532Z" style="fill:rgb(116,91,78);fill-rule:nonzero;"/>
                    </g>
                    <g transform="matrix(0.5,0,0,0.5,-117.171,-335.603)">
                        <path d="M580.568,1021.93L576.716,1014.06L529.716,1013.95L524.533,1022.49L580.568,1021.93Z" style="fill:rgb(116,91,78);fill-rule:nonzero;"/>
                    </g>
                    <g transform="matrix(0.5,0,0,0.5,-117.171,-339.334)">
                        <path d="M580.568,996.05L576.716,988.179L529.716,988.068L524.533,996.612L580.568,996.05Z" style="fill:rgb(116,91,78);fill-rule:nonzero;"/>
                    </g>
                    <g transform="matrix(0.5,0,0,0.5,-117.171,-359.737)">
                        <path d="M580.568,970.17L576.716,962.299L529.716,962.188L524.533,970.732L580.568,970.17Z" style="fill:rgb(116,91,78);fill-rule:nonzero;"/>
                    </g>
                    <g transform="matrix(0.5,0,0,0.5,-117.171,-363.469)">
                        <path d="M580.568,944.291L576.716,936.42L529.716,936.309L524.533,944.853L580.568,944.291Z" style="fill:rgb(116,91,78);fill-rule:nonzero;"/>
                    </g>
                    <g transform="matrix(0.5,0,0,0.5,-117.171,-383.871)">
                        <path d="M580.568,918.412L576.716,910.541L529.716,910.43L524.533,918.974L580.568,918.412Z" style="fill:rgb(116,91,78);fill-rule:nonzero;"/>
                    </g>
                    <g transform="matrix(0.5,0,0,0.5,-117.171,-367.2)">
                        <path d="M580.568,918.412L576.716,910.541L529.716,910.43L524.533,918.974L580.568,918.412Z" style="fill:rgb(116,91,78);fill-rule:nonzero;"/>
                    </g>
                    <g transform="matrix(0.5,0,0,0.5,-117.171,-317.187)">
                        <path d="M580.568,918.412L576.716,910.541L529.716,910.43L524.533,918.974L580.568,918.412Z" style="fill:rgb(116,91,78);fill-rule:nonzero;"/>
                    </g>
                </g>
            </g>
            <g transform="matrix(1,0,0,1,1.57414,8.66666)">
                <g transform="matrix(0.5,0,0,0.917459,-227.044,-758.492)">
                    <rect x="518" y="876" width="70" height="153" style="fill:rgb(86,65,57);"/>
                </g>
                <g transform="matrix(1,0,0,1,0.351617,0)">
                    <g transform="matrix(0.5,0,0,0.5,-227.171,-387.603)">
                        <path d="M580.568,892.532L576.716,884.661L529.716,884.55L524.533,893.094L580.568,892.532Z" style="fill:rgb(116,91,78);fill-rule:nonzero;"/>
                    </g>
                    <g transform="matrix(0.5,0,0,0.5,-227.171,-335.603)">
                        <path d="M580.568,1021.93L576.716,1014.06L529.716,1013.95L524.533,1022.49L580.568,1021.93Z" style="fill:rgb(116,91,78);fill-rule:nonzero;"/>
                    </g>
                    <g transform="matrix(0.5,0,0,0.5,-227.171,-339.334)">
                        <path d="M580.568,996.05L576.716,988.179L529.716,988.068L524.533,996.612L580.568,996.05Z" style="fill:rgb(116,91,78);fill-rule:nonzero;"/>
                    </g>
                    <g transform="matrix(0.5,0,0,0.5,-227.171,-359.737)">
                        <path d="M580.568,970.17L576.716,962.299L529.716,962.188L524.533,970.732L580.568,970.17Z" style="fill:rgb(116,91,78);fill-rule:nonzero;"/>
                    </g>
                    <g transform="matrix(0.5,0,0,0.5,-227.171,-363.469)">
                        <path d="M580.568,944.291L576.716,936.42L529.716,936.309L524.533,944.853L580.568,944.291Z" style="fill:rgb(116,91,78);fill-rule:nonzero;"/>
                    </g>
                    <g transform="matrix(0.5,0,0,0.5,-227.171,-383.871)">
                        <path d="M580.568,918.412L576.716,910.541L529.716,910.43L524.533,918.974L580.568,918.412Z" style="fill:rgb(116,91,78);fill-rule:nonzero;"/>
                    </g>
                    <g transform="matrix(0.5,0,0,0.5,-227.171,-367.2)">
                        <path d="M580.568,918.412L576.716,910.541L529.716,910.43L524.533,918.974L580.568,918.412Z" style="fill:rgb(116,91,78);fill-rule:nonzero;"/>
                    </g>
                    <g transform="matrix(0.5,0,0,0.5,-227.171,-317.187)">
                        <path d="M580.568,918.412L576.716,910.541L529.716,910.43L524.533,918.974L580.568,918.412Z" style="fill:rgb(116,91,78);fill-rule:nonzero;"/>
                    </g>
                </g>
            </g>
        </g>
        <g id="roof" transform="matrix(0.974418,0,0,0.64633,-218.27,-347.404)">
            <path d="M224,710.359L1000.59,713.969L874.698,564.095L224,563.095L224,710.359Z" style="fill:rgb(116,91,78);fill-rule:nonzero;"/>
            <g id="shadow1" serif:id="shadow" transform="matrix(1.02625,0,0,1.79654,224,504.132)">
                <rect x="0" y="126.681" width="741.919" height="24.114" style="fill:rgb(42,42,41);fill-opacity:0.12;"/>
            </g>
            <g transform="matrix(1.02625,0,0,1.5472,218.869,535.72)">
                <g transform="matrix(-1,1.22465e-16,-1.22465e-16,-1,178.065,466.891)">
                    <path d="M166.751,330.156L169.878,339.558L151.187,339.594L154.23,330.115L166.751,330.156Z" style="fill:rgb(231,229,221);fill-rule:nonzero;"/>
                </g>
                <g transform="matrix(-1,1.22465e-16,-1.22465e-16,-1,426.897,466.891)">
                    <path d="M166.751,330.156L169.878,339.558L151.187,339.594L154.23,330.115L166.751,330.156Z" style="fill:rgb(231,229,221);fill-rule:nonzero;"/>
                </g>
                <g transform="matrix(-1,1.22465e-16,-1.22465e-16,-1,675.147,466.891)">
                    <path d="M166.751,330.156L169.878,339.558L151.187,339.594L154.23,330.115L166.751,330.156Z" style="fill:rgb(231,229,221);fill-rule:nonzero;"/>
                </g>
                <g transform="matrix(-1,1.22465e-16,-1.22465e-16,-1,302.417,466.891)">
                    <path d="M166.751,330.156L169.878,339.558L151.187,339.594L154.23,330.115L166.751,330.156Z" style="fill:rgb(231,229,221);fill-rule:nonzero;"/>
                </g>
                <g transform="matrix(-1,1.22465e-16,-1.22465e-16,-1,551.249,466.891)">
                    <path d="M166.751,330.156L169.878,339.558L151.187,339.594L154.23,330.115L166.751,330.156Z" style="fill:rgb(231,229,221);fill-rule:nonzero;"/>
                </g>
                <g transform="matrix(-1,1.22465e-16,-1.22465e-16,-1,799.499,466.891)">
                    <path d="M166.751,330.156L169.878,339.558L151.187,339.594L154.23,330.115L166.751,330.156Z" style="fill:rgb(231,229,221);fill-rule:nonzero;"/>
                </g>
                <g transform="matrix(-1,1.22465e-16,-1.22465e-16,-1,240.273,466.891)">
                    <path d="M166.751,330.156L169.878,339.558L151.187,339.594L154.23,330.115L166.751,330.156Z" style="fill:rgb(231,229,221);fill-rule:nonzero;"/>
                </g>
                <g transform="matrix(-1,1.22465e-16,-1.22465e-16,-1,489.105,466.891)">
                    <path d="M166.751,330.156L169.878,339.558L151.187,339.594L154.23,330.115L166.751,330.156Z" style="fill:rgb(231,229,221);fill-rule:nonzero;"/>
                </g>
                <g transform="matrix(-1,1.22465e-16,-1.22465e-16,-1,737.355,466.891)">
                    <path d="M166.751,330.156L169.878,339.558L151.187,339.594L154.23,330.115L166.751,330.156Z" style="fill:rgb(231,229,221);fill-rule:nonzero;"/>
                </g>
                <g transform="matrix(-1,1.22465e-16,-1.22465e-16,-1,364.625,466.891)">
                    <path d="M166.751,330.156L169.878,339.558L151.187,339.594L154.23,330.115L166.751,330.156Z" style="fill:rgb(231,229,221);fill-rule:nonzero;"/>
                </g>
                <g transform="matrix(-1,1.22465e-16,-1.22465e-16,-1,613.457,466.891)">
                    <path d="M166.751,330.156L169.878,339.558L151.187,339.594L154.23,330.115L166.751,330.156Z" style="fill:rgb(231,229,221);fill-rule:nonzero;"/>
                </g>
                <g transform="matrix(-1,1.22465e-16,-1.22465e-16,-1,861.707,466.891)">
                    <path d="M166.751,330.156L169.878,339.558L151.187,339.594L154.23,330.115L166.751,330.156Z" style="fill:rgb(231,229,221);fill-rule:nonzero;"/>
                </g>
                <g transform="matrix(-1,1.22465e-16,-1.22465e-16,-1,209.169,466.891)">
                    <path d="M166.751,330.156L169.878,339.558L151.187,339.594L154.23,330.115L166.751,330.156Z" style="fill:rgb(231,229,221);fill-rule:nonzero;"/>
                </g>
                <g transform="matrix(-1,1.22465e-16,-1.22465e-16,-1,458.001,466.891)">
                    <path d="M166.751,330.156L169.878,339.558L151.187,339.594L154.23,330.115L166.751,330.156Z" style="fill:rgb(231,229,221);fill-rule:nonzero;"/>
                </g>
                <g transform="matrix(-1,1.22465e-16,-1.22465e-16,-1,706.251,466.891)">
                    <path d="M166.751,330.156L169.878,339.558L151.187,339.594L154.23,330.115L166.751,330.156Z" style="fill:rgb(231,229,221);fill-rule:nonzero;"/>
                </g>
                <g transform="matrix(-1,1.22465e-16,-1.22465e-16,-1,333.521,466.891)">
                    <path d="M166.751,330.156L169.878,339.558L151.187,339.594L154.23,330.115L166.751,330.156Z" style="fill:rgb(231,229,221);fill-rule:nonzero;"/>
                </g>
                <g transform="matrix(-1,1.22465e-16,-1.22465e-16,-1,582.353,466.891)">
                    <path d="M166.751,330.156L169.878,339.558L151.187,339.594L154.23,330.115L166.751,330.156Z" style="fill:rgb(231,229,221);fill-rule:nonzero;"/>
                </g>
                <g transform="matrix(-1,1.22465e-16,-1.22465e-16,-1,830.603,466.891)">
                    <path d="M166.751,330.156L169.878,339.558L151.187,339.594L154.23,330.115L166.751,330.156Z" style="fill:rgb(231,229,221);fill-rule:nonzero;"/>
                </g>
                <g transform="matrix(-1,1.22465e-16,-1.22465e-16,-1,271.377,466.891)">
                    <path d="M166.751,330.156L169.878,339.558L151.187,339.594L154.23,330.115L166.751,330.156Z" style="fill:rgb(231,229,221);fill-rule:nonzero;"/>
                </g>
                <g transform="matrix(-1,1.22465e-16,-1.22465e-16,-1,520.209,466.891)">
                    <path d="M166.751,330.156L169.878,339.558L151.187,339.594L154.23,330.115L166.751,330.156Z" style="fill:rgb(231,229,221);fill-rule:nonzero;"/>
                </g>
                <g transform="matrix(-1,1.22465e-16,-1.22465e-16,-1,768.459,466.891)">
                    <path d="M166.751,330.156L169.878,339.558L151.187,339.594L154.23,330.115L166.751,330.156Z" style="fill:rgb(231,229,221);fill-rule:nonzero;"/>
                </g>
                <g transform="matrix(-1,1.22465e-16,-1.22465e-16,-1,395.729,466.891)">
                    <path d="M166.751,330.156L169.878,339.558L151.187,339.594L154.23,330.115L166.751,330.156Z" style="fill:rgb(231,229,221);fill-rule:nonzero;"/>
                </g>
                <g transform="matrix(-1,1.22465e-16,-1.22465e-16,-1,644.561,466.891)">
                    <path d="M166.751,330.156L169.878,339.558L151.187,339.594L154.23,330.115L166.751,330.156Z" style="fill:rgb(231,229,221);fill-rule:nonzero;"/>
                </g>
                <g transform="matrix(-1,1.22465e-16,-1.22465e-16,-1,892.811,466.891)">
                    <path d="M166.751,330.156L169.878,339.558L151.187,339.594L154.23,330.115L166.751,330.156Z" style="fill:rgb(231,229,221);fill-rule:nonzero;"/>
                </g>
            </g>
            <g transform="matrix(1.02625,0,0,1.5472,224.623,535.72)">
                <path d="M741.312,137.862L741.312,126.681L756.718,126.681L751.476,137.619L741.312,137.862Z" style="fill:rgb(217,212,203);fill-rule:nonzero;"/>
            </g>
            <g transform="matrix(1.02625,0,0,1.5472,224,537.267)">
                <path d="M-0,112.875L768.975,112.875L764.033,126.676L-0,127.297L-0,112.875Z" style="fill:rgb(246,243,234);fill-rule:nonzero;"/>
            </g>
        </g>
    </g>
</svg>
