<?xml version="1.0" encoding="UTF-8" standalone="no"?>
<!DOCTYPE svg PUBLIC "-//W3C//DTD SVG 1.1//EN" "http://www.w3.org/Graphics/SVG/1.1/DTD/svg11.dtd">
<svg width="100%" height="100%" viewBox="0 0 1100 800" version="1.1" xmlns="http://www.w3.org/2000/svg" xmlns:xlink="http://www.w3.org/1999/xlink" xml:space="preserve" xmlns:serif="http://www.serif.com/" style="fill-rule:evenodd;clip-rule:evenodd;stroke-linejoin:round;stroke-miterlimit:2;">
    <g id="parking-lot-left" transform="matrix(0.635,0,0,0.635,2.72,-419.2)">
        <g id="parking-sign">
            <path d="M1593.54,1894.96L1548.16,1894.96L1570.39,964.799L1588.67,974.061L1593.54,1894.96Z" style="fill:rgb(93,95,96);fill-rule:nonzero;"/>
            <path d="M1548.16,1894.96L1593.54,1894.96L1556.73,1542.18L1548.16,1894.96Z" style="fill:rgb(42,43,42);fill-rule:nonzero;"/>
            <path d="M1589.96,1223.8L1570.39,964.799L1588.67,974.091L1589.96,1223.8Z" style="fill:rgb(42,43,42);fill-rule:nonzero;"/>
            <path d="M1505.65,784.803L1660.09,784.803L1663.73,870.75L1652.1,973.668L1507.15,973.668L1482,870.75L1505.65,784.803Z" style="fill:rgb(73,121,157);fill-rule:nonzero;"/>
            <path d="M1652.23,957.935L1507.53,957.935L1497.27,858.676L1507.25,784.678L1652.45,784.678L1662.44,858.74L1652.23,957.935ZM1488.38,765.721L1478.39,858.739L1488.66,976.735L1671.15,976.735L1681.37,858.864L1671.37,765.721L1488.38,765.721Z" style="fill:rgb(243,242,237);fill-rule:nonzero;"/>
            <path d="M1601.33,865.52L1601.33,865.514L1556.58,865.514L1556.58,827.682L1601.33,827.682L1601.33,827.676L1612.45,838.801L1612.45,854.395L1601.33,865.52ZM1631.32,831.012L1631.29,831.024L1631.31,830.973L1609.14,808.806L1537.71,808.779L1537.67,932.512L1556.58,932.575L1556.58,884.383L1609.14,884.39L1631.31,862.223L1631.31,862.21L1631.32,862.2L1631.32,831.012Z" style="fill:rgb(243,242,237);fill-rule:nonzero;"/>
        </g>
        <g transform="matrix(1.00248,0,0,1.00248,-4.28346,-4.75941)">
            <g id="ground">
                <rect x="0" y="1896" width="1728" height="24" style="fill:rgb(93,94,95);fill-rule:nonzero;"/>
            </g>
        </g>
        <g id="sideways-car">
            <path d="M1542.86,1849.45L1521.19,1795.45L1451.36,1795.45L1428.53,1848.12" style="fill:rgb(92,95,96);fill-rule:nonzero;"/>
            <path d="M1159.86,1849.45L1138.19,1795.45L1068.36,1795.45L1045.53,1848.12" style="fill:rgb(92,95,96);fill-rule:nonzero;"/>
            <path d="M1542.86,1852.45L1521.19,1798.45L1451.36,1798.45L1428.53,1851.12" style="fill:rgb(92,95,96);fill-rule:nonzero;"/>
            <path d="M1159.86,1852.45L1138.19,1798.45L1068.36,1798.45L1045.53,1851.12" style="fill:rgb(92,95,96);fill-rule:nonzero;"/>
            <path d="M1570.61,1860.71L1589.36,1757.95L1438.34,1733.45L1307.67,1658.28L993.132,1658.28L939.859,1743.45L958.609,1860.6L1044.49,1860.62L1066.36,1809.07L1135.61,1809.07L1156.69,1860.78L1425.69,1860.78L1448.19,1809.45L1517.86,1808.95L1539.19,1860.62L1570.61,1860.71Z" style="fill:rgb(228,226,220);fill-rule:nonzero;"/>
            <path d="M1535.87,1852.43L1570.83,1859.54L1570.58,1860.73L1539.03,1860.75" style="fill:rgb(243,242,236);fill-rule:nonzero;"/>
            <path d="M1425.69,1860.8L1152.99,1860.95L1135.98,1809.07L1066.36,1809.07L1043.98,1860.63L958.609,1860.61L939.797,1743.26L999.109,1743.2L1438.36,1832.59L1425.69,1860.8Z" style="fill:rgb(243,242,236);fill-rule:nonzero;"/>
            <path d="M939.891,1743.23L944.36,1772.01L988.227,1772.04L999.079,1742.98L939.891,1743.23Z" style="fill:rgb(173,33,37);fill-rule:nonzero;"/>
            <path d="M1522.67,1766.72L1524.84,1795.64L1582.49,1795.66L1587.74,1766.64L1522.67,1766.72Z" style="fill:rgb(246,241,225);fill-rule:nonzero;"/>
            <path d="M939.828,1743.1L941.068,1751.16L996.078,1751.07L999.109,1742.95L939.828,1743.1Z" style="fill:rgb(255,238,204);fill-rule:nonzero;"/>
            <path d="M1417.84,1732.95L1304.34,1665.95L1076.05,1665.95L1037.36,1731.62L1417.84,1732.95Z" style="fill:rgb(49,49,86);fill-rule:nonzero;"/>
            <path d="M988.363,1665.95L1022.55,1665.95L949.023,1728.7L988.363,1665.95Z" style="fill:rgb(49,49,86);fill-rule:nonzero;"/>
            <path d="M1220.94,1661.2L1213.39,1663.54L1228.55,1752.88L1236.56,1751.21L1220.94,1661.2Z" style="fill:rgb(228,226,220);fill-rule:nonzero;"/>
            <path d="M1366.86,1724.2L1366.07,1732.78L1356.03,1732.74L1357.03,1722.79L1366.86,1724.2Z" style="fill:rgb(192,189,186);fill-rule:nonzero;"/>
            <path d="M1366.86,1724.2L1368.36,1708.45L1338.86,1702.95L1335.11,1724.45L1366.86,1724.2Z" style="fill:rgb(228,226,220);fill-rule:nonzero;"/>
            <path d="M1456.02,1858.03C1456.02,1873.64 1468.67,1886.28 1484.27,1886.28C1499.88,1886.28 1512.52,1873.64 1512.52,1858.03C1512.52,1842.43 1499.88,1829.78 1484.27,1829.78C1468.67,1829.78 1456.02,1842.43 1456.02,1858.03" style="fill:rgb(227,225,219);fill-rule:nonzero;"/>
            <path d="M1457.77,1857.75C1457.77,1843.71 1469.15,1832.33 1483.19,1832.33C1497.23,1832.33 1508.61,1843.71 1508.61,1857.75C1508.61,1871.79 1497.23,1883.17 1483.19,1883.17C1469.15,1883.17 1457.77,1871.79 1457.77,1857.75M1442.19,1857.75C1442.19,1880.39 1460.55,1898.75 1483.19,1898.75C1505.83,1898.75 1524.19,1880.39 1524.19,1857.75C1524.19,1835.11 1505.83,1816.75 1483.19,1816.75C1460.55,1816.75 1442.19,1835.11 1442.19,1857.75" style="fill:rgb(42,43,42);fill-rule:nonzero;"/>
            <path d="M1072.69,1858.03C1072.69,1873.64 1085.34,1886.28 1100.94,1886.28C1116.55,1886.28 1129.19,1873.64 1129.19,1858.03C1129.19,1842.43 1116.55,1829.78 1100.94,1829.78C1085.34,1829.78 1072.69,1842.43 1072.69,1858.03" style="fill:rgb(227,225,219);fill-rule:nonzero;"/>
            <path d="M1074.44,1857.75C1074.44,1843.71 1085.82,1832.33 1099.86,1832.33C1113.9,1832.33 1125.28,1843.71 1125.28,1857.75C1125.28,1871.79 1113.9,1883.17 1099.86,1883.17C1085.82,1883.17 1074.44,1871.79 1074.44,1857.75M1058.86,1857.75C1058.86,1880.39 1077.21,1898.75 1099.86,1898.75C1122.5,1898.75 1140.86,1880.39 1140.86,1857.75C1140.86,1835.11 1122.5,1816.75 1099.86,1816.75C1077.21,1816.75 1058.86,1835.11 1058.86,1857.75" style="fill:rgb(42,43,42);fill-rule:nonzero;"/>
        </g>
        <g id="car-inbound" transform="matrix(2,0,0,2,72.7716,1509.49)">
            <g transform="matrix(1,0,0,1,0,-10.3296)">
                <path d="M127.589,121.742L141.24,119.292L144.04,112.013L128.779,109.351L127.52,116.072L125.199,118.411L127.589,121.742Z" style="fill:rgb(228,226,220);fill-rule:nonzero;"/>
            </g>
            <g transform="matrix(1,0,0,1,0,-10.3296)">
                <path d="M127.604,121.746L125.277,118.252L127.536,116.067L128.805,109.37L130.102,109.578L136.723,120.08L127.604,121.746Z" style="fill:rgb(193,190,187);fill-rule:nonzero;"/>
            </g>
            <g transform="matrix(1,0,0,1,0,-10.3296)">
                <path d="M0,111.919L2.8,119.198L16.451,121.648L18.841,118.317L16.52,115.978L15.26,109.258L0,111.919Z" style="fill:rgb(228,226,220);fill-rule:nonzero;"/>
            </g>
            <g transform="matrix(1,0,0,1,0,-10.3296)">
                <path d="M16.467,121.646L18.794,118.152L16.535,115.967L15.266,109.27L13.969,109.478L7.328,120.009L16.467,121.646Z" style="fill:rgb(193,190,187);fill-rule:nonzero;"/>
            </g>
            <path d="M3.89,173.884L5.57,193.416L24.891,193.416L28.882,173.674L3.89,173.884Z" style="fill:rgb(92,94,95);fill-rule:nonzero;"/>
            <path d="M24.052,173.674L24.892,193.416L30.884,173.674L24.052,173.674Z" style="fill:rgb(42,43,42);fill-rule:nonzero;"/>
            <path d="M117.358,193.416L136.708,193.416L138.388,174.095L113.395,173.884L117.358,193.416Z" style="fill:rgb(92,94,95);fill-rule:nonzero;"/>
            <path d="M111.394,173.884L117.358,193.416L118.227,173.884L111.394,173.884Z" style="fill:rgb(42,43,42);fill-rule:nonzero;"/>
            <g transform="matrix(1,-3.22153e-17,-3.22153e-17,1.13153,0,-22.926)">
                <path d="M29.468,85.928L1.35,135.269L3.869,173.884L5.759,173.89L138.396,174.304L142.192,135.508L114.687,85.928L29.468,85.928Z" style="fill:rgb(228,226,220);fill-rule:nonzero;"/>
            </g>
            <g transform="matrix(1,-8.52366e-17,-8.52366e-17,1.348,1.39815e-14,-42.2467)">
                <path d="M32.958,89.498L17.329,111.768L125.254,111.768L111.584,89.498L32.958,89.498L32.958,89.498Z" style="fill:rgb(49,49,86);fill-rule:nonzero;"/>
            </g>
            <g transform="matrix(1.35601,0,0,1.35601,-9.08601,-43.1939)">
                <path d="M31.032,89.668L19.48,111.806L40.11,111.806L62.168,89.668L31.032,89.668L31.032,89.668Z" style="fill:rgb(15,35,66);fill-opacity:0.3;fill-rule:nonzero;"/>
            </g>
            <path d="M111.625,78.397L107.969,78.397L77.75,108.417L125.254,108.417L111.625,78.397L111.625,78.397Z" style="fill:rgb(10,23,35);fill-opacity:0.3;fill-rule:nonzero;"/>
            <g transform="matrix(1.34973,0,0,1.34973,-25.576,-42.4401)">
                <path d="M76.954,111.768L98.941,89.527L92.801,89.527L71.23,111.768L76.954,111.768L76.954,111.768Z" style="fill:rgb(73,74,114);fill-rule:nonzero;"/>
            </g>
            <g transform="matrix(1,0,0,1,-199.295,-4.4702)">
                <path d="M200.645,135.387L201.512,149.887L229.631,149.859L230.682,135.348L200.645,135.387L200.645,135.387Z" style="fill:rgb(246,241,225);fill-rule:nonzero;"/>
            </g>
            <g transform="matrix(1,0,0,1,-199.295,-4.4702)">
                <path d="M230.683,135.348L238.254,148.177L229.631,149.859L230.683,135.348Z" style="fill:rgb(239,156,116);fill-rule:nonzero;"/>
            </g>
            <g transform="matrix(1,0,0,1,-199.295,-4.4702)">
                <path d="M341.445,135.387L340.182,149.845L312.838,149.859L311.786,135.348L341.445,135.387L341.445,135.387Z" style="fill:rgb(246,241,225);fill-rule:nonzero;"/>
            </g>
            <g transform="matrix(1,0,0,1,-199.295,-4.4702)">
                <path d="M311.786,135.348L305.968,148.177L312.838,149.859L311.786,135.348Z" style="fill:rgb(239,156,116);fill-rule:nonzero;"/>
            </g>
            <g transform="matrix(1,0,0,1,-199.295,-4.4702)">
                <path d="M311.753,135.388L230.693,135.345L238.297,148.176L306.012,148.176L311.753,135.388Z" style="fill:rgb(42,43,42);fill-rule:nonzero;"/>
            </g>
            <g transform="matrix(1,0,0,1,-199.295,-4.4702)">
                <path d="M306.083,139.461L304.157,143.397L240.119,143.452L237.527,139.18L306.083,139.461Z" style="fill:rgb(92,94,95);fill-rule:nonzero;"/>
            </g>
        </g>
        <g id="parking-stops">
            <path d="M1631.47,1869.12L1640.57,1896.47L1586.19,1896.57L1595.04,1869L1631.47,1869.12Z" style="fill:rgb(228,226,220);fill-rule:nonzero;"/>
            <path d="M346.538,1869.12L355.636,1896.47L75.636,1896.57L84.489,1869L346.538,1869.12Z" style="fill:rgb(228,226,220);fill-rule:nonzero;"/>
            <path d="M778.923,1869.12L788.021,1896.47L508.021,1896.57L516.874,1869L778.923,1869.12Z" style="fill:rgb(228,226,220);fill-rule:nonzero;"/>
        </g>
    </g>
</svg>
