<?xml version="1.0" encoding="UTF-8" standalone="no"?>
<!DOCTYPE svg PUBLIC "-//W3C//DTD SVG 1.1//EN" "http://www.w3.org/Graphics/SVG/1.1/DTD/svg11.dtd">
<svg width="100%" height="100%" viewBox="0 0 1100 800" version="1.1" xmlns="http://www.w3.org/2000/svg" xmlns:xlink="http://www.w3.org/1999/xlink" xml:space="preserve" xmlns:serif="http://www.serif.com/" style="fill-rule:evenodd;clip-rule:evenodd;stroke-linejoin:round;stroke-miterlimit:2;">
    <g id="parking-lot-right" transform="matrix(0.635,0,0,0.635,0,-419.2)">
        <g id="parking-sign">
            <path d="M134.461,1894.96L179.84,1894.96L157.613,964.799L139.332,974.061L134.461,1894.96Z" style="fill:rgb(93,95,96);fill-rule:nonzero;"/>
            <path d="M179.844,1894.96L134.457,1894.96L171.27,1542.18L179.844,1894.96Z" style="fill:rgb(42,43,42);fill-rule:nonzero;"/>
            <path d="M138.039,1223.8L157.605,964.799L139.328,974.091L138.039,1223.8Z" style="fill:rgb(42,43,42);fill-rule:nonzero;"/>
            <path d="M73.891,784.803L228.332,784.803L231.977,870.75L220.344,973.668L75.395,973.668L50.246,870.75L73.891,784.803Z" style="fill:rgb(73,121,157);fill-rule:nonzero;"/>
            <path d="M220.473,957.935L75.77,957.935L65.516,858.676L75.496,784.678L220.696,784.678L230.68,858.74L220.473,957.935ZM56.625,765.721L46.633,858.739L56.903,976.735L239.391,976.735L249.61,858.864L239.614,765.721L56.625,765.721Z" style="fill:rgb(243,242,237);fill-rule:nonzero;"/>
            <path d="M169.57,865.52L169.57,865.514L124.82,865.514L124.82,827.682L169.57,827.682L169.57,827.676L180.695,838.801L180.695,854.395L169.57,865.52ZM199.566,831.012L199.531,831.024L199.55,830.973L177.386,808.806L105.953,808.779L105.91,932.512L124.82,932.575L124.82,884.383L177.386,884.39L199.55,862.223L199.547,862.21L199.566,862.2L199.566,831.012Z" style="fill:rgb(243,242,237);fill-rule:nonzero;"/>
        </g>
        <g transform="matrix(1.00248,0,0,1.00248,0,-4.75941)">
            <g id="ground">
                <rect x="0" y="1896" width="1728" height="24" style="fill:rgb(93,94,95);fill-rule:nonzero;"/>
            </g>
        </g>
        <g id="sideways-car">
            <path d="M199.096,1851.45L220.766,1797.45L290.596,1797.45L313.422,1850.12" style="fill:rgb(92,95,96);fill-rule:nonzero;"/>
            <path d="M582.096,1851.45L603.766,1797.45L673.596,1797.45L696.422,1850.12" style="fill:rgb(92,95,96);fill-rule:nonzero;"/>
            <path d="M199.096,1854.45L220.766,1800.45L290.596,1800.45L313.422,1853.12" style="fill:rgb(92,95,96);fill-rule:nonzero;"/>
            <path d="M582.096,1854.45L603.766,1800.45L673.596,1800.45L696.422,1853.12" style="fill:rgb(92,95,96);fill-rule:nonzero;"/>
            <path d="M171.041,1862.71L152.291,1759.95L303.312,1735.45L433.977,1660.28L748.518,1660.28L801.791,1745.45L783.041,1862.6L697.736,1862.62L675.291,1811.07L606.041,1811.07L584.959,1862.78L315.959,1862.78L293.459,1811.45L223.791,1810.95L202.455,1862.62L171.041,1862.71Z" style="fill:rgb(228,226,220);fill-rule:nonzero;"/>
            <path d="M206.088,1854.43L171.127,1861.54L171.377,1862.73L202.926,1862.75" style="fill:rgb(243,242,236);fill-rule:nonzero;"/>
            <path d="M783.322,1862.59L698.009,1862.61L675.666,1811.12L606.002,1811L589.166,1862.63L315.412,1862.69L293.252,1811.41L223.918,1810.92L202.416,1863.42L171.25,1863.26L152.916,1759.75L304.166,1735L375.838,1734.75L788.072,1833.37L783.322,1862.59Z" style="fill:rgb(243,242,236);fill-rule:nonzero;"/>
            <path d="M802.064,1745.23L797.595,1774.01L753.728,1774.04L742.877,1744.98L802.064,1745.23Z" style="fill:rgb(173,33,37);fill-rule:nonzero;"/>
            <path d="M219.283,1768.72L217.117,1797.64L159.47,1797.66L154.22,1768.64L219.283,1768.72Z" style="fill:rgb(246,241,225);fill-rule:nonzero;"/>
            <path d="M802.127,1745.1L800.887,1753.16L745.877,1753.07L742.846,1744.95L802.127,1745.1Z" style="fill:rgb(255,238,204);fill-rule:nonzero;"/>
            <path d="M324.117,1734.95L437.619,1667.95L665.902,1667.95L704.596,1733.62L324.117,1734.95Z" style="fill:rgb(49,49,86);fill-rule:nonzero;"/>
            <path d="M753.592,1667.95L719.404,1667.95L792.932,1730.7L753.592,1667.95Z" style="fill:rgb(49,49,86);fill-rule:nonzero;"/>
            <path d="M521.012,1663.2L528.569,1665.54L513.408,1754.88L505.397,1753.21L521.012,1663.2Z" style="fill:rgb(228,226,220);fill-rule:nonzero;"/>
            <path d="M375.096,1726.2L375.889,1734.78L385.93,1734.74L384.928,1724.79L375.096,1726.2Z" style="fill:rgb(192,189,186);fill-rule:nonzero;"/>
            <path d="M375.096,1726.2L373.596,1710.45L403.096,1704.95L406.846,1726.45L375.096,1726.2Z" style="fill:rgb(228,226,220);fill-rule:nonzero;"/>
            <path d="M285.932,1860.03C285.932,1875.64 273.284,1888.28 257.682,1888.28C242.08,1888.28 229.432,1875.64 229.432,1860.03C229.432,1844.43 242.08,1831.78 257.682,1831.78C273.284,1831.78 285.932,1844.43 285.932,1860.03" style="fill:rgb(227,225,219);fill-rule:nonzero;"/>
            <path d="M258.766,1885.17C244.725,1885.17 233.342,1873.79 233.342,1859.75C233.342,1845.71 244.725,1834.33 258.766,1834.33C272.807,1834.33 284.19,1845.71 284.19,1859.75C284.19,1873.79 272.807,1885.17 258.766,1885.17M258.766,1818.75C236.121,1818.75 217.766,1837.11 217.766,1859.75C217.766,1882.39 236.121,1900.75 258.766,1900.75C281.411,1900.75 299.766,1882.39 299.766,1859.75C299.766,1837.11 281.411,1818.75 258.766,1818.75" style="fill:rgb(42,43,42);fill-rule:nonzero;"/>
            <path d="M669.262,1860.03C669.262,1875.64 656.614,1888.28 641.012,1888.28C625.41,1888.28 612.762,1875.64 612.762,1860.03C612.762,1844.43 625.41,1831.78 641.012,1831.78C656.614,1831.78 669.262,1844.43 669.262,1860.03" style="fill:rgb(227,225,219);fill-rule:nonzero;"/>
            <path d="M642.096,1885.17C628.055,1885.17 616.672,1873.79 616.672,1859.75C616.672,1845.71 628.055,1834.33 642.096,1834.33C656.137,1834.33 667.52,1845.71 667.52,1859.75C667.52,1873.79 656.137,1885.17 642.096,1885.17M642.096,1818.75C619.451,1818.75 601.096,1837.11 601.096,1859.75C601.096,1882.39 619.451,1900.75 642.096,1900.75C664.741,1900.75 683.096,1882.39 683.096,1859.75C683.096,1837.11 664.741,1818.75 642.096,1818.75" style="fill:rgb(42,43,42);fill-rule:nonzero;"/>
        </g>
        <g id="car-inbound" transform="matrix(2,0,0,2,938.158,1509.49)">
            <g transform="matrix(1,0,0,1,0,-10.3296)">
                <path d="M127.589,121.742L141.24,119.292L144.04,112.013L128.779,109.351L127.52,116.072L125.199,118.411L127.589,121.742Z" style="fill:rgb(228,226,220);fill-rule:nonzero;"/>
            </g>
            <g transform="matrix(1,0,0,1,0,-10.3296)">
                <path d="M127.604,121.746L125.277,118.252L127.536,116.067L128.805,109.37L130.102,109.578L136.723,120.08L127.604,121.746Z" style="fill:rgb(193,190,187);fill-rule:nonzero;"/>
            </g>
            <g transform="matrix(1,0,0,1,0,-10.3296)">
                <path d="M0,111.919L2.8,119.198L16.451,121.648L18.841,118.317L16.52,115.978L15.26,109.258L0,111.919Z" style="fill:rgb(228,226,220);fill-rule:nonzero;"/>
            </g>
            <g transform="matrix(1,0,0,1,0,-10.3296)">
                <path d="M16.467,121.646L18.794,118.152L16.535,115.967L15.266,109.27L13.969,109.478L7.328,120.009L16.467,121.646Z" style="fill:rgb(193,190,187);fill-rule:nonzero;"/>
            </g>
            <path d="M3.89,173.884L5.57,193.416L24.891,193.416L28.882,173.674L3.89,173.884Z" style="fill:rgb(92,94,95);fill-rule:nonzero;"/>
            <path d="M24.052,173.674L24.892,193.416L30.884,173.674L24.052,173.674Z" style="fill:rgb(42,43,42);fill-rule:nonzero;"/>
            <path d="M117.358,193.416L136.708,193.416L138.388,174.095L113.395,173.884L117.358,193.416Z" style="fill:rgb(92,94,95);fill-rule:nonzero;"/>
            <path d="M111.394,173.884L117.358,193.416L118.227,173.884L111.394,173.884Z" style="fill:rgb(42,43,42);fill-rule:nonzero;"/>
            <g transform="matrix(1,-3.22153e-17,-3.22153e-17,1.13153,0,-22.926)">
                <path d="M29.468,85.928L1.35,135.269L3.869,173.884L5.759,173.89L138.396,174.304L142.192,135.508L114.687,85.928L29.468,85.928Z" style="fill:rgb(228,226,220);fill-rule:nonzero;"/>
            </g>
            <g transform="matrix(1,-8.52366e-17,-8.52366e-17,1.348,1.39815e-14,-42.2467)">
                <path d="M32.958,89.498L17.329,111.768L125.254,111.768L111.584,89.498L32.958,89.498L32.958,89.498Z" style="fill:rgb(49,49,86);fill-rule:nonzero;"/>
            </g>
            <g transform="matrix(1.35601,0,0,1.35601,-9.08601,-43.1939)">
                <path d="M31.032,89.668L19.48,111.806L40.11,111.806L62.168,89.668L31.032,89.668L31.032,89.668Z" style="fill:rgb(15,35,66);fill-opacity:0.3;fill-rule:nonzero;"/>
            </g>
            <path d="M111.625,78.397L107.969,78.397L77.75,108.417L125.254,108.417L111.625,78.397L111.625,78.397Z" style="fill:rgb(10,23,35);fill-opacity:0.3;fill-rule:nonzero;"/>
            <g transform="matrix(1.34973,0,0,1.34973,-25.576,-42.4401)">
                <path d="M76.954,111.768L98.941,89.527L92.801,89.527L71.23,111.768L76.954,111.768L76.954,111.768Z" style="fill:rgb(73,74,114);fill-rule:nonzero;"/>
            </g>
            <g transform="matrix(1,0,0,1,-199.295,-4.4702)">
                <path d="M200.645,135.387L201.512,149.887L229.631,149.859L230.682,135.348L200.645,135.387L200.645,135.387Z" style="fill:rgb(246,241,225);fill-rule:nonzero;"/>
            </g>
            <g transform="matrix(1,0,0,1,-199.295,-4.4702)">
                <path d="M230.683,135.348L238.254,148.177L229.631,149.859L230.683,135.348Z" style="fill:rgb(239,156,116);fill-rule:nonzero;"/>
            </g>
            <g transform="matrix(1,0,0,1,-199.295,-4.4702)">
                <path d="M341.445,135.387L340.182,149.845L312.838,149.859L311.786,135.348L341.445,135.387L341.445,135.387Z" style="fill:rgb(246,241,225);fill-rule:nonzero;"/>
            </g>
            <g transform="matrix(1,0,0,1,-199.295,-4.4702)">
                <path d="M311.786,135.348L305.968,148.177L312.838,149.859L311.786,135.348Z" style="fill:rgb(239,156,116);fill-rule:nonzero;"/>
            </g>
            <g transform="matrix(1,0,0,1,-199.295,-4.4702)">
                <path d="M311.753,135.388L230.693,135.345L238.297,148.176L306.012,148.176L311.753,135.388Z" style="fill:rgb(42,43,42);fill-rule:nonzero;"/>
            </g>
            <g transform="matrix(1,0,0,1,-199.295,-4.4702)">
                <path d="M306.083,139.461L304.157,143.397L240.119,143.452L237.527,139.18L306.083,139.461Z" style="fill:rgb(92,94,95);fill-rule:nonzero;"/>
            </g>
        </g>
        <g id="parking-stops">
            <path d="M138.473,1869.12L147.571,1896.47L93.188,1896.57L102.041,1869L138.473,1869.12Z" style="fill:rgb(228,226,220);fill-rule:nonzero;"/>
            <path d="M1210.87,1869.12L1219.97,1896.47L939.969,1896.57L948.822,1869L1210.87,1869.12Z" style="fill:rgb(228,226,220);fill-rule:nonzero;"/>
            <path d="M1642.87,1869.12L1651.97,1896.47L1371.97,1896.57L1380.82,1869L1642.87,1869.12Z" style="fill:rgb(228,226,220);fill-rule:nonzero;"/>
        </g>
    </g>
</svg>
