<svg width="241" height="45" viewBox="0 0 241 45" fill="none" xmlns="http://www.w3.org/2000/svg">
<path d="M57.7368 9.50858C58.1475 9.50858 58.5288 9.56358 58.8808 9.67358C59.2402 9.78358 59.5812 9.94858 59.9038 10.1686H59.9148L59.8928 9.57458H60.4868L60.3548 12.1156H59.9588C59.9222 11.4262 59.7095 10.8946 59.3208 10.5206C58.9322 10.1466 58.4188 9.95958 57.7808 9.95958C57.3922 9.95958 57.0218 10.0439 56.6698 10.2126C56.3252 10.3739 56.0135 10.6086 55.7348 10.9166C55.4635 11.2246 55.2435 11.5949 55.0748 12.0276C54.9135 12.4602 54.8182 12.9479 54.7888 13.4906C54.7522 14.1799 54.8512 14.7886 55.0858 15.3166C55.3278 15.8446 55.6615 16.2552 56.0868 16.5486C56.5195 16.8419 57.0072 16.9886 57.5498 16.9886C58.0265 16.9886 58.4995 16.8859 58.9688 16.6806C59.4382 16.4679 59.8305 16.1599 60.1458 15.7566L60.4208 15.9876C60.0835 16.4129 59.7242 16.7392 59.3428 16.9666C58.9615 17.1939 58.5875 17.3479 58.2208 17.4286C57.8615 17.5166 57.5315 17.5606 57.2308 17.5606C56.6808 17.5606 56.1858 17.4616 55.7458 17.2636C55.3058 17.0656 54.9318 16.7906 54.6238 16.4386C54.3158 16.0792 54.0848 15.6649 53.9308 15.1956C53.7842 14.7189 53.7255 14.2056 53.7548 13.6556C53.7842 13.1349 53.8868 12.6289 54.0628 12.1376C54.2388 11.6462 54.4918 11.2026 54.8218 10.8066C55.1518 10.4106 55.5588 10.0952 56.0428 9.86058C56.5342 9.62592 57.0988 9.50858 57.7368 9.50858ZM62.2088 11.7636C62.5168 11.7636 62.7478 11.8699 62.9018 12.0826C63.0558 12.2879 63.1328 12.5629 63.1328 12.9076C63.1328 13.1276 63.1108 13.3806 63.0668 13.6666C63.0302 13.9452 62.9825 14.2459 62.9238 14.5686C62.8652 14.8912 62.8138 15.2176 62.7698 15.5476C62.7332 15.8702 62.7148 16.1856 62.7148 16.4936C62.7148 16.6402 62.7405 16.7539 62.7918 16.8346C62.8505 16.9152 62.9385 16.9556 63.0558 16.9556C63.1805 16.9556 63.3162 16.8749 63.4628 16.7136C63.6168 16.5522 63.7488 16.2772 63.8588 15.8886L64.1668 15.9546C64.1375 16.1086 64.0862 16.2772 64.0128 16.4606C63.9468 16.6366 63.8588 16.8052 63.7488 16.9666C63.6388 17.1206 63.5032 17.2489 63.3418 17.3516C63.1878 17.4542 63.0082 17.5056 62.8028 17.5056C62.4655 17.5056 62.2162 17.4176 62.0548 17.2416C61.8935 17.0656 61.8128 16.8089 61.8128 16.4716C61.8128 16.1489 61.8348 15.8372 61.8788 15.5366C61.9228 15.2286 61.9705 14.9279 62.0218 14.6346C62.0805 14.3339 62.1318 14.0332 62.1758 13.7326C62.2198 13.4319 62.2418 13.1239 62.2418 12.8086C62.2418 12.7132 62.2198 12.6069 62.1758 12.4896C62.1392 12.3722 62.0585 12.3136 61.9338 12.3136C61.8165 12.3136 61.6808 12.3942 61.5268 12.5556C61.3728 12.7169 61.2408 12.9919 61.1308 13.3806L60.8228 13.3146C60.8448 13.1826 60.8888 13.0322 60.9548 12.8636C61.0208 12.6876 61.1088 12.5152 61.2188 12.3466C61.3362 12.1779 61.4755 12.0386 61.6368 11.9286C61.7982 11.8186 61.9888 11.7636 62.2088 11.7636ZM62.8358 9.38758C63.0045 9.38758 63.1438 9.44625 63.2538 9.56358C63.3638 9.67358 63.4188 9.82392 63.4188 10.0146C63.4188 10.1979 63.3602 10.3482 63.2428 10.4656C63.1255 10.5756 62.9862 10.6306 62.8248 10.6306C62.6635 10.6306 62.5242 10.5756 62.4068 10.4656C62.2968 10.3482 62.2418 10.1979 62.2418 10.0146C62.2418 9.82392 62.3005 9.67358 62.4178 9.56358C62.5352 9.44625 62.6745 9.38758 62.8358 9.38758ZM66.6993 10.3336L66.5013 11.8846H68.2503L68.2173 12.3026L66.4573 12.3246C66.4279 12.6326 66.3913 12.9516 66.3473 13.2816C66.3106 13.6042 66.2776 13.9269 66.2483 14.2496C66.2189 14.5722 66.1933 14.8839 66.1713 15.1846C66.1493 15.4779 66.1383 15.7456 66.1383 15.9876C66.1383 16.1269 66.1456 16.2736 66.1603 16.4276C66.1823 16.5742 66.2299 16.6989 66.3033 16.8016C66.3766 16.8969 66.4939 16.9446 66.6553 16.9446C66.7286 16.9446 66.8166 16.9299 66.9193 16.9006C67.0293 16.8712 67.1503 16.8016 67.2823 16.6916C67.4143 16.5816 67.5499 16.4092 67.6893 16.1746L67.9753 16.3616C67.7626 16.7356 67.5316 17.0216 67.2823 17.2196C67.0403 17.4102 66.7433 17.5056 66.3913 17.5056C66.1053 17.5056 65.8779 17.4469 65.7093 17.3296C65.5479 17.2049 65.4306 17.0436 65.3573 16.8456C65.2839 16.6476 65.2473 16.4349 65.2473 16.2076C65.2473 15.9289 65.2583 15.5916 65.2803 15.1956C65.3023 14.7922 65.3353 14.3486 65.3793 13.8646C65.4233 13.3732 65.4746 12.8636 65.5333 12.3356L64.5543 12.3466L64.5873 11.8846C65.0933 11.8846 65.4673 11.7489 65.7093 11.4776C65.9513 11.2062 66.1419 10.8249 66.2813 10.3336H66.6993ZM69.0231 20.3656C68.7738 20.3509 68.5721 20.2776 68.4181 20.1456C68.2641 20.0209 68.1871 19.8632 68.1871 19.6726C68.1871 19.5039 68.2384 19.3756 68.3411 19.2876C68.4438 19.2069 68.5428 19.1666 68.6381 19.1666C68.9681 19.1666 69.1258 19.3572 69.1111 19.7386C69.1551 19.7606 69.1954 19.7789 69.2321 19.7936C69.2688 19.8082 69.3091 19.8156 69.3531 19.8156C69.5144 19.8229 69.6794 19.7642 69.8481 19.6396C70.0241 19.5149 70.1891 19.3572 70.3431 19.1666C70.5044 18.9832 70.6438 18.7999 70.7611 18.6166C70.8858 18.4406 70.9774 18.3049 71.0361 18.2096C70.9701 17.7842 70.8931 17.3479 70.8051 16.9006C70.7171 16.4459 70.6144 15.9949 70.4971 15.5476C70.3871 15.0929 70.2624 14.6566 70.1231 14.2386C69.9911 13.8132 69.8481 13.4136 69.6941 13.0396C69.6428 12.9149 69.5768 12.7866 69.4961 12.6546C69.4154 12.5226 69.3018 12.4639 69.1551 12.4786C69.0158 12.4932 68.9094 12.6032 68.8361 12.8086C68.7701 13.0139 68.7518 13.2852 68.7811 13.6226L68.4291 13.6666C68.4071 13.4686 68.4034 13.2596 68.4181 13.0396C68.4401 12.8196 68.4878 12.6142 68.5611 12.4236C68.6344 12.2256 68.7408 12.0679 68.8801 11.9506C69.0194 11.8259 69.2028 11.7636 69.4301 11.7636C69.6794 11.7636 69.8811 11.8296 70.0351 11.9616C70.1964 12.0936 70.3248 12.2549 70.4201 12.4456C70.5228 12.6362 70.6071 12.8232 70.6731 13.0066C70.8124 13.3806 70.9481 13.8096 71.0801 14.2936C71.2121 14.7776 71.3258 15.2726 71.4211 15.7786C71.5238 16.2772 71.6008 16.7429 71.6521 17.1756H71.6741C71.8794 16.8162 72.0774 16.4202 72.2681 15.9876C72.4588 15.5549 72.6164 15.1149 72.7411 14.6676C72.8658 14.2129 72.9281 13.7876 72.9281 13.3916C72.9281 13.2082 72.9098 13.0469 72.8731 12.9076C72.8438 12.7682 72.8071 12.6692 72.7631 12.6106C72.7338 12.6326 72.6934 12.6509 72.6421 12.6656C72.5981 12.6729 72.5468 12.6766 72.4881 12.6766C72.3561 12.6766 72.2498 12.6362 72.1691 12.5556C72.0884 12.4676 72.0481 12.3649 72.0481 12.2476C72.0481 12.0862 72.0994 11.9652 72.2021 11.8846C72.3121 11.8039 72.4331 11.7636 72.5651 11.7636C72.7924 11.7636 72.9684 11.8332 73.0931 11.9726C73.2178 12.1119 73.3058 12.2879 73.3571 12.5006C73.4158 12.7132 73.4451 12.9369 73.4451 13.1716C73.4451 13.6556 73.3754 14.1506 73.2361 14.6566C73.0968 15.1626 72.9134 15.6612 72.6861 16.1526C72.4661 16.6439 72.2314 17.1169 71.9821 17.5716C71.6154 18.2316 71.2634 18.7706 70.9261 19.1886C70.5961 19.6066 70.2734 19.9072 69.9581 20.0906C69.6428 20.2812 69.3311 20.3729 69.0231 20.3656ZM80.0051 11.7636C80.4011 11.7636 80.7568 11.8589 81.0721 12.0496C81.3875 12.2329 81.6368 12.5042 81.8201 12.8636C82.0035 13.2229 82.0951 13.6592 82.0951 14.1726C82.0951 14.7592 81.9888 15.3092 81.7761 15.8226C81.5635 16.3286 81.2555 16.7356 80.8521 17.0436C80.4561 17.3516 79.9721 17.5056 79.4001 17.5056C78.9161 17.5056 78.5165 17.3956 78.2011 17.1756C77.8931 16.9556 77.6621 16.6586 77.5081 16.2846C77.3615 15.9106 77.2881 15.4962 77.2881 15.0416C77.2881 14.4476 77.3945 13.9012 77.6071 13.4026C77.8271 12.9039 78.1388 12.5079 78.5421 12.2146C78.9528 11.9139 79.4405 11.7636 80.0051 11.7636ZM79.8401 12.1706C79.5175 12.1632 79.2388 12.2732 79.0041 12.5006C78.7695 12.7206 78.5861 13.0212 78.4541 13.4026C78.3295 13.7839 78.2635 14.2092 78.2561 14.6786C78.2488 14.9279 78.2635 15.1919 78.3001 15.4706C78.3368 15.7492 78.3991 16.0096 78.4871 16.2516C78.5825 16.4936 78.7108 16.6916 78.8721 16.8456C79.0408 16.9996 79.2498 17.0802 79.4991 17.0876C79.7925 17.0949 80.0418 17.0179 80.2471 16.8566C80.4525 16.6879 80.6175 16.4716 80.7421 16.2076C80.8668 15.9436 80.9585 15.6612 81.0171 15.3606C81.0831 15.0599 81.1198 14.7776 81.1271 14.5136C81.1345 14.2569 81.1198 13.9929 81.0831 13.7216C81.0538 13.4502 80.9915 13.1972 80.8961 12.9626C80.8008 12.7279 80.6688 12.5409 80.5001 12.4016C80.3315 12.2549 80.1115 12.1779 79.8401 12.1706ZM86.0715 9.02458C86.3428 9.01725 86.5518 9.06492 86.6985 9.16758C86.8451 9.26292 86.9185 9.40592 86.9185 9.59658C86.9185 9.64792 86.9038 9.71025 86.8745 9.78358C86.8525 9.85692 86.8085 9.91925 86.7425 9.97058C86.6765 10.0146 86.5885 10.0366 86.4785 10.0366C86.3391 10.0366 86.2291 9.98525 86.1485 9.88258C86.0678 9.77992 86.0311 9.64792 86.0385 9.48658C86.0165 9.47192 85.9725 9.46092 85.9065 9.45358C85.8405 9.43892 85.7781 9.43525 85.7195 9.44258C85.5435 9.45725 85.3968 9.53058 85.2795 9.66258C85.1695 9.78725 85.0778 9.95958 85.0045 10.1796C84.9311 10.3922 84.8725 10.6452 84.8285 10.9386C84.7845 11.2246 84.7478 11.5399 84.7185 11.8846H86.2805L86.2475 12.3136L84.6855 12.3356C84.6781 12.5262 84.6671 12.7206 84.6525 12.9186C84.6451 13.1166 84.6341 13.3219 84.6195 13.5346C84.6121 13.7399 84.6011 13.9489 84.5865 14.1616C84.5718 14.3669 84.5535 14.5759 84.5315 14.7886C84.4801 15.3239 84.4325 15.8592 84.3885 16.3946C84.3445 16.9226 84.2785 17.4249 84.1905 17.9016C84.1098 18.3782 83.9888 18.7999 83.8275 19.1666C83.6661 19.5406 83.4425 19.8339 83.1565 20.0466C82.8778 20.2592 82.5185 20.3656 82.0785 20.3656C81.7998 20.3656 81.5871 20.3142 81.4405 20.2116C81.2938 20.1162 81.2205 19.9769 81.2205 19.7936C81.2205 19.7349 81.2351 19.6689 81.2645 19.5956C81.2938 19.5296 81.3415 19.4672 81.4075 19.4086C81.4735 19.3572 81.5615 19.3352 81.6715 19.3426C81.8035 19.3499 81.9098 19.3976 81.9905 19.4856C82.0638 19.5809 82.1005 19.7019 82.1005 19.8486C82.1811 19.9072 82.2875 19.9366 82.4195 19.9366C82.6761 19.9366 82.8705 19.8009 83.0025 19.5296C83.1418 19.2582 83.2445 18.8806 83.3105 18.3966C83.3765 17.9199 83.4278 17.3662 83.4645 16.7356C83.5085 16.0976 83.5635 15.4156 83.6295 14.6896C83.6441 14.4916 83.6588 14.2936 83.6735 14.0956C83.6881 13.8976 83.7028 13.6996 83.7175 13.5016C83.7321 13.3036 83.7468 13.1092 83.7615 12.9186C83.7835 12.7206 83.8055 12.5299 83.8275 12.3466L82.8595 12.3576L82.9145 11.8846H83.8825C83.9631 11.3492 84.0805 10.8689 84.2345 10.4436C84.3885 10.0182 84.6121 9.67725 84.9055 9.42058C85.1988 9.16392 85.5875 9.03192 86.0715 9.02458ZM92.3623 9.66258C93.2129 9.66258 93.8619 9.81292 94.3093 10.1136C94.7639 10.4142 94.9693 10.8909 94.9253 11.5436C94.9106 11.7782 94.8336 12.0129 94.6943 12.2476C94.5549 12.4822 94.3496 12.6912 94.0783 12.8746C93.8069 13.0506 93.4659 13.1752 93.0553 13.2486V13.2706C93.8619 13.2706 94.4559 13.4576 94.8373 13.8316C95.2186 14.1982 95.3909 14.6639 95.3543 15.2286C95.3323 15.6759 95.2003 16.0609 94.9583 16.3836C94.7236 16.7062 94.4083 16.9556 94.0123 17.1316C93.6236 17.3002 93.1799 17.3846 92.6813 17.3846H89.5023L89.5243 17.0216C89.8029 17.0142 89.9973 16.9519 90.1073 16.8346C90.2173 16.7099 90.2833 16.5449 90.3053 16.3396C90.3273 16.1269 90.3456 15.8849 90.3603 15.6136L90.6023 10.9936C90.6096 10.7956 90.6206 10.6269 90.6353 10.4876C90.6499 10.3409 90.6646 10.2199 90.6793 10.1246C90.5473 10.1319 90.4116 10.1392 90.2723 10.1466C90.1403 10.1539 90.0083 10.1612 89.8763 10.1686L89.9093 9.68458C90.3126 9.68458 90.7123 9.68092 91.1083 9.67358C91.5043 9.66625 91.9223 9.66258 92.3623 9.66258ZM92.5163 13.5676C92.2963 13.5676 92.0946 13.5712 91.9113 13.5786C91.7353 13.5786 91.5593 13.5859 91.3833 13.6006L91.2513 16.0756C91.2439 16.2736 91.2329 16.4422 91.2183 16.5816C91.2036 16.7209 91.1889 16.8382 91.1743 16.9336C91.2916 16.9409 91.4309 16.9482 91.5923 16.9556C91.7609 16.9556 91.9149 16.9556 92.0543 16.9556C92.2009 16.9556 92.2963 16.9556 92.3403 16.9556C92.9049 16.9556 93.3669 16.8162 93.7263 16.5376C94.0929 16.2589 94.2909 15.8446 94.3203 15.2946C94.3423 14.8619 94.2689 14.5209 94.1003 14.2716C93.9389 14.0149 93.7189 13.8352 93.4403 13.7326C93.1616 13.6226 92.8536 13.5676 92.5163 13.5676ZM92.3953 10.0586C92.1606 10.0586 91.9809 10.0916 91.8563 10.1576C91.7389 10.2236 91.6546 10.3336 91.6033 10.4876C91.5593 10.6416 91.5299 10.8542 91.5153 11.1256L91.4053 13.1716C91.5446 13.1716 91.6839 13.1716 91.8233 13.1716C91.9626 13.1642 92.0909 13.1569 92.2083 13.1496C92.6263 13.1276 92.9599 13.0359 93.2093 12.8746C93.4659 12.7132 93.6529 12.5116 93.7703 12.2696C93.8876 12.0202 93.9499 11.7599 93.9573 11.4886C93.9719 11.0926 93.8986 10.7919 93.7373 10.5866C93.5759 10.3812 93.3706 10.2419 93.1213 10.1686C92.8793 10.0952 92.6373 10.0586 92.3953 10.0586ZM99.0188 11.7636C99.4148 11.7636 99.7705 11.8589 100.086 12.0496C100.401 12.2329 100.65 12.5042 100.834 12.8636C101.017 13.2229 101.109 13.6592 101.109 14.1726C101.109 14.7592 101.002 15.3092 100.79 15.8226C100.577 16.3286 100.269 16.7356 99.8658 17.0436C99.4698 17.3516 98.9858 17.5056 98.4138 17.5056C97.9298 17.5056 97.5301 17.3956 97.2148 17.1756C96.9068 16.9556 96.6758 16.6586 96.5218 16.2846C96.3751 15.9106 96.3018 15.4962 96.3018 15.0416C96.3018 14.4476 96.4081 13.9012 96.6208 13.4026C96.8408 12.9039 97.1525 12.5079 97.5558 12.2146C97.9665 11.9139 98.4541 11.7636 99.0188 11.7636ZM98.8538 12.1706C98.5311 12.1632 98.2525 12.2732 98.0178 12.5006C97.7831 12.7206 97.5998 13.0212 97.4678 13.4026C97.3431 13.7839 97.2771 14.2092 97.2698 14.6786C97.2625 14.9279 97.2771 15.1919 97.3138 15.4706C97.3505 15.7492 97.4128 16.0096 97.5008 16.2516C97.5961 16.4936 97.7245 16.6916 97.8858 16.8456C98.0545 16.9996 98.2635 17.0802 98.5128 17.0876C98.8061 17.0949 99.0555 17.0179 99.2608 16.8566C99.4661 16.6879 99.6311 16.4716 99.7558 16.2076C99.8805 15.9436 99.9721 15.6612 100.031 15.3606C100.097 15.0599 100.133 14.7776 100.141 14.5136C100.148 14.2569 100.133 13.9929 100.097 13.7216C100.067 13.4502 100.005 13.1972 99.9098 12.9626C99.8145 12.7279 99.6825 12.5409 99.5138 12.4016C99.3451 12.2549 99.1251 12.1779 98.8538 12.1706ZM103.699 17.5056C103.406 17.5056 103.123 17.4616 102.852 17.3736C102.581 17.2782 102.361 17.1426 102.192 16.9666C102.023 16.7906 101.939 16.5779 101.939 16.3286C101.939 16.1672 101.983 16.0389 102.071 15.9436C102.166 15.8409 102.28 15.7896 102.412 15.7896C102.559 15.7896 102.669 15.8372 102.742 15.9326C102.823 16.0279 102.863 16.1342 102.863 16.2516C102.863 16.3029 102.856 16.3579 102.841 16.4166C102.826 16.4752 102.801 16.5339 102.764 16.5926C102.823 16.7539 102.94 16.8786 103.116 16.9666C103.292 17.0546 103.479 17.0986 103.677 17.0986C104.073 17.0986 104.37 17.0069 104.568 16.8236C104.766 16.6402 104.865 16.3836 104.865 16.0536C104.865 15.8556 104.795 15.6796 104.656 15.5256C104.517 15.3716 104.341 15.2286 104.128 15.0966C103.915 14.9572 103.695 14.8216 103.468 14.6896C103.255 14.5576 103.05 14.4219 102.852 14.2826C102.661 14.1432 102.504 13.9892 102.379 13.8206C102.262 13.6519 102.203 13.4612 102.203 13.2486C102.203 12.9772 102.284 12.7316 102.445 12.5116C102.606 12.2842 102.83 12.1046 103.116 11.9726C103.402 11.8332 103.732 11.7636 104.106 11.7636C104.385 11.7636 104.645 11.8076 104.887 11.8956C105.136 11.9836 105.338 12.1082 105.492 12.2696C105.653 12.4309 105.734 12.6216 105.734 12.8416C105.734 12.9956 105.69 13.1202 105.602 13.2156C105.514 13.3036 105.404 13.3476 105.272 13.3476C105.14 13.3476 105.034 13.3036 104.953 13.2156C104.872 13.1276 104.832 13.0249 104.832 12.9076C104.832 12.8489 104.839 12.7939 104.854 12.7426C104.869 12.6839 104.894 12.6252 104.931 12.5666C104.894 12.4419 104.803 12.3392 104.656 12.2586C104.517 12.1706 104.322 12.1266 104.073 12.1266C103.912 12.1266 103.754 12.1632 103.6 12.2366C103.446 12.3099 103.318 12.4126 103.215 12.5446C103.112 12.6692 103.061 12.8196 103.061 12.9956C103.061 13.1349 103.101 13.2632 103.182 13.3806C103.27 13.4979 103.384 13.6079 103.523 13.7106C103.662 13.8132 103.813 13.9159 103.974 14.0186C104.238 14.1726 104.509 14.3376 104.788 14.5136C105.067 14.6822 105.298 14.8766 105.481 15.0966C105.672 15.3166 105.767 15.5842 105.767 15.8996C105.767 16.2076 105.679 16.4826 105.503 16.7246C105.334 16.9666 105.092 17.1572 104.777 17.2966C104.469 17.4359 104.11 17.5056 103.699 17.5056ZM108.701 10.3336L108.503 11.8846H110.252L110.219 12.3026L108.459 12.3246C108.43 12.6326 108.393 12.9516 108.349 13.2816C108.313 13.6042 108.28 13.9269 108.25 14.2496C108.221 14.5722 108.195 14.8839 108.173 15.1846C108.151 15.4779 108.14 15.7456 108.14 15.9876C108.14 16.1269 108.148 16.2736 108.162 16.4276C108.184 16.5742 108.232 16.6989 108.305 16.8016C108.379 16.8969 108.496 16.9446 108.657 16.9446C108.731 16.9446 108.819 16.9299 108.921 16.9006C109.031 16.8712 109.152 16.8016 109.284 16.6916C109.416 16.5816 109.552 16.4092 109.691 16.1746L109.977 16.3616C109.765 16.7356 109.534 17.0216 109.284 17.2196C109.042 17.4102 108.745 17.5056 108.393 17.5056C108.107 17.5056 107.88 17.4469 107.711 17.3296C107.55 17.2049 107.433 17.0436 107.359 16.8456C107.286 16.6476 107.249 16.4349 107.249 16.2076C107.249 15.9289 107.26 15.5916 107.282 15.1956C107.304 14.7922 107.337 14.3486 107.381 13.8646C107.425 13.3732 107.477 12.8636 107.535 12.3356L106.556 12.3466L106.589 11.8846C107.095 11.8846 107.469 11.7489 107.711 11.4776C107.953 11.2062 108.144 10.8249 108.283 10.3336H108.701ZM113.467 11.7636C113.863 11.7636 114.219 11.8589 114.534 12.0496C114.849 12.2329 115.099 12.5042 115.282 12.8636C115.465 13.2229 115.557 13.6592 115.557 14.1726C115.557 14.7592 115.451 15.3092 115.238 15.8226C115.025 16.3286 114.717 16.7356 114.314 17.0436C113.918 17.3516 113.434 17.5056 112.862 17.5056C112.378 17.5056 111.978 17.3956 111.663 17.1756C111.355 16.9556 111.124 16.6586 110.97 16.2846C110.823 15.9106 110.75 15.4962 110.75 15.0416C110.75 14.4476 110.856 13.9012 111.069 13.4026C111.289 12.9039 111.601 12.5079 112.004 12.2146C112.415 11.9139 112.902 11.7636 113.467 11.7636ZM113.302 12.1706C112.979 12.1632 112.701 12.2732 112.466 12.5006C112.231 12.7206 112.048 13.0212 111.916 13.4026C111.791 13.7839 111.725 14.2092 111.718 14.6786C111.711 14.9279 111.725 15.1919 111.762 15.4706C111.799 15.7492 111.861 16.0096 111.949 16.2516C112.044 16.4936 112.173 16.6916 112.334 16.8456C112.503 16.9996 112.712 17.0802 112.961 17.0876C113.254 17.0949 113.504 17.0179 113.709 16.8566C113.914 16.6879 114.079 16.4716 114.204 16.2076C114.329 15.9436 114.42 15.6612 114.479 15.3606C114.545 15.0599 114.582 14.7776 114.589 14.5136C114.596 14.2569 114.582 13.9929 114.545 13.7216C114.516 13.4502 114.453 13.1972 114.358 12.9626C114.263 12.7279 114.131 12.5409 113.962 12.4016C113.793 12.2549 113.573 12.1779 113.302 12.1706ZM121.26 17.5056C120.916 17.5056 120.681 17.4139 120.556 17.2306C120.432 17.0472 120.369 16.7869 120.369 16.4496C120.369 16.2442 120.384 16.0022 120.413 15.7236C120.45 15.4449 120.49 15.1479 120.534 14.8326C120.586 14.5172 120.626 14.1982 120.655 13.8756C120.692 13.5529 120.71 13.2449 120.71 12.9516C120.71 12.8636 120.696 12.7682 120.666 12.6656C120.644 12.5629 120.597 12.4749 120.523 12.4016C120.45 12.3209 120.34 12.2806 120.193 12.2806C119.988 12.2806 119.783 12.3759 119.577 12.5666C119.372 12.7572 119.178 13.0139 118.994 13.3366C118.811 13.6592 118.646 14.0186 118.499 14.4146C118.353 14.8032 118.235 15.2066 118.147 15.6246C118.067 16.0352 118.026 16.4276 118.026 16.8016C118.026 16.9116 118.026 17.0142 118.026 17.1096C118.034 17.1976 118.041 17.2892 118.048 17.3846H117.124C117.117 17.3332 117.113 17.2892 117.113 17.2526C117.113 17.2086 117.113 17.1572 117.113 17.0986C117.113 16.9739 117.121 16.8309 117.135 16.6696C117.15 16.5009 117.172 16.2809 117.201 16.0096C117.238 15.7309 117.282 15.3606 117.333 14.8986C117.385 14.4659 117.421 14.1286 117.443 13.8866C117.473 13.6446 117.495 13.4612 117.509 13.3366C117.524 13.2046 117.531 13.1056 117.531 13.0396C117.539 12.9662 117.542 12.8892 117.542 12.8086C117.542 12.6766 117.524 12.5629 117.487 12.4676C117.451 12.3649 117.37 12.3136 117.245 12.3136C117.128 12.3136 116.992 12.3942 116.838 12.5556C116.684 12.7169 116.552 12.9919 116.442 13.3806L116.134 13.3146C116.156 13.1826 116.2 13.0322 116.266 12.8636C116.34 12.6876 116.435 12.5152 116.552 12.3466C116.67 12.1779 116.813 12.0386 116.981 11.9286C117.15 11.8186 117.344 11.7636 117.564 11.7636C117.814 11.7636 117.997 11.8332 118.114 11.9726C118.239 12.1046 118.316 12.2769 118.345 12.4896C118.382 12.7022 118.393 12.9296 118.378 13.1716C118.364 13.3769 118.338 13.5749 118.301 13.7656C118.272 13.9562 118.243 14.1249 118.213 14.2716H118.246C118.496 13.6042 118.741 13.0909 118.983 12.7316C119.225 12.3649 119.464 12.1119 119.698 11.9726C119.94 11.8332 120.179 11.7636 120.413 11.7636C120.707 11.7636 120.941 11.8296 121.117 11.9616C121.293 12.0936 121.418 12.2696 121.491 12.4896C121.572 12.7022 121.612 12.9369 121.612 13.1936C121.612 13.5969 121.583 14.0112 121.524 14.4366C121.473 14.8546 121.418 15.2432 121.359 15.6026C121.308 15.9546 121.282 16.2369 121.282 16.4496C121.282 16.5816 121.297 16.6989 121.326 16.8016C121.363 16.9042 121.447 16.9556 121.579 16.9556C121.704 16.9556 121.84 16.8786 121.986 16.7246C122.14 16.5632 122.272 16.2846 122.382 15.8886L122.69 15.9656C122.668 16.0902 122.621 16.2406 122.547 16.4166C122.481 16.5926 122.39 16.7649 122.272 16.9336C122.155 17.0949 122.012 17.2306 121.843 17.3406C121.675 17.4506 121.48 17.5056 121.26 17.5056ZM57.7478 23.5086C58.3932 23.5086 58.9468 23.6222 59.4088 23.8496C59.8708 24.0769 60.2485 24.3776 60.5418 24.7516C60.8425 25.1182 61.0625 25.5289 61.2018 25.9836C61.3412 26.4309 61.4108 26.8782 61.4108 27.3256C61.4108 27.7949 61.3265 28.2789 61.1578 28.7776C60.9965 29.2689 60.7508 29.7272 60.4208 30.1526C60.0908 30.5706 59.6728 30.9116 59.1668 31.1756C58.6682 31.4322 58.0815 31.5606 57.4068 31.5606C56.7615 31.5606 56.2078 31.4506 55.7458 31.2306C55.2838 31.0032 54.9025 30.7062 54.6018 30.3396C54.3085 29.9729 54.0922 29.5696 53.9528 29.1296C53.8135 28.6822 53.7438 28.2349 53.7438 27.7876C53.7438 27.2229 53.8355 26.6839 54.0188 26.1706C54.2095 25.6572 54.4808 25.2026 54.8328 24.8066C55.1848 24.4032 55.6065 24.0879 56.0978 23.8606C56.5892 23.6259 57.1392 23.5086 57.7478 23.5086ZM57.6928 23.9486C57.2308 23.9486 56.8202 24.0549 56.4608 24.2676C56.1088 24.4802 55.8082 24.7626 55.5588 25.1146C55.3168 25.4666 55.1298 25.8552 54.9978 26.2806C54.8658 26.6986 54.7998 27.1202 54.7998 27.5456C54.7925 27.9196 54.8365 28.3156 54.9318 28.7336C55.0272 29.1442 55.1775 29.5292 55.3828 29.8886C55.5955 30.2479 55.8705 30.5412 56.2078 30.7686C56.5525 30.9959 56.9705 31.1096 57.4618 31.1096C57.9385 31.1096 58.3565 31.0032 58.7158 30.7906C59.0752 30.5779 59.3758 30.2956 59.6178 29.9436C59.8598 29.5842 60.0432 29.1919 60.1678 28.7666C60.2925 28.3412 60.3548 27.9196 60.3548 27.5016C60.3548 27.0689 60.2962 26.6436 60.1788 26.2256C60.0688 25.8002 59.9002 25.4189 59.6728 25.0816C59.4528 24.7369 59.1778 24.4619 58.8478 24.2566C58.5178 24.0512 58.1328 23.9486 57.6928 23.9486ZM65.3498 23.0246C65.6211 23.0172 65.8301 23.0649 65.9768 23.1676C66.1234 23.2629 66.1968 23.4059 66.1968 23.5966C66.1968 23.6479 66.1821 23.7102 66.1528 23.7836C66.1308 23.8569 66.0868 23.9192 66.0208 23.9706C65.9548 24.0146 65.8668 24.0366 65.7568 24.0366C65.6174 24.0366 65.5074 23.9852 65.4268 23.8826C65.3461 23.7799 65.3094 23.6479 65.3168 23.4866C65.2948 23.4719 65.2508 23.4609 65.1848 23.4536C65.1188 23.4389 65.0564 23.4352 64.9978 23.4426C64.8218 23.4572 64.6751 23.5306 64.5578 23.6626C64.4478 23.7872 64.3561 23.9596 64.2828 24.1796C64.2094 24.3922 64.1508 24.6452 64.1068 24.9386C64.0628 25.2246 64.0261 25.5399 63.9968 25.8846H65.5588L65.5258 26.3136L63.9638 26.3356C63.9564 26.5262 63.9454 26.7206 63.9308 26.9186C63.9234 27.1166 63.9124 27.3219 63.8978 27.5346C63.8904 27.7399 63.8794 27.9489 63.8648 28.1616C63.8501 28.3669 63.8318 28.5759 63.8098 28.7886C63.7584 29.3239 63.7108 29.8592 63.6668 30.3946C63.6228 30.9226 63.5568 31.4249 63.4688 31.9016C63.3881 32.3782 63.2671 32.7999 63.1058 33.1666C62.9444 33.5406 62.7208 33.8339 62.4348 34.0466C62.1561 34.2592 61.7968 34.3656 61.3568 34.3656C61.0781 34.3656 60.8654 34.3142 60.7188 34.2116C60.5721 34.1162 60.4988 33.9769 60.4988 33.7936C60.4988 33.7349 60.5134 33.6689 60.5428 33.5956C60.5721 33.5296 60.6198 33.4672 60.6858 33.4086C60.7518 33.3572 60.8398 33.3352 60.9498 33.3426C61.0818 33.3499 61.1881 33.3976 61.2688 33.4856C61.3421 33.5809 61.3788 33.7019 61.3788 33.8486C61.4594 33.9072 61.5658 33.9366 61.6978 33.9366C61.9544 33.9366 62.1488 33.8009 62.2808 33.5296C62.4201 33.2582 62.5228 32.8806 62.5888 32.3966C62.6548 31.9199 62.7061 31.3662 62.7428 30.7356C62.7868 30.0976 62.8418 29.4156 62.9078 28.6896C62.9224 28.4916 62.9371 28.2936 62.9518 28.0956C62.9664 27.8976 62.9811 27.6996 62.9958 27.5016C63.0104 27.3036 63.0251 27.1092 63.0398 26.9186C63.0618 26.7206 63.0838 26.5299 63.1058 26.3466L62.1378 26.3576L62.1928 25.8846H63.1608C63.2414 25.3492 63.3588 24.8689 63.5128 24.4436C63.6668 24.0182 63.8904 23.6772 64.1838 23.4206C64.4771 23.1639 64.8658 23.0319 65.3498 23.0246ZM64.9339 34.3656C64.6553 34.3656 64.4426 34.3142 64.2959 34.2116C64.1493 34.1162 64.0759 33.9769 64.0759 33.7936C64.0759 33.7349 64.0906 33.6689 64.1199 33.5956C64.1493 33.5296 64.1969 33.4672 64.2629 33.4086C64.3289 33.3572 64.4169 33.3352 64.5269 33.3426C64.6369 33.3499 64.7323 33.3866 64.8129 33.4526C64.8936 33.5186 64.9339 33.6102 64.9339 33.7276C64.9339 33.7496 64.9266 33.7899 64.9119 33.8486C64.9706 33.8779 65.0256 33.8999 65.0769 33.9146C65.1283 33.9292 65.1979 33.9366 65.2859 33.9366C65.4619 33.9366 65.6049 33.8706 65.7149 33.7386C65.8323 33.6139 65.9239 33.4416 65.9899 33.2216C66.0633 33.0016 66.1183 32.7486 66.1549 32.4626C66.1989 32.1766 66.2393 31.8796 66.2759 31.5716C66.3126 31.1756 66.3456 30.7502 66.3749 30.2956C66.4116 29.8409 66.4446 29.3826 66.4739 28.9206C66.5033 28.4512 66.5326 28.0002 66.5619 27.5676C66.5913 27.1276 66.6279 26.7206 66.6719 26.3466L65.7149 26.3576L65.7699 25.8846H66.7269C66.8809 24.9239 67.1633 24.2126 67.5739 23.7506C67.9846 23.2886 68.5676 23.0466 69.3229 23.0246C69.5869 23.0246 69.8326 23.0612 70.0599 23.1346C70.2946 23.2079 70.4999 23.3069 70.6759 23.4316C70.8519 23.5489 70.9876 23.6846 71.0829 23.8386C71.1783 23.9852 71.2223 24.1392 71.2149 24.3006C71.2149 24.4106 71.1893 24.5059 71.1379 24.5866C71.0866 24.6599 71.0206 24.7149 70.9399 24.7516C70.8666 24.7882 70.7859 24.8029 70.6979 24.7956C70.5659 24.7809 70.4633 24.7369 70.3899 24.6636C70.3166 24.5829 70.2726 24.4949 70.2579 24.3996C70.2433 24.2749 70.2653 24.1392 70.3239 23.9926C70.2799 23.8019 70.1406 23.6479 69.9059 23.5306C69.6713 23.4059 69.4219 23.3509 69.1579 23.3656C68.8133 23.3729 68.5309 23.4646 68.3109 23.6406C68.0909 23.8092 67.9223 24.0769 67.8049 24.4436C67.6949 24.8102 67.6179 25.2906 67.5739 25.8846H69.1359L69.1029 26.3136L67.5409 26.3356C67.4969 26.9956 67.4566 27.5969 67.4199 28.1396C67.3833 28.6822 67.3466 29.1662 67.3099 29.5916C67.2806 30.0169 67.2513 30.3909 67.2219 30.7136C67.1999 31.0289 67.1706 31.2929 67.1339 31.5056C67.0533 32.0262 66.9286 32.5029 66.7599 32.9356C66.5986 33.3756 66.3713 33.7239 66.0779 33.9806C65.7846 34.2372 65.4033 34.3656 64.9339 34.3656ZM71.0279 31.5056C70.6906 31.5056 70.4413 31.4176 70.2799 31.2416C70.1186 31.0656 70.0379 30.8089 70.0379 30.4716C70.0379 30.1489 70.0599 29.8372 70.1039 29.5366C70.1479 29.2286 70.1956 28.9279 70.2469 28.6346C70.3056 28.3339 70.3569 28.0332 70.4009 27.7326C70.4449 27.4319 70.4669 27.1239 70.4669 26.8086C70.4669 26.7132 70.4449 26.6069 70.4009 26.4896C70.3643 26.3722 70.2836 26.3136 70.1589 26.3136C70.0416 26.3136 69.9059 26.3942 69.7519 26.5556C69.5979 26.7169 69.4659 26.9919 69.3559 27.3806L69.0479 27.3146C69.0699 27.1826 69.1139 27.0322 69.1799 26.8636C69.2459 26.6876 69.3339 26.5152 69.4439 26.3466C69.5613 26.1779 69.7006 26.0386 69.8619 25.9286C70.0233 25.8186 70.2139 25.7636 70.4339 25.7636C70.7419 25.7636 70.9729 25.8699 71.1269 26.0826C71.2809 26.2879 71.3579 26.5629 71.3579 26.9076C71.3579 27.1276 71.3359 27.3806 71.2919 27.6666C71.2553 27.9452 71.2076 28.2459 71.1489 28.5686C71.0903 28.8912 71.0389 29.2176 70.9949 29.5476C70.9583 29.8702 70.9399 30.1856 70.9399 30.4936C70.9399 30.6402 70.9656 30.7539 71.0169 30.8346C71.0756 30.9152 71.1636 30.9556 71.2809 30.9556C71.4056 30.9556 71.5413 30.8749 71.6879 30.7136C71.8419 30.5522 71.9739 30.2772 72.0839 29.8886L72.3919 29.9546C72.3626 30.1086 72.3113 30.2772 72.2379 30.4606C72.1719 30.6366 72.0839 30.8052 71.9739 30.9666C71.8639 31.1206 71.7283 31.2489 71.5669 31.3516C71.4129 31.4542 71.2333 31.5056 71.0279 31.5056ZM75.5773 25.7636C75.8926 25.7636 76.175 25.8222 76.4243 25.9396C76.6736 26.0496 76.868 26.2036 77.0073 26.4016C77.154 26.5922 77.2273 26.8086 77.2273 27.0506C77.2273 27.2119 77.187 27.3439 77.1063 27.4466C77.0256 27.5419 76.912 27.5896 76.7653 27.5896C76.5893 27.5969 76.4646 27.5456 76.3913 27.4356C76.3253 27.3256 76.2923 27.2302 76.2923 27.1496C76.2923 27.0836 76.2996 27.0139 76.3143 26.9406C76.3363 26.8672 76.3766 26.7976 76.4353 26.7316C76.3986 26.5262 76.296 26.3796 76.1273 26.2916C75.966 26.1962 75.779 26.1486 75.5663 26.1486C75.251 26.1486 74.987 26.2329 74.7743 26.4016C74.5616 26.5702 74.393 26.7902 74.2683 27.0616C74.1436 27.3329 74.052 27.6262 73.9933 27.9416C73.942 28.2496 73.9163 28.5502 73.9163 28.8436C73.9163 29.3569 73.9713 29.7712 74.0813 30.0866C74.1986 30.3946 74.36 30.6182 74.5653 30.7576C74.7706 30.8969 75.0016 30.9666 75.2583 30.9666C75.449 30.9666 75.647 30.9262 75.8523 30.8456C76.0576 30.7576 76.2556 30.6146 76.4463 30.4166C76.637 30.2112 76.802 29.9326 76.9413 29.5806L77.3263 29.7676C77.143 30.1929 76.9303 30.5339 76.6883 30.7906C76.4463 31.0399 76.186 31.2232 75.9073 31.3406C75.636 31.4506 75.3573 31.5056 75.0713 31.5056C74.426 31.5056 73.909 31.3112 73.5203 30.9226C73.139 30.5266 72.9483 29.9179 72.9483 29.0966C72.9483 28.7372 72.9996 28.3632 73.1023 27.9746C73.205 27.5859 73.3626 27.2266 73.5753 26.8966C73.788 26.5592 74.0593 26.2879 74.3893 26.0826C74.7266 25.8699 75.1226 25.7636 75.5773 25.7636ZM80.8205 25.7636C81.0845 25.7636 81.3338 25.8039 81.5685 25.8846C81.8032 25.9652 81.9938 26.0972 82.1405 26.2806C82.2872 26.4639 82.3605 26.7132 82.3605 27.0286C82.3605 27.3292 82.2578 27.5896 82.0525 27.8096C81.8472 28.0296 81.5795 28.2129 81.2495 28.3596C80.9195 28.4989 80.5675 28.6126 80.1935 28.7006C79.8195 28.7886 79.4602 28.8509 79.1155 28.8876C79.1155 29.3422 79.1595 29.7236 79.2475 30.0316C79.3428 30.3396 79.4822 30.5706 79.6655 30.7246C79.8488 30.8786 80.0835 30.9556 80.3695 30.9556C80.5822 30.9556 80.7948 30.9079 81.0075 30.8126C81.2275 30.7172 81.4365 30.5742 81.6345 30.3836C81.8325 30.1856 82.0122 29.9326 82.1735 29.6246L82.5365 29.8336C82.3312 30.2149 82.1112 30.5302 81.8765 30.7796C81.6418 31.0289 81.3852 31.2122 81.1065 31.3296C80.8278 31.4469 80.5198 31.5056 80.1825 31.5056C79.4858 31.5056 78.9725 31.2892 78.6425 30.8566C78.3125 30.4166 78.1475 29.8409 78.1475 29.1296C78.1475 28.7042 78.2025 28.2899 78.3125 27.8866C78.4225 27.4832 78.5875 27.1239 78.8075 26.8086C79.0275 26.4859 79.3062 26.2329 79.6435 26.0496C79.9808 25.8589 80.3732 25.7636 80.8205 25.7636ZM80.6665 26.1376C80.3292 26.1376 80.0505 26.2512 79.8305 26.4786C79.6178 26.7059 79.4528 26.9992 79.3355 27.3586C79.2255 27.7179 79.1558 28.0956 79.1265 28.4916C79.5152 28.4402 79.8855 28.3486 80.2375 28.2166C80.5895 28.0846 80.8792 27.9159 81.1065 27.7106C81.3338 27.4979 81.4475 27.2522 81.4475 26.9736C81.4475 26.7389 81.3815 26.5409 81.2495 26.3796C81.1248 26.2182 80.9305 26.1376 80.6665 26.1376ZM88.9963 25.7636C89.3923 25.7636 89.748 25.8589 90.0633 26.0496C90.3787 26.2329 90.628 26.5042 90.8113 26.8636C90.9947 27.2229 91.0863 27.6592 91.0863 28.1726C91.0863 28.7592 90.98 29.3092 90.7673 29.8226C90.5547 30.3286 90.2467 30.7356 89.8433 31.0436C89.4473 31.3516 88.9633 31.5056 88.3913 31.5056C87.9073 31.5056 87.5077 31.3956 87.1923 31.1756C86.8843 30.9556 86.6533 30.6586 86.4993 30.2846C86.3527 29.9106 86.2793 29.4962 86.2793 29.0416C86.2793 28.4476 86.3857 27.9012 86.5983 27.4026C86.8183 26.9039 87.13 26.5079 87.5333 26.2146C87.944 25.9139 88.4317 25.7636 88.9963 25.7636ZM88.8313 26.1706C88.5087 26.1632 88.23 26.2732 87.9953 26.5006C87.7607 26.7206 87.5773 27.0212 87.4453 27.4026C87.3207 27.7839 87.2547 28.2092 87.2473 28.6786C87.24 28.9279 87.2547 29.1919 87.2913 29.4706C87.328 29.7492 87.3903 30.0096 87.4783 30.2516C87.5737 30.4936 87.702 30.6916 87.8633 30.8456C88.032 30.9996 88.241 31.0802 88.4903 31.0876C88.7837 31.0949 89.033 31.0179 89.2383 30.8566C89.4437 30.6879 89.6087 30.4716 89.7333 30.2076C89.858 29.9436 89.9497 29.6612 90.0083 29.3606C90.0743 29.0599 90.111 28.7776 90.1183 28.5136C90.1257 28.2569 90.111 27.9929 90.0743 27.7216C90.045 27.4502 89.9827 27.1972 89.8873 26.9626C89.792 26.7279 89.66 26.5409 89.4913 26.4016C89.3227 26.2549 89.1027 26.1779 88.8313 26.1706ZM95.0627 23.0246C95.334 23.0172 95.543 23.0649 95.6897 23.1676C95.8363 23.2629 95.9097 23.4059 95.9097 23.5966C95.9097 23.6479 95.895 23.7102 95.8657 23.7836C95.8437 23.8569 95.7997 23.9192 95.7337 23.9706C95.6677 24.0146 95.5797 24.0366 95.4697 24.0366C95.3303 24.0366 95.2203 23.9852 95.1397 23.8826C95.059 23.7799 95.0223 23.6479 95.0297 23.4866C95.0077 23.4719 94.9637 23.4609 94.8977 23.4536C94.8317 23.4389 94.7693 23.4352 94.7107 23.4426C94.5347 23.4572 94.388 23.5306 94.2707 23.6626C94.1607 23.7872 94.069 23.9596 93.9957 24.1796C93.9223 24.3922 93.8637 24.6452 93.8197 24.9386C93.7757 25.2246 93.739 25.5399 93.7097 25.8846H95.2717L95.2387 26.3136L93.6767 26.3356C93.6693 26.5262 93.6583 26.7206 93.6437 26.9186C93.6363 27.1166 93.6253 27.3219 93.6107 27.5346C93.6033 27.7399 93.5923 27.9489 93.5777 28.1616C93.563 28.3669 93.5447 28.5759 93.5227 28.7886C93.4713 29.3239 93.4237 29.8592 93.3797 30.3946C93.3357 30.9226 93.2697 31.4249 93.1817 31.9016C93.101 32.3782 92.98 32.7999 92.8187 33.1666C92.6573 33.5406 92.4337 33.8339 92.1477 34.0466C91.869 34.2592 91.5097 34.3656 91.0697 34.3656C90.791 34.3656 90.5783 34.3142 90.4317 34.2116C90.285 34.1162 90.2117 33.9769 90.2117 33.7936C90.2117 33.7349 90.2263 33.6689 90.2557 33.5956C90.285 33.5296 90.3327 33.4672 90.3987 33.4086C90.4647 33.3572 90.5527 33.3352 90.6627 33.3426C90.7947 33.3499 90.901 33.3976 90.9817 33.4856C91.055 33.5809 91.0917 33.7019 91.0917 33.8486C91.1723 33.9072 91.2787 33.9366 91.4107 33.9366C91.6673 33.9366 91.8617 33.8009 91.9937 33.5296C92.133 33.2582 92.2357 32.8806 92.3017 32.3966C92.3677 31.9199 92.419 31.3662 92.4557 30.7356C92.4997 30.0976 92.5547 29.4156 92.6207 28.6896C92.6353 28.4916 92.65 28.2936 92.6647 28.0956C92.6793 27.8976 92.694 27.6996 92.7087 27.5016C92.7233 27.3036 92.738 27.1092 92.7527 26.9186C92.7747 26.7206 92.7967 26.5299 92.8187 26.3466L91.8507 26.3576L91.9057 25.8846H92.8737C92.9543 25.3492 93.0717 24.8689 93.2257 24.4436C93.3797 24.0182 93.6033 23.6772 93.8967 23.4206C94.19 23.1639 94.5787 23.0319 95.0627 23.0246ZM104.158 23.6846L104.114 25.6096H103.751C103.773 25.1769 103.722 24.8506 103.597 24.6306C103.48 24.4032 103.311 24.2529 103.091 24.1796C102.871 24.0989 102.622 24.0622 102.343 24.0696L101.397 24.0916C101.126 24.0989 100.928 24.1502 100.803 24.2456C100.686 24.3409 100.609 24.4839 100.572 24.6746C100.543 24.8579 100.517 25.0999 100.495 25.4006L100.396 27.1606L101.188 27.1716C101.496 27.1716 101.749 27.1532 101.947 27.1166C102.145 27.0799 102.292 26.9882 102.387 26.8416C102.49 26.6949 102.549 26.4602 102.563 26.1376H102.926L102.805 28.5356H102.442C102.457 28.2129 102.424 27.9819 102.343 27.8426C102.263 27.7032 102.127 27.6189 101.936 27.5896C101.746 27.5602 101.493 27.5529 101.177 27.5676L100.374 27.6006L100.242 30.1196C100.235 30.3176 100.224 30.4862 100.209 30.6256C100.195 30.7649 100.18 30.8822 100.165 30.9776L102.266 30.9446C102.589 30.9372 102.871 30.8859 103.113 30.7906C103.355 30.6879 103.546 30.5119 103.685 30.2626C103.832 30.0132 103.916 29.6722 103.938 29.2396H104.312L104.136 31.3846H98.5045L98.5265 31.0216C98.8051 31.0069 98.9958 30.9446 99.0985 30.8346C99.2085 30.7172 99.2745 30.5596 99.2965 30.3616C99.3185 30.1562 99.3368 29.9252 99.3515 29.6686L99.6155 24.9166C99.6228 24.7699 99.6338 24.6306 99.6485 24.4986C99.6631 24.3592 99.6778 24.2346 99.6925 24.1246C99.5605 24.1319 99.4248 24.1392 99.2855 24.1466C99.1535 24.1539 99.0215 24.1612 98.8895 24.1686L98.9115 23.6846H104.158ZM112.873 31.5056C112.529 31.5056 112.294 31.4139 112.169 31.2306C112.052 31.0472 111.993 30.7869 111.993 30.4496C111.993 30.2442 112.012 30.0022 112.048 29.7236C112.092 29.4449 112.14 29.1479 112.191 28.8326C112.243 28.5172 112.287 28.1982 112.323 27.8756C112.367 27.5529 112.389 27.2449 112.389 26.9516C112.389 26.8636 112.375 26.7682 112.345 26.6656C112.316 26.5629 112.265 26.4749 112.191 26.4016C112.118 26.3209 112.008 26.2806 111.861 26.2806C111.656 26.2806 111.454 26.3759 111.256 26.5666C111.058 26.7572 110.875 27.0139 110.706 27.3366C110.538 27.6592 110.387 28.0186 110.255 28.4146C110.131 28.8032 110.032 29.2066 109.958 29.6246C109.885 30.0352 109.848 30.4276 109.848 30.8016C109.848 30.9116 109.848 31.0142 109.848 31.1096C109.856 31.1976 109.863 31.2892 109.87 31.3846H108.946C108.939 31.3332 108.935 31.2892 108.935 31.2526C108.935 31.2086 108.935 31.1572 108.935 31.0986C108.935 30.8199 108.954 30.4899 108.99 30.1086C109.034 29.7272 109.082 29.3349 109.133 28.9316C109.192 28.5282 109.24 28.1469 109.276 27.7876C109.32 27.4282 109.339 27.1349 109.331 26.9076C109.324 26.7829 109.287 26.6472 109.221 26.5006C109.155 26.3539 109.016 26.2806 108.803 26.2806C108.598 26.2806 108.396 26.3759 108.198 26.5666C108.008 26.7572 107.828 27.0139 107.659 27.3366C107.491 27.6592 107.34 28.0186 107.208 28.4146C107.076 28.8032 106.974 29.2066 106.9 29.6246C106.827 30.0352 106.79 30.4276 106.79 30.8016C106.79 30.9116 106.79 31.0142 106.79 31.1096C106.798 31.1976 106.805 31.2892 106.812 31.3846H105.888C105.881 31.3332 105.877 31.2892 105.877 31.2526C105.877 31.2086 105.877 31.1572 105.877 31.0986C105.877 30.9739 105.881 30.8309 105.888 30.6696C105.903 30.5009 105.925 30.2809 105.954 30.0096C105.991 29.7309 106.035 29.3606 106.086 28.8986C106.138 28.4659 106.178 28.1286 106.207 27.8866C106.237 27.6446 106.259 27.4612 106.273 27.3366C106.288 27.2046 106.295 27.1056 106.295 27.0396C106.303 26.9662 106.306 26.8892 106.306 26.8086C106.306 26.6766 106.288 26.5629 106.251 26.4676C106.215 26.3649 106.134 26.3136 106.009 26.3136C105.892 26.3136 105.756 26.3942 105.602 26.5556C105.448 26.7169 105.316 26.9919 105.206 27.3806L104.898 27.3146C104.92 27.1826 104.964 27.0322 105.03 26.8636C105.104 26.6876 105.199 26.5152 105.316 26.3466C105.434 26.1779 105.577 26.0386 105.745 25.9286C105.914 25.8186 106.108 25.7636 106.328 25.7636C106.57 25.7636 106.75 25.8259 106.867 25.9506C106.985 26.0679 107.062 26.2256 107.098 26.4236C107.142 26.6142 107.157 26.8232 107.142 27.0506C107.135 27.2559 107.113 27.4649 107.076 27.6776C107.04 27.8829 107.007 28.0626 106.977 28.2166H107.01C107.245 27.5492 107.476 27.0396 107.703 26.6876C107.938 26.3356 108.165 26.0936 108.385 25.9616C108.613 25.8296 108.825 25.7636 109.023 25.7636C109.317 25.7636 109.548 25.8332 109.716 25.9726C109.892 26.1046 110.017 26.2659 110.09 26.4566C110.164 26.6472 110.2 26.8342 110.2 27.0176C110.2 27.2229 110.186 27.3989 110.156 27.5456C110.127 27.6922 110.079 27.9049 110.013 28.1836H110.046C110.288 27.5162 110.527 27.0102 110.761 26.6656C111.003 26.3136 111.238 26.0752 111.465 25.9506C111.693 25.8259 111.905 25.7636 112.103 25.7636C112.397 25.7636 112.628 25.8296 112.796 25.9616C112.965 26.0936 113.082 26.2696 113.148 26.4896C113.222 26.7022 113.258 26.9369 113.258 27.1936C113.258 27.5969 113.229 28.0112 113.17 28.4366C113.112 28.8546 113.049 29.2432 112.983 29.6026C112.925 29.9546 112.895 30.2369 112.895 30.4496C112.895 30.5816 112.91 30.6989 112.939 30.8016C112.976 30.9042 113.06 30.9556 113.192 30.9556C113.317 30.9556 113.456 30.8786 113.61 30.7246C113.764 30.5632 113.896 30.2846 114.006 29.8886L114.314 29.9656C114.292 30.0902 114.245 30.2406 114.171 30.4166C114.098 30.5926 114.003 30.7649 113.885 30.9336C113.768 31.0949 113.625 31.2306 113.456 31.3406C113.288 31.4506 113.093 31.5056 112.873 31.5056ZM117.548 25.7636C117.812 25.7636 118.061 25.8039 118.296 25.8846C118.531 25.9652 118.721 26.0972 118.868 26.2806C119.015 26.4639 119.088 26.7132 119.088 27.0286C119.088 27.3292 118.985 27.5896 118.78 27.8096C118.575 28.0296 118.307 28.2129 117.977 28.3596C117.647 28.4989 117.295 28.6126 116.921 28.7006C116.547 28.7886 116.188 28.8509 115.843 28.8876C115.843 29.3422 115.887 29.7236 115.975 30.0316C116.07 30.3396 116.21 30.5706 116.393 30.7246C116.576 30.8786 116.811 30.9556 117.097 30.9556C117.31 30.9556 117.522 30.9079 117.735 30.8126C117.955 30.7172 118.164 30.5742 118.362 30.3836C118.56 30.1856 118.74 29.9326 118.901 29.6246L119.264 29.8336C119.059 30.2149 118.839 30.5302 118.604 30.7796C118.369 31.0289 118.113 31.2122 117.834 31.3296C117.555 31.4469 117.247 31.5056 116.91 31.5056C116.213 31.5056 115.7 31.2892 115.37 30.8566C115.04 30.4166 114.875 29.8409 114.875 29.1296C114.875 28.7042 114.93 28.2899 115.04 27.8866C115.15 27.4832 115.315 27.1239 115.535 26.8086C115.755 26.4859 116.034 26.2329 116.371 26.0496C116.708 25.8589 117.101 25.7636 117.548 25.7636ZM117.394 26.1376C117.057 26.1376 116.778 26.2512 116.558 26.4786C116.345 26.7059 116.18 26.9992 116.063 27.3586C115.953 27.7179 115.883 28.0956 115.854 28.4916C116.243 28.4402 116.613 28.3486 116.965 28.2166C117.317 28.0846 117.607 27.9159 117.834 27.7106C118.061 27.4979 118.175 27.2522 118.175 26.9736C118.175 26.7389 118.109 26.5409 117.977 26.3796C117.852 26.2182 117.658 26.1376 117.394 26.1376ZM120.799 31.3846C120.792 31.3332 120.788 31.2892 120.788 31.2526C120.788 31.2086 120.788 31.1572 120.788 31.0986C120.788 30.9739 120.792 30.8272 120.799 30.6586C120.807 30.4826 120.821 30.2516 120.843 29.9656C120.873 29.6796 120.913 29.3056 120.964 28.8436C121.016 28.3669 121.056 28.0076 121.085 27.7656C121.115 27.5236 121.137 27.3476 121.151 27.2376C121.166 27.1202 121.173 27.0249 121.173 26.9516C121.181 26.8049 121.17 26.6619 121.14 26.5226C121.118 26.3832 121.03 26.3136 120.876 26.3136C120.759 26.3136 120.623 26.3942 120.469 26.5556C120.315 26.7169 120.183 26.9919 120.073 27.3806L119.765 27.3146C119.787 27.1826 119.831 27.0322 119.897 26.8636C119.971 26.6876 120.066 26.5152 120.183 26.3466C120.301 26.1779 120.444 26.0386 120.612 25.9286C120.781 25.8186 120.975 25.7636 121.195 25.7636C121.525 25.7636 121.745 25.8772 121.855 26.1046C121.965 26.3319 122.013 26.6362 121.998 27.0176C121.991 27.1789 121.969 27.3586 121.932 27.5566C121.903 27.7472 121.87 27.9489 121.833 28.1616H121.866C122.079 27.5236 122.299 27.0322 122.526 26.6876C122.761 26.3429 122.996 26.1046 123.23 25.9726C123.472 25.8332 123.711 25.7636 123.945 25.7636C124.165 25.7636 124.349 25.8222 124.495 25.9396C124.642 26.0496 124.715 26.2036 124.715 26.4016C124.715 26.5336 124.668 26.6546 124.572 26.7646C124.484 26.8746 124.363 26.9296 124.209 26.9296C124.077 26.9296 123.964 26.8892 123.868 26.8086C123.773 26.7279 123.718 26.6142 123.703 26.4676C123.498 26.4236 123.296 26.4896 123.098 26.6656C122.908 26.8416 122.724 27.0946 122.548 27.4246C122.38 27.7472 122.229 28.1102 122.097 28.5136C121.973 28.9169 121.874 29.3276 121.8 29.7456C121.727 30.1636 121.69 30.5522 121.69 30.9116C121.69 31.0216 121.69 31.1059 121.69 31.1646C121.698 31.2159 121.705 31.2892 121.712 31.3846H120.799ZM126.476 34.3656C126.344 34.3656 126.186 34.3509 126.003 34.3216C125.827 34.2922 125.651 34.2409 125.475 34.1676C125.299 34.1016 125.152 34.0062 125.035 33.8816C124.918 33.7642 124.855 33.6176 124.848 33.4416C124.848 33.3389 124.87 33.2436 124.914 33.1556C124.958 33.0749 125.02 33.0089 125.101 32.9576C125.182 32.9062 125.27 32.8806 125.365 32.8806C125.497 32.8806 125.611 32.9209 125.706 33.0016C125.809 33.0896 125.86 33.2179 125.86 33.3866C125.86 33.4746 125.838 33.5699 125.794 33.6726C125.867 33.7826 125.977 33.8596 126.124 33.9036C126.278 33.9549 126.421 33.9806 126.553 33.9806C126.971 33.9806 127.301 33.8706 127.543 33.6506C127.792 33.4306 127.983 33.1372 128.115 32.7706C128.247 32.4112 128.342 32.0189 128.401 31.5936C128.467 31.1609 128.515 30.7209 128.544 30.2736C128.573 29.8189 128.614 29.4082 128.665 29.0416H128.632C128.478 29.5696 128.317 29.9986 128.148 30.3286C127.979 30.6512 127.807 30.9006 127.631 31.0766C127.455 31.2452 127.279 31.3589 127.103 31.4176C126.934 31.4762 126.766 31.5056 126.597 31.5056C126.26 31.5056 125.981 31.4139 125.761 31.2306C125.541 31.0399 125.376 30.7832 125.266 30.4606C125.163 30.1379 125.112 29.7749 125.112 29.3716C125.112 28.8949 125.174 28.4439 125.299 28.0186C125.431 27.5859 125.625 27.2009 125.882 26.8636C126.146 26.5189 126.48 26.2512 126.883 26.0606C127.294 25.8626 127.774 25.7636 128.324 25.7636C128.573 25.7636 128.823 25.7819 129.072 25.8186C129.329 25.8479 129.545 25.8919 129.721 25.9506C129.692 26.3906 129.659 26.8379 129.622 27.2926C129.593 27.7472 129.556 28.1982 129.512 28.6456C129.475 29.0929 129.439 29.5329 129.402 29.9656C129.365 30.3982 129.329 30.8199 129.292 31.2306C129.233 31.9419 129.083 32.5286 128.841 32.9906C128.606 33.4526 128.287 33.7972 127.884 34.0246C127.488 34.2519 127.019 34.3656 126.476 34.3656ZM126.828 30.9886C127.033 30.9886 127.231 30.8896 127.422 30.6916C127.62 30.4862 127.8 30.2186 127.961 29.8886C128.13 29.5512 128.276 29.1772 128.401 28.7666C128.533 28.3559 128.639 27.9379 128.72 27.5126C128.801 27.0799 128.852 26.6766 128.874 26.3026C128.779 26.2512 128.665 26.2146 128.533 26.1926C128.408 26.1706 128.28 26.1596 128.148 26.1596C127.745 26.1596 127.407 26.2586 127.136 26.4566C126.865 26.6472 126.648 26.9002 126.487 27.2156C126.326 27.5236 126.208 27.8536 126.135 28.2056C126.069 28.5502 126.036 28.8766 126.036 29.1846C126.036 29.5219 126.058 29.8262 126.102 30.0976C126.153 30.3689 126.238 30.5852 126.355 30.7466C126.472 30.9079 126.63 30.9886 126.828 30.9886ZM131.85 25.7636C132.158 25.7636 132.389 25.8699 132.543 26.0826C132.697 26.2879 132.774 26.5629 132.774 26.9076C132.774 27.1276 132.752 27.3806 132.708 27.6666C132.672 27.9452 132.624 28.2459 132.565 28.5686C132.507 28.8912 132.455 29.2176 132.411 29.5476C132.375 29.8702 132.356 30.1856 132.356 30.4936C132.356 30.6402 132.382 30.7539 132.433 30.8346C132.492 30.9152 132.58 30.9556 132.697 30.9556C132.822 30.9556 132.958 30.8749 133.104 30.7136C133.258 30.5522 133.39 30.2772 133.5 29.8886L133.808 29.9546C133.779 30.1086 133.728 30.2772 133.654 30.4606C133.588 30.6366 133.5 30.8052 133.39 30.9666C133.28 31.1206 133.145 31.2489 132.983 31.3516C132.829 31.4542 132.65 31.5056 132.444 31.5056C132.107 31.5056 131.858 31.4176 131.696 31.2416C131.535 31.0656 131.454 30.8089 131.454 30.4716C131.454 30.1489 131.476 29.8372 131.52 29.5366C131.564 29.2286 131.612 28.9279 131.663 28.6346C131.722 28.3339 131.773 28.0332 131.817 27.7326C131.861 27.4319 131.883 27.1239 131.883 26.8086C131.883 26.7132 131.861 26.6069 131.817 26.4896C131.781 26.3722 131.7 26.3136 131.575 26.3136C131.458 26.3136 131.322 26.3942 131.168 26.5556C131.014 26.7169 130.882 26.9919 130.772 27.3806L130.464 27.3146C130.486 27.1826 130.53 27.0322 130.596 26.8636C130.662 26.6876 130.75 26.5152 130.86 26.3466C130.978 26.1779 131.117 26.0386 131.278 25.9286C131.44 25.8186 131.63 25.7636 131.85 25.7636ZM132.477 23.3876C132.646 23.3876 132.785 23.4462 132.895 23.5636C133.005 23.6736 133.06 23.8239 133.06 24.0146C133.06 24.1979 133.002 24.3482 132.884 24.4656C132.767 24.5756 132.628 24.6306 132.466 24.6306C132.305 24.6306 132.166 24.5756 132.048 24.4656C131.938 24.3482 131.883 24.1979 131.883 24.0146C131.883 23.8239 131.942 23.6736 132.059 23.5636C132.177 23.4462 132.316 23.3876 132.477 23.3876ZM139.157 31.5056C138.812 31.5056 138.578 31.4139 138.453 31.2306C138.328 31.0472 138.266 30.7869 138.266 30.4496C138.266 30.2442 138.281 30.0022 138.31 29.7236C138.347 29.4449 138.387 29.1479 138.431 28.8326C138.482 28.5172 138.523 28.1982 138.552 27.8756C138.589 27.5529 138.607 27.2449 138.607 26.9516C138.607 26.8636 138.592 26.7682 138.563 26.6656C138.541 26.5629 138.493 26.4749 138.42 26.4016C138.347 26.3209 138.237 26.2806 138.09 26.2806C137.885 26.2806 137.679 26.3759 137.474 26.5666C137.269 26.7572 137.074 27.0139 136.891 27.3366C136.708 27.6592 136.543 28.0186 136.396 28.4146C136.249 28.8032 136.132 29.2066 136.044 29.6246C135.963 30.0352 135.923 30.4276 135.923 30.8016C135.923 30.9116 135.923 31.0142 135.923 31.1096C135.93 31.1976 135.938 31.2892 135.945 31.3846H135.021C135.014 31.3332 135.01 31.2892 135.01 31.2526C135.01 31.2086 135.01 31.1572 135.01 31.0986C135.01 30.9739 135.017 30.8309 135.032 30.6696C135.047 30.5009 135.069 30.2809 135.098 30.0096C135.135 29.7309 135.179 29.3606 135.23 28.8986C135.281 28.4659 135.318 28.1286 135.34 27.8866C135.369 27.6446 135.391 27.4612 135.406 27.3366C135.421 27.2046 135.428 27.1056 135.428 27.0396C135.435 26.9662 135.439 26.8892 135.439 26.8086C135.439 26.6766 135.421 26.5629 135.384 26.4676C135.347 26.3649 135.267 26.3136 135.142 26.3136C135.025 26.3136 134.889 26.3942 134.735 26.5556C134.581 26.7169 134.449 26.9919 134.339 27.3806L134.031 27.3146C134.053 27.1826 134.097 27.0322 134.163 26.8636C134.236 26.6876 134.332 26.5152 134.449 26.3466C134.566 26.1779 134.709 26.0386 134.878 25.9286C135.047 25.8186 135.241 25.7636 135.461 25.7636C135.71 25.7636 135.894 25.8332 136.011 25.9726C136.136 26.1046 136.213 26.2769 136.242 26.4896C136.279 26.7022 136.29 26.9296 136.275 27.1716C136.26 27.3769 136.235 27.5749 136.198 27.7656C136.169 27.9562 136.139 28.1249 136.11 28.2716H136.143C136.392 27.6042 136.638 27.0909 136.88 26.7316C137.122 26.3649 137.36 26.1119 137.595 25.9726C137.837 25.8332 138.075 25.7636 138.31 25.7636C138.603 25.7636 138.838 25.8296 139.014 25.9616C139.19 26.0936 139.315 26.2696 139.388 26.4896C139.469 26.7022 139.509 26.9369 139.509 27.1936C139.509 27.5969 139.48 28.0112 139.421 28.4366C139.37 28.8546 139.315 29.2432 139.256 29.6026C139.205 29.9546 139.179 30.2369 139.179 30.4496C139.179 30.5816 139.194 30.6989 139.223 30.8016C139.26 30.9042 139.344 30.9556 139.476 30.9556C139.601 30.9556 139.736 30.8786 139.883 30.7246C140.037 30.5632 140.169 30.2846 140.279 29.8886L140.587 29.9656C140.565 30.0902 140.517 30.2406 140.444 30.4166C140.378 30.5926 140.286 30.7649 140.169 30.9336C140.052 31.0949 139.909 31.2306 139.74 31.3406C139.571 31.4506 139.377 31.5056 139.157 31.5056ZM142.503 34.3656C142.371 34.3656 142.214 34.3509 142.03 34.3216C141.854 34.2922 141.678 34.2409 141.502 34.1676C141.326 34.1016 141.18 34.0062 141.062 33.8816C140.945 33.7642 140.883 33.6176 140.875 33.4416C140.875 33.3389 140.897 33.2436 140.941 33.1556C140.985 33.0749 141.048 33.0089 141.128 32.9576C141.209 32.9062 141.297 32.8806 141.392 32.8806C141.524 32.8806 141.638 32.9209 141.733 33.0016C141.836 33.0896 141.887 33.2179 141.887 33.3866C141.887 33.4746 141.865 33.5699 141.821 33.6726C141.895 33.7826 142.005 33.8596 142.151 33.9036C142.305 33.9549 142.448 33.9806 142.58 33.9806C142.998 33.9806 143.328 33.8706 143.57 33.6506C143.82 33.4306 144.01 33.1372 144.142 32.7706C144.274 32.4112 144.37 32.0189 144.428 31.5936C144.494 31.1609 144.542 30.7209 144.571 30.2736C144.601 29.8189 144.641 29.4082 144.692 29.0416H144.659C144.505 29.5696 144.344 29.9986 144.175 30.3286C144.007 30.6512 143.834 30.9006 143.658 31.0766C143.482 31.2452 143.306 31.3589 143.13 31.4176C142.962 31.4762 142.793 31.5056 142.624 31.5056C142.287 31.5056 142.008 31.4139 141.788 31.2306C141.568 31.0399 141.403 30.7832 141.293 30.4606C141.191 30.1379 141.139 29.7749 141.139 29.3716C141.139 28.8949 141.202 28.4439 141.326 28.0186C141.458 27.5859 141.653 27.2009 141.909 26.8636C142.173 26.5189 142.507 26.2512 142.91 26.0606C143.321 25.8626 143.801 25.7636 144.351 25.7636C144.601 25.7636 144.85 25.7819 145.099 25.8186C145.356 25.8479 145.572 25.8919 145.748 25.9506C145.719 26.3906 145.686 26.8379 145.649 27.2926C145.62 27.7472 145.583 28.1982 145.539 28.6456C145.503 29.0929 145.466 29.5329 145.429 29.9656C145.393 30.3982 145.356 30.8199 145.319 31.2306C145.261 31.9419 145.11 32.5286 144.868 32.9906C144.634 33.4526 144.315 33.7972 143.911 34.0246C143.515 34.2519 143.046 34.3656 142.503 34.3656ZM142.855 30.9886C143.061 30.9886 143.259 30.8896 143.449 30.6916C143.647 30.4862 143.827 30.2186 143.988 29.8886C144.157 29.5512 144.304 29.1772 144.428 28.7666C144.56 28.3559 144.667 27.9379 144.747 27.5126C144.828 27.0799 144.879 26.6766 144.901 26.3026C144.806 26.2512 144.692 26.2146 144.56 26.1926C144.436 26.1706 144.307 26.1596 144.175 26.1596C143.772 26.1596 143.435 26.2586 143.163 26.4566C142.892 26.6472 142.676 26.9002 142.514 27.2156C142.353 27.5236 142.236 27.8536 142.162 28.2056C142.096 28.5502 142.063 28.8766 142.063 29.1846C142.063 29.5219 142.085 29.8262 142.129 30.0976C142.181 30.3689 142.265 30.5852 142.382 30.7466C142.5 30.9079 142.657 30.9886 142.855 30.9886ZM156.256 23.6846L156.201 26.0056H155.783C155.798 25.5729 155.772 25.2136 155.706 24.9276C155.64 24.6416 155.508 24.4289 155.31 24.2896C155.12 24.1429 154.834 24.0732 154.452 24.0806L153.517 24.0916L153.154 30.0756C153.147 30.2736 153.136 30.4459 153.121 30.5926C153.107 30.7319 153.092 30.8492 153.077 30.9446C153.18 30.9372 153.283 30.9336 153.385 30.9336C153.488 30.9262 153.587 30.9189 153.682 30.9116C153.785 30.9042 153.888 30.9006 153.99 30.9006L153.968 31.3846H151.427L151.449 31.0216C151.691 31.0069 151.864 30.9409 151.966 30.8236C152.076 30.7062 152.15 30.5486 152.186 30.3506C152.223 30.1452 152.249 29.9179 152.263 29.6686L152.604 24.0916L151.471 24.1026C151.009 24.1026 150.676 24.2566 150.47 24.5646C150.265 24.8726 150.144 25.3529 150.107 26.0056H149.7L149.887 23.6846H156.256ZM158.852 25.7636C159.116 25.7636 159.365 25.8039 159.6 25.8846C159.834 25.9652 160.025 26.0972 160.172 26.2806C160.318 26.4639 160.392 26.7132 160.392 27.0286C160.392 27.3292 160.289 27.5896 160.084 27.8096C159.878 28.0296 159.611 28.2129 159.281 28.3596C158.951 28.4989 158.599 28.6126 158.225 28.7006C157.851 28.7886 157.491 28.8509 157.147 28.8876C157.147 29.3422 157.191 29.7236 157.279 30.0316C157.374 30.3396 157.513 30.5706 157.697 30.7246C157.88 30.8786 158.115 30.9556 158.401 30.9556C158.613 30.9556 158.826 30.9079 159.039 30.8126C159.259 30.7172 159.468 30.5742 159.666 30.3836C159.864 30.1856 160.043 29.9326 160.205 29.6246L160.568 29.8336C160.362 30.2149 160.142 30.5302 159.908 30.7796C159.673 31.0289 159.416 31.2122 159.138 31.3296C158.859 31.4469 158.551 31.5056 158.214 31.5056C157.517 31.5056 157.004 31.2892 156.674 30.8566C156.344 30.4166 156.179 29.8409 156.179 29.1296C156.179 28.7042 156.234 28.2899 156.344 27.8866C156.454 27.4832 156.619 27.1239 156.839 26.8086C157.059 26.4859 157.337 26.2329 157.675 26.0496C158.012 25.8589 158.404 25.7636 158.852 25.7636ZM158.698 26.1376C158.36 26.1376 158.082 26.2512 157.862 26.4786C157.649 26.7059 157.484 26.9992 157.367 27.3586C157.257 27.7179 157.187 28.0956 157.158 28.4916C157.546 28.4402 157.917 28.3486 158.269 28.2166C158.621 28.0846 158.91 27.9159 159.138 27.7106C159.365 27.4979 159.479 27.2522 159.479 26.9736C159.479 26.7389 159.413 26.5409 159.281 26.3796C159.156 26.2182 158.962 26.1376 158.698 26.1376ZM164.05 25.7636C164.365 25.7636 164.648 25.8222 164.897 25.9396C165.146 26.0496 165.341 26.2036 165.48 26.4016C165.627 26.5922 165.7 26.8086 165.7 27.0506C165.7 27.2119 165.66 27.3439 165.579 27.4466C165.498 27.5419 165.385 27.5896 165.238 27.5896C165.062 27.5969 164.937 27.5456 164.864 27.4356C164.798 27.3256 164.765 27.2302 164.765 27.1496C164.765 27.0836 164.772 27.0139 164.787 26.9406C164.809 26.8672 164.849 26.7976 164.908 26.7316C164.871 26.5262 164.769 26.3796 164.6 26.2916C164.439 26.1962 164.252 26.1486 164.039 26.1486C163.724 26.1486 163.46 26.2329 163.247 26.4016C163.034 26.5702 162.866 26.7902 162.741 27.0616C162.616 27.3329 162.525 27.6262 162.466 27.9416C162.415 28.2496 162.389 28.5502 162.389 28.8436C162.389 29.3569 162.444 29.7712 162.554 30.0866C162.671 30.3946 162.833 30.6182 163.038 30.7576C163.243 30.8969 163.474 30.9666 163.731 30.9666C163.922 30.9666 164.12 30.9262 164.325 30.8456C164.53 30.7576 164.728 30.6146 164.919 30.4166C165.11 30.2112 165.275 29.9326 165.414 29.5806L165.799 29.7676C165.616 30.1929 165.403 30.5339 165.161 30.7906C164.919 31.0399 164.659 31.2232 164.38 31.3406C164.109 31.4506 163.83 31.5056 163.544 31.5056C162.899 31.5056 162.382 31.3112 161.993 30.9226C161.612 30.5266 161.421 29.9179 161.421 29.0966C161.421 28.7372 161.472 28.3632 161.575 27.9746C161.678 27.5859 161.835 27.2266 162.048 26.8966C162.261 26.5592 162.532 26.2879 162.862 26.0826C163.199 25.8699 163.595 25.7636 164.05 25.7636ZM170.943 31.5056C170.598 31.5056 170.364 31.4139 170.239 31.2306C170.114 31.0472 170.052 30.7869 170.052 30.4496C170.052 30.2442 170.067 30.0022 170.096 29.7236C170.133 29.4376 170.169 29.1369 170.206 28.8216C170.25 28.5062 170.287 28.1872 170.316 27.8646C170.353 27.5419 170.371 27.2376 170.371 26.9516C170.371 26.8636 170.356 26.7682 170.327 26.6656C170.298 26.5629 170.246 26.4749 170.173 26.4016C170.1 26.3209 169.99 26.2806 169.843 26.2806C169.645 26.2806 169.447 26.3722 169.249 26.5556C169.051 26.7316 168.86 26.9736 168.677 27.2816C168.501 27.5896 168.34 27.9416 168.193 28.3376C168.054 28.7262 167.944 29.1332 167.863 29.5586C167.782 29.9766 167.742 30.3909 167.742 30.8016C167.742 30.9116 167.742 31.0142 167.742 31.1096C167.749 31.1976 167.757 31.2892 167.764 31.3846H166.862C166.855 31.3332 166.851 31.2892 166.851 31.2526C166.851 31.2086 166.851 31.1572 166.851 31.0986C166.851 30.9006 166.862 30.5962 166.884 30.1856C166.906 29.7749 166.935 29.3092 166.972 28.7886C167.009 28.2606 167.049 27.7216 167.093 27.1716C167.144 26.6216 167.196 26.1009 167.247 25.6096C167.298 25.1109 167.35 24.6929 167.401 24.3556C167.43 24.1649 167.449 24.0439 167.456 23.9926C167.471 23.9412 167.485 23.8679 167.5 23.7726L166.73 23.8166L166.774 23.3766C167.097 23.3766 167.346 23.3619 167.522 23.3326C167.705 23.3032 167.845 23.2666 167.94 23.2226C168.035 23.1786 168.112 23.1309 168.171 23.0796H168.49C168.461 23.2629 168.428 23.4682 168.391 23.6956C168.354 23.9229 168.318 24.1466 168.281 24.3666C168.244 24.5866 168.215 24.7809 168.193 24.9496C168.171 25.1329 168.142 25.3712 168.105 25.6646C168.076 25.9506 168.043 26.2549 168.006 26.5776C167.977 26.8929 167.947 27.1972 167.918 27.4906C167.896 27.7839 167.878 28.0259 167.863 28.2166H167.896C168.145 27.5492 168.391 27.0396 168.633 26.6876C168.875 26.3356 169.113 26.0936 169.348 25.9616C169.59 25.8296 169.828 25.7636 170.063 25.7636C170.503 25.7636 170.815 25.9066 170.998 26.1926C171.181 26.4712 171.273 26.8049 171.273 27.1936C171.273 27.5969 171.247 28.0112 171.196 28.4366C171.145 28.8546 171.093 29.2432 171.042 29.6026C170.991 29.9546 170.965 30.2369 170.965 30.4496C170.965 30.5816 170.98 30.6989 171.009 30.8016C171.046 30.9042 171.13 30.9556 171.262 30.9556C171.387 30.9556 171.522 30.8786 171.669 30.7246C171.823 30.5632 171.955 30.2846 172.065 29.8886L172.34 29.9656C172.318 30.0902 172.274 30.2406 172.208 30.4166C172.142 30.5926 172.05 30.7649 171.933 30.9336C171.823 31.0949 171.684 31.2306 171.515 31.3406C171.354 31.4506 171.163 31.5056 170.943 31.5056ZM177.689 31.5056C177.344 31.5056 177.11 31.4139 176.985 31.2306C176.86 31.0472 176.798 30.7869 176.798 30.4496C176.798 30.2442 176.813 30.0022 176.842 29.7236C176.879 29.4449 176.919 29.1479 176.963 28.8326C177.014 28.5172 177.055 28.1982 177.084 27.8756C177.121 27.5529 177.139 27.2449 177.139 26.9516C177.139 26.8636 177.124 26.7682 177.095 26.6656C177.073 26.5629 177.025 26.4749 176.952 26.4016C176.879 26.3209 176.769 26.2806 176.622 26.2806C176.417 26.2806 176.211 26.3759 176.006 26.5666C175.801 26.7572 175.606 27.0139 175.423 27.3366C175.24 27.6592 175.075 28.0186 174.928 28.4146C174.781 28.8032 174.664 29.2066 174.576 29.6246C174.495 30.0352 174.455 30.4276 174.455 30.8016C174.455 30.9116 174.455 31.0142 174.455 31.1096C174.462 31.1976 174.47 31.2892 174.477 31.3846H173.553C173.546 31.3332 173.542 31.2892 173.542 31.2526C173.542 31.2086 173.542 31.1572 173.542 31.0986C173.542 30.9739 173.549 30.8309 173.564 30.6696C173.579 30.5009 173.601 30.2809 173.63 30.0096C173.667 29.7309 173.711 29.3606 173.762 28.8986C173.813 28.4659 173.85 28.1286 173.872 27.8866C173.901 27.6446 173.923 27.4612 173.938 27.3366C173.953 27.2046 173.96 27.1056 173.96 27.0396C173.967 26.9662 173.971 26.8892 173.971 26.8086C173.971 26.6766 173.953 26.5629 173.916 26.4676C173.879 26.3649 173.799 26.3136 173.674 26.3136C173.557 26.3136 173.421 26.3942 173.267 26.5556C173.113 26.7169 172.981 26.9919 172.871 27.3806L172.563 27.3146C172.585 27.1826 172.629 27.0322 172.695 26.8636C172.768 26.6876 172.864 26.5152 172.981 26.3466C173.098 26.1779 173.241 26.0386 173.41 25.9286C173.579 25.8186 173.773 25.7636 173.993 25.7636C174.242 25.7636 174.426 25.8332 174.543 25.9726C174.668 26.1046 174.745 26.2769 174.774 26.4896C174.811 26.7022 174.822 26.9296 174.807 27.1716C174.792 27.3769 174.767 27.5749 174.73 27.7656C174.701 27.9562 174.671 28.1249 174.642 28.2716H174.675C174.924 27.6042 175.17 27.0909 175.412 26.7316C175.654 26.3649 175.892 26.1119 176.127 25.9726C176.369 25.8332 176.607 25.7636 176.842 25.7636C177.135 25.7636 177.37 25.8296 177.546 25.9616C177.722 26.0936 177.847 26.2696 177.92 26.4896C178.001 26.7022 178.041 26.9369 178.041 27.1936C178.041 27.5969 178.012 28.0112 177.953 28.4366C177.902 28.8546 177.847 29.2432 177.788 29.6026C177.737 29.9546 177.711 30.2369 177.711 30.4496C177.711 30.5816 177.726 30.6989 177.755 30.8016C177.792 30.9042 177.876 30.9556 178.008 30.9556C178.133 30.9556 178.268 30.8786 178.415 30.7246C178.569 30.5632 178.701 30.2846 178.811 29.8886L179.119 29.9656C179.097 30.0902 179.049 30.2406 178.976 30.4166C178.91 30.5926 178.818 30.7649 178.701 30.9336C178.584 31.0949 178.441 31.2306 178.272 31.3406C178.103 31.4506 177.909 31.5056 177.689 31.5056ZM182.4 25.7636C182.796 25.7636 183.151 25.8589 183.467 26.0496C183.782 26.2329 184.031 26.5042 184.215 26.8636C184.398 27.2229 184.49 27.6592 184.49 28.1726C184.49 28.7592 184.383 29.3092 184.171 29.8226C183.958 30.3286 183.65 30.7356 183.247 31.0436C182.851 31.3516 182.367 31.5056 181.795 31.5056C181.311 31.5056 180.911 31.3956 180.596 31.1756C180.288 30.9556 180.057 30.6586 179.903 30.2846C179.756 29.9106 179.683 29.4962 179.683 29.0416C179.683 28.4476 179.789 27.9012 180.002 27.4026C180.222 26.9039 180.533 26.5079 180.937 26.2146C181.347 25.9139 181.835 25.7636 182.4 25.7636ZM182.235 26.1706C181.912 26.1632 181.633 26.2732 181.399 26.5006C181.164 26.7206 180.981 27.0212 180.849 27.4026C180.724 27.7839 180.658 28.2092 180.651 28.6786C180.643 28.9279 180.658 29.1919 180.695 29.4706C180.731 29.7492 180.794 30.0096 180.882 30.2516C180.977 30.4936 181.105 30.6916 181.267 30.8456C181.435 30.9996 181.644 31.0802 181.894 31.0876C182.187 31.0949 182.436 31.0179 182.642 30.8566C182.847 30.6879 183.012 30.4716 183.137 30.2076C183.261 29.9436 183.353 29.6612 183.412 29.3606C183.478 29.0599 183.514 28.7776 183.522 28.5136C183.529 28.2569 183.514 27.9929 183.478 27.7216C183.448 27.4502 183.386 27.1972 183.291 26.9626C183.195 26.7279 183.063 26.5409 182.895 26.4016C182.726 26.2549 182.506 26.1779 182.235 26.1706ZM187.344 23.0796C187.322 23.2629 187.289 23.4682 187.245 23.6956C187.208 23.9229 187.172 24.1466 187.135 24.3666C187.106 24.5866 187.08 24.7809 187.058 24.9496C187.014 25.2576 186.97 25.6096 186.926 26.0056C186.882 26.3942 186.838 26.8012 186.794 27.2266C186.75 27.6446 186.71 28.0552 186.673 28.4586C186.644 28.8619 186.618 29.2322 186.596 29.5696C186.574 29.8996 186.563 30.1709 186.563 30.3836C186.563 30.5229 186.578 30.6549 186.607 30.7796C186.636 30.8969 186.721 30.9556 186.86 30.9556C186.985 30.9556 187.12 30.8786 187.267 30.7246C187.421 30.5632 187.553 30.2846 187.663 29.8886L187.971 29.9656C187.949 30.0902 187.901 30.2406 187.828 30.4166C187.762 30.5926 187.67 30.7649 187.553 30.9336C187.436 31.0949 187.293 31.2306 187.124 31.3406C186.963 31.4506 186.772 31.5056 186.552 31.5056C186.251 31.5056 186.031 31.4322 185.892 31.2856C185.753 31.1316 185.679 30.9079 185.672 30.6146C185.665 30.4312 185.672 30.1599 185.694 29.8006C185.723 29.4412 185.756 29.0342 185.793 28.5796C185.837 28.1176 185.885 27.6372 185.936 27.1386C185.987 26.6326 186.042 26.1412 186.101 25.6646C186.16 25.1879 186.215 24.7552 186.266 24.3666C186.303 24.1686 186.325 24.0402 186.332 23.9816C186.347 23.9156 186.358 23.8459 186.365 23.7726C186.233 23.7799 186.101 23.7872 185.969 23.7946C185.844 23.8019 185.716 23.8092 185.584 23.8166L185.639 23.3766C185.962 23.3766 186.211 23.3619 186.387 23.3326C186.57 23.3032 186.71 23.2666 186.805 23.2226C186.9 23.1786 186.977 23.1309 187.036 23.0796H187.344ZM191.251 25.7636C191.647 25.7636 192.003 25.8589 192.318 26.0496C192.634 26.2329 192.883 26.5042 193.066 26.8636C193.25 27.2229 193.341 27.6592 193.341 28.1726C193.341 28.7592 193.235 29.3092 193.022 29.8226C192.81 30.3286 192.502 30.7356 192.098 31.0436C191.702 31.3516 191.218 31.5056 190.646 31.5056C190.162 31.5056 189.763 31.3956 189.447 31.1756C189.139 30.9556 188.908 30.6586 188.754 30.2846C188.608 29.9106 188.534 29.4962 188.534 29.0416C188.534 28.4476 188.641 27.9012 188.853 27.4026C189.073 26.9039 189.385 26.5079 189.788 26.2146C190.199 25.9139 190.687 25.7636 191.251 25.7636ZM191.086 26.1706C190.764 26.1632 190.485 26.2732 190.25 26.5006C190.016 26.7206 189.832 27.0212 189.7 27.4026C189.576 27.7839 189.51 28.2092 189.502 28.6786C189.495 28.9279 189.51 29.1919 189.546 29.4706C189.583 29.7492 189.645 30.0096 189.733 30.2516C189.829 30.4936 189.957 30.6916 190.118 30.8456C190.287 30.9996 190.496 31.0802 190.745 31.0876C191.039 31.0949 191.288 31.0179 191.493 30.8566C191.699 30.6879 191.864 30.4716 191.988 30.2076C192.113 29.9436 192.205 29.6612 192.263 29.3606C192.329 29.0599 192.366 28.7776 192.373 28.5136C192.381 28.2569 192.366 27.9929 192.329 27.7216C192.3 27.4502 192.238 27.1972 192.142 26.9626C192.047 26.7279 191.915 26.5409 191.746 26.4016C191.578 26.2549 191.358 26.1779 191.086 26.1706ZM195.624 34.3656C195.492 34.3656 195.334 34.3509 195.151 34.3216C194.975 34.2922 194.799 34.2409 194.623 34.1676C194.447 34.1016 194.3 34.0062 194.183 33.8816C194.065 33.7642 194.003 33.6176 193.996 33.4416C193.996 33.3389 194.018 33.2436 194.062 33.1556C194.106 33.0749 194.168 33.0089 194.249 32.9576C194.329 32.9062 194.417 32.8806 194.513 32.8806C194.645 32.8806 194.758 32.9209 194.854 33.0016C194.956 33.0896 195.008 33.2179 195.008 33.3866C195.008 33.4746 194.986 33.5699 194.942 33.6726C195.015 33.7826 195.125 33.8596 195.272 33.9036C195.426 33.9549 195.569 33.9806 195.701 33.9806C196.119 33.9806 196.449 33.8706 196.691 33.6506C196.94 33.4306 197.131 33.1372 197.263 32.7706C197.395 32.4112 197.49 32.0189 197.549 31.5936C197.615 31.1609 197.662 30.7209 197.692 30.2736C197.721 29.8189 197.761 29.4082 197.813 29.0416H197.78C197.626 29.5696 197.464 29.9986 197.296 30.3286C197.127 30.6512 196.955 30.9006 196.779 31.0766C196.603 31.2452 196.427 31.3589 196.251 31.4176C196.082 31.4762 195.913 31.5056 195.745 31.5056C195.407 31.5056 195.129 31.4139 194.909 31.2306C194.689 31.0399 194.524 30.7832 194.414 30.4606C194.311 30.1379 194.26 29.7749 194.26 29.3716C194.26 28.8949 194.322 28.4439 194.447 28.0186C194.579 27.5859 194.773 27.2009 195.03 26.8636C195.294 26.5189 195.627 26.2512 196.031 26.0606C196.441 25.8626 196.922 25.7636 197.472 25.7636C197.721 25.7636 197.97 25.7819 198.22 25.8186C198.476 25.8479 198.693 25.8919 198.869 25.9506C198.839 26.3906 198.806 26.8379 198.77 27.2926C198.74 27.7472 198.704 28.1982 198.66 28.6456C198.623 29.0929 198.586 29.5329 198.55 29.9656C198.513 30.3982 198.476 30.8199 198.44 31.2306C198.381 31.9419 198.231 32.5286 197.989 32.9906C197.754 33.4526 197.435 33.7972 197.032 34.0246C196.636 34.2519 196.166 34.3656 195.624 34.3656ZM195.976 30.9886C196.181 30.9886 196.379 30.8896 196.57 30.6916C196.768 30.4862 196.947 30.2186 197.109 29.8886C197.277 29.5512 197.424 29.1772 197.549 28.7666C197.681 28.3559 197.787 27.9379 197.868 27.5126C197.948 27.0799 198 26.6766 198.022 26.3026C197.926 26.2512 197.813 26.2146 197.681 26.1926C197.556 26.1706 197.428 26.1596 197.296 26.1596C196.892 26.1596 196.555 26.2586 196.284 26.4566C196.012 26.6472 195.796 26.9002 195.635 27.2156C195.473 27.5236 195.356 27.8536 195.283 28.2056C195.217 28.5502 195.184 28.8766 195.184 29.1846C195.184 29.5219 195.206 29.8262 195.25 30.0976C195.301 30.3689 195.385 30.5852 195.503 30.7466C195.62 30.9079 195.778 30.9886 195.976 30.9886ZM200.239 34.3656C199.99 34.3509 199.788 34.2776 199.634 34.1456C199.48 34.0209 199.403 33.8632 199.403 33.6726C199.403 33.5039 199.454 33.3756 199.557 33.2876C199.66 33.2069 199.759 33.1666 199.854 33.1666C200.184 33.1666 200.342 33.3572 200.327 33.7386C200.371 33.7606 200.411 33.7789 200.448 33.7936C200.485 33.8082 200.525 33.8156 200.569 33.8156C200.73 33.8229 200.895 33.7642 201.064 33.6396C201.24 33.5149 201.405 33.3572 201.559 33.1666C201.72 32.9832 201.86 32.7999 201.977 32.6166C202.102 32.4406 202.193 32.3049 202.252 32.2096C202.186 31.7842 202.109 31.3479 202.021 30.9006C201.933 30.4459 201.83 29.9949 201.713 29.5476C201.603 29.0929 201.478 28.6566 201.339 28.2386C201.207 27.8132 201.064 27.4136 200.91 27.0396C200.859 26.9149 200.793 26.7866 200.712 26.6546C200.631 26.5226 200.518 26.4639 200.371 26.4786C200.232 26.4932 200.125 26.6032 200.052 26.8086C199.986 27.0139 199.968 27.2852 199.997 27.6226L199.645 27.6666C199.623 27.4686 199.619 27.2596 199.634 27.0396C199.656 26.8196 199.704 26.6142 199.777 26.4236C199.85 26.2256 199.957 26.0679 200.096 25.9506C200.235 25.8259 200.419 25.7636 200.646 25.7636C200.895 25.7636 201.097 25.8296 201.251 25.9616C201.412 26.0936 201.541 26.2549 201.636 26.4456C201.739 26.6362 201.823 26.8232 201.889 27.0066C202.028 27.3806 202.164 27.8096 202.296 28.2936C202.428 28.7776 202.542 29.2726 202.637 29.7786C202.74 30.2772 202.817 30.7429 202.868 31.1756H202.89C203.095 30.8162 203.293 30.4202 203.484 29.9876C203.675 29.5549 203.832 29.1149 203.957 28.6676C204.082 28.2129 204.144 27.7876 204.144 27.3916C204.144 27.2082 204.126 27.0469 204.089 26.9076C204.06 26.7682 204.023 26.6692 203.979 26.6106C203.95 26.6326 203.909 26.6509 203.858 26.6656C203.814 26.6729 203.763 26.6766 203.704 26.6766C203.572 26.6766 203.466 26.6362 203.385 26.5556C203.304 26.4676 203.264 26.3649 203.264 26.2476C203.264 26.0862 203.315 25.9652 203.418 25.8846C203.528 25.8039 203.649 25.7636 203.781 25.7636C204.008 25.7636 204.184 25.8332 204.309 25.9726C204.434 26.1119 204.522 26.2879 204.573 26.5006C204.632 26.7132 204.661 26.9369 204.661 27.1716C204.661 27.6556 204.591 28.1506 204.452 28.6566C204.313 29.1626 204.129 29.6612 203.902 30.1526C203.682 30.6439 203.447 31.1169 203.198 31.5716C202.831 32.2316 202.479 32.7706 202.142 33.1886C201.812 33.6066 201.489 33.9072 201.174 34.0906C200.859 34.2812 200.547 34.3729 200.239 34.3656Z" fill="#091F2F"/>
<g clip-path="url(#clip0_18_68)">
<path d="M28.1667 36.1666H3.16669V41.8333H28.1667V36.1666Z" fill="#F05146"/>
<path d="M3.13081 32.0242C3.05502 29.055 6.88894 26.112 9.06822 24.4508C11.6876 22.5393 14.5344 20.6753 17.0751 18.6628C21.9827 14.7485 27.8608 9.90654 28.1484 3.16663C28.2135 3.97491 28.0998 4.83462 27.9424 5.64388C26.0459 14.1925 15.5808 19.442 9.21494 24.6439C7.30478 26.1693 5.28289 27.6675 3.94015 29.7372C3.50487 30.4232 3.19785 31.2024 3.15995 32.0252C3.15995 32.0427 3.13081 32.0436 3.13081 32.0252V32.0242Z" fill="#091F2F"/>
<path d="M3.1306 32.0242C3.06842 28.5757 8.43648 25.0214 11.0316 23.2059C14.3681 20.9508 17.7181 18.557 20.7485 15.9129C24.3162 12.7748 27.8732 8.83142 28.1482 3.87109C28.1978 4.6687 28.0666 5.51386 27.8956 6.30759C25.8523 14.6534 15.4912 19.7243 9.18461 24.8011C7.29097 26.2896 5.28851 27.7509 3.94868 29.7789C3.51438 30.4504 3.20444 31.216 3.15975 32.0252C3.15975 32.0427 3.1306 32.0427 3.1306 32.0252V32.0242Z" fill="#091F2F"/>
<path d="M3.1306 32.0242C3.10243 28.6252 8.41123 25.165 10.986 23.398C14.2933 21.206 17.6142 18.8763 20.6329 16.3098C24.1822 13.259 27.7635 9.45146 28.1492 4.57458C28.1822 5.36055 28.0345 6.19115 27.848 6.96936C25.6619 15.1085 15.4038 20.0048 9.15547 24.9564C7.27835 26.408 5.29532 27.8324 3.9584 29.8187C3.52507 30.4766 3.21319 31.2276 3.16072 32.0252C3.16072 32.0427 3.1306 32.0427 3.13158 32.0252H3.1306V32.0242Z" fill="#091F2F"/>
<path d="M3.13063 32.0242C3.13743 28.6708 8.38502 25.3095 10.9403 23.5891C14.2185 21.4593 17.5102 19.1945 20.5164 16.7047C24.0879 13.7257 27.6216 10.0414 28.1618 5.29358C28.1133 6.87619 27.6479 8.43357 26.9269 9.84054C23.5672 16.1331 16.6057 19.6651 11.0316 23.7231C9.13023 25.1048 7.18316 26.4633 5.48286 28.0847C4.39079 29.1627 3.28997 30.4319 3.15881 32.0262C3.15881 32.0436 3.12869 32.0436 3.12966 32.0262H3.13063V32.0242Z" fill="#091F2F"/>
<path d="M3.13064 32.0242C3.17047 28.7202 8.36073 25.4512 10.8966 23.7793C14.1456 21.7116 17.4092 19.5109 20.4027 17.0976C23.9471 14.2177 27.5167 10.6401 28.1618 5.99707C28.0773 7.55542 27.5799 9.0769 26.8395 10.447C26.0953 11.822 25.1266 13.0659 24.052 14.1973C20.2715 18.1553 15.4165 20.783 10.987 23.9142C9.10206 25.2591 7.17345 26.5816 5.48481 28.1652C4.39954 29.218 3.30553 30.4581 3.15979 32.0262C3.15979 32.0436 3.12967 32.0436 3.13064 32.0252V32.0242Z" fill="#091F2F"/>
<path d="M3.13062 32.0233C3.20446 28.7678 8.33739 25.591 10.8529 23.9676C14.0737 21.9619 17.3081 19.8253 20.29 17.4877C23.7867 14.6961 27.4195 11.2941 28.1492 6.68408C28.1307 7.43609 27.9286 8.21817 27.6974 8.94786C25.0731 16.4766 15.1648 20.8257 9.06901 25.4182C7.23949 26.7592 5.31379 28.076 3.98562 29.939C3.55423 30.5571 3.23458 31.2645 3.16073 32.0242C3.16073 32.0417 3.13062 32.0407 3.13159 32.0233H3.13062Z" fill="#091F2F"/>
<path d="M3.13064 32.0233C3.23751 28.8163 8.31604 25.7317 10.8111 24.1558C14.0038 22.2113 17.21 20.1387 20.1792 17.8768C23.6585 15.1696 27.303 11.9025 28.1502 7.38757C28.1133 8.12696 27.8937 8.89352 27.6469 9.60575C24.8769 16.9308 15.0929 21.0944 9.04182 25.5716C7.22786 26.8766 5.32061 28.1565 3.99439 29.9798C3.56397 30.5843 3.2414 31.2771 3.15979 32.0252C3.15979 32.0427 3.12967 32.0417 3.13064 32.0233Z" fill="#091F2F"/>
<path d="M3.13064 32.0233C3.27152 28.8649 8.29467 25.8714 10.7703 24.3441C14.5653 22.0677 18.3789 19.6875 21.8164 16.8997C24.632 14.5855 27.37 11.756 28.1502 8.09106C28.0015 9.56111 27.3613 10.9972 26.5752 12.2528C24.1161 16.0245 20.2657 18.5871 16.5163 20.9421C13.9872 22.4908 11.4475 24.0248 9.01657 25.7229C7.21814 26.9921 5.32839 28.2361 4.00411 30.0186C3.57466 30.6095 3.24918 31.2887 3.15979 32.0242C3.15979 32.0417 3.1287 32.0407 3.13064 32.0223V32.0233Z" fill="#091F2F"/>
<path d="M3.13064 32.0233C3.30553 28.9124 8.27427 26.0102 10.7314 24.5314C14.4934 22.3287 18.2739 20.0232 21.7037 17.3325C24.5116 15.0949 27.2719 12.378 28.1502 8.79553C27.9627 10.2384 27.2913 11.6347 26.4868 12.8525C23.9743 16.5058 20.152 18.9704 16.4289 21.2449C13.9183 22.7401 11.4018 24.2247 8.9913 25.8762C7.20746 27.1095 5.33519 28.3176 4.01382 30.0593C3.58438 30.6377 3.25695 31.3023 3.15979 32.0252C3.15979 32.0427 3.1287 32.0408 3.13064 32.0223V32.0233Z" fill="#091F2F"/>
<path d="M3.13062 32.0233C3.33951 28.96 8.25578 26.1479 10.6935 24.7167C14.4235 22.5868 18.1709 20.357 21.5938 17.7624C24.3949 15.6014 27.1727 12.9961 28.1511 9.49902C27.9247 10.9147 27.2223 12.2693 26.4003 13.4492C23.8363 16.9832 20.0432 19.3518 16.3453 21.5457C13.8541 22.9866 11.3591 24.4237 8.96893 26.0266C7.19966 27.224 5.34488 28.3962 4.02448 30.0991C3.59601 30.6639 3.26567 31.3149 3.16073 32.0262C3.15976 32.0437 3.12964 32.0417 3.13159 32.0233H3.13062Z" fill="#091F2F"/>
<path d="M3.13064 32.0233C3.3716 29.0094 8.24026 26.2838 10.6576 24.902C12.4609 23.8997 14.4361 22.7848 16.1801 21.7077C20.5824 18.9297 26.5169 15.3773 28.1512 10.2025C27.8849 11.5891 27.1514 12.902 26.3129 14.0431C23.6993 17.4567 19.9354 19.7302 16.2618 21.8445C13.789 23.2321 11.3163 24.6206 8.94564 26.1771C7.19094 27.3385 5.35268 28.4758 4.03423 30.1379C3.60575 30.6901 3.2725 31.3266 3.15979 32.0262C3.15882 32.0437 3.1287 32.0408 3.13064 32.0233Z" fill="#091F2F"/>
<path d="M3.13062 32.0223C3.40655 29.0512 8.2208 26.4235 10.6236 25.0854C13.6812 23.4456 16.7543 21.6854 19.6574 19.7952C23.0687 17.5314 26.718 14.8193 28.1618 10.9235C27.8091 12.2839 27.095 13.5336 26.2274 14.634C23.5662 17.9273 19.8314 20.1076 16.183 22.1414C13.7268 23.4727 11.2774 24.8176 8.92521 26.3255C7.18314 27.4501 5.36431 28.5543 4.04586 30.1767C3.61544 30.7143 3.28121 31.3382 3.16073 32.0252C3.15879 32.0427 3.12964 32.0398 3.13159 32.0213H3.13062V32.0223Z" fill="#091F2F"/>
<path d="M3.13065 32.0223C3.44156 29.0977 8.20529 26.5593 10.5906 25.2688C13.6229 23.6891 16.6718 21.9901 19.5603 20.1736C22.8939 18.0001 26.6374 15.4588 28.1337 11.6182C28.1385 11.6017 28.1677 11.6104 28.1609 11.6269C27.7674 12.9524 27.0251 14.1605 26.1409 15.223C23.4341 18.395 19.7284 20.4831 16.1044 22.4374C13.6666 23.7163 11.2376 25.0136 8.90484 26.474C7.17637 27.5636 5.37309 28.632 4.05561 30.2155C3.62616 30.7405 3.28805 31.3499 3.1598 32.0252C3.15785 32.0427 3.1287 32.0388 3.13065 32.0213V32.0223Z" fill="#091F2F"/>
<path d="M3.13062 32.0223C3.47359 29.1463 8.1936 26.6923 10.5604 25.4512C13.5675 23.9317 16.5921 22.2938 19.467 20.5501C22.7782 18.4658 26.5286 16.0313 28.1337 12.3217C28.1395 12.3052 28.1677 12.3149 28.1609 12.3314C27.7266 13.6229 26.9571 14.7873 26.0564 15.81C23.3058 18.8608 19.6293 20.8567 16.0285 22.7333C13.6083 23.9589 11.1997 25.2087 8.88441 26.6234C7.16954 27.6781 5.38181 28.7115 4.06432 30.2553C3.63488 30.7667 3.29385 31.3635 3.15783 32.0272C3.15588 32.0446 3.12576 32.0407 3.12868 32.0233H3.13062V32.0223Z" fill="#091F2F"/>
<path d="M3.13062 32.0223C3.51051 29.1899 8.18 26.8291 10.5313 25.6327C13.5141 24.1723 16.5143 22.5965 19.3767 20.9246C22.6704 18.9267 26.4178 16.6037 28.1336 13.0242C28.1404 13.0077 28.1677 13.0184 28.1609 13.0358C27.6848 14.2924 26.889 15.4122 25.9748 16.3951C23.1824 19.3246 19.5341 21.2303 15.9586 23.0273C13.5558 24.2005 11.1677 25.4037 8.86983 26.7709C7.16759 27.7907 5.39443 28.7891 4.07792 30.2941C3.64848 30.7929 3.30356 31.376 3.16073 32.0281C3.15782 32.0456 3.12867 32.0417 3.13159 32.0233H3.13062V32.0223Z" fill="#091F2F"/>
<path d="M3.13063 32.0223C3.5455 29.2355 8.1703 26.963 10.505 25.8141C13.4645 24.413 16.4415 22.8983 19.2902 21.2982C22.5654 19.3867 26.31 17.1714 28.1337 13.7287C28.1405 13.7122 28.1677 13.7248 28.1599 13.7413C27.643 14.96 26.822 16.0351 25.8932 16.9783C21.1168 21.6563 14.4934 23.5542 8.85333 26.9184C7.16275 27.9023 5.40514 28.8668 4.08765 30.333C3.65821 30.8191 3.31038 31.3887 3.15881 32.0291C3.15589 32.0466 3.12675 32.0417 3.12966 32.0242H3.13063V32.0223Z" fill="#091F2F"/>
<path d="M3.1306 32.0213C3.59114 29.2685 8.15278 27.1017 10.4807 25.9927C13.4169 24.6507 16.3725 23.1971 19.2076 21.6679C22.4692 19.8398 26.2011 17.7371 28.1336 14.4292C28.1414 14.4137 28.1676 14.4263 28.1599 14.4428C27.6012 15.6227 26.7559 16.6532 25.8144 17.5556C20.9837 22.0327 14.4468 23.8152 8.83969 27.062C7.16078 28.0119 5.41676 28.9405 4.09831 30.3679C3.66886 30.8414 3.31715 31.3974 3.1578 32.0262C3.15489 32.0436 3.12574 32.0388 3.12963 32.0203H3.1306V32.0213Z" fill="#091F2F"/>
<path d="M3.13061 32.0213C3.62612 29.3141 8.14695 27.2337 10.4593 26.1722C13.3732 24.8894 16.3074 23.497 19.1299 22.0386C22.3517 20.3143 26.1263 18.2737 28.1346 15.1327C28.1433 15.1172 28.1696 15.1318 28.1599 15.1473C27.5604 16.2865 26.6928 17.2713 25.7387 18.133C20.8564 22.4102 14.404 24.0782 8.82901 27.2075C7.16175 28.1225 5.43037 29.0162 4.11094 30.4057C3.68053 30.8666 3.32492 31.409 3.15878 32.0271C3.15587 32.0446 3.12672 32.0388 3.13061 32.0213Z" fill="#091F2F"/>
<path d="M3.13159 32.0213C3.66305 29.3587 8.14405 27.3657 10.4409 26.3517C13.3333 25.1281 16.2462 23.7958 19.057 22.4083C22.2681 20.7645 26.0233 18.8374 28.1366 15.8372C28.1453 15.8217 28.1715 15.8372 28.1609 15.8527C27.5215 16.9492 26.6325 17.8875 25.6658 18.7103C20.7359 22.7877 14.3642 24.3431 8.82028 27.354C7.16371 28.2341 5.44593 29.0938 4.12456 30.4445C3.69415 30.8938 3.33466 31.4216 3.16074 32.0281C3.15685 32.0456 3.12771 32.0388 3.13256 32.0213H3.13159Z" fill="#091F2F"/>
<path d="M3.13159 32.0213C3.69997 29.4034 8.14113 27.4976 10.4244 26.5302C13.2954 25.3658 16.1898 24.0947 18.9871 22.776C22.1894 21.2109 25.9204 19.3983 28.1356 16.5397C28.1453 16.5252 28.1696 16.5416 28.1599 16.5562C27.4817 17.609 26.5723 18.5007 25.5949 19.2828C20.6213 23.1612 14.3283 24.6051 8.81251 27.4976C7.16565 28.3428 5.4605 29.1676 4.13622 30.4814C3.70483 30.9181 3.34145 31.4333 3.15976 32.0281C3.15588 32.0456 3.12673 32.0388 3.13159 32.0213Z" fill="#091F2F"/>
<path d="M3.13159 32.0203C3.73787 29.4461 8.14114 27.6277 10.4108 26.7068C13.2624 25.6006 16.1374 24.3906 18.9229 23.1418C22.1583 21.6301 25.7746 19.9892 28.1366 17.2413C28.1473 17.2267 28.1706 17.2442 28.1599 17.2587C27.4429 18.2659 26.5159 19.1111 25.5278 19.8524C20.5134 23.5329 14.2952 24.8651 8.80765 27.6403C7.17051 28.4505 5.47702 29.2413 4.14982 30.5163C3.71844 30.9404 3.3502 31.442 3.16074 32.0271C3.15685 32.0446 3.12771 32.0368 3.13256 32.0194H3.13159V32.0203Z" fill="#091F2F"/>
<path d="M3.1316 32.0204C3.7748 29.4888 8.14309 27.7577 10.4001 26.8854C13.2323 25.8384 16.0898 24.6886 18.8637 23.5096C20.5348 22.7935 22.1856 22.0337 23.7799 21.1633C25.3636 20.2862 26.8978 19.2819 28.1376 17.9448C28.1492 17.9312 28.1716 17.9496 28.1599 17.9632C27.4069 18.9229 26.4615 19.7224 25.4637 20.423C20.4114 23.9065 14.2661 25.1281 8.80378 27.7839C7.17538 28.5592 5.49258 29.3151 4.16247 30.5532C3.73011 30.9656 3.35798 31.4537 3.15978 32.0272C3.15492 32.0446 3.12675 32.0369 3.1316 32.0194V32.0204Z" fill="#091F2F"/>
<path d="M3.13159 32.0204C3.81365 29.5324 8.14697 27.8877 10.3923 27.063C13.207 26.0752 16.046 24.9855 18.8093 23.8764C22.1049 22.5053 25.5269 21.1051 28.1589 18.6483C27.0134 20.0329 25.4161 21.0411 23.8509 21.9192C19.0871 24.5217 13.7064 25.6443 8.80377 27.9285C7.18314 28.6688 5.51103 29.3908 4.178 30.5911C3.74467 30.9908 3.36769 31.4663 3.16171 32.0291C3.15685 32.0456 3.12868 32.0378 3.13353 32.0204H3.13159Z" fill="#091F2F"/>
<path d="M3.1316 32.0204C3.85156 29.5761 8.15378 28.0178 10.3875 27.2405C13.1847 26.3119 16.0082 25.2824 18.7597 24.2432C22.0379 22.9837 25.4929 21.5835 28.158 19.3721C26.9192 20.6627 25.3666 21.6126 23.7858 22.4306C19.0143 24.8739 13.6841 25.8947 8.80378 28.0731C7.19093 28.7785 5.52853 29.4665 4.19064 30.628C3.75537 31.0161 3.3745 31.478 3.15978 32.0301C3.15492 32.0466 3.12675 32.0378 3.1316 32.0214V32.0204Z" fill="#091F2F"/>
<path d="M3.13159 32.0194C3.89138 29.6169 8.16251 28.1478 10.3855 27.4181C12.9845 26.6118 16.1315 25.5221 18.716 24.6109C21.9854 23.3971 25.3636 22.2278 28.1385 20.0543C28.1511 20.0426 28.1715 20.064 28.1579 20.0756C27.3049 20.8858 26.3187 21.5476 25.2956 22.1288C20.1471 25.0262 14.2039 25.918 8.80765 28.2157C7.2016 28.8862 5.54892 29.5392 4.2052 30.6639C3.76896 31.0403 3.38323 31.4886 3.15977 32.0301C3.15394 32.0466 3.12673 32.0378 3.13256 32.0204H3.13159V32.0194Z" fill="#091F2F"/>
<path d="M3.13161 32.0194C3.93123 29.6596 8.17419 28.2778 10.3865 27.5966C12.971 26.8456 16.1034 25.8277 18.6771 24.9797C21.9407 23.8512 25.2947 22.7702 28.1385 20.7578C28.1521 20.7461 28.1706 20.7694 28.157 20.7801C27.2757 21.5389 26.2769 22.155 25.248 22.6965C20.0733 25.4008 14.1913 26.1829 8.81349 28.3593C7.21425 28.9949 5.56934 29.613 4.21979 30.6998C3.7816 31.0636 3.39102 31.4993 3.15881 32.0301C3.15298 32.0466 3.12481 32.0369 3.13161 32.0204V32.0194Z" fill="#091F2F"/>
<path d="M3.13161 32.0194C3.97204 29.7013 8.18779 28.4088 10.3914 27.7761C12.9612 27.0804 16.0801 26.1343 18.6451 25.3493C21.9019 24.3053 25.2344 23.3136 28.1395 21.4603C28.1541 21.4496 28.1716 21.4729 28.156 21.4835C27.2485 22.1899 26.2391 22.7624 25.2043 23.2641C20.0063 25.7772 14.1825 26.4477 8.82127 28.5029C7.22688 29.1026 5.59071 29.6857 4.23534 30.7347C3.79521 31.0869 3.39977 31.509 3.15881 32.0291C3.15298 32.0456 3.12481 32.0349 3.13161 32.0184V32.0194Z" fill="#091F2F"/>
<path d="M3.13157 32.0184C4.01475 29.741 8.2033 28.5398 10.3991 27.9547C12.9563 27.3152 16.0616 26.441 18.6169 25.72C21.8678 24.7623 25.179 23.856 28.1385 22.1628C28.1531 22.1531 28.1696 22.1773 28.154 22.187C27.2223 22.842 26.205 23.3699 25.1644 23.8327C19.947 26.1576 14.1776 26.7156 8.83095 28.6485C7.24142 29.2122 5.61205 29.7595 4.24988 30.7706C3.8078 31.1112 3.40653 31.5197 3.1578 32.0291C3.151 32.0456 3.1238 32.0339 3.1306 32.0174H3.13157V32.0184Z" fill="#091F2F"/>
<path d="M3.13157 32.0184C4.06139 29.7798 8.21884 28.6746 10.4108 28.1361C12.9554 27.552 16.0499 26.7505 18.5955 26.0936C21.8396 25.2222 25.1333 24.4003 28.1395 22.8653C28.155 22.8565 28.1696 22.8818 28.154 22.8905C27.2019 23.4931 26.1759 23.9782 25.1304 24.4013C21.9864 25.6579 18.6684 26.3895 15.3649 27.0872C13.1613 27.5355 10.9772 28.0798 8.84552 28.794C7.26085 29.3209 5.63732 29.8332 4.26737 30.8065C3.82335 31.1354 3.41625 31.5303 3.1578 32.0291C3.151 32.0456 3.1238 32.0339 3.13157 32.0174V32.0184Z" fill="#091F2F"/>
<path d="M3.13259 32.0184C4.10515 29.8216 8.24124 28.8076 10.4254 28.3195C12.9583 27.7917 16.0422 27.0639 18.58 26.471C21.8183 25.6861 25.0936 24.9486 28.1414 23.5698C28.157 23.562 28.1706 23.5872 28.1551 23.596C27.1835 24.1481 26.1507 24.5896 25.1013 24.9748C21.9475 26.1188 18.646 26.768 15.3572 27.387C13.1643 27.7829 10.9889 28.2788 8.86208 28.9434C7.2813 29.4344 5.66262 29.9099 4.2849 30.8453C3.83797 31.1616 3.42601 31.5439 3.15882 32.032C3.15105 32.0475 3.12482 32.0359 3.13259 32.0194V32.0184Z" fill="#091F2F"/>
<path d="M3.13259 32.0174C4.31794 29.5198 9.56261 28.6737 12.0732 28.1895C14.2438 27.7722 16.4036 27.29 18.5693 26.8504C21.8008 26.1518 25.0605 25.4988 28.1424 24.2723C28.158 24.2645 28.1706 24.2917 28.1541 24.2985C27.1669 24.8001 26.1273 25.1989 25.0751 25.5463C21.9135 26.5787 18.6276 27.1464 15.3533 27.6849C13.1701 28.0284 11.0035 28.4748 8.88152 29.0899C7.30365 29.5441 5.69177 29.9817 4.30337 30.8792C3.85449 31.1839 3.43573 31.5517 3.1598 32.03C3.15202 32.0456 3.12579 32.033 3.13356 32.0165H3.13259V32.0174Z" fill="#091F2F"/>
<path d="M3.13257 32.0174C4.37135 29.5664 9.58299 28.8396 12.0878 28.4146C15.3251 27.8382 18.5634 27.2483 21.7891 26.6127C23.9412 26.1974 26.0923 25.6637 28.1618 24.9845C26.6879 25.6938 25.0527 26.1392 23.4603 26.5506C20.7923 27.2046 18.0708 27.6063 15.3533 27.9877C13.1798 28.2778 11.0209 28.6747 8.9019 29.2394C7.32597 29.6566 5.71895 30.0564 4.32083 30.9152C3.86709 31.2092 3.44348 31.5633 3.1588 32.0301C3.15103 32.0456 3.12479 32.032 3.13354 32.0165H3.13257V32.0174Z" fill="#091F2F"/>
<path d="M3.13255 32.0174C4.4238 29.6149 9.60726 29.0065 12.1052 28.6426C14.2602 28.3273 16.4075 27.9498 18.5605 27.6219C21.7619 27.1318 25.1013 26.5312 28.1531 25.7064C26.1215 26.5079 23.9781 26.997 21.8338 27.3948C17.5481 28.1876 13.1594 28.3283 8.92423 29.3917C7.35122 29.7711 5.74614 30.1331 4.33927 30.953C3.88262 31.2344 3.45318 31.5759 3.15781 32.031C3.14907 32.0466 3.12381 32.032 3.13255 32.0165V32.0174Z" fill="#091F2F"/>
<path d="M3.13254 32.0165C4.47528 29.6644 9.6364 29.1744 12.1256 28.8736C14.2738 28.6106 16.4162 28.2856 18.5624 28.0148C21.7561 27.6102 25.0877 27.0979 28.1511 26.4109C26.1011 27.1202 23.9597 27.5423 21.8192 27.8771C17.5423 28.5466 13.1798 28.5864 8.94754 29.546C7.89239 29.7682 6.83918 30.0001 5.82386 30.3475C5.0699 30.6114 4.31983 30.9326 3.69898 31.444C3.49495 31.6157 3.30937 31.8108 3.15586 32.032C3.14711 32.0466 3.12185 32.032 3.1306 32.0165H3.13254Z" fill="#091F2F"/>
<path d="M3.13354 32.0165C4.33346 30.0312 8.38501 29.4936 10.542 29.2656C13.2061 29.022 15.9129 28.6863 18.5693 28.4117C21.7746 28.0585 24.9818 27.7431 28.1443 27.0853C24.1346 28.3622 19.6273 28.6048 15.3747 28.9211C13.2274 29.0502 11.087 29.2908 8.97574 29.7013C7.92156 29.8963 6.86932 30.104 5.85206 30.4242C5.09616 30.6697 4.34317 30.9695 3.71261 31.4615C3.50469 31.6264 3.31522 31.8156 3.15783 32.032C3.14908 32.0466 3.12382 32.032 3.13354 32.0165Z" fill="#091F2F"/>
<path d="M3.13354 32.0165C4.38593 30.072 8.41611 29.6392 10.573 29.4645C13.2294 29.2879 15.9304 29.0191 18.58 28.8154C21.7785 28.5485 24.976 28.3176 28.1453 27.7897C24.1113 28.9037 19.6283 29.0366 15.3892 29.2423C13.2498 29.3161 11.1152 29.5043 9.00489 29.8614C7.95168 30.0293 6.90042 30.2107 5.88024 30.5028C5.12143 30.7289 4.3665 31.0083 3.72622 31.4809C3.51538 31.639 3.32203 31.8224 3.1588 32.033C3.14909 32.0475 3.1248 32.031 3.13451 32.0165H3.13354Z" fill="#091F2F"/>
<path d="M3.13352 32.0155C4.68419 29.7964 9.69762 29.712 12.2043 29.5897C14.3341 29.4888 16.4628 29.3258 18.5916 29.2239C21.759 29.0754 25.0751 28.8299 28.1502 28.5214C25.0148 29.1909 21.8008 29.3985 18.6033 29.4975C15.9411 29.5945 13.2682 29.5189 10.6187 29.8284C9.03985 30.0137 7.45032 30.1913 5.90743 30.5823C5.1457 30.7881 4.38785 31.0462 3.73688 31.4993C3.52313 31.6516 3.32493 31.8282 3.15684 32.033C3.14712 32.0475 3.12283 32.0301 3.13352 32.0155Z" fill="#091F2F"/>
<path d="M3.13353 32.0155C4.48696 30.1583 8.48896 29.9361 10.6401 29.8721C13.2809 29.8332 15.9712 29.7023 18.6072 29.6382C21.7911 29.5441 24.9701 29.481 28.1463 29.1957C24.0753 30.0011 19.637 29.9167 15.4242 29.8973C13.3013 29.8604 11.1754 29.939 9.06609 30.1864C8.01385 30.3 6.96259 30.4232 5.93658 30.6629C5.17194 30.8463 4.41118 31.085 3.74952 31.5177C3.53189 31.6633 3.32979 31.8341 3.15588 32.033C3.14519 32.0466 3.12187 32.0291 3.13256 32.0155H3.13353Z" fill="#091F2F"/>
<path d="M3.13453 32.0155C4.53945 30.2029 8.52785 30.0894 10.676 30.0826C13.31 30.1146 15.9946 30.0535 18.6237 30.0603C21.6969 30.0642 25.1198 30.0428 28.1609 29.9138C23.9733 30.5367 19.674 30.3795 15.4437 30.2349C13.3285 30.1428 11.2075 30.1651 9.09818 30.3553C8.04691 30.4406 6.99467 30.5348 5.96576 30.7463C5.1982 30.9074 4.43355 31.1257 3.76218 31.5381C3.54065 31.6768 3.33468 31.8418 3.1559 32.0349C3.14521 32.0485 3.1219 32.03 3.13356 32.0165H3.13453V32.0155Z" fill="#091F2F"/>
<path d="M3.13449 32.0145C4.59091 30.2485 8.56765 30.2447 10.7129 30.2971C13.3392 30.4009 16.0198 30.4106 18.6421 30.4872C21.7075 30.56 25.0925 30.6697 28.1463 30.6027C24.052 31.1248 19.6516 30.822 15.465 30.5775C13.3566 30.429 11.2415 30.3941 9.13118 30.5261C7.32206 30.6512 5.40219 30.6784 3.77477 31.5565C3.55033 31.6885 3.34047 31.8476 3.15489 32.034C3.14323 32.0475 3.12089 32.0281 3.13255 32.0145H3.13449Z" fill="#091F2F"/>
<path d="M3.13449 32.0145C4.64435 30.2951 8.60749 30.4048 10.7508 30.5163C13.3702 30.692 16.045 30.7745 18.6616 30.921C21.7201 31.0753 25.0974 31.2742 28.1472 31.3062C24.0442 31.6963 19.6613 31.2848 15.4874 30.9258C13.3868 30.7201 11.2755 30.6279 9.16615 30.6997C7.35899 30.7735 5.43717 30.7483 3.78935 31.575C3.56102 31.7001 3.34727 31.8525 3.15587 32.033C3.14421 32.0456 3.12186 32.0262 3.13449 32.0126V32.0145Z" fill="#091F2F"/>
<path d="M3.13545 32.0145C4.70069 30.3426 8.64731 30.5697 10.7887 30.7414C13.4004 30.9918 16.0713 31.1461 18.681 31.3624C21.7337 31.5992 25.1013 31.8845 28.1472 32.0106C24.0374 32.2755 19.6691 31.7554 15.5087 31.2829C13.4159 31.0199 11.3085 30.8695 9.19918 30.8812C7.39104 30.9015 5.47214 30.821 3.801 31.5973C3.56976 31.7166 3.35115 31.8612 3.15488 32.0359C3.14323 32.0485 3.12185 32.0281 3.13448 32.0155H3.13545V32.0145Z" fill="#091F2F"/>
<path fill-rule="evenodd" clip-rule="evenodd" d="M14.8719 11.8318L16 12L14.8719 12.1682C13.0429 12.4408 11.6074 13.8763 11.3348 15.7052L11.1666 16.8333L10.9984 15.7052C10.7258 13.8763 9.29035 12.4408 7.46141 12.1682L6.33331 12L7.46141 11.8318C9.29035 11.5592 10.7258 10.1237 10.9984 8.29473L11.1666 7.16663L11.3348 8.29473C11.6074 10.1237 13.0429 11.5592 14.8719 11.8318Z" fill="#091F2F"/>
<path d="M10.0746 13.4541L7.12677 16.1234L9.79963 13.1804L10.0746 13.4541Z" fill="#091F2F"/>
<path d="M12.4327 10.5499L15.3805 7.88049L12.7076 10.8245L12.4327 10.5499Z" fill="#091F2F"/>
<path d="M9.79963 10.8245L7.12677 7.88049L10.0746 10.5499L9.79963 10.8245Z" fill="#091F2F"/>
<path d="M12.7076 13.1804L15.3805 16.1234L12.4327 13.4541L12.7076 13.1804Z" fill="#091F2F"/>
</g>
<line x1="41.5833" x2="41.5833" y2="45" stroke="#091F2F" stroke-width="1.5"/>
<defs>
<clipPath id="clip0_18_68">
<rect width="28.1667" height="43.5" fill="white" transform="translate(0 0.833313)"/>
</clipPath>
</defs>
</svg>
